<svg xmlns="http://www.w3.org/2000/svg" xmlns:xlink="http://www.w3.org/1999/xlink" version="1.1" id="svg-edited-version" x="0px" y="0px" viewBox="0 0 595.3 595.3" enable-background="new 0 0 595.3 595.3" xml:space="preserve" class="injected-svg" data-src="https://preview.pixlr.com/images/svg/100/1/032ce741b80d81adc41bc2d20a6ebb0acf839eff08b0345f8229b1a19aab42ea.svg">
<g>
	<path fill="#4E5273" d="M550.4,284.3c-2.2,6.6-2.9,31-14,37.6c-11.1,6.6-22.8-5.9-35.4,3.7c-12.5,9.6-25.1-0.7-26.5-8.1   c-0.7-3.7-1.7-10.1-1.6-17c0,0,0,0,0,0c0-0.9,0-1.7,0.1-2.6c0,0,0-0.1,0-0.1c0-0.8,0.1-1.7,0.2-2.5c0-0.3,0.1-0.5,0.1-0.8   c0.1-0.6,0.1-1.2,0.2-1.8c0,0,0,0,0-0.1c0.3-1.7,0.6-3.3,1-4.9c0.1-0.4,0.3-0.8,0.4-1.1c0.1-0.4,0.2-0.8,0.4-1.2   c0-0.1,0.1-0.2,0.2-0.4c0.2-0.6,0.5-1.2,0.8-1.8c0.3-0.7,0.7-1.4,1.1-2c0.6-1,1.3-1.9,2.1-2.8c0.5-0.6,1-1.2,1.6-1.8   c0.3-0.3,0.5-0.6,0.8-0.9c0.6-0.6,1.1-1.2,1.7-1.8c0.6-0.6,1.2-1.2,1.8-1.9c0.9-0.9,1.8-1.9,2.7-2.9c0.9-1,1.8-2,2.7-3   s1.7-2.1,2.5-3.3c3.4-5,6.1-11,6.3-19.1c0-0.4,0-0.7,0-1.1c-0.1-0.7-0.2-1.4-0.4-2c-0.1-0.3-0.3-0.6-0.4-1   c-0.3-0.6-0.7-1.2-1.2-1.8c-2-2.3-5.2-4.1-9.4-5.4c-1.4-0.4-2.9-0.8-4.5-1.1c-0.6-0.1-1.2-0.2-1.8-0.3c-0.6-0.1-1.2-0.2-1.8-0.3   s-1.3-0.2-1.9-0.2c-1.3-0.1-2.6-0.3-4-0.3c-0.7,0-1.4-0.1-2.1-0.1c-1.4-0.1-2.8-0.1-4.3-0.1c-0.7,0-1.5,0-2.2,0   c-0.7,0-1.5,0-2.2,0.1c-0.9,0-1.9,0.1-2.8,0.1c-2.9,0.2-5.8,0.5-8.8,0.8c-0.8,0.1-1.6,0.2-2.4,0.4c-0.7,0.2-1.4,0.3-2.1,0.6   c-0.2,0.1-0.5,0.2-0.7,0.2c-0.5,0.2-0.9,0.3-1.4,0.5c-0.3,0.1-0.5,0.2-0.8,0.3c-0.4,0.2-0.8,0.4-1.2,0.6c-0.3,0.1-0.5,0.3-0.8,0.4   c-0.4,0.2-0.8,0.4-1.1,0.6c-0.2,0.1-0.5,0.3-0.7,0.5c-0.4,0.2-0.7,0.5-1.1,0.7c-0.2,0.2-0.4,0.3-0.7,0.5c-0.4,0.3-0.7,0.6-1.1,0.9   c-0.2,0.1-0.4,0.3-0.5,0.4c-0.5,0.5-1,0.9-1.5,1.5c-1.2,1.2-2.3,2.6-3.2,4c-1.4,2.1-2.6,4.5-3.3,7c-0.8,2.5-1.3,5.1-1.3,7.8   c0,0.9,0,1.8,0,2.7c0,0.1,0,0.2,0,0.3c0,0.8,0.1,1.5,0.1,2.3c0,0,0,0.1,0,0.1c0,0.8,0,1.6-0.1,2.4c0,0.3,0,0.5-0.1,0.8l0,0   c0,0,0,0.1,0,0.1c0,0.3-0.1,0.6-0.1,1c0,0.1,0,0.2,0,0.3c0,0.5-0.1,0.9-0.2,1.4c0,0.1,0,0.1,0,0.2c0,0.2,0,0.4-0.1,0.6c0,0,0,0,0,0   h0c-5-2.1-9.7-5-13.7-8.9c-0.9-0.9-1.8-1.9-2.7-2.9c-4.8-5.7-8-11.9-10.3-18.4c-1.1-3-1.9-6.2-2.7-9.4c-0.5-2.3-1-4.6-1.5-7   c-0.2-1.2-0.5-2.4-0.7-3.7c-0.5-2.5-0.9-5-1.3-7.5c0,0,0,0,0,0l0,0c0.2-0.1,0.4-0.2,0.6-0.2c0.2-0.1,0.3-0.1,0.5-0.2   c0.6-0.2,1.2-0.4,1.8-0.6c0.1,0,0.2-0.1,0.3-0.1c23.9-8.3,77.4-25.5,113-25C571.1,187,552.7,277.7,550.4,284.3z M396.9,354   c-0.2,0-0.4,0.1-0.6,0.1c0,0,0,0,0,0c-0.3,0-0.6,0.1-0.9,0.1c0,0,0,0,0,0c0,0,0,0,0,0c-0.2,0-0.5,0.1-0.7,0.2   c-0.3,0.1-0.6,0.1-0.9,0.2c-0.3,0.1-0.6,0.2-0.9,0.3c0,0,0,0-0.1,0c-1,0.4-2.1,0.8-3.2,1.4c-0.1,0-0.2,0.1-0.2,0.1   c-0.5,0.3-1.1,0.6-1.6,0.9c-0.5,0.3-1.1,0.7-1.7,1.1c-0.1,0.1-0.2,0.2-0.4,0.2c-0.2,0.1-0.3,0.2-0.5,0.4c-0.4,0.3-0.8,0.6-1.2,0.9   c0,0,0,0,0,0c-0.6,0.4-1.1,0.9-1.7,1.4c-0.1,0.1-0.3,0.2-0.4,0.4c-0.6,0.5-1.1,1-1.7,1.6c-0.2,0.2-1.2,1.1-2.7,2.5   c-0.5,0.5-1,1-1.7,1.5c-0.3,0.3-0.6,0.6-1,0.9c-0.7,0.6-1.4,1.3-2.1,2c-1.1,1.1-2.4,2.2-3.7,3.5c-0.9,0.8-1.8,1.7-2.8,2.6   c-3.5,3.3-7.5,7.1-11.8,11.2c-0.7,0.7-1.5,1.4-2.3,2.2c-0.8,0.7-1.5,1.5-2.3,2.2c-2.1,2-4.2,4.1-6.4,6.2c0,0,0,0,0,0   c-1,1-2,2-3,2.9c-0.5,0.5-1,1-1.6,1.5c-0.8,0.8-1.6,1.6-2.3,2.3c-0.8,0.8-1.5,1.5-2.3,2.3c-1,1-2,2-3,3c-0.5,0.5-1,1-1.5,1.6   c-0.5,0.5-1,1-1.5,1.5c-0.5,0.5-1,1.1-1.5,1.6c-0.7,0.7-1.4,1.4-2,2.1c-0.7,0.8-1.5,1.5-2.2,2.3c-0.8,0.9-1.6,1.7-2.4,2.6   c-0.4,0.5-0.8,0.9-1.2,1.4c2.7,0.4,6.7,1.7,11.1,3.3c0.7,0,1.4,0.1,2.1,0.2c0.4,0,0.8,0.1,1.2,0.2s0.9,0.1,1.3,0.2   c4.9,0.9,9.7,4.3,13.5,7.9c1,0.6,1.9,1.2,2.8,1.7c1.9,1.2,3.4,2.5,4.5,3.6c3.5,3.7,4.7,7.6,5.1,10.3c8.7-12.6,27-37.3,42.3-54.3   c0.1-0.1,0.1-0.1,0.2-0.2C419,378.5,413.3,352.5,396.9,354z M321.2,237.4c0.2,0,0.4,0.1,0.5,0.1c-0.4,0.3-0.7,0.7-0.9,1.1   c2.3,1.4,4.6,2.9,6.9,4.2c0.5,0.3,0.9,0.5,1.4,0.8c1.4,0.7,2.8,1.4,4.3,2c3.4,1.3,7,2.2,11.1,2c8.6-0.3,16.6-4.1,22.9-9.7   c6.7-6,11-13.9,13.9-22.4c-0.5-0.2-1-0.3-1.6-0.3c-1.6-0.1-3.2-0.1-4.9,0c1.2-1.6,2.2-3.2,3.2-4.9c0,0,0,0,0,0   c0.5-0.8,1-1.6,1.4-2.4c0.1-0.1,0.1-0.2,0.2-0.4c0.4-0.8,0.8-1.6,1.2-2.4c0.1-0.2,0.2-0.4,0.2-0.5c0.4-0.8,0.7-1.6,1-2.5   c0.1-0.1,0.1-0.3,0.2-0.4c0.7-2,1.4-4,1.9-6.1c0.1-0.2,0.1-0.5,0.2-0.7c0.2-0.8,0.4-1.5,0.5-2.3c0.1-0.3,0.1-0.7,0.2-1   c0.1-0.7,0.2-1.4,0.3-2.1c0-0.4,0.1-0.7,0.1-1.1c0.1-0.7,0.1-1.5,0.2-2.2c0-0.3,0.1-0.7,0.1-1c0.1-1.1,0.1-2.1,0.1-3.2   c0-8.3-1.8-16.2-5.1-23.3l9.2-13.9l0,0l0.2-0.3c3-4.6,2.9-10.5,0-14.9c-0.1-0.1-0.1-0.2-0.2-0.2c-0.2-0.2-0.3-0.5-0.5-0.7   c-0.2-0.2-0.4-0.4-0.6-0.6c-0.1-0.1-0.2-0.2-0.2-0.3c-0.1-0.1-0.2-0.2-0.3-0.3c-0.3-0.2-0.5-0.5-0.8-0.7c0,0,0,0,0,0   c0,0-0.1-0.1-0.1-0.1c-0.5-0.4-0.9-0.7-1.4-1c0,0-0.1,0-0.1-0.1c-0.5-0.3-1-0.5-1.5-0.8l0,0l0,0c-4.8-2.1-10.5-1.3-14.5,2.5   l-8.8,8.2c-2.2-1.5-4.6-2.8-7-4h0l-10,10.6c1.1,1,1.7,2.1,1.7,3.3c0,3.3-4.8,6-10.8,6.3L320,167.1l-0.6,0.6l-6.7,7.1l-15.4,16.3   l-7.3,7.8l-33.3,35.2c1.4,0.9,3,1.6,4.9,2c2.2,0.5,4.2,0.7,6.1,0.7c0.4,0,0.7,0,1.1,0s0.7,0,1.1,0c0.7,0,1.4-0.1,2-0.2   c0.7-0.1,1.3-0.2,1.9-0.3c0.6-0.1,1.2-0.3,1.7-0.4c0.3-0.1,0.5-0.2,0.8-0.2c0.5-0.2,1-0.3,1.5-0.5c3.8-1.4,5.8-3.2,5.8-3.2   s0,5.1,7.8,4.5c5-0.4,12.8-1.4,17.9-2c0.9,0.3,1.8,0.6,2.7,0.9c0.2,0.1,0.5,0.1,0.7,0.2c0.7,0.2,1.4,0.4,2.1,0.6   c0.2,0.1,0.4,0.1,0.7,0.2c0.8,0.2,1.5,0.4,2.3,0.5c0.2,0,0.3,0.1,0.5,0.1C319.3,237.1,320.2,237.2,321.2,237.4   C321.2,237.4,321.2,237.4,321.2,237.4z M317.4,260.6c0-0.1,0-0.2,0-0.3c-0.2-3.5-0.9-12.7-4.7-13c0,0,0,0,0,0c0,0,0,0,0,0   c-0.4,0.5-0.8,0.9-1.3,1.4c-13,14.7-41.6,45.9-66.8,61.9c-30.7,19.5-47.6,20.3-56.2,17.7c-0.6-2.3-4-8.6-8.8-12.6   c-0.5-0.4-1-0.8-1.5-1.1c-0.7-0.4-1.3-0.9-2-1.2c-0.6-0.3-1.1-0.5-1.7-0.7c-2-0.6-4.3-0.4-6.8,0.3c-7.6,2-16.7,7.6-23.9,3.5   c-4.7-2.7-7.8-0.7-8.6,2.8c-6.2,0.4-4.8,8.7-4.8,8.7l-7-3.7c-14.5-8.5-19.6,6.3-14.5,8.5c5.2,2.2,14.5,11.5,14.5,11.5   c-20.4-5.9-19.2,8.4-15.6,9.3c5.3,1.3,10.7,3.3,16.5,5.8c3.7-4,7.5-8,11.4-12.1s7.8-8.3,11.7-12.6c4.6,0.8,8.8-0.4,13.3-0.8   c0.7-0.1,1.3-0.1,2-0.1l-6.1,6.4l-22.3,23.6c1.2,0.5,2.5,1.1,3.8,1.7c9.9,4.3,17.6,6.6,23.7,7.8c13.1,3.3,32.6,2.7,59.8-9.8   c39-17.9,69.5-51.6,86.1-73c-0.3,2.4-0.7,4.9-1.1,7.5c-0.1,0.7-0.2,1.4-0.4,2.1c-0.1,0.4-0.2,0.8-0.2,1.3c0,0.1,0,0.2-0.1,0.4   c3.1-4.3,5.8-8.8,7.9-13.6c1.2-2.9,2.2-5.9,2.9-9c0.2-0.7,0.3-1.5,0.4-2.2c0.4-2.2,0.6-4.5,0.7-6.8c0.1-3,0-6.1-0.2-9   C317.4,260.8,317.4,260.7,317.4,260.6z M255.9,450.2c-3.3-4.1-6.9-7.9-10.9-11.3c-0.3-0.2-0.5-0.4-0.8-0.6   c-6.5-5.4-13.8-9.6-21.8-12.3c0,0,0,0,0,0c-1.3,1-2.6,1.9-3.7,2.8c-7.7,6.6-21.7,5.5-53.8,42c-15.3,17.5-21.2,33.1-23.2,44.6   c1.3-0.7,3.5-1.4,6.3-0.8c0.6,0.1,1.2,0.3,1.8,0.4c1.2-1.4,3.1-3.4,6.1-4.9c0.9-0.5,1.9-0.9,3-1.2c0.4-0.1,0.7-0.2,1.1-0.3   c0.8-0.2,1.6-0.4,2.5-0.5c0.8-0.1,1.8-0.2,2.9-0.2c0.5,0,1.1,0,1.7,0s1.2,0.1,1.8,0.1c1.1,0.1,2.3,0.2,3.5,0.4   c3.1-0.3,6.4-0.3,9.5,0.2c1.9,0.3,3.7,0.7,5.4,1.4c0.7,0.3,1.3,0.5,1.9,0.9c0.9,0.5,1.6,0.9,2.4,1.3c0.7,0.4,1.4,0.9,2,1.3   c5.7,1.8,10.5,3.8,12.9,5.4c1.4,0.9,2.2,2,2.6,3.1h0c0.2-0.7,0.4-1.4,0.6-2.1c0.1-0.2,0.1-0.4,0.2-0.6c0.2-0.5,0.3-1.1,0.5-1.7   c0.1-0.2,0.1-0.4,0.2-0.7c0.2-0.8,0.5-1.5,0.7-2.3c0.3-0.9,0.6-1.8,0.8-2.7c0.3-0.9,0.6-1.9,0.9-2.9c0.3-1,0.7-1.9,1-2.9   c0.5-1.5,1.1-3,1.6-4.5c0.2-0.5,0.4-1,0.6-1.5c0.4-1,0.8-2,1.2-3c2.1-5.3,4.5-10.6,7.2-15.4c0.9-1.6,1.8-3.2,2.7-4.7   c0.5-0.9,1.1-1.7,1.6-2.5c0.8-1.2,1.7-2.4,2.6-3.5c0.6-0.7,1.2-1.4,1.8-2.1c1.8-2,3.7-3.7,5.7-5.1c0.5-0.4,1.1-0.8,1.7-1.2   c0.2-0.1,0.4-0.3,0.6-0.5c0.4-0.3,0.7-0.5,1.1-0.8c0.3-0.2,0.5-0.4,0.8-0.6c0.3-0.3,0.7-0.5,1-0.8c0.3-0.2,0.6-0.5,0.9-0.7   c0.3-0.2,0.5-0.4,0.8-0.6c0.1,0,0.1-0.1,0.2-0.1c1.8-1.5,3.7-3.1,5.7-4.8c0.2-0.2,0.4-0.3,0.6-0.5c0,0,0,0,0,0c0,0,0.1,0,0.1-0.1   c0.1,0,0.1-0.1,0.2-0.1l0,0c0,0,0,0,0,0s0,0,0,0c0.5-0.5,1.1-0.9,1.6-1.4c0.1-0.1,0.2-0.1,0.2-0.2c0.1-0.1,0.1-0.1,0.2-0.2   c0,0,0,0,0,0C255.2,450.8,255.5,450.5,255.9,450.2C255.9,450.2,255.9,450.2,255.9,450.2L255.9,450.2z M238.2,185.1   c0,0-13.3,18.7-6.6,30.5c6.6,11.8,17.8,0.9,17.8,0.9s-0.3,3.9,0.9,8.3c15.8-16.9,31.3-33.4,45.9-49c0.4-0.5,0.9-0.9,1.3-1.4   c3.7-3.9,7.3-7.8,10.9-11.6c5-5.3,9.9-10.6,14.6-15.6c-0.4-0.6-0.6-1.3-0.6-2c0-2.8,3.4-5.2,8.1-6c3.9-4.2,7.7-8.2,11.4-12.1   c-3.3-0.7-6.6-1.2-10.1-1.3c-0.1-0.1-0.2-0.1-0.3-0.2c0,0,0,0,0,0c-0.4-0.3-0.7-0.6-1.1-0.9c0,0-0.1,0-0.1-0.1   c-0.4-0.3-0.8-0.6-1.2-0.8c-0.1,0-0.1-0.1-0.2-0.1c-0.4-0.3-0.8-0.5-1.2-0.8c-0.1-0.1-0.2-0.1-0.3-0.2c-0.4-0.2-0.8-0.5-1.2-0.7   c-0.1-0.1-0.3-0.1-0.4-0.2c-0.4-0.2-0.8-0.4-1.2-0.6c-0.2-0.1-0.4-0.2-0.5-0.2c-0.4-0.2-0.8-0.4-1.2-0.5c-0.2-0.1-0.5-0.2-0.7-0.2   c-0.4-0.2-0.8-0.3-1.2-0.4c-0.3-0.1-0.5-0.2-0.8-0.2c-0.4-0.1-0.8-0.3-1.2-0.4c-0.3-0.1-0.6-0.2-1-0.2c-0.4-0.1-0.8-0.2-1.3-0.3   c-0.4-0.1-0.7-0.1-1.1-0.2c-0.4-0.1-0.8-0.2-1.3-0.2c-0.4-0.1-0.9-0.1-1.3-0.2c-0.4-0.1-0.8-0.1-1.3-0.1c-0.5,0-1-0.1-1.4-0.1   c-0.4,0-0.8-0.1-1.3-0.1c-0.5,0-1.1,0-1.6,0c-0.4,0-0.8,0-1.3,0c-0.6,0-1.2,0-1.8,0.1c-0.4,0-0.8,0-1.2,0c-0.7,0-1.4,0.1-2.2,0.2   c-0.4,0-0.7,0.1-1.1,0.1c-1.1,0.1-2.3,0.3-3.4,0.5c-33.2,5.1-34.7,21.1-33.8,22c0,0-24.1,2.7-31.7,26.2   C223.4,190.2,238.2,185.1,238.2,185.1z" originalFill="#4E5273"/>
	<path fill="#F04C23" d="M223.6,572.8l2.9,6.9c0,0-6.5,1.4-15.6,3.1c-2.5-2.9-8.9-1.7-10.5,1.8c-4.9,0.8-10,1.6-15.1,2.2   c-0.1-0.1-0.2-0.3-0.3-0.4c-0.6-0.5-1.3-0.9-2-1.1c-0.2-0.1-0.5-0.2-0.7-0.2c-0.9-0.3-1.9-0.3-2.9-0.2c-0.5,0.1-0.9,0.2-1.4,0.3   c-1.3,0.5-2.6,1.4-3.4,2.7c-4.1,0.3-7.9,0.5-11.3,0.4c-1.6,0-3.1-0.1-4.7-0.2c0-0.1-0.1-0.3-0.1-0.4c-0.3-0.5-0.6-0.9-1-1.3   c-0.4-0.4-0.8-0.7-1.3-1c-1-0.5-2.1-0.8-3.2-0.8c-0.5,0-0.9,0.1-1.3,0.2s-0.8,0.3-1.1,0.5c-0.6,0.4-1.1,1.1-1.4,1.8   c-5.7-0.7-11.2-1.8-15.9-2.8c-0.6-1.2-1.5-2.3-2.8-2.8c-0.7-0.3-1.4-0.4-2.1-0.4c-0.5,0-0.9,0.1-1.3,0.3c-0.7,0.2-1.3,0.6-1.8,1.1   c-1.6-0.4-3-0.8-4-1.1c-0.4-0.1-0.7-0.2-1-0.3c-1.2-0.3-1.8-0.5-1.8-0.5l1.7-7.8c0.2,0,0.8,0.1,1.7,0.3c5.2,1,20.7,4.5,27,4.8   c4.3,0.2,8.1-1.7,10.4-3.3c0.8-0.5,1.6-1,2.4-1.3c1.4-0.6,2.9-0.9,4.5-0.9l13.9-0.1c0.9,0,1.9,0.1,2.8,0.3s1.8,0.5,2.7,0.9   c1.9,0.9,4.8,1.8,8.5,1.5c5.3-0.5,21.8-4.3,26.7-5.4h0h0c0.9-0.2,1.4-0.3,1.4-0.3L223.6,572.8z M374.2,288c0-0.1,0-0.3,0-0.7   c0-0.4,0-0.7,0-0.9c0-0.3,0-0.6-0.1-0.9c-0.1-0.3-0.1-0.6-0.3-0.8c-0.1-0.2-0.3-0.3-0.5-0.4c-0.2-0.1-0.5-0.1-0.8,0   c-0.4,0.1-0.7,0.3-1,0.5c-0.3,0.2-0.5,0.4-0.6,0.6c-0.1,0.2-0.2,0.5-0.3,0.7c-0.1,0.3-0.1,0.5-0.1,0.7c0,0.1,0,0.3,0,0.6v5.7   l0.1-0.3c0.1-0.2,0.2-0.4,0.4-0.6c0.2-0.3,0.4-0.5,0.7-0.8c0.3-0.3,0.6-0.6,1.1-0.9c0.5-0.3,1-0.6,1.5-0.8c2.6-1,4.4-0.9,5.4,0.2   c1,1.1,1.5,3.3,1.5,6.6c0,1.2-0.1,2.4-0.2,3.4c-0.1,1-0.4,2.1-0.8,3.1c-0.4,1.1-0.9,2-1.5,2.9c-0.6,0.9-1.5,1.7-2.5,2.4   c-1.1,0.8-2.3,1.4-3.7,2c-1.1,0.4-2.1,0.7-3.1,0.8c-0.9,0.1-1.7,0.2-2.3,0.1c-0.6-0.1-1.2-0.3-1.6-0.7c-0.5-0.4-0.8-0.8-1.1-1.2   c-0.3-0.5-0.5-1.1-0.6-1.8c-0.2-0.7-0.3-1.4-0.3-2.1s-0.1-1.5-0.1-2.5v-6.8c0,0,0,0,0-0.1c0-1.4,0-2.4,0-3.1c0-0.7,0.1-1.7,0.2-2.9   c0.1-1.2,0.3-2.2,0.5-2.9c0.2-0.7,0.6-1.6,1-2.6c0.4-1,1-1.8,1.6-2.5c0.6-0.6,1.5-1.3,2.5-2c1-0.7,2.1-1.3,3.4-1.7   c1-0.4,1.9-0.6,2.9-0.7c1-0.1,1.9,0,2.8,0.2c0.9,0.2,1.6,0.6,2.1,1.3c0.5,0.7,0.8,1.5,0.8,2.6v3.6L374.2,288z M370.5,299.4v3   c0,1.6,0.6,2.3,1.7,1.8c0.7-0.3,1.2-0.8,1.4-1.5c0.2-0.5,0.2-1.4,0.2-2.7v-1.5c0-1.8-0.5-2.6-1.5-2.2   C371.1,296.8,370.5,297.8,370.5,299.4z M260.3,446.2L260.3,446.2L260.3,446.2c-2.5-2.8-5.1-5.5-7.8-8c-0.9-0.8-1.8-1.6-2.8-2.4   c-7.1-6-15-10.9-23.4-14c-2.1,2-3.5,3.4-4,4.1c0,0,0.1,0,0.2,0.1c0,0,0,0,0,0c8,2.6,15.3,6.9,21.8,12.3c0.3,0.2,0.5,0.4,0.8,0.6   c4,3.4,7.6,7.2,10.9,11.3l0,0c0.6-0.5,1.2-1,1.8-1.6C258.5,447.8,259.4,447,260.3,446.2C260.2,446.3,260.3,446.2,260.3,446.2   C260.3,446.2,260.3,446.2,260.3,446.2C260.3,446.2,260.3,446.2,260.3,446.2C260.3,446.2,260.3,446.2,260.3,446.2z M260.5,446   C260.5,446,260.5,446,260.5,446c-0.1,0.1-0.2,0.1-0.2,0.2C260.3,446.2,260.4,446.1,260.5,446z M189,537.3c-0.1,0-0.1-0.1-0.2-0.1   c-0.1,0-0.2-0.1-0.3-0.1c-0.1,0-0.3-0.1-0.4-0.1c-0.3-0.1-0.7-0.2-1.2-0.3c-0.2,0-0.5-0.1-0.7-0.1c-0.5-0.1-1.1-0.2-1.6-0.3   c-3-0.4-7.1-0.8-11.2-1.1c-3.1-0.2-6.2-0.4-8.9-0.5c-0.8,0-1.5,0-2.2,0c-0.3,0-0.7,0-1,0c-2,0-3.5,0.1-4.3,0.2   c-0.2,0-0.3,0.1-0.4,0.1c-0.4,0.1-0.7,0.3-0.9,0.5c-0.2,0.1-0.3,0.3-0.4,0.4c-0.2,0.3-0.4,0.6-0.4,0.9c0,0.2-0.1,0.3-0.1,0.5   c-0.1,1.3,0.9,2.3,2.2,2.4c0.1,0,0.1,0,0.2,0c2.3,0,6.6,0.2,11.3,0.4c4.7,0.2,9.8,0.5,13.6,0.8c1.9,0.2,3.5,0.3,4.6,0.5   c0.7,0.1,1.2,0.2,1.5,0.4c1.3,0.7,2.1-0.2,2.2-1.4C190.2,539.3,189.8,538,189,537.3z M188.4,544.7c-0.2-0.2-0.9-0.3-1.8-0.4   c-0.3,0-0.6-0.1-1-0.1c-1.5-0.2-3.4-0.3-5.5-0.4c-0.3,0-0.6,0-0.9,0c-0.6,0-1.3,0-1.9-0.1s-1.3,0-2,0c-6.8-0.1-14.4,0-17.7,0.5   c-0.6,0.1-1.1,0.2-1.4,0.3c-1.1,0.5-1.5,1.3-1.6,2c0,0.1,0,0.2,0,0.3c0,1,0.6,1.8,1.5,2.1c0.3,0.1,0.6,0.2,0.9,0.1   c0.3,0,0.7,0,1.1,0s0.8,0,1.3,0c2.1-0.1,4.9-0.1,7.9-0.2c1.2,0,2.4,0,3.6,0c0.6,0,1.2,0,1.8,0s1.2,0,1.8,0c1.2,0,2.4,0,3.5,0   c2.8,0,5.4,0.1,7.1,0.2c1.2,0.1,2.1,0.2,2.4,0.4C190.2,550.4,190.3,546,188.4,544.7z M192.2,534.2c1.1,0.6,1.9,0.2,2.3-0.5   c0.1-0.2,0.2-0.5,0.3-0.7c0.2-0.7,0.1-1.5-0.1-2.2c-0.1-0.3-0.2-0.6-0.3-0.8c-0.1-0.2-0.2-0.3-0.3-0.5s-0.2-0.3-0.4-0.4   c-0.1-0.1-0.3-0.2-0.6-0.3c-1.3-0.5-4.6-1.1-8.7-1.7c-2.4-0.3-5.1-0.7-7.8-0.9c-1.6-0.2-3.3-0.3-4.9-0.5c-4.7-0.4-9.1-0.7-12-0.7   c-0.4,0-0.8,0-1.1,0c-0.2,0-0.4,0-0.6,0c-0.5,0-1,0.1-1.2,0.2c-1.5,0.5-2.1,1.5-2.1,2.6c-0.1,0.9,0.4,1.8,1,2.3   c0.4,0.3,0.9,0.5,1.5,0.5c0.1,0,0.2,0,0.3,0c0.3,0,0.7,0,1.1,0.1c0.8,0,1.6,0.1,2.6,0.2c1.4,0.1,3.1,0.2,4.8,0.3   c1.7,0.1,3.6,0.3,5.5,0.4c1.3,0.1,2.5,0.2,3.8,0.3c1.3,0.1,2.5,0.2,3.7,0.3c1.8,0.2,3.6,0.4,5.2,0.5c2.7,0.3,5,0.6,6.5,0.9   C191.4,533.9,191.9,534,192.2,534.2z M404.3,352.4c-0.9-0.5-1.8-0.8-2.7-1h0c-5.2-1.1-11.3,1.4-16,4.2c0,0,0,0,0,0   c-1,0.6-2,1.2-2.8,1.8c0,0-0.1,0.1-0.1,0.1c-0.8,0.6-1.6,1.1-2.2,1.6c0,0-0.1,0.1-0.1,0.1c-0.3,0.2-0.5,0.4-0.8,0.6   c0,0-0.1,0-0.1,0.1c-0.3,0.2-0.5,0.4-0.7,0.5c0,0,0,0-0.1,0.1c-0.2,0.1-0.3,0.3-0.4,0.4c0,0,0,0,0,0c0,0,0,0,0,0   c-3.7,0.7-7.5,1.1-11.3,1c-0.4,0-0.9,0-1.3,0c-1.8-0.1-3.6-0.2-5.4-0.4c0,0,0,0,0,0c-0.5,0-1-0.1-1.6-0.2   c-22.8-2.3-45.3-10.4-65-21.9c0,0,0,0,0,0c0,0,0,0,0,0c-14.2,27-43.7,58.9-61.4,76.5c5.4,1.7,10.8,3.5,15.5,6.8   c3.1,2.2,6,4.6,8.8,7.2c1.5,1.4,2.9,2.8,4.4,4.2c2,2,3.9,4,5.8,6.2l0,0c7.1-6.4,14.5-13.2,22-19.3c0.1-0.1,0.2-0.2,0.3-0.3   c0.7-0.5,1.3-1.1,2-1.6c0.2-0.2,0.4-0.3,0.6-0.5c0.6-0.5,1.2-0.9,1.7-1.4c0.2-0.2,0.5-0.4,0.7-0.6c0.5-0.4,1.1-0.8,1.6-1.2   c0.3-0.2,0.5-0.4,0.8-0.6c0.5-0.4,1-0.8,1.5-1.1c0.3-0.2,0.6-0.4,0.8-0.6c0.5-0.3,0.9-0.7,1.4-1c0.3-0.2,0.6-0.4,0.9-0.6   c0.5-0.3,0.9-0.6,1.4-1c0.3-0.2,0.6-0.4,0.9-0.6c0.4-0.3,0.9-0.6,1.3-0.9c0.3-0.2,0.6-0.4,0.9-0.6c0.4-0.3,0.9-0.6,1.3-0.8   c0.3-0.2,0.6-0.4,0.9-0.6c0.4-0.3,0.8-0.5,1.3-0.8c0.3-0.2,0.6-0.4,0.9-0.6c0.4-0.2,0.8-0.5,1.2-0.7c0.3-0.2,0.6-0.3,0.9-0.5   c0.4-0.2,0.8-0.4,1.2-0.6c0.3-0.2,0.6-0.3,0.9-0.5c0.4-0.2,0.8-0.4,1.2-0.6c0.3-0.1,0.6-0.3,0.9-0.4c0.4-0.2,0.8-0.3,1.2-0.5   c0.3-0.1,0.6-0.2,0.9-0.4c0.4-0.2,0.8-0.3,1.2-0.5c0.3-0.1,0.5-0.2,0.8-0.3c0.4-0.2,0.9-0.3,1.3-0.4c0.2-0.1,0.4-0.1,0.7-0.2   c0.6-0.2,1.3-0.3,1.9-0.5c1-0.2,2.1-0.4,3.1-0.6c0.1,0,0.2,0,0.3-0.1c1-0.2,2.1-0.3,3.2-0.4c0.2,0,0.3,0,0.5-0.1   c1.1-0.1,2.1-0.2,3.2-0.3c0.2,0,0.4,0,0.6,0c1.1-0.1,2.2-0.1,3.3-0.2c0.2,0,0.4,0,0.6,0c1.1,0,2.3-0.1,3.4-0.1c0.2,0,0.3,0,0.5,0   c0.2,0,0.4,0,0.7,0h0c2.1-2.1,4.3-4.2,6.4-6.2c0.8-0.8,1.5-1.5,2.3-2.2c0.8-0.7,1.5-1.5,2.3-2.2c4.2-4,8.2-7.8,11.8-11.2   c1-0.9,1.9-1.8,2.8-2.6c1.3-1.3,2.6-2.4,3.7-3.5c0.8-0.7,1.5-1.4,2.1-2c0.3-0.3,0.6-0.6,1-0.9c0.6-0.6,1.2-1.1,1.7-1.5   c1.5-1.4,2.4-2.2,2.7-2.5c0.6-0.6,1.2-1.1,1.7-1.6c0.1-0.1,0.3-0.2,0.4-0.4c0.6-0.5,1.1-0.9,1.7-1.4c0,0,0,0,0,0   c0.4-0.3,0.8-0.6,1.2-0.9c0.2-0.1,0.3-0.2,0.5-0.4c0.1-0.1,0.2-0.2,0.4-0.2c0.6-0.4,1.1-0.7,1.7-1.1c0.5-0.3,1.1-0.6,1.6-0.9   c0.1,0,0.2-0.1,0.2-0.1c1.1-0.6,2.2-1,3.2-1.4c0,0,0,0,0.1,0c1.4-0.5,2.8-0.8,4-0.9c16.4-1.6,22.1,24.4,6.3,42.1   C423.5,380.3,420.8,361.1,404.3,352.4z M339.7,290.9v19.9l1.3-0.5v6l-1.3,0.5v5.3l-7,2.6v-5.3l-10.3,3.8V318l6.7-23.2L339.7,290.9z    M332.7,299.2l-3.8,15.6l3.8-1.4V299.2z M343.2,309.9v3.6c0,1.3,0.2,2.4,0.7,3.2c0.5,0.8,1.1,1.4,1.9,1.7c0.8,0.3,1.8,0.5,2.9,0.3   c1.1-0.1,2.3-0.4,3.7-0.9c1.2-0.4,2.3-1,3.1-1.6c0.9-0.6,1.7-1.3,2.3-2.1c0.6-0.8,1.2-1.6,1.6-2.5c0.4-0.9,0.7-1.8,1-2.8   c0.2-1,0.4-1.9,0.5-3c0.1-1,0.1-2,0.1-3c0-0.8,0-1.5-0.1-2.3c-0.1-0.8-0.2-1.5-0.4-2.2c-0.2-0.7-0.5-1.3-0.9-1.8   c-0.4-0.5-0.8-0.9-1.4-1.2s-1.2-0.5-1.9-0.5c-0.7,0-1.6,0.2-2.6,0.5c-1.5,0.6-2.6,1.3-3.3,2.2l0-4.2l9.6-3.6v-6.5l-16,6v17.9   l6.2-2.3c0-1.7,0.6-2.8,1.9-3.3c0.4-0.1,0.7-0.1,0.9,0c0.2,0.1,0.4,0.3,0.5,0.6c0.1,0.3,0.2,0.6,0.2,0.9c0,0.4,0,0.7,0,1.1v4.2   c0,0.8-0.1,1.5-0.4,2.1c-0.2,0.5-0.7,1-1.4,1.2c-0.2,0.1-0.4,0.1-0.6,0.1c-0.2,0-0.4,0-0.6-0.2c-0.2-0.2-0.3-0.4-0.4-0.9   c-0.1-0.4-0.2-1-0.2-1.9v-1.7L343.2,309.9z M362.4,453.3c-0.5-0.2-1-0.5-1.6-0.7c-0.4-0.2-0.7-0.3-1.1-0.5c-0.1,0-0.1-0.1-0.2-0.1   c-0.2-0.1-0.4-0.2-0.5-0.3c-0.1-0.1-0.2-0.1-0.3-0.2c-0.4-0.2-0.8-0.4-1.2-0.6c-0.1-0.1-0.2-0.1-0.4-0.2l0,0   c-0.1,0-0.1-0.1-0.2-0.1c-0.4-0.2-0.8-0.4-1.1-0.5c-0.1-0.1-0.2-0.1-0.3-0.1c-0.2-0.1-0.4-0.2-0.5-0.3c0,0,0,0,0,0   c-0.2-0.1-0.4-0.2-0.4-0.2l-0.2,0.9l-0.1,0.4l-0.6,3.2l0,0.3c-0.1,0.5-0.1,1-0.1,1.5c0,0.3,0,0.5,0,0.8c0,0.3,0.1,0.5,0.1,0.8   c0,0,0,0,0,0c0.1,0.7,0.4,1.3,0.6,1.9c0.1,0.3,0.3,0.6,0.5,0.9l0.8,1.2l5.1,8.1c0,0,0.1,0,0.2-0.1c0.1-0.1,0.2-0.1,0.4-0.2   c0.2-0.1,0.4-0.2,0.7-0.4s0.5-0.3,0.8-0.5c0.3-0.2,0.6-0.4,0.9-0.6c0.4-0.3,0.9-0.7,1.2-1.1c0.4-0.4,0.7-0.8,0.9-1.2   c0,0,0-0.1,0.1-0.1c0,0,0-0.1,0-0.1c1.2-2.4,1-6.6,1-6.6S366.2,455.1,362.4,453.3z M339.4,469.6c-0.1-0.2-0.3-0.4-0.5-0.6   c-0.8-0.9-2.2-2.1-3.9-3.5c-0.8-0.7-1.7-1.4-2.7-2.2c-1.4-1.1-2.9-2.3-4.4-3.5c-3.5-2.7-7-5.3-9.3-6.7c-0.3-0.2-0.6-0.3-0.8-0.5   c-0.5-0.3-0.9-0.5-1.2-0.6c-0.1-0.1-0.3-0.1-0.3-0.1c-0.3,0-0.5,0-0.8,0.1c-0.1,0-0.3,0.1-0.4,0.1c-0.5,0.2-1,0.6-1.3,1   c-0.1,0.1-0.2,0.2-0.2,0.3c-0.1,0.2-0.2,0.4-0.3,0.7c-0.1,0.2-0.1,0.4,0,0.6c0.1,0.4,0.4,0.7,1.1,0.9c0.2,0,0.4,0.2,0.8,0.4   s0.7,0.4,1.2,0.8c4.3,2.9,13.8,10.7,18.6,14.7c0.6,0.5,1.2,1,1.7,1.4c0.7,0.6,1.6,0.7,2.4,0.3c0.2-0.1,0.5-0.3,0.7-0.5   c0.4-0.5,0.6-1.1,0.5-1.9c-0.1-0.3-0.2-0.5-0.3-0.8C339.6,469.9,339.5,469.8,339.4,469.6z M325.8,498.4c-3.2-2.3-4.9-5.8-5.6-8.3   c-0.7-2.2-2-4.1-3.7-5.5l-9.9-8c-1.4-1.1-2.9-1.9-4.6-2.3c-1.8-0.4-4.5-1.4-6.9-3.8c-3.5-3.4-13.2-15.5-16.1-19.1h0   c-0.5-0.6-0.8-1-0.8-1l-3.1,1.7l-6,3.3c0,0,0.2,0.3,0.6,0.7c0.1,0.2,0.3,0.3,0.5,0.5c0.1,0.2,0.3,0.3,0.5,0.5   c0.8,1,1.9,2.3,3.3,3.9c1.3,1.6,2.9,3.4,4.7,5.4c2.2-0.4,4.5,1.2,5.7,3.3c0.4,0.6,0.6,1.3,0.8,2c0,0.2,0.1,0.3,0.1,0.5   c0.1,0.5,0,1-0.1,1.5c1.5,1.7,3.1,3.4,4.7,5.1c1.6,1.7,3.2,3.4,4.9,5.1c0.1,0,0.3-0.1,0.5-0.1c3.8-0.1,6.9,3.1,6.6,6.9   c2.8,2.6,5.4,4.9,7.9,6.7c1.1,0.9,2.3,1.7,3.5,2.5c0.1-0.1,0.2-0.1,0.3-0.2c0.5-0.2,0.9-0.3,1.4-0.4c0.2,0,0.5,0,0.8,0   c0.3,0,0.5,0,0.8,0.1c0.3,0,0.5,0.1,0.7,0.2c0.5,0.2,1,0.4,1.4,0.6c0.2,0.1,0.4,0.3,0.6,0.4c1.3,1.1,1.7,2.5,1.3,4   c3.4,2,6.8,3.9,10,5.5c1.1,0.5,2.1,1.1,3.1,1.5h0c0.3-0.1,0.6-0.2,0.9-0.3c0.3-0.1,0.6-0.2,0.9-0.2c0.3,0,0.6-0.1,0.9,0   c0.3,0,0.6,0.1,0.9,0.1c0.5,0.1,0.9,0.3,1.2,0.5c0.4,0.2,0.7,0.5,1,0.8c0.4,0.5,0.7,1,0.9,1.7c0.1,0.2,0.1,0.4,0.1,0.6   c0.5,0.2,0.9,0.4,1.3,0.6c2.9,1.3,4.7,2,4.7,2l2.3-4.8l0.8-1.8c-0.1-0.1-0.6-0.4-1.4-0.8C343.6,508.1,330.5,501.8,325.8,498.4z    M350.2,456c-0.2-0.3-0.6-0.7-1.2-1.2c-1.9-1.6-5.6-4.3-9.8-7c-6.8-4.5-14.6-9.1-17.1-10c0,0-0.1,0-0.1,0c-0.1,0-0.2-0.1-0.3-0.1   c-0.1,0-0.2,0-0.2,0c-0.2,0-0.3,0-0.5,0.1s-0.3,0.1-0.5,0.2c-1.6,0.7-2.8,2.7-2,3.7c0.2,0.3,0.6,0.5,1.1,0.6   c0.3,0.1,0.8,0.3,1.5,0.6c3,1.5,9.3,5.6,15,9.4c1.1,0.7,2.1,1.4,3.2,2.1c1.5,1,3,2,4.2,2.9c1.3,0.9,2.3,1.6,3.2,2.2   c0.1,0.1,0.2,0.1,0.2,0.2c0.1,0.1,0.3,0.2,0.4,0.2c0.3,0.1,0.6,0.2,0.9,0.2c0.3,0,0.6,0,0.9-0.2c0.1-0.1,0.3-0.1,0.4-0.2   c0.3-0.2,0.5-0.4,0.7-0.7c0.1-0.2,0.2-0.3,0.3-0.5c0.1-0.3,0.2-0.7,0.2-1.1c0-0.2-0.1-0.4-0.1-0.6   C350.5,456.5,350.4,456.3,350.2,456z M342,466.4c0.9,0.6,2.2,0.4,2.9-0.5c0.5-0.7,0.7-1.6,0-2.7c-0.1-0.1-0.1-0.2-0.2-0.3   c-2.6-3-20.2-15-24-16.5c-0.2-0.1-0.4-0.1-0.6-0.1c-0.4,0-0.8,0.1-1.1,0.3c-0.2,0.1-0.5,0.3-0.7,0.5c-0.3,0.3-0.6,0.6-0.8,0.9   c-0.6,0.9-0.5,2,0.8,2.3c0.3,0.1,0.7,0.3,1.3,0.6c0.9,0.5,2.1,1.3,3.6,2.2c1.1,0.7,2.3,1.6,3.6,2.5c2.6,1.8,5.4,3.8,7.9,5.6   c3,2.2,5.6,4.1,7.1,5.2C341.9,466.3,341.9,466.3,342,466.4z M156.6,340.1l6.1-6.4c-0.7,0-1.4,0-2,0.1c-4.5,0.4-8.8,1.7-13.3,0.8   c-4,4.2-7.9,8.4-11.7,12.6s-7.6,8.2-11.4,12.1c-4.8,5.1-9.5,10.1-14,15c-1.5,1.6-3,3.2-4.5,4.8c-1.2,1.3-2.3,2.5-3.5,3.7   c-3.5,3.7-6.8,7.3-10.1,10.8s-6.4,6.8-9.4,10.1S76.7,410,74,413c-15.7,16.8-27.1,28.9-32.2,34.4c-1.7,1.8-1.8,4.7-0.1,6.5   c0.5,0.5,1,0.9,1.6,1.2c0.6,0.3,1.3,0.4,1.9,0.4c1.3,0,2.6-0.5,3.6-1.5l85.4-90.4L156.6,340.1z M154.8,521.2l1.7-3.1l0.2-0.4   l0.5-0.9c0,0,0,0,0,0c-0.1,0-0.2,0-0.4-0.1c0,0,0,0,0,0c-0.2,0-0.4-0.1-0.6-0.1c-0.1,0-0.2-0.1-0.4-0.1c-0.4-0.1-0.9-0.2-1.4-0.3   c0,0,0,0,0,0c-0.3-0.1-0.6-0.1-0.9-0.2c0,0-0.1,0-0.1,0c-0.4-0.1-0.8-0.2-1.3-0.3c-0.7-0.2-1.4-0.3-2.2-0.5   c-0.6-0.1-1.2-0.3-1.8-0.4c-2.7-0.6-5,0.1-6.3,0.8c-0.8,0.4-1.3,0.8-1.3,0.8s-3,3.4-3.6,6.3c0,0,0,0.1,0,0.1c0,0,0,0.1,0,0.1   c-0.1,0.5-0.1,1.1-0.1,1.7c0.1,0.6,0.2,1.2,0.3,1.8c0.1,0.4,0.2,0.8,0.3,1.1c0.1,0.4,0.2,0.7,0.3,1c0.1,0.3,0.2,0.6,0.3,0.8   c0.1,0.2,0.1,0.3,0.2,0.5c0,0.1,0.1,0.1,0.1,0.2c0,0,0,0.1,0,0.1l2.6-0.9l7.2-2.6l0.7-0.3l0.7-0.3c0.3-0.1,0.7-0.3,1-0.4   c0.7-0.3,1.3-0.7,1.9-1.2c0.2-0.2,0.4-0.4,0.6-0.6c0.2-0.2,0.4-0.4,0.6-0.6c0.2-0.2,0.3-0.4,0.5-0.7c0.2-0.2,0.3-0.5,0.4-0.7   L154.8,521.2z M198.8,529.3c0.1,0.2,0.2,0.5,0.3,0.7c0.1,0.2,0.3,0.5,0.4,0.7c0,0,0,0.1,0.1,0.1c0.3,0.5,0.8,0.9,1.3,1.3   c0.2,0.2,0.5,0.4,0.8,0.5l3.3,1.9l0.2,0.1h0l4.3,2.4c0,0,0,0,0,0c0,0,0,0,0,0c0,0,0.1-0.1,0.1-0.2c0,0,0,0,0,0   c0.1-0.1,0.1-0.2,0.2-0.3c0,0,0,0,0,0c0.1-0.1,0.2-0.3,0.3-0.4c0,0,0,0,0-0.1c0.1-0.2,0.2-0.3,0.3-0.5c0,0,0,0,0-0.1   c0.1-0.2,0.2-0.4,0.3-0.6c0,0,0,0,0,0c0.1-0.2,0.3-0.5,0.4-0.7c0,0,0,0,0,0c0.1-0.2,0.3-0.5,0.4-0.8c0,0,0,0,0,0   c1.3-2.4,2.5-5.4,2.3-7c-0.2-0.9-1.6-1.4-3.4-1.7c-0.2,0-0.5-0.1-0.8-0.1c-0.3,0-0.6-0.1-0.9-0.1c0,0-0.1,0-0.1,0   c-0.1,0-0.1,0-0.2,0c-0.2,0-0.4,0-0.7,0c-0.1,0-0.2,0-0.3,0c-0.2,0-0.5,0-0.7,0c-0.1,0-0.2,0-0.3,0c-0.3,0-0.7,0-1,0   c0,0-0.1,0-0.1,0c-0.3,0-0.6,0-0.9,0c-0.1,0-0.2,0-0.3,0c-0.2,0-0.5,0-0.7,0c-0.1,0-0.2,0-0.3,0c-0.3,0-0.5,0-0.7,0   c0,0-0.1,0-0.1,0c-0.3,0-0.6,0-0.9,0c-0.2,0-0.3,0-0.5,0c-0.1,0-0.2,0-0.3,0c0,0,0,0,0,0c-0.1,0-0.1,0-0.2,0c0,0,0,0,0,0   c0,0,0,0,0,0c0,0,0,0,0,0c-0.1,0-0.2,0-0.3,0c0,0-0.1,0-0.1,0c0,0,0,0,0,0c-0.2,0-0.3,0-0.4,0c0,0,0,0,0,0c0,0-0.1,0-0.1,0   c0,0,0,0,0,0c-0.1,0-0.1,0-0.1,0c0,0,0,0,0,0c-0.1,0-0.1,0-0.1,0l0,0c0,0-0.1,0-0.1,0c0,0,0,0,0,0c-0.1,0-0.1,0-0.2,0   c0,0-0.1,0-0.1,0l-0.2,2.1c0,0.3,0,0.6,0,0.9c0,0.3,0.1,0.6,0.1,0.9c0,0.1,0,0.1,0,0.2C198.6,528.8,198.7,529.1,198.8,529.3z    M416.8,49.9c-6.5,5.4-14,12.4-22.6,21.4c-7.5,7.9-26.7,28.3-52.5,55.8c-3.7,3.9-7.5,7.9-11.4,12.1c-2.4,2.6-4.9,5.3-7.5,8   c-4.7,5-9.6,10.3-14.6,15.6c-3.6,3.8-7.2,7.7-10.9,11.6c-0.4,0.5-0.9,0.9-1.3,1.4c-14.6,15.6-30.1,32.1-45.9,49   c-6.9,7.3-13.8,14.7-20.7,22.1c-6.9,7.4-13.9,14.8-20.8,22.3s-13.9,14.8-20.7,22.1c-6.9,7.3-13.7,14.6-20.4,21.8   c2.5-0.6,4.8-0.9,6.8-0.3c0.6,0.2,1.1,0.4,1.7,0.7c0.7,0.3,1.4,0.7,2,1.2c0.5,0.4,1,0.7,1.5,1.1l77.2-81.7l33.3-35.2l7.3-7.8   l15.4-16.3l6.7-7.1l0.6-0.6l14.8-15.7l9-9.6l10-10.6l76.9-81.4l32.3-43L416.8,49.9z M319.4,433.1l1-1.6c0,0,0,0,0,0   c0,0-0.1-0.1-0.1-0.1l0,0c0,0,0,0-0.1-0.1c0,0,0,0,0,0c0,0,0,0-0.1-0.1c0,0,0,0,0,0c0,0,0,0,0,0c0,0,0,0,0,0c0,0-0.1-0.1-0.1-0.1   c0,0,0,0,0,0c0,0,0,0,0,0c0,0,0,0,0,0c0,0,0,0,0,0c0,0,0,0,0,0c-0.1-0.1-0.2-0.2-0.3-0.3c0,0,0,0,0,0c0,0,0,0,0,0   c-0.1-0.1-0.2-0.1-0.2-0.2c0,0,0,0,0,0c0,0,0,0-0.1-0.1c0,0,0,0,0,0c0,0,0,0,0,0c0,0,0,0,0,0c-0.1-0.1-0.2-0.2-0.3-0.3   c-0.1-0.1-0.2-0.1-0.2-0.2h0h0c-0.2-0.2-0.4-0.3-0.6-0.5c0,0-0.1-0.1-0.1-0.1c-0.2-0.1-0.3-0.3-0.5-0.4c-0.1-0.1-0.1-0.1-0.2-0.2   c-0.2-0.1-0.3-0.3-0.5-0.4c-0.1-0.1-0.1-0.1-0.2-0.2c-0.2-0.2-0.4-0.3-0.6-0.5c0,0-0.1,0-0.1-0.1c-0.1-0.1-0.2-0.2-0.3-0.3   c-0.1-0.1-0.2-0.2-0.4-0.3c-0.1-0.1-0.1-0.1-0.2-0.2c-0.2-0.1-0.4-0.3-0.5-0.4c-0.1-0.1-0.2-0.1-0.3-0.2c-0.2-0.1-0.3-0.2-0.5-0.4   c-0.1-0.1-0.2-0.1-0.2-0.2c-0.2-0.2-0.5-0.3-0.7-0.5c-0.2-0.1-0.4-0.2-0.6-0.4c-1.5-0.9-2.8-1.3-3.4-0.7c-1.1,1-1.9,3.9-2.4,6.3   c0,0,0,0,0,0c-0.1,0.3-0.1,0.5-0.1,0.8c0,0,0,0,0,0c0,0.2-0.1,0.5-0.1,0.7c0,0,0,0,0,0c0,0.2-0.1,0.4-0.1,0.6c0,0,0,0,0,0.1   c0,0.2-0.1,0.4-0.1,0.5c0,0,0,0,0,0.1c0,0.2,0,0.3-0.1,0.4c0,0,0,0,0,0c0,0.1,0,0.2,0,0.3c0,0,0,0,0,0c0,0.1,0,0.2,0,0.2   c0,0,0,0,0,0c0,0,0,0,0,0l3.7,0.6h0l1,0.1l3.4,0.5c0.3,0,0.6,0.1,0.9,0.1c0.6,0,1.1-0.1,1.7-0.2c0,0,0.1,0,0.1,0   c0.2-0.1,0.5-0.2,0.7-0.3c0.2-0.1,0.4-0.2,0.6-0.3c0.1-0.1,0.2-0.2,0.3-0.2c0,0,0,0,0,0l0,0l0,0c0.1,0,0.1-0.1,0.2-0.1   c0,0,0.1,0,0.1-0.1l0,0c0.3-0.2,0.6-0.5,0.8-0.8C319.1,433.6,319.3,433.4,319.4,433.1z" originalFill="#F04C23"/>
	<path fill="#F99F1C" d="M359.7,472.4c0,0,0,0.7,0,2C359.7,473.2,359.7,472.4,359.7,472.4z M361,469.5c-0.7,1.6-1.3,2.8-1.3,2.8   s-2,1-4.6,2.1c-1.6,0.7-3.6,1.4-5.4,2.1c-2.2,0.7-4.4,1.3-6,1.4c-0.3,0-0.5,0-0.8,0c-0.2,0-0.5,0-0.7-0.1c-0.1,0-0.3,0-0.4-0.1   c-0.5,0-1,0.1-1.4,0.4c-0.3,0.2-0.5,0.5-0.7,0.9c-0.1,0.2-0.3,0.5-0.4,0.8c-0.1,0.1-0.1,0.3-0.1,0.5c-0.1,0.3-0.1,0.7-0.2,1   c0,0.2,0,0.4-0.1,0.6c0,0.4,0,0.8,0,1.2s0,0.8,0.1,1.2s0.1,0.8,0.2,1.2c0,0.2,0.1,0.4,0.1,0.6c0.3,1,0.7,2.1,1.2,3   c0.2,0.4,0.4,0.7,0.7,1.1c0.5,0.7,1.1,1.3,1.7,1.8c5.2,4,12.2,4.7,12.2,4.7h0c-0.7,1.7-1.6,3.4-2.5,5.1l-0.1,0.2l-4.5,8.3   c-4.3-2.2-17.5-8.5-22.2-11.9c-3.2-2.3-4.9-5.8-5.6-8.3c-0.7-2.2-2-4.1-3.7-5.5l-9.9-8c-1.4-1.1-2.9-1.9-4.6-2.3   c-1.8-0.4-4.5-1.4-6.9-3.8c-3.5-3.4-13.2-15.5-16.1-19.1c0,0,0.1-0.1,0.1-0.1c0,0,0,0,0,0c0.5-0.3,1-0.5,1.5-0.8c0,0,0.1,0,0.1,0   c0.5-0.3,1.1-0.6,1.6-0.9c0,0,0,0,0,0c0.3-0.1,0.5-0.3,0.8-0.4c0,0,0,0,0,0c0.5-0.3,1.1-0.6,1.6-0.9c0,0,0,0,0,0   c0.3-0.1,0.5-0.3,0.7-0.4c0.9-0.5,1.8-1,2.4-1.4l-0.1,0.1c0,0,9.4,9.6,14.6,9.7c5.2,0.2,9.8-10,6.2-13c-3.6-3-3.6-8.2-3.6-8.2   c0.2-0.2,0.5-0.4,0.7-0.6l3.7,0.6h0l1,0.1l3.4,0.5c0.3,0,0.6,0.1,0.9,0.1c0.6,0,1.1-0.1,1.7-0.2c0,0,0.1,0,0.1,0   c0.2-0.1,0.5-0.2,0.7-0.3c0.2-0.1,0.4-0.2,0.6-0.3c0.1-0.1,0.2-0.2,0.3-0.2c0,0,0,0,0,0l0,0c0.1,0,0.1-0.1,0.2-0.1   c0,0,0.1,0,0.1-0.1l0,0c0.3-0.2,0.6-0.5,0.8-0.8c0.2-0.2,0.4-0.4,0.5-0.7l1-1.6c0,0,0,0,0,0c0,0-0.1-0.1-0.1-0.1l0,0   c0,0,0,0-0.1-0.1c0,0,0,0,0,0c0,0-0.1-0.1-0.1-0.1c0,0,0,0,0,0c0,0,0,0,0,0c0,0-0.1-0.1-0.1-0.1c0,0,0,0,0,0c0,0,0,0,0,0   c0,0,0,0,0,0c0,0,0,0,0,0c-0.1-0.1-0.2-0.2-0.3-0.3c0,0,0,0,0,0c0,0,0,0,0,0c-0.1-0.1-0.2-0.1-0.2-0.2c0,0,0,0,0,0   c0,0-0.1-0.1-0.1-0.1c0,0,0,0,0,0c0,0,0,0,0,0c-0.1-0.1-0.2-0.2-0.3-0.3c-0.1-0.1-0.2-0.1-0.2-0.2h0c-0.2-0.2-0.4-0.3-0.6-0.5   c0,0-0.1-0.1-0.1-0.1c-0.2-0.1-0.3-0.3-0.5-0.4c-0.1-0.1-0.1-0.1-0.2-0.2c-0.2-0.1-0.3-0.3-0.5-0.4c-0.1-0.1-0.1-0.1-0.2-0.2   c-0.2-0.2-0.4-0.3-0.6-0.5c0,0-0.1,0-0.1-0.1c-0.1-0.1-0.2-0.2-0.3-0.3c-0.1-0.1-0.3-0.2-0.4-0.3c-0.1-0.1-0.1-0.1-0.2-0.2   c-0.2-0.1-0.4-0.3-0.5-0.4c-0.1-0.1-0.2-0.1-0.3-0.2c-0.2-0.1-0.3-0.2-0.5-0.4c-0.1-0.1-0.2-0.1-0.2-0.2c-0.2-0.2-0.5-0.3-0.7-0.5   c1.1-1.5,2.7-2.5,5.3-2.3c0.4,0,0.8,0.1,1.2,0.2c2.7,0.4,6.7,1.7,11.1,3.3c0.7,0,1.4,0.1,2.1,0.2c0.4,0,0.8,0.1,1.2,0.2   s0.9,0.1,1.3,0.2c4.9,0.9,9.7,4.3,13.5,7.9c1,0.6,1.9,1.2,2.8,1.7c1.9,1.2,3.4,2.5,4.5,3.6c3.5,3.7,4.7,7.6,5.1,10.3   c0.1,0.7,0.1,1.3,0.1,1.9c-0.4-0.2-0.7-0.3-1.1-0.5c-0.1,0-0.1-0.1-0.2-0.1c-0.2-0.1-0.4-0.2-0.5-0.3c-0.1-0.1-0.2-0.1-0.3-0.2   c-0.4-0.2-0.8-0.4-1.2-0.6c-0.1-0.1-0.2-0.1-0.4-0.2c-0.1,0-0.1-0.1-0.2-0.1c-0.4-0.2-0.8-0.4-1.1-0.5c-0.1-0.1-0.2-0.1-0.3-0.1   c-0.2-0.1-0.4-0.2-0.5-0.3c0,0,0,0,0,0c-0.2-0.1-0.4-0.2-0.4-0.2l-0.2,0.9l-0.1,0.4l-0.6,3.2l0,0.3c-0.1,0.5-0.1,1-0.1,1.5   c0,0.3,0,0.5,0,0.8c0,0.3,0.1,0.5,0.1,0.8c0,0,0,0,0,0c0.1,0.7,0.4,1.3,0.6,1.9c0.1,0.3,0.3,0.6,0.5,0.9l0.8,1.2l5.1,8.1   C360.8,469.7,360.9,469.6,361,469.5z M340,470.8c-0.1-0.3-0.2-0.5-0.3-0.8c-0.1-0.1-0.2-0.3-0.3-0.4c-0.1-0.2-0.3-0.4-0.5-0.6   c-0.8-0.9-2.2-2.1-3.9-3.5c-0.8-0.7-1.7-1.4-2.7-2.2c-1.4-1.1-2.9-2.3-4.4-3.5c-3.5-2.7-7-5.3-9.3-6.7c-0.3-0.2-0.6-0.3-0.8-0.5   c-0.5-0.3-0.9-0.5-1.2-0.6c-0.1-0.1-0.3-0.1-0.3-0.1h0c-0.3,0-0.5,0-0.8,0.1c-0.1,0-0.3,0.1-0.4,0.1c-0.5,0.2-1,0.6-1.3,1   c-0.1,0.1-0.2,0.2-0.2,0.3c-0.1,0.2-0.2,0.4-0.3,0.7c-0.1,0.2-0.1,0.4,0,0.6c0.1,0.4,0.4,0.7,1.1,0.9c0.2,0,0.4,0.2,0.8,0.4   s0.7,0.4,1.2,0.8c4.3,2.9,13.8,10.7,18.6,14.7c0.6,0.5,1.2,1,1.7,1.4c0.7,0.6,1.6,0.7,2.4,0.3c0.2-0.1,0.5-0.3,0.7-0.5   C339.9,472.2,340.1,471.6,340,470.8z M344.9,463.2c-0.1-0.1-0.1-0.2-0.2-0.3c-2.6-3-20.2-15-24-16.5c-0.2-0.1-0.4-0.1-0.6-0.1   c-0.4,0-0.8,0.1-1.1,0.3c-0.2,0.1-0.5,0.3-0.7,0.5c-0.3,0.3-0.6,0.6-0.8,0.9c-0.6,0.9-0.5,2,0.8,2.3c0.3,0.1,0.7,0.3,1.3,0.6   c0.9,0.5,2.1,1.3,3.6,2.2c1.1,0.7,2.3,1.6,3.6,2.5c2.6,1.8,5.4,3.8,7.9,5.6c3,2.2,5.6,4.1,7.1,5.2c0,0,0.1,0,0.1,0.1   c0.9,0.6,2.2,0.4,2.9-0.5C345.4,465.2,345.6,464.3,344.9,463.2z M350.7,457.4c0-0.2-0.1-0.4-0.1-0.6c-0.1-0.3-0.2-0.5-0.4-0.8   c-0.2-0.3-0.6-0.7-1.2-1.2c-1.9-1.6-5.6-4.3-9.8-7c-6.8-4.5-14.6-9.1-17.1-10c0,0-0.1,0-0.1,0c-0.1,0-0.2-0.1-0.3-0.1   c-0.1,0-0.2,0-0.2,0c-0.2,0-0.3,0-0.5,0.1s-0.3,0.1-0.5,0.2c-1.6,0.7-2.8,2.7-2,3.7c0.2,0.3,0.6,0.5,1.1,0.6   c0.3,0.1,0.8,0.3,1.5,0.6c3,1.5,9.3,5.6,15,9.4c1.1,0.7,2.1,1.4,3.2,2.1c1.5,1,3,2,4.2,2.9c1.3,0.9,2.3,1.6,3.2,2.2   c0.1,0.1,0.2,0.1,0.2,0.2c0.1,0.1,0.3,0.2,0.4,0.2c0.3,0.1,0.6,0.2,0.9,0.2c0.3,0,0.6,0,0.9-0.2c0.1-0.1,0.3-0.1,0.4-0.2   c0.3-0.2,0.5-0.4,0.7-0.7c0.1-0.2,0.2-0.3,0.3-0.5C350.7,458.2,350.8,457.8,350.7,457.4z M135.9,552.3c3.1-2.2-4.8-9-4.3-10.8   c-1.3,2.2-2.6,4.7-3.8,7.5C127.8,549,132.7,554.5,135.9,552.3z M300,447.4c2.3,0.2,1.1-3-0.2-5.6c-0.8-1.5-1.6-2.8-1.7-2.9   c-1.3,0.7-2.6,1.5-3.8,2.3c0.2,0.5,1.1,3.1,2.8,4.8c0.6,0.6,1.3,1.1,2.2,1.3C299.5,447.3,299.7,447.4,300,447.4z M349.8,487.3   c1,3.4,7.8,2.2,7.8,2.2c0.7-2.7,1.2-5.3,1.5-7.6C358.3,483.5,348.7,483.9,349.8,487.3z M205.4,551.8c3.2,2.2,8.3-1,9-1.5   c-0.4-1.5-1-3-1.6-4.5C212.3,546,202.1,549.5,205.4,551.8z M427.3,270.2L427.3,270.2L427.3,270.2c-0.1,0.9-0.3,1.8-0.4,2.7   c0,0,0,0,0,0c-0.2,0.9-0.4,1.8-0.6,2.7c0,0,0,0,0,0c-0.2,0.9-0.4,1.9-0.7,2.8c0,0,0,0,0,0c-0.2,0.8-0.4,1.5-0.6,2.3   c-0.1,0.5-0.3,1-0.4,1.4c-0.1,0.3-0.2,0.5-0.2,0.8c-0.2,0.6-0.4,1.3-0.6,1.9c0,0.1-0.1,0.2-0.1,0.3c-0.2,0.7-0.5,1.4-0.7,2.2   c-0.9,2.8-2,5.6-3.2,8.4c0,0,0,0.1-0.1,0.1c-1.1,2.8-2.4,5.6-3.7,8.4c-0.1,0.1-0.1,0.3-0.2,0.4c-0.6,1.3-1.3,2.7-1.9,4   c-0.1,0.2-0.2,0.4-0.3,0.6c-0.6,1.2-1.2,2.4-1.8,3.6c-0.1,0.2-0.2,0.4-0.3,0.5c-0.7,1.3-1.3,2.5-2,3.8c-0.2,0.3-0.3,0.6-0.5,0.9   c-0.7,1.3-1.4,2.5-2.1,3.8c-0.1,0.2-0.2,0.3-0.3,0.5c-0.5,0.8-1,1.6-1.4,2.5c-0.1,0.2-0.3,0.5-0.4,0.7c-0.4,0.7-0.9,1.5-1.3,2.2   c-0.2,0.3-0.4,0.6-0.6,0.9c-0.4,0.7-0.8,1.4-1.3,2c-0.2,0.4-0.5,0.7-0.7,1.1c-0.4,0.6-0.8,1.2-1.2,1.9c-0.3,0.4-0.5,0.8-0.8,1.2   c-0.4,0.6-0.8,1.2-1.1,1.7c-0.3,0.4-0.5,0.8-0.8,1.2c-0.4,0.5-0.7,1.1-1.1,1.6c-0.3,0.4-0.6,0.8-0.9,1.3c-0.4,0.5-0.7,1-1.1,1.5   c-0.3,0.4-0.6,0.9-0.9,1.3c-0.3,0.5-0.7,0.9-1,1.4c-0.3,0.4-0.6,0.9-1,1.3c-0.3,0.4-0.7,0.9-1,1.3c-0.2,0.3-0.5,0.6-0.7,0.9   c-0.1,0.1-0.2,0.2-0.3,0.3c0,0,0,0-0.1,0.1c-0.3,0.4-0.6,0.8-0.9,1.1c0,0-0.1,0.1-0.1,0.1c-0.3,0.4-0.6,0.8-0.9,1.2   c-0.1,0.1-0.2,0.2-0.2,0.3c-0.2,0.3-0.4,0.5-0.7,0.8c-0.1,0.1-0.2,0.3-0.4,0.4c-0.2,0.3-0.5,0.6-0.7,0.8c-0.1,0.1-0.2,0.2-0.3,0.3   c-0.2,0.2-0.4,0.5-0.6,0.7c0,0.1-0.1,0.1-0.1,0.2c-0.3,0.4-0.7,0.7-1,1.1c-0.2,0.2-0.4,0.4-0.6,0.6c-0.1,0.1-0.1,0.1-0.2,0.2   c-0.1,0.1-0.1,0.1-0.2,0.2c-0.3,0.4-0.7,0.7-1,1.1c-0.1,0.1-0.2,0.2-0.3,0.3c-0.1,0.1-0.2,0.2-0.3,0.3c-0.1,0.1-0.1,0.1-0.2,0.2   c-0.6,0.6-1.1,1.1-1.6,1.6c-0.1,0.1-0.3,0.3-0.4,0.4c-0.1,0.1-0.2,0.1-0.2,0.2c0,0,0,0,0,0c-3.7,0.7-7.5,1.1-11.3,1   c-0.4,0-0.8,0-1.3,0c-1.8-0.1-3.6-0.2-5.4-0.4c0,0,0,0,0,0c-0.5,0-1-0.1-1.6-0.2c-22.8-2.3-45.3-10.4-65-21.9c0,0,0,0,0,0   c0.1-0.3,0.3-0.5,0.4-0.8c2.5-4.8,4.5-9.4,5.8-13.8c2.5-8,4.6-16.2,6.1-23.8c0,0.1,0,0.2-0.1,0.4c3.1-4.3,5.8-8.8,7.9-13.6   c1.2-2.9,2.2-5.9,2.9-9c0.2-0.7,0.3-1.5,0.4-2.2c0.4-2.2,0.6-4.5,0.7-6.8c0.1-3,0-6.1-0.2-9c0-0.1,0-0.2,0-0.3c0-0.1,0-0.2,0-0.3   c-0.2-3.5-0.9-12.7-4.7-13c0,0,0,0,0,0c0,0,0,0,0,0c2.9-3.2,4.8-5.5,5.5-6.2c0.8-0.9,1.6-1.7,2.5-2.5c0.1,0,0.1,0.1,0.2,0.1   c2.3,1.4,4.6,2.9,6.9,4.2c0.5,0.3,0.9,0.5,1.4,0.8c1.4,0.7,2.8,1.4,4.3,2c3.4,1.3,7,2.2,11.1,2c8.6-0.3,16.6-4.1,22.9-9.7   c6.7-6,11-13.9,13.9-22.4c0,0,0-0.1,0.1-0.1c0,0,0,0,0,0c0,0,0,0,0,0c2.8,0.2,5.6-0.1,8.3-1c1.3-0.5,3-1.1,4.9-1.8   c0.5,2.6,0.9,5.1,1.3,7.5c0.2,1.2,0.5,2.5,0.7,3.7c0.5,2.4,1,4.7,1.5,7c0.8,3.2,1.6,6.4,2.7,9.4c2.3,6.6,5.5,12.7,10.3,18.4   c0.9,1,1.8,2,2.7,2.9C417.7,265.2,422.3,268.2,427.3,270.2z M392.1,260.8c0,0-15.6,10.8-40.3,18.6c-13.7,4.3-22.5,7.5-28.4,11.8   c-0.4,3.3-0.9,6.5-1.6,9.7c-1.9,9.7-4.9,19.1-8.9,28.1c3.2,0.1,7.2,0.2,11.7,0.2s9.4-0.2,14.4-0.6c0.7-0.1,1.4-0.1,2.1-0.2   c1.4-0.1,2.9-0.3,4.3-0.5c0.7-0.1,1.4-0.2,2.1-0.3c1.4-0.2,2.8-0.4,4.2-0.7c8.3-1.5,15.9-4,20.8-7.9   C389.8,305.3,392.1,260.8,392.1,260.8z M220.7,569.5c0,0.1,0,0.1,0.1,0.2c-4.9,1.1-21.4,4.9-26.7,5.4c-3.6,0.4-6.6-0.6-8.5-1.5   c-0.9-0.4-1.8-0.7-2.7-0.9s-1.9-0.3-2.8-0.3l-13.9,0.1c-1.5,0-3,0.3-4.5,0.9c-0.8,0.3-1.7,0.8-2.4,1.3c-2.4,1.6-6.1,3.5-10.4,3.3   c-6.3-0.3-21.8-3.8-27-4.8l1.7-10.1l0-0.2c0.3-2.1,0.8-4.1,1.3-6.1c0,0,6.5,4.2,13.6,4.3c4.9,0.1,10-4.4,11.3-8   c0.3-0.8,0.4-1.6,0.2-2.2c-0.2-0.6-0.6-1.2-1.3-1.5c-0.8-0.4-1.8-1.3-2.7-2.3c-0.9-1.1-1.9-2.4-2.8-3.8c-0.6-0.9-1.2-1.8-1.7-2.8   c-0.5-0.9-1.1-1.8-1.5-2.7c-0.8-1.4-1.4-2.6-1.9-3.5c-0.2-0.4-0.4-0.8-0.5-1c-0.1-0.2-0.2-0.4-0.2-0.4s0.3-1.5,0.8-3.3   c0,0.1,0.1,0.1,0.1,0.2c0,0,0,0.1,0,0.1l2.6-0.9l7.2-2.6l0.7-0.3l0.7-0.3c0.3-0.1,0.7-0.3,1-0.4c0.7-0.3,1.3-0.7,1.9-1.2   c0.2-0.2,0.4-0.4,0.6-0.6c0.2-0.2,0.4-0.4,0.6-0.6c0.2-0.2,0.3-0.4,0.5-0.7s0.3-0.5,0.4-0.7l0.1-0.3l1.7-3.1l0.2-0.4l0.5-0.9   c0,0,0,0,0,0c-0.1,0-0.2,0-0.4-0.1c0,0,0,0,0,0c-0.2,0-0.4-0.1-0.6-0.1c-0.1,0-0.2-0.1-0.4-0.1c-0.4-0.1-0.9-0.2-1.4-0.3   c-0.3-0.1-0.6-0.1-0.9-0.2c0,0-0.1,0-0.1,0c-0.4-0.1-0.8-0.2-1.3-0.3c-0.7-0.2-1.4-0.3-2.2-0.5c1.2-1.4,3.1-3.4,6.1-4.9   c0.9-0.5,1.9-0.9,3-1.2c0.4-0.1,0.7-0.2,1.1-0.3c0.8-0.2,1.6-0.4,2.5-0.5c0.8-0.1,1.8-0.2,2.9-0.2c0.5,0,1.1,0,1.7,0   s1.2,0.1,1.8,0.1c1.1,0.1,2.3,0.2,3.5,0.4c3.1-0.3,6.4-0.3,9.5,0.2c1.9,0.3,3.7,0.7,5.4,1.4c0.7,0.3,1.3,0.5,1.9,0.9   c0.9,0.5,1.6,0.9,2.4,1.3c0.7,0.4,1.4,0.9,2,1.3c5.7,1.8,10.5,3.8,12.9,5.4c1.4,0.9,2.2,2,2.6,3.1h0h0c0.3,0.8,0.4,1.6,0.4,2.5   c-0.3,0-0.6-0.1-0.9-0.1c0,0-0.1,0-0.1,0c-0.1,0-0.1,0-0.2,0c-0.2,0-0.4,0-0.7,0c-0.1,0-0.2,0-0.3,0c-0.2,0-0.5,0-0.7,0   c-0.1,0-0.2,0-0.3,0c-0.3,0-0.7,0-1,0c0,0-0.1,0-0.1,0c-0.3,0-0.6,0-0.9,0c-0.1,0-0.2,0-0.3,0c-0.2,0-0.5,0-0.7,0   c-0.1,0-0.2,0-0.3,0c-0.3,0-0.5,0-0.7,0c0,0-0.1,0-0.1,0c-0.3,0-0.6,0-0.9,0c-0.2,0-0.3,0-0.5,0c-0.1,0-0.2,0-0.3,0c0,0,0,0,0,0   c-0.1,0-0.1,0-0.2,0c0,0,0,0,0,0c0,0,0,0,0,0c-0.1,0-0.2,0-0.3,0c0,0-0.1,0-0.1,0c0,0,0,0,0,0c-0.2,0-0.3,0-0.4,0c0,0,0,0,0,0   c0,0-0.1,0-0.1,0c0,0,0,0,0,0c-0.1,0-0.1,0-0.1,0c0,0,0,0,0,0c-0.1,0-0.1,0-0.1,0l0,0c0,0-0.1,0-0.1,0c0,0,0,0,0,0   c-0.1,0-0.1,0-0.2,0c0,0-0.1,0-0.1,0l-0.2,2.1c0,0.3,0,0.6,0,0.9c0,0.3,0.1,0.6,0.1,0.9c0,0.1,0,0.1,0,0.2c0.1,0.3,0.1,0.5,0.2,0.8   l0,0c0.1,0.2,0.2,0.5,0.3,0.7c0.1,0.2,0.3,0.5,0.4,0.7c0,0,0,0.1,0.1,0.1c0.3,0.5,0.8,0.9,1.3,1.3c0.2,0.2,0.5,0.4,0.8,0.5l3.3,1.9   l0.2,0.1h0l4.3,2.4c0.1,0.3,0.2,0.6,0.2,1v0l0,0c0,0-1.7,2.1-4.4,3.5c-1.2,0.6-2.7,1.1-4.3,1.1c-5.1,0.1-8,12-3.5,15.3   c4.6,3.4,19,1.5,19,1.5l0-0.1c0.3,0.7,0.7,1.7,1.1,2.8c0.1,0.3,0.2,0.6,0.4,0.9c0,0,0,0,0,0c0.2,0.6,0.5,1.2,0.8,1.9c0,0,0,0,0,0   c0.1,0.3,0.3,0.6,0.4,0.9c0,0,0,0,0,0c0.3,0.6,0.5,1.2,0.8,1.8c0,0,0,0.1,0,0.1C220.2,568.3,220.4,568.9,220.7,569.5   C220.7,569.5,220.7,569.5,220.7,569.5z M188.4,544.7c-0.2-0.2-0.9-0.3-1.8-0.4c-0.3,0-0.6-0.1-1-0.1c-1.5-0.2-3.4-0.3-5.5-0.4   c-0.3,0-0.6,0-0.9,0c-0.6,0-1.3,0-1.9-0.1s-1.3,0-2,0c-6.8-0.1-14.4,0-17.7,0.5c-0.6,0.1-1.1,0.2-1.4,0.3c-1.1,0.5-1.5,1.3-1.6,2   c0,0.1,0,0.2,0,0.3c0,1,0.6,1.8,1.5,2.1c0.3,0.1,0.6,0.2,0.9,0.1c0.3,0,0.7,0,1.1,0s0.8,0,1.3,0c2.1-0.1,4.9-0.1,7.9-0.2   c1.2,0,2.4,0,3.6,0c0.6,0,1.2,0,1.8,0c0.6,0,1.2,0,1.8,0c1.2,0,2.4,0,3.5,0c2.8,0,5.4,0.1,7.1,0.2c1.2,0.1,2.1,0.2,2.4,0.4   C190.2,550.4,190.3,546,188.4,544.7z M189,537.3c-0.1,0-0.1-0.1-0.2-0.1c-0.1,0-0.2-0.1-0.3-0.1c-0.1,0-0.3-0.1-0.4-0.1   c-0.3-0.1-0.7-0.2-1.2-0.3c-0.2,0-0.5-0.1-0.7-0.1c-0.5-0.1-1.1-0.2-1.6-0.3c-3-0.4-7.1-0.8-11.2-1.1c-3.1-0.2-6.2-0.4-8.9-0.5   c-0.8,0-1.5,0-2.2,0c-0.3,0-0.7,0-1,0c-2,0-3.5,0.1-4.3,0.2c-0.2,0-0.3,0.1-0.4,0.1c-0.4,0.1-0.7,0.3-0.9,0.5   c-0.2,0.1-0.3,0.3-0.4,0.4c-0.2,0.3-0.4,0.6-0.4,0.9c0,0.2-0.1,0.3-0.1,0.5c-0.1,1.3,0.9,2.3,2.2,2.4c0.1,0,0.1,0,0.2,0   c2.3,0,6.6,0.2,11.3,0.4c4.7,0.2,9.8,0.5,13.6,0.8c1.9,0.2,3.5,0.3,4.6,0.5c0.7,0.1,1.2,0.2,1.5,0.4c1.3,0.7,2.1-0.2,2.2-1.4   C190.2,539.3,189.8,538,189,537.3z M194.7,530.7c-0.1-0.3-0.2-0.6-0.3-0.8c-0.1-0.2-0.2-0.3-0.3-0.5s-0.2-0.3-0.4-0.4   c-0.1-0.1-0.3-0.2-0.6-0.3c-1.3-0.5-4.6-1.1-8.7-1.7c-2.4-0.3-5.1-0.7-7.8-0.9c-1.6-0.2-3.3-0.3-4.9-0.5c-4.7-0.4-9.1-0.7-12-0.7   c-0.4,0-0.8,0-1.1,0c-0.2,0-0.4,0-0.6,0c-0.5,0-1,0.1-1.2,0.2c-1.5,0.5-2.1,1.5-2.1,2.6c-0.1,0.9,0.4,1.8,1,2.3   c0.4,0.3,0.9,0.5,1.5,0.5c0.1,0,0.2,0,0.3,0c0.3,0,0.7,0,1.1,0.1c0.8,0,1.6,0.1,2.6,0.2c1.4,0.1,3.1,0.2,4.8,0.3   c1.7,0.1,3.6,0.3,5.5,0.4c1.3,0.1,2.5,0.2,3.8,0.3c1.3,0.1,2.5,0.2,3.7,0.3c1.8,0.2,3.6,0.4,5.2,0.5c2.7,0.3,5,0.6,6.5,0.9   c0.8,0.2,1.4,0.3,1.7,0.5c1.1,0.6,1.9,0.2,2.3-0.5c0.1-0.2,0.2-0.5,0.3-0.7C194.9,532.3,194.9,531.5,194.7,530.7z" originalFill="#F99F1C"/>
	<path fill="#FFFFFF" d="M150.1,550.9c0.2,0.6,0.1,1.4-0.2,2.2c-1.3,3.6-6.4,8.1-11.3,8c-7.1-0.1-13.6-4.3-13.6-4.3l0-1.4   c0-1.8,0.6-3.5,1.6-4.9l1.2-1.6c0,0,5,5.5,8.1,3.3c3.1-2.2-4.8-9-4.3-10.8c0.3-1.3,2.9-4.8,4.6-6.9c0.8-1,1.3-1.7,1.3-1.7   s0.1,0.1,0.2,0.4c0.1,0.2,0.3,0.6,0.5,1c0.4,0.9,1.1,2.1,1.9,3.5c0.5,0.9,1,1.8,1.5,2.7c0.5,0.9,1.1,1.9,1.7,2.8   c0.9,1.4,1.9,2.7,2.8,3.8c0.9,1.1,1.9,1.9,2.7,2.3C149.5,549.7,149.9,550.3,150.1,550.9z M370.5,302.4c0,1.6,0.6,2.3,1.7,1.8   c0.7-0.3,1.2-0.8,1.4-1.5c0.2-0.5,0.2-1.4,0.2-2.7v-1.5c0-1.8-0.5-2.6-1.5-2.2c-1.2,0.4-1.8,1.5-1.8,3V302.4z M345.6,145.1   c0-1.2-0.6-2.3-1.7-3.3l-9,9.6C340.9,151.2,345.6,148.5,345.6,145.1z M330.3,139.2c-4.7,0.8-8.1,3.2-8.1,6c0,0.7,0.2,1.4,0.6,2   C325.4,144.4,327.9,141.8,330.3,139.2z M308.5,443.4c-3.6-3-3.6-8.2-3.6-8.2c-1.3,0-6.8,3.7-6.8,3.7s0,0,0,0   c0.1,0.2,0.9,1.4,1.7,2.9c1.3,2.5,2.5,5.7,0.2,5.6h0c-0.2,0-0.4,0-0.6-0.1c-0.8-0.2-1.6-0.7-2.2-1.3c-1.7-1.7-2.6-4.3-2.8-4.8   c0-0.1,0-0.1,0-0.1c-1.6,0.5-3.1,1.5-4.2,2.8l-2.3,2.6l-0.1,0.1c0,0,9.4,9.6,14.6,9.7C307.5,456.5,312.1,446.3,308.5,443.4z    M392.1,260.8c0,0-2.2,44.5-19.5,58.4c-4.9,4-12.5,6.4-20.8,7.9c-1.4,0.3-2.8,0.5-4.2,0.7c-0.7,0.1-1.4,0.2-2.1,0.3   c-1.4,0.2-2.9,0.3-4.3,0.5c-0.7,0.1-1.4,0.1-2.1,0.2c-5,0.4-9.9,0.6-14.4,0.6s-8.5-0.1-11.7-0.2c4.1-9,7-18.5,8.9-28.1   c0.6-3.2,1.2-6.5,1.6-9.7c5.9-4.3,14.7-7.5,28.4-11.8C376.5,271.7,392.1,260.8,392.1,260.8z M341.1,310.3l-1.3,0.5v-19.9l-10.6,4   l-6.7,23.2v5.2l10.3-3.8v5.3l7-2.6v-5.3l1.3-0.5V310.3z M361,302.8c0-0.8,0-1.5-0.1-2.3c-0.1-0.8-0.2-1.5-0.4-2.2   c-0.2-0.7-0.5-1.3-0.9-1.8c-0.4-0.5-0.8-0.9-1.4-1.2s-1.2-0.5-1.9-0.5c-0.7,0-1.6,0.2-2.6,0.5c-1.5,0.6-2.6,1.3-3.3,2.2l0-4.2   l9.6-3.6v-6.5l-16,6v17.9l6.2-2.3c0-1.7,0.6-2.8,1.9-3.3c0.4-0.1,0.7-0.1,0.9,0c0.2,0.1,0.4,0.3,0.5,0.6c0.1,0.3,0.2,0.6,0.2,0.9   c0,0.4,0,0.7,0,1.1v4.2c0,0.8-0.1,1.5-0.4,2.1c-0.2,0.5-0.7,1-1.4,1.2c-0.2,0.1-0.4,0.1-0.6,0.1c-0.2,0-0.4,0-0.6-0.2   c-0.2-0.2-0.3-0.4-0.4-0.9c-0.1-0.4-0.2-1-0.2-1.9v-1.7l-7,2.6v3.6c0,1.3,0.2,2.4,0.7,3.2c0.5,0.8,1.1,1.4,1.9,1.7   c0.8,0.3,1.8,0.5,2.9,0.3c1.1-0.1,2.3-0.4,3.7-0.9c1.2-0.4,2.3-1,3.1-1.6c0.9-0.6,1.7-1.3,2.3-2.1c0.6-0.8,1.2-1.6,1.6-2.5   c0.4-0.9,0.7-1.8,1-2.8c0.2-1,0.4-1.9,0.5-3C360.9,304.9,361,303.8,361,302.8z M374.2,287.3c0,0.4,0,0.6,0,0.7l7-2.6v-3.6   c0-1.1-0.3-1.9-0.8-2.6c-0.5-0.7-1.2-1.1-2.1-1.3c-0.9-0.2-1.8-0.3-2.8-0.2c-1,0.1-2,0.3-2.9,0.7c-1.3,0.5-2.4,1.1-3.4,1.7   c-1,0.7-1.8,1.3-2.5,2c-0.6,0.7-1.2,1.5-1.6,2.5c-0.4,1-0.8,1.9-1,2.6c-0.2,0.7-0.4,1.7-0.5,2.9c-0.1,1.2-0.2,2.2-0.2,2.9   c0,0.7,0,1.7,0,3.1c0,0,0,0.1,0,0.1v6.8c0,0.9,0,1.8,0.1,2.5s0.2,1.4,0.3,2.1c0.2,0.7,0.4,1.3,0.6,1.8c0.3,0.5,0.6,0.9,1.1,1.2   c0.5,0.4,1,0.6,1.6,0.7c0.6,0.1,1.4,0.1,2.3-0.1c0.9-0.1,1.9-0.4,3.1-0.8c1.4-0.5,2.7-1.2,3.7-2c1.1-0.8,1.9-1.6,2.5-2.4   c0.6-0.9,1.1-1.8,1.5-2.9c0.4-1.1,0.6-2.1,0.8-3.1c0.1-1,0.2-2.1,0.2-3.4c0-3.3-0.5-5.5-1.5-6.6c-1-1.1-2.8-1.2-5.4-0.2   c-0.5,0.2-1,0.5-1.5,0.8c-0.5,0.3-0.8,0.6-1.1,0.9c-0.3,0.3-0.5,0.6-0.7,0.8c-0.2,0.3-0.3,0.5-0.4,0.6l-0.1,0.3v-5.7   c0-0.2,0-0.4,0-0.6c0-0.1,0-0.4,0.1-0.7c0.1-0.3,0.2-0.5,0.3-0.7c0.1-0.2,0.3-0.4,0.6-0.6c0.3-0.2,0.6-0.4,1-0.5   c0.3-0.1,0.6-0.1,0.8,0c0.2,0.1,0.4,0.2,0.5,0.4c0.1,0.2,0.2,0.5,0.3,0.8c0.1,0.3,0.1,0.6,0.1,0.9   C374.1,286.6,374.2,286.9,374.2,287.3z M332.7,313.4v-14.2l-3.8,15.6L332.7,313.4z M355,474.5c-1.6,0.7-3.6,1.4-5.4,2.1   c-2.2,0.7-4.4,1.3-6,1.4c-0.3,0-0.5,0-0.8,0c-0.2,0-0.5,0-0.7-0.1c-0.1,0-0.3,0-0.4-0.1c-0.5,0-1,0.1-1.4,0.4   c-0.3,0.2-0.5,0.5-0.7,0.9c-0.1,0.2-0.3,0.5-0.4,0.8c-0.1,0.1-0.1,0.3-0.1,0.5c-0.1,0.3-0.1,0.7-0.2,1c0,0.2,0,0.4-0.1,0.6   c0,0.4,0,0.8,0,1.2s0,0.8,0.1,1.2s0.1,0.8,0.2,1.2c0,0.2,0.1,0.4,0.1,0.6c0.3,1,0.7,2.1,1.2,3c0.2,0.4,0.4,0.7,0.7,1.1   c0.5,0.7,1.1,1.3,1.7,1.8c5.2,4,12.2,4.7,12.2,4.7l0.8-1c1-1.3,1.6-2.8,1.6-4.4l0-1.8c0,0-6.7,1.1-7.8-2.2c-1-3.4,8.5-3.8,9.3-5.3   c0.5-1.1,0.6-5.1,0.7-7.6c0-1.2,0-2,0-2S357.7,473.3,355,474.5z M216.3,555.5c-0.1-1.9-0.7-3.7-1.7-5.3c0,0,0,0-0.1,0.1   c-0.7,0.5-5.8,3.7-9,1.5c-3.3-2.3,6.8-5.8,7.4-6c0,0,0,0,0,0s-2.1-7-3.3-7.8l0,0c0,0-1.7,2.1-4.4,3.5c-1.2,0.6-2.7,1.1-4.3,1.1   c-5.1,0.1-8,12-3.5,15.3c4.6,3.4,19,1.5,19,1.5l0-0.1L216.3,555.5z M260.9,434.2c-1.4-1.4-2.9-2.8-4.4-4.2c-2.8-2.6-5.7-5-8.8-7.2   c-4.7-3.3-10.1-5.1-15.5-6.8h0c-2.2,2.2-4.2,4.1-5.9,5.8l0,0c8.5,3.1,16.3,8,23.4,14c0.9,0.8,1.9,1.6,2.8,2.4   c2.7,2.5,5.3,5.2,7.8,8h0c0,0,0,0,0,0c0,0,0,0,0,0c0.1-0.1,0.2-0.1,0.2-0.2c0.2-0.2,0.4-0.4,0.6-0.5c0.5-0.4,0.9-0.9,1.4-1.3   c1.3-1.2,2.7-2.4,4-3.7c0.1,0,0.1-0.1,0.2-0.2l0,0C264.8,438.2,262.8,436.2,260.9,434.2z" originalFill="#FFFFFF"/>
	<path opacity="0.2" d="M121.7,345.7c-1.1-1.1-4.1-1.6-4.1-1.6s4.1-0.5,7.9,1.1c3.9,1.6,7.5,2.6,9,2c0,0-0.8,1.5-1.8,2l-4.3,4.3   c0,0,2-4.1,0.9-5.3c-1.1-1.2-2.2-1.2-3.7-1.4c-1.9-0.1-4.9,2.3-5.2,2.3C120,349.2,122.8,346.9,121.7,345.7z M154.8,525.1   c0,0-4,0.7-2.7,4.2c1.3,3.6,4.3,2.2,4.3,2.2s-2.9,0.3-3.2-2.7C152.8,525.8,154.8,525.1,154.8,525.1z M156.3,540.4   c0,0-2.5,0.4-2.9-2.3c-0.2-1.4,0.2-2.2,0.5-2.7c0.4-0.5,0.7-0.6,0.7-0.6s-0.8,0.2-1.4,0.6c-0.8,0.5-1.5,1.5-0.8,3.2   C153.7,541.8,156.3,540.4,156.3,540.4z M121.9,573.2c5.2,1,20.7,4.5,27,4.8c4.3,0.2,8.1-1.7,10.4-3.3c0.8-0.5,1.6-1,2.4-1.3   c1.4-0.6,2.9-0.9,4.5-0.9l13.9-0.1c0.9,0,1.9,0.1,2.8,0.3s1.8,0.5,2.7,0.9c1.9,0.9,4.8,1.8,8.5,1.5c5.3-0.5,21.8-4.3,26.7-5.4h0h0   c0-0.1,0-0.1-0.1-0.2c0,0,0,0,0,0c-0.2-0.5-0.5-1.1-0.7-1.7c0,0,0-0.1,0-0.1c-0.3-0.6-0.5-1.2-0.8-1.8c0,0,0,0,0,0   c-0.1-0.3-0.3-0.6-0.4-0.9c0,0,0,0,0,0c-0.3-0.6-0.5-1.3-0.8-1.9c0,0,0,0,0,0c-0.1-0.3-0.2-0.6-0.4-0.9c0,0,0,0,0,0   c-6,1.5-14,3-20.1,2.4c-11.4-1.1-12.5-8.4-12.5-8.4l-27.3,0.9c0,0-5.4,7.2-10.8,9c-4.2,1.4-17.7-1.6-23.3-3L121.9,573.2z    M156.4,549.8c0,0-2.5,0.5-3-2.1c-0.5-2.6,1.1-3.3,1.1-3.3s-3.4,0.9-2,3.9C154,551.2,156.4,549.8,156.4,549.8z M186.3,332   c0,0,0.2,1.1-0.1,2.8c-0.3,2.4-1.5,5.9-5.2,9.4c-6.4,6.1-21.7,3.9-22.5,1.7c-0.8-2.2,1.1-5.6,1.1-5.6s-12.2,9.2-15.3,16.1   c0,0,6.7-8.6,15.6-5.6c8.9,3.1,6.1,18.4,6.1,18.4s6.4-1.4,8.9-9.5c2.4-7.7,15.1-12.6,12-25.8C186.7,333.3,186.5,332.7,186.3,332z    M181.3,511.9c-8.3-1.7-20.3,2.6-20.3,2.6s-0.9,3.6-1.9,8.1c-0.2,0.8-0.4,1.6-0.5,2.5c0.3,0,0.7,0,1.1,0c2.8,0,7.2,0.2,12,0.7   c1.6,0.1,3.3,0.3,4.9,0.5c2.7,0.3,5.4,0.6,7.8,0.9c4.1,0.6,7.4,1.2,8.7,1.7c2-4.6,3.2-8.7,3.2-8.7s-4.1-3.9-9.8-6.5   C184.8,512.9,183.1,512.3,181.3,511.9z M194.6,528.9c0,0,0.7,0.3,1.1,1.2c0.3,0.6,0.4,1.4,0.2,2.6c-0.2,1.1-0.7,1.7-1.3,2.1   c-1,0.6-2.1,0.4-2.1,0.4s1.9,1,3.4-0.4v0c0.4-0.3,0.7-0.8,1-1.5c0.6-1.3,0.4-2.3-0.1-3C196.1,529.2,194.6,528.9,194.6,528.9z    M174.5,548.7c-0.6,0-1.2,0-1.8,0c-0.6,0-1.2,0-1.8,0c-1.2,0-2.5,0-3.6,0c-3,0.1-5.7,0.1-7.9,0.2c0.5,1.1,0.8,1.7,0.8,1.7l25.1-0.1   c0,0-0.1-0.6,0-1.6c-1.8-0.1-4.3-0.2-7.1-0.2C176.9,548.7,175.7,548.7,174.5,548.7z M151.5,518.5c1-0.7,1.9-1.6,2.8-2.5   c-0.2,0-0.5-0.1-0.7-0.2c-0.1,0-0.2,0-0.3-0.1c-0.4-0.1-0.8-0.2-1.3-0.3c-0.7-0.2-1.4-0.3-2.2-0.5c1.2-1.4,3.1-3.4,6.1-4.9   c0.9-0.5,1.9-0.9,3-1.2c0.4-0.1,0.7-0.2,1.1-0.3c0.8-0.2,1.6-0.4,2.5-0.5c0.8-0.1,1.8-0.2,2.9-0.2c0.5,0,1.1,0,1.7,0   s1.2,0.1,1.8,0.1c1.1,0.1,2.3,0.2,3.5,0.4c-1.8,0.2-3.4,0.4-4.9,0.7c-3.3,0.6-5.8,1.4-6.8,2.1c-1.4,0.9-2.7,3.7-3.8,6.4   c-0.1,0-0.1,0-0.2,0l-0.2,0.4l-1.7,3.1l-0.1,0.3c-0.1,0.2-0.3,0.5-0.4,0.7s-0.3,0.5-0.5,0.7c-0.2,0.2-0.4,0.4-0.6,0.6   c-0.2,0.2-0.4,0.4-0.6,0.6c-0.6,0.5-1.2,0.9-1.9,1.2c-0.3,0.2-0.7,0.3-1,0.4l-0.7,0.3l-0.7,0.3l-7.2,2.6l-2.6,0.9c0,0,0,0,0-0.1   c0,0,0-0.1-0.1-0.2c-0.1-0.1-0.1-0.3-0.2-0.5c-0.1-0.2-0.2-0.5-0.3-0.8c-0.1-0.3-0.2-0.6-0.3-1c-0.1-0.4-0.2-0.7-0.3-1.1   c-0.1-0.6-0.3-1.2-0.3-1.8c0-0.6,0-1.1,0.1-1.7c0,0,0-0.1,0-0.1c0,0,0-0.1,0-0.1c0.2,0,0.3,0.1,0.5,0.1c1,0,2-0.1,3-0.2   c0.2,0,0.4,0,0.5-0.1c3.3-0.4,6.5-1.2,9.4-2.9c0.1,0,0.1-0.1,0.2-0.1C150.9,519,151.2,518.8,151.5,518.5z M156.8,516.6   c0.2,0,0.4,0.1,0.4,0.1C157.1,516.7,157,516.7,156.8,516.6z M389.8,144.7c3.1-4.6,3.2-10.6,0.2-15.2c0-0.1-0.1-0.1-0.1-0.2   c0,0,0,0,0,0c-0.2-0.2-0.3-0.5-0.5-0.7c-0.2-0.2-0.4-0.4-0.6-0.6c-0.1-0.1-0.2-0.2-0.2-0.3c-0.4-0.4-0.7-0.7-1.1-1c0,0,0,0,0,0   c0,0-0.1-0.1-0.1-0.1c-0.5-0.4-0.9-0.7-1.4-1c0,0-0.1,0-0.1-0.1c-0.5-0.3-1-0.5-1.5-0.8l0,0v0c0.5,2.8,0.6,6.6-0.4,11   c-2.1,9-10,16-10,16s8.3,22.6,6,38.9c-1.4,9.7-6,18.4-10.6,25.1c-5.6,8-11.1,12.9-11.1,12.9s0.1-0.1,0.3-0.2   c6.2-3.2,11.7-7.7,16-13.2c1.2-1.6,2.4-3.2,3.4-4.9c0.5-0.8,1-1.6,1.4-2.4c0,0,0-0.1,0.1-0.1c0-0.1,0.1-0.2,0.1-0.2   c0.4-0.8,0.8-1.6,1.2-2.4c0.1-0.2,0.2-0.4,0.2-0.5c0.4-0.8,0.7-1.6,1-2.5c0.1-0.1,0.1-0.3,0.2-0.4c0.7-2,1.4-4,1.9-6.1   c0.1-0.2,0.1-0.5,0.2-0.7c0.2-0.8,0.4-1.5,0.5-2.3c0.1-0.3,0.1-0.7,0.2-1c0.1-0.7,0.2-1.4,0.3-2.1c0-0.4,0.1-0.7,0.1-1.1   c0.1-0.7,0.1-1.5,0.2-2.2c0-0.3,0.1-0.7,0.1-1c0.1-1.1,0.1-2.1,0.1-3.2c0-8.3-1.8-16.2-5.1-23.3L389.8,144.7   C389.8,144.7,389.8,144.7,389.8,144.7z M174.4,312.7c0.6,0.2,1.1,0.4,1.7,0.7c0.7,0.3,1.4,0.7,2,1.2c0.5,0.4,1,0.7,1.5,1.1   l77.2-81.7c1.4,0.9,3,1.6,4.9,2c2.2,0.5,4.2,0.7,6.1,0.7c0.4,0,0.7,0,1.1,0s0.7,0,1.1,0c0.7,0,1.4-0.1,2-0.2   c0.7-0.1,1.3-0.2,1.9-0.3c0.6-0.1,1.2-0.3,1.7-0.4c0.3-0.1,0.5-0.2,0.8-0.2c0.5-0.2,1-0.3,1.5-0.5c3.8-1.4,5.8-3.2,5.8-3.2   s0,5.1,7.8,4.5c5-0.4,12.8-1.4,17.9-2c0.9,0.3,1.8,0.6,2.7,0.9c0.2,0.1,0.5,0.1,0.7,0.2c0.7,0.2,1.4,0.4,2.1,0.6   c0.2,0.1,0.4,0.1,0.7,0.2c0.8,0.2,1.5,0.4,2.3,0.5c0.2,0,0.3,0.1,0.5,0.1c0.9,0.2,1.9,0.4,2.8,0.5c8.1-9.1,2.6-28.5-2.5-27.6   c-14.8,2.6-26.4-0.3-28.7-10.9l7.3-7.8c0.7,7.6,7.1,13.6,14.9,13.6c8.2,0,14.9-6.7,14.9-14.9c0-2.7-0.7-5.3-2-7.5   c-0.3,1.5-1,2.8-2,3.9c-1.3,1.4-3.3,2-5.1,2.1c-1,0-1.9-0.2-2.8-0.6c-0.9-0.3-1.7-0.8-2.3-1.5c-1.3-1.3-2.1-3.3-2.1-5.1v-0.3   c0-2,0.8-3.7,2.1-5.1c0.2-0.2,0.5-0.5,0.7-0.7c-0.3,0-0.5,0-0.8,0l6.7-7.1c2.1,0.2,3.5,0.5,3.5,0.5l-2.9-1.1l14.8-15.7l9-9.6   l10-10.6l76.9-81.4l32.3-43l-46.3,43c-6.5,5.4-14,12.4-22.6,21.4c-7.5,7.9-26.7,28.3-52.5,55.8c-3.7,3.9-7.5,7.9-11.4,12.1   c-2.4,2.6-4.9,5.3-7.5,8c-4.7,5-9.6,10.3-14.6,15.6l-0.7-0.3c-8.1-3-7.8-16.6,3-26.8c8.3-7.8,17.1-9.7,20.8-10.1h0c0,0,0,0,0,0   c-0.4-0.3-0.7-0.6-1.1-0.9c0,0-0.1,0-0.1-0.1c-0.4-0.3-0.8-0.6-1.2-0.8c-0.1,0-0.1-0.1-0.2-0.1c-0.4-0.3-0.8-0.5-1.2-0.8   c-0.1-0.1-0.2-0.1-0.3-0.2c-0.4-0.2-0.8-0.5-1.2-0.7c-0.1-0.1-0.3-0.1-0.4-0.2c-0.4-0.2-0.8-0.4-1.2-0.6c-0.2-0.1-0.4-0.2-0.5-0.2   c-0.4-0.2-0.8-0.4-1.2-0.5c-0.2-0.1-0.5-0.2-0.7-0.2c-0.4-0.2-0.8-0.3-1.2-0.4c-0.3-0.1-0.5-0.2-0.8-0.2c-0.4-0.1-0.8-0.3-1.2-0.4   c-0.3-0.1-0.6-0.2-1-0.2c-0.4-0.1-0.8-0.2-1.3-0.3c-0.4-0.1-0.7-0.1-1.1-0.2c-0.4-0.1-0.8-0.2-1.3-0.2c-0.4-0.1-0.9-0.1-1.3-0.2   c-0.4-0.1-0.8-0.1-1.3-0.1c-0.5,0-1-0.1-1.4-0.1c-0.4,0-0.8-0.1-1.3-0.1c-0.5,0-1.1,0-1.6,0c-0.4,0-0.8,0-1.3,0   c-0.6,0-1.2,0-1.8,0.1c-0.4,0-0.8,0-1.2,0c-0.7,0-1.4,0.1-2.2,0.2c-0.4,0-0.7,0.1-1.1,0.1c-1.1,0.1-2.3,0.3-3.4,0.5   c-33.2,5.1-34.7,21.1-33.8,22c0,0-24.1,2.7-31.7,26.2c-7.5,23.5,7.2,18.4,7.2,18.4s-13.3,18.7-6.6,30.5c6.6,11.8,17.8,0.9,17.8,0.9   s-0.3,3.9,0.9,8.3c-6.9,7.3-13.8,14.7-20.7,22.1c-6.9,7.4-13.9,14.8-20.8,22.3s-13.9,14.8-20.7,22.1c-6.9,7.3-13.7,14.6-20.4,21.8   C170,312.3,172.3,312.1,174.4,312.7z M186.4,541.4c-1.1-0.2-2.7-0.4-4.6-0.5c-3.9-0.3-8.9-0.6-13.6-0.8c-4.7-0.2-9-0.4-11.3-0.4   c-0.1,0-0.1,0-0.2,0c0.1,0.9,0.3,1.8,0.5,2.7c0.1,0.6,0.3,1.1,0.4,1.7c3.3-0.5,10.8-0.6,17.7-0.5c0.7,0,1.4,0,2,0s1.3,0,1.9,0.1   c0.3,0,0.6,0,0.9,0c2.2,0.1,4.1,0.2,5.5,0.4C185.8,543.3,186.1,542.4,186.4,541.4z M178.9,532.2c-1.2-0.1-2.5-0.2-3.7-0.3   c-1.3-0.1-2.5-0.2-3.8-0.3c-1.9-0.1-3.7-0.3-5.5-0.4c-1.7-0.1-3.4-0.2-4.8-0.3c-1-0.1-1.8-0.1-2.6-0.2c-0.4,0-0.7,0-1.1-0.1   c-0.3,1.5-0.5,2.9-0.6,4.2c0.8-0.2,2.4-0.2,4.3-0.2c0.3,0,0.7,0,1,0c0.7,0,1.4,0,2.2,0c2.7,0.1,5.8,0.2,8.9,0.5   c4.1,0.3,8.2,0.7,11.2,1.1c0.6,0.1,1.1,0.2,1.6,0.3c0.3,0,0.5,0.1,0.7,0.1c0.4,0.1,0.8,0.2,1.2,0.3c0.2,0,0.3,0.1,0.4,0.1   c0.2-0.3,0.4-0.6,0.6-0.9c0.3-0.4,0.5-0.8,0.8-1.2c0.2-0.4,0.5-0.8,0.7-1.2c-1.5-0.3-3.8-0.6-6.5-0.9   C182.5,532.6,180.7,532.4,178.9,532.2z M188,550.1c0,0,2.6,1.1,3.7-2c1.1-3.1-2.4-3.6-2.4-3.6s1.7,0.6,1.5,3.2   C190.5,550.3,188,550.1,188,550.1z M192.3,540.3c0.6-2.6-2.4-3.2-2.4-3.2s1.6,0.7,1.3,3.3c0,0,0,0,0,0.1c-0.4,2.7-2.9,2.3-2.9,2.3   s2.6,1.3,3.9-1.8C192.2,540.7,192.2,540.5,192.3,540.3z M363.5,463.1c-2.3-2.2-4.3-4.7-5.4-7.8c0-0.1,0-0.1-0.1-0.2   c0-0.1-0.1-0.3-0.1-0.4c-0.1-0.2-0.2-0.5-0.2-0.7c-0.3-1.1-0.5-2.2-0.6-3.3v0c0.1,0.1,0.2,0.1,0.4,0.2c0.4,0.2,0.8,0.4,1.2,0.6   c0.1,0.1,0.2,0.1,0.3,0.2c0.2,0.1,0.4,0.2,0.5,0.3c0.1,0,0.1,0.1,0.2,0.1c0.4,0.2,0.7,0.3,1.1,0.5c0-0.5,0-1.2-0.1-1.9   c-0.4-2.8-1.6-6.6-5.1-10.3c-1.1-1.1-2.6-2.4-4.5-3.6c-0.9-0.6-1.8-1.2-2.8-1.7c1.2,1.1,2.2,2.2,3.2,3.3c2,2.3,3.4,4.4,3.7,5.4   c0.5,1.4-0.1,4.2-0.9,6.8c0,0,0.1,0.1,0.1,0.1l-0.1,0.4l-0.6,3.2l0,0.3c-0.1,0.5-0.1,1-0.1,1.5c0,0.3,0,0.5,0,0.8   c0,0.3,0.1,0.5,0.1,0.8c0,0,0,0,0,0c0.1,0.7,0.4,1.3,0.6,1.9c0.1,0.3,0.3,0.6,0.5,0.9l0.8,1.2l5.1,8.1c0,0,0.1,0,0.2-0.1   c0.1-0.1,0.2-0.1,0.4-0.2c0.2-0.1,0.4-0.2,0.7-0.4s0.5-0.3,0.8-0.5c0.3-0.2,0.6-0.4,0.9-0.6c0.4-0.3,0.9-0.7,1.2-1.1   c0.4-0.4,0.7-0.8,0.9-1.2c0,0,0-0.1,0.1-0.1c0,0,0-0.1,0-0.1c-0.1-0.1-0.3-0.1-0.4-0.3C364.9,464.4,364.2,463.8,363.5,463.1z    M312,452.5c-1,2.9,1.5,3.5,1.5,3.5s-1.9-1.3-0.6-3.3c1.3-2,2.9-1.5,2.9-1.5S313,449.7,312,452.5z M351.7,456.9   C351.7,456.9,351.7,457,351.7,456.9c0.2,0.4,0.8,1.8-1,3.6c-2,2-3.8,0.1-3.8,0.1s1.4,2.7,4.4,0.9   C353.9,459.9,352.1,457.4,351.7,456.9C351.7,457,351.7,456.9,351.7,456.9z M339.2,454.4c-1-0.7-2.1-1.4-3.2-2.1   c-5.8-3.9-12.1-7.9-15-9.4c-0.1,0.8-0.2,1.6-0.2,2.5c0,0,0,0.1,0,0.1c0,0.4,0,0.7-0.1,1c3.8,1.4,21.4,13.4,24,16.5   c0.6-1,1.3-2.1,1.9-3.4c-0.8-0.6-1.9-1.3-3.2-2.2C342.2,456.4,340.7,455.4,339.2,454.4z M156.6,340.1l6.1-6.4c-0.7,0-1.4,0-2,0.1   c-4.5,0.4-8.8,1.7-13.3,0.8c-4,4.2-7.9,8.4-11.7,12.6s-7.6,8.2-11.4,12.1c-6.4,6.8-12.6,13.4-18.5,19.7c-1.2,1.3-2.3,2.5-3.5,3.7   c-3.5,3.7-6.8,7.3-10.1,10.8s-6.4,6.8-9.4,10.1S76.7,410,74,413c-15.7,16.8-27.1,28.9-32.2,34.4c-1.7,1.8-1.8,4.7-0.1,6.5   c0.5,0.5,1,0.9,1.6,1.2c0.6,0.3,1.3,0.4,1.9,0.4c1.3,0,2.6-0.5,3.6-1.5l85.4-90.4L156.6,340.1z M315.8,447.1   c-0.8,3,1.8,3.5,1.8,3.5s-2-1.2-0.8-3.3c0,0,0,0,0-0.1c1.2-2.1,2.8-1.6,2.8-1.6s-2.5-1.3-3.6,0.9   C315.9,446.7,315.9,446.9,315.8,447.1z M340,432.4c-3.5-1.8-7.4-2.4-10.4-2.7c-2.9-0.2-5,0-5,0s-1.5,3.6-2.7,8.1c0,0,0.1,0,0.1,0   c2.5,0.9,10.4,5.5,17.1,10c4.1,2.7,7.9,5.4,9.8,7c0.3-0.7,0.7-1.4,1-2.1c1.8-3.8,3.2-6.9,3.2-6.9S347,435.9,340,432.4z    M514.1,247.4c-1.2-6.7-4.9-13.2-9.5-18.2c-13.3-14.5-86.1-30.1-90.6,28.2c0,0,0,0.1,0,0.1c-0.1,1.3-0.2,2.6-0.4,3.8   c-0.9,6.8-2.7,13.4-4.1,20c-1.4,6.7-3.8,13.1-6.4,19.4c-5.1,12.1-11.6,23.6-19.3,34.3c-5.5,7.6-11.8,15.3-18.9,22.2   c-1.6,1.5-3.1,3-4.8,4.4l0,0c0,0,0,0,0,0c1.8,0.2,3.6,0.3,5.4,0.4c0.4,0,0.8,0,1.3,0c3.8,0.1,7.6-0.3,11.3-1c0,0,0,0,0,0   c0.1-0.1,0.1-0.1,0.2-0.2c0.1-0.1,0.2-0.2,0.4-0.4c0.5-0.5,1-1,1.6-1.5c0.1-0.1,0.2-0.2,0.2-0.2c0.1-0.1,0.2-0.2,0.2-0.3   c0.1-0.1,0.3-0.3,0.4-0.4c0.3-0.3,0.5-0.5,0.8-0.8c0.2-0.2,0.3-0.3,0.5-0.5c0,0,0-0.1,0.1-0.1c0.2-0.2,0.5-0.5,0.7-0.8   c0.3-0.3,0.5-0.6,0.8-0.9c0.1-0.1,0.2-0.2,0.3-0.4c0.1-0.1,0.3-0.3,0.4-0.4c0.1-0.2,0.3-0.3,0.4-0.5c0.1-0.2,0.3-0.3,0.4-0.5   c0.2-0.3,0.4-0.5,0.6-0.8c0.1-0.1,0.1-0.2,0.2-0.3c0.2-0.3,0.5-0.6,0.7-0.8c0,0,0,0,0-0.1c0.3-0.4,0.7-0.8,1-1.2   c0.2-0.3,0.5-0.6,0.7-0.9c0.1-0.1,0.2-0.2,0.2-0.3c0.1-0.1,0.2-0.2,0.3-0.3c0.2-0.3,0.5-0.6,0.7-0.9c0.3-0.4,0.7-0.9,1-1.3   c0.3-0.4,0.6-0.9,1-1.3c0.3-0.5,0.7-0.9,1-1.4c0.3-0.4,0.6-0.9,0.9-1.3c0.4-0.5,0.7-1,1.1-1.5c0.3-0.4,0.6-0.8,0.9-1.3   c0.4-0.5,0.7-1.1,1.1-1.6c0.3-0.4,0.5-0.8,0.8-1.2c0.4-0.6,0.8-1.1,1.1-1.7c0.3-0.4,0.5-0.8,0.8-1.2c0.4-0.6,0.8-1.2,1.2-1.9   c0.2-0.4,0.5-0.7,0.7-1.1c0.4-0.7,0.8-1.3,1.3-2c0.2-0.3,0.4-0.6,0.6-0.9c0.4-0.7,0.9-1.5,1.3-2.2c0.1-0.2,0.3-0.5,0.4-0.7   c0.5-0.8,1-1.6,1.4-2.5c0.1-0.2,0.2-0.3,0.3-0.5c0.7-1.2,1.4-2.5,2.1-3.8c0.2-0.3,0.3-0.6,0.5-0.9c0.7-1.2,1.3-2.5,2-3.8   c0.1-0.2,0.2-0.4,0.3-0.5c0.6-1.2,1.2-2.4,1.8-3.6c0.1-0.2,0.2-0.4,0.3-0.6c0.7-1.3,1.3-2.7,1.9-4c0.1-0.1,0.1-0.3,0.2-0.4   c1.3-2.8,2.5-5.6,3.7-8.4c0,0,0-0.1,0.1-0.1c0.5-1.3,1-2.5,1.5-3.8c0.1-0.3,0.2-0.5,0.3-0.8c0.5-1.2,0.9-2.5,1.3-3.7   c0-0.1,0-0.1,0.1-0.2c0.3-0.7,0.5-1.5,0.7-2.2c0-0.1,0.1-0.2,0.1-0.3c0.2-0.6,0.4-1.3,0.6-1.9c0.1-0.3,0.2-0.5,0.2-0.8   c0.1-0.5,0.3-1,0.4-1.4c0.2-0.8,0.4-1.5,0.6-2.3c0,0,0,0,0,0c0.2-1,0.5-1.9,0.7-2.8c0,0,0,0,0,0c0.2-0.9,0.4-1.8,0.6-2.7   c0,0,0,0,0,0c0.2-0.9,0.3-1.8,0.4-2.7v0c0,0,0,0,0,0c0,0,0,0,0,0c0-0.2,0.1-0.4,0.1-0.6c0-0.1,0-0.1,0-0.2c0.1-0.5,0.1-0.9,0.2-1.4   c0-0.1,0-0.2,0-0.3c0-0.4,0.1-0.7,0.1-1.1c0,0,0,0,0,0c0-0.3,0.1-0.6,0.1-0.8c0,0,0,0,0,0h0c0.1-0.8,0.1-1.6,0.1-2.4   c0,0,0-0.1,0-0.1c0-0.8,0-1.6-0.1-2.3c0-0.1,0-0.2,0-0.3c-0.1-0.9-0.1-1.8,0-2.7c0-1.4,0.2-2.7,0.4-4c0.2-1.3,0.5-2.6,0.9-3.8   c0.8-2.5,1.9-4.8,3.3-7c0.9-1.4,2-2.8,3.2-4c0.5-0.5,1-1,1.5-1.5c0.2-0.2,0.4-0.3,0.5-0.4c0.4-0.3,0.7-0.6,1.1-0.9   c0.2-0.2,0.4-0.3,0.7-0.5c0.4-0.3,0.7-0.5,1.1-0.7c0.2-0.2,0.5-0.3,0.7-0.5c0.4-0.2,0.7-0.4,1.1-0.6c0.3-0.1,0.5-0.3,0.8-0.4   c0.4-0.2,0.8-0.4,1.2-0.6c0.3-0.1,0.5-0.2,0.8-0.3c0.5-0.2,0.9-0.3,1.4-0.5c0.2-0.1,0.4-0.2,0.7-0.2c0.7-0.2,1.5-0.4,2.2-0.6   c0.7-0.2,1.5-0.3,2.3-0.4c3-0.4,5.9-0.7,8.8-0.8c1-0.1,1.9-0.1,2.8-0.1c0.8,0,1.5-0.1,2.2-0.1c0.7,0,1.5,0,2.2,0   c1.5,0,2.9,0,4.3,0.1c0.7,0,1.4,0.1,2.1,0.1c1.4,0.1,2.7,0.2,4,0.3c0.6,0.1,1.3,0.1,1.9,0.2s1.2,0.2,1.8,0.3   c0.6,0.1,1.2,0.2,1.8,0.3c1.6,0.3,3.1,0.7,4.5,1.1c4.2,1.3,7.4,3.1,9.4,5.4c0.5,0.6,0.9,1.1,1.2,1.8c0.2,0.3,0.3,0.6,0.4,1   c0.2,0.7,0.4,1.3,0.4,2c0,0.4,0,0.7,0,1.1c-0.3,8.1-2.9,14.1-6.3,19.1c-0.8,1.2-1.6,2.2-2.5,3.3s-1.8,2.1-2.7,3   c-0.9,1-1.8,1.9-2.7,2.9c-0.6,0.6-1.2,1.2-1.8,1.9c-0.6,0.6-1.2,1.2-1.7,1.8c-0.3,0.3-0.6,0.6-0.8,0.9c-0.5,0.6-1.1,1.2-1.6,1.8   c-0.7,0.9-1.4,1.9-2.1,2.8c-0.4,0.6-0.8,1.3-1.1,2c-0.3,0.6-0.5,1.2-0.8,1.8c0,0.1-0.1,0.2-0.2,0.4c-0.1,0.4-0.3,0.8-0.4,1.2   c-0.1,0.4-0.3,0.7-0.4,1.1c-0.5,1.6-0.8,3.2-1,4.9c0,0,0,0,0,0.1c-0.1,0.6-0.2,1.2-0.2,1.8c0,0.3-0.1,0.5-0.1,0.8   c-0.1,0.8-0.1,1.6-0.2,2.5c0,0,0,0.1,0,0.1c0,0.9-0.1,1.7-0.1,2.6c0,0,0,0,0,0c0.9-2.6,2.2-5,3.8-7.3c8.5-12.1,22.1-19.4,31.7-30.5   C512.3,258.3,515.2,253.3,514.1,247.4z M396.8,354.1c-0.2,0-0.4,0-0.6,0.1c-0.3,0-0.6,0.1-0.9,0.1c0,0,0,0,0,0   c-0.2,0-0.5,0.1-0.7,0.2c-0.3,0.1-0.6,0.1-0.9,0.2c-0.3,0.1-0.6,0.2-0.9,0.3c0,0,0,0-0.1,0c-1,0.4-2.1,0.8-3.2,1.4   c-0.1,0-0.2,0.1-0.2,0.1c-0.5,0.3-1.1,0.6-1.6,0.9c-0.5,0.3-1.1,0.7-1.7,1.1c-0.1,0.1-0.2,0.2-0.4,0.2c-0.2,0.1-0.3,0.2-0.5,0.4   c-0.4,0.3-0.8,0.6-1.2,0.9c0,0,0,0,0,0c-0.6,0.4-1.1,0.9-1.7,1.4c-0.1,0.1-0.3,0.2-0.4,0.4c-0.6,0.5-1.1,1-1.7,1.6   c-0.2,0.2-1.2,1.1-2.7,2.5c-0.5,0.5-1,1-1.7,1.5c-0.3,0.3-0.6,0.6-1,0.9c-0.7,0.6-1.4,1.3-2.1,2c-1.1,1.1-2.4,2.2-3.7,3.5   c-0.9,0.8-1.8,1.7-2.8,2.6h0c-5,1.2-11.4,2.2-19,2c-20-0.6-47.8,7.8-65.6,25.6c-11.2,11.2-18.2,19.7-25.1,26.3   c-2.2,2.1-4.5,4.1-6.9,5.8c-1.5,1.1-3,2.1-4.7,3.1h0h0c-0.6,0.3-1.1,0.7-1.7,1c-1.4,0.8-3.3,1.9-5.6,3.4   c-13.9,9.4-40.9,32.7-50.4,66.6c0.7,0.3,1.3,0.5,1.9,0.9c0.9,0.5,1.6,0.9,2.4,1.3c0.7,0.4,1.4,0.9,2,1.3c5.6,3.8,6.4,6.7,6.4,6.7   l-1.5,4.3l-0.2,2.1c0,0.3,0,0.6,0,0.9c0,0.3,0.1,0.6,0.1,0.9c0,0.1,0,0.1,0,0.2c0.1,0.3,0.1,0.5,0.2,0.8c0,0,0,0,0,0   c0,0,0,0.1,0,0.1c0.1,0.2,0.2,0.4,0.3,0.6c0.1,0.2,0.3,0.5,0.4,0.7c0,0,0,0.1,0.1,0.1c0.3,0.5,0.8,0.9,1.3,1.3   c0.2,0.2,0.5,0.4,0.8,0.5l3.3,1.9l0.2,0.1h0l4.3,2.4c0,0,0,0,0,0c0,0,0,0,0,0c0,0,0.1-0.1,0.1-0.2c0,0,0,0,0,0   c0.1-0.1,0.1-0.2,0.2-0.3c0,0,0,0,0,0c0.1-0.1,0.2-0.3,0.3-0.4c0,0,0,0,0-0.1c0.1-0.2,0.2-0.3,0.3-0.5c0,0,0,0,0-0.1   c0.1-0.2,0.2-0.4,0.3-0.6c0,0,0,0,0,0c0.1-0.2,0.3-0.5,0.4-0.7c0,0,0,0,0,0c0.1-0.2,0.3-0.5,0.4-0.8c0,0,0,0,0,0   c-0.9-0.1-1.8-0.3-2.6-0.6c-0.8-0.3-1.5-0.6-2.2-0.9c0,0-0.1,0-0.1-0.1c-0.1,0-0.1-0.1-0.2-0.1c-1.8-1-3.3-2.3-4.2-3.9   c-0.4-0.8-0.7-1.6-0.8-2.4c0-0.3-0.1-0.7-0.1-1c0.3,0,0.6,0,0.9,0c0,0,0.1,0,0.1,0c0.2,0,0.5,0,0.7,0c0.1,0,0.2,0,0.3,0   c0.2,0,0.4,0,0.7,0c0.1,0,0.2,0,0.3,0c0.3,0,0.6,0,0.9,0c0,0,0.1,0,0.1,0c0.3,0,0.7,0,1,0c0.1,0,0.2,0,0.3,0c0.2,0,0.5,0,0.7,0   c0.1,0,0.2,0,0.3,0c0.2,0,0.5,0,0.7,0c0.1,0,0.1,0,0.2,0c0,0,0.1,0,0.1,0c0.3,0,0.6,0.1,0.9,0.1c0-0.8-0.1-1.7-0.4-2.5h0h0   c0.6-2.3,1.4-4.7,2.2-7.4c0.3-0.9,0.6-1.8,0.8-2.7c0.3-0.9,0.6-1.9,0.9-2.9c0.3-1,0.7-1.9,1-2.9c0.5-1.5,1.1-3,1.6-4.5   c0.2-0.5,0.4-1,0.6-1.5c0.4-1,0.8-2,1.2-3c1.6-4,3.3-7.9,5.2-11.7c0.6-1.3,1.3-2.5,1.9-3.7c0.9-1.6,1.8-3.2,2.7-4.7   c0.5-0.9,1.1-1.7,1.6-2.5c0.8-1.2,1.7-2.4,2.6-3.5c0.6-0.7,1.2-1.4,1.8-2.1c1.8-2,3.7-3.7,5.7-5.1c0.5-0.4,1.1-0.8,1.7-1.2   c0.2-0.1,0.4-0.3,0.6-0.5c0.4-0.3,0.7-0.5,1.1-0.8c0.3-0.2,0.5-0.4,0.8-0.6c0.3-0.3,0.7-0.5,1-0.8c0.3-0.2,0.6-0.5,0.9-0.7   c0.3-0.2,0.5-0.4,0.8-0.6c0.1,0,0.1-0.1,0.2-0.1c1.8-1.5,3.7-3.1,5.7-4.8c0.2-0.2,0.4-0.3,0.6-0.5c0,0,0,0,0,0c0,0,0.1,0,0.1-0.1   c0.1,0,0.1-0.1,0.2-0.1c0,0,0,0,0,0c0.5-0.5,1.1-0.9,1.6-1.4c0.1-0.1,0.2-0.1,0.2-0.2c0.1-0.1,0.1-0.1,0.2-0.2   c0.4-0.3,0.7-0.6,1.1-0.9h0c0.6-0.5,1.2-1,1.8-1.6c0.9-0.8,1.7-1.6,2.6-2.4l0,0c0.3-0.3,0.6-0.5,0.8-0.8c0.5-0.4,0.9-0.9,1.4-1.3   c1.4-1.3,2.8-2.5,4.2-3.8c7.1-6.4,14.5-13.2,22-19.3c0.1-0.1,0.2-0.2,0.3-0.3c0.7-0.5,1.3-1.1,2-1.6c0.2-0.2,0.4-0.3,0.6-0.5   c0.6-0.5,1.2-0.9,1.7-1.4c0.2-0.2,0.5-0.4,0.7-0.6c0.5-0.4,1.1-0.8,1.6-1.2c0.3-0.2,0.5-0.4,0.8-0.6c0.5-0.4,1-0.8,1.5-1.1   c0.3-0.2,0.6-0.4,0.8-0.6c0.5-0.3,0.9-0.7,1.4-1c0.3-0.2,0.6-0.4,0.9-0.6c0.5-0.3,0.9-0.6,1.4-1c0.3-0.2,0.6-0.4,0.9-0.6   c0.4-0.3,0.9-0.6,1.3-0.9c0.3-0.2,0.6-0.4,0.9-0.6c0.4-0.3,0.9-0.6,1.3-0.8c0.3-0.2,0.6-0.4,0.9-0.6c0.4-0.3,0.8-0.5,1.3-0.8   c0.3-0.2,0.6-0.4,0.9-0.6c0.4-0.2,0.8-0.5,1.2-0.7c0.3-0.2,0.6-0.3,0.9-0.5c0.4-0.2,0.8-0.4,1.2-0.6c0.3-0.2,0.6-0.3,0.9-0.5   c0.4-0.2,0.8-0.4,1.2-0.6c0.3-0.1,0.6-0.3,0.9-0.4c0.4-0.2,0.8-0.3,1.2-0.5c0.3-0.1,0.6-0.2,0.9-0.4c0.4-0.2,0.8-0.3,1.2-0.5   c0.3-0.1,0.5-0.2,0.8-0.3c0.4-0.2,0.9-0.3,1.3-0.4c0.2-0.1,0.4-0.1,0.7-0.2c0.6-0.2,1.3-0.3,1.9-0.5c1-0.2,2.1-0.4,3.1-0.6   c0.1,0,0.2,0,0.3-0.1c1-0.2,2.1-0.3,3.2-0.4c0.2,0,0.3,0,0.5-0.1c1.1-0.1,2.1-0.2,3.2-0.3c0.2,0,0.4,0,0.6,0   c1.1-0.1,2.2-0.1,3.3-0.2c0.2,0,0.4,0,0.6,0c1.1,0,2.3-0.1,3.4-0.1c0.2,0,0.3,0,0.5,0c0.2,0,0.4,0,0.7,0c-1,1-2,2-3,2.9   c-0.5,0.5-1,1-1.6,1.5c-0.8,0.8-1.6,1.6-2.3,2.3c-0.8,0.8-1.5,1.5-2.3,2.3c-1,1-2,2-3,3c-0.5,0.5-1,1-1.5,1.6c-0.5,0.5-1,1-1.5,1.5   c-0.5,0.5-1,1.1-1.5,1.6c-0.7,0.7-1.4,1.4-2,2.1c-0.7,0.8-1.5,1.5-2.2,2.3c-0.8,0.9-1.6,1.7-2.4,2.6c-0.4,0.5-0.8,0.9-1.2,1.4   c-0.4-0.1-0.8-0.1-1.2-0.2c-2.6-0.2-4.3,0.8-5.3,2.3c0.2,0.1,0.5,0.3,0.7,0.5c0.1,0.1,0.2,0.1,0.2,0.2c0.2,0.1,0.3,0.2,0.5,0.4   c0.1,0.1,0.2,0.1,0.3,0.2c0.2,0.1,0.4,0.3,0.5,0.4c0.1,0.1,0.1,0.1,0.2,0.2c0.1,0.1,0.3,0.2,0.4,0.3c0.1,0.1,0.2,0.2,0.3,0.3   c0,0,0.1,0,0.1,0.1c0.2,0.2,0.4,0.3,0.6,0.5c0.1,0.1,0.1,0.1,0.2,0.2c0.2,0.1,0.3,0.3,0.5,0.4c0.1,0.1,0.1,0.1,0.2,0.2   c0.2,0.1,0.4,0.3,0.5,0.4c0,0,0.1,0.1,0.1,0.1c0.2,0.2,0.4,0.4,0.6,0.5c-0.2,0.3-0.4,0.5-0.6,0.7c-0.5,0.5-1.2,0.9-1.9,1.3   c-1.4,0.6-3.1,0.7-4.8,0.4c-0.2,0-0.3,0-0.5-0.1c-0.1,0-0.1,0-0.2,0c-0.8-0.1-1.5-0.3-2.3-0.6c-0.8-0.3-1.5-0.6-2.2-1.1   c0,0,0,0,0,0c-0.1,0.3-0.1,0.5-0.1,0.8c0,0,0,0,0,0c0,0.2-0.1,0.5-0.1,0.7c0,0,0,0,0,0c0,0.2-0.1,0.4-0.1,0.6c0,0,0,0,0,0.1   c0,0.2-0.1,0.4-0.1,0.5c0,0,0,0,0,0.1c0,0.2,0,0.3-0.1,0.4c0,0,0,0,0,0c0,0.1,0,0.2,0,0.3c0,0,0,0,0,0c0,0.1,0,0.2,0,0.2   c0,0,0,0,0,0c0,0,0,0,0,0l3.7,0.6h0l1,0.1l3.4,0.5c0.3,0,0.6,0.1,0.9,0.1c0.6,0,1.1-0.1,1.7-0.2c0,0,0.1,0,0.1,0   c0.2-0.1,0.5-0.2,0.7-0.3c0.3-0.1,0.6-0.3,0.9-0.5c0,0,0,0,0,0c0,0,0,0,0,0c0.1,0,0.1-0.1,0.2-0.1c0,0,0.1,0,0.1-0.1   c0.3-0.2,0.6-0.5,0.8-0.8c0.2-0.2,0.4-0.4,0.5-0.7l1-1.6l1.4-3.9c0,0,2.2-1.6,8.4-1.1c0.7,0,1.4,0.1,2.1,0.2c0.5-0.5,1-1.1,1.5-1.6   c7.9-9,16.1-17.8,24.1-26.7c0,0,0,0,0,0c4.2-4.6,8.3-9.2,12.4-13.8c2.8-3.2,5.5-6.7,8.5-10.2c7.1-8.5,15.1-16.7,26.2-18.3   C402.7,354.5,400,353.8,396.8,354.1z M318.3,436.7c-0.7,0.2-1.5,0.8-1.8,2.1c-0.5,2,0.4,3,1.1,3.5c0.5,0.3,1,0.4,1,0.4   s-0.4-0.2-0.8-0.6c-0.5-0.6-1-1.6-0.3-3.1c0.5-1,1.1-1.5,1.6-1.7c0.8-0.4,1.5-0.3,1.5-0.3S319.5,436.4,318.3,436.7z M334,490.9   c-2.8-4.3-2.6-12.6-2.6-12.6l-19.1-16.2c0,0-4.9,4.5-13.8-1.1c-4.8-3.1-9.7-8.7-13.1-13.2c0,0,0,0,0,0c-0.2,0.1-0.5,0.3-0.7,0.4   c0,0,0,0,0,0c-0.5,0.3-1.1,0.6-1.6,0.9c0,0,0,0,0,0c-0.3,0.1-0.5,0.3-0.8,0.4c0,0,0,0,0,0c-0.5,0.3-1.1,0.6-1.6,0.9   c0,0-0.1,0-0.1,0c-0.5,0.3-1,0.6-1.5,0.8c0,0,0,0,0,0c0,0-0.1,0.1-0.1,0.1h0c2.9,3.6,12.6,15.7,16.1,19.1c2.4,2.3,5.1,3.3,6.9,3.8   c1.7,0.4,3.3,1.2,4.6,2.3l9.9,8c1.8,1.4,3,3.3,3.7,5.5c0.8,2.5,2.4,6,5.6,8.3c4.7,3.3,17.9,9.6,22.2,11.9l4.5-8.3   C347.7,499.8,336.3,494.3,334,490.9z M315,493.2c-17.3-13.4-33-30.9-39.3-40c-0.3-0.4-0.5-0.7-0.7-1.1l-6,3.3c0,0,0.4,0.5,1.1,1.3   c0.1,0.2,0.3,0.3,0.5,0.5c0.8,1,1.9,2.3,3.3,3.9c1.3,1.6,2.9,3.4,4.7,5.4c2.2-0.4,4.5,1.2,5.7,3.3c0.4,0.6,0.6,1.3,0.8,2   s0.2,1.4,0,2c1.5,1.7,3.1,3.4,4.7,5.1c1.6,1.7,3.2,3.4,4.9,5.1c0.1,0,0.3-0.1,0.5-0.1c3.8-0.1,6.9,3.1,6.6,6.9   c2.8,2.6,5.4,4.9,7.9,6.7c1.1,0.9,2.3,1.7,3.5,2.5c0.1-0.1,0.2-0.1,0.3-0.2c0.5-0.2,0.9-0.3,1.4-0.4c0.2,0,0.5,0,0.8,0   c0.3,0,0.5,0,0.8,0.1c0.3,0,0.5,0.1,0.7,0.2c0.5,0.2,1,0.4,1.4,0.6c0.2,0.1,0.4,0.3,0.6,0.4c1.3,1.1,1.7,2.5,1.3,4   c3.4,2,6.8,3.9,10,5.5c1.1,0.5,2.1,1.1,3.1,1.5c0.3-0.1,0.6-0.2,0.9-0.3c0.3-0.1,0.6-0.2,0.9-0.2c0.3,0,0.6-0.1,0.9,0   c0.3,0,0.6,0.1,0.9,0.1c0.5,0.1,0.9,0.3,1.2,0.5c0.4,0.2,0.7,0.5,1,0.8c0.4,0.5,0.7,1,0.9,1.7c0.1,0.2,0.1,0.4,0.1,0.6   c0.5,0.2,0.9,0.4,1.3,0.6c2.9,1.3,4.7,2,4.7,2l2.3-4.8c-0.4-0.2-1-0.4-1.6-0.6C341.6,510.1,329.8,504.7,315,493.2z M222.3,573.2   c-11.6,3.4-36.9,7.8-60.7,7.6c-20.5-0.2-34.2-3.5-40.2-5.3c-0.7-0.2-1.3-0.4-1.8-0.6l-1.3,5.7c0,0,0.7,0.2,1.8,0.5   c0.3,0.1,0.6,0.2,1,0.3c1.1,0.3,2.4,0.7,4,1.1h0c0.3-0.2,0.5-0.5,0.8-0.6s0.6-0.3,0.9-0.4c0.4-0.1,0.9-0.2,1.3-0.3   c0.7,0,1.4,0.1,2.1,0.4c1.3,0.6,2.2,1.6,2.8,2.8c4.7,1,10.2,2,15.9,2.8c0.3-0.7,0.8-1.4,1.4-1.8c0.3-0.2,0.7-0.4,1.1-0.5   s0.8-0.2,1.3-0.2c1.1,0,2.2,0.3,3.2,0.8c0.5,0.3,0.9,0.6,1.3,1c0.4,0.4,0.7,0.8,1,1.3c0.1,0.1,0.1,0.3,0.1,0.4   c1.6,0.1,3.1,0.2,4.7,0.2c3.3,0.1,7.2-0.1,11.3-0.4c0.9-1.3,2.1-2.2,3.4-2.7c0.4-0.2,0.9-0.3,1.4-0.3c0.9-0.1,1.9-0.1,2.9,0.2   c0.9,0.3,1.8,0.7,2.7,1.4c0.1,0.1,0.3,0.2,0.3,0.4c5.1-0.6,10.2-1.4,15.1-2.2c1.7-3.5,8-4.8,10.5-1.8c9.1-1.7,15.6-3.1,15.6-3.1   l-2.9-6.9C223.2,573,222.8,573.1,222.3,573.2z M315.3,457.9l18,14.4c0,0,0.6-0.3,1.5-0.8c-4.8-4-14.3-11.8-18.6-14.7   C315.7,457.5,315.3,457.9,315.3,457.9z M345.6,468.1c2.7-1.5,0.5-4,0.5-4s0.8,1.4-1,3.1c-1.8,1.7-3.4,0-3.4,0   S343,469.6,345.6,468.1z M339.7,474c-1.9,1.6-3.3-0.2-3.3-0.2s1,2.4,3.7,1.1c2.7-1.3,0.8-3.9,0.8-3.9S341.6,472.5,339.7,474z    M341.8,466.3c-1.5-1.1-4.1-3.1-7.1-5.2c-2.5-1.8-5.4-3.8-7.9-5.6c-1.3-0.9-2.5-1.7-3.6-2.5c-1.5-1-2.7-1.7-3.6-2.2   c-0.3,0.8-0.7,1.6-1,2.3c2.3,1.4,5.8,4,9.3,6.7c1.5,1.2,3,2.4,4.4,3.5c0.9,0.8,1.8,1.5,2.7,2.2c1.7,1.4,3,2.6,3.9,3.5   c0.4-0.3,0.8-0.6,1.3-1c0.6-0.5,1.3-1.1,1.9-1.7C341.9,466.3,341.9,466.3,341.8,466.3z" fill="#000000" originalFill="#000000"/>
</g>
</svg>