<?xml version="1.0" encoding="UTF-8"?>
<svg viewBox="0 0 360 360" xmlns="http://www.w3.org/2000/svg">
 <defs>
  <radialGradient id="d" cx="493.76" cy="469.33" r="158.23" gradientTransform="matrix(.40336 -.85831 1.3361 .62788 -577.32 1114.6)" gradientUnits="userSpaceOnUse">
   <stop stop-color="#a9e97c" offset="0"/>
   <stop stop-color="#67da57" offset=".5362"/>
   <stop stop-color="#0ecc00" offset="1"/>
  </radialGradient>
  <radialGradient id="c" cx="458.17" cy="416.92" r="160.63" gradientTransform="matrix(.61282 -.79022 .9232 .71595 -479.29 1003.5)" gradientUnits="userSpaceOnUse">
   <stop stop-color="#afe9af" offset="0"/>
   <stop stop-color="#0a0" offset="1"/>
  </radialGradient>
  <radialGradient id="b" cx="524.86" cy="495.38" r="160.63" gradientTransform="matrix(.26731 -.81901 1.1106 .36249 -390.79 1193.7)" gradientUnits="userSpaceOnUse">
   <stop stop-color="#37c837" offset="0"/>
   <stop stop-color="#0a0" offset="1"/>
  </radialGradient>
  <radialGradient id="a" cx="503.82" cy="477.55" r="158.23" gradientTransform="matrix(.44671 -.83657 .86109 .45981 -372.33 1183.9)" gradientUnits="userSpaceOnUse">
   <stop stop-color="#a9e97c" offset="0"/>
   <stop stop-color="#67da57" offset=".7101"/>
   <stop stop-color="#0caf00" offset="1"/>
  </radialGradient>
 </defs>
 <g transform="translate(0 -692.36)">
  <path d="m215.47775,732.25166c-2.45797-.2489-4.45659-.48569-9.875-.75-30.86347-1.50554-24.07046-14.29981-47.40625-.75s-15.07322,11.27571-37.65625,12.78125-6.77341-21.82034-42.90625,14.3125-39.125,30.10366-39.125,44.40625-3.02295,12.78839-5.28125,27.84375-6.03678,10.5384-4.53125,25.59375 3.0166,7.53921-1.5,30.875-7.51384,6.78644-3.75,30.875 15.03759,27.8509 21.8125,42.90625 9.79116,27.08902 24.09375,36.875 16.56411,14.31809 33.125,12.81259 15.82876-3.7924 36.90625-.7813 43.63491,9.0625 57.9375,9.0625 27.11751.7437 37.65625-6.0312c10.53875-6.775 23.31608-18.8134 30.84375-27.09384 9.31195-6.11097 14.81219-10.3261 19.375-14.0625 .23506-.93029.38576-1.88698.3125-2.84375-.0878-1.14604-.35948-2.29411-.75-3.40625s-.8964-2.18764-1.4375-3.1875-1.11677-1.90953-1.65625-2.71875c-.30235-.45352-.79055-.78953-1.25-1.125s-.89014-.67041-1.0625-1.1875c-.27007-.8102-.32594-1.64823-.21875-2.46875s.38072-1.62153.75-2.4375c.73856-1.63195 1.87279-3.25667 2.96875-4.78125s2.15543-2.9517 2.6875-4.25c.26604-.64915.39143-1.27346.34375-1.84375s-.27345-1.08595-.75-1.5625c-.27253-.27253-.88372.27253-1.15625,0-.63125-.63125-.9698-1.06896-1.125-1.40625s-.13302-.59517-.0625-.84375 .20407-.47862.25-.84375 .0102-.84433-.21875-1.53125c-.17237-.51709-.68552-.8396-1.1875-1.15625s-.9928-.62747-1.125-1.15625c-.28043-1.12172.19009-2.32823 0-3.46875l-1.15625-3.46875c-.38542-.38542-.98389-.63916-1.15625-1.15625-.27461-.82382-.43685-1.6786-.53125-2.5625s-.12808-1.79195-.0937-2.71875c.0687-1.85361.35039-3.79649.625-5.71875s.55635-3.83389.625-5.6875c.0343-.9268.00065-1.83485-.0937-2.71875s-.25664-1.73868-.53125-2.5625c-.58989-1.76968-1.47537-3.54331-2.34375-5.28125s-1.71966-3.44022-2.28125-5.125c-.17446-.52338-.15741-1.41426-.0625-2.46875s.26054-2.28763.40625-3.5 .27205-2.40925.25-3.40625-.18537-1.77911-.59375-2.1875c-.27253-.27253-.88372.27253-1.15625,0-.34249-.34249-.49189-1.21145-.53125-2.34375s.0195-2.53272.125-3.9375c.21102-2.80955.56535-5.642.40625-6.4375-.16901-.84507-.94723-1.47641-1.15625-2.3125-.14022-.56086.01-1.20579.125-1.8125s.19569-1.17522-.125-1.65625c-.8836-1.32539-1.82461-2.53526-2.65625-3.8125s-1.5539-2.62188-1.96875-4.28125c-.16588-.66354-2.01678-7.79803-2.3125-8.09375-.47252-.47252-.97901-.69325-1.5-.78125s-1.05034-.0608-1.625,0-1.17898.15113-1.8125.125-1.30243-.15121-2-.5c-.38541-.1927-.49068-.65481-.59375-1.125s-.20397-.94847-.5625-1.1875c-.73843-.49229-1.39849-1.04618-1.96875-1.625s-1.06658-1.19175-1.5-1.84375c-.86684-1.304-1.49259-2.73345-2-4.25-1.01483-3.03311-1.5443-6.38289-2.625-9.625-.35134-1.05401-.33783-2.49756-.25-3.96875s.25-2.97003.25-4.125c0-4.32029.43386-10.93059.65625-17.34375 .11119-3.20658.17715-6.35417.0937-9.15625s-.30523-5.25215-.75-7.03125c-.0661-.26439-.35246-.43892-.625-.59375s-.53125-.28997-.53125-.5625c0-.82345.73589-3.25905 1.25-5.71875 .25706-1.22985.44475-2.49154.46875-3.53125s-.1124-1.8624-.5625-2.3125c-.64172-.64172-1.34833-1.14228-2.09375-1.5625s-1.54161-.75645-2.34375-1.125-1.6256-.76329-2.4375-1.25-1.60031-1.06906-2.375-1.84375c-1.14736-1.14736-2.43869-2.78805-3.65625-4.46875s-2.36137-3.40143-3.28125-4.78125c-.21379-.32068-.0903-.75768.0312-1.1875s.24128-.85247-.0312-1.125c-.13626-.13626-.39155-.0459-.625.0312s-.44506.14111-.53125-.0312c-.17236-.34472-.0862-.75049 0-1.15625s.17237-.81152 0-1.15625c-.0862-.17236-.28066-.16809-.5-.125s-.46355.125-.65625.125l-1.15625-2.3125c-.27253-.54506-.35555-1.22056-.46875-1.84375s-.25659-1.19409-.6875-1.625c-.59671-.5967-1.85584-1.39063-3.0625-2.21875s-2.36086-1.69045-2.71875-2.40625c-.28825-.57649-1.03794-4.50669-1.15625-4.625-.27253-.27253-.69518-.18408-1.125-.0625s-.86681.27629-1.1875.0625c-.58873-.39248-1.18889-1.16461-1.78125-2.09375-.27878-.43728-.54407-.9711-.8125-1.46875z" fill="url(#c)"/>
  <path d="m215.47775,732.25166c.26843.49765.53372,1.03147.8125,1.46875 .59236.92914 1.19252,1.70127 1.78125,2.09375 .32069.21379.75768.0591 1.1875-.0625s.85247-.21003 1.125.0625c.11831.11831.868,4.04851 1.15625,4.625 .35789.7158 1.51209,1.57813 2.71875,2.40625s2.46579,1.62205 3.0625,2.21875c.43091.43091.5743,1.00181.6875,1.625s.19622,1.29869.46875,1.84375l1.15625,2.3125c.1927,0 .43691-.0819.65625-.125s.41382-.0474.5.125c.17237.34473.0862.75049 0,1.15625s-.17236.81153 0,1.15625c.0862.17236.2978.10841.53125.0312s.48874-.16751.625-.0312c.27253.27253.15283.69518.0312,1.125s-.24504.86682-.0312,1.1875c.91988,1.37982 2.06369,3.10055 3.28125,4.78125s2.50889,3.32139 3.65625,4.46875c.77469.77469 1.5631,1.35704 2.375,1.84375s1.63536.88145 2.4375,1.25 1.59833.70478 2.34375,1.125 1.45203.92078 2.09375,1.5625c.4501.4501.5865,1.27279.5625,2.3125s-.21169,2.3014-.46875,3.53125c-.51411,2.4597-1.25,4.8953-1.25,5.71875 0,.27253.25871.40767.53125.5625s.5589.32936.625.59375c.44477,1.7791.6666,4.22917.75,7.03125s.0174,5.94967-.0937,9.15625c-.22239,6.41316-.65625,13.02346-.65625,17.34375 0,1.15497-.16217,2.65381-.25,4.125s-.10134,2.91474.25,3.96875c1.0807,3.24211 1.61017,6.59189 2.625,9.625 .50741,1.51655 1.13316,2.946 2,4.25 .43342.652.92974,1.26493 1.5,1.84375s1.23032,1.13271 1.96875,1.625c.35853.23903.45943.71731.5625,1.1875s.20834.9323.59375,1.125c.69757.34879 1.36648.47387 2,.5s1.23784-.0642 1.8125-.125 1.10401-.088 1.625,0 1.02748.30873 1.5.78125c.29572.29572 2.14662,7.43021 2.3125,8.09375 .41485,1.65937 1.13711,3.00401 1.96875,4.28125s1.77265,2.48711 2.65625,3.8125c.32069.48103.24023,1.04954.125,1.65625s-.26522,1.25164-.125,1.8125c.20902.83609.98724,1.46743 1.15625,2.3125 .1591.7955-.19523,3.62795-.40625,6.4375-.10551,1.40478-.16436,2.8052-.125,3.9375s.18876,2.00126.53125,2.34375c.27253.27253.88372-.27253 1.15625,0 .40838.40839.5717,1.1905.59375,2.1875s-.10429,2.19388-.25,3.40625-.31134,2.44551-.40625,3.5-.11196,1.94537.0625,2.46875c.56159,1.68478 1.41287,3.38706 2.28125,5.125s1.75386,3.51157 2.34375,5.28125c.27461.82382.43685,1.6786.53125,2.5625s.12808,1.79195.0937,2.71875c-.0687,1.85361-.35039,3.76524-.625,5.6875s-.55635,3.86514-.625,5.71875c-.0343.9268-.00065,1.83485.0937,2.71875s.25664,1.73868.53125,2.5625c.17236.51709.77083.77083 1.15625,1.15625l1.15625,3.46875c.19009,1.14052-.28043,2.34703 0,3.46875 .1322.52878.62302.8396 1.125,1.15625s1.01513.63916 1.1875,1.15625c.22897.68692.26468,1.16612.21875,1.53125s-.17948.59517-.25.84375-.0927.50646.0625.84375 .49375.775 1.125,1.40625c.27253.27253.88372-.27253 1.15625,0 .47655.47655.70232.99221.75,1.5625s-.0777,1.1946-.34375,1.84375c-.53207,1.2983-1.59154,2.72542-2.6875,4.25s-2.23019,3.1493-2.96875,4.78125c-.36928.81597-.64281,1.61698-.75,2.4375s-.0513,1.65855.21875,2.46875c.17236.51709.60305.85203 1.0625,1.1875s.94765.67148 1.25,1.125c.53948.80922 1.11515,1.71889 1.65625,2.71875s1.04698,2.07536 1.4375,3.1875 .66224,2.26021.75,3.40625c.0733.95677-.0774,1.91346-.3125,2.84375 7.24047-5.92908 11.46941-10.34774 19.78125-16.8125 13.54982-10.53875 12.03205-8.2801 20.3125-25.59375s9.0459-6.75992 13.5625-21.0625 4.52491-14.32518-2.25-27.875-15.8042-2.26349-18.0625-24.09375 12.02964-12.03287-4.53125-28.59375-10.52375-10.53563-21.0625-26.34375-.01,5.27052-14.3125-17.3125 9.02883-13.55778-15.8125-23.34375-10.54751-1.51545-31.625-14.3125c-17.37711-10.55039-4.17602-12.36241-15.71875-13.53125z" fill="url(#b)"/>
  <path d="m176.25 723.97s-26.347 9.786-28.605 30.863-26.347 21.83-26.347 21.83 18.066-5.2694 21.83-14.303 2.2583-29.358 24.089-38.391c6.0221-2.2583 9.0332 0 9.0332 0z" fill="#d7f4d7"/>
  <path d="m112.27 742.03c-16.561 5.2694-36.886 39.144-37.638 56.458s7.5277 24.089 7.5277 24.089-13.55-20.325 1.5055-42.155 10.522-23.572 33.105-37.122c-0.98887-2.9888-4.4999-1.2694-4.4999-1.2694z" fill="#d7f4d7"/>
  <path d="m110.76 745.8s-18.325 31.819 7.5277 39.897c-1.9811 0.37857-8.4856-1.6452-10.956-4.5942-4.193-5.0047-4.9684-14.029-5.0348-18.951-0.0328-2.4309 1.8925-10.38 2.8251-12.511 1.2972-2.9643 2.0915-0.10692 5.6383-3.8403z" fill="#d7f4d7"/>
  <path d="m214.5715,735.25166c-2.92917,1.92518-5.81774,3.81095-8.21875,4.53125-7.52768,2.2583-24.82795,2.23616-37.625,6s-13.55223,15.81331-24.84375,24.09375-16.56769,6.04312-40.65625,11.3125-15.7884,11.26465-30.84375,15.78125-9.04866,11.29947-12.8125,23.34375 .0103,9.04947-11.28125,21.09375-12.81054,9.03483-21.84375,16.5625-2.26107,14.28563.75,30.09375-.75277,7.52099 0,18.8125 9.79508,9.79474 6.03125,31.625 6.02457,24.07795 24.84375,36.875 18.07323,14.33072 40.65625,26.37504 14.30858,7.5064 32.375,14.2813 38.36555,11.3069 57.9375,12.8125c19.24556,1.4804 37.77873,3.5337 57-22.875-.89269-.5788-1.78437-1.1595-2.53125-1.9063-.4309-.4309-.52014-1.0983-.59375-1.75s-.13159-1.2879-.5625-1.7188c-.13626-.1362-.39155-.046-.625.031s-.44507.1411-.53125-.031c-.17237-.3447-.0862-.75048 0-1.15624s.17236-.81152 0-1.15625c-.24376-.48752-.70001-.82188-1.15625-1.15625s-.9125-.66873-1.15625-1.15625c-.50865-1.0173-1.03846-2.95795-1.3125-4.96875-.13702-1.0054-.20063-2.02596-.1875-2.96875s.11947-1.7959.34375-2.46875c.48425-1.45275.95414-2.45762 1.4375-3.15625s.9867-1.11282 1.46875-1.4375 .95718-.54411 1.4375-.875 .95932-.75148 1.4375-1.46875c0-3.27603-.20443-3.38802-.15625-2.90625 .0241.24088.11377.639.3125.84375 .0994.10238.2429.15361.40625.125s.35287-.13412.59375-.375c.27253-.27253.2236-.67517.125-1.09375s-.24688-.85312-.125-1.21875c.13626-.40879.43251-.78805.6875-1.15625s.46875-.72534.46875-1.15625c0-.19271-.30469-.0963-.59375,0s-.5625.1927-.5625,0c0-.37574.59153-1.51804 1.03125-2.71875 .21986-.60036.3856-1.24147.4375-1.78125s-.0112-.97993-.3125-1.28125c-.13626-.13626-.39155-.0459-.625.0312s-.44507.14111-.53125-.0312c-.34473-.68946-.46274-1.48019-.4375-2.28125s.19374-1.61248.4375-2.34375c.0862-.25855.38873-.43746.65625-.59375s.5-.28997.5-.5625c0-.19271-.23248-.12252-.5-.0312s-.57007.20361-.65625.0312c-.14287-.28573-.23725-1.84025-.25-3.40625s.0561-3.14353.25-3.53125c.38541-.77083.54686-1.70311 1.15625-2.3125 .13626-.13626.4325-.051.6875.0312s.46875.16145.46875-.0312c0-.24184-.56605-.83816-1-1.5-.21698-.33092-.41468-.68951-.46875-1.03125s.0227-.64772.3125-.9375c.13626-.13626.39155-.0459.625.0312s.44507.14111.53125-.0312c.17236-.34472.10481-.75572.0312-1.15625s-.15313-.79062-.0312-1.15625c.23476-.70427.82432-1.40379 1.34375-2.15625 .25972-.37623.47614-.77856.65625-1.1875s.3125-.82582.3125-1.28125c0-.1927-.21375-.14474-.46875-.0625s-.55124.19876-.6875.0625c-.326-.326-.42227-.65032-.375-.96875s.24272-.63972.46875-.9375c.45206-.59556 1.0625-1.128 1.0625-1.5625 0-1.20159-.033-1.51314-.1875-1.65625s-.43033-.1178-.96875-.65625c-.2044-.2044-.30543-.74073-.34375-1.4375s-.0199-1.55715.0312-2.4375c.1022-1.76069.3125-3.57659.3125-4.21875 0-.42104.16249-1.98965.25-3.53125s.10003-3.05622-.25-3.40625c-.13626-.13626-.39155-.0459-.625.0312s-.44507.14111-.53125-.0312c-.30415-.60829-.80761-2.30892-1.125-4.15625-.1587-.92366-.25951-1.8917-.28125-2.78125s.0413-1.68631.25-2.3125c.57995-1.73986 1.3663-3.31509 2.1875-4.8125s1.67726-2.91702 2.4375-4.4375c.26454-.52909.0705-1.51159-.0937-2.4375-.0821-.46295-.15169-.89355-.15625-1.28125-.005-.3877.0539-.71012.25-.90625 .27253-.27253.88372.27253 1.15625,0s.13627-.71439 0-1.15625-.27253-.88372 0-1.15625c.15854-.15854.74276-.43622 1.28125-.8125 .26924-.18814.52673-.4034.71875-.65625s.3125-.51934.3125-.84375c0-.1927-.23248-.12252-.5-.0312s-.57007.20362-.65625.0312c-.30833-.61667-.48776-1.31341-.59375-2.03125s-.13229-1.4599-.0937-2.25c.0771-1.5802.37917-3.27292.6875-4.96875s.61042-3.38855.6875-4.96875c.0385-.7901.0122-1.56341-.0937-2.28125s-.28542-1.38333-.59375-2l-2.3125-4.625c-.14487-.28974-.3065-7.51627-.34375-14.8125s.0499-14.66224.34375-15.25c.12187-.24375.39766-.40251.65625-.5625s.5-.32122.5-.59375c0-.19271-.21376-.14474-.46875-.0625s-.55123.19876-.6875.0625c-.43359-.43359-.5542-1.20362-.5-2.125s.2832-2.00977.5-3.09375 .4458-2.17237.5-3.09375-.0664-1.66016-.5-2.09375c-.27253-.27253-.88372.27253-1.15625,0-.43257-.43257-.57491-1.33855-.6875-2.25s-.19545-1.8284-.46875-2.375c-.0862-.17237-.34778-.0862-.59375,0s-.47632.17237-.5625,0c-.24626-.49252-.32095-1.42158-.4375-2.34375s-.27496-1.83747-.71875-2.28125c-.32148-.32148-1.00083-.78848-1.6875-1.375s-1.38065-1.29256-1.78125-2.09375c-.36687-.73375-.37297-2.07931-.28125-3.4375s.28125-2.72904.28125-3.5-.0965-1.37916-.25-1.875-.3553-.87073-.59375-1.25c-.47689-.75855-1.06383-1.44151-1.46875-2.65625-.15837-.4751-.1967-1.05706-.15625-1.65625s.15429-1.23882.25-1.875 .18009-1.25766.1875-1.84375-.0568-1.1136-.28125-1.5625c-.19358-.38716-.47526-.70361-.78125-.9375s-.62795-.38338-.96875-.53125c-.6816-.29575-1.36356-.48856-1.71875-.84375-.27253-.27253-.17372-.70119-.0625-1.125s.23487-.84277.0625-1.1875c-.1826-.3652-2.23672-3.39297-2.3125-3.46875-.59808-.59808-.89028-.68665-1.03125-.53125s-.13583.53801-.125.84375 .0177.55331-.125.40625-.42975-.67199-1.03125-1.875c-.48068-.96137-.9759-2.32264-1.53125-3.625s-1.17084-2.54584-1.9375-3.3125c-.75801-.75801-2.88947-1.73322-3.46875-2.3125-.28906-.28906-.14453-1.02735 0-1.75s.28906-1.42969 0-1.71875c-.13626-.13626-.39155-.0459-.625.0312s-.44507.14112-.53125-.0312c-.25855-.51709-.0418-1.17679.125-1.8125 .0834-.31786.15418-.65478.15625-.9375s-.0768-.51435-.28125-.71875c-.27253-.27253-.88372.27253-1.15625,0-.19764-.19764-.33626-.64864-.40625-1.28125s-.084-1.45661-.0625-2.40625c.0431-1.89928.24492-4.32151.4375-6.78125s.3843-4.95457.4375-7.03125-.0312-3.71867-.40625-4.46875c-.45862-.91725-2.25025-2.18799-2.3125-2.3125-.17237-.34472-.0862-.75049 0-1.15625s.17237-.81153 0-1.15625c-.0862-.17236-.34778-.0862-.59375,0s-.47631.17237-.5625,0c-.17236-.34472-.0862-.75049 0-1.15625s.17236-.81152 0-1.15625c-.0862-.17237-.2978-.10841-.53125-.0312s-.48874.16752-.625.0312c-.93906-.93906-1.78194-2.01123-2.5-3.15625-.39838-.63526-.67184-1.34672-1-2.03125z" fill="url(#d)"/>
  <path d="m214.5715,735.25166c.32816.68453.60162,1.39599 1,2.03125 .71806,1.14502 1.56094,2.21719 2.5,3.15625 .13626.13627.39155.0459.625-.0312s.44507-.14112.53125.0312c.17236.34473.0862.75049 0,1.15625s-.17236.81153 0,1.15625c.0862.17237.31653.0862.5625,0s.50757-.17236.59375,0c.17237.34472.0862.75049 0,1.15625s-.17237.81153 0,1.15625c.0623.12451 1.85388,1.39525 2.3125,2.3125 .37504.75008.45945,2.39207.40625,4.46875s-.24492,4.57151-.4375,7.03125-.39441,4.88197-.4375,6.78125c-.0215.94964-.007,1.77364.0625,2.40625s.20861,1.08361.40625,1.28125c.27253.27253.88372-.27253 1.15625,0 .2044.2044.28332.43603.28125.71875s-.0728.61964-.15625.9375c-.16683.63571-.38355,1.29541-.125,1.8125 .0862.17237.2978.10841.53125.0312s.48874-.16751.625-.0312c.28906.28906.14453.9961 0,1.71875s-.28906,1.46094 0,1.75c.57928.57928 2.71074,1.55449 3.46875,2.3125 .76666.76666 1.38215,2.01014 1.9375,3.3125s1.05057,2.66363 1.53125,3.625c.6015,1.20301.88857,1.72794 1.03125,1.875s.13583-.10051.125-.40625-.016-.68835.125-.84375 .43317-.0668 1.03125.53125c.0758.0758 2.1299,3.10355 2.3125,3.46875 .17237.34473.0487.76369-.0625,1.1875s-.21003.85247.0625,1.125c.35519.35519 1.03715.548 1.71875.84375 .3408.14787.66276.29736.96875.53125s.58767.55034.78125.9375c.22445.4489.28866.97641.28125,1.5625s-.0918,1.20757-.1875,1.84375-.20955,1.27581-.25,1.875-.002,1.18115.15625,1.65625c.40492,1.21474.99186,1.8977 1.46875,2.65625 .23845.37927.44022.75416.59375,1.25s.25,1.10885.25,1.875-.18953,2.14181-.28125,3.5-.0856,2.70375.28125,3.4375c.4006.80119 1.09458,1.50723 1.78125,2.09375s1.36602,1.05352 1.6875,1.375c.44379.44378.6022,1.35908.71875,2.28125s.19124,1.85123.4375,2.34375c.0862.17237.31653.0862.5625,0s.50757-.17237.59375,0c.2733.5466.35616,1.46355.46875,2.375s.25493,1.81743.6875,2.25c.27253.27253.88372-.27253 1.15625,0 .43359.43359.5542,1.17237.5,2.09375s-.2832,2.00977-.5,3.09375-.4458,2.17237-.5,3.09375 .0664,1.69141.5,2.125c.13627.13626.43251.0197.6875-.0625s.46875-.13021.46875.0625c0,.27253-.24141.43376-.5.59375s-.53438.31875-.65625.5625c-.29388.58776-.381,7.95377-.34375,15.25s.19888,14.52276.34375,14.8125l2.3125,4.625c.30833.61667.48776,1.28216.59375,2s.13229,1.49115.0937,2.28125c-.0771,1.5802-.37917,3.27292-.6875,4.96875s-.61042,3.38855-.6875,4.96875c-.0385.7901-.0122,1.53216.0937,2.25s.28542,1.41458.59375,2.03125c.0862.17237.38873.06.65625-.0312s.5-.16145.5.0312c0,.32441-.12048.5909-.3125.84375s-.44951.46811-.71875.65625c-.53849.37628-1.12271.65396-1.28125.8125-.27253.27253-.13627.71439 0,1.15625s.27253.88372 0,1.15625-.88372-.27253-1.15625,0c-.19613.19613-.25456.51855-.25.90625 .005.3877.0742.8183.15625,1.28125 .1642.92591.35829,1.90841.0937,2.4375-.76024,1.52048-1.6163,2.94009-2.4375,4.4375s-1.60755,3.07264-2.1875,4.8125c-.20873.62619-.27174,1.42295-.25,2.3125s.12255,1.85759.28125,2.78125c.31739,1.84733.82085,3.54796 1.125,4.15625 .0862.17236.2978.10841.53125.0312s.48874-.16751.625-.0312c.35003.35003.33751,1.86465.25,3.40625s-.25,3.11021-.25,3.53125c0,.64216-.2103,2.45806-.3125,4.21875-.0511.88035-.0696,1.74073-.0312,2.4375s.13935,1.2331.34375,1.4375c.53842.53845.81429.51314.96875.65625s.1875.45466.1875,1.65625c0,.4345-.61044.96694-1.0625,1.5625-.22603.29778-.42148.61907-.46875.9375s.049.64275.375.96875c.13626.13626.4325.0197.6875-.0625s.46875-.1302.46875.0625c0,.45543-.13239.87231-.3125,1.28125s-.39653.81127-.65625,1.1875c-.51943.75246-1.10899,1.45198-1.34375,2.15625-.12188.36563-.0423.75572.0312,1.15625s.14111.81153-.0312,1.15625c-.0862.17236-.2978.10841-.53125.0312s-.48874-.16751-.625-.0312c-.28977.28978-.36657.59576-.3125.9375s.25177.70033.46875,1.03125c.43395.66184 1,1.25816 1,1.5 0,.1927-.21375.11349-.46875.0312s-.55124-.16751-.6875-.0312c-.60939.60939-.77084,1.54167-1.15625,2.3125-.19386.38772-.26275,1.96525-.25,3.53125s.10713,3.12052.25,3.40625c.0862.17236.38873.06.65625-.0312s.5-.16146.5.0312c0,.27253-.23248.40621-.5.5625s-.57007.3352-.65625.59375c-.24376.73127-.41226,1.54269-.4375,2.34375s.0928,1.59179.4375,2.28125c.0862.17236.2978.10841.53125.0312s.48874-.16751.625-.0312c.30132.30132.3644.74147.3125,1.28125s-.21764,1.18089-.4375,1.78125c-.43972,1.20071-1.03125,2.34301-1.03125,2.71875 0,.1927.27344.0963.5625,0s.59375-.19271.59375,0c0,.43091-.21376.78805-.46875,1.15625s-.55124.74746-.6875,1.15625c-.12188.36563.0264.80017.125,1.21875s.14753.82122-.125,1.09375c-.24088.24088-.4304.34639-.59375.375s-.30688-.0226-.40625-.125c-.19873-.20475-.28841-.60287-.3125-.84375-.0482-.48177.15625-.36978.15625,2.90625-.47818.71727-.95718,1.13786-1.4375,1.46875s-.95545.55032-1.4375.875-.98539.73887-1.46875,1.4375-.95325,1.7035-1.4375,3.15625c-.22428.67285-.33062,1.52596-.34375,2.46875s.0505,1.96335.1875,2.96875c.27404,2.0108.80385,3.95145 1.3125,4.96875 .24375.48752.70001.82188 1.15625,1.15625s.91249.66873 1.15625,1.15625c.17236.34473.0862.75049 0,1.15625s-.17237.81154 0,1.15624c.0862.1724.2978.1084.53125.031s.48874-.1675.625-.031c.43091.4309.48889,1.067.5625,1.7188s.16285,1.3191.59375,1.75c.74688.7468 1.63856,1.3275 2.53125,1.9063 .32599-.448.64235-.7543.96875-1.2188 2.25831-6.02218 15.805-12.06139 26.34375-29.37504s10.53205-17.2892 18.8125-40.625 7.5301-18.82161 24.84375-24.84375 19.59098-8.29474 20.34375-30.125-12.06054-32.35839-21.09375-36.875-9.02848-12.79393-9.78125-26.34375-6.77929-14.30143-15.8125-17.3125-6.77849-7.54947-7.53125-19.59375-6.74804-6.76742-15.78125-10.53125-7.52652-16.56527-17.3125-15.8125-15.07715-6.01822-19.59375-18.0625c-3.076-8.20266-9.6206-4.11067-15.875,0z" fill="url(#a)"/>
  <path d="m170.23 830.86c-1.5055-3.0111-6.0221-25.594-21.077-38.391s-17.314-20.325-17.314-25.594c5.2694 8.2804 12.044 16.561 18.819 22.583s33.875 47.424 35.38 55.705c-10.539-9.0332-15.808-14.303-15.808-14.303z" fill="#d7f4d7" opacity=".8667"/>
  <path d="m228.95 920.44s-6.0221-33.122-7.5277-56.458 4.5166-40.649-2.2583-58.716-9.786-17.314-13.55-33.122-6.0221-27.852-6.0221-27.852 6.0221 23.336 9.786 32.369 16.561 22.583 16.561 36.886 3.0111 55.705 1.5055 68.502 13.55 63.985 13.55 63.985z" fill="#d7f4d7" opacity=".8667"/>
  <path d="m242.5 948.29s-22.583-25.594-52.694-40.649-48.177-30.111-60.221-31.616-3.7638-3.7638-28.605-5.2694-33.122-1.5055-41.402-10.539-9.786-18.819-9.786-18.819 9.786 25.594 36.133 25.594 41.402 0.75277 65.491 13.55 55.705 29.358 67.749 38.391 15.808 10.539 15.808 10.539z" fill="#d7f4d7" opacity=".8667"/>
  <path d="m112.27 869.25s-6.0221-6.0221-15.808-18.819-11.292-21.83-21.83-24.841-16.561 2.2583-16.561 2.2583 7.5277-17.314 27.852 4.5166 39.897 39.144 39.897 39.144z" fill="#d7f4d7" opacity=".8667"/>
  <path d="m249.27 978.4s-7.5277-23.336-57.21-35.38-79.793-18.066-100.12-30.111-35.38-20.325-44.413-33.122-15.055-16.561-15.055-16.561 12.797 23.336 33.122 38.391 66.996 38.391 92.59 40.649 62.48 7.5277 89.579 42.155c4.5166-1.5055 1.5055-6.0221 1.5055-6.0221z" fill="#d7f4d7" opacity=".8667"/>
  <path d="m247.01 967.86s0.75277-50.435 0-88.074 1.1195-39.997-13.183-73.118-21.444-48.077-16.928-74.424c3.7638 26.347 10.705 57.696 19.739 68.988s15.808 43.008 14.303 85.916-2.225 83.104 4.3499 101.79c-9.0332-7.5277-8.2804-21.077-8.2804-21.077z" fill="#d7f4d7" opacity=".8667"/>
  <path d="m238.73 793.22s1.5055-14.303 5.2694-20.325-2.2583-20.325-9.0332-25.594c13.55 13.55 15.055 18.819 12.044 30.111s-4.5166 24.089-4.5166 24.089z" fill="#d7f4d7" opacity=".8667"/>
  <path d="m249.27 941.52s19.572-21.077 24.841-63.232 6.7749-51.941-0.75277-66.244-12.044-21.077-11.292-34.627c6.0221 17.314 24.841 39.897 22.583 59.469s0 57.21-11.292 78.288-23.336 54.199-23.336 54.199z" fill="#d7f4d7" opacity=".8667"/>
  <path d="m244.76 988.94s-80.546-1.5055-105.39-17.314-32.369-13.55-61.727-13.55-45.166-19.572-45.166-19.572 18.819 17.314 40.649 16.561 31.616-2.2583 73.018 11.292 88.074 19.572 98.613 14.303c2.2583 6.0221 0 8.2804 0 8.2804z" fill="#d7f4d7" opacity=".8125"/>
  <path d="m158.19 973.13s-27.852-24.089-58.716-30.111-51.188-21.83-59.469-30.863-12.044-19.572-12.044-19.572 19.572 36.886 57.21 43.661 54.952 17.314 67.749 24.089 21.077 17.314 21.077 17.314z" fill="#d7f4d7" opacity=".8125"/>
  <path d="m257.55 1007.8c4.5166-5.2694 4.5166-14.303-0.75277-27.1s-9.0332-35.38-37.638-79.793-20.325-54.952-51.188-72.266-27.852-6.7749-46.672-19.572-31.616-21.077-41.402-23.336c21.077 13.55 42.155 33.122 60.221 38.391s44.413 18.066 50.435 34.627 18.819 39.144 31.616 56.458 20.325 33.875 20.325 45.166 4.5166 46.672 4.5166 46.672 3.0111 6.0221 10.539 0.7528z" fill="#d7f4d7"/>
  <path d="m258.66525,992.75166c-.54468-.28861-1.89541-.97601-4.0625-2-2.555-1.20729-5.43523-2.4683-6.6875-2.71875-1.12595-.22519-6.27857-.76259-11.4375-1.125-2.57946-.1812-5.16117-.32804-7.25-.375s-3.68231.0191-4.28125.21875c-.66061.2202-1.30418.68387-1.9375,1.1875s-1.2423,1.02739-1.875,1.34375c-1.2649.63245-2.48953,1.111-3.71875,1.46875s-2.47602.62048-3.71875.78125c-2.48547.32154-5.04034.3125-7.875.3125-.70199,0-2.19382.14779-3.71875.21875s-3.08603.0651-3.9375-.21875c-1.6565-.55217-3.27435-1.26928-4.84375-2.125s-3.07799-1.83602-4.5-2.9375-2.75441-2.33557-3.96875-3.625-2.30362-2.64292-3.25-4.0625c-.72848-1.09271-1.35844-2.57779-2.125-4-.38328-.71111-.79418-1.40279-1.28125-2.03125s-1.06505-1.1892-1.71875-1.625c-.96491-.64328-2.0535-1.66676-3.15625-2.65625s-2.21702-1.93664-3.21875-2.4375c-.38653-.19326-1.2068-.39-2-.59375s-1.54525-.42025-1.8125-.6875c-.30065-.30065.30065-.98061 0-1.28125-.57023-.57023-1.12221-.85889-1.65625-1s-1.04448-.14518-1.5625-.0937-1.04032.14887-1.5625.15625-1.04724-.0705-1.59375-.34375c-1.58606-.79303-3.48303-1.74142-5.3125-2.8125s-3.60595-2.2622-4.90625-3.5625c-1.65742-1.65742-2.39148-2.57953-2.6875-3.09375s-.13979-.62021.0312-.6875 .34997-.0896.0937-.40625-.95343-.92524-2.53125-2.1875c-1.19707-.95765-2.75975-1.47851-3.84375-2.5625-.67226-.67227-.94837-1.59185-1.25-2.53125s-.60899-1.89024-1.28125-2.5625-1.89024-.60899-2.5625-1.28125c-2.12261-2.12261-3.07161-3.11142-3.34375-3.5s.15119-.15935.71875.1875 1.29103.79132 1.6875.875c.19824.0418.31531-.008.28125-.21875s-.2323-.56721-.625-1.15625c-.49078-.73617-1.09375-1.34341-1.75-1.875s-1.35115-.98781-2.0625-1.4375-1.43768-.88454-2.09375-1.375-1.25957-1.03359-1.75-1.6875c-.2551-.34015-.12274-.81696 0-1.28125s.23585-.92748 0-1.28125c-.26368-.39553-.59584-.67533-1-.90625s-.87079-.40842-1.34375-.5625c-.94593-.30816-1.95895-.53513-2.75-1.0625-.95664-.63777-1.27264-.97688-1.3125-1.15625s.21556-.20153.375-.28125 .23374-.22369-.125-.5625-1.15559-.8871-2.75-1.84375c-1.15292-.69175-2.64117-.67996-3.84375-1.28125-.9379-.46894-2.03386-1.61984-3.15625-2.71875-.5612-.54945-1.14706-1.07268-1.6875-1.5s-1.05616-.75623-1.53125-.875c-.61872-.15468-1.25554-.0578-1.90625.0312s-1.30121.17043-1.90625-.0312c-.50419-.16807-.96327-.46253-1.375-.8125s-.77344-.75217-1.15625-1.15625-.77006-.79461-1.1875-1.125-.89065-.58985-1.40625-.71875c-.61873-.15468-1.25232-.0666-1.90625.0312s-1.3141.20561-1.90625-.0312c-1.10359-.44144-3.38997-2.06407-5.6875-3.71875s-4.5952-3.34448-5.78125-3.9375c-.68572-.34286-1.20114-.44911-1.59375-.40625s-.67384.23482-.96875.40625-.57614.33214-.96875.375-.90803-.0321-1.59375-.375c-.19015-.0951-.11637-.33622-.0312-.59375s.18157-.53717.0312-.6875c-.6044-.60439-1.09093-.95201-1.5625-1.125s-.92062-.16459-1.375-.125-.91593.12291-1.46875.15625-1.20185.004-1.96875-.1875c-.95056-.23764-1.98524-1.04764-3.0625-1.875s-2.19447-1.65799-3.3125-1.9375c-.89656-.22413-2.47708-.55326-4-.96875-.76146-.20774-1.51651-.42102-2.15625-.6875s-1.16752-.57377-1.5-.90625c-.97878-.97878-1.41727-1.5289-1.5625-1.875s.007-.48453.21875-.625 .50219-.29435.59375-.65625-.0261-.92712-.53125-1.9375c-.2689-.53781-.74669-.91239-1.25-1.28125s-1.01234-.74344-1.28125-1.28125c-.19015-.38029-.13582-.81043-.0625-1.25s.16562-.90002.0625-1.3125c-.33437-1.33749-1.1632-2.5711-1.96875-3.8125-.40278-.6207-.79319-1.23993-1.125-1.875s-.61499-1.2937-.75-1.96875c-.23805-1.19025-.26198-2.4492-.1875-3.75s.25144-2.6389.40625-3.96875 .30958-2.62883.3125-3.90625-.15008-2.51274-.53125-3.65625c-.83745-2.51236-2.01679-5.08392-2.53125-7.65625-.26061-1.30305-.2998-2.59061-.28125-3.84375s.10222-2.47342.0937-3.65625-.12708-2.34537-.46875-3.4375c-.0383-.12244-.17412-.22259-.21875-.34375-9.7343,9.93247-11.7968,8.0338-20.34375,15.15625-9.03321,7.52768-2.26107,14.28563.75,30.09375s-.75277,7.52099 0,18.8125 9.79508,9.79474 6.03125,31.625 6.02457,24.07795 24.84375,36.875 18.07323,14.33072 40.65625,26.37499 14.30858,7.5064 32.375,14.2813 38.36555,11.307 57.9375,12.8125 38.3968,3.7587 57.96875-24.0938c1.24118-3.3098 5.96796-6.81558 11.65625-11.99999z" fill="#afa" opacity=".3417"/>
  <path d="m245.83 990.32s-30.217 24.667-57.967 20.35-23.434-14.184-51.801-23.434-44.4-11.717-61.667-12.95-28.367-9.2501-32.684-12.95c10.483 9.8668 18.5 16.034 38.234 17.884s45.634 4.9334 64.134 14.8 28.367 22.2 51.184 21.584 53.651-19.734 53.651-19.734z" fill="#d7f4d7"/>
  <path d="m197.67 1014.5s-9.8087 9.1454-40.026 0.512-29.6-13.567-47.484-15.417-26.517-6.1667-26.517-6.1667 18.895 4.782 29.378 4.1654 22.992 9.5414 38.409 13.241c8.069 1.9366 32.703 7.9647 37.373 3.4932 5.4533 0.388-0.8326 1.0533 8.8665 0.1716z" fill="#d7f4d7"/>
 </g>
</svg>
