<?xml version="1.0" encoding="UTF-8"?>
<svg width="938.18" height="944.15" version="1.1" viewBox="0 0 938.18496 944.15495" xmlns="http://www.w3.org/2000/svg">
 <g transform="translate(346.52 -229.67)">
  <rect x="31.429" y="5.2193" width="662.86" height="865.71" fill="#fff"/>
  <g transform="matrix(4.6866 0 0 4.7171 -5201.4 -3196.7)">
   <rect x="1035.9" y="726.37" width="200" height="200" fill="#71cff5" fill-rule="evenodd"/>
   <path d="m1115.7 896.93 49.482 29.595 70.903-0.25-0.3018-117.26-100.77-57.488-4.1125 139.57z" fill="#56b6e6"/>
   <g transform="translate(1854.5,694.68)">
    <path d="m-758.21 124.15c0.0698 0.0349-0.18502-3.3321 2.0268-9.0714l4.8214-14.304c0.30887-3.151-0.77572-6.2884 2.3393-6.8304 26.887-20.133 29.775-27.289 38.1-18.096 2.7493 3.0361 6.9269 7.7998 11.65 14.542-1.8261 3.19 1.9896 7.4689 1.5357 10.518-11.117 18.16-39.672 15.045-60.473 23.241z" fill="#ecd2bc"/>
    <g transform="translate(9.2857,-1.4286)">
     <path d="m-753.73 156.17 39.311-0.38661-5.606 47.446h-27.713z" fill="#e6a03e" fill-rule="evenodd"/>
     <path d="m-765.09 126.5c16.503 2.4076 32.812 4.9346 61.246 0v30.02l-12.86 3.1786h-34.258l-14.127-3.1786z" fill="#fcc052"/>
     <path d="m-703.85 126.5c-76.142 102.81-38.071 51.403 0 0z" fill="#e6a03e"/>
     <ellipse transform="matrix(.27845 0 0 .27063 -823.47 .15753)" cx="320.71" cy="470.22" rx="123.57" ry="15" fill="#e6a03e"/>
     <path d="m-764 135.38-4.4706-7.6204c3.7439 0.85555 5.6037 2.3391 7.891 3.6802l0.60442 1.2412z" fill="#fcc052"/>
     <path d="m-704.13 135.38 4.4706-7.6204-8.0843 3.1003-0.4111 1.8212z" fill="#fcc052"/>
     <rect x="-747.31" y="157.57" width="1.5465" height="39.413" fill="#fcc052"/>
     <rect x="-741.57" y="157.57" width="1.5465" height="39.14" fill="#fcc052"/>
     <rect x="-734.87" y="157.57" width="1.5465" height="39.003" fill="#fcc052"/>
     <rect x="-728.58" y="157.57" width="1.5465" height="39.14" fill="#fcc052"/>
     <rect x="-721.75" y="157.57" width="1.5465" height="39.413" fill="#fcc052"/>
     <path d="m-748.76 194.94 29.662 0.0683-0.13669 2.0504h-29.252z" fill="#fcc052"/>
     <path d="m-749.71 188.37h31.439l-0.13668 2.1187h-30.96z" fill="#fcc052"/>
     <path d="m-750.47 181.61h33.011l-0.28844 2.187h-32.449z" fill="#fcc052"/>
     <path d="m-751.49 173.82 34.993-0.13669-0.34173 2.0504h-34.309z" fill="#fcc052"/>
     <path d="m-752.58 165.82 37.043 0.0683-0.27338 2.187h-36.496z" fill="#fcc052"/>
    </g>
    <path d="m-757.31 118.43c10.635-4.4232 20.831-6.5463 25.367-6.5231 30.825 0.15755 45.074-20.47 21.065-35.888-4.6038 9.0862-11.744 15.327-21.33 17.449-15.868 3.5129-36.441 9.5153-25.102 24.961z" fill="#bd835c"/>
    <path d="m-759.5 139.27c-12.766-32.092 45.188-15.914 61.788-38.389 22.229 15.443 15.045 35.917-26.258 34.652-14.836-0.45438-25.305 2.0649-35.531 3.7376z" fill="#bd835c"/>
    <path d="m-751.09 96.126c-5.2804-10.544 9.785-16.567 21.205-23.399 9.9712-5.5463 5.387-15.858 0-8.0434-4.2399-3.6482-0.8661-8.71 3.6656-9.4732 10.621-0.16576 17.175 11.226 10.264 21.985-9.3661 14.259-23.326 13.016-35.135 18.93z" fill="#bd835c"/>
    <path d="m-749.22 91.356c-0.59415-2.6578 1.1304-5.2916 3.2464-6.7879 4.2364-3.3384 7.8834 1.1787 3.2464 1.9183-2.9341 0.77501-4.1974 3.4953-6.4928 4.8696z" fill="#ecd2bc"/>
    <path d="m-756.46 111.56c-0.73604-3.2926 1.4003-6.5554 4.0217-8.4091 5.2481-4.1356 9.7661 1.4602 4.0217 2.3765-3.6348 0.9601-5.1998 4.33-8.0434 6.0326z" fill="#ecd2bc"/>
    <path d="m-756.94 133.05c-0.73604-3.2926 1.4003-6.5554 4.0217-8.4091 5.2481-4.1356 9.7661 1.4602 4.0217 2.3765-3.6348 0.9601-5.1998 4.33-8.0434 6.0326z" fill="#ecd2bc"/>
   </g>
  </g>
 </g>
</svg>
