<svg xmlns="http://www.w3.org/2000/svg" xmlns:xlink="http://www.w3.org/1999/xlink" version="1.1" id="svg-edited-version" x="0px" y="0px" viewBox="0 0 595.28 595.28" enable-background="new 0 0 595.28 595.28" xml:space="preserve" class="injected-svg" data-src="https://preview.pixlr.com/images/svg/100/1/7c88971d8bd4ea5184b9a5fcd36f75a2809c827d46f8164b4f439fd1389a6370.svg">
<g>
	<path fill="#FED361" d="M501.052,457.725c0-16.514,12.539-30.113,28.74-32.131c4.345-61.154,8.722-130.585,8.792-145.91   c0.219-47.709-41.342-154.008-79.715-195.73c-18.272-19.868-57.196-18.716-90.162-3.521c-24.002,11.063-53.16,25.283-83.849,40.646   c11.772,4.397,19.713,12.676,19.713,22.171c0,14.098-17.491,25.527-39.066,25.527c-17.996,0-33.14-7.953-37.673-18.772   c-81.878,42.008-159.09,83.458-166.195,88.037c-15.183,9.786,7.516,55.098,29.026,151.74c1.926,8.655,3.479,17.101,4.767,25.277   c3.064-0.855,6.285-1.344,9.628-1.344c19.496,0,35.3,15.574,35.3,34.785c0,19.212-15.804,34.786-35.3,34.786   c-0.737,0-1.457-0.065-2.183-0.109c2.141,20.272,4.985,34.242,13.095,38.723c6.56,3.624,63.79,4.563,133.259,4.311   c-1.156-3.44-1.804-7.107-1.804-10.93c0-19.211,15.804-34.784,35.3-34.784c19.496,0,35.3,15.573,35.3,34.784   c0,3.62-0.563,7.11-1.604,10.393c46.753,0.701,123.409,0.631,172.602-0.627c18.844-0.481,34.266-14.611,35.751-32.779   c0.09-1.098,0.181-2.222,0.273-3.36C511.208,485.076,501.052,472.583,501.052,457.725z" originalFill="#FED361"/>
	<path fill="#EFC04F" d="M433.792,425.594c0,17.903-14.729,32.418-32.898,32.418c-18.169,0-32.897-14.515-32.897-32.418   c0-17.904,14.729-32.419,32.897-32.419C419.063,393.175,433.792,407.689,433.792,425.594z M382.742,164.968   c-18.17,0-32.898,9.625-32.898,21.497s14.729,21.497,32.898,21.497c18.169,0,32.898-9.625,32.898-21.497   S400.911,164.968,382.742,164.968z M448.776,253.018c-19.67,0-35.615,15.28-35.615,34.129s15.945,34.129,35.615,34.129   s35.615-15.28,35.615-34.129S468.446,253.018,448.776,253.018z M415.641,84.037c-14.236,0-25.776,7.541-25.776,16.843   s11.54,16.843,25.776,16.843c14.234,0,25.775-7.541,25.775-16.843S429.875,84.037,415.641,84.037z M188.818,207.962   c-14.235,0-25.776,7.541-25.776,16.843c0,9.302,11.541,16.843,25.776,16.843c14.236,0,25.776-7.542,25.776-16.843   C214.594,215.503,203.055,207.962,188.818,207.962z M163.042,348.702c-12.529,0-22.686,10.009-22.686,22.354   s10.157,22.354,22.686,22.354s22.686-10.009,22.686-22.354S175.571,348.702,163.042,348.702z M297.64,348.702   c-12.529,0-22.686,10.009-22.686,22.354s10.157,22.354,22.686,22.354c12.529,0,22.686-10.009,22.686-22.354   S310.169,348.702,297.64,348.702z M284.858,121.079c0,0,2.278,11.427-18.658,21.837c-20.938,10.411-38.369,7.089-38.369,7.089   l-0.002-0.004c4.532,10.821,19.677,18.776,37.675,18.776c21.575,0,39.066-11.429,39.066-25.527   C304.571,133.755,296.63,125.476,284.858,121.079z M249.228,526.211c0,0,8.594-15.756,33.496-15.177   c24.901,0.578,33.695,14.64,33.695,14.64l0,0c1.041-3.282,1.604-6.772,1.604-10.393c0-19.211-15.804-34.784-35.3-34.784   c-19.496,0-35.3,15.573-35.3,34.784C247.424,519.104,248.072,522.771,249.228,526.211L249.228,526.211z M517.297,454.355   c0.447-17.783,12.495-28.762,12.495-28.762c-16.201,2.018-28.74,15.617-28.74,32.131c0,14.858,10.156,27.352,23.993,31.183   C525.045,488.907,516.848,472.14,517.297,454.355z M105.057,413.716c-4.38,0-9.628,1.344-9.628,1.344s13.892,5.61,14.79,33.441   c0.897,27.832-7.344,34.677-7.344,34.677l0,0c0.726,0.044,1.446,0.109,2.183,0.109c19.496,0,35.3-15.574,35.3-34.786   C140.357,429.29,124.553,413.716,105.057,413.716z" originalFill="#EFC04F"/>
	<path fill="#D8A337" d="M408.361,457.141c-2.402,0.55-4.895,0.87-7.467,0.87c-18.17,0-32.898-14.514-32.898-32.417   c0-17.904,14.729-32.419,32.898-32.419c18.169,0,32.897,14.515,32.897,32.419c0,4.747-1.061,9.242-2.921,13.306   c0.903-2.754,1.417-5.696,1.417-8.771c0-14.979-11.646-27.121-26.013-27.121s-26.013,12.142-26.013,27.121   c0,14.979,11.646,27.122,26.013,27.122C406.979,457.251,407.672,457.198,408.361,457.141z M382.742,207.962   c11.334,0,21.326-3.747,27.243-9.446c-2.478-8.359-13.727-14.674-27.243-14.674c-13.518,0-24.766,6.315-27.244,14.674   C361.415,204.216,371.407,207.962,382.742,207.962z M457.101,317.721c-15.073,0-27.292-12.428-27.292-27.76   c0-15.332,12.219-27.76,27.292-27.76c14.591,0,26.473,11.657,27.219,26.312c0.019-0.457,0.072-0.904,0.072-1.365   c0-18.85-15.945-34.129-35.615-34.129c-19.669,0-35.615,15.28-35.615,34.129c0,18.849,15.946,34.129,35.615,34.129   c8.283,0,15.887-2.733,21.937-7.279C466.703,316.353,462.063,317.721,457.101,317.721z M415.641,117.723   c9.423,0,17.642-3.315,22.137-8.248c-3.304-5.906-11.955-10.13-22.137-10.13c-10.184,0-18.834,4.224-22.138,10.13   C397.998,114.408,406.217,117.723,415.641,117.723z M188.819,224.805c-9.536,0-17.841,3.392-22.299,8.421   c4.458,5.029,12.764,8.422,22.299,8.422c9.535,0,17.841-3.393,22.299-8.422C206.66,228.197,198.354,224.805,188.819,224.805z    M146.189,376.021c0-10.296,8.851-18.644,19.77-18.644c10.079,0,18.379,7.119,19.599,16.313c0.103-0.865,0.17-1.741,0.17-2.633   c0-12.346-10.157-22.354-22.686-22.354s-22.686,10.009-22.686,22.354c0,10.209,6.952,18.802,16.441,21.477   C150.495,389.417,146.189,383.197,146.189,376.021z M297.191,361.715c10.231,0,18.875,6.677,21.702,15.848   c0.636-2.059,0.983-4.241,0.983-6.506c0-12.346-10.156-22.354-22.686-22.354s-22.686,10.009-22.686,22.354   c0,2.265,0.348,4.447,0.982,6.506C278.317,368.392,286.96,361.715,297.191,361.715z M269.691,162.416   c-13.919,0-26.107-4.77-33.024-11.931c-5.499,0.155-8.832-0.479-8.835-0.479c4.534,10.818,19.677,18.772,37.673,18.772   c17.957,0,33.075-7.92,37.644-18.704C296.306,157.47,283.884,162.416,269.691,162.416z M282.724,492.377   c17.196,0,31.547,11.818,34.966,27.561c0.209-1.524,0.334-3.074,0.334-4.656c0-19.211-15.804-34.784-35.3-34.784   c-19.496,0-35.3,15.573-35.3,34.784c0,1.57,0.134,3.106,0.343,4.619C251.201,504.178,265.541,492.377,282.724,492.377z    M503.146,462.93c0-13.723,8.673-25.41,20.897-30.134c2.949-4.632,5.749-7.202,5.749-7.202   c-16.201,2.018-28.74,15.617-28.74,32.131c0,5.211,1.271,10.118,3.489,14.475C503.649,469.261,503.146,466.156,503.146,462.93z    M105.057,413.716c-4.38,0-9.628,1.344-9.628,1.344s4.231,1.72,8.176,7.932c16.436,2.97,28.901,17.131,28.901,34.186   c0,6.805-2.014,13.134-5.441,18.496c8.094-6.375,13.293-16.167,13.293-27.172C140.357,429.29,124.553,413.716,105.057,413.716z" originalFill="#D8A337"/>
	<path fill="#FBEAD6" d="M426.075,87.53c0.358,0.953-1.079,1.929-2.955,2.231c-4.75,0.767-11.161-2.322-4.84-3.738   c0.191-0.042,0.399-0.079,0.618-0.108C421.42,85.581,425.557,86.155,426.075,87.53z M79.422,254.395   c-11.649,7.975,6.651,15.102,21.012,17.363c66.203,10.423,133.29,16.736,200.432,19.309c8.325,0.319,19.897-2.313,18.958-9.75   c-0.769-6.08-9.494-7.862-16.292-8.244C212.896,267.983,89.375,247.582,79.422,254.395z M494.347,273.329   c3.143-1.012,6.558-0.482,9.854-0.18s6.887,0.291,9.579-1.574c4.371-3.027,4.326-9.203,3.905-14.386   c-0.341-4.204,1.212-19.208,8.84-11.448c2.066,2.103,2.567,5.184,2.921,8.064c1.635,13.313,1.645,26.474,1.767,39.844   c0.077,8.437,0.296,16.931-0.977,25.306c-0.51,3.354-0.979,9.967-3.877,11.326c-2.92,1.37-6.042-0.468-6.922-3.251   c-0.76-2.402-0.248-4.98,0.062-7.475c1.386-11.167-1.426-31.439-15.658-34.176c-2.646-0.509-5.392-0.182-8.062-0.55   c-2.67-0.369-5.501-1.727-6.297-4.218c-0.608-1.909,0.212-3.876,1.68-5.332C492.046,274.401,493.164,273.71,494.347,273.329z    M363.118,288.176c-2.251,3.214-7.389,5.165-12.484,5.238c-5.944,0.085-11.959-2.385-14.252-6.24   c-2.294-3.855-0.296-8.848,4.812-10.985c3.007-1.257,6.824-1.378,10.484-0.698C359.792,277.001,367.13,282.446,363.118,288.176z    M486.636,465.229c8.325-6.328,12.729,19.604,14.725,25.487c0.605,1.787,1.179,3.866,0.118,5.442   c-1.043,1.55-3.355,1.908-5.143,1.253c-1.788-0.655-3.141-2.086-4.305-3.553C487.673,488.592,479.158,470.914,486.636,465.229z    M251.551,361.207c4.625-3.871,10.983-2.354,11.541,3.82c0.463,5.129,5.353,24.014-0.158,27.072   c-2.478,1.375-5.775,0.662-7.974-1.105c-2.2-1.77-3.479-4.386-4.376-7.013c-1.739-5.091-3.985-16.261-0.191-21.521   C250.729,361.993,251.114,361.572,251.551,361.207z M396.259,172.347c0.358,1.808-1.08,3.661-2.956,4.236   c-4.749,1.455-11.16-4.409-4.84-7.097c0.192-0.082,0.399-0.149,0.619-0.205C391.604,168.646,395.739,169.737,396.259,172.347z    M454.82,127.478c-1.638-2.681-3.313-5.47-3.647-8.566c-0.334-3.096,1.064-6.6,4.046-7.775c4.29-1.692,8.72,2.046,11.412,5.691   c4.75,6.43,10.77,17.018,12.017,24.96c1.362,8.681-4.793,16.862-11.132,6.481c-0.174-0.285-0.348-0.57-0.521-0.855   C462.936,140.769,458.878,134.124,454.82,127.478z M97.94,390.455c-0.319-2.056-0.646-4.229,0.17-6.152   c0.817-1.923,3.247-3.365,5.16-2.417c2.304,1.141,2.037,4.305,2.206,6.802c0.274,4.051,2.815,7.951,6.448,9.981   c3.308,1.849,8.61,2.147,7.517,7.675c-1.311,6.637-13.974-0.057-16.885-2.306c-3.895-3.008-3.967-6.895-4.322-11.004   C98.16,392.182,98.075,391.32,97.94,390.455z M233.664,492.187c11.886-0.848-0.204,19.755-5.103,20.205   C218.855,513.278,223.573,492.906,233.664,492.187z" originalFill="#FBEAD6"/>
</g>
</svg>