<svg xmlns="http://www.w3.org/2000/svg" xmlns:xlink="http://www.w3.org/1999/xlink" version="1.1" id="svg-edited-version" x="0px" y="0px" viewBox="0 0 595.28 595.28" enable-background="new 0 0 595.28 595.28" xml:space="preserve" class="injected-svg" data-src="https://preview.pixlr.com/images/svg/100/1/a6adc1567332bb204ffa1bddd09e2a6b837b5784c2a01d1d53e95f8063f1cfc7.svg">
<g>
	<path fill="#ED9E6D" d="M510.29,325.133c-9.422,5.003-13.19,16.72-13.99,27.441c-0.799,10.723,0.439,21.778-2.78,32.027   s-13.038,19.65-23.443,17.385c-21.381-4.656-26.275-44.547-51.051-17.81c-14.063,15.176-13.395,53.065-40.46,51.462   c-14.084-0.835-22.34-15.643-31.877-26.146c-12.098-13.325-29.787-21.29-47.683-21.47c-14.741-0.148-32.079,5.061-42.927,15.612   c-7.602,7.393-10.936,25.17-23.304,26.188c-11.739,0.966-16.792-14.58-17.691-26.443s-5.551-29.123-17.151-27.065   c-31.416,5.574-12.616,44.556-34.014,41.785c-18.612-2.41-14.319-29.804-17.147-37.434c-6.492-17.521-18.583-16.972-36.116-22.996   c-18.33-6.298-22.39-36.628-32.454-47.665c-2.844-3.12-17.918-8.613-21.654-5.73c-1.232,0.95-2.68,1.283-4.168,1.055   c0.26,19.894,11.51,84.737,62.188,121.866c65.109,47.703,126.027,56.343,196.886,57.436c71.344,1.101,125.197-13.353,172.99-48.944   c38.292-28.516,51.184-64.296,58.352-100.484C533.067,337.648,520.005,319.977,510.29,325.133z" originalFill="#ED9E6D"/>
	<path fill="#552012" d="M552.645,301.947c0.051,22.604-2.768,29.017-7.443,32.187c-9.886,6.704-24.371-14.596-34.911-9.001   c-9.422,5.003-13.19,16.72-13.99,27.441c-0.799,10.723,0.439,21.778-2.78,32.027s-13.038,19.65-23.443,17.385   c-21.381-4.656-26.275-44.547-51.051-17.81c-14.063,15.176-13.395,53.065-40.46,51.462c-14.084-0.835-22.34-15.643-31.877-26.146   c-12.097-13.325-29.787-21.29-47.683-21.47c-14.741-0.148-32.079,5.061-42.927,15.612c-7.602,7.393-10.936,25.17-23.304,26.188   c-11.739,0.966-16.792-14.58-17.691-26.443s-5.551-29.123-17.151-27.065c-31.416,5.574-12.616,44.556-34.014,41.785   c-18.612-2.41-14.319-29.804-17.147-37.433c-6.491-17.521-18.583-16.973-36.116-22.997c-18.33-6.298-22.39-36.628-32.454-47.665   c-2.845-3.12-17.918-8.613-21.654-5.73c-5.003,3.858-13.554-2.351-13.972-15.798c-1.238-39.884,19.148-89.89,70.263-125.642   c49.542-34.654,110.638-52.407,186.045-52.245c82.088,0.178,151.542,28.426,189.023,57.01   C558.558,221.479,552.62,291.144,552.645,301.947z" originalFill="#552012"/>
	<ellipse fill="#401000" cx="304.566" cy="250.627" rx="42.259" ry="22.413" originalFill="#401000"/>
	<path fill="#FFFFFF" d="M238.363,134.022c4.176-6.102,17.516,9.005,20.028,12.783c0.969,1.457,1.892,4.362,1.128,6.084   c-0.542,1.223-1.542,1.751-2.825,1.748C249.809,154.618,234.757,139.304,238.363,134.022z M192.785,198.186   c0.792-1.021,0.994-2.141,0.372-3.325c-0.876-1.667-3.712-2.717-5.445-2.839c-4.494-0.319-24.489,1.029-22.291,8.107   C167.33,206.248,188.54,203.662,192.785,198.186z M265.756,179.018c-1.474-6.291-17.047,1.696-20.273,3.957   c-1.243,0.872-2.905,2.935-2.827,4.578c0.056,1.167,0.701,1.916,1.744,2.324C249.996,192.068,267.025,184.461,265.756,179.018z    M431.436,232.303c-1.691-7.219-19.56,1.945-23.261,4.54c-1.427,1-3.334,3.366-3.243,5.252c0.063,1.339,0.805,2.198,2.001,2.666   C413.352,247.275,432.891,238.548,431.436,232.303z M359.313,159.65c1.155,0.564,2.282,0.527,3.295-0.338   c1.428-1.218,1.843-4.24,1.595-5.978c-0.644-4.504-6.184-23.959-12.564-20.289C346.121,136.226,353.116,156.618,359.313,159.65z    M193.322,145.217c-0.314-1.257-1.066-2.105-2.374-2.334c-1.841-0.322-4.399,1.298-5.558,2.606   c-3.003,3.392-14.201,20.181-7.317,22.762C184.03,170.479,195.003,151.962,193.322,145.217z M215.783,266.48   c-1.691-7.218-19.559,1.946-23.26,4.541c-1.428,1-3.334,3.367-3.243,5.252c0.063,1.338,0.805,2.197,2.001,2.666   C197.7,281.454,217.239,272.726,215.783,266.48z M373.319,296.94c-1.691-7.219-19.56,1.946-23.261,4.54   c-1.427,1.001-3.334,3.367-3.243,5.252c0.063,1.339,0.805,2.197,2.001,2.666C355.235,311.913,374.774,303.186,373.319,296.94z    M366.897,360.094c-1.691-7.219-19.56,1.946-23.261,4.54c-1.428,1.001-3.335,3.366-3.244,5.252   c0.064,1.339,0.806,2.198,2.001,2.666C348.813,375.066,368.353,366.339,366.897,360.094z M486.345,283.558   c0.923-0.9,1.277-1.981,0.823-3.241c-0.641-1.774-3.306-3.209-5.005-3.573c-4.407-0.943-24.396-2.399-23.186,4.917   C460.03,287.989,481.391,288.389,486.345,283.558z M462.617,257.23c1.239,0.334,2.339,0.083,3.173-0.96   c1.174-1.469,1.016-4.516,0.447-6.174c-1.474-4.301-10.55-22.349-16.131-17.528C445.284,236.744,455.965,255.435,462.617,257.23z    M529.641,284.208c1.239,0.334,2.339,0.083,3.173-0.96c1.174-1.468,1.016-4.515,0.447-6.174   c-1.474-4.301-10.551-22.349-16.131-17.528C512.308,263.721,522.988,282.412,529.641,284.208z M314.539,313.288   c1.271-0.176,2.188-0.838,2.558-2.126c0.521-1.813-0.793-4.561-1.952-5.867c-3.006-3.39-18.289-16.485-21.587-9.858   C290.71,301.172,307.717,314.232,314.539,313.288z M140.256,234.115c0.923-0.9,1.277-1.981,0.823-3.241   c-0.64-1.774-3.305-3.209-5.004-3.573c-4.407-0.943-24.395-2.398-23.185,4.918C113.942,238.546,135.302,238.945,140.256,234.115z    M328.134,126.686c0.924-0.9,1.277-1.981,0.823-3.241c-0.64-1.774-3.305-3.208-5.005-3.573c-4.407-0.943-24.395-2.399-23.185,4.918   C301.82,131.117,323.181,131.517,328.134,126.686z M429.885,293.604c1.169-0.534,1.862-1.432,1.854-2.772   c-0.011-1.888-2.043-4.145-3.522-5.066c-3.835-2.387-22.171-10.555-23.47-3.254C403.63,288.829,423.61,296.469,429.885,293.604z    M464.816,348.038c1.17-0.534,1.863-1.433,1.855-2.772c-0.012-1.888-2.043-4.146-3.521-5.066   c-3.836-2.387-22.172-10.555-23.472-3.254C438.563,343.262,458.542,350.901,464.816,348.038z M483.724,220.852   c1.169-0.534,1.862-1.433,1.854-2.772c-0.011-1.888-2.043-4.146-3.521-5.066c-3.836-2.387-22.172-10.555-23.471-3.254   C457.469,216.075,477.449,223.715,483.724,220.852z M307.282,373.725c1.169-0.534,1.862-1.433,1.854-2.772   c-0.012-1.888-2.043-4.146-3.521-5.065c-3.836-2.387-22.172-10.555-23.471-3.255C281.027,368.948,301.008,376.589,307.282,373.725z    M76.603,249.72c1.019-0.465,1.624-1.249,1.617-2.416c-0.01-1.645-1.78-3.613-3.069-4.415c-3.343-2.081-19.324-9.199-20.456-2.837   C53.721,245.557,71.135,252.216,76.603,249.72z M311.246,199.357c1.265,0.219,2.337-0.134,3.072-1.249   c1.036-1.571,0.603-4.591-0.113-6.189c-1.857-4.146-12.531-21.279-17.652-15.962C292.13,180.561,304.459,198.186,311.246,199.357z    M376.618,202.966c-0.374-1.24-1.166-2.05-2.482-2.216c-1.854-0.232-4.333,1.511-5.427,2.875   c-2.839,3.534-13.224,20.848-6.225,23.092C368.541,228.651,378.619,209.622,376.618,202.966z M238.038,224.213   c0.576-0.873,0.67-1.792,0.096-2.708c-0.81-1.292-3.164-1.961-4.572-1.953c-3.648,0.023-19.714,2.362-17.505,7.94   C217.974,232.315,234.944,228.9,238.038,224.213z M180.405,257.64c1.039,0.044,1.864-0.352,2.341-1.324   c0.672-1.371,0.015-3.75-0.724-4.96c-1.916-3.137-12.243-15.788-15.813-10.982C163.127,244.533,174.834,257.406,180.405,257.64z    M138.084,187.178c1.039,0.044,1.863-0.352,2.341-1.324c0.671-1.371,0.014-3.751-0.724-4.96   c-1.916-3.137-12.243-15.788-15.813-10.982C120.805,174.071,132.512,186.944,138.084,187.178z M230.869,359.661   c1.039,0.044,1.863-0.353,2.341-1.324c0.672-1.371,0.015-3.751-0.724-4.961c-1.916-3.137-12.243-15.787-15.813-10.981   C213.591,346.554,225.297,359.427,230.869,359.661z M271.315,282.575c-0.269-1.267-0.99-2.143-2.288-2.419   c-1.829-0.39-4.444,1.137-5.648,2.401c-3.124,3.28-14.917,19.646-8.131,22.479C261.121,307.479,272.753,289.377,271.315,282.575z    M108.054,293.778c-0.246-1.167-0.911-1.973-2.106-2.228c-1.684-0.359-4.092,1.046-5.201,2.21   c-2.875,3.02-13.735,18.09-7.487,20.697C98.667,316.709,109.379,300.041,108.054,293.778z M146.217,314.083   c-0.268-1.268-0.99-2.143-2.288-2.419c-1.828-0.391-4.443,1.136-5.648,2.4c-3.124,3.28-14.917,19.646-8.131,22.479   C136.023,338.987,147.656,320.885,146.217,314.083z M420.563,194.423c1.19-0.481,1.923-1.349,1.973-2.688   c0.071-1.887-1.86-4.232-3.299-5.217c-3.728-2.555-21.691-11.528-23.307-4.292C394.54,188.488,414.169,197.006,420.563,194.423z" originalFill="#FFFFFF"/>
	<path fill="#823A2C" d="M397.165,391.673c3.456,3.411,2.293,10.128,0.578,13.942c-4.307,9.58-19.844,7.57-13.389-4.047   c1.92-3.454,4.669-11.634,8.968-11.786C394.485,389.741,395.761,390.287,397.165,391.673z M481.982,365.188   c-4.3,0.152-7.049,8.333-8.968,11.786c-6.456,11.617,9.081,13.627,13.388,4.048c1.716-3.816,2.878-10.533-0.578-13.943   C484.421,365.693,483.145,365.147,481.982,365.188z M167.868,376.813c-3.003,0.101-6.116,2.652-7.07,7.346   c-3.4,16.73,14.519,15.851,13.525,0.559C173.968,379.229,170.977,376.708,167.868,376.813z M239.558,390.926   c-3.003,0.101-6.116,2.652-7.07,7.346c-3.4,16.73,14.519,15.851,13.525,0.559C245.657,393.342,242.666,390.821,239.558,390.926z    M58.429,273.043c-3.003,0.101-6.116,2.652-7.07,7.345c-3.4,16.73,14.52,15.851,13.526,0.56   C64.528,275.46,61.538,272.939,58.429,273.043z M504.585,210.146c3.77,2.289,10.063,13.365,11.045,17.675   c1.437,6.308-2.64,14.256-9.046,14.161c-6.044-0.091-9.731-6.556-12.177-12.139c-3.451-7.881-5.666-23.431,3.444-22.396   C499.637,207.65,501.855,208.489,504.585,210.146z M316.056,232.991c-7.154-0.341-13.419,1.596-9.646,8.678   c1.813,3.402,5.448,5.319,8.874,7.037c3.002,1.504,6.092,3.035,9.43,3.323c3.338,0.288,7.026-0.949,8.72-3.869   c2.174-3.75,0.191-8.824-3.222-11.47C328.002,234.977,321.747,233.263,316.056,232.991z M420.909,145.747   c-3.816-1.344-7.841-2.565-11.842-1.987s-7.952,3.458-8.512,7.501c-0.45,3.253,1.376,6.478,3.866,8.588   c2.491,2.11,5.583,3.327,8.59,4.579c12.755,5.313,24.993,11.889,36.494,19.589c6.159,4.123,23.218,22.756,30.128,20.567   c4.43-1.405,6.459-6.978,5.472-11.562c-0.988-4.583-4.179-8.325-7.405-11.698C461.852,164.763,442.429,153.327,420.909,145.747z    M243.471,336.58c60.263,12.829,124.591,8.856,182.461-10.288c5.511-1.823,12.022-5.215,11.898-11.071   c0-13.59-25.535-5.499-32.483-4.656c-41.94,5.085-131.816,19.371-231.763-19.651c-17.281-6.748-33.599-17.132-47.307-29.709   c-7.424-6.811-14.316-12.748-18.066-22.052c-2.596-6.439-5.521-21.88-13.278-24.452c-10.534-3.492-13.765,9.892-12.806,17.831   c4.268,35.307,36.911,57.247,65.449,73.264C177.168,322.403,210.66,329.595,243.471,336.58z M241.39,251.808   c0.111,0.134,0.227,0.265,0.348,0.392c1.65,1.736,4.373,2.586,6.507,1.516c2.618-1.313,3.328-4.684,3.735-7.607   c0.943-6.791,6.768-22.385-5.09-17.388c-6.701,2.824-8.735,10.155-7.856,16.927C239.322,247.859,239.981,250.108,241.39,251.808z" originalFill="#823A2C"/>
	<path fill="#FFFFFF" d="M87.058,373.104c7.978-18.06,24.616,15.443,29.833,22.759c3.25,4.558,6.547,11.338,3.227,15.826   c-3.168,4.285-9.203,1.932-13.201-1.275C99.123,404.161,81.381,385.951,87.058,373.104z" originalFill="#FFFFFF"/>
	<path fill="#FFFFFF" d="M71.417,345.718c-0.111,0.272-0.219,0.559-0.324,0.86c-2.303,6.629,2.297,18.584,7.29,20.031   c3.311,0.96,6.721-2.92,7.431-7.708C87.336,348.63,76.267,333.851,71.417,345.718z" originalFill="#FFFFFF"/>
</g>
</svg>