<svg xmlns="http://www.w3.org/2000/svg" xmlns:xlink="http://www.w3.org/1999/xlink" version="1.1" id="svg-edited-version" x="0px" y="0px" viewBox="0 0 595.275 465.914" enable-background="new 0 0 595.275 465.914" xml:space="preserve" class="injected-svg" data-src="https://preview.pixlr.com/images/svg/100/1/ac7cd1eafce02b87e691187788f4b50d0ba01b40ea8d286e7bb5b249c46ab650.svg">
<g>
	<path fill="#FFF799" d="M212.489,91.669V55.261h-38.238v36.409c0,50.514,29.192,92.923,68.635,104.767h16.968   C232.634,184.593,212.489,142.183,212.489,91.669z" originalFill="#FFF799"/>
	<path fill="#FAA61A" d="M421.024,55.261h-38.238v36.409c0,50.514-20.145,92.923-47.365,104.767h16.968   c39.443-11.844,68.636-54.253,68.636-104.767V55.261z" originalFill="#FAA61A"/>
	<path fill="#FFD400" d="M594.977,66.599c-2.026-22.373-15.446-45.478-33.392-57.492C548.06,0.054,533.087-2.307,518.284,2.28   c-11.073,3.435-20.492,9.884-26.97,18.223H103.961C97.483,12.164,88.064,5.715,76.991,2.28c-14.803-4.587-29.775-2.226-43.3,6.827   C15.746,21.122,2.325,44.226,0.298,66.599c-2.527,27.896,11.097,56.592,37.376,78.73c6.281,5.29,12.972,9.952,19.444,14.461   c2.187,1.524,4.374,3.048,6.544,4.595c27.629,19.701,44.99,38.617,54.637,59.531c7.386,16.014,10.327,33.749,8.505,51.289   l0.169,0.018c9.417,0.979,17.635-6.639,17.117-16.092c-0.188-3.438-0.527-6.863-1.011-10.268c1.197-9.88,3.486-19.627,6.899-28.976   c2.03-5.562,4.574-11.171,9.02-15.083c1.561,6.105,7.677,10.717,13.976,10.537c6.299-0.179,12.143-5.132,13.353-11.316   c0.762-3.891-0.301-7.758-2.474-11.028c19.903,14.561,44.431,23.176,70.981,23.176h-16.008c-17.648,0-31.955,14.307-31.955,31.956   v0.322h40.154c19.421,0,35.165,15.744,35.165,35.165v0.355h-3.596c-8.916,0-16.143,7.227-16.143,16.143v0.326   c0,8.915,7.228,16.143,16.143,16.143h3.596v0.199c0,10.91-8.844,19.754-19.753,19.754h-16.13c-6.666,0-12.069,5.403-12.069,12.069   v8.528h126.8v-8.528c0-6.666-5.403-12.069-12.069-12.069h-16.13c-10.909,0-19.753-8.844-19.753-19.754v-0.199h3.596   c8.916,0,16.143-7.228,16.143-16.143v-0.326c0-8.915-7.227-16.143-16.143-16.143h-3.596v-0.355   c0-19.421,15.743-35.165,35.164-35.165h40.154v-0.322c0-17.649-14.308-31.956-31.955-31.956h-16.008   c26.55,0,51.078-8.615,70.981-23.177c-2.173,3.271-3.236,7.138-2.475,11.029c1.21,6.184,7.054,11.137,13.353,11.316   c6.299,0.18,12.416-4.432,13.976-10.537c4.446,3.911,6.989,9.521,9.021,15.083c3.414,9.349,5.702,19.096,6.898,28.976   c-0.484,3.404-0.823,6.83-1.012,10.267c-0.517,9.453,7.701,17.072,17.118,16.093l0.168-0.018   c-1.821-17.54,1.12-35.275,8.506-51.289c9.647-20.914,27.008-39.83,54.638-59.531c2.17-1.547,4.358-3.07,6.545-4.595   c6.472-4.509,13.163-9.171,19.443-14.461C583.881,123.191,597.505,94.495,594.977,66.599z M171.826,184.671   c-8.715-1.936-17.837,1.436-25.228,6.442c-6.978,4.726-13,11.102-16.385,18.807c-11.334-20.935-29.533-39.962-56.709-59.338   c-2.219-1.583-4.456-3.143-6.695-4.703c-6.44-4.488-12.526-8.728-18.212-13.517c-21.983-18.52-33.434-41.932-31.413-64.234   c1.564-17.28,12.231-35.757,25.938-44.933c9.258-6.197,18.964-7.783,28.847-4.721c9.88,3.064,18.057,9.664,21.871,17.652   c3.958,8.29,3.031,18.427-2.253,24.653c-0.639,0.754-1.809,0.059-1.809-0.962c0-10.65-8.416-19.333-18.959-19.764   c-7.166-0.293-13.618,3.824-17.487,9.863C44.751,63.312,55.491,75.6,66.3,80.529c13.112,5.982,28.977,2.109,38.215-8.779   c4.036-4.755,6.686-10.559,7.918-16.747c0.997,0.153,2.01,0.257,3.05,0.257h18.987v40.551c0,35.678,15.536,67.715,40.196,89.756   C173.742,185.196,172.793,184.886,171.826,184.671z M242.887,196.437c-39.443-11.844-68.635-54.253-68.635-104.767V55.261h38.238   v36.409c0,50.514,20.145,92.923,47.365,104.767H242.887z M352.389,196.437h-16.968c27.221-11.844,47.365-54.253,47.365-104.767   V55.261h38.238v36.409C421.024,142.183,391.832,184.593,352.389,196.437z M546.678,132.363   c-5.687,4.789-11.771,9.028-18.212,13.517c-2.239,1.56-4.477,3.12-6.694,4.703c-27.177,19.375-45.375,38.403-56.71,59.338   c-3.385-7.705-9.407-14.081-16.384-18.807c-7.392-5.006-16.514-8.378-25.229-6.442c-0.968,0.215-1.916,0.525-2.842,0.896   c24.661-22.041,40.197-54.078,40.197-89.756V55.261h18.988c1.039,0,2.052-0.104,3.049-0.257c1.232,6.188,3.882,11.991,7.918,16.747   c9.239,10.888,25.104,14.761,38.216,8.779c10.81-4.93,21.549-17.217,12.968-30.612c-3.869-6.039-10.321-10.156-17.488-9.863   c-10.543,0.431-18.959,9.114-18.959,19.764c0,1.021-1.169,1.716-1.809,0.962c-5.283-6.226-6.211-16.364-2.252-24.653   c3.813-7.989,11.99-14.588,21.87-17.652c9.883-3.062,19.589-1.476,28.847,4.721c13.707,9.176,24.374,27.653,25.938,44.933   C580.112,90.431,568.662,113.843,546.678,132.363z M421.541,452.879c0-9.509-7.708-17.218-17.218-17.218H190.952   c-9.509,0-17.218,7.709-17.218,17.218v13.034h247.807V452.879z" originalFill="#FFD400"/>
	<path fill="#8E3E03" d="M392.255,435.661v-62.005c0-9.124-7.396-16.521-16.521-16.521H219.541c-9.124,0-16.521,7.396-16.521,16.521   v62.005H392.255z" originalFill="#8E3E03"/>
</g>
</svg>