<svg xmlns="http://www.w3.org/2000/svg" xmlns:xlink="http://www.w3.org/1999/xlink" version="1.1" id="svg-edited-version" x="0px" y="0px" viewBox="0 0 595.3 595.3" enable-background="new 0 0 595.3 595.3" xml:space="preserve" class="injected-svg" data-src="https://preview.pixlr.com/images/svg/100/1/beb78c6b58afdf221bf46bda4ceeea4e04899f84cba62cce9dc6bff4c5858c29.svg">
<g>
	<path fill="#FFF200" d="M386.2,359.6c-6.7-11.6-12.2-23.8-16.4-36.3c-2.2-6.5-4.4-13.3-6.6-20.3c-2.4-7.7-4.6-15.5-6.4-23.3   c0.8-3.1,1.5-6.2,2.1-9.4l26.3,78.2C386.5,352.3,386.8,356.1,386.2,359.6z M192.2,47.3c-6.3-1.2-12.6-2-18.8-2.3l3.5,3.5   c4,0.7,8.1,1.5,12.1,2.4l3.7-2.3C192.3,48.3,192.2,47.8,192.2,47.3z M171.1,47.7l-2.7-2.7c0,0,0-0.1-0.1-0.1   c-5-0.1-10,0.2-14.8,0.7l1.1,1.1C160,46.6,165.5,47,171.1,47.7z M149,46.1c-1.6,0.2-3.2,0.5-4.8,0.8c1.8-0.1,3.6-0.2,5.4-0.3   L149,46.1z M215.8,59.8c2.1-1.1,4.8-2.2,7.6-3.1c-0.7-0.3-1.3-0.5-2-0.8l-5.9,3.7C215.6,59.7,215.7,59.8,215.8,59.8z M195.2,51.2   l-1.6,1c1.2,0.3,2.4,0.7,3.6,1L195.2,51.2z M211.5,58.1c2.4-1.5,4.3-2.8,5.8-3.7c-6.1-2.3-12.2-4.1-18.3-5.6l-0.6,0.4l6.5,6.4   C207.1,56.4,209.3,57.2,211.5,58.1z M136,301.4c10.4,7.5,21.4,14.1,32.7,19.8c2.5-1.2,5.5-2.5,8.5-3.2c-11.2-5.5-22.1-12-32.5-19.2   L136,301.4z M232.6,337.4c-9.4-2-18.9-4.6-28.4-8c-2-0.1-3.8-0.1-5.4-0.1c-3.8,0.1-7.2,0.4-10,0.9c22.9,8.9,46.3,13.6,67.7,13.2   C248.6,341.1,240.6,339,232.6,337.4z M116.2,285.2c2.1,1.9,4.2,3.8,6.3,5.6l7.9-2.7c-2.1-1.7-4.2-3.4-6.2-5.2L116.2,285.2z    M107.9,267.4c-10.7-11.3-19.8-23.4-27.3-35.9c-0.2-0.2-0.4-0.5-0.5-0.7c-1.9-2.7-3.3-5.1-4-7.2l-4.4,1.8   c8.2,17.4,19.6,34.3,34.1,49.7c1.9,2,3.9,4.1,6,6l6.9-3.1C114.9,274.5,111.3,271,107.9,267.4z" originalFill="#FFF200"/>
	<path fill="#282E4B" d="M286.9,121.1l10.6,10.5l-3.1,2.1v0c-3-3.9-6-7.7-9.2-11.4L286.9,121.1z M181,60.1c1,0.2,2,0.4,3,0.6   l-1.5-1.5L181,60.1z M197.2,53.2c-1.2-0.4-2.4-0.7-3.6-1l-8.1,5.1l4.9,4.9c3.4,0.8,6.7,1.8,10.1,2.9c0,0,0,0,0,0   c1.8-1.2,3.6-2.3,5.2-3.3L197.2,53.2z M271.2,105.5l-10.6-10.5l-2.1,1.4v0c3.9,3.1,7.7,6.4,11.4,9.9l0,0L271.2,105.5z M204.9,66.4   c3.1,1.1,6.1,2.3,9.2,3.5l-5.7-5.7L204.9,66.4z M550.4,510l-51.5,51.9l-9.9-10.5c-2.2-8-6.5-15.4-12.3-21.6l-95.3-101.1   c-20.4-21.6-45.1-38.5-72.2-49.4c-10.4-4.2-21.8-8.6-33.3-13c-17.3-6.6-35-12-52.8-15.7c-44.5-9.2-91.5-34.8-124.7-70   c-59.2-62.8-70.5-148.7-28-198.1c4.7-7.8,10.5-15,17.4-21.3c51.5-47.5,144.1-32.3,206.7,34.1c34.9,37,59.2,87.3,65,132.8   c2.6,20.8,6.9,41.5,13.4,61.9c2.2,7,4.4,13.8,6.6,20.3c9.2,27.4,24.5,53,44.8,74.6l95.3,101.1c5.9,6.2,13.1,10.9,21,13.7l0,0   L550.4,510z M69.1,104.3c17.4-51.6,64-64.2,80.1-67c1.8-0.3,3.6-0.5,5.5-0.8c0,0-2,0.2-5.5,0.8C76,48.8,69.1,104.3,69.1,104.3z    M71.5,214.6c-7.6-15.8-12.7-32-15.2-48c0.9,16.3,4.7,33.2,11.4,49.8L71.5,214.6z M111.7,281l6.9-3.1c-3.7-3.4-7.3-6.9-10.7-10.5   c-10.7-11.3-19.8-23.4-27.3-35.9c-0.2-0.3-0.3-0.5-0.5-0.8c-1.4-2.4-2.8-4.8-4.1-7.2l-4.4,1.8c8.2,17.4,19.6,34.3,34.1,49.7   C107.7,277,109.7,279,111.7,281z M130.4,288.1c-2.1-1.7-4.2-3.4-6.2-5.2l-7.9,2.3c2.1,1.9,4.2,3.8,6.3,5.6L130.4,288.1z M177.2,318   c-11.2-5.5-22.1-12-32.5-19.2l-8.7,2.6c10.4,7.5,21.4,14.1,32.7,19.8C171.2,320,174.2,318.7,177.2,318z M256.6,343.4   c-7.9-2.3-15.9-4.3-24-6c-9.4-2-18.9-4.6-28.4-8c-2-0.1-3.8-0.1-5.4-0.1c-3.8,0.1-7.2,0.4-10,0.9   C211.8,339,235.2,343.8,256.6,343.4z M271,330.1L271,330.1c1.6,0,3.1-0.1,4.6-0.2l-0.1-0.2c5.7-0.6,11.3-1.5,16.6-2.9   c0.7-0.2,1.5-0.3,2.2-0.5l-0.1-0.1c4.5-1.3,8.7-2.9,12.8-4.8l0,0c0.1-0.1,0.3-0.1,0.5-0.2c0.1,0,0.2-0.1,0.3-0.1   c0.8-0.4,1.7-0.8,2.6-1.3l0,0c3.8-2.1,7.5-4.4,10.9-7.1c0.5,0.5,1.2,0.5,1.8,0.2c0,0,0,0,0,0c1-0.5,1.7-1.5,0.9-2.3l-0.1-0.1   c0.4-0.4,0.8-0.7,1.2-1.1c1.4-1.3,2.7-2.6,3.9-3.9c0.9-1.6,1.8-3.3,2.6-5l0.2,0.2c0.8,0.8,2.2,0.7,2.8-0.3c0,0,0,0,0,0   c0.4-0.7,0.4-1.6-0.2-2.1l-1.3-1.3c1.8-4.3,3.2-8.9,4.3-13.6l0.3,0.3c1,1,2.8,0.5,3-0.9c0,0,0,0,0,0c0.1-0.5-0.1-1.1-0.5-1.5   l-1.9-2c1-5.1,1.6-10.5,1.8-16c1.1,1.1,3.1,0.3,3-1.3l0-0.1c0-0.4-0.2-0.8-0.5-1.1l-0.6-0.6l7-4.9c0.4-0.2,0.6-0.6,0.7-1   c0.4-1.6-1.4-2.8-2.8-1.8l-6.8,4.8v0c0-5.6-0.4-11.4-1.1-17.3l0.3-0.2l1.1,1.1c1.2,1.2,3.3,0.5,3.4-1.2c0-0.6-0.2-1.1-0.6-1.5   l-0.6-0.6l4.1-2.8c0.6-0.4,0.9-1.1,0.7-1.8c0,0,0,0,0,0c-0.3-1.2-1.7-1.7-2.7-1l-4.6,3.2l-2-2c-0.7-4.2-1.5-8.5-2.6-12.8v0l8-5.5   c0.3-0.2,0.5-0.5,0.6-0.8c2.5,9.1,4.4,18.2,5.5,27c-0.4-15.1-3.3-31-8.2-47l0,0c0.4-0.2,0.6-0.6,0.7-1.1c0.3-1.2-0.7-2.2-1.8-2.2   c-1.6-4.8-3.3-9.7-5.3-14.5l0.7-0.5c0.7-0.5,0.9-1.3,0.6-2l-0.1-0.2c-0.4-1-1.6-1.4-2.5-0.8l-0.2,0.1c-1.9-4.5-4-9-6.2-13.5   l0.5-0.4c0.6-0.4,0.9-1.1,0.7-1.8c0-0.2-0.1-0.4-0.3-0.6c0,0,0,0,0,0c-0.6-0.8-1.6-1-2.4-0.4l-0.1,0.1c-0.2-0.3-0.3-0.6-0.5-1   c-1.1-0.4-2.2-0.7-3.3-0.8c-1.4-0.1-2.6-0.2-3.5-0.2c1,1.6,1.9,3.3,2.8,5l-7.2,4.9l-1.4-1.3c-2.1-3.7-4.2-7.4-6.5-11v0l11.7-7.8   c0.4-0.3,0.7-0.8,0.8-1.2c0-0.1,0-0.2,0-0.4c0-0.4-0.2-0.7-0.5-1c0,0,0,0,0,0c-0.6-0.6-1.6-0.8-2.3-0.3l-11.6,7.8   c-2.6-4.1-5.4-8.1-8.3-12l3.6-2.4l1.9,1.9c1.2,1.2,3.2,0.2,3-1.5c0-0.4-0.2-0.8-0.5-1l-1.4-1.4l1-0.7c0.3,0.4,0.6,0.9,1,1.3l6.8-1   c-0.9-1.3-1.7-2.5-2.6-3.8l0.7-0.4c0.7-0.4,0.9-1.3,0.7-2c-0.1-0.2-0.2-0.5-0.4-0.7c0,0,0,0,0,0c-0.3-0.3-0.7-0.5-1.1-0.6   c-0.2,0-0.4,0-0.6,0c-0.2,0-0.4,0.1-0.6,0.3l-0.7,0.5c-0.7-1-1.5-2-2.2-3l-6.9,1.6c1.3,1.6,2.5,3.3,3.8,4.9l-1.5,1l-10.6-10.5   l2.9-1.9c0.5,0.6,1,1.1,1.5,1.7l6.2-2.8c-0.7-0.9-1.4-1.7-2.1-2.6c0.8-0.6,0.9-1.8,0.2-2.5c0,0,0,0,0,0c-0.6-0.6-1.5-0.7-2.3-0.3   l-0.2,0.1c-2.5-3-5.1-5.8-7.7-8.6c-0.7-0.8-1.5-1.5-2.2-2.3c0.7-0.6,0.7-1.7,0.1-2.4c0,0,0,0,0,0c-0.6-0.6-1.6-0.8-2.3-0.3   l-0.3,0.2c-3.6-3.5-7.2-6.9-11-10.1l2.4-1.5c-0.5-0.5-0.9-0.9-1.3-1.4c-0.1-0.1-0.1-0.1-0.2-0.2c-0.6-0.6-1.5-0.7-2.2-0.2l-1.4,0.9   c-3.9-3.2-7.9-6.3-12-9.1c-0.3,0.1-0.6,0.1-0.8,0.2l2.3-1.5c1-0.7,1.1-2.1,0.1-2.8l0,0c-0.6-0.5-1.4-0.5-2.1-0.1l-9.4,6.1   l-10.6-10.4l5.6-3.6c1.1-0.7,1.1-2.4-0.1-3c0,0,0,0,0,0c-0.6-0.3-1.3-0.3-1.8,0.1l-6.2,4l-1.6-1.6c-0.2-0.2-0.5-0.4-0.9-0.5   c-1.7-0.4-2.9,1.7-1.6,2.9l1.1,1.1l-9.6,6.2l-10.6-10.5l4-2.5c0.1,0,0.2,0.1,0.3,0.1c2.1-1.1,4.8-2.2,7.6-3.1   c-0.7-0.3-1.3-0.5-2-0.8l0,0c1.1-0.7,1-2.2-0.1-2.8c0,0-0.1,0-0.1-0.1c-0.6-0.3-1.2-0.3-1.8,0c-0.5,0.3-1.2,0.8-2.1,1.3   c-6.1-2.3-12.2-4.1-18.3-5.6l4.1-2.6c0.2-0.1,0.3-0.2,0.4-0.4c0.2-0.3,0.3-0.6,0.4-0.9c0-0.2,0-0.3,0-0.5c-0.1-0.6-0.6-1.2-1.3-1.4   c0,0,0,0,0,0c-0.5-0.1-0.9,0-1.3,0.2l-5.4,3.4l-0.6-0.6c-0.3-0.3-0.7-0.5-1.2-0.5c-1.1-0.1-1.8,0.8-1.9,1.7   c-6.3-1.2-12.6-2-18.8-2.3l-2.5-2.5c-0.3-0.3-0.7-0.5-1.1-0.5c0,0,0,0-0.1,0c-1.6-0.2-2.6,1.7-1.5,2.9c-5-0.1-10,0.2-14.8,0.7   l-3.9-3.9c-0.4-0.4-0.8-0.5-1.3-0.5c0,0,0,0,0,0c-1.5,0.1-2.3,1.9-1.2,3l2,2c-1.6,0.2-3.2,0.5-4.8,0.8c1.8-0.1,3.6-0.2,5.4-0.3   L160.7,58c-5.1-0.1-10.1,0-15.1,0.5l-12.8-13.1c-0.4-0.4-1-0.6-1.6-0.5c-1.4,0.2-2,1.9-1,3L141.2,59c-4.4,0.6-8.7,1.4-12.9,2.5   l-9.4-9.8c-0.5-0.6-1.4-0.7-2.1-0.4c0,0,0,0,0,0c-1,0.5-1.3,1.9-0.5,2.8l8.1,8.4c-3.8,1.2-7.6,2.5-11.3,4.1l-7.8-8.1   c-0.6-0.7-1.7-0.7-2.4-0.2c0,0,0,0,0,0c-0.8,0.6-0.9,1.8-0.2,2.5l6.9,7.3c-3.4,1.7-6.8,3.5-10,5.6l-5.7-6c-0.7-0.7-1.9-0.7-2.6,0.1   c0,0-0.1,0.1-0.1,0.1c-0.6,0.7-0.5,1.6,0.1,2.2l5.3,5.6c-3,2.1-6,4.5-8.8,7l-3.1-3.3c-0.8-0.8-2.2-0.7-2.8,0.3c0,0,0,0,0,0   c-0.4,0.7-0.3,1.5,0.2,2.1l3.1,3.3c-1.8,1.8-3.6,3.6-5.3,5.5c-0.6,1-1.2,2.1-1.8,3.2l-0.7-0.7c-0.9-0.9-2.4-0.7-2.9,0.5   c0,0,0,0,0,0c-0.3,0.6-0.1,1.4,0.3,1.9l1.5,1.7c-1.8,3.7-3.4,7.4-4.8,11.3c-1-0.7-2.4-0.3-2.7,0.9c0,0,0,0,0,0   c-0.2,0.6,0,1.2,0.4,1.7l1.1,1.2c-1.3,4.3-2.4,8.7-3.2,13.2c-0.1,0.7-0.2,1.5-0.4,2.2c-0.2,1.5-0.4,3-0.6,4.6   c-0.5,4.3-0.8,8.6-0.8,13c0,1.8,0,3.6,0.1,5.3c0,1.3,0.1,2.7,0.2,4.1c0.3,5.2,0.9,10.4,1.9,15.7c0.1,0.3,0.1,0.7,0.2,1   c0.2,1.2,0.5,2.5,0.7,3.7c0.1,0.7,0.3,1.4,0.5,2.1c1,4.5,2.2,8.9,3.6,13.4c0.4,1.2,0.8,2.3,1.2,3.5c1.2,3.4,2.4,6.8,3.8,10.2   c0.6,1.4,1.2,2.9,1.8,4.3c0.5,1.1,1,2.2,1.5,3.2c0.5,1.1,1.1,2.3,1.6,3.4c1.7,3.4,3.5,6.9,5.5,10.2c0.6,1,1.2,2,1.8,3   c2.6,4.3,5.4,8.6,8.4,12.8c0.7,1,1.4,1.9,2.1,2.8c3,4.1,6.2,8.1,9.7,12c0.8,0.9,1.6,1.8,2.4,2.7c0.9,1,1.8,2,2.8,3.1   c2.6,2.8,5.3,5.5,8.1,8.1c0.9,0.8,1.8,1.7,2.7,2.5c3.9,3.6,8,7,12.2,10.3c1,0.8,2,1.5,2.9,2.3c3,2.3,6.1,4.5,9.3,6.7   c1.4,0.9,2.7,1.9,4.1,2.8c1.1,0.7,2.1,1.4,3.2,2.1c1.2,0.8,2.5,1.5,3.7,2.3c3.6,2.2,7.2,4.3,10.9,6.2c1.2,0.6,2.4,1.3,3.5,1.9   c5.2,2.7,10.5,5.2,15.8,7.4c0.1,0,0.2,0.1,0.2,0.1c1.3,0.5,2.6,1.1,3.9,1.6c1.1,0.4,2.2,0.9,3.3,1.3c4.8,1.8,9.7,3.5,14.5,5   c1.5,0.4,2.9,0.9,4.4,1.3c1.5,0.4,3.1,0.8,4.6,1.2l0.1,0.2c2,0.5,4,0.9,6,1.3l0-0.1c3.2,0.7,6.4,1.3,9.5,1.8   c1.7,0.3,3.4,0.5,5.1,0.8C252.9,330.2,262.2,330.6,271,330.1z M281.1,334.8c0,0,65.5-5.5,70.6-67.8   C351.7,267,344.8,324.7,281.1,334.8z M350.4,382.2c-10.1-6.3-20.7-11.8-31.7-16.2c-10.4-4.2-21.8-8.6-33.3-13   c-0.9-0.4-1.9-0.7-2.8-1.1c-5.6,1.1-11.4,1.8-17.4,2.1l82.4,33.5c0,0,0.1,0,0.1,0.1C351.2,389.1,353.6,384.2,350.4,382.2z    M375.7,361.6l-23.3-69.2c-3.4,7.9-8,15.1-13.7,21.5c-3.8,6.6-8.5,12.5-14.1,17.8c-8.6,7.9-18.9,13.6-30.3,17.3l62.8,25.6   c6.7,2.7,13.8,2.3,19.4-0.8C377.3,369.9,377.1,365.7,375.7,361.6z M385.3,348.5L359,270.3c-0.6,3.2-1.3,6.3-2.1,9.4   c1.8,7.8,4,15.6,6.4,23.3c2.2,7,4.4,13.8,6.6,20.3c4.2,12.6,9.7,24.7,16.4,36.3C386.8,356.1,386.5,352.3,385.3,348.5z M327.1,181.5   l-3.4,2.3l0,0c2,4.7,3.9,9.3,5.5,14l8.1-5.6c-1.8-4.6-3.7-9.2-5.8-13.8l-2.5,1.7C328.8,181,328,181.5,327.1,181.5z M331.2,203.7   l8.9,8.9l1.7-1.2c0.7-0.4,1.4-0.4,2,0c-1.5-5.2-3.2-10.4-5.1-15.7l-8.2,5.6C330.7,202.1,330.9,202.9,331.2,203.7z M334.8,216.2   l2.1-1.4l-3.3-3.4C334,213,334.4,214.6,334.8,216.2z M242.8,85.1L242.8,85.1c4.3,2.8,8.6,5.8,12.8,9l0,0l2.5-1.6l-10.6-10.5   L242.8,85.1z M319.7,175.2c0.9,1.8,1.7,3.6,2.5,5.3l1.7-1.2L319.7,175.2z M234.3,69.1l-9.3,5.9c4.8,2.4,9.6,5.1,14.4,8l5.4-3.5   L234.3,69.1z M272.5,108.9L272.5,108.9c2.1,2.1,4.2,4.2,6.3,6.4c1.3,1.4,2.6,2.8,3.9,4.3l1.6-1l-10.6-10.5L272.5,108.9z M189,51   c-4.1-1-8.1-1.8-12.1-2.4l6.2,6.2L189,51z M154.5,46.6L166,58.3c3.2,0.2,6.5,0.6,9.8,1l4.2-2.6l-8.9-9   C165.5,47,160,46.6,154.5,46.6z M211.5,58.1c-2.2-0.9-4.4-1.7-6.6-2.4l4.1,4C209.8,59.1,210.7,58.6,211.5,58.1z M287.3,116.5   l3.1-2.1c-1.8-2.1-3.7-4.1-5.5-6.1c-1.5-1.6-3-3.1-4.5-4.7l-3.6,2.4L287.3,116.5z M263.8,88.8c-4-3.3-8.2-6.4-12.4-9.3l-0.9,0.6   l10.6,10.4L263.8,88.8z M274.2,103.5l3.6-2.4c-3.6-3.5-7.4-6.9-11.2-10.1l-3,2L274.2,103.5z M330.1,175.2   c-2.1-4.4-4.3-8.8-6.6-13.2l-6.4,4.3l10.6,10.5L330.1,175.2z" originalFill="#282E4B"/>
	<path fill="#97999C" d="M80.2,230.7c0.2,0.3,0.3,0.5,0.5,0.8C80.4,231.3,80.3,231,80.2,230.7L80.2,230.7z M67.7,216.4l3.8-1.8   c-7.6-15.8-12.7-32-15.2-48C57.1,182.9,61,199.7,67.7,216.4z M349.2,255.1l-7,4.9l0.6,0.6c0.3,0.3,0.5,0.7,0.5,1.1l0,0.1   c0.1,1.6-1.9,2.5-3,1.3c0,0,0,0,0,0l-1-1l-10.3,7.2l9.5,9.8l1.9,2c0.4,0.4,0.6,1,0.5,1.5c0,0,0,0,0,0c-0.2,1.4-2,2-3,0.9l-0.3-0.3   L326,271.3l-10.3,7.2l17.5,18.3l1.3,1.3c0.6,0.6,0.6,1.5,0.2,2.1c0,0,0,0,0,0c-0.6,1-2,1.1-2.8,0.3l-0.2-0.2l-18.9-19.8l-10.3,7.2   l21.5,22.7l0.1,0.1c0.8,0.8,0.1,1.8-0.9,2.3c0,0,0,0,0,0c-0.7,0.3-1.3,0.3-1.8-0.2c0,0,0,0,0,0l-21.7-22.9l-10.5,7.3l21.3,22.7l0,0   c-0.9,0.5-1.8,0.9-2.6,1.3c-0.1,0-0.2,0.1-0.3,0.1c-0.2,0.1-0.3,0.2-0.5,0.2l0,0l-20.9-22.3l-0.1,0.1l-10.3,7.2l18.5,19.9l0.1,0.1   c-0.7,0.2-1.5,0.3-2.2,0.5c-0.6,0.1-1.2,0.3-1.8,0.4l-17.5-18.8l-10.3,7.2l13,14.1l0.1,0.2c-1.5,0.1-3,0.2-4.6,0.3l-0.1-0.1   l-11.4-12.4l-10.4,7.2l4.5,5c-1.7-0.1-3.5-0.3-5.2-0.4l-2.3-2.5l-2.8,2c-1.7-0.2-3.4-0.5-5.1-0.8l5.5-3.9L233.5,313l-10.3,7.2   l5.6,6.2l0.1,0.1c-2-0.4-4-0.9-6-1.3l-0.1-0.2l-2.4-2.7l-2.1,1.5c-1.5-0.4-2.9-0.8-4.4-1.3l4.1-2.9l-10.3-11.4l-10.3,7.1l2,2.2   c-1.1-0.4-2.2-0.9-3.3-1.3c-1.3-0.5-2.6-1.1-3.9-1.6c-0.1,0-0.2-0.1-0.2-0.1l-10.1-11.3L176,307c-1.2-0.6-2.4-1.2-3.5-1.9l6.9-4.7   L169,288.9l-10.2,6.9l2.7,3c-1.2-0.8-2.5-1.5-3.7-2.3c-1.1-0.7-2.2-1.4-3.2-2.1c-1.4-0.9-2.8-1.8-4.1-2.8l-7.2-8.1l-2.1,1.4   c-1-0.8-2-1.5-2.9-2.3l2.7-1.8l-10.3-11.6l-4.6,3.1c-0.9-0.8-1.8-1.6-2.7-2.5l4.9-3.3L118,255.1l-5.5,3.7c-0.8-0.9-1.6-1.8-2.4-2.7   l5.5-3.7l-10.2-11.6l-4.9,3.3c-0.7-0.9-1.4-1.9-2.1-2.8l4.7-3.1l-10.2-11.6l-2.8,1.9c-0.6-1-1.2-2-1.8-3l2.3-1.5l-7.8-8.7   c-0.6-1.1-1.1-2.2-1.6-3.4c-0.5-1.1-1-2.2-1.5-3.2c-0.6-1.4-1.2-2.9-1.8-4.3l3.1,3.5l9.9-6.4l-10.3-11.5l-6.6,4.2   c-0.4-1.2-0.8-2.3-1.2-3.5l5.3-3.4l-8.9-10c-0.2-0.7-0.3-1.4-0.5-2.1c-0.3-1.2-0.5-2.5-0.7-3.7c-0.1-0.3-0.1-0.7-0.2-1l0.6,0.7   l8-5.2l0,0l1.7-1.1l-10.3-11.4l-2,1.3c-0.1-1.4-0.2-2.7-0.2-4.1c-0.1-1.8-0.1-3.6-0.1-5.3l3,3.5l4.7-3l0,0c0,0,0.2-0.1,0.5-0.3   l4.4-2.8l-10.3-11.3l-1.5,0.9c0.2-1.5,0.4-3,0.6-4.6c0.1-0.7,0.2-1.5,0.4-2.2l1.1,1.2l9.7-6.1l-7.6-8.3l-1.1-1.2   c-0.4-0.4-0.6-1.1-0.4-1.7c0,0,0,0,0,0c0.3-1.2,1.8-1.6,2.7-0.9c0.1,0.1,0.2,0.1,0.3,0.2l9.2,10l9.7-6.1L76.6,97.3l-1.5-1.7   c-0.5-0.5-0.6-1.2-0.3-1.9c0,0,0,0,0,0c0.5-1.2,2.1-1.4,2.9-0.5l0.7,0.7L94,110.8l9.7-6.1L85.4,85.3l-3.1-3.3   c-0.5-0.6-0.6-1.4-0.2-2.1c0,0,0,0,0,0c0.6-1,2-1.1,2.8-0.3l3.1,3.3l18.8,20l9.7-6.1L96.7,75.9l-5.3-5.6c-0.6-0.6-0.6-1.6-0.1-2.2   c0,0,0.1-0.1,0.1-0.1c0.7-0.8,1.9-0.8,2.6-0.1l5.7,6l19.8,20.9l9.7-6.1l-19.5-20.4l-6.9-7.3c-0.7-0.7-0.6-1.9,0.2-2.5c0,0,0,0,0,0   c0.7-0.6,1.8-0.5,2.4,0.2l7.8,8.1l19.1,20l9.6-6l-17.5-18.1l-8.1-8.4c-0.8-0.8-0.6-2.2,0.5-2.8c0,0,0,0,0,0   c0.7-0.4,1.5-0.2,2.1,0.4l9.4,9.8l16.7,17.2l9.6-6.1L141.2,59l-10.9-11.2c-1-1-0.4-2.7,1-3c0.6-0.1,1.2,0.1,1.6,0.5l12.8,13.1   l12,12.3l9.7-6.1l-6.6-6.6l-11.2-11.3l-0.6-0.6l-2-2c-1.1-1.1-0.3-2.9,1.2-3c0,0,0,0,0,0c0.5,0,1,0.2,1.3,0.5l3.9,3.9l1.1,1.1   L166,58.3l4.4,4.4l5.4-3.4l4.2-2.6l-8.9-9l-2.7-2.7c0,0,0-0.1-0.1-0.1c-1-1.2-0.1-3.1,1.5-2.9c0,0,0,0,0.1,0c0.4,0,0.8,0.2,1.1,0.5   l2.5,2.5l3.5,3.5l6.2,6.2l6-3.8l3.7-2.3c-0.4-0.4-0.5-0.9-0.5-1.3c0-0.9,0.8-1.8,1.9-1.7c0.4,0,0.9,0.2,1.2,0.5l0.6,0.6l5.4-3.4   c0.4-0.2,0.9-0.3,1.3-0.2c0,0,0,0,0,0c0.7,0.2,1.2,0.8,1.3,1.4c0,0.2,0,0.3,0,0.5c0,0.3-0.2,0.6-0.4,0.9c-0.1,0.1-0.2,0.3-0.4,0.4   l-4.1,2.6l-0.6,0.4l6.5,6.4l4.1,4c0.9-0.6,1.7-1.1,2.5-1.6c2.4-1.5,4.3-2.8,5.8-3.7c0.9-0.6,1.6-1,2.1-1.3c0.5-0.3,1.2-0.3,1.8,0   c0,0,0.1,0,0.1,0.1c1.1,0.6,1.2,2.2,0.1,2.8l0,0l-5.9,3.7l-4,2.5l10.6,10.5l9.6-6.2l-1.1-1.1c-1.2-1.2-0.1-3.3,1.6-2.9   c0.3,0.1,0.6,0.2,0.9,0.5l1.6,1.6l6.2-4c0.5-0.3,1.2-0.4,1.8-0.1c0,0,0,0,0,0c1.2,0.6,1.2,2.3,0.1,3l-5.6,3.6l10.6,10.4l9.4-6.1   c0.6-0.4,1.5-0.4,2.1,0.1l0,0c0.9,0.7,0.9,2.2-0.1,2.8l-2.3,1.5l-5.6,3.6l-0.9,0.6l10.6,10.4l2.7-1.8l6-3.9l1.4-0.9   c0.7-0.5,1.6-0.4,2.2,0.2c0.1,0.1,0.1,0.1,0.2,0.2c0.5,0.5,0.9,0.9,1.3,1.4l-2.4,1.5l-6,3.9l-3,2l10.6,10.4l3.6-2.4l5.9-3.8   l0.3-0.2c0.7-0.5,1.7-0.4,2.3,0.3c0,0,0,0,0,0c0.6,0.7,0.6,1.8-0.1,2.4c-0.1,0.1-0.2,0.1-0.2,0.2l-5.5,3.6l-3.6,2.4l10.6,10.5   l3.1-2.1l5.6-3.7l0.2-0.1c0.7-0.5,1.7-0.4,2.3,0.3c0,0,0,0,0,0c0.7,0.7,0.6,1.9-0.2,2.5c0,0-0.1,0.1-0.1,0.1l-5.4,3.6l-2.9,1.9   l10.6,10.5l1.5-1l5.3-3.5l0.7-0.5c0.2-0.1,0.4-0.2,0.6-0.3c0.2,0,0.4-0.1,0.6,0c0.4,0,0.8,0.2,1.1,0.6c0,0,0,0,0,0   c0.2,0.2,0.3,0.4,0.4,0.7c0.2,0.7,0,1.5-0.7,2l-0.7,0.4l-5.2,3.5l-1,0.7l1.4,1.4c0.3,0.3,0.5,0.6,0.5,1c0.2,1.7-1.8,2.6-3,1.5   l-1.9-1.9l-3.6,2.4l-5.8,3.8l10.6,10.5l3.5-2.3l11.6-7.8c0.7-0.5,1.7-0.4,2.3,0.3c0,0,0,0,0,0c0.3,0.3,0.4,0.7,0.5,1   c0,0.1,0,0.2,0,0.4c-0.1,0.5-0.3,0.9-0.8,1.2l-11.7,7.8l0,0l-2.8,1.9l9.3,9.1l1.4,1.3l7.2-4.9l4.4-3l0.1-0.1   c0.8-0.5,1.9-0.3,2.4,0.4c0,0,0,0,0,0c0.1,0.2,0.2,0.4,0.3,0.6c0.1,0.7-0.1,1.4-0.7,1.8l-0.5,0.4l-4.4,2.9l-6.4,4.3l10.6,10.5   l2.4-1.6l3.9-2.6l0.2-0.1c0.9-0.6,2.1-0.2,2.5,0.8l0.1,0.2c0.3,0.7,0,1.6-0.6,2l-0.7,0.5l-3.8,2.6l-2.5,1.7c-0.3,0.8-1.1,1.3-2,1.4   l-3.4,2.3l0,0l-7.3,5l10.6,10.6l2.3-1.5l8.1-5.6l2.3-1.6c0.3-0.2,0.6-0.3,1-0.3c1.1,0,2.1,0.9,1.8,2.2c-0.1,0.4-0.4,0.8-0.7,1.1   l0,0l-3.1,2.1l-8.2,5.6l-0.9,0.6l1.7,1.7l8.9,8.9l1.7-1.2c0.7-0.4,1.4-0.4,2,0c0.6,0.4,0.9,1.1,0.8,1.9l0,0.1   c0,0.1-0.1,0.2-0.1,0.3c-0.1,0.3-0.3,0.6-0.6,0.8l-8,5.5v0l-6,4.1l8.5,8.6l2,2l4.6-3.2c1-0.7,2.4-0.2,2.7,1c0,0,0,0,0,0   c0.2,0.7-0.1,1.4-0.7,1.8l-4.1,2.8l0.6,0.6c0.4,0.4,0.6,0.9,0.6,1.5c-0.1,1.7-2.2,2.5-3.4,1.2l-1.1-1.1l-0.3,0.2l-10.1,7l10.5,10.8   l0.7-0.5l0,0l6.8-4.8c1.3-0.9,3.1,0.3,2.8,1.8C349.8,254.5,349.6,254.8,349.2,255.1z M167.1,263.3l-10.3-11.4l-10.1,6.8l10.3,11.5   L167.1,263.3z M224.8,96.7l10.5,10.6l9.8-6.4l-10.6-10.5L224.8,96.7z M251,123l10.5,10.6l9.9-6.5l-10.6-10.5L251,123z M285.3,165.8   l-7.8,5.2l10.5,10.7l9.6-6.5l-10.5-10.6L285.3,165.8z M310.5,255.3L300,244.4l-10.2,7.1l10.5,10.9L310.5,255.3z M251.3,144.6   l10.5,10.7l9.6-6.4l-10.5-10.6L251.3,144.6z M167.7,217.9l-10.4-11.2l-10,6.6l10.3,11.3L167.7,217.9z M144.9,210.6l10-6.6   l-10.4-11.2l-9.9,6.5L144.9,210.6z M222.1,248.6l10.2-6.9l-10.4-11.1l-10.1,6.8L222.1,248.6z M167.8,195.4l-10.4-11.2l-9.9,6.5   l10.3,11.2L167.8,195.4z M134.9,154.8l10.4,11.1l9.9-6.4l-10.4-11.1L134.9,154.8z M225.2,161.8l10.5,10.8l10-6.6l-10.5-10.8   L225.2,161.8z M199.3,156.8l10.4,10.9l9.9-6.5l-10.5-10.8L199.3,156.8z M232.6,196.8l-10.5-10.9l-10,6.6l10.4,11L232.6,196.8z    M206.8,169.8l-10.4-10.9l-9.9,6.5l10.4,11L206.8,169.8z M199.3,178.9l10.4,11l10-6.6l-10.4-10.9L199.3,178.9z M225.3,179.5   l7.3-4.9l-10.5-10.8l-9.9,6.6l10.4,10.9L225.3,179.5z M193.8,156.2l-10.4-10.9l-9.9,6.4l10.4,11L193.8,156.2z M181,164.7l-10.4-11   l-10,6.5l10.4,11.1L181,164.7z M147.7,168.5l10.4,11.2l9.9-6.5l-10.4-11.1L147.7,168.5z M160.5,182.3l10.4,11.2l10-6.6l-10.4-11.1   L160.5,182.3z M183.8,184.9l10-6.6l-10.4-11l-10,6.6L183.8,184.9z M186.3,187.5l10.4,11.1l10.1-6.7l-10.4-11L186.3,187.5z    M199.1,201.2l10.4,11.1l10.2-6.8l-10.4-11L199.1,201.2z M212,214.9l10.4,11.1l10.2-6.9l-10.4-11L212,214.9z M235.5,217.1l10-6.8   l-10.5-10.9l-10,6.7L235.5,217.1z M248.5,208.3l10.1-6.8l-10.5-10.9l-10,6.7L248.5,208.3z M245.6,188.1l-10.5-10.9l-10,6.6   l10.4,10.9L245.6,188.1z M232.6,152.7l-10.5-10.8l-9.9,6.5l10.5,10.8L232.6,152.7z M219.6,139.4l-10.5-10.8l-9.8,6.4l10.5,10.8   L219.6,139.4z M196.2,137l-9.8,6.4l10.4,10.9l9.9-6.5L196.2,137z M193.7,134.4l-10.5-10.8l-9.8,6.3l10.4,10.9L193.7,134.4z    M160.6,138.1l10.4,11l9.8-6.4l-10.4-10.9L160.6,138.1z M157.6,140.1l-9.9,6.4l10.4,11.1l9.9-6.5L157.6,140.1z M134.8,176.9   l10.3,11.2l9.9-6.5l-10.4-11.2L134.8,176.9z M173.3,196.1l10.4,11.2l10-6.7l-10.4-11.1L173.3,196.1z M186.1,209.9l10.4,11.2   l10.1-6.7l-10.4-11.1l-8.1,5.4L186.1,209.9z M198.9,223.7l10.4,11.2l10.1-6.8L209,216.9L198.9,223.7z M235.2,239.7l10.3-7l-10.4-11   l-10.2,6.9L235.2,239.7z M248.4,230.7l10.1-6.8L248,212.9l-10.1,6.8L248.4,230.7z M261.5,221.8l10.1-6.9l-10.5-10.9l-10.1,6.8   L261.5,221.8z M284.7,206.1l-10.5-10.8l-10.1,6.8l10.5,10.8L284.7,206.1z M271.6,192.7L261.1,182l-10,6.7l10.5,10.8L271.6,192.7z    M258.6,179.4l-10.5-10.8l-10,6.6l10.5,10.8L258.6,179.4z M258.6,157.4l-10.5-10.7l-10,6.6l10.5,10.8L258.6,157.4z M245.6,144.1   L235,133.4l-9.9,6.5l10.5,10.8L245.6,144.1z M232.5,130.9L222,120.2l-9.9,6.4l10.5,10.8L232.5,130.9z M206.6,126l-10.5-10.8   l-9.8,6.3l10.5,10.8L206.6,126z M193.6,112.7l-10.5-10.8l-3,1.9l-6.7,4.3l10.5,10.8L193.6,112.7z M170.3,110.1l-9.7,6.2l10.4,10.9   l9.7-6.3L170.3,110.1z M157.5,118.3l-9.8,6.3l10.4,11l9.8-6.3L157.5,118.3z M144.7,126.5l-9.9,6.3l10.4,11.1l9.9-6.4L144.7,126.5z    M131.8,134.7l-9.8,6.3l10.4,11.1l9.8-6.3L131.8,134.7z M109.2,149.2l10.3,11.2l9.8-6.3L119,142.9L109.2,149.2z M122,163.1   l10.3,11.2l9.9-6.4l-10.4-11.2L122,163.1z M121.9,185.3l10.3,11.3l9.9-6.5l-10.4-11.2L121.9,185.3z M170.7,215.9l10-6.6l-10.4-11.2   l-10,6.6L170.7,215.9z M173.1,218.5l10.3,11.2l10-6.7l-10.4-11.2L173.1,218.5z M185.9,232.4l10.4,11.2l10.1-6.8l-10.4-11.2   L185.9,232.4z M198.6,246.2l10.4,11.2l10.1-6.9l-10.4-11.2L198.6,246.2z M224.5,251.2l10.4,11.2l10.1-6.9c0,0,0,0,0,0l0.1-0.1   l-10.4-11.1L224.5,251.2z M248.1,253.4l10.3-7l-10.4-11l-10.3,7L248.1,253.4z M261.3,244.3l10.1-6.9L261,226.5l-10.1,6.9   L261.3,244.3z M284.6,228.4l-10.5-10.9l-10.1,6.9l10.5,10.9L284.6,228.4z M276.9,238l10.5,10.9l10.2-7L287.1,231L276.9,238z    M300.5,239.8l10.2-7L300.2,222L290,229L300.5,239.8z M297.7,219.4l-10.5-10.8l-10.1,6.9l10.5,10.8L297.7,219.4z M297.8,197.1   l-10.5-10.7l-10.1,6.8l10.5,10.8L297.8,197.1z M284.7,183.9l-10.5-10.7l-10.1,6.8l10.5,10.8L284.7,183.9z M271.7,170.6l-10.5-10.7   l-1.1,0.7l-8.9,5.9l10.5,10.8L271.7,170.6z M258.4,135.7l-10.5-10.6l-9.6,6.3l10.5,10.7L258.4,135.7z M245.3,122.5l-10.5-10.6   l-9.6,6.3l10.5,10.7L245.3,122.5z M232.2,109.3l-10.5-10.6l-9.6,6.2l10.5,10.7L232.2,109.3z M208.9,106.9l-9.8,6.3l10.5,10.8   l9.9-6.4L208.9,106.9z M206.4,104.4l-10.5-10.7l-9.8,6.3l10.5,10.7L206.4,104.4z M193.3,91.1l-10.5-10.7l-9.7,6.2l10.5,10.7   L193.3,91.1z M170.1,88.6l-9.7,6.2l10.5,10.8l9.7-6.2L170.1,88.6z M157.3,96.7l-9.7,6.1l10.4,10.9l9.7-6.2L157.3,96.7z    M144.6,104.7l-9.7,6.2l10.4,11l9.8-6.3L144.6,104.7z M131.8,112.9l-9.8,6.2l10.4,11.1l9.8-6.3L131.8,112.9z M119,121l-2.6,1.7   l-7.1,4.5l10.4,11.1l9.8-6.3L119,121z M106.2,129.1l-9.7,6.2l10.3,11.2l9.8-6.3L106.2,129.1z M96.4,157.4l10.3,11.3l9.8-6.3   l-10.3-11.2L96.4,157.4z M109.2,171.4l10.3,11.3l9.9-6.4L119,165L109.2,171.4z M109,193.7l10.3,11.4l9.9-6.5l-10.3-11.3L109,193.7z    M121.7,207.7l10.3,11.4l10-6.6l-10.3-11.3L121.7,207.7z M134.4,221.8l10.3,11.4l10-6.7l-10.3-11.3L134.4,221.8z M147.1,235.8   l10.3,11.4l10.1-6.7l-10.3-11.3L147.1,235.8z M170.4,238.5l10.1-6.7l-10.4-11.2l-10,6.7L170.4,238.5z M183.1,252.4l10.1-6.8   l-10.4-11.2l-10.1,6.8L183.1,252.4z M185.5,255.1l10.3,11.3l10.2-6.9l-10.4-11.2L185.5,255.1z M198.3,269l10.3,11.3l10.2-7   l-10.4-11.2L198.3,269z M221.8,271.4l10.2-7l-10.4-11.2l-10.1,6.9L221.8,271.4z M224.2,274l10.4,11.2l10.2-7L234.4,267L224.2,274z    M247.7,276.2l10.3-7.1L247.6,258l-0.6,0.4l-9.7,6.6L247.7,276.2z M271.3,259.9l-10.4-11l-10.3,7.1l10.4,11.1L271.3,259.9z    M284.4,250.9L273.9,240l-10.1,6.9l10.4,11L284.4,250.9z M323.9,223.7L313.4,213l-10.2,7l10.5,10.8L323.9,223.7z M310.9,210.4   l-10.5-10.7l-10.2,6.9l10.5,10.8L310.9,210.4z M310.7,188.4l-10.5-10.6l-9.6,6.5l10.5,10.7L310.7,188.4z M284.5,162L274,151.4   l-9.6,6.4l10.5,10.7l7.3-4.9l0,0L284.5,162z M284.5,140.1L274,129.6l-9.9,6.5l10.5,10.6l0.6-0.4L284.5,140.1z M258.3,114   l-10.6-10.5l-9.8,6.4l10.5,10.6L258.3,114z M219.1,96.1l-10.5-10.6l-9.6,6.1l10.5,10.7L219.1,96.1z M206.1,83l-10.5-10.6l-9.6,6.1   l10.5,10.7L206.1,83z M103.8,126.5l-10.4-11.2l-9.7,6.1L94,132.7L103.8,126.5z M83.7,143.5L94,154.8l9.8-6.3l-10.3-11.2L83.7,143.5   z M83.6,165.6L93.9,177l9.8-6.3l-10.3-11.3L83.6,165.6z M96.3,179.7l10.3,11.4l9.9-6.4l-10.3-11.3L96.3,179.7z M96.1,202.1   l10.3,11.5l9.9-6.5L106,195.7L96.1,202.1z M108.7,216.2l10.3,11.5l10-6.6l-10.3-11.4L108.7,216.2z M121.4,230.4l10.3,11.5l10-6.7   l-10.3-11.4L121.4,230.4z M134,244.5l10.3,11.5l10.1-6.8l-10.3-11.4L134,244.5z M170,261.3l10.1-6.8l-10.3-11.3l-3.2,2.1l0,0   l-6.9,4.6L170,261.3z M172.4,263.9l10.3,11.4l10.2-6.9l-10.3-11.3L172.4,263.9z M185.1,278l10.3,11.4l10.2-7l-10.3-11.3L185.1,278z    M197.8,292l10.3,11.4l10.3-7.1L208.1,285L197.8,292z M221.3,294.3l9.3-6.4l0,0l1-0.7L221.2,276l-10.2,7L221.3,294.3z M223.7,297   l10.3,11.3l10.3-7.1L234,289.9L223.7,297z M257.6,292l-10.4-11.2l-10.2,7l10.4,11.2L257.6,292z M270.8,282.8l-10.4-11.1l-10.3,7.1   l10.4,11.2L270.8,282.8z M284.2,273.5l-10.4-11l-10.4,7.1l10.4,11.1L284.2,273.5z M297.3,264.5l-10.5-10.9l-10.2,7l10.4,11   L297.3,264.5z M289.6,274.1l10.4,11l10.2-7.1L299.8,267L289.6,274.1z M313.2,275.9l10.3-7.2L313,257.9l-10.3,7.1L313.2,275.9z    M323.7,246.1l-10.5-10.8l-10.2,7l10.5,10.9L323.7,246.1z M326.5,226.2l-10.3,7.1l10.5,10.8l10.3-7.2L326.5,226.2z M316.7,210.7   l10.6,10.7l7.6-5.2l2.1-1.4l-3.3-3.4l-7.2-7.3L316.7,210.7z M313.2,190.9l-9.7,6.6l10.6,10.7l9.7-6.6L313.2,190.9z M303.3,175.6   l10.6,10.6l8.4-5.7l1.7-1.2l-4.2-4.2l-6.4-6.4L303.3,175.6z M300.2,155.8l-10,6.7l10.5,10.6l10-6.8L300.2,155.8z M287.1,142.7   l-10,6.6l10.5,10.6l10-6.7L287.1,142.7z M285.1,122.2l-7.6,5l10.6,10.5l6.2-4.1l0,0l3.1-2.1l-10.6-10.5L285.1,122.2z M272.5,108.9   L272.5,108.9l-8.2,5.4l10.6,10.5l7.9-5.2l1.6-1l-10.6-10.5L272.5,108.9z M258.5,96.5L258.5,96.5l-7.4,4.8l10.6,10.5l8.2-5.4v0   l1.3-0.8l-10.6-10.5L258.5,96.5z M242.8,85.1L242.8,85.1l-4.8,3.1l10.6,10.5l7-4.6l0,0l2.5-1.6l-10.6-10.5L242.8,85.1z M224.7,75.2   l10.6,10.5l4.1-2.7l5.4-3.5l-10.6-10.5l-9.3,5.9L224.7,75.2z M211.7,83.5l10.5,10.6l9.8-6.3l-10.6-10.5L211.7,83.5z M204.9,66.4   l-6.2,4L209.2,81l9.7-6.2l-4.8-4.8l-5.7-5.7L204.9,66.4z M185.6,57.2l4.9,4.9l5.7,5.7l4.5-2.8c0,0,0,0,0,0c1.8-1.2,3.6-2.3,5.2-3.3   l-8.5-8.5l-2-2l-1.6,1L185.6,57.2z M172.9,65.2l10.5,10.6l9.6-6.1l-9-9.1l-1.5-1.5l-1.5,0.9L172.9,65.2z M160.1,73.3L170.6,84   l9.7-6.2l-10.5-10.7L160.1,73.3z M147.4,81.3l10.5,10.8l9.7-6.1L157,75.2L147.4,81.3z M134.7,89.3l10.4,10.9l9.6-6.1l-10.5-10.8   L134.7,89.3z M131.7,91.2l-9.7,6.1l10.4,11l9.7-6.2L131.7,91.2z M109.2,105.4l10.4,11.1l9.8-6.2l-10.4-11L109.2,105.4z    M106.1,107.3l-9.7,6.1l10.4,11.1l9.7-6.2L106.1,107.3z M80.8,140.3l0.5,0.5l9.7-6.2l-10.3-11.2l-9.7,6.1L80.8,140.3z M81.2,163   l9.8-6.3l-10.3-11.3l-2.8,1.8l-6.8,4.4l4.8,5.5L81.2,163z M81.3,185.1L81.3,185.1l9.5-6.2l-10.3-11.4l-9.8,6.3L81,185.3L81.3,185.1   z M93.7,199.4l9.9-6.4l-10.3-11.4l-9.8,6.4L93.7,199.4z M96.4,220.1l6.9-4.5l-10.3-11.5l-9.9,6.4L93.4,222L96.4,220.1z    M107.2,235.5l8.8-5.8l-10.3-11.5l-2.9,1.9l-4.5,3l0,0l-2.5,1.6l10.2,11.6L107.2,235.5z M118.6,250.5l10-6.7l-10.3-11.5l-10,6.6   L118.6,250.5z M131.2,264.7l10.1-6.8L131,246.5l-10,6.7L131.2,264.7z M143.8,278.9l10.1-6.8l-10.3-11.5l-9.5,6.4l0,0l-0.6,0.4   L143.8,278.9z M166.6,286.3l-10.3-11.5l-10.1,6.8l10.2,11.6L166.6,286.3z M179.8,277.3l-10.3-11.4l-10.1,6.8l10.3,11.5L179.8,277.3   z M192.5,291.4L182.2,280l-10.2,6.9l10.3,11.5L192.5,291.4z M205.2,305.4L194.9,294l-10.2,7l10.3,11.5L205.2,305.4z M231.1,310.3   L220.8,299l-10.3,7.1l10.3,11.4L231.1,310.3z M257.2,315l-10.4-11.3l-2,1.4l-8.3,5.7l10.3,11.3L257.2,315z M270.4,305.8L260,294.6   l-10.3,7.1l10.4,11.2L270.4,305.8z M283.7,296.5l-10.4-11.1l-10.3,7.2l10.4,11.2L283.7,296.5z M297.1,287.1l-10.4-11l-10.4,7.2   l10.4,11.1L297.1,287.1z M336.7,259.5l-10.5-10.8l-10.3,7.1l10.5,10.9L336.7,259.5z" originalFill="#97999C"/>
	<path fill="#FFFFFF" d="M300.4,116.1l-6.2,2.8c-0.5-0.6-1-1.1-1.5-1.7l5.4-3.6c0,0,0.1-0.1,0.1-0.1   C299,114.3,299.7,115.2,300.4,116.1z M304.1,131.4c0.3,0.4,0.6,0.9,1,1.3l6.8-1c-0.9-1.3-1.7-2.5-2.6-3.8L304.1,131.4z    M288.4,102.1c-0.7-0.8-1.5-1.5-2.2-2.3c-0.1,0.1-0.2,0.1-0.2,0.2l-5.5,3.6c1.5,1.5,3,3.1,4.5,4.7c1.9,2,3.7,4,5.5,6.1l5.6-3.7   C293.6,107.8,291,104.9,288.4,102.1z M305,122l-6.9,1.6c1.3,1.6,2.5,3.3,3.8,4.9l5.3-3.5C306.5,124,305.8,123,305,122z M272.7,87.2   l-6,3.9c3.8,3.2,7.5,6.5,11.2,10.1l5.9-3.8C280.1,93.8,276.4,90.4,272.7,87.2z M257.8,75.7c-0.3,0.1-0.6,0.1-0.8,0.2l-5.6,3.6   c4.2,2.9,8.3,6,12.4,9.3l6-3.9C265.9,81.6,261.9,78.6,257.8,75.7z M343.7,211.4c0.6,0.4,0.9,1.1,0.8,1.9l0,0.1   c0,0.1-0.1,0.2-0.1,0.3c2.5,9.1,4.4,18.2,5.5,27c-0.4-15.1-3.3-31-8.2-47l-3.1,2.1C340.5,200.9,342.2,206.2,343.7,211.4z    M326.2,155.9c-0.2-0.3-0.3-0.6-0.5-1c-1.1-0.4-2.2-0.7-3.3-0.8c-1.4-0.1-2.6-0.2-3.5-0.2c1,1.6,1.9,3.3,2.8,5L326.2,155.9z    M330.1,175.2l3.9-2.6c-1.9-4.5-4-9-6.2-13.5l-4.4,2.9C325.8,166.4,328,170.8,330.1,175.2z M337.3,192.3l2.3-1.6   c0.3-0.2,0.6-0.3,1-0.3c-1.6-4.8-3.3-9.7-5.3-14.5l-3.8,2.6C333.6,183.1,335.6,187.7,337.3,192.3z M350.4,382.2   c-10.1-6.3-20.7-11.8-31.7-16.2c-10.4-4.2-21.8-8.6-33.3-13c-0.9-0.4-1.9-0.7-2.8-1.1c-5.6,1.1-11.4,1.8-17.4,2.1l82.4,33.5   c0,0,0.1,0,0.1,0.1C351.2,389.1,353.6,384.2,350.4,382.2z M281.1,334.8c0,0,65.5-5.5,70.6-67.8C351.7,267,344.8,324.7,281.1,334.8z    M154.6,36.6c0,0-2,0.2-5.5,0.8C150.9,37,152.7,36.8,154.6,36.6z M69.1,104.3c17.4-51.6,64-64.2,80.1-67   C76,48.8,69.1,104.3,69.1,104.3z" originalFill="#FFFFFF"/>
	<path opacity="0.2" d="M365.6,331.6l-10.1-30l0,0c1.3-1.5,2.5-3,3.6-4.5c0.6-0.8,1.1-1.6,1.7-2.3c1.5-2.2,2.8-4.4,4.1-6.8   c1.1-2.1,2.2-4.2,3.1-6.4l20.8,61.9l2.4,7.3c1.4,4.1,1.6,8.2,0.8,12.1c-3.4,1.9-7.4,2.8-11.6,2.6c-0.3,0-0.5,0-0.8-0.1   c-1.1-0.1-2.1-0.2-3.2-0.5l0,0c-0.1-0.5-0.2-1.1-0.4-1.6c0,0,0,0,0,0c-0.1-0.5-0.3-1.1-0.5-1.6L365.6,331.6z M504.6,540.5   c-0.7-2.5-1.6-5-2.7-7.4c0.1-0.5,0.3-1,0.5-1.5c2.9-7,12.4-32.9,13.4-35.2c1-2.3,5,2.4,5,2.4s-7.6-11.5-10.9-14   c0,0,3.5,5.1,2.2,12.8c-1,5.8-8.3,23.1-12,31.8c-2.1-3.8-4.7-7.4-7.7-10.6l-16.1-17.1c0.1-0.3,0.2-0.5,0.3-0.8   c2.9-7,12.4-32.9,13.4-35.2s5,2.4,5,2.4s-7.6-11.5-10.9-14c0,0,3.5,5.1,2.2,12.8c-1.1,5.9-8.6,23.9-12.3,32.3L451,475.1   c0.1-0.5,0.3-1,0.5-1.5c2.9-7,12.4-32.9,13.4-35.2c1-2.3,5,2.4,5,2.4s-7.6-11.5-10.9-14c0,0,3.5,5.1,2.2,12.8   c-1.1,6-9,24.8-12.6,32.9L425.5,448c0.2-0.8,0.4-1.6,0.7-2.4c2.9-7,12.4-32.9,13.4-35.2c1-2.3,5,2.4,5,2.4s-7.6-11.5-10.9-14   c0,0,3.5,5.1,2.2,12.8c-1.1,6.2-9.6,26.1-12.9,33.7l-24.7-26.2c0.1-1,0.4-2.1,0.9-3.2c2.9-7,12.4-32.9,13.4-35.2c1-2.3,5,2.4,5,2.4   s-7.6-11.5-10.9-14c0,0,3.5,5.1,2.2,12.8c-1.2,6.4-10.1,27.3-13.2,34.4c-11.3-11.8-23.9-22.1-37.5-30.8   c-10.6-6.8-21.9-12.7-33.5-17.4c-10.4-4.2-21.8-8.6-33.3-13c-0.2-0.1-0.5-0.2-0.7-0.3c-2.8-1-5.6-2.1-8.4-3   c-4.2-1.5-8.5-2.9-12.8-4.3c-2.7-0.9-5.5-1.7-8.2-2.5c-2.3-0.7-4.7-1.3-7-1.9c-5.2-1.4-10.5-2.6-15.7-3.7c-2.7-0.6-5.3-1.2-8-1.8   c-1.5-0.4-3-0.8-4.5-1.2c-6.1-1.7-12.2-3.6-18.3-5.9c-1.3-0.5-2.5-0.9-3.8-1.4c-0.1,0-0.2-0.1-0.2-0.1c-5.6-2.2-11.1-4.5-16.6-7.1   c-1.2-0.6-2.4-1.2-3.7-1.8c-5.1-2.5-10.2-5.2-15.2-8.1c-1.1-0.7-2.2-1.3-3.4-2c-10.5-6.3-20.5-13.3-29.9-21   c-0.9-0.8-1.9-1.5-2.8-2.3c-3.2-2.7-6.3-5.5-9.3-8.3c-0.5-0.5-1-0.9-1.4-1.4c-0.3-0.3-0.7-0.6-1-1c-0.9-0.8-1.7-1.7-2.6-2.5   c-1.3-1.3-2.6-2.6-3.9-4c-2.3-2.4-4.5-4.9-6.7-7.4c-0.8-0.9-1.5-1.8-2.3-2.7c-2.2-2.7-4.4-5.4-6.5-8.1c-1-1.3-2-2.7-3-4   c-0.7-1-1.4-1.9-2-2.9c-2.9-4.3-5.7-8.6-8.2-12.9c-0.6-1-1.2-2-1.8-3.1c-2.5-4.5-4.9-9.1-7-13.7c-0.5-1.1-1-2.2-1.5-3.3   c-2.1-4.8-4-9.7-5.7-14.5c-0.4-1.2-0.8-2.3-1.1-3.5c-1.6-5.1-3-10.3-4.2-15.4c-0.3-1.2-0.5-2.5-0.8-3.7c-1.1-5.5-1.9-11.1-2.3-16.5   c-0.1-1.3-0.2-2.7-0.3-4c-0.4-6.1-0.3-12.1,0.1-17.9c0.1-1.5,0.2-3,0.4-4.4c1.5-14.6,5.5-28.4,11.9-40.8   c3.5-6.8,7.8-13.2,12.9-19.1c1.5-2.5,3.1-4.9,4.9-7.2c3.7-5,7.9-9.8,12.6-14.1c1-0.9,2.1-1.9,3.1-2.8l0,0c0,0,0,0,0,0   c-1.6,0.9-3.2,1.8-4.7,2.8c-0.1,0.1-0.3,0.2-0.4,0.3c-1.5,0.9-2.9,1.9-4.4,3c-0.2,0.1-0.4,0.3-0.5,0.4c-1.4,1-2.8,2.1-4.1,3.2   c-0.2,0.1-0.3,0.3-0.5,0.4c-1.4,1.1-2.8,2.3-4.1,3.6c0,0,0,0,0,0c-6.9,6.4-12.7,13.5-17.4,21.3C57,98,49,117.1,46.1,138   c0,0.4-0.1,0.7-0.1,1.1c-1.4,11.1-1.4,22.6,0,34.4c0.2,1.8,0.5,3.6,0.7,5.4c0.6,4,1.4,7.9,2.3,11.9c0.9,3.9,2,7.8,3.2,11.7   c0.5,1.5,1,3.1,1.5,4.6c1.5,4.4,3.2,8.8,5,13.2c1,2.4,2.1,4.8,3.2,7.2c3.6,7.5,7.7,14.9,12.3,22.1c6.9,10.7,15,21.1,24.2,30.9   c33.1,35.1,80.1,60.7,124.7,70c17.9,3.7,35.5,9.1,52.8,15.7c11.6,4.4,22.9,8.8,33.3,13c27.1,10.9,51.8,27.9,72.2,49.4l95.3,101.1   c2.2,2.3,4.2,4.8,5.9,7.5c1.4,2.2,2.7,4.5,3.8,6.9c1.1,2.4,2,4.8,2.7,7.3l9.9,10.5l13.2-13.3L504.6,540.5z" fill="#000000" originalFill="#000000"/>
</g>
</svg>