<svg xmlns="http://www.w3.org/2000/svg" xmlns:xlink="http://www.w3.org/1999/xlink" version="1.1" id="svg-edited-version" x="0px" y="0px" viewBox="0 0 595.3 595.3" enable-background="new 0 0 595.3 595.3" xml:space="preserve" class="injected-svg" data-src="https://preview.pixlr.com/images/svg/100/1/02d8a8b17b7526032edf066217c9af6948080354d90f5bb231a729b938be2025.svg">
<g>
	<path fill="#D1D3D4" d="M375.7,520.1c17.2-4.3,36.2-9.3,47.3-12.2c-36.5,21.8-79.1,34.4-124.8,34.5c-4.6,0-9.1-0.1-13.7-0.4   c3.1-1.2,5.9-2.5,8.5-3.7c7-3.4,14.6-5.7,22.3-6.9C334.8,528.3,358.8,524.3,375.7,520.1z M152.3,483.8c0.5-9.2-1.1-18.5-5.2-26.8   c-0.1-0.3-0.3-0.6-0.5-0.9c-7.1-14.1-54.9-89.7-57.7-94.7l-0.1-0.2c-6.4-11.3-14.6-21.6-24.3-30.3c-4.1-3.7-7.8-7.2-10.6-10.1   c6.7,71.2,43.9,133.6,98.4,173.8C152.2,491.5,152.1,487.9,152.3,483.8z M107.3,183.8c6.7-5.8,14.8-13.6,21.2-22.1   c9.9-13.1,38.2-40.9,55.6-60.2c6.9-7.6,11.5-17,13.3-27.2l0-0.1c-57.9,26-103.8,73.9-127.3,133.2c6.7-4.4,16.4-10.6,25.4-15.6   C99.7,189.6,103.6,187,107.3,183.8z M350.4,63.9c28.3,3.6,54.8,14.4,76,25.7c-29.3-18.2-62.8-30.4-98.6-34.8   c4.4,2.1,8.7,4.3,12.2,6C343.3,62.4,346.8,63.4,350.4,63.9z M537.9,250.9c-0.1-0.3-0.2-0.6-0.3-0.9c-10.4-16.9-28.6-35.1-38.7-44.6   c-1.9-1.8-4.6-2.3-7.1-1.4l0,0c-8,2.9-51.8,27.9-62.1,33.8c-1.6,0.9-3.2,2.1-4.6,3.5c-6.1,5.8-9.5,13.9-10.1,22.2l-2.5,35.8   c-2.1,30.7,8.1,60.9,28.4,84c10.5,11.9,20.1,22.3,22.8,24.7c0.4,0.3,0.8,0.7,1.2,1c9.1,6.8,21.7,6.5,31.1,0.1   c9.8-6.7,19.6-14,26.5-19.2c1-0.7,1.9-1.5,2.8-2.4c11.1-28,17.1-58.5,17-90.4C542.4,281.3,540.8,265.8,537.9,250.9z M274.7,333.8   l-17.1-26.9c-8.3-13.1-21.5-22.4-36.6-25.8c-19.5-4.4-42.6-7.4-61.5-9.4c-15.3-1.6-29.9,6.4-36.7,20.2l-25.6,51.5   c-1.7,7.4-2.4,15.4-0.1,22.1c4.5,13.3,33.3,58.4,52,83.6c7,9.4,17.2,15.9,28.7,18.1c11.3,2.1,25.6,4.5,39.8,5.7   c13.2,1.1,26-5.1,33.2-16.3c7.5-11.6,16.9-26.5,25.5-41.2C291.1,390,290.4,358.5,274.7,333.8z M417.7,361.4c-0.1,0-0.1-0.1-0.2-0.1   c-7.2-5.8-16.7-7.6-25.7-5.7l-76,16.6c-7,1.5-13.3,5.4-17.9,10.9l-0.1,0.1c-8.6,10.5-26.5,45.3-39.1,70.9   c-6.6,13.3-4.3,29.2,5.6,40.1c0.3,0.3,0.6,0.7,1,1c21,22.8,52.3,33.6,82.8,28c0.2,0,0.4-0.1,0.6-0.1c12.3-2.3,24.5-5.1,35.6-8.1   c39.5-10.6,71.2-40.7,83.3-79.8c0.2-0.7,0.4-1.4,0.6-2c-0.2-1.1-0.4-2.1-0.6-3.2C465.4,420.5,433.8,374.5,417.7,361.4z    M320.3,187.3c4.7,7,11.5,12.3,19.1,15.8l57.8,26.3c9.5,4.3,20.3,5.2,30.3,2.3c16-4.7,36-12.9,46.8-21.8l0.1-0.1   c11.7-9.7,16.4-25.5,12.1-40.1c-0.3-1-0.6-2-0.9-2.9c-10.7-33.7-35.1-61.2-66.5-77.5c-5.8-3-11.9-5.9-18.3-8.6   c-7.2-3-14.2-5.4-21-7.2c-22.1-6.1-45.7-2.4-65.4,9.3c-7.5,4.5-14.4,8.8-19.4,11.9c-1.8,1.2-3,3.1-3.2,5.3   c-0.7,8.8,22.1,71.6,25.1,81.1C317.7,183,318.9,185.2,320.3,187.3z M115.4,185.2L115.4,185.2c-2.1,3.5-3.1,7.5-2.7,11.6   c0.4,5.6,1.2,12.6,2.5,20.3c4.7,28.1,27.3,49.7,55.6,53.2c12.8,1.6,26,3,38,4.2c23.4,2.3,46.5-6.7,62.2-24.3   c13.6-15.3,29-32.6,39.3-43.7c3.7-4.1,5.9-9.5,5.6-15c0,0,0-0.1,0-0.1c-0.8-13.2-20.6-66.5-27.2-83.3l-0.1-0.1   c-2.3-5.9-7.6-10-13.9-10.8c-22.5-2.8-50.1-3.3-66.5-3.3c-7.2,0-14.2,2.5-19.8,7.1C172.2,114.2,121.2,175.7,115.4,185.2z" originalFill="#D1D3D4"/>
	<path opacity="0.2" fill="#231F20" d="M341.4,488.4c-4.6,0-9.1-0.1-13.7-0.4c-49.3-2.6-94.8-19.8-132.2-47.4   c-54.5-40.2-91.7-102.6-98.4-173.8c-0.7-7.4-1.1-15-1.1-22.6c-0.1-32,6-62.7,17.1-90.7c4.7-11.9,10.4-23.3,16.8-34.2   c-26,24.4-46.6,54.4-60,88.2c-11.1,28.1-17.2,58.7-17.1,90.7c0,7.6,0.4,15.2,1.1,22.6c6.7,71.2,43.9,133.6,98.4,173.8   c37.4,27.6,82.8,44.8,132.2,47.4c4.5,0.2,9.1,0.4,13.7,0.4c45.6-0.1,88.3-12.7,124.8-34.5c35.2-21,64.7-50.7,85.5-86   c-12.9,12.1-27.1,22.9-42.3,32C429.7,475.7,387,488.3,341.4,488.4z" originalFill="#231F20"/>
	<path fill="#282E53" d="M496.1,409.1c-9.4,6.4-21.9,6.7-31.1-0.1c-0.4-0.3-0.8-0.6-1.2-1c-2.7-2.4-12.3-12.8-22.8-24.7   c-20.3-23.1-30.5-53.3-28.4-84l2.5-35.8c0.6-8.4,4-16.5,10.1-22.2c1.4-1.3,2.9-2.5,4.6-3.5c10.2-5.9,54-30.8,62.1-33.8l0,0   c2.4-0.9,5.2-0.3,7.1,1.4c10.1,9.5,28.3,27.6,38.7,44.6c0.1,0.3,0.2,0.6,0.3,0.9c-13.2-68.1-54.5-126.1-111.4-161.4   c-21.2-11.3-47.8-22.1-76-25.7c-3.6-0.5-7.2-1.4-10.5-3.1c-3.5-1.8-7.8-3.9-12.2-6c-10.1-1.2-20.4-1.9-30.8-1.8   c-35.5,0.1-69.3,7.8-99.7,21.4l0,0.1c-1.8,10.1-6.4,19.5-13.3,27.2c-17.4,19.3-45.6,47.1-55.6,60.2c-6.4,8.5-14.5,16.2-21.2,22.1   c-3.6,3.1-7.6,5.8-11.8,8.1c-9,4.9-18.7,11.1-25.4,15.6c-11.1,28.1-17.2,58.7-17.1,90.7c0,7.6,0.4,15.2,1.1,22.6   c2.7,2.9,6.5,6.4,10.6,10.1c9.7,8.7,17.9,19,24.3,30.3l0.1,0.2c2.8,5,50.6,80.6,57.7,94.7c0.2,0.3,0.3,0.6,0.5,0.9   c4.1,8.3,5.6,17.5,5.2,26.8c-0.2,4-0.1,7.6,0.1,10.8c37.4,27.6,82.8,44.8,132.2,47.4c3.1-1.2,5.9-2.5,8.5-3.7   c7-3.4,14.6-5.7,22.3-6.9c19.5-3.1,43.5-7.1,60.4-11.3c17.2-4.3,36.2-9.3,47.3-12.2c46.1-27.6,82.4-69.9,102.4-120.4   c-0.9,0.8-1.8,1.6-2.8,2.4C515.7,395.1,505.9,402.4,496.1,409.1z M295.2,94.7c4.9-3.1,11.9-7.4,19.4-11.9   c19.7-11.7,43.3-15.4,65.4-9.3c6.7,1.8,13.8,4.2,21,7.2c6.4,2.7,12.5,5.6,18.3,8.6c31.4,16.3,55.8,43.8,66.5,77.5   c0.3,1,0.6,1.9,0.9,2.9c4.3,14.6-0.4,30.4-12.1,40.1l-0.1,0.1c-10.8,8.9-30.8,17.1-46.8,21.8c-10,2.9-20.8,2-30.3-2.3l-57.8-26.3   c-7.7-3.5-14.4-8.8-19.1-15.8c-1.4-2.1-2.6-4.3-3.2-6.3c-2.9-9.5-25.8-72.3-25.1-81.1C292.2,97.8,293.4,95.9,295.2,94.7z    M115.4,185.2L115.4,185.2c5.8-9.5,56.9-71.1,72.9-84.3c5.6-4.6,12.6-7.1,19.8-7.1c16.4,0,43.9,0.5,66.5,3.3   c6.2,0.8,11.6,4.9,13.9,10.8l0.1,0.1c6.6,16.8,26.5,70.1,27.2,83.3c0,0,0,0.1,0,0.1c0.3,5.5-1.9,10.9-5.6,15   c-10.2,11.1-25.7,28.4-39.3,43.7c-15.6,17.6-38.8,26.6-62.2,24.3c-12-1.2-25.2-2.6-38-4.2c-28.2-3.5-50.9-25.1-55.6-53.2   c-1.3-7.7-2-14.7-2.5-20.3C112.3,192.7,113.2,188.7,115.4,185.2z M217.6,472.8c-14.1-1.2-28.4-3.5-39.8-5.7   c-11.5-2.2-21.7-8.7-28.7-18.1c-18.7-25.2-47.6-70.3-52-83.6c-2.3-6.7-1.6-14.7,0.1-22.1l25.6-51.5c6.8-13.7,21.5-21.8,36.7-20.2   c18.9,2,42,5,61.5,9.4c15.2,3.4,28.3,12.7,36.6,25.8l17.1,26.9c15.7,24.7,16.4,56.1,1.6,81.4c-8.6,14.7-18,29.6-25.5,41.2   C243.6,467.6,230.8,473.9,217.6,472.8z M467.6,435.2c-12.1,39.1-43.8,69.2-83.3,79.8c-11.2,3-23.3,5.8-35.6,8.1   c-0.2,0-0.4,0.1-0.6,0.1c-30.5,5.6-61.8-5.1-82.8-28c-0.3-0.4-0.6-0.7-1-1c-10-10.9-12.2-26.8-5.6-40.1   c12.7-25.6,30.5-60.4,39.1-70.9l0.1-0.1c4.6-5.5,10.8-9.4,17.9-10.9l76-16.6c9-2,18.6-0.1,25.7,5.7c0.1,0,0.1,0.1,0.2,0.1   c16.1,13.1,47.7,59.1,49.9,68.6c0.2,1,0.4,2.1,0.6,3.2C468,433.8,467.8,434.5,467.6,435.2z" originalFill="#282E53"/>
</g>
</svg>