<svg xmlns="http://www.w3.org/2000/svg" xmlns:xlink="http://www.w3.org/1999/xlink" version="1.1" id="svg-edited-version" x="0px" y="0px" viewBox="0 0 595.3 595.3" enable-background="new 0 0 595.3 595.3" xml:space="preserve" class="injected-svg" data-src="https://preview.pixlr.com/images/svg/100/1/5b4bf3e1ceab1ddb449284a3ce3151ba43bc5d511925cef5d80fd047f08d6f3e.svg">
<g>
	<path fill="#4E5273" d="M295.8,241.7c1.1-0.1,2.1,0.6,2.7,1.7c0,0-0.1,0-0.1,0c-0.2,0-0.4,0-0.5,0c-0.2,0.1-0.3,0.1-0.5,0.3   c-0.2,0.2-0.4,0.5-0.4,0.7c-0.2,0.8,0.4,1.3,1,1.5l0,0c0.3,0.1,0.9-0.1,1.1-0.3c0,0,0,0,0,0c0.1,1.4-0.4,2.7-1.2,3.5   c-0.5,0.5-1.1,0.8-1.7,0.8c-1.7,0.1-3.2-1.7-3.3-3.9c-0.1-1.9,0.8-3.6,2.1-4.1C295.3,241.8,295.6,241.7,295.8,241.7z M282.2,203.1   c-2.1-2.7-4.2-5.4-6.2-8.1c-2.7,1.4-5.4,2.3-8.9,1.2c-7.3-2.2-17-8.5-22.4-17.1c-0.8-1.3-1.5-2.6-2.1-4c-6.3,5.3-17.6,6.2-18.2,2   c-0.8-5.3-6.1-9.2-7.4-15.3c-0.1-0.6-0.3-1.3-0.3-2c-0.2-4,1.5-6.4,3.2-7.9c-1.3-2.4-2.3-5.1-2.6-7.8c0,0,0,0,0,0   c-0.1,0.2-0.2,0.3-0.3,0.5c-0.3,0.5-0.6,0.9-0.8,1.4c0,0,0,0.1-0.1,0.1c-0.3,0.5-0.5,1-0.7,1.5c-0.1,0.1-0.1,0.3-0.2,0.4   c-0.2,0.4-0.3,0.7-0.4,1.1c-0.1,0.1-0.1,0.3-0.2,0.4c-0.2,0.5-0.3,1-0.4,1.5c-4.2,17.6-8.5,9.1-20,32.8c-1.6,3.3-2.5,7.1-2.7,11.2   c-0.1,0.9-0.1,1.8-0.1,2.8c0,7,1.5,14.7,3.6,22c0.4,1.5,0.9,2.9,1.3,4.3c0.5,1.4,1,2.8,1.5,4.2c0.2,0.5,0.3,0.9,0.5,1.4   c0.3,0.9,0.7,1.8,1,2.7c0.7,1.7,1.4,3.4,2.1,5c0.3,0.8,0.7,1.6,1,2.3c0.3,0.7,0.7,1.5,1,2.2c0.3,0.7,0.6,1.4,1,2s0.6,1.3,0.9,1.8   c0.6,1.2,1.1,2.2,1.6,3.1c0.4,0.7,0.7,1.3,1,1.8c0.3,0.5,0.6,0.9,0.8,1.2c0.2,0.3,0.4,0.5,0.5,0.6l0,0c0.1,0.1,0.2,0.2,0.2,0   c0,0,0-0.1,0-0.1c0,0,0,0,0,0c0,0,0,0,0,0c-0.2-0.7-0.3-1.4-0.4-2.1c0-0.2-0.1-0.4-0.1-0.5c-0.1-0.6-0.2-1.1-0.3-1.7   c0-0.1,0-0.2,0-0.3c-0.1-0.7-0.2-1.3-0.2-1.9c0-0.1,0-0.2,0-0.3c-0.1-0.5-0.1-1.1-0.1-1.6c0-0.1,0-0.2,0-0.3c-0.1-1.2,0-2.3,0-3.3   c0,0,0-0.1,0-0.1c0.1-1.1,0.2-2,0.4-2.9c3.6-17.1,28-7.3,47.3-7.5C277.2,229.5,272.1,208.2,282.2,203.1z M257.3,124.2   c14.4,3.5,31.3,12.8,38.7,17.3c0.4,0.2,0.7,0.4,1,0.6c0-0.1-0.1-0.2-0.1-0.3c-4.5-9.1-10.1-16-16.9-18.6   c-7.8-3.1-16.5-3.4-24.9-1.8c-2,0.4-4,0.8-6,1.4c0.6,0.1,1.3,0.1,1.9,0.2C253.2,123.3,255.2,123.7,257.3,124.2z M400.6,324.3   c0-0.6-0.1-1.1-0.1-1.7c0-0.1,0-0.3,0-0.4c-0.1-0.4-0.1-0.8-0.2-1.2c0-0.1,0-0.2-0.1-0.3c-0.1-0.5-0.2-0.9-0.3-1.3   c0-0.1,0-0.2-0.1-0.2c-0.1-0.4-0.2-0.7-0.3-1c0-0.1,0-0.2-0.1-0.2c-0.2-0.7-0.5-1.4-0.7-1.9c0,0,0-0.1,0-0.1c0,0,0,0,0,0l0,0   c-0.4-1-0.8-1.7-1-2.3c-2.4-4.6-5.5-8.7-9.6-11.4l0,0c-0.7,0.5-5.7,4.2-13,8.8c2.9,5.7,5.7,11.3,8.3,16.8c0.4,0.8,0.8,1.6,1.2,2.4   c1.1,2.4,2.3,4.7,3.4,7v0l9.8-6.6l2.8-1.7c0-0.3,0.1-0.6,0.1-0.9c0-0.4,0.1-0.8,0.1-1.2c0-0.2,0-0.4,0-0.5c0-0.6,0-1.1,0-1.6   C400.6,324.5,400.6,324.4,400.6,324.3z M367.9,407.5c-9.2-6.3-17-12.2-17.9-16.1c-0.1-0.3-0.1-0.5-0.1-0.8v-19.8   c0-1.8,0.3-3.6,1-5.3s1.6-3.2,2.8-4.6c0.8-0.9,1.7-1.7,2.7-2.4l12.4-8.4l7-4.8c-0.5-1-1.1-2-1.6-3.1c-1.2-2.3-2.5-4.6-3.7-7   c-2.9-5.4-6-10.9-9.1-16.4c-12,6.7-26.2,13.2-38.5,15c1.9,10.7,0.7,21.7-5.6,31c-6.6,9.7-17.2,16-28.2,19.4   c-2.3,0.7-4.6,1.3-6.9,1.7c-3.7,0.7-7.3,1-10.9,0.8c-3.3-0.1-6.5-0.6-9.6-1.5c0,0,0,0-0.1,0c-2.1-0.5-4.1-1.2-6-2.1c0,0,0,0,0,0   c-1-0.4-1.9-0.8-2.8-1.3c-0.1,0-0.1-0.1-0.2-0.1c-1.8-0.9-3.6-2-5.3-3.2c-0.1,0-0.1-0.1-0.2-0.1c-0.8-0.6-1.6-1.2-2.4-1.8   c-0.1-0.1-0.2-0.2-0.3-0.2c-1.5-1.3-3-2.6-4.3-4.1c-0.1-0.1-0.2-0.2-0.3-0.3c-0.6-0.7-1.3-1.4-1.9-2.2c-0.1-0.1-0.2-0.3-0.3-0.4   c-0.6-0.8-1.2-1.6-1.8-2.4c0,0,0,0,0,0c0-0.1-0.1-0.1-0.1-0.2l0,0c0.1,0.6,0.3,1.4,0.6,2.5c0.2,0.6,0.4,1.2,0.6,1.9   c0.2,0.7,0.5,1.4,0.8,2.1c0.4,0.9,0.8,1.8,1.3,2.8c0.5,1,1.1,2,1.7,3.2c0.9,1.6,2,3.3,3.3,5c0.3,0.4,0.5,0.7,0.8,1.1   c1.1,1.4,2.3,2.9,3.7,4.5c1,1.2,2.1,2.3,3.3,3.5c1.6,1.6,3.3,3.3,5.2,4.9c0.9,0.8,1.9,1.7,2.9,2.5c1.5,1.3,3.2,2.6,4.9,3.9   c1.2,0.9,2.4,1.7,3.6,2.6c1,0.7,2,1.4,3,2c0.3,0.2,0.6,0.4,0.9,0.6c0.7,0.5,1.4,0.9,2.1,1.4c0.7,0.4,1.3,0.8,2,1.3   c0.7,0.4,1.5,0.9,2.2,1.3c0,0,0,0,0,0c1,0.6,1.9,1.1,2.9,1.7c3,1.7,6.2,3.4,9.5,5c1.3,0.6,2.7,1.3,4,1.9c0.5,0.2,0.9,0.4,1.4,0.6   c1.8,0.8,3.7,1.7,5.6,2.5c0.4,0.2,0.8,0.3,1.2,0.5c0,0,0,0,0,0c5.3,2.3,10.2,4.4,14.8,6.4c7.2,3.1,13.5,5.8,19.2,8.1   c9.4,3.9,16.9,7,22.8,9.3c5.6,2.2,9.8,3.7,13.1,4.8c0.5,0.2,1,0.3,1.5,0.5c1.2,0.4,2.2,0.7,3.1,0.9c0.6,0.1,1.1,0.3,1.6,0.4   c0.1,0,0.2,0,0.3,0.1c0.2,0,0.4,0.1,0.6,0.1c0.3,0.1,0.6,0.1,0.8,0.2c0.5,0.1,1,0.2,1.4,0.2c0.2,0,0.4,0,0.6,0.1c0.3,0,0.6,0,0.9,0   c0.2,0,0.5,0,0.7-0.1c0,0,0.1,0,0.1,0c0.2,0,0.4-0.1,0.6-0.2c0,0,0.1,0,0.1,0c0,0,0,0,0,0c5.7-2.1,13.7-14.8,13.7-23.5   c0-0.3-0.1-0.7-0.2-1C397.5,426.7,381.3,416.7,367.9,407.5z M240.7,271.6c1.5-0.9,1.8-3.2,0.6-5.1c0,0,0,0,0,0   c-0.1,0.4-0.5,0.8-0.9,0.8l0,0c-0.7,0.1-1.4-0.2-1.6-0.9c-0.1-0.3,0-0.6,0.1-0.8c0-0.2,0.1-0.3,0.3-0.5c0.1-0.1,0.3-0.2,0.5-0.3   c0,0,0.1,0,0.1,0c-1-0.7-2.2-0.8-3.1-0.3c-1.5,0.9-1.8,3.2-0.6,5.1S239.2,272.5,240.7,271.6z" originalFill="#4E5273"/>
	<path fill="#F99F1C" d="M314.4,246.2c3.6,5,7.2,10,10.6,15c-4.6,2.3-8.7,4.1-11.8,5.5c-0.5-14.4-1.9-25.8-5.6-28.2   c0.3-0.1,0.6-0.2,0.9-0.3C310.5,240.8,312.4,243.5,314.4,246.2z M399.3,432.5c0.1,0.4,0.2,0.7,0.2,1c0,9.1-8.7,22.5-14.4,23.7   c0,0-0.1,0-0.1,0c-0.2,0-0.5,0.1-0.7,0.1c-0.3,0-0.6,0-0.9,0c-0.2,0-0.4,0-0.6-0.1c-0.4,0-0.9-0.1-1.4-0.2c-0.3,0-0.5-0.1-0.8-0.2   c-0.2,0-0.4-0.1-0.6-0.1c-0.1,0-0.2,0-0.3-0.1c-0.5-0.1-1-0.2-1.6-0.4c-0.9-0.2-2-0.5-3.1-0.9c-0.5-0.1-1-0.3-1.5-0.5   c-3.3-1.1-7.6-2.6-13.1-4.8c-9.5-3.7-22.9-9.2-42-17.4c-4.6-2-9.5-4.1-14.8-6.4c0,0,0,0,0,0c-1.9,2.9-3.2,5.8-3.9,8.5   c0,0,0,0.1,0,0.1c-0.3,1.3-0.5,2.5-0.6,3.7c0,0.1,0,0.1,0,0.2c0,0.6,0,1.1,0,1.7c0,0,0,0.1,0,0.1c0,0.5,0.1,1,0.2,1.5   c0,0,0,0.1,0,0.1c0.1,0.5,0.2,1,0.4,1.4c0,0.1,0.1,0.1,0.1,0.2c0.1,0.3,0.3,0.7,0.5,1c0.3,0.5,0.6,1,1,1.4c0.1,0.1,0.1,0.1,0.2,0.2   c0.3,0.3,0.6,0.6,1,0.9c0.1,0,0.1,0.1,0.2,0.1c0.3,0.3,0.7,0.5,1.1,0.7c0.1,0,0.1,0.1,0.2,0.1c0.4,0.2,0.9,0.4,1.4,0.6   c0.1,0,0.2,0.1,0.3,0.1c0.5,0.1,1.1,0.3,1.7,0.4c0.2,0,0.4,0.1,0.7,0.1c0.1,0,0.1,0,0.2,0c0.2,0,0.3,0.1,0.5,0.1   c0.1,0,0.2,0,0.3,0.1c0.2,0,0.3,0.1,0.5,0.1c0.1,0,0.2,0,0.3,0.1c0.2,0,0.4,0.1,0.6,0.1c0.1,0,0.2,0,0.4,0.1c0.2,0,0.4,0.1,0.6,0.1   c0.1,0,0.3,0,0.4,0.1c0.2,0,0.4,0.1,0.6,0.1c0.2,0,0.3,0.1,0.5,0.1c0.2,0,0.4,0.1,0.6,0.1c0.1,0,0.2,0,0.3,0.1c0,0,0,0,0,0   c0.1,0,0.1,0,0.2,0c0.2,0,0.5,0.1,0.7,0.1c0.2,0,0.3,0.1,0.5,0.1c0.3,0,0.5,0.1,0.8,0.2c0.2,0,0.3,0.1,0.5,0.1   c0.3,0.1,0.5,0.1,0.8,0.2c0.2,0,0.4,0.1,0.6,0.1c0.3,0.1,0.5,0.1,0.8,0.2c0.2,0,0.4,0.1,0.6,0.1c0.3,0.1,0.7,0.1,1.1,0.2   c0.1,0,0.2,0,0.4,0.1c0.4,0.1,0.9,0.2,1.3,0.3c0.1,0,0.1,0,0.2,0c0.5,0.1,1,0.2,1.6,0.3c0.2,0,0.3,0.1,0.5,0.1   c0.4,0.1,0.8,0.2,1.2,0.2c0.2,0,0.3,0.1,0.5,0.1c0.4,0.1,0.8,0.2,1.2,0.2c0.2,0,0.4,0.1,0.6,0.1c0.4,0.1,0.8,0.2,1.1,0.2   c0.2,0,0.5,0.1,0.7,0.2c0.3,0.1,0.6,0.1,1,0.2c0.3,0.1,0.6,0.1,0.8,0.2c0.3,0.1,0.6,0.1,0.9,0.2c0.3,0.1,0.7,0.1,1,0.2   c0.3,0.1,0.5,0.1,0.8,0.2c0.3,0.1,0.6,0.1,0.9,0.2c0.3,0.1,0.7,0.2,1,0.2c0.3,0.1,0.6,0.1,0.8,0.2c0.3,0.1,0.6,0.1,0.9,0.2   c0.3,0.1,0.7,0.2,1,0.2c0.3,0.1,0.6,0.1,0.9,0.2c0.3,0.1,0.6,0.1,0.9,0.2c0.4,0.1,0.7,0.2,1.1,0.2c0.3,0.1,0.5,0.1,0.8,0.2   c0.3,0.1,0.7,0.1,1,0.2c0.3,0.1,0.7,0.2,1,0.2c0.2,0,0.3,0.1,0.5,0.1c2.2,0.5,4.4,1,6.6,1.5c0.2,0,0.4,0.1,0.6,0.1   c0.5,0.1,0.9,0.2,1.4,0.3c0.2,0,0.4,0.1,0.6,0.1c0.5,0.1,1.1,0.2,1.6,0.4c0.1,0,0.2,0,0.3,0.1c0.5,0.1,1,0.2,1.6,0.4   c0.1,0,0.3,0.1,0.4,0.1c0.5,0.1,1,0.2,1.5,0.4c0.1,0,0.3,0.1,0.4,0.1c0.5,0.1,1,0.2,1.5,0.3c0.2,0,0.3,0.1,0.5,0.1   c0.5,0.1,1,0.2,1.4,0.3c0.2,0,0.3,0.1,0.5,0.1c0.5,0.1,1,0.2,1.5,0.3c0.2,0,0.3,0.1,0.5,0.1c0.5,0.1,0.9,0.2,1.4,0.3   c0.2,0,0.3,0.1,0.5,0.1c7.3,1.7,14.2,3.4,20,4.8c0,0,0,0,0,0c0.5,0.1,1,0.2,1.4,0.4c0,0,0,0,0,0c5.7,1.4,10.2,2.6,12.8,3.4   c1,0.3,1.8,0.6,2.2,0.7c5.7,2.5,17.2-4.4,10.2-20.3C410.8,443.7,404.7,437.2,399.3,432.5z M375.9,345.4l-7,4.8c-0.6,1-1.2,2-1.8,3   c-1.4,2.5-2.5,5-3.1,7.3c-0.1,0.4-0.2,0.9-0.3,1.3c0.4-0.3,0.9-0.6,1.4-0.7c3.8-0.9,11.1,3.5,12.8,10.7c0.1,0.4,0.2,0.7,0.2,1.1   c1,6.3,9.1,8.9,12.3,9.7c0.9-0.6,1.8-1.4,2.5-2.3c-1.5-3.3-3-6.6-4.6-9.9c-3-6.2-6.1-12.6-9.3-19   C378,349.5,376.9,347.4,375.9,345.4z M429.6,288.5l-0.3-0.3c-4.5-3.5-10.7-4-15.7-1.1L388.2,302c-0.1,0-0.1,0.1-0.2,0.1   c0,0,0,0,0,0c0,0,0,0,0,0c4.1,2.7,7.2,6.8,9.6,11.4c0.2,0.6,0.6,1.4,1.1,2.4c0.2,0.6,0.5,1.2,0.7,1.9c0,0.1,0,0.1,0.1,0.2   c0.1,0.3,0.2,0.7,0.3,1c0,0.1,0,0.2,0.1,0.2c0.1,0.4,0.2,0.9,0.3,1.3c0,0.1,0,0.2,0.1,0.3c0.1,0.4,0.1,0.8,0.2,1.2   c0,0.1,0,0.3,0,0.4c0.1,0.5,0.1,1.1,0.1,1.7c0,0.1,0,0.2,0,0.3c0,0.5,0,1,0,1.6c0,0.2,0,0.4,0,0.5c0,0.4,0,0.8-0.1,1.2   c0,0.3,0,0.6-0.1,0.9l-2.8,1.7l-9.8,6.6c3.2,6.7,6.2,13.3,9.1,19.7c0,0,0,0,0,0c1.1,2.4,2.1,4.7,3.1,7c0.6-1.4,1.3-2.8,1.9-4.2l0,0   c8.4-17.9,22.1-39.5,28.1-49.8C436.6,304.4,436.6,294,429.6,288.5z M299.1,287.7c-0.3,1.8-0.9,3.6-1.9,5.2   c-5.2,11.5-15.5,18.6-29.3,16.5c-16.6-2.5-23-16.5-28.7-30.5c-6.6-2.2-12.6-5.7-17.8-10.2c-5.1-4.5-9.3-9.9-12.3-16.1   c0,0,0-0.1,0-0.1c0,0,0,0,0,0c0,0,0,0,0,0c-0.2-0.7-0.3-1.4-0.4-2.1c0-0.2-0.1-0.4-0.1-0.5c-0.1-0.6-0.2-1.1-0.3-1.7   c0-0.1,0-0.2,0-0.3c-0.1-0.7-0.2-1.3-0.2-1.9c0-0.1,0-0.2,0-0.3c0-0.5-0.1-1.1-0.1-1.6c0-0.1,0-0.2,0-0.3c-0.1-1.2,0-2.3,0-3.3   c0,0,0-0.1,0-0.1c0.1-1.1,0.2-2,0.4-2.9c3.6-17.1,28-7.3,47.3-7.5c21.6-0.3,16.5-21.6,26.6-26.7c8.1,10.5,16.4,21.5,24.8,33   c-0.1,0.7-0.2,1.3-0.3,2c0,0.3-0.1,0.6-0.2,0.8c-0.6,3.2-1.4,6.3-2.6,9.3c-1.1,2.9-2.4,5.6-4,8.2c2.1,10,2,20.5-0.7,30.3   C299.3,287,299.2,287.3,299.1,287.7z M301.4,245.5c-0.2-3.9-2.8-7-5.8-6.8c-0.7,0-1.3,0.2-1.9,0.6c-2,1.1-3.3,3.8-3.1,6.9   c0.2,3.9,2.8,7,5.8,6.8c0.9-0.1,1.7-0.4,2.4-0.9C300.6,250.7,301.6,248.3,301.4,245.5z M242.2,274.3c2.6-1.5,3.1-5.5,1.1-8.9   c-2-3.4-5.7-5-8.2-3.5c-1.1,0.6-1.8,1.7-2.1,3c-0.4,1.8-0.2,3.9,1,5.9c0.8,1.5,2,2.6,3.2,3.3C238.9,275,240.7,275.1,242.2,274.3z    M224.7,310.8c0-0.2,0-0.4,0-0.7c0-0.1,0-0.2,0-0.3c0-0.4-0.1-0.7-0.1-1.1c-0.3-2.3-0.6-4.6-1-6.8c-0.4-2.3-0.8-4.5-1.3-6.8   c-2.7-12.2-6.8-23.4-11.8-29.7c-0.5-0.6-0.9-1.1-1.4-1.6c-1.1-1.7-2.4-3.5-3.6-5.4c-0.7-1.1-1.5-2.3-2.3-3.5l0,0   c-0.5-0.8-1-1.6-1.5-2.5c-0.6-1-1.3-2.1-1.9-3.2c-0.5-0.9-1.1-1.8-1.6-2.8c-0.4-0.8-0.9-1.6-1.3-2.4c-0.6-1.2-1.3-2.4-1.9-3.7   c-0.9-1.9-1.8-3.9-2.7-5.9c-0.6-1.4-1.1-2.8-1.7-4.2c-0.3-0.7-0.5-1.5-0.8-2.2c-0.5-1.5-1-3-1.5-4.6c-0.2-0.8-0.5-1.6-0.7-2.4   c-0.4-1.5-0.8-3-1.2-4.5c-0.3-1.2-0.6-2.3-0.8-3.6c-0.9-4.3-1.6-8.8-2.1-13.6c-1.4-13.1-0.4-23.9,2.1-32.8c0.8-2.8,1.7-5.3,2.7-7.8   c0.4-0.9,0.8-1.8,1.2-2.7c1.3-2.6,2.7-5,4.2-7.2c0.7-1,1.4-2,2.1-2.9c0.4-0.5,0.7-0.9,1.1-1.4c1.1-1.3,2.2-2.6,3.4-3.8   c1.6-1.6,3.2-3.1,4.8-4.5c0.4-0.4,0.8-0.7,1.2-1c1.2-1,2.5-2,3.8-2.9c3.3-2.4,6.6-4.4,9.7-6.3c0.5-0.3,1-0.6,1.5-0.9   c0.8-0.5,1.6-0.9,2.4-1.3c1.2-0.6,2.3-1.3,3.4-1.9c0.7-0.4,1.4-0.8,2.1-1.2c2.4-1.4,4.5-2.6,6.3-3.9c1-0.7,1.9-1.5,2.6-2.2   c0,0,0,0,0,0c0.5-0.5,1-1.1,1.5-1.6c0.1-0.2,0.2-0.3,0.4-0.5c0.3-0.4,0.6-0.8,0.9-1.2c0.1-0.2,0.2-0.3,0.3-0.5   c0.3-0.4,0.6-0.9,0.8-1.3c0.1-0.1,0.1-0.3,0.2-0.4c0.3-0.5,0.5-0.9,0.7-1.4c0.1-0.1,0.1-0.2,0.1-0.3c0.2-0.4,0.3-0.7,0.4-1.1   c0.1-0.2,0.1-0.3,0.2-0.5c0-0.1,0.1-0.2,0.1-0.2c0.2-0.6,0.4-1.1,0.5-1.7c0,0,0-0.1,0-0.1c0.2-0.6,0.3-1.2,0.4-1.9c0,0,0,0,0,0   c0.1-0.6,0.2-1.3,0.3-2c0,0,0,0,0,0c0.6-4.9,0.1-9.7-1.1-13.9c-0.1-0.7-0.3-1.3-0.5-2c3.3-1,6.4-2.4,8.2-4.5   c5.5-6.4-2.7-23.6-10-19.5c-3,1.7-6.5,2.5-9.4,2.9c-0.1-0.8-0.3-1.8-1.1-3.6c-2.4-5.3-11.8-10.3-29.8-3.7c-2.9,1-6,2.4-9.3,4.1   c-6,3-10.7,7-14.5,11.3c-1.4,1.3-2.8,2.6-4.1,3.9C119,129.3,159.2,236.8,193,280.8c0,0.1,0.4,0.6,1,1.5l0,0   c4,5.9,19,27.7,26.5,32.1c0,0,0,0,0,0c0.1,0.1,0.2,0.1,0.3,0.1c0.1,0,0.1,0.1,0.2,0.1c0.2,0.1,0.4,0.2,0.6,0.3c0,0,0,0,0,0   c0.1,0.1,0.3,0.1,0.4,0.1c0,0,0.1,0,0.1,0c0.1,0,0.2,0.1,0.4,0.1c0,0,0.1,0,0.1,0c0.1,0,0.2,0,0.3,0c0,0,0.1,0,0.1,0   c0.1,0,0.2,0,0.3-0.1c0,0,0.1,0,0.1,0c0.1,0,0.2-0.1,0.2-0.1c0,0,0.1-0.1,0.1-0.1c0.1-0.1,0.1-0.1,0.2-0.2c0,0,0.1-0.1,0.1-0.1   c0.1-0.1,0.1-0.1,0.2-0.2c0,0,0.1-0.1,0.1-0.2c0-0.1,0.1-0.2,0.1-0.3c0-0.1,0.1-0.1,0.1-0.2c0-0.1,0.1-0.2,0.1-0.3   c0-0.1,0-0.2,0.1-0.2c0-0.1,0-0.3,0.1-0.4c0-0.1,0-0.2,0-0.3c0-0.1,0-0.3,0-0.5c0-0.1,0-0.2,0-0.3c0-0.2,0-0.4,0-0.5   C224.7,311,224.7,310.9,224.7,310.8z M249.3,122.9c-16.1-1.6-18.2,2.9-25.6,7.8c-0.5,0.3-1,0.7-1.6,1c-4.4,2.6-5.6,7.5-4.9,12.5   c0,0,0,0,0,0c0.4,2.7,1.3,5.4,2.6,7.8c-1.7,1.4-3.5,3.9-3.2,7.9c0,0.7,0.2,1.3,0.3,2c1.3,6.1,6.6,9.9,7.4,15.3   c0.6,4.2,12,3.3,18.2-2c0.6,1.4,1.3,2.7,2.1,4c5.4,8.5,15.1,14.9,22.4,17.1c3.5,1.1,6.2,0.1,8.9-1.2c3.9-2,7.7-4.9,13.8-4.1   c0.6,0.1,1.2,0.2,1.9,0.3c1.5,0.3,2.9,0.8,4.2,1.3c2.6,1,4.8,2.3,6.9,3.3c2.4,1.2,4.6,2.2,6.9,2.3c0.1,0,0.2,0,0.4,0   c1.6,0,3.3-0.4,5.1-1.5c12.4,1.4,25.9,4.8,33.6,11.7c7,6.3-5.5,14.6-19.1,21.1c4.4,7.2,8.8,14.6,13.2,22.1   c19.8-11.7,40.7-28.1,43.2-45.9c2.7-19.7-45.4-45.5-88.9-63.8c0,0.1,0.1,0.2,0.1,0.3c-0.3-0.2-0.7-0.4-1-0.6   c-7.4-4.5-24.4-13.8-38.7-17.3c-2.1-0.5-4.2-0.9-6.1-1.1C250.5,123,249.9,122.9,249.3,122.9z" originalFill="#F99F1C"/>
	<path fill="#F04C23" d="M414.8,367c-1.1-1.4-2.1-2.4-2.1-2.4c0,0,0,0,0,0c0.6-0.5,1.2-0.8,1.7-0.8c1.5-0.2,3,1.1,4.2,2.7   c1.7,2.4,2.9,5.7,2.6,6.9c0,0.1-0.1,0.3-0.1,0.4c-0.6,1.8-2.4,2.3-2.8,0c0-0.2-0.1-0.3-0.1-0.5C418.1,371.6,416.3,368.9,414.8,367z    M279.4,471.4c-6.9-5,1.3-8.7-2.1-16.2c-2.9-6.2-8-3.7-9.4-12.6l0,0c-0.1-0.8-0.2-1.8-0.3-2.8c0-0.1,0-0.2,0-0.3c0-0.4,0-0.8,0-1.3   c0-0.1,0-0.3,0-0.4c0-0.6,0-1.2,0-1.8c0.2-13.1,7.8-19.5,11.3-21.8c0,0,0,0,0,0c-0.7-0.4-1.5-0.9-2.2-1.3c-0.7-0.4-1.4-0.8-2-1.3   c-0.7-0.5-1.4-0.9-2.1-1.4c-0.3-0.2-0.6-0.4-0.9-0.6c-3.1,2.5-8.6,8.4-10.8,20.6c-3.1,17.3,4.7,24.4,7.5,30.7   c2.8,6.3,0,6.3,4.3,10.2c3,2.7,10.9,5.2,15.6,6.5c0.3,0.1,0.7,0.1,1,0.2c0.1,0,0.2,0,0.2,0c0.3,0,0.6,0,0.9,0c0,0,0.1,0,0.1,0   c1.4-0.2,2.8-0.8,3.8-1.9l1.5-1.6c0,0,0,0,0,0C292.6,476.1,285.3,475.7,279.4,471.4z M404.1,368.4c0.9,1.6,1.7,3.5,2.1,5.4   c0.5,2.4,0.9,4,1.4,4.9c0.5,0.9,1,1.1,1.8,0.8c0.5-0.2,0.8-1.3,0.9-2.9c0.2-2.7-0.2-6.5-1.1-8.8c-0.2-0.5-0.5-1-0.7-1.3   c-0.9-1.1-1.4-2.1-1.8-3.1c-0.5-1.2-0.9-2.2-1.7-2.8c-0.6-0.3-1.3-0.4-1.9-0.2c0,0,0,0,0,0c-1,0.4-1.9,1.6-1.5,3.9   C401.3,364.2,402.8,366,404.1,368.4z M409.2,364.8c0.1,0.1,0.8,1.2,1.6,2.7c1,2,2.1,4.6,2,6.5c0,0.3,0,0.5,0,0.7   c0.2,2.5,2.6,1.6,3-0.4c0-0.1,0-0.3,0-0.5c0-1.5-1.1-4.3-2.2-6.7c-0.5-0.9-0.9-1.8-1.3-2.4c-0.4-0.6-0.8-1-1-1.1   c-1.2-0.5-3.2-0.2-2.1,1.1C409.2,364.7,409.2,364.8,409.2,364.8z M284.9,340.1c-0.2-0.5-0.5-0.9-0.7-1.3c-0.1-0.2-0.2-0.3-0.3-0.5   c-0.2-0.2-0.3-0.4-0.5-0.6c-0.3-0.3-0.7-0.6-1.2-0.7c-0.5-0.2-1.1-0.2-1.8-0.2c0.4-0.4,0.7-0.8,0.9-1.1c0.2-0.4,0.2-0.8,0.2-1.2   c0-0.4-0.1-0.8-0.2-1.2c-0.1-0.4-0.3-0.8-0.5-1.2c-0.4-0.8-0.9-1.5-1.5-2c-0.6-0.5-1.3-0.9-2-1.1c-0.8-0.2-1.7-0.3-2.7-0.3   c-1,0-2.2,0.2-3.5,0.6c-1.4,0.4-2.7,0.8-3.8,1.4c-1.2,0.6-2.1,1.2-2.8,2c-0.7,0.8-1.1,1.7-1.2,2.6c-0.1,1,0.2,2.1,0.8,3.2l0.5,0.9   l7.9-3.2l-0.3-0.7c-0.1-0.2-0.2-0.4-0.3-0.6c-0.1-0.2-0.1-0.4-0.1-0.6c0-0.2,0.1-0.4,0.3-0.6c0.2-0.2,0.5-0.4,1-0.5   c1-0.4,1.8-0.1,2.2,0.9c0.4,0.8,0.4,1.4,0,2c-0.4,0.6-1.1,1.1-2.2,1.6l1.5,2.9l0.6,1.2c0.1,0,0.2-0.1,0.2-0.2   c0.1-0.1,0.2-0.1,0.3-0.2c0.5-0.3,0.9-0.4,1.4-0.4c0.4,0,0.8,0.1,1.1,0.2c0.3,0.2,0.6,0.4,0.8,0.7c0.3,0.3,0.5,0.6,0.7,1   c0.2,0.5,0.4,0.9,0.5,1.2c0.1,0.3,0.1,0.6,0.1,0.8c0,0.2-0.1,0.4-0.3,0.6c-0.1,0.2-0.4,0.4-0.6,0.5c-0.4,0.2-0.7,0.4-0.9,0.5   c-0.3,0.1-0.5,0.1-0.7,0c-0.2-0.1-0.3-0.2-0.5-0.3c-0.1-0.2-0.2-0.3-0.3-0.5l-1-2.1l-7.4,4.3l1.2,2.4c0.6,1.2,1.3,2,2.1,2.5   c0.8,0.5,1.7,0.8,2.8,0.7c1-0.1,2.1-0.4,3.2-0.9c1.1-0.5,2.2-1.3,3.4-2.2c1.3-1,2.3-2,3-2.9c0.7-0.9,1.1-1.7,1.3-2.6   c0.2-0.8,0.3-1.6,0.1-2.5C285.6,341.7,285.3,340.9,284.9,340.1z M301.1,331.7c-0.1-0.3-0.2-0.7-0.4-1c-0.1-0.4-0.3-0.7-0.5-1.1   c-0.1-0.3-0.3-0.5-0.4-0.8c-0.2-0.3-0.3-0.5-0.5-0.8c-0.2-0.2-0.4-0.4-0.6-0.6c-0.2-0.2-0.4-0.3-0.7-0.5c-0.2-0.1-0.5-0.2-0.8-0.2   c-0.3,0-0.5,0-0.8,0.1c-0.5,0.2-0.8,0.5-0.8,0.8l-0.8-1.6l2.9-1l-1.2-2.3l-5.3,1.4l3.8,7.4l2-1.1c-0.3-0.7-0.3-1.1,0.1-1.3   c0.1,0,0.2,0,0.3,0c0.1,0,0.2,0.1,0.3,0.2c0.1,0.1,0.2,0.2,0.3,0.3c0.1,0.1,0.2,0.3,0.2,0.4l0.8,1.6c0.2,0.3,0.2,0.6,0.3,0.8   c0,0.2-0.1,0.4-0.3,0.5c0,0-0.1,0.1-0.2,0.1c-0.1,0-0.1,0-0.2,0c-0.1-0.1-0.2-0.2-0.3-0.3c-0.1-0.2-0.3-0.4-0.4-0.7l-0.3-0.7   l-2.3,1.3l0.8,1.5c0.3,0.6,0.6,1,1,1.3c0.1,0.1,0.2,0.1,0.3,0.2c0.3,0.2,0.5,0.3,0.8,0.3c0.4,0.1,0.8,0,1.1-0.1   c0.4-0.1,0.7-0.3,1.1-0.6c0,0,0,0,0,0c0.3-0.2,0.5-0.5,0.7-0.8c0.2-0.3,0.3-0.6,0.3-0.9c0.1-0.3,0.1-0.6,0-1   C301.3,332.3,301.2,332,301.1,331.7z M295.2,336.1l1.1,2.2l-2.7,2.2l-1.3-2.5l-5.2,3.6l-1.5-2.9l-0.1-0.7l-1.4-11.9l5.3-1.4   l4.4,8.7l0.5-0.3l1.3,2.6l-0.5,0.3L295.2,336.1z M290.8,335l-3.4-6.8l1.6,7.8L290.8,335z M323,334c1.9,10.7,0.7,21.7-5.6,31   c-6.6,9.7-17.2,16-28.2,19.4c-2.3,0.7-4.6,1.3-6.9,1.7c-3.7,0.7-7.3,1-10.9,0.8c0,0,0,0,0,0l0,0c-0.3,0-0.6,0-0.9-0.1   c-0.5,0-1-0.1-1.6-0.1c-0.2,0-0.5-0.1-0.7-0.1c-2.2-0.3-4.3-0.6-6.5-1.2c0,0,0,0-0.1,0c-2.1-0.5-4.1-1.2-6-2.1c0,0,0,0,0,0   c-1-0.4-1.9-0.8-2.8-1.3c-0.1,0-0.1-0.1-0.2-0.1c-1.8-0.9-3.6-2-5.3-3.2c-0.1,0-0.1-0.1-0.2-0.1c-0.8-0.6-1.6-1.2-2.4-1.8   c-0.1-0.1-0.2-0.2-0.3-0.2c-1.5-1.3-3-2.6-4.3-4.1c-0.1-0.1-0.2-0.2-0.3-0.3c-0.6-0.7-1.3-1.4-1.9-2.2c-0.1-0.1-0.2-0.3-0.3-0.4   c-0.6-0.8-1.2-1.6-1.8-2.4c0,0,0,0,0,0c0-0.1-0.1-0.1-0.1-0.2l0,0c-0.5-0.8-1-1.5-1.4-2.3c-0.1-0.2-0.2-0.3-0.3-0.5   c-0.5-0.8-0.9-1.7-1.3-2.6c-0.1-0.2-0.2-0.3-0.2-0.5c-0.4-0.9-0.8-1.8-1.2-2.8c0-0.1,0-0.1-0.1-0.2c0-0.1,0-0.1-0.1-0.2   c-0.5-1.3-1-2.6-1.5-3.9c-0.5-1.4-1.1-2.8-1.6-4.2c-0.9-2.2-1.8-4.5-2.7-6.9c-0.3-0.8-0.6-1.6-1-2.4c-1.1-2.8-2.3-5.6-3.4-8.2   c-1.2-2.7-2.3-5.2-3.5-7.7c-4.1-8.7-8.2-16.5-12-23.3c-1.6-2.9-3.2-5.7-4.7-8.2c-2-3.4-3.9-6.5-5.6-9.3c-0.3-0.5-0.6-1-0.9-1.5   c4.2,6.2,20.6,29.9,27.5,32.6c0,0,0,0,0,0c0.1,0.1,0.3,0.1,0.4,0.1c0,0,0.1,0,0.1,0c0.1,0,0.2,0.1,0.4,0.1c0,0,0.1,0,0.1,0   c0.1,0,0.2,0,0.3,0c0,0,0.1,0,0.1,0c0.1,0,0.2,0,0.3-0.1c0,0,0.1,0,0.1,0c0.1,0,0.2-0.1,0.2-0.1c0,0,0.1-0.1,0.1-0.1   c0.1-0.1,0.1-0.1,0.2-0.2c0,0,0.1-0.1,0.1-0.1c0.1-0.1,0.1-0.1,0.2-0.2c0,0,0.1-0.1,0.1-0.2c0-0.1,0.1-0.2,0.1-0.3   c0-0.1,0.1-0.1,0.1-0.2c0-0.1,0.1-0.2,0.1-0.3c0-0.1,0-0.2,0.1-0.2c0-0.1,0-0.3,0.1-0.4c0-0.1,0-0.2,0-0.3c0-0.1,0-0.3,0-0.5   c0-0.1,0-0.2,0-0.3c0-0.2,0-0.4,0-0.5c0-0.1,0-0.2,0-0.3c0-0.2,0-0.4,0-0.7c0-0.1,0-0.2,0-0.3c0-0.4-0.1-0.7-0.1-1.1   c-0.3-2.3-0.6-4.6-1-6.8c-0.4-2.3-0.8-4.5-1.3-6.8c-2.7-12.2-6.8-23.4-11.8-29.7c-0.5-0.6-0.9-1.1-1.4-1.6   c-1.1-1.7-2.4-3.5-3.6-5.4c-0.7-1.1-1.5-2.3-2.3-3.5v0c0.1,0,0.2-0.1,0.3-0.1c1.5-0.6,3.1-1.3,4.7-1.9c0.1-0.1,0.3-0.1,0.4-0.2   c0.1,0,0.2-0.1,0.3-0.1l0,0c0.1,0.1,0.2,0.2,0.2,0c3,6.1,7.2,11.6,12.3,16.1c5.1,4.5,11.1,8,17.8,10.2c5.7,14,12.1,28,28.7,30.5   c13.8,2.1,24.1-5,29.3-16.5c1-1.6,1.6-3.3,1.9-5.2c0.1-0.3,0.2-0.7,0.3-1c2.6-9.8,2.8-20.3,0.7-30.3c1.6-2.6,2.9-5.4,4-8.2   c1.1-3,2-6.1,2.6-9.3c0.1-0.3,0.1-0.6,0.2-0.8c0.2,0.1,0.5,0.2,0.7,0.3c0.1,0,0.1,0.1,0.2,0.2c3.7,2.4,5.1,13.8,5.6,28.2   c0.5,14.7,0,32.4,0,46.7c0,15.5,5,19.4,9.6,19.8C322.9,333.5,322.9,333.7,323,334z M306,331.2l-3.6-25.5c0,0-23,22.2-49.7,19   c0,0,2.9,10.7,7.2,21c2.9,6.9,6.4,13.5,10.2,16.6c0,0,26.5-8.6,34.7-27.5C305.2,333.6,305.7,332.4,306,331.2z M443.5,492.9   c-2.8,1.4-5.9,2.5-9,2.9c0,0,0,0,0,0c0,0,0,0,0,0c-7.1-27-17.4-59-32.3-94.4c-2,0.4-4,0.8-6,1.1c-8.2,1.5-16.4,7.3-27.3,5.2   c-0.3-0.1-0.7-0.1-1-0.2c-9.2-6.3-17-12.2-17.9-16.1v0c-0.1-0.3-0.1-0.5-0.1-0.8v-1.5v-10.8c1.6-1.8,3.2-2.8,4.2-3.3   c-1.8,1.9-3.4,3.8-3.7,7.3c-0.1,1.2,0.3,2.6,1.1,4.2c0,0.1,0.1,0.2,0.1,0.2c0.2,0.3,0.3,0.6,0.5,0.9c0,0.1,0.1,0.1,0.1,0.2   c0.5,0.8,1.1,1.5,1.7,2.3c0,0,0,0,0.1,0.1c0.3,0.4,0.7,0.7,1,1.1c0,0,0.1,0.1,0.1,0.1c6.4,6.7,18,12.9,28.6,9.7   c7.1-2.2,12.5-2.8,16.8-3.4c-0.8-1.8-1.6-3.7-2.4-5.5c-1.5,0.2-2.8,0.3-4.4-0.2c-1.2-0.4-2.4-0.9-3.7-1c-3.3-0.2-7,2.5-9.5-0.8   c-0.8-1.1-1.4-2.4-1.8-3.8c-0.2-0.6-0.4-1.1-0.5-1.7c0.1,0.1,0.1,0.2,0.2,0.3c0.4,0.6,0.9,1.1,1.4,1.5c2.1,1.9,4.9,2.8,7.9,2.5   c2.1-0.2,4.2-0.9,6.2-1.8c0.6-0.3,1.1-0.5,1.7-0.8c-0.9-2.1-1.9-4.2-2.8-6.3c-1.5-3.3-3-6.6-4.6-9.9c-3-6.2-6.1-12.6-9.3-19   c-1-2-2.1-4-3.1-6.1c-0.5-1-1.1-2-1.6-3.1c-1.2-2.3-2.5-4.6-3.7-7c-2.9-5.4-6-10.9-9.1-16.4c-3.1-5.4-6.2-10.8-9.5-16.2   c-1.7-2.8-3.4-5.5-5.1-8.3c-0.3-0.5-0.6-1-1-1.5c-2.1-3.3-4.1-6.6-6.3-9.9c-4.7-7.2-9.5-14.5-14.6-21.8c-3.5-5-7-10-10.6-15   c-2-2.7-3.9-5.4-5.8-8c-0.5-0.7-1-1.4-1.6-2.1c-8.4-11.4-16.7-22.4-24.8-33c-2.1-2.7-4.2-5.4-6.2-8.1c3.9-2,7.7-4.9,13.8-4.1   c0.6,0.1,1.2,0.2,1.9,0.3c1.5,0.3,2.9,0.8,4.2,1.3c2.6,1,4.8,2.3,6.9,3.3c2.4,1.2,4.6,2.2,6.9,2.3c0.1,0.2,0.3,0.4,0.4,0.6   c6.5,10,13,20.2,19.5,30.7c4.4,7.2,8.8,14.6,13.2,22.1c6.3,10.8,12.5,21.8,18.6,33.1c1.7,3.1,3.4,6.3,5,9.5   c0.2,0.4,0.4,0.8,0.6,1.2c2.8,5.3,5.4,10.4,8,15.6c2.9,5.7,5.7,11.3,8.3,16.8c0.4,0.8,0.8,1.6,1.2,2.4c1.1,2.4,2.3,4.7,3.4,7v0   c3.2,6.7,6.2,13.3,9.1,19.7c0,0,0,0,0,0c1.1,2.4,2.1,4.7,3.1,7c0.7,1.5,1.4,3.1,2,4.6c1.6,3.6,3.1,7.1,4.5,10.6   c0.6,1.5,1.2,2.9,1.8,4.4c1.4-0.3,2.9-0.8,4-1.7c0.9-0.7,1.7-1.5,2.6-2.3c0.4-0.4,1-0.9,1.5-1.2c2.2-1,3.4,0.1,3,2.3   c-0.8,4.3-4.9,6.8-8.9,8.3c0.6,1.5,1.2,3,1.8,4.4c0.4-0.3,0.7-0.6,1.1-1c6.7-6.7,12.7-15.8,12.7-19.4c0-0.4-0.1-0.9-0.2-1.4   c0,0,0,0,0,0c0-0.1,0-0.2-0.1-0.3c0-0.1-0.1-0.3-0.1-0.4c0-0.1-0.1-0.2-0.1-0.3c0-0.1-0.1-0.3-0.1-0.4c0-0.1-0.1-0.2-0.1-0.4   c-0.1-0.1-0.1-0.3-0.2-0.4c-0.1-0.1-0.1-0.2-0.2-0.4c-0.1-0.1-0.1-0.3-0.2-0.4c-0.1-0.1-0.1-0.2-0.2-0.3c-0.1-0.1-0.2-0.3-0.2-0.4   c-0.1-0.1-0.1-0.2-0.2-0.3c0-0.1-0.1-0.1-0.2-0.2c0,0,0,0,0,0c1.5,0.8,3,2.2,3.6,4.1c0.1,0.5,0.2,1,0.1,1.6l0,0   c0,0.3-0.1,0.6-0.1,0.9c0,0,0,0.1,0,0.1c-0.1,0.3-0.1,0.6-0.2,0.9c0,0.1,0,0.1,0,0.2c-0.1,0.3-0.2,0.6-0.3,1c0,0.1,0,0.1-0.1,0.2   c-0.1,0.3-0.3,0.7-0.4,1c0,0,0,0.1,0,0.1c-0.3,0.7-0.6,1.4-1,2.2c-0.7,1.3-1.4,2.7-2.2,4.1c0,0,0,0,0,0c-0.2,0.4-0.5,0.8-0.7,1.2   c-0.1,0.1-0.1,0.2-0.2,0.3c-0.2,0.4-0.4,0.7-0.6,1.1c-0.1,0.1-0.2,0.2-0.2,0.4c-0.2,0.3-0.4,0.6-0.6,1c-0.1,0.2-0.2,0.3-0.3,0.5   c-0.2,0.3-0.4,0.6-0.6,0.9c-0.1,0.2-0.2,0.3-0.3,0.5c-0.2,0.3-0.4,0.6-0.5,0.8c-0.1,0.2-0.2,0.4-0.4,0.6c-0.4,0.7-0.8,1.3-1.2,1.9   c-1.1,1.7-2.4,3-4,4.1c14.7,37,24.4,68.9,30.9,95.2C444.4,492.4,443.9,492.7,443.5,492.9z M416.3,382.8c0.1,0.2,0.3,0.4,0.7,0.3   c0.2-0.1,0.4-0.1,0.6-0.3c0.3-0.3,0.2-0.7-0.1-1c-0.2-0.2-0.6-0.1-0.8-0.1C415.9,381.7,415.8,382.6,416.3,382.8z M411.5,386.7   c0.1,0.2,0.3,0.4,0.7,0.3l0.1,0c0.4-0.2,0.5-0.5,0.4-0.9c-0.1-0.3-0.4-0.4-0.6-0.4C411.2,385.4,410.9,386.4,411.5,386.7z    M395.5,389.6h-0.3c-0.8,0-0.8,1.2,0,1.2h0.3C396.3,390.8,396.3,389.6,395.5,389.6z M359.6,369.7L359.6,369.7   c0.1,0.1,0.2,0.1,0.2,0.1c0.1,0,0.1,0.1,0.2,0.1c0.2,0.1,0.3,0.2,0.5,0.2c0.1,0,0.1,0,0.2,0.1c0.2,0.1,0.4,0.1,0.5,0.2   c0,0,0.1,0,0.1,0c0.2,0.1,0.4,0.1,0.6,0.2c0,0,0,0,0.1,0c0.7,0.2,1.5,0.3,2.3,0.3c0,0,0,0,0,0c0,0,0,0,0,0c0.6,0.1,1.2,0.1,1.8,0.2   c0.1,0,0.3,0,0.4,0c0.1,0,0.3,0,0.4,0c0.1,0,0.3,0,0.4,0c0.1,0,0.2,0,0.4,0c0.2,0,0.3,0,0.5,0.1c0.1,0,0.2,0,0.4,0.1   c0.2,0,0.3,0.1,0.5,0.1c0.1,0,0.2,0,0.3,0.1c0.2,0,0.3,0.1,0.5,0.1c0.1,0,0.2,0,0.3,0.1c0.3,0.1,0.5,0.2,0.8,0.3   c0.3,0.1,0.6,0.3,0.9,0.4c1.2,0.6,2.2,1.5,2.9,2.5c-0.3-0.9-0.6-1.8-0.9-2.7c-0.3-0.8-0.7-1.5-1.1-2.2c-0.2-0.3-0.4-0.6-0.6-0.8   c-0.1-0.1-0.1-0.2-0.2-0.2c-0.1-0.2-0.3-0.3-0.4-0.5c-0.1-0.1-0.2-0.2-0.3-0.2c-0.1-0.1-0.3-0.2-0.4-0.3c-0.1-0.1-0.2-0.1-0.3-0.2   c-0.1-0.1-0.3-0.2-0.4-0.3c-0.1-0.1-0.2-0.1-0.3-0.2c-0.1-0.1-0.3-0.1-0.4-0.2c-0.1,0-0.2-0.1-0.4-0.1c-0.1-0.1-0.3-0.1-0.4-0.1   c-0.1,0-0.2-0.1-0.4-0.1c-0.2,0-0.3-0.1-0.5-0.1c-0.1,0-0.3,0-0.4-0.1c-0.2,0-0.3,0-0.5-0.1c-0.1,0-0.3,0-0.4,0c-0.2,0-0.3,0-0.5,0   c-0.1,0-0.3,0-0.4,0c-0.2,0-0.3,0-0.5,0c-0.1,0-0.3,0-0.4,0c-0.2,0-0.3,0-0.5,0c-0.1,0-0.3,0-0.4,0c-0.2,0-0.3,0-0.5,0.1   c0,0,0,0-0.1,0c-0.1,0-0.2,0-0.3,0c-0.2,0-0.4,0.1-0.5,0.1c-0.1,0-0.2,0-0.4,0.1c-0.2,0-0.4,0.1-0.6,0.1c-0.1,0-0.2,0-0.3,0.1   c-0.3,0-0.5,0.1-0.8,0.2c0,0-0.1,0-0.1,0c-0.3,0.1-0.6,0.1-0.9,0.2c0,0,0,0-0.1,0l0,0c-0.2,0.6-0.4,1.1-0.6,1.6l0,0   C359,369.3,359.3,369.5,359.6,369.7L359.6,369.7C359.6,369.7,359.6,369.7,359.6,369.7C359.6,369.7,359.6,369.7,359.6,369.7z    M194,282.3L194,282.3C194,282.3,194,282.3,194,282.3C194,282.3,194,282.3,194,282.3L194,282.3z M298.9,459.8   C298.9,459.8,298.9,459.9,298.9,459.8c-0.4,0.2-2.8,1.7-5.1,0.7c-1.5-0.6-2.2-1.5-2.7-2c-0.3-0.3-0.6-0.4-0.9-0.1   c-0.7,0.6-1.8,1.9-0.4,3.1c0.3,0.2,0.7,0.5,1.3,0.7c2.2,0.9,4.1,1.3,5.6,1c0.7-0.1,1.2-0.4,1.6-0.8   C300.1,460.8,298.9,459.8,298.9,459.8z M296.2,463.9c0,0-1.2,1.5-3.7,0.9c-2.1-0.5-2.4-1.4-2.9-1.5c-0.1,0-0.2,0-0.4,0.1   c-0.9,0.4-1,1.7,0.4,2.6c0.1,0.1,0.3,0.1,0.4,0.2c1.3,0.6,3.5,0.8,4.9,0.4c0,0,0,0,0,0c0.2-0.1,0.5-0.2,0.6-0.3   C296.6,465.5,296.2,463.9,296.2,463.9L296.2,463.9z M300.8,455.4c-0.8,0-3.4-0.3-4.4-1.4c-0.5-0.6-1.3-1.1-2-1.2   c-0.8-0.1-1.5,0.1-1.8,0.9c-0.2,0.7-0.3,1.6,0,2.4c0.4,1,1.5,2,3.7,2.3c1.4,0.2,2.5,0.3,3.2,0.1c1.3-0.4,1.7-1.4,1.5-3.1   C301.1,455.4,301,455.4,300.8,455.4z M296.6,423.4c-2.9,3.4-5.2,7.1-5.1,12c0,2.2,0.7,4.4,0.9,6.6c0.2,2.5-0.6,4.5-2,6.6   c-2.6,3.8-4.1,6.7-4,11.4c0,1.5,0,2.9-0.5,4.3c-0.3,1-0.7,1.9-1.8,2.2c-2,0.5-3.4-1.6-3.3-3.5c0.1-3.5,2.7-6.5,1.6-10.1   c-0.7-2.1-2.7-4.5-1.6-6.8c0.9-1.8,3.3-3,4.6-4.6c3.1-3.7,5.3-8.1,7.3-12.5c0.9-2,1.8-4.1,2.6-6.3   C295.7,423,296.2,423.2,296.6,423.4z M288.7,441.4c0.7,0,0.7-1.1,0-1.1C288,440.3,288,441.4,288.7,441.4z M285.8,444.1   c0.2,0,0.3,0,0.5-0.1c0.6-0.3,0.1-1.3-0.5-0.9c0,0,0,0,0.1,0C285.1,443.1,285.1,444.2,285.8,444.1z M284.2,454.6L284.2,454.6   c0.8,0,0.8-1.1,0.1-1.1h-0.1C283.5,453.5,283.5,454.6,284.2,454.6z M283.6,457.3L283.6,457.3c-0.8,0-0.8,1.1-0.1,1.1h0.1   C284.2,458.3,284.2,457.3,283.6,457.3z M284,450.1c0,0.2,0.2,0.3,0.4,0.4c0,0,0,0,0.1,0c0.6,0.1,0.9-0.7,0.5-0.9c0,0,0,0,0,0   c0,0,0,0,0,0C284.6,449.1,283.9,449.4,284,450.1L284,450.1z M284.1,459.1c0,0.7,1.1,0.7,1.1,0v-0.1   C285.1,458.4,284.1,458.4,284.1,459.1L284.1,459.1z M285.6,456.4L285.6,456.4c0-0.8-1.1-0.8-1.1-0.1v0.1   C284.6,457.1,285.6,457.1,285.6,456.4z M285.5,451.4L285.5,451.4c-0.8,0-0.8,1.1-0.1,1.1h0.1C286.1,452.5,286.1,451.4,285.5,451.4z    M284.6,447.9C284.6,447.9,284.6,447.9,284.6,447.9c0,0.2,0.2,0.4,0.4,0.4c0,0,0,0,0.1,0c0.6,0.1,0.9-0.7,0.5-0.9c0,0,0,0,0,0   c0,0,0,0,0,0C285.3,447,284.5,447.3,284.6,447.9z M283.5,445.9C283.5,445.9,283.5,445.9,283.5,445.9   C283.5,445.9,283.5,445.9,283.5,445.9c0.3,0.4,1,0.1,0.9-0.5c0,0,0,0,0-0.1c0-0.2-0.2-0.3-0.4-0.4c0,0,0,0-0.1,0   C283.4,444.9,283.1,445.6,283.5,445.9z M283.3,451.4L283.3,451.4c-0.8,0-0.8,1.1-0.1,1.1h0.1C284,452.4,284,451.4,283.3,451.4z    M283.2,448.4v-0.1c0-0.7-1.1-0.7-1.1,0v0.1C282.2,449.1,283.2,449.1,283.2,448.4z M282.7,460.9L282.7,460.9c0.7,0,0.7-1.1,0.1-1.1   h-0.1C282.1,459.9,282.1,460.9,282.7,460.9z M282.6,462.3L282.6,462.3c-0.6-0.6-1.3,0.2-0.8,0.7c0,0,0,0,0.1,0.1   C282.3,463.6,283.1,462.8,282.6,462.3z M283.1,464.6L283.1,464.6c-0.8,0-0.8,1.1-0.1,1.1h0.1C283.8,465.7,283.8,464.6,283.1,464.6z    M283.8,462.5c-0.7,0-0.7,1.1,0,1.1C284.5,463.6,284.5,462.5,283.8,462.5z M284.8,462c0.7,0,0.7-1.1,0-1.1   C284.1,460.9,284.1,462,284.8,462z M286,463.4c0-0.7-1.1-0.7-1.1,0v0.1C284.9,464.2,286,464.2,286,463.4L286,463.4z M286.6,449.6   L286.6,449.6c-0.8,0-0.8,1.1-0.1,1.1h0.1C287.3,450.7,287.3,449.6,286.6,449.6z M287.4,445.7c0.1-0.6-0.7-0.9-1-0.4   c-0.4,0.2-0.3,1,0.2,1C287,446.3,287.3,446.1,287.4,445.7z M288.4,446.5c-0.7,0-0.7,1.1,0,1.1C289.1,447.6,289.1,446.5,288.4,446.5   z M289.5,442.8c-0.4-0.2-1,0.4-0.6,0.9c0,0,0,0,0,0.1c0.2,0.2,0.4,0.2,0.6,0.1c0,0,0.1,0,0.1-0.1   C290.1,443.5,289.9,442.9,289.5,442.8z" originalFill="#F04C23"/>
	<path fill="#FFFFFF" d="M395.5,389.6c0.8,0,0.8,1.2,0,1.2h-0.3c-0.8,0-0.8-1.2,0-1.2H395.5z M393.9,392.1c-1.2-0.4-2.4-0.9-3.7-1   c-3.3-0.2-7,2.5-9.5-0.8c-0.8-1.1-1.4-2.4-1.8-3.8c-0.2-0.6-0.4-1.1-0.5-1.7c0.1,0.1,0.1,0.2,0.2,0.3c0.4,0.6,0.9,1.1,1.4,1.5   c2.1,1.9,4.9,2.8,7.9,2.5c2.1-0.2,4.2-0.9,6.2-1.8c0.6-0.3,1.1-0.5,1.7-0.8c-0.9-2.1-1.9-4.2-2.8-6.3c-0.8,0.9-1.6,1.7-2.5,2.3   c-3.2-0.8-11.4-3.4-12.3-9.7c-0.1-0.4-0.1-0.8-0.2-1.1c-1.7-7.2-9.1-11.6-12.8-10.7c-0.5,0.1-1,0.4-1.4,0.7   c0.1-0.4,0.2-0.9,0.3-1.3c0.7-2.3,1.8-4.8,3.1-7.3c-1.8,2.3-5.7,7.7-7.5,13.6c-0.1,0.2-0.1,0.4-0.2,0.6l0,0c0,0,0,0,0.1,0   c0.3-0.1,0.6-0.1,0.9-0.2c0,0,0.1,0,0.1,0c0.3-0.1,0.5-0.1,0.8-0.2c0.1,0,0.2,0,0.3-0.1c0.2,0,0.4-0.1,0.6-0.1c0.1,0,0.2,0,0.4-0.1   c0.2,0,0.4-0.1,0.5-0.1c0.1,0,0.2,0,0.3,0c0,0,0,0,0.1,0c0.2,0,0.3,0,0.5-0.1c0.1,0,0.3,0,0.4,0c0.2,0,0.3,0,0.5,0   c0.1,0,0.3,0,0.4,0c0.2,0,0.3,0,0.5,0c0.1,0,0.3,0,0.4,0c0.2,0,0.3,0,0.5,0c0.1,0,0.3,0,0.4,0c0.2,0,0.3,0,0.5,0.1   c0.1,0,0.3,0,0.4,0.1c0.2,0,0.3,0.1,0.5,0.1c0.1,0,0.2,0.1,0.4,0.1c0.1,0,0.3,0.1,0.4,0.1c0.1,0,0.2,0.1,0.4,0.1   c0.1,0.1,0.3,0.1,0.4,0.2c0.1,0.1,0.2,0.1,0.3,0.2c0.1,0.1,0.3,0.2,0.4,0.3c0.1,0.1,0.2,0.1,0.3,0.2c0.1,0.1,0.3,0.2,0.4,0.3   c0.1,0.1,0.2,0.1,0.3,0.2c0.1,0.1,0.3,0.3,0.4,0.5c0.1,0.1,0.1,0.1,0.2,0.2c0.2,0.2,0.4,0.5,0.6,0.8c0.4,0.7,0.8,1.5,1.1,2.2   c0.4,0.9,0.7,1.8,0.9,2.7c-0.7-1-1.7-1.8-2.9-2.5c-0.3-0.2-0.6-0.3-0.9-0.4c-0.3-0.1-0.5-0.2-0.8-0.3c-0.1,0-0.2,0-0.3-0.1   c-0.2,0-0.3-0.1-0.5-0.1c-0.1,0-0.2,0-0.3-0.1c-0.2,0-0.3-0.1-0.5-0.1c-0.1,0-0.2,0-0.4-0.1c-0.2,0-0.3,0-0.5-0.1   c-0.1,0-0.2,0-0.4,0c-0.1,0-0.3,0-0.4,0c-0.1,0-0.3,0-0.4,0c-0.1,0-0.3,0-0.4,0c-0.6-0.1-1.2-0.1-1.8-0.2c0,0,0,0,0,0c0,0,0,0,0,0   c-0.8-0.1-1.6-0.2-2.3-0.3c0,0,0,0-0.1,0c-0.2,0-0.4-0.1-0.6-0.2c0,0-0.1,0-0.1,0c-0.2-0.1-0.4-0.1-0.5-0.2c-0.1,0-0.1,0-0.2-0.1   c-0.2-0.1-0.3-0.1-0.5-0.2c-0.1,0-0.1-0.1-0.2-0.1c-0.1,0-0.2-0.1-0.2-0.1v0c0,0,0,0,0,0c0,0,0,0,0,0l0,0c-0.3-0.2-0.6-0.4-0.9-0.7   l0,0c-1.3,2.7-3,4.4-4.6,6c-1.8,1.9-3.4,3.8-3.7,7.3c-0.1,0.9,0.2,2,0.6,3.1c0,0,0,0,0,0c0.1,0.3,0.3,0.7,0.5,1   c0,0.1,0.1,0.2,0.1,0.2c0.2,0.3,0.3,0.6,0.5,0.9c0,0.1,0.1,0.1,0.1,0.2c0.5,0.8,1.1,1.5,1.7,2.3c0,0,0,0,0.1,0.1   c0.3,0.4,0.7,0.7,1,1.1c0,0,0.1,0.1,0.1,0.1c0.5,0.5,1,1,1.6,1.5c0.1,0.1,0.2,0.2,0.4,0.3c0.5,0.4,1,0.8,1.5,1.2   c0.1,0.1,0.2,0.2,0.3,0.2c1.3,1,2.7,2,4.2,2.8l0,0c6.1,3.6,13.7,5.7,20.7,3.5c7.1-2.2,12.5-2.8,16.8-3.4c-0.8-1.8-1.6-3.7-2.4-5.5   C396.8,392.4,395.5,392.5,393.9,392.1z M417,383.1c0.2-0.1,0.4-0.1,0.6-0.3c0.3-0.3,0.2-0.7-0.1-1c-0.2-0.2-0.6-0.1-0.8-0.1   c-0.7,0-0.8,0.9-0.3,1.1C416.4,383.1,416.7,383.2,417,383.1z M412.1,386.9L412.1,386.9c0.5-0.2,0.6-0.5,0.4-0.9   c-0.1-0.3-0.4-0.4-0.6-0.4c-0.7-0.2-1,0.8-0.4,1.1C411.6,386.9,411.8,387.1,412.1,386.9z M426.2,371.8c0-0.1,0-0.2-0.1-0.3   c0-0.1-0.1-0.3-0.1-0.4c0-0.1-0.1-0.2-0.1-0.3c0-0.1-0.1-0.3-0.1-0.4c0-0.1-0.1-0.2-0.1-0.4c-0.1-0.1-0.1-0.3-0.2-0.4   c-0.1-0.1-0.1-0.2-0.2-0.4c-0.1-0.1-0.1-0.3-0.2-0.4c-0.1-0.1-0.1-0.2-0.2-0.3c-0.1-0.1-0.2-0.3-0.2-0.4c-0.1-0.1-0.1-0.2-0.2-0.3   c0-0.1-0.1-0.1-0.2-0.2c0-0.1-0.1-0.1-0.1-0.2c-0.1-0.1-0.1-0.2-0.2-0.3c-0.2-0.2-0.3-0.5-0.5-0.7c0,0-0.1-0.1-0.1-0.1   c-0.1-0.2-0.3-0.3-0.5-0.5c-0.1-0.1-0.1-0.1-0.2-0.2c-0.1-0.1-0.3-0.3-0.4-0.4c-0.1-0.1-0.2-0.2-0.3-0.2c-0.1-0.1-0.3-0.2-0.4-0.3   c-0.1-0.1-0.2-0.1-0.3-0.2c-0.1-0.1-0.3-0.2-0.4-0.3c-0.1-0.1-0.2-0.1-0.3-0.2c-0.1-0.1-0.3-0.2-0.4-0.3c-0.1-0.1-0.2-0.1-0.3-0.2   c-0.2-0.1-0.3-0.2-0.5-0.2c-0.1,0-0.2-0.1-0.2-0.1c-0.2-0.1-0.5-0.2-0.7-0.3c-1.5-0.4-2.7,0.2-3.9,0.9c1.5-0.2,3,1.1,4.2,2.7   c1.7,2.4,2.9,5.7,2.6,6.9c0,0.1-0.1,0.3-0.1,0.4c-0.6,1.8-2.4,2.3-2.8,0c0-0.2-0.1-0.3-0.1-0.5c-0.2-1.8-2-4.4-3.6-6.3   c-1.1-1.4-2.1-2.4-2.1-2.4c0,0,0,0,0,0c-0.2,0.1-0.3,0.1-0.5,0.2c0.4,0.6,0.9,1.5,1.3,2.4c1.1,2.3,2.2,5.1,2.2,6.7   c0,0.2,0,0.3,0,0.5c-0.4,2-2.8,2.9-3,0.4c0-0.2,0-0.5,0-0.7c0.1-1.9-1-4.5-2-6.5c-0.7-1.5-1.5-2.6-1.6-2.7c0,0-0.1-0.1-0.1-0.1   c-0.8-0.2-1.7-0.7-2.6-1.4c0.4,1,0.9,2,1.8,3.1c0.3,0.3,0.5,0.8,0.7,1.3c0.9,2.3,1.3,6.1,1.1,8.8c-0.1,1.6-0.4,2.7-0.9,2.9   c-0.7,0.3-1.3,0.1-1.8-0.8c-0.5-0.9-0.9-2.5-1.4-4.9c-0.4-1.9-1.2-3.8-2.1-5.4c-1.3-2.4-2.8-4.2-2.8-4.2c-0.4-2.3,0.4-3.5,1.5-3.9   c0,0,0,0,0,0c-0.2-0.1-0.4-0.3-0.6-0.4c-0.1-0.1-0.2-0.1-0.3-0.2c-0.7,1.4-1.3,2.9-1.9,4.2c0.7,1.5,1.4,3.1,2,4.6   c1.6,3.6,3.1,7.1,4.5,10.6c0.6,1.5,1.2,2.9,1.8,4.4c1.4-0.3,2.9-0.8,4-1.7c0.9-0.7,1.7-1.5,2.6-2.3c0.4-0.4,1-0.9,1.5-1.2   c2.2-1,3.4,0.1,3,2.3c-0.8,4.3-4.9,6.8-8.9,8.3c0.6,1.5,1.2,3,1.8,4.4c0.4-0.3,0.7-0.6,1.1-1c6.7-6.7,12.7-15.8,12.7-19.4   C426.3,372.8,426.3,372.3,426.2,371.8C426.2,371.8,426.2,371.8,426.2,371.8z M285.5,447.4C285.5,447.4,285.5,447.4,285.5,447.4   c-0.3-0.4-1-0.1-0.9,0.5c0,0,0,0,0,0.1c0,0.2,0.2,0.3,0.4,0.4c0,0,0,0,0.1,0C285.6,448.4,285.9,447.7,285.5,447.4   C285.5,447.4,285.5,447.4,285.5,447.4z M283.2,452.4L283.2,452.4c0.8,0,0.8-1.1,0.1-1.1h-0.1C282.5,451.4,282.5,452.4,283.2,452.4z    M284,445C284,445,284,445,284,445c-0.6-0.1-0.9,0.6-0.6,0.9c0,0,0,0,0,0c0,0,0,0,0,0c0.3,0.4,1,0.1,0.9-0.5c0,0,0,0,0-0.1   C284.4,445.2,284.2,445,284,445z M283.2,448.4v-0.1c0-0.7-1.1-0.7-1.1,0v0.1C282.2,449.1,283.2,449.1,283.2,448.4z M282.7,460.9   L282.7,460.9c0.7,0,0.7-1.1,0.1-1.1h-0.1C282.1,459.9,282.1,460.9,282.7,460.9z M286,463.5L286,463.5c0-0.8-1.1-0.8-1.1-0.1v0.1   C284.9,464.2,286,464.2,286,463.5z M283.8,462.5c-0.7,0-0.7,1.1,0,1.1C284.5,463.6,284.5,462.5,283.8,462.5z M281.8,463   C281.8,463,281.8,463.1,281.8,463c0.6,0.6,1.3-0.2,0.8-0.7l-0.1-0.1C282,461.8,281.3,462.5,281.8,463z M284.8,462   c0.7,0,0.7-1.1,0-1.1C284.1,460.9,284.1,462,284.8,462z M283,465.7L283,465.7c0.8,0,0.8-1.1,0.1-1.1H283   C282.3,464.6,282.3,465.7,283,465.7z M286.5,450.7L286.5,450.7c0.8,0,0.8-1.1,0.1-1.1h-0.1C285.8,449.6,285.8,450.7,286.5,450.7z    M288.7,440.3c-0.7,0-0.7,1.1,0,1.1C289.4,441.4,289.4,440.3,288.7,440.3z M285.8,443.1C285.8,443.1,285.8,443.1,285.8,443.1   c-0.6,0.1-0.6,1.1,0.1,1.1c0.2,0,0.3,0,0.5-0.1C286.9,443.6,286.3,442.7,285.8,443.1z M284.3,454.6c0.7,0,0.7-1.1,0-1.1h-0.1   C283.5,453.5,283.5,454.6,284.3,454.6L284.3,454.6z M285.1,459.1L285.1,459.1c0-0.8-1.1-0.8-1.1-0.1v0.1   C284.1,459.8,285.1,459.8,285.1,459.1z M283.5,457.3c-0.7,0-0.7,1.1,0,1.1h0.1C284.2,458.3,284.2,457.3,283.5,457.3L283.5,457.3z    M285.6,456.4L285.6,456.4c0-0.8-1.1-0.8-1.1-0.1v0.1C284.6,457.1,285.6,457.1,285.6,456.4z M285.5,451.4L285.5,451.4   c-0.8,0-0.8,1.1-0.1,1.1h0.1C286.1,452.5,286.1,451.4,285.5,451.4z M284,450L284,450c0,0.2,0.2,0.4,0.4,0.4c0,0,0,0,0.1,0   c0.6,0.1,0.9-0.7,0.5-0.9c0,0,0,0,0,0c0,0,0,0,0,0C284.6,449.1,283.9,449.4,284,450z M287.4,445.7c0.1-0.6-0.7-0.9-1-0.4   c-0.4,0.2-0.3,1,0.2,1C287,446.3,287.3,446.1,287.4,445.7z M289.6,443.8C289.6,443.8,289.6,443.8,289.6,443.8c0.6-0.3,0.3-1-0.1-1   c-0.4-0.2-1,0.4-0.6,0.9c0,0,0,0,0,0.1C289.1,443.9,289.4,443.9,289.6,443.8z M288.4,447.6c0.7,0,0.7-1.1,0-1.1   C287.7,446.5,287.7,447.6,288.4,447.6z M313.6,450.6c-0.2,0-0.4-0.1-0.6-0.1c-0.2,0-0.3-0.1-0.5-0.1c-0.2,0-0.4-0.1-0.6-0.1   c-0.1,0-0.3,0-0.4-0.1c-0.2,0-0.4-0.1-0.6-0.1c-0.1,0-0.2,0-0.4-0.1c-0.2,0-0.4-0.1-0.6-0.1c-0.1,0-0.2,0-0.3-0.1   c-0.2,0-0.3-0.1-0.5-0.1c-0.1,0-0.2,0-0.3-0.1c-0.2,0-0.4-0.1-0.5-0.1c-0.1,0-0.1,0-0.2,0c-0.2,0-0.5-0.1-0.7-0.1   c-0.6-0.1-1.1-0.2-1.7-0.4c-0.1,0-0.2-0.1-0.3-0.1c-0.5-0.2-1-0.3-1.4-0.6c-0.1,0-0.1-0.1-0.2-0.1c-0.4-0.2-0.8-0.4-1.1-0.7   c-0.1,0-0.1-0.1-0.2-0.1c-0.4-0.3-0.7-0.6-1-0.9c-0.1-0.1-0.1-0.1-0.2-0.2c-0.4-0.4-0.7-0.9-1-1.4c-0.2-0.3-0.3-0.6-0.5-1   c0-0.1-0.1-0.1-0.1-0.2c-0.2-0.4-0.3-0.9-0.4-1.4c0,0,0-0.1,0-0.1c-0.1-0.5-0.2-1-0.2-1.5c0,0,0-0.1,0-0.1c0-0.5,0-1.1,0-1.7   c0-0.1,0-0.1,0-0.2c0.1-1.2,0.3-2.4,0.6-3.7c0,0,0-0.1,0-0.1c0.7-2.7,2-5.6,3.9-8.5c-0.4-0.2-0.8-0.3-1.2-0.5   c-1.9-0.8-3.8-1.7-5.6-2.5c-2.9,3.4-5.2,7.1-5.1,12c0,2.2,0.7,4.4,0.9,6.6c0.2,2.5-0.6,4.5-2,6.6c-2.6,3.8-4.1,6.7-4,11.4   c0,1.5,0,2.9-0.5,4.3c-0.3,1-0.7,1.9-1.8,2.2c-2,0.5-3.4-1.6-3.3-3.5c0.1-3.5,2.7-6.5,1.6-10.1c-0.7-2.1-2.7-4.5-1.6-6.8   c0.9-1.8,3.3-3,4.6-4.6c3.1-3.7,5.3-8.1,7.3-12.5c0.9-2,1.8-4.1,2.6-6.3c-1.4-0.6-2.7-1.3-4-1.9c-4.5-2.2-8.6-4.5-12.4-6.7   c-3.5,2.3-11.1,8.7-11.3,21.8c0,0.6,0,1.2,0,1.8c0,0.2,0,0.3,0,0.4c0,0.4,0,0.9,0,1.3c0,0.1,0,0.2,0,0.3c0.1,1.1,0.2,2,0.3,2.8l0,0   c1.4,8.9,6.5,6.4,9.4,12.6c3.4,7.4-4.8,11.1,2.1,16.2c5.9,4.3,13.1,4.7,16.3,2.8c-0.1-0.1-0.7-0.8-1.1-2c-0.2-0.6-0.4-1.4-0.4-2.2   c0-0.1,0-0.1,0-0.2c0-0.2,0-0.4,0-0.6c0-0.1,0-0.2,0-0.3c0-0.2,0.1-0.4,0.1-0.6c0-0.1,0-0.2,0.1-0.4c0-0.2,0.1-0.4,0.2-0.6   c0-0.1,0.1-0.3,0.1-0.4c0-0.1,0.1-0.2,0.1-0.3c-1.3,0.4-3.6,0.2-4.9-0.4c-0.1-0.1-0.3-0.1-0.4-0.2c-1.3-0.9-1.2-2.1-0.4-2.6   c0.2-0.1,0.3-0.1,0.4-0.1c0.5,0.1,0.9,1,2.9,1.5c2.6,0.6,3.7-0.9,3.7-0.9l0,0c0.2-0.2,0.3-0.5,0.4-0.7c-1.5,0.3-3.4-0.1-5.6-1   c-0.6-0.2-1-0.5-1.3-0.7c-1.4-1.2-0.4-2.5,0.4-3.1c0.3-0.3,0.6-0.2,0.9,0.1c0.5,0.5,1.2,1.3,2.7,2c2.3,1,4.7-0.5,5.1-0.7   c0.3-0.5,0.5-0.9,0.7-1.4c-0.7,0.2-1.8,0.2-3.2-0.1c-2.2-0.4-3.3-1.3-3.7-2.3c-0.3-0.8-0.3-1.7,0-2.4c0.3-0.8,1-1,1.8-0.9   c0.7,0.1,1.5,0.6,2,1.2c1,1.1,3.6,1.4,4.4,1.4c1.5-0.6,5,0.9,9-0.9c0.4-0.2,0.8-0.4,1.1-0.6c0.1-0.1,0.2-0.1,0.3-0.2   c0.3-0.2,0.6-0.4,0.9-0.7c0,0,0.1,0,0.1-0.1c0.3-0.3,0.5-0.6,0.8-0.9c0.1-0.1,0.1-0.1,0.1-0.2c0.2-0.3,0.4-0.6,0.6-0.9   c0,0,0-0.1,0.1-0.1c0.1-0.1,0.1-0.2,0.2-0.3l0,0c0,0,0,0,0,0C313.8,450.6,313.7,450.6,313.6,450.6z M444.8,492.3   c-0.4,0.2-0.8,0.5-1.3,0.7c-2.8,1.4-5.9,2.5-9,2.9c0,0,0,0,0,0c11,42,14.3,71.7,15.2,82.1c0.2,2.3,2.2,3.9,4.5,3.6   c2-0.3,3.5-2,3.4-4C457.6,568.1,456.3,538.9,444.8,492.3z M243.4,106.3c-0.1,0.4-0.3,0.7-0.4,1.1c-0.1,0.1-0.1,0.2-0.1,0.3   c-0.2,0.5-0.5,1-0.7,1.4c-0.1,0.1-0.1,0.3-0.2,0.4c-0.2,0.4-0.5,0.9-0.8,1.3c-0.1,0.2-0.2,0.3-0.3,0.5c-0.3,0.4-0.6,0.8-0.9,1.2   c-0.1,0.2-0.2,0.3-0.4,0.5c-0.5,0.5-0.9,1.1-1.5,1.6c0,0,0,0,0,0c-0.7,0.7-1.6,1.5-2.6,2.2c-1.8,1.3-3.9,2.6-6.3,3.9   c-0.7,0.4-1.4,0.8-2.1,1.2c-1.1,0.6-2.2,1.2-3.4,1.9c-0.8,0.4-1.6,0.9-2.4,1.3c-0.5,0.3-1,0.6-1.5,0.9c1.3,1.5,2.6,3.1,4,4.6   c7.4-4.9,9.4-9.4,25.6-7.8c2-0.6,3.9-1,6-1.4C251.3,116.3,247.3,111.2,243.4,106.3z M139.4,23.6c-3.5,7-1.9,15.5,3.8,20.9   c8,7.5,18.2,17.6,30.3,30.3c1.3-1.3,2.7-2.6,4.1-3.9c3.7-4.3,8.4-8.2,14.5-11.3c3.3-1.7,6.4-3,9.3-4.1   c-12.4-14.2-23.6-26.4-33-36.4C159.8,10.2,144.9,12.5,139.4,23.6z M290.8,335l-3.4-6.8l1.6,7.8L290.8,335z M259.9,345.7   c-4.3-10.3-7.2-21-7.2-21c26.7,3.2,49.7-19,49.7-19l3.6,25.5c-0.4,1.3-0.8,2.5-1.3,3.7c-8.2,18.9-34.7,27.5-34.7,27.5   C266.3,359.2,262.8,352.6,259.9,345.7z M291.1,324.2l3.8,7.4l2-1.1c-0.3-0.7-0.3-1.1,0.1-1.3c0.1,0,0.2,0,0.3,0   c0.1,0,0.2,0.1,0.3,0.2c0.1,0.1,0.2,0.2,0.3,0.3c0.1,0.1,0.2,0.3,0.2,0.4l0.8,1.6c0.2,0.3,0.2,0.6,0.3,0.8c0,0.2-0.1,0.4-0.3,0.5   c0,0-0.1,0.1-0.2,0.1c-0.1,0-0.1,0-0.2,0c-0.1-0.1-0.2-0.2-0.3-0.3c-0.1-0.2-0.3-0.4-0.4-0.7l-0.3-0.7l-2.3,1.3l0.8,1.5   c0.3,0.6,0.6,1,1,1.3c0.1,0.1,0.2,0.1,0.3,0.2c0.3,0.2,0.5,0.3,0.8,0.3c0.4,0.1,0.8,0,1.1-0.1c0.4-0.1,0.7-0.3,1.1-0.6c0,0,0,0,0,0   c0.3-0.2,0.5-0.5,0.7-0.8c0.2-0.3,0.3-0.6,0.3-0.9c0.1-0.3,0.1-0.6,0-1c0-0.3-0.1-0.7-0.2-1c-0.1-0.3-0.2-0.7-0.4-1   c-0.1-0.4-0.3-0.7-0.5-1.1c-0.1-0.3-0.3-0.5-0.4-0.8c-0.2-0.3-0.3-0.5-0.5-0.8c-0.2-0.2-0.4-0.4-0.6-0.6c-0.2-0.2-0.4-0.3-0.7-0.5   c-0.2-0.1-0.5-0.2-0.8-0.2c-0.3,0-0.5,0-0.8,0.1c-0.5,0.2-0.8,0.5-0.8,0.8l-0.8-1.6l2.9-1l-1.2-2.3L291.1,324.2z M284.1,326.1   l1.4,11.9l0.1,0.7l1.5,2.9l5.2-3.6l1.3,2.5l2.7-2.2l-1.1-2.2l-0.1-0.1l0.5-0.3l-1.3-2.6l-0.5,0.3l-4.4-8.7L284.1,326.1z    M280.4,345.1c0,0.2-0.1,0.4-0.3,0.6c-0.1,0.2-0.4,0.4-0.6,0.5c-0.4,0.2-0.7,0.4-0.9,0.5c-0.3,0.1-0.5,0.1-0.7,0   c-0.2-0.1-0.3-0.2-0.5-0.3c-0.1-0.2-0.2-0.3-0.3-0.5l-1-2.1l-7.4,4.3l1.2,2.4c0.6,1.2,1.3,2,2.1,2.5c0.8,0.5,1.7,0.8,2.8,0.7   c1-0.1,2.1-0.4,3.2-0.9c1.1-0.5,2.2-1.3,3.4-2.2c1.3-1,2.3-2,3-2.9c0.7-0.9,1.1-1.7,1.3-2.6c0.2-0.8,0.3-1.6,0.1-2.5   c-0.1-0.8-0.4-1.6-0.8-2.5c-0.2-0.5-0.5-0.9-0.7-1.3c-0.1-0.2-0.2-0.3-0.3-0.5c-0.2-0.2-0.3-0.4-0.5-0.6c-0.3-0.3-0.7-0.6-1.2-0.7   c-0.5-0.2-1.1-0.2-1.8-0.2c0.4-0.4,0.7-0.8,0.9-1.1c0.2-0.4,0.2-0.8,0.2-1.2c0-0.4-0.1-0.8-0.2-1.2c-0.1-0.4-0.3-0.8-0.5-1.2   c-0.4-0.8-0.9-1.5-1.5-2c-0.6-0.5-1.3-0.9-2-1.1c-0.8-0.2-1.7-0.3-2.7-0.3c-1,0-2.2,0.2-3.5,0.6c-1.4,0.4-2.7,0.8-3.8,1.4   c-1.2,0.6-2.1,1.2-2.8,2c-0.7,0.8-1.1,1.7-1.2,2.6c-0.1,1,0.2,2.1,0.8,3.2l0.5,0.9l7.9-3.2l-0.3-0.7c-0.1-0.2-0.2-0.4-0.3-0.6   c-0.1-0.2-0.1-0.4-0.1-0.6c0-0.2,0.1-0.4,0.3-0.6c0.2-0.2,0.5-0.4,1-0.5c1-0.4,1.8-0.1,2.2,0.9c0.4,0.8,0.4,1.4,0,2   c-0.4,0.6-1.1,1.1-2.2,1.6l1.5,2.9l0.6,1.2c0.1,0,0.2-0.1,0.2-0.2c0.1-0.1,0.2-0.1,0.3-0.2c0.5-0.3,0.9-0.4,1.4-0.4   c0.4,0,0.8,0.1,1.1,0.2c0.3,0.2,0.6,0.4,0.8,0.7c0.3,0.3,0.5,0.6,0.7,1c0.2,0.5,0.4,0.9,0.5,1.2   C280.4,344.6,280.4,344.9,280.4,345.1z M243.3,265.4c2,3.4,1.5,7.4-1.1,8.9c-1.5,0.9-3.3,0.7-5-0.2c-1.2-0.7-2.4-1.8-3.2-3.3   c-1.1-2-1.4-4.1-1-5.9c0.3-1.3,1-2.3,2.1-3C237.7,260.4,241.3,262,243.3,265.4z M241.3,266.5C241.3,266.5,241.3,266.5,241.3,266.5   c-0.1,0.3-0.5,0.7-0.9,0.8l0,0c-0.7,0.1-1.4-0.2-1.6-0.9c-0.1-0.3,0-0.6,0.1-0.8c0-0.2,0.1-0.3,0.3-0.5c0.1-0.1,0.3-0.2,0.5-0.3   c0,0,0.1,0,0.1,0c-1-0.7-2.2-0.8-3.1-0.3c-1.5,0.9-1.8,3.2-0.6,5.1s3.3,2.9,4.8,2C242.2,270.8,242.5,268.5,241.3,266.5z    M290.7,246.1c-0.2-3,1.1-5.7,3.1-6.9c0.6-0.3,1.2-0.5,1.9-0.6c3-0.2,5.6,2.9,5.8,6.8c0.2,2.7-0.9,5.2-2.5,6.5   c-0.7,0.6-1.5,0.9-2.4,0.9C293.5,253.1,290.9,250.1,290.7,246.1z M293,246c0.1,2.3,1.6,4,3.3,3.9c0.7,0,1.2-0.3,1.7-0.8   c0.8-0.8,1.2-2.1,1.2-3.5c0,0,0,0,0,0c-0.3,0.3-0.8,0.4-1.1,0.3l0,0c-0.7-0.2-1.2-0.8-1-1.5c0.1-0.3,0.2-0.5,0.4-0.7   c0.1-0.1,0.3-0.2,0.5-0.3c0.2-0.1,0.4-0.1,0.5,0c0,0,0.1,0,0.1,0c-0.6-1.1-1.6-1.7-2.7-1.7c-0.3,0-0.5,0.1-0.7,0.2   C293.8,242.4,292.8,244.1,293,246z" originalFill="#FFFFFF"/>
	<path opacity="0.2" d="M255.6,281.5c3.6,0,7.1-0.4,10.5-1.1l6.7,11.9c3.5,6.2,11,8.8,17.6,6.1h0c2.9-1.2,5.2-3.2,6.7-5.7   c-5.2,11.5-15.5,18.6-29.3,16.5c-16.6-2.5-23-16.5-28.7-30.5C244.3,280.6,249.9,281.5,255.6,281.5z M243.5,84   c3.3-1,6.4-2.4,8.2-4.5c5.5-6.4-2.7-23.6-10-19.5c-3,1.7-6.5,2.5-9.4,2.9c0.2,1.9-0.5,1.9,4.2,6.7C239.1,72.1,241.9,77.7,243.5,84z    M289.9,466.1c0.7,2.4,2.4,4.6,4.7,6v0c-0.2-0.6-0.4-1.4-0.4-2.2c0-0.1,0-0.1,0-0.2c0-0.2,0-0.4,0-0.6c0-0.1,0-0.2,0-0.3   c0-0.2,0.1-0.4,0.1-0.6c0-0.1,0-0.2,0.1-0.4c0-0.2,0.1-0.4,0.2-0.6c0-0.1,0.1-0.3,0.1-0.4c0-0.1,0.1-0.2,0.1-0.3c0,0,0,0,0,0   C293.5,466.9,291.2,466.7,289.9,466.1z M299.1,287.7c0.1-0.3,0.2-0.7,0.3-1c2.6-9.8,2.8-20.3,0.7-30.3c-2.2,3.7-4.9,7.1-7.9,10.1   l5.9,13.2C299.2,282.3,299.5,285.1,299.1,287.7z M292.7,452.7c0,0-0.9-0.6-1.4,0.8c-0.4,1.4,0.5,2,0.5,2s-0.5-1-0.1-1.8   C292.1,452.9,292.7,452.7,292.7,452.7z M346.8,294.5c1.7,2.8,3.4,5.5,5.1,8.3c0.2,0.3,0.4,0.7,0.6,1c5.1-2.3,9.9-5.1,14.4-8.4v0   c-0.2-0.4-0.4-0.8-0.6-1.2c-1.7-3.2-3.4-6.3-5-9.5c-1.6-3-3.3-6-4.9-9c-4.9,3.7-10.5,6.3-16.7,7.3l0,0c2.1,3.3,4.2,6.6,6.3,9.9   C346.2,293.4,346.5,294,346.8,294.5z M291.1,462.2c-0.6-0.2-1-0.5-1.3-0.7c-0.2,0.6-0.2,1.2-0.3,1.8c0.5,0.1,0.9,1,2.9,1.5   c2.6,0.6,3.7-0.9,3.7-0.9l0,0c0.2-0.2,0.3-0.5,0.4-0.7C295.2,463.5,293.3,463.1,291.1,462.2z M296.4,458.4   c-2.2-0.4-3.3-1.3-3.7-2.3c-0.5,0.8-1.1,1.6-1.6,2.5c0.5,0.5,1.2,1.3,2.7,2c2.3,1,4.7-0.5,5.1-0.7c0.3-0.5,0.5-0.9,0.7-1.4   C298.9,458.7,297.8,458.7,296.4,458.4z M192.1,59.6c3.3-1.7,6.4-3,9.3-4.1c-12.4-14.2-23.6-26.4-33-36.4c-8.5-9-23.4-6.7-28.9,4.4   c-3.5,7-1.9,15.5,3.8,20.9c8,7.5,18.2,17.6,30.3,30.3c1.3-1.3,2.7-2.6,4.1-3.9C181.3,66.6,186.1,62.6,192.1,59.6z M288.9,462.7   c0,0-0.9-0.6-1.4,0.8c-0.4,1.4,0.5,2,0.5,2s-0.5-1-0.1-1.8C288.3,462.9,288.9,462.7,288.9,462.7z M289.7,458.2c0,0-0.9-0.6-1.4,0.8   c-0.4,1.4,0.5,2,0.5,2s-0.5-1-0.1-1.8C289.1,458.4,289.7,458.2,289.7,458.2z M412.3,364.8c0.4,0.6,0.9,1.5,1.3,2.4   c1.1,2.3,2.2,5.1,2.2,6.7c0.9-0.1,1.7-0.1,2.6,0c0-0.2-0.1-0.3-0.1-0.5c-0.2-1.8-2-4.4-3.6-6.3c-1.1-1.4-2.1-2.4-2.1-2.4   c0,0,0,0,0,0C412.6,364.7,412.4,364.7,412.3,364.8z M420.3,375.7c-1,0.6-2-0.2-2-0.2s-0.1,1.3,1.3,1.2c1.4,0,2-1.4,1.8-2.4   C421.4,374.4,421.3,375.1,420.3,375.7z M427.9,373.3C427.9,373.3,427.9,373.3,427.9,373.3L427.9,373.3L427.9,373.3   C427.9,373.3,427.9,373.3,427.9,373.3z M413.1,395.2c0.3,0.6,0.5,1.3,0.7,1.9c1.5-1.1,2.9-2.4,4-4.1c0.4-0.6,0.8-1.3,1.2-1.9   c0.1-0.2,0.2-0.4,0.4-0.6c0.2-0.3,0.4-0.6,0.5-0.8c0.1-0.2,0.2-0.3,0.3-0.5c0.2-0.3,0.4-0.6,0.6-0.9c0.1-0.1,0.2-0.3,0.3-0.5   c0.2-0.3,0.4-0.6,0.6-1c0.1-0.1,0.2-0.2,0.2-0.4c0.2-0.4,0.4-0.7,0.6-1.1c0.1-0.1,0.1-0.2,0.2-0.3c0.2-0.4,0.5-0.8,0.7-1.2   c0,0,0,0,0,0c1.3-2.2,2.4-4.4,3.2-6.3c0,0,0-0.1,0-0.1c0.1-0.4,0.3-0.7,0.4-1c0-0.1,0-0.1,0.1-0.2c0.1-0.3,0.2-0.6,0.3-1   c0-0.1,0-0.1,0-0.2c0.1-0.3,0.2-0.6,0.2-0.9c0,0,0-0.1,0-0.1c0.1-0.3,0.1-0.6,0.1-0.9c-0.8,2.2-1.8,4.4-3,6.6   C421.9,385.2,418.1,391.1,413.1,395.2z M444.8,492.3c-0.4,0.2-0.8,0.5-1.3,0.7c-2.8,1.4-5.9,2.5-9,2.9c0,0,0,0,0,0   c11,42,14.3,71.7,15.2,82.1c0.2,2.3,2.2,3.9,4.5,3.6c2-0.3,3.5-2,3.4-4C457.6,568.1,456.3,538.9,444.8,492.3z M416,375.2   c0,0-0.1,0.7-1.1,1.4c-1,0.6-2-0.2-2-0.2s-0.1,1.3,1.3,1.2C415.6,377.5,416.2,376.2,416,375.2z M426.2,371.8L426.2,371.8   L426.2,371.8c0-0.1,0-0.2-0.1-0.3c0-0.1-0.1-0.3-0.1-0.4c0-0.1-0.1-0.2-0.1-0.3c0-0.1-0.1-0.3-0.1-0.4c0-0.1-0.1-0.2-0.1-0.4   c-0.1-0.1-0.1-0.3-0.2-0.4c-0.1-0.1-0.1-0.2-0.2-0.4c-0.1-0.1-0.1-0.3-0.2-0.4c-0.1-0.1-0.1-0.2-0.2-0.3c-0.1-0.1-0.2-0.3-0.2-0.4   c-0.1-0.1-0.1-0.2-0.2-0.3c0-0.1-0.1-0.1-0.1-0.2c0-0.1-0.1-0.1-0.1-0.2c-0.1-0.1-0.1-0.2-0.2-0.3c-0.2-0.2-0.3-0.5-0.5-0.7   c0,0-0.1-0.1-0.1-0.1c-0.1-0.2-0.3-0.3-0.5-0.5c-0.1-0.1-0.1-0.1-0.2-0.2c-0.1-0.1-0.3-0.3-0.4-0.4c-0.1-0.1-0.2-0.2-0.3-0.2   c-0.1-0.1-0.3-0.2-0.4-0.3c-0.1-0.1-0.2-0.1-0.3-0.2c-0.1-0.1-0.3-0.2-0.4-0.3c-0.1-0.1-0.2-0.1-0.3-0.2c-0.1-0.1-0.3-0.2-0.4-0.3   c-0.1-0.1-0.2-0.1-0.3-0.2c-0.2-0.1-0.3-0.2-0.5-0.2c-0.1,0-0.2-0.1-0.2-0.1c-0.2-0.1-0.5-0.2-0.7-0.3c-1.5-0.4-2.7,0.2-3.9,0.9   c1.5-0.2,3,1.1,4.2,2.7c1.7,2.4,2.9,5.7,2.6,6.9c0,0.1-0.1,0.3-0.1,0.4c0.7,0,1.4-0.1,2-0.4C424.4,373.1,425.3,372.5,426.2,371.8z    M394,401.3c-4.7,0.8-9.2,2.3-14,2.7c-12,1.1-24.9-4.3-30.1-14.9v-10.8v-7.5c0-1.8,0.3-3.6,1-5.3s1.6-3.2,2.8-4.6   c0.8-0.9,1.7-1.7,2.7-2.4l12.4-8.4v0c-0.6,1-1.2,2-1.8,3c-1.4,2.5-2.5,5-3.1,7.3c-0.1,0.4-0.2,0.9-0.3,1.3c0.4-0.3,0.9-0.6,1.4-0.7   c3.8-0.9,11.1,3.5,12.8,10.7c0.1,0.4,0.2,0.7,0.2,1.1c1,6.3,9.1,8.9,12.3,9.7c0.9-0.6,1.8-1.4,2.5-2.3c-1.5-3.3-3-6.6-4.6-9.9   c-3-6.2-6.1-12.6-9.3-19c-1-2-2.1-4-3.1-6.1c-0.5-1-1.1-2-1.6-3.1c-1.2-2.3-2.5-4.6-3.7-7c-1.8,1-3.6,1.9-5.4,2.9   c-5.5,2.8-10.3,5-13.8,10.2c-2.9,4.3-4.6,9.4-5.6,14.4c-1.2,6.4-1.4,14.1,0.6,20.8c0,0,0,0,0,0c0.8,2.8,2,5.4,3.7,7.7   c0.9,3.9,8.7,9.8,17.9,16.1c0.4,0.1,0.7,0.2,1,0.2c10.9,2.1,19.1-3.6,27.3-5.2c2-0.4,4-0.7,6-1.1c-0.2-0.4-0.3-0.8-0.5-1.2   C399.2,400.7,396.6,400.9,394,401.3z M366.8,380.8c-1.8-2.1-4.7-3.3-7.4-3.1c-0.3,0-0.7,0.1-1,0.1c-0.8,0.2-1.4,0.4-2.1,0.8   c-1.4,1.2-2.5,2.6-3.6,4c-0.3,0.6-0.6,1.3-0.8,2c-0.1,0.3-0.4,0.4-0.7,0.4c-0.1,0.1-0.2,0.3-0.2,0.4c0.1,0.3,0.3,0.7,0.5,1   c0,0.1,0.1,0.2,0.1,0.2c0.2,0.3,0.3,0.6,0.5,0.9c0,0.1,0.1,0.1,0.1,0.2c0.5,0.8,1.1,1.5,1.7,2.3c0,0,0,0,0.1,0.1   c0.3,0.4,0.7,0.7,1,1.1c0,0,0.1,0.1,0.1,0.1c4.2,4.4,10.8,8.7,17.8,10.1c-1.2-1.8-1.9-4-2.3-6.5c-0.5-3.7-0.7-8-2.3-11.5   C368.1,382.6,367.5,381.6,366.8,380.8z M409.7,380.3c-0.9,0.8-2,0.2-2,0.2s0.1,1.3,1.5,0.9c1.4-0.3,1.7-1.7,1.4-2.7   C410.5,378.7,410.6,379.5,409.7,380.3z M412.8,374c0.1-1.9-1-4.5-2-6.5c-0.7-1.5-1.5-2.6-1.6-2.7c0,0-0.1-0.1-0.1-0.1   c-0.8-0.2-1.7-0.7-2.6-1.4c0.4,1,0.9,2,1.8,3.1c0.3,0.3,0.5,0.8,0.7,1.3c0.9,2.3,1.3,6.1,1.1,8.8c0.8-0.7,1.7-1.3,2.6-1.8   C412.8,374.5,412.7,374.3,412.8,374z M379.9,456.9c7.4,2.5,16.6,8.7,21.9,14.1c0,0,0,0,0,0c-0.7-0.2-1.4-0.4-2.3-0.7   c-1.2-0.3-2.7-0.7-4.3-1.2c-1.8-0.5-3.9-1-6.2-1.6c0,0,0,0,0,0c-0.5-0.1-1-0.2-1.4-0.4c0,0,0,0,0,0c-1.8-0.4-3.6-0.9-5.6-1.4   c-0.7-0.2-1.5-0.4-2.2-0.5c-2-0.5-4-1-6-1.4c-2-0.5-4-1-6.1-1.4c-0.2,0-0.3-0.1-0.5-0.1c-0.5-0.1-0.9-0.2-1.4-0.3   c-0.2,0-0.3-0.1-0.5-0.1c-0.5-0.1-1-0.2-1.5-0.3c-0.2,0-0.3-0.1-0.5-0.1c-0.5-0.1-1-0.2-1.4-0.3c-0.2,0-0.3-0.1-0.5-0.1   c-0.5-0.1-1-0.2-1.5-0.3c-0.1,0-0.3-0.1-0.4-0.1c-0.5-0.1-1-0.2-1.5-0.4c-0.1,0-0.3-0.1-0.4-0.1c-0.5-0.1-1-0.2-1.6-0.4   c-0.1,0-0.2,0-0.3-0.1c-0.5-0.1-1.1-0.2-1.6-0.4c-0.2,0-0.4-0.1-0.6-0.1c-0.5-0.1-0.9-0.2-1.4-0.3c-0.2,0-0.4-0.1-0.6-0.1   c-2.2-0.5-4.4-1-6.6-1.5c-0.2,0-0.3-0.1-0.5-0.1c-0.3-0.1-0.7-0.2-1-0.2c-0.3-0.1-0.7-0.1-1-0.2c-0.3-0.1-0.6-0.1-0.8-0.2   c-0.4-0.1-0.7-0.2-1.1-0.2c-0.3-0.1-0.6-0.1-0.9-0.2c-0.3-0.1-0.6-0.1-0.9-0.2c-0.3-0.1-0.7-0.2-1-0.2c-0.3-0.1-0.6-0.1-0.9-0.2   c-0.3-0.1-0.6-0.1-0.8-0.2c-0.3-0.1-0.7-0.2-1-0.2c-0.3-0.1-0.6-0.1-0.9-0.2c-0.3-0.1-0.5-0.1-0.8-0.2c-0.3-0.1-0.7-0.1-1-0.2   c-0.3-0.1-0.6-0.1-0.9-0.2c-0.3-0.1-0.6-0.1-0.8-0.2c-0.3-0.1-0.7-0.1-1-0.2c-0.2-0.1-0.5-0.1-0.7-0.2c-0.4-0.1-0.8-0.2-1.1-0.2   c-0.2,0-0.4-0.1-0.6-0.1c-0.4-0.1-0.8-0.2-1.2-0.2c-0.2,0-0.3-0.1-0.5-0.1c-0.4-0.1-0.8-0.2-1.2-0.2c-0.2,0-0.3-0.1-0.5-0.1   c-0.5-0.1-1-0.2-1.6-0.3c-0.1,0-0.1,0-0.2,0c-0.5-0.1-0.9-0.2-1.3-0.3c-0.1,0-0.2-0.1-0.4-0.1c-0.4-0.1-0.7-0.1-1.1-0.2   c-0.2,0-0.4-0.1-0.6-0.1c-0.3-0.1-0.5-0.1-0.8-0.2c-0.2,0-0.4-0.1-0.6-0.1c-0.3-0.1-0.5-0.1-0.8-0.2c-0.2,0-0.3-0.1-0.5-0.1   c-0.3-0.1-0.5-0.1-0.8-0.2c-0.2,0-0.3-0.1-0.5-0.1c-0.2,0-0.5-0.1-0.7-0.1c-0.1,0-0.1,0-0.2,0c0,0,0,0,0,0c0,0.1-0.1,0.2-0.1,0.3   c0,0,0,0.1-0.1,0.1c-0.2,0.3-0.3,0.6-0.6,0.9c0,0.1-0.1,0.1-0.1,0.2c-0.2,0.3-0.5,0.6-0.8,0.9c0,0-0.1,0-0.1,0.1   c-0.3,0.2-0.6,0.5-0.9,0.7c-0.1,0.1-0.2,0.1-0.3,0.2c-0.4,0.2-0.7,0.4-1.1,0.6c-4,1.8-7.5,0.3-9,0.9c-0.8,0-3.4-0.3-4.4-1.4   c-0.5-0.6-1.3-1.1-2-1.2c0.1-0.3,0.3-0.7,0.4-1.1c1-3.6,1.8-6.4,5.4-6.7c0.3,0.5,0.6,1,1,1.4c-0.4-0.4-0.7-0.9-1-1.4   c-0.2-0.3-0.3-0.6-0.5-1c0-0.1-0.1-0.1-0.1-0.2c-0.2-0.4-0.3-0.9-0.4-1.4c0,0,0-0.1,0-0.1c-0.1-0.5-0.2-1-0.2-1.5c0,0,0-0.1,0-0.1   c0-0.5,0-1.1,0-1.7c0-0.1,0-0.1,0-0.2c0.1-1.2,0.3-2.4,0.6-3.7c0,0,0-0.1,0-0.1c0.7-2.7,2-5.6,3.9-8.5c0,0,0,0,0,0   c-0.4-0.2-0.8-0.3-1.2-0.5c-1.9-0.8-3.8-1.7-5.6-2.5c-0.5-0.2-0.9-0.4-1.4-0.6c-1.4-0.6-2.7-1.3-4-1.9c-0.1,0-0.1,0,0,0   c-0.8,5.7-2.9,11-7.4,15.2c-3,2.9-7.2,5.4-11.3,6.4c-1.7,0.4-3.2,0.4-4.7,0.2h0v0c-0.1-0.8-0.2-1.8-0.3-2.8c0-0.1,0-0.2,0-0.3   c0-0.4,0-0.8,0-1.3c0-0.1,0-0.3,0-0.4c0-0.6,0-1.2,0-1.8c0.2-13.1,7.8-19.5,11.3-21.8c0,0,0,0,0,0c-0.7-0.4-1.5-0.9-2.2-1.3   c-0.7-0.4-1.4-0.8-2-1.3c-5.3,5.7-12.9,15.8-11.6,25.9c1.9,15.4,9.7,17.7,9.9,24.7c0.2,7.1,6,11.8,14.1,14.1c2,0.6,3.9,0.8,5.6,0.8   c-0.7,0.3-1.4,0.6-2.1,0.6c0,0-0.1,0-0.1,0c-0.3,0-0.6,0-0.9,0c-0.1,0-0.2,0-0.2,0c-0.3,0-0.7-0.1-1-0.2   c-4.7-1.3-12.7-3.8-15.6-6.5c-4.3-3.9-1.6-3.9-4.3-10.2c-2.8-6.3-10.6-13.4-7.5-30.7c2.2-12.2,7.7-18.1,10.8-20.6c-1-0.7-2-1.4-3-2   c-1.2-0.9-2.5-1.7-3.6-2.6c-1.7-1.3-3.4-2.6-4.9-3.9c-1-0.9-2-1.7-2.9-2.5c-1.9-1.7-3.6-3.3-5.2-4.9c-1.2-1.2-2.3-2.4-3.3-3.5   c-1.4-1.5-2.6-3-3.7-4.5c-0.3-0.4-0.5-0.7-0.8-1.1c-1.3-1.8-2.4-3.5-3.3-5c-1.3-2.2-2.3-4.2-3-6c-0.3-0.7-0.6-1.5-0.8-2.1   c-0.7-1.9-1.1-3.4-1.3-4.3c0,0.1,0.1,0.1,0.1,0.2c0-0.1-0.1-0.1-0.1-0.2v0c-0.5-0.8-1-1.5-1.4-2.3c-0.1-0.2-0.2-0.3-0.3-0.5   c-0.5-0.8-0.9-1.7-1.3-2.6c-0.1-0.2-0.2-0.3-0.2-0.5c-0.4-0.9-0.8-1.8-1.2-2.8c0-0.1,0-0.1-0.1-0.2c0-0.1,0-0.1-0.1-0.2   c-0.5-1.3-1-2.6-1.5-3.9c-0.5-1.4-1.1-2.8-1.6-4.2c-0.9-2.2-1.8-4.5-2.7-6.9c-0.3-0.8-0.6-1.6-1-2.4c-1.1-2.8-2.3-5.6-3.4-8.2   c-1.2-2.7-2.3-5.2-3.5-7.7c-4.1-8.7-8.2-16.5-12-23.3c-1.6-2.9-3.2-5.7-4.7-8.2c-2-3.4-3.9-6.5-5.6-9.3c-0.3-0.5-0.6-1-0.9-1.5   c4,5.9,19,27.7,26.5,32.1c0.4-0.4,0.7-1.1,0.2-1.8c-1.4-2.5,1.8-15.7-21.8-55.8l0,0c-0.2-0.4-0.5-0.8-0.7-1.2   c-11.4-19.2-27.9-40.8-16.4-101.2c1-5.4,1.5-9.9-0.3-15.1c0,0,0,0,0-0.1c-1.3-4-0.3-8.5,2.7-11.5c6-6,14.2-9.7,23.1-9.8   c1.7,0,3.4-0.1,5.1-0.2c5.4-0.4,10.8-1.6,16.1-4.2c4.9-2.4,9.2-5.7,13-9.6c1.2-1.3,2.4-2.6,3.5-4.1c-0.1,0.7-0.2,1.3-0.3,2   c0,0,0,0,0,0c-0.1,0.6-0.3,1.2-0.4,1.9c0,0,0,0.1,0,0.1c-0.2,0.6-0.3,1.2-0.5,1.7c0,0.1-0.1,0.2-0.1,0.2c-0.1,0.2-0.1,0.3-0.2,0.5   c-0.1,0.4-0.3,0.7-0.4,1.1c0.2-0.4,0.3-0.7,0.4-1.1c3.9,4.9,7.8,10,11.8,15.2c0.7,0.9,1.4,1.8,2.1,2.7c-2.1-0.5-4.2-0.9-6.1-1.1   c-0.7-0.1-1.3-0.1-1.9-0.2c-16.1-1.6-18.2,2.9-25.6,7.8c-1.3-1.6-2.6-3.1-4-4.6c-3.2,1.8-6.4,3.9-9.7,6.3c-1.3,0.9-2.5,1.9-3.8,2.9   c-0.4,0.3-0.8,0.7-1.2,1c-1.6,1.4-3.3,2.9-4.8,4.5c-1.2,1.2-2.3,2.5-3.4,3.8c-0.4,0.4-0.7,0.9-1.1,1.4c-0.7,0.9-1.4,1.9-2.1,2.9   c-2,3-3.8,6.3-5.4,9.9c-1,2.4-1.9,5-2.7,7.8c-2.5,9-3.4,19.7-2.1,32.8c0.5,4.8,1.2,9.4,2.1,13.6c0.3,1.2,0.5,2.4,0.8,3.6   c0.4,1.5,0.8,3,1.2,4.5c0.2,0.8,0.5,1.6,0.7,2.4c0.5,1.6,1,3.1,1.5,4.6c0.3,0.7,0.5,1.5,0.8,2.2c0.5,1.4,1.1,2.9,1.7,4.2   c0.9,2.1,1.8,4,2.7,5.9c0.6,1.3,1.2,2.5,1.9,3.7c0.4,0.8,0.9,1.6,1.3,2.4c0.5,0.9,1,1.9,1.6,2.8c0.6,1.1,1.3,2.2,1.9,3.2   c0.5,0.8,1,1.6,1.5,2.5c0.1,0,0.2-0.1,0.3-0.1c1.5-0.6,3.1-1.3,4.7-1.9c0.1-0.1,0.3-0.1,0.4-0.2c0.1,0,0.2-0.1,0.3-0.1l0,0   c-0.1-0.1-0.3-0.3-0.5-0.6c-0.2-0.3-0.5-0.7-0.8-1.2c-0.3-0.5-0.6-1.1-1-1.8c-0.5-0.9-1-1.9-1.6-3.1c-0.3-0.6-0.6-1.2-0.9-1.8   s-0.6-1.3-1-2c-0.3-0.7-0.7-1.4-1-2.2c-0.3-0.7-0.7-1.5-1-2.3c-0.7-1.6-1.4-3.3-2.1-5c-0.3-0.9-0.7-1.8-1-2.7   c-0.2-0.5-0.3-0.9-0.5-1.4c-0.5-1.4-1-2.8-1.5-4.2c-0.5-1.4-0.9-2.9-1.3-4.3c-2.1-7.3-3.6-15-3.6-22c0-0.9,0-1.9,0.1-2.8   c0.3-4.1,1.1-7.9,2.7-11.2c11.5-23.7,15.8-15.2,20-32.8c0.1-0.5,0.3-1,0.4-1.5c0.1-0.1,0.1-0.3,0.2-0.4c0.1-0.4,0.3-0.7,0.4-1.1   c0.1-0.1,0.1-0.3,0.2-0.4c0.2-0.5,0.5-1,0.7-1.5c0,0,0-0.1,0.1-0.1c0.3-0.5,0.5-0.9,0.8-1.4c0.1-0.2,0.2-0.3,0.3-0.5c0,0,0,0,0,0   c0,0,0,0,0,0c0.4,2.7,1.3,5.4,2.6,7.8c0.2,0.3,0.4,0.6,0.5,0.9c1.1,1.9,2.5,3.5,4,4.7c6.8,5.5,13.6,3.2,17.3,15   c0.3,0.9,0.6,1.7,1,2.5c-6.3,5.3-17.6,6.2-18.2,2c-0.8-5.3-6.1-9.2-7.4-15.3c-4.3,9.2-9.9,17.7-12.5,27.7   c-3,11.7-2.8,23.3-0.3,34.3c1,4.5,2.4,9,4.1,13.4l0,0c-0.2,0.9-0.3,1.9-0.4,2.9c0,0,0,0.1,0,0.1c-0.1,1-0.1,2.2,0,3.3   c0,0.1,0,0.2,0,0.3c0,0.5,0.1,1,0.1,1.6c0,0.1,0,0.2,0,0.3c0.1,0.6,0.1,1.3,0.2,1.9c0,0.1,0,0.2,0,0.3c0.1,0.6,0.2,1.1,0.3,1.7   c0,0.2,0.1,0.4,0.1,0.5c0.1,0.7,0.3,1.4,0.4,2.1c0,0,0,0,0,0c0,0,0,0,0,0c0,0,0,0.1,0,0.1c3,6.1,7.2,11.6,12.3,16.1   c4.7,13.4,16.4,35,18.4,47.8c1.8,11.6,4.7,23.3,9.2,34.3c2.6,6.5,5.9,12.7,9.8,18.4c4.6,6.8,13.8,17.8,12.5,17.8c0,0,0,0,0,0   c0,0,0,0,0,0c2.5,3.6,5.1,7.1,8,10.4c8.4,9.2,20.1,15.2,31.2,20.4c0.1,0,0.2,0.1,0.3,0.1c24.5,11.6,49.9,20.8,71.8,36.9   c1.1,0.8,2.1,1.5,3.2,2.3c-0.2,0.1-0.5,0.2-0.7,0.2c0,0-0.1,0-0.1,0c-0.2,0-0.5,0.1-0.7,0.1c-0.3,0-0.6,0-0.9,0   c-0.2,0-0.4,0-0.6-0.1c-0.4,0-0.9-0.1-1.4-0.2c-0.3,0-0.5-0.1-0.8-0.2C380.3,456.9,380.1,456.9,379.9,456.9c-0.1,0-0.2,0-0.3-0.1   C379.7,456.8,379.8,456.8,379.9,456.9z M252.5,382c-1.8-0.9-3.6-2-5.3-3.2C249,380,250.7,381,252.5,382z M261.6,385.5   c-2.1-0.5-4.1-1.2-6-2.1C257.5,384.2,259.6,384.9,261.6,385.5z M268.1,386.7c-2.2-0.3-4.3-0.6-6.5-1.2   C263.8,386,265.9,386.4,268.1,386.7z M308,449.6c-0.2,0-0.5-0.1-0.7-0.1c-0.6-0.1-1.1-0.2-1.7-0.4c0.5,0.1,1.1,0.3,1.7,0.4   C307.6,449.5,307.8,449.5,308,449.6z M402.2,327.7c-0.5,0.3-1.2,0.4-1.7,0.2c0,0.3,0,0.6-0.1,0.9c0-0.3,0-0.6,0.1-0.9   c0-0.4,0.1-0.8,0.1-1.2c0-0.2,0-0.4,0-0.5c0-0.6,0-1.1,0-1.6c0-0.1,0-0.2,0-0.3c0-0.6-0.1-1.1-0.1-1.7c0-0.1,0-0.3,0-0.4   c-0.1-0.4-0.1-0.8-0.2-1.2c0-0.1,0-0.2-0.1-0.3c-0.1-0.5-0.2-0.9-0.3-1.3c0-0.1,0-0.2-0.1-0.2c-0.1-0.4-0.2-0.7-0.3-1   c0-0.1,0-0.2-0.1-0.2c-0.2-0.7-0.5-1.4-0.8-1.9c0,0,0-0.1-0.1-0.1c-0.9,0.9-1.8,1.7-2.8,2.5c-4,3.5-8.1,6.6-12.5,9.5   c0.4,0.8,0.8,1.6,1.2,2.4c1.1,2.4,2.3,4.7,3.4,7v0c3.2,6.7,6.2,13.3,9.1,19.7c0,0,0,0,0,0c1.1,2.4,2.1,4.7,3.1,7   c0.7,1.5,1.4,3.1,2,4.6c1.6,3.6,3.1,7.1,4.5,10.6c0.3-0.2,0.6-0.4,0.9-0.6c-0.5-0.9-0.9-2.5-1.4-4.9c-0.4-1.9-1.2-3.8-2.1-5.4   c-1.3-2.4-2.8-4.2-2.8-4.2c-0.4-2.3,0.4-3.5,1.5-3.9c-0.2-0.1-0.4-0.3-0.5-0.4c-0.1-0.1-0.2-0.1-0.3-0.2   c8.4-17.9,22.1-39.5,28.1-49.8c-0.5,0.5-1.1,0.9-1.8,1.3L402.2,327.7z" fill="#000000" originalFill="#000000"/>
</g>
</svg>