<svg xmlns="http://www.w3.org/2000/svg" xmlns:xlink="http://www.w3.org/1999/xlink" version="1.1" id="svg-edited-version" x="0px" y="0px" viewBox="0 0 595.3 595.3" enable-background="new 0 0 595.3 595.3" xml:space="preserve" class="injected-svg" data-src="https://preview.pixlr.com/images/svg/100/1/5b1f4e7a7a929c59658e5b463ba91dc271a5d7d759bddae518911756b254f3e7.svg">
<g>
	<path fill="#FFFFFF" d="M363.7,109.8c-3,0.9-4.7,6.7-3.8,13c0.9,6.3,4,10.7,6.9,9.8c3-0.9,4.7-6.7,3.8-13   C369.8,113.3,366.7,108.9,363.7,109.8z M366.6,130.4c-1.8,0.6-3.9-2.9-4.7-7.8c-0.1-0.4-0.1-0.7-0.1-1.1c1,0.2,2.1-0.5,2.5-1.6   c0.5-1.3,0.1-2.8-1-3.3l0,0c-0.4-0.2-0.9-0.2-1.4,0c0.3-2.1,1-3.6,2-3.9c1.8-0.6,3.9,2.9,4.7,7.8   C369.3,125.4,368.4,129.8,366.6,130.4z M149.1,208.9c-1.3-0.7-2.6-1.4-3.9-2.1c1.4-0.9,3-1.9,4.6-3c2.3-1.6,4.8-3.4,7.2-5.1   c1.8,0.8,3.6,1.6,5.4,2.5l-2.5,15.1C156.6,213.5,153,211.1,149.1,208.9z M155,245.7l-0.8,4.7c0,0-0.1,0-0.3,0.1c0,0,0,0-0.1,0   c-0.2,0-0.6,0.1-1,0.2c0,0,0,0,0.1,0c-0.3-0.6-0.6-1.3-0.9-1.9c-2.2-3.9-5.5-7.4-9-10.2c-1.1-0.9-2.1-1.7-3.2-2.4   c-3.4-2.4-6.4-4.4-9.9-5.9c-2.9-1.2-5.9-2.4-8.5-4.5c-2.1-1.7-3.8-4.4-2.8-7.6c1-3.1,3.8-4.2,6.4-4.3c5.9-0.3,11.8,2.3,17.2,4.6   c5.7,2.5,11.3,5.5,15.6,10.1l-1,5.8l-0.6,3.5l-1.1,6.6l0,0L155,245.7z M138.3,253.9C138.3,253.9,138.3,253.9,138.3,253.9   c-4.8,1.2-10,2.7-14.3,4.2c-0.4,0.1-0.7,0.3-1.1,0.4c-0.2,0.1-0.4,0.1-0.5,0.2c-0.3,0.1-0.7,0.3-1,0.4c-0.2,0.1-0.4,0.2-0.5,0.2   c-0.3,0.1-0.6,0.3-0.9,0.4c-0.2,0.1-0.4,0.2-0.5,0.2c-0.3,0.1-0.5,0.3-0.8,0.4c-0.2,0.1-0.3,0.2-0.5,0.3c-0.2,0.1-0.5,0.3-0.7,0.4   c-0.2,0.1-0.3,0.2-0.5,0.3c-0.2,0.1-0.4,0.3-0.6,0.4c-0.1,0.1-0.3,0.2-0.4,0.2c-0.2,0.1-0.4,0.3-0.6,0.4c-0.1,0.1-0.2,0.1-0.3,0.2   c-0.3,0.2-0.5,0.4-0.7,0.6c0,0,0,0,0,0l-4.6,4.7l-0.6,0.6c-0.7,0.8-1.8,0.9-2.6,0.5c-1.1-0.6-2.9-1.6-5.2-2.7c0,0,0,0,0.1,0   c0.1-0.1,2.7-3.8,5.6-7.6c2.9-3.9,6.1-7.9,7.5-8.6c0.2-0.1,0.3-0.2,0.4-0.3c0.7-0.7,0.5-1.7-0.2-2.6c-1-1.4-3-2.6-4.7-2.5   c-0.4,0-1,0.3-1.6,0.9c-4.3,3.5-12.9,16.3-12.9,18.2c0,0.1,0,0.1,0,0.2c-0.9-0.4-1.8-0.7-2.8-1.1c0.2-0.3,7.5-16.9,9.9-19.1   c0.3-0.3,0.5-0.5,0.6-0.8c0.7-2-3.4-4-6.1-3.1c-0.2,0.1-0.5,0.3-0.8,0.6c-3.1,3-9,16.4-9.8,20.5c-0.9-0.3-1.9-0.5-2.9-0.7   c1.1-3.5,5.3-17.4,7.1-19.6c0.4-0.5,0.5-1,0.5-1.4c-0.3-1.8-4.2-2.7-6.5-1.4c-0.2,0.1-0.5,0.4-0.8,0.8c-2.5,3.3-6.2,15.6-7,20.7   c-0.1,0-0.1,0-0.2,0c-0.6,0-1.1-0.1-1.7-0.1c-0.7,0-1.5,0-2.2,0c1-4.9,3.3-16.9,4.7-19.2c0.2-0.2,0.2-0.5,0.3-0.7   c0.6-2.3-4.2-2.9-6.7-1.1c-0.7,0.5-1.5,2.4-2.2,4.9c-1.6,5.3-2.9,13.3-3.1,17.2c-1.7,0.5-3.3,1.3-4.9,2.2c-0.6,0.4-1.2,0.7-1.7,1.1   c0,0,0,0-0.1,0c-8.7,5.2-17.7,8.1-26.1,6.3c3.4-3.5,3.7-10.1,4-15c0.4-7-0.3-14.3,1.2-21.3c3.2-14.9,17-25.8,28.7-31.3   c12-5.7,24.4-7.6,37-8.5c-0.1,0.7-0.1,1.3-0.1,2c-2.8-0.1-5.6-0.1-8.4,0.2c-7.3,0.8-14.4,3.4-20.8,7.8c-4.3,3-11,8.6-8.2,14.9   c1.9,4.3,6.2,5.6,10.2,6.2c4.3,0.7,8.6,0.9,12.9,1.4c7.9,1,15.9,1.5,23.6,3.8c7.2,2.2,13.8,6.1,18.7,11.9   C134.8,245.3,137,249.3,138.3,253.9z M270.8,263.1c14.2,5.4,26.7,9.7,32.2,11.7c-1.4,1.9-2.8,4-4.1,6.2c-0.9,1.5-1.7,3-2.5,4.6   c-7.1-4.5-20.1-9.5-34.2-15c-25.8-10-55.6-21.7-62-35.7c-3.5-7.5-2.3-13.7-0.4-17.9c0.5-1,1.1-2,1.7-2.8c0.7-0.8,1.4-1.6,2.2-2.2   l55-44.3c1.3,0.9,2.6,1.8,3.8,2.8l-56.3,44c-0.2,0.2-0.4,0.4-0.6,0.6c-0.5,0.5-0.9,1-1.3,1.6c-2.3,3.8-3.6,10.3,5.2,18.3   C217.6,242.1,246.7,254,270.8,263.1L270.8,263.1z M540.5,442.1c-5.9,24.7-28.6,42.6-47.6,51.5c-24.2,11.5-49.1,13.3-74.1,14.3   c-14.9,0.6-30,1.1-44.5-2c-11.5-2.4-22.6-6.6-33.1-12.3l4.8-25c5,4.7,10.5,8.8,16.6,12.4c13.8,8.2,28.4,15.2,43.9,18.7   c13.1,2.9,26.7,5.3,40.5,3.9c11.7-1.2,23.1-5.4,33.6-12.7c7-4.9,18-14.2,13.9-24.6c-2.8-7.2-9.6-9.3-15.9-10.4   c-6.7-1.2-13.6-1.7-20.4-2.6c-12.5-1.7-25.3-2.7-37.2-6.7c-14.2-4.7-26.8-13.9-34-27.9c-1.9-3.7-3.4-7.7-4.5-12   c7.5-1.9,15.6-4.1,22.5-6.6c1.7-0.6,3.3-1.2,4.9-1.9c0.1-0.1,0.3-0.1,0.4-0.2c0.8-0.3,1.6-0.7,2.3-1c0,0,0,0,0.1,0   c0.3-0.2,0.7-0.3,1-0.5c0.1,0,0.1-0.1,0.2-0.1c0.3-0.1,0.5-0.3,0.8-0.4c0.1-0.1,0.2-0.1,0.3-0.2c0.2-0.1,0.5-0.2,0.7-0.4   c0.1-0.1,0.2-0.1,0.3-0.2c0.2-0.1,0.4-0.2,0.6-0.3c0.1-0.1,0.2-0.1,0.3-0.2c0.2-0.1,0.4-0.2,0.6-0.3c0.1-0.1,0.2-0.1,0.3-0.2   c0.2-0.1,0.3-0.2,0.5-0.3c0.1-0.1,0.2-0.1,0.3-0.2c0.2-0.1,0.3-0.2,0.5-0.3c0.1-0.1,0.2-0.1,0.3-0.2c0.1-0.1,0.3-0.2,0.4-0.3   c0.1-0.1,0.2-0.1,0.3-0.2c0.1-0.1,0.3-0.2,0.4-0.4c0.1-0.1,0.1-0.1,0.2-0.2c0.2-0.2,0.4-0.4,0.6-0.5l8.6-8.8   c0.1-0.1,0.1-0.1,0.2-0.2c0.1-0.1,0.2-0.2,0.3-0.2c0.7-0.5,1.4-0.8,2.1-0.8c0.3,0,0.5,0,0.8,0.1c0.3,0.1,0.5,0.2,0.8,0.3   c0.7,0.4,1.5,0.9,2.4,1.4c-0.9,1-2.6,3-4.8,5.6c-5.9,6.8-15.1,17.1-18.8,19.3c-0.2,0.1-0.4,0.2-0.5,0.3c-2.5,1.1-1.9,3.8-0.1,6.1   c1.7,2.2,4.6,4.1,7.2,4.2c0.9,0,2.3-0.7,4-2c1.6-1.2,3.4-2.9,5.4-4.8c2.1-2.1,4.3-4.5,6.4-7c6-6.9,11.3-14.3,11.6-16.3   c1.4,0.7,2.9,1.4,4.5,2c-1.6,2.6-15.2,27.8-19.4,31c-0.1,0.1-0.3,0.2-0.4,0.3c-3.5,3.4,4.2,8.7,9.4,7.5c0.7-0.1,1.5-0.8,2.4-1.7   c6.1-6.2,17.1-26.8,18.7-33.1c1.6,0.5,3.3,1,5,1.5c-2,4.9-11.5,29.5-15.1,33.2c-0.3,0.4-0.6,0.7-0.8,1.1c-1.7,3.7,6.1,6.9,10.8,4.9   c0.7-0.3,1.6-1.2,2.5-2.5c5.1-7.2,12.5-27.1,13.9-34.3c2.4,0.3,4.9,0.5,7.3,0.5c-1.8,6.4-7.6,28.2-10.7,33.4   c-0.1,0.2-0.3,0.4-0.4,0.6c-3.5,4.6,5.8,7.2,10.8,4.3c1.6-0.9,3.6-5.2,5.5-10.6c3.6-10.3,6.9-24.8,6.9-29.3   c2.9-0.9,5.7-2.1,8.4-3.8c0.9-0.6,1.9-1.2,2.8-1.8c0,0,0.1,0,0.1-0.1c14.1-8.5,28.7-13.1,41.8-10c-5.6,5.8-6.5,16.7-7.2,24.8   C542.8,418.4,543.3,430.5,540.5,442.1z M374.4,465.5c-8.9-4.2-17.6-9.4-24.3-17.1l2.8-14.4l1.5-7.9l2.3-11.7l0,0l0.4-2.3   c0,0,0,0,0,0c0.1,0,0.2,0,0.3-0.1c0.4-0.1,1-0.2,1.8-0.3c0,0,0,0-0.1,0c0.4,1.1,0.8,2.1,1.3,3.1c0.5,1,1.1,2,1.6,2.9   c0.9,1.5,1.9,2.9,2.9,4.3c4.1,5.4,9.1,10.1,14,13.9c5.2,4.1,9.9,7.4,15.5,10c4.5,2.1,9.3,4.1,13.2,7.5c3.3,2.9,5.8,7.4,4,12.7   c-1.7,5.1-6.3,6.9-10.4,7C392,473.8,382.7,469.4,374.4,465.5z M315.8,209.5l6.5,2.8l-1.1,0.9l-0.6,0.5l-4.7-1.6l-4.7,1l4.5-3.6   L315.8,209.5L315.8,209.5z M288.6,239.4l22.9-19.2l-36.2-17.2l-26.1,19L288.6,239.4z M296.9,219.2c0.8-0.1,1.7,0,2.4,0.1   c0.8,0.1,1.5,0.4,2.3,0.7c0.7,0.3,1.3,0.7,1.6,1.1c0.3,0.4,0.5,0.8,0.4,1.2c-0.1,0.4-0.4,0.9-0.9,1.4c-0.5,0.5-1.2,1-2.2,1.6   c-0.5,0.3-1,0.5-1.5,0.8c-0.5,0.2-1,0.4-1.5,0.6c-0.5,0.2-1,0.3-1.5,0.3c-0.5,0.1-1,0.1-1.5,0c0.2,0.4,0.2,0.7,0,1   c-0.1,0.3-0.4,0.6-0.7,0.9c-0.3,0.3-0.8,0.6-1.3,0.9c-0.5,0.3-1,0.6-1.5,0.9c-1,0.6-2,1-3,1.4c-1,0.4-1.9,0.6-2.8,0.8   c-0.9,0.1-1.8,0.1-2.8,0c-0.9-0.1-1.8-0.4-2.7-0.8c-0.7-0.3-1.3-0.7-1.6-1.1c-0.3-0.4-0.5-0.8-0.4-1.2c0.1-0.4,0.4-0.9,0.9-1.4   c0.5-0.5,1.3-1,2.3-1.6l2-1.2l3.7,1.7l-2,1.2c-0.2,0.1-0.4,0.2-0.5,0.3c-0.2,0.1-0.3,0.2-0.3,0.3c-0.1,0.1-0.1,0.2,0,0.3   c0.1,0.1,0.2,0.2,0.4,0.3c0.2,0.1,0.3,0.1,0.5,0.1c0.2,0,0.4,0,0.6-0.1c0.2-0.1,0.5-0.2,0.9-0.3c0.3-0.2,0.8-0.4,1.3-0.7   c0.4-0.2,0.8-0.5,1.1-0.7c0.3-0.2,0.6-0.4,0.7-0.7c0.2-0.2,0.2-0.4,0.2-0.6c0-0.2-0.2-0.3-0.5-0.5c-0.1,0-0.1-0.1-0.2-0.1   c-0.1,0-0.1,0-0.2-0.1l4.1-2.3c0.6,0.3,1.2,0.4,1.9,0.3c0.7,0,1.4-0.3,2.2-0.8c1-0.6,1.2-1,0.6-1.3c-0.2-0.1-0.5-0.2-0.7-0.2   c-0.2,0-0.4,0-0.7,0.1c-0.2,0.1-0.4,0.1-0.6,0.2c-0.2,0.1-0.4,0.2-0.6,0.3l-0.7,0.4l-3.7-1.7l0.8-0.5c1-0.6,2-1,2.9-1.3   C295.2,219.5,296.1,219.3,296.9,219.2z M288.3,214.6c1,0.1,1.9,0.3,2.9,0.8c0.8,0.3,1.3,0.7,1.6,1.1c0.3,0.4,0.4,0.9,0.2,1.4   c-0.1,0.5-0.5,1-1,1.5c-0.5,0.5-1.3,1-2.2,1.6c-1,0.5-2,1-3,1.4c-1.1,0.4-2.2,0.7-3.2,0.9c-0.9,0.2-1.7,0.3-2.5,0.4   c-0.8,0.1-1.6,0.2-2.3,0.3c-0.8,0.1-1.5,0.2-2.3,0.4c-0.8,0.1-1.6,0.3-2.4,0.5l4.9,2.2l-4.3,2.4l-9.2-4.2l1.1-0.6   c0.6-0.4,1.3-0.7,2.1-1c1.1-0.5,2.2-0.9,3.4-1.2c1.1-0.3,2.3-0.6,3.4-0.8c1.1-0.2,2.3-0.4,3.4-0.6c1.1-0.2,2.3-0.3,3.4-0.5   c0.7-0.1,1.3-0.2,2-0.4c0.6-0.2,1.3-0.5,1.9-0.8c0.6-0.3,1-0.6,1.2-0.9c0.2-0.3,0.1-0.5-0.2-0.6c-0.6-0.3-1.6,0-2.9,0.7l-2,1.1   l-3.7-1.7l0.6-0.4c1.2-0.7,2.3-1.2,3.4-1.7c1.1-0.5,2.1-0.8,3.1-1C286.4,214.6,287.4,214.5,288.3,214.6z M276,211.6   c0.2,0.1,0.5,0.2,1,0.2c0.5,0.1,1,0.1,1.6,0.2c0.6,0,1.2,0,1.8-0.1c0.6-0.1,1.2-0.3,1.6-0.5l2.9,1.3l-21,11.9l-3.8-1.7l15.3-8.7   c-0.1,0-0.3,0-0.5,0c-0.2,0-0.6-0.1-1.1-0.2c-0.5-0.1-0.9-0.2-1.3-0.4L276,211.6z" originalFill="#FFFFFF"/>
	<path fill="#F04C23" d="M291.4,244.7l29.6,11.5c-6.3,5.8-12.6,11.4-17.9,18.6c-5.5-1.9-18-6.3-32.2-11.7h0   c-24.2-9.1-53.3-21-61.3-28.3c-8.8-8-7.5-14.4-5.2-18.3c0.4-0.6,0.8-1.1,1.3-1.6c6.5,1.5,15.2,4.1,25.3,7.5l0,0   C248.5,228.4,270.1,236.5,291.4,244.7L291.4,244.7z M262.3,270.5c-25.8-10-55.6-21.7-62-35.7c-3.5-7.5-2.3-13.7-0.4-17.9   c0.5-1,1.1-2,1.7-2.8c-1.9-0.3-3.5-0.5-4.7-0.5c-1.1,0-1.9,0.1-2.4,0.4c-0.3,0.2-0.5,0.3-0.7,0.6c-7.2,13.5-9.9,31.7-0.1,41.6   c2.5,2.5,6.3,5.2,11.2,8.1c-6.6,7.7-17.3,19.5-26.1,24.3c0.2-0.1,0.4-0.2,0.6-0.3c0.6,4.1,1.2,8.2,2.1,12.2c1.2,5.1,3.3,9.7,6,13.8   c2,3,4.1,5.8,6.5,8.4c18.5-12.1,36.2-28.6,47.5-40c15.3,6.9,32.3,14.1,48.9,21.2c-0.5-0.2-0.9-0.4-1.4-0.6   c2.2-6.1,4.7-12.1,7.6-17.7C289.4,281,276.4,276,262.3,270.5z M159.5,235.2c-1-0.2-1.8-0.5-2.6-0.8l-0.6,3.5   c1.2,0.3,2.4,0.9,3.3,1.9c0.9,1.1,1.6,3.1,0.5,4.4c-1.1,1.4-3.3,1-4.5,0.5c-0.1-0.1-0.3-0.1-0.4-0.2l-0.2,1.2l-0.8,4.7   c0,0-0.1,0-0.3,0.1c0,0,0,0.1,0,0.1c1.5,1.5,4.1,3,7.6,1.2c1.5-0.8,2.5-1.9,2.9-3.2C169.9,245.3,167.1,237,159.5,235.2z    M313.2,205.2c0.2-0.1,0.4-0.2,0.6-0.2c6.5-2.4,11.1-8.4,14.4-15.3c0.5-1,0.9-2,1.4-3c-0.6,0-1.3,0-1.9-0.1c0,0-0.1,0-0.1,0   c-0.8-0.1-1.6-0.2-2.3-0.3c0,0-0.1,0-0.1,0c-0.1,0.2-0.2,0.5-0.4,0.7c-1.2,2.4-2.6,4.8-4.1,6.9c-0.4,0.6-0.8,1.1-1.3,1.6l0,0   c0,0-0.1,0.1-0.1,0.1c-0.2,0.2-0.3,0.4-0.5,0.6l0,0l0,0l0,0c-0.1,0.1-0.3,0.3-0.4,0.4l0,0c-0.1,0.1-0.1,0.1-0.2,0.2   c-0.3,0.3-0.6,0.6-0.9,0.9c0,0,0,0-0.1,0.1c-0.7,0.6-1.4,1.2-2.2,1.6c-0.1,0-0.1,0.1-0.2,0.1c0,0,0,0,0,0c-0.1,0-0.1,0.1-0.2,0.1   c-0.2,0.1-0.3,0.2-0.5,0.3c-0.1,0-0.2,0.1-0.3,0.1c-0.2,0.1-0.3,0.2-0.5,0.2c0,0,0,0-0.1,0c0,0,0,0-0.1,0c-0.1,0-0.2,0.1-0.3,0.1   c-0.2,0.1-0.4,0.1-0.6,0.2c-0.1,0-0.2,0.1-0.3,0.1c0,0-0.1,0-0.1,0c0,0-0.1,0-0.1,0c-0.2,0-0.3,0.1-0.5,0.1c-0.1,0-0.3,0.1-0.4,0.1   c-0.1,0-0.3,0.1-0.4,0.1c-0.1,0-0.1,0-0.2,0c0,0,0,0,0,0c-0.1,0-0.3,0-0.4,0c-0.2,0-0.4,0-0.6,0c-0.1,0-0.2,0-0.4,0c0,0,0,0-0.1,0   c0,0,0,0,0,0c-0.2,0-0.4,0-0.6,0c-0.1,0-0.3,0-0.4,0c-0.1,0-0.2,0-0.4,0c-0.1,0-0.2,0-0.3,0c0,0,0,0,0,0c-0.1,0-0.2,0-0.3,0   c-0.4-0.1-0.7-0.1-1.1-0.2c-9.3-2.6-3.4-13-0.2-19.6c0.3-0.6,0.5-1.1,0.8-1.7c0,0,0,0,0,0c0.2-0.6,0.5-1.1,0.7-1.7l0,0   c-0.5-0.5-1.1-1-1.6-1.5c-0.4-0.4-0.7-0.8-1.1-1.1c-0.2-0.2-0.4-0.4-0.6-0.7c-0.2,0.5-0.4,1.1-0.6,1.6c-2.4,6.2-7.4,11.9-7,18.9   C296.6,205.1,306,207.6,313.2,205.2z M263.8,224.6l21-11.9l-2.9-1.3c-0.4,0.2-0.9,0.4-1.6,0.5c-0.6,0.1-1.2,0.1-1.8,0.1   c-0.6,0-1.1-0.1-1.6-0.2c-0.5-0.1-0.8-0.2-1-0.2l-3.6,2c0.3,0.2,0.8,0.3,1.3,0.4c0.5,0.1,0.9,0.2,1.1,0.2c0.2,0,0.4,0,0.5,0   l-15.3,8.7L263.8,224.6z M278.9,217.5l-0.6,0.4l3.7,1.7l2-1.1c1.3-0.8,2.3-1,2.9-0.7c0.4,0.2,0.4,0.4,0.2,0.6   c-0.2,0.3-0.6,0.6-1.2,0.9c-0.6,0.4-1.3,0.6-1.9,0.8c-0.6,0.2-1.3,0.3-2,0.4c-1.1,0.2-2.3,0.3-3.4,0.5c-1.1,0.2-2.3,0.3-3.4,0.6   c-1.1,0.2-2.3,0.5-3.4,0.8c-1.1,0.3-2.2,0.7-3.4,1.2c-0.8,0.3-1.5,0.7-2.1,1l-1.1,0.6l9.2,4.2l4.3-2.4l-4.9-2.2   c0.8-0.2,1.6-0.4,2.4-0.5c0.8-0.1,1.5-0.3,2.3-0.4c0.8-0.1,1.6-0.2,2.3-0.3c0.8-0.1,1.6-0.3,2.5-0.4c1.1-0.2,2.1-0.5,3.2-0.9   c1.1-0.4,2.1-0.8,3-1.4c0.9-0.5,1.7-1.1,2.2-1.6c0.5-0.5,0.9-1,1-1.5c0.1-0.5,0.1-0.9-0.2-1.4c-0.3-0.4-0.8-0.8-1.6-1.1   c-1-0.4-1.9-0.7-2.9-0.8c-1-0.1-1.9,0-2.9,0.2c-1,0.2-2,0.6-3.1,1C281.2,216.3,280.1,216.9,278.9,217.5z M297.6,226.6   c0.5-0.2,1-0.3,1.5-0.6c0.5-0.2,1-0.5,1.5-0.8c1-0.5,1.7-1.1,2.2-1.6c0.5-0.5,0.8-1,0.9-1.4c0.1-0.4-0.1-0.8-0.4-1.2   c-0.3-0.4-0.9-0.7-1.6-1.1c-0.7-0.3-1.5-0.6-2.3-0.7c-0.8-0.1-1.6-0.2-2.4-0.1c-0.8,0.1-1.7,0.3-2.6,0.6c-0.9,0.3-1.9,0.8-2.9,1.3   l-0.8,0.5l3.7,1.7l0.7-0.4c0.2-0.1,0.4-0.2,0.6-0.3c0.2-0.1,0.4-0.2,0.6-0.2c0.2-0.1,0.4-0.1,0.7-0.1c0.2,0,0.5,0.1,0.7,0.2   c0.6,0.3,0.4,0.7-0.6,1.3c-0.8,0.5-1.6,0.7-2.2,0.8c-0.7,0-1.3-0.1-1.9-0.3l-4.1,2.3c0,0,0.1,0,0.2,0.1c0.1,0,0.1,0.1,0.2,0.1   c0.3,0.1,0.5,0.3,0.5,0.5c0,0.2,0,0.4-0.2,0.6c-0.2,0.2-0.4,0.4-0.7,0.7c-0.3,0.2-0.7,0.5-1.1,0.7c-0.5,0.3-0.9,0.5-1.3,0.7   c-0.3,0.2-0.6,0.3-0.9,0.3c-0.2,0.1-0.4,0.1-0.6,0.1c-0.2,0-0.3-0.1-0.5-0.1c-0.2-0.1-0.4-0.2-0.4-0.3c-0.1-0.1-0.1-0.2,0-0.3   c0.1-0.1,0.2-0.2,0.3-0.3c0.2-0.1,0.3-0.2,0.5-0.3l2-1.2l-3.7-1.7l-2,1.2c-1,0.6-1.8,1.1-2.3,1.6c-0.5,0.5-0.8,0.9-0.9,1.4   c-0.1,0.4,0,0.8,0.4,1.2c0.3,0.4,0.9,0.7,1.6,1.1c0.9,0.4,1.8,0.7,2.7,0.8c0.9,0.1,1.8,0.1,2.8,0c0.9-0.1,1.9-0.4,2.8-0.8   c1-0.4,1.9-0.8,3-1.4c0.5-0.3,1.1-0.6,1.5-0.9c0.5-0.3,0.9-0.6,1.3-0.9c0.3-0.3,0.6-0.6,0.7-0.9c0.1-0.3,0.1-0.7,0-1   c0.5,0.1,1,0.1,1.5,0C296.7,226.9,297.2,226.8,297.6,226.6z M311.2,213.2l6.9,2.7l2.5-2.2l-4.7-1.6L311.2,213.2L311.2,213.2z    M163.7,192.9c-0.9,1-1.8,1.9-2.8,2.8c-0.5,0.5-1.1,0.9-1.6,1.3c-0.8,0.6-1.6,1.2-2.3,1.8c1.8,0.8,3.6,1.6,5.4,2.5l0.8-4.6   L163.7,192.9z M110.1,177.3c0,0-0.3-0.8-0.6-2.2c-8.7,1-18.6,2.9-29.7,6.1C33.5,194.6,2.2,230.3,14,252.9c0.3,0.6,0.6,1.2,1,1.8   c0,0.1,0.1,0.1,0.1,0.2c0.1,0.1,0.2,0.3,0.3,0.4c0,0.1,0.1,0.1,0.1,0.2c0.2,0.3,0.4,0.6,0.5,0.9c0.1,0.1,0.1,0.2,0.2,0.3   c0.1,0.1,0.2,0.3,0.3,0.4c0.1,0.1,0.1,0.2,0.2,0.3c0.1,0.2,0.2,0.4,0.4,0.6c0.1,0.2,0.2,0.3,0.3,0.5c0.1,0.1,0.1,0.2,0.2,0.3   c0.1,0.1,0.2,0.3,0.3,0.4c0.1,0.1,0.2,0.2,0.2,0.3c0.1,0.2,0.3,0.4,0.4,0.6c0,0,0.1,0.1,0.1,0.1c0.1,0.2,0.3,0.3,0.4,0.5   c0,0,0.1,0.1,0.1,0.1c0.2,0.2,0.4,0.4,0.6,0.7c0,0,0,0,0,0c0,0,0,0,0,0.1c0.1,0.1,0.1,0.1,0.2,0.2c0,0,0,0,0,0c0,0,0,0,0,0   c0.1,0.1,0.1,0.1,0.2,0.2c0,0,0.1,0.1,0.1,0.1c0,0,0,0,0,0c0.2,0.2,0.4,0.4,0.6,0.6c0,0,0.1,0.1,0.1,0.1c0.1,0.1,0.3,0.3,0.4,0.4   c0,0,0.1,0.1,0.1,0.1c0.2,0.2,0.3,0.3,0.5,0.5c0.1,0.1,0.1,0.1,0.2,0.2c0,0,0,0,0,0c0.2,0.2,0.4,0.3,0.6,0.5   c0.3,0.2,0.5,0.4,0.8,0.6c0.2,0.1,0.3,0.3,0.5,0.4c0.4,0.3,0.7,0.5,1.1,0.8c0.2,0.2,0.5,0.3,0.7,0.4c0.3,0.2,0.5,0.3,0.8,0.5   c0.2,0.1,0.4,0.2,0.7,0.3c0.2,0.1,0.5,0.3,0.7,0.4c0.2,0.1,0.5,0.2,0.7,0.3c0.2,0.1,0.5,0.2,0.7,0.3c0.2,0.1,0.5,0.2,0.7,0.3   c0.2,0.1,0.5,0.2,0.7,0.2c0.2,0.1,0.5,0.2,0.7,0.2c0.2,0.1,0.5,0.1,0.7,0.2c0.2,0.1,0.5,0.1,0.7,0.2c0.1,0,0.2,0,0.2,0.1   c0,0,0,0,0,0c3.4-3.5,3.7-10.1,4-15c0.4-7-0.3-14.3,1.2-21.3c3.2-14.9,17-25.8,28.7-31.3c12-5.7,24.4-7.6,37-8.5   c0.2-2.5,0.9-5.1,1.7-7.3C107.6,181.1,110.1,177.3,110.1,177.3z M348.1,419.5c-0.8-2.3-0.9-6,1.3-7.5c2.2-1.6,5.3,0.3,6.8,2   c0.1,0.2,0.3,0.3,0.4,0.5l0,0l0.4-2.3c0,0,0,0,0,0c0-0.4,0-0.8,0-1.2c0-3.2,0-6.9-0.1-10.9c-1.6-1-3.7-1.6-6.3-1.2   c-2.6,0.3-4.5,1.6-5.7,3.5c-9.3,2-9,17.2,1.1,24.7c3.1,2.3,5.2,4.8,6.7,7l1.5-7.9C351.8,424.7,349.3,422.8,348.1,419.5z    M582.8,435.1c0.3-1.4,0.5-2.7,0.7-4.1c0.4-3.4,0.4-6.7,0.1-9.9c-0.4-3.9-1.5-7.6-3.1-11.1c-0.5-1-1-2-1.4-3c0-0.1-0.1-0.2-0.1-0.3   c-0.1-0.2-0.3-0.5-0.4-0.7c-0.1-0.1-0.1-0.2-0.2-0.3c-0.3-0.5-0.5-1-0.8-1.5c-0.1-0.2-0.2-0.4-0.3-0.5c-0.1-0.2-0.2-0.4-0.4-0.6   c-0.1-0.2-0.2-0.3-0.3-0.5c-0.2-0.3-0.4-0.6-0.6-0.9c-0.2-0.3-0.3-0.5-0.5-0.8c-0.1-0.1-0.2-0.3-0.3-0.4c-0.2-0.2-0.3-0.5-0.5-0.7   c-0.1-0.2-0.2-0.4-0.4-0.5c-0.2-0.3-0.4-0.6-0.7-0.9c-0.1-0.1-0.1-0.2-0.2-0.2c-0.2-0.3-0.4-0.6-0.6-0.8c-0.1-0.1-0.1-0.2-0.2-0.2   c-0.3-0.4-0.6-0.7-0.9-1.1c0,0,0,0,0,0c-0.3-0.3-0.5-0.6-0.8-1c0,0,0,0,0,0c-0.3-0.4-0.6-0.7-0.9-1.1c0-0.1-0.1-0.1-0.2-0.2   c-0.2-0.2-0.4-0.5-0.6-0.7c-0.1-0.1-0.1-0.2-0.2-0.2c-0.2-0.3-0.5-0.5-0.8-0.8c-0.1-0.1-0.2-0.2-0.3-0.3c0,0,0,0,0,0   c-0.3-0.3-0.6-0.6-0.8-0.8c-0.4-0.4-0.8-0.7-1.2-1.1c-0.3-0.2-0.5-0.5-0.8-0.7c-0.6-0.5-1.2-0.9-1.8-1.4c-0.3-0.2-0.7-0.5-1-0.7   c-0.4-0.3-0.9-0.6-1.3-0.9c-0.3-0.2-0.7-0.4-1-0.6c-0.4-0.2-0.7-0.4-1.1-0.6c-0.4-0.2-0.7-0.4-1.1-0.5c-0.4-0.2-0.7-0.3-1.1-0.5   c-0.4-0.2-0.7-0.3-1.1-0.5c-0.4-0.1-0.7-0.3-1.1-0.4c-0.4-0.1-0.8-0.3-1.2-0.4c-0.4-0.1-0.7-0.2-1.1-0.3c-0.4-0.1-0.8-0.2-1.2-0.3   c-0.1,0-0.2-0.1-0.4-0.1c0,0,0,0,0,0c-5.6,5.8-6.5,16.7-7.2,24.8c-1,11.7-0.5,23.8-3.2,35.3c-5.9,24.7-28.6,42.6-47.6,51.5   c-24.2,11.5-49.1,13.3-74.1,14.3c-14.9,0.6-30,1.1-44.5-2c-11.5-2.4-22.6-6.6-33.1-12.3l0,0l-1.5,7.6L336,521c0,0,0.9,0.9,2.8,2.2   c0.4,0.3,0.8,0.6,1.3,0.9c1.6,1.1,3.7,2.3,6.3,3.7c1.1,0.6,2.4,1.2,3.7,1.8c0.9,0.4,1.8,0.8,2.8,1.2c1,0.4,2,0.8,3.1,1.2   c0.5,0.2,1.1,0.4,1.6,0.6c1.1,0.4,2.3,0.8,3.5,1.1c0.6,0.2,1.2,0.4,1.8,0.5c1.2,0.4,2.5,0.7,3.9,1c4.7,1.2,10,2.2,15.9,2.8   c2.5,0.3,5.2,0.5,8,0.7c0.9,0.1,1.9,0.1,2.8,0.2c3.8,0.2,7.8,0.2,12,0.1c1.1,0,2.1-0.1,3.2-0.1c2.2-0.1,4.4-0.2,6.7-0.4   c3.4-0.2,6.9-0.6,10.6-1c1.2-0.1,2.5-0.3,3.7-0.5c3.1-0.4,6.3-0.9,9.6-1.5c3.3-0.6,6.7-1.2,10.2-2c3.5-0.7,7.1-1.6,10.7-2.5   c3.7-0.9,7.4-1.9,11.3-3c2.1-0.6,4.2-1.2,6.2-1.9c0,0,0,0,0,0c0.6-0.2,1.2-0.4,1.8-0.6l0,0c0.4-0.1,0.8-0.3,1.2-0.4   c1.1-0.4,2.2-0.8,3.3-1.1c0.6-0.2,1.2-0.4,1.8-0.6c0,0,0,0,0,0c2-0.7,4-1.5,6-2.3c2.2-0.9,4.3-1.8,6.5-2.7   c9.6-4.2,18.6-9,26.9-14.2c1.8-1.2,3.7-2.3,5.4-3.5c3.6-2.4,7-4.9,10.2-7.4c3.3-2.5,6.4-5.2,9.3-7.8c2.2-2,4.3-4,6.3-6.1   c2-2,3.9-4.1,5.8-6.2c2.4-2.8,4.7-5.6,6.7-8.4c0.5-0.7,1-1.4,1.5-2.1c1-1.4,1.9-2.8,2.8-4.2c1.3-2.1,2.5-4.3,3.6-6.4   c0.7-1.4,1.4-2.8,2-4.2c0.9-2.1,1.7-4.2,2.4-6.3C581.9,439.3,582.4,437.2,582.8,435.1z" originalFill="#F04C23"/>
	<path fill="#4E5273" d="M296.1,171.3L296.1,171.3c-0.1,0.5-0.2,0.9-0.4,1.4c-0.2,0.6-0.4,1.2-0.6,1.7c-0.1,0.1-0.1,0.3-0.2,0.4   c-0.2,0.4-0.4,0.9-0.6,1.3c-0.1,0.2-0.2,0.3-0.3,0.5c-0.2,0.4-0.5,0.8-0.7,1.2c-0.1,0.2-0.2,0.3-0.3,0.5c-0.4,0.5-0.8,1-1.2,1.5   c-0.9,0.9-1.9,1.7-2.9,2.3c-1,0.6-2.1,1.1-3.1,1.4c-0.1,0-0.2,0.1-0.3,0.1l0,0c-0.2,0.1-0.5,0.1-0.7,0.2c-0.7,0.1-1.4,0.2-2.2,0.2   c-0.7,0-1.4-0.1-2.1-0.3c-1.7-0.4-3.4-1.2-4.8-2.5c-2-1.8-4.3-3.9-7-6c-0.9-0.7-1.8-1.5-2.7-2.2c-1.1-0.8-2.2-1.7-3.3-2.5   c-1.2-0.9-2.5-1.8-3.8-2.8c-0.7-0.5-1.4-1-2.1-1.5c-0.8-0.6-1.7-1.1-2.6-1.7l0,0c-1.4-0.9-2.9-1.9-4.4-2.8   c-2.4-1.4-4.9-2.8-7.5-4.2c-2.6-1.3-5.2-2.5-7.9-3.7c-4.1-1.7-8.3-3.1-12.6-4.1c0,0,0,0,0,0c-1.1-0.3-2.2-0.5-3.2-0.7   c-0.4-0.1-0.7-0.1-1.1-0.2c-0.7-0.1-1.4-0.2-2.2-0.3c-0.4,0-0.9-0.1-1.3-0.1c-0.7,0-1.3-0.1-2-0.1c-0.5,0-0.9,0-1.4,0   c-0.6,0-1.3,0-1.9,0c-0.5,0-0.9,0-1.4,0.1c-0.6,0-1.2,0.1-1.9,0.1c-0.5,0-0.9,0.1-1.4,0.1c-0.6,0.1-1.2,0.1-1.9,0.2   c-0.4,0.1-0.9,0.1-1.3,0.2c-0.6,0.1-1.3,0.2-1.9,0.3c-0.4,0.1-0.8,0.2-1.3,0.2c-0.7,0.1-1.3,0.3-2,0.4c-0.4,0.1-0.8,0.2-1.1,0.3   c-0.7,0.2-1.4,0.4-2.1,0.5c-0.3,0.1-0.6,0.2-0.9,0.3c-0.8,0.2-1.7,0.5-2.5,0.7c-0.2,0.1-0.3,0.1-0.5,0.2c-4.1,1.3-8,2.9-11.6,4.6   c0,0,0,0,0,0c-0.9,0.4-1.8,0.9-2.6,1.3c0,0,0,0,0,0c-0.9,0.4-1.7,0.9-2.5,1.3l0.7,6.4c0,0,0,0,0,0l0,0c0.1,0.6,0.1,1.3,0.1,1.9   c0,0,0,0,0,0c0,0.2,0,0.4,0,0.6l0,0c0,0.4,0,0.9,0,1.3c0,0.1,0,0.2,0,0.3c0,0.1,0,0.2,0,0.4l0,0c0,0.4,0,0.9-0.1,1.3   c0,0.2,0,0.4,0,0.6c-0.1,1.4-0.3,2.8-0.6,4.1c0,0,0,0,0,0.1c0,0.2-0.1,0.3-0.1,0.5c-0.2,0.7-0.3,1.5-0.5,2.2   c-0.4,1.3-0.8,2.7-1.4,3.9c-0.1,0.2-0.2,0.4-0.3,0.6c-0.5,1.2-1.1,2.4-1.8,3.6c-0.5,0.8-1,1.6-1.5,2.4c-0.4,0.6-0.8,1.1-1.2,1.7   c-0.4,0.5-0.8,1.1-1.3,1.6l-0.6,3.7l0.6-3.7c-0.9,1-1.8,1.9-2.8,2.8c-0.5,0.5-1.1,0.9-1.6,1.3c-0.8,0.6-1.6,1.2-2.3,1.8   c-2.4,1.8-4.9,3.6-7.2,5.1c-1.6,1.1-3.1,2.1-4.6,3c-0.4,0.3-0.8,0.5-1.3,0.7c-1.3,0.8-2.6,1.4-3.6,1.9c-0.4,0.2-0.7,0.3-1,0.4   c-0.6,0.2-1.2,0.4-1.7,0.4c-0.5,0-1,0.1-1.4,0.1c0,0,0,0-0.1,0c-0.4,0-0.9,0-1.3-0.1c0,0,0,0,0,0c0,0,0,0,0,0   c-1.1-0.1-2.1-0.4-3-0.7c0,0-0.1,0-0.1,0c-0.3-0.1-0.5-0.2-0.7-0.3c-0.1,0-0.1-0.1-0.2-0.1c-0.2-0.1-0.4-0.2-0.6-0.3   c-0.1,0-0.2-0.1-0.2-0.1c-0.2-0.1-0.4-0.2-0.6-0.3c-0.1,0-0.2-0.1-0.2-0.1c-0.2-0.1-0.4-0.2-0.5-0.3c-0.1,0-0.1-0.1-0.2-0.1   c-0.2-0.1-0.3-0.2-0.5-0.3c-0.1,0-0.1-0.1-0.2-0.1c-0.1-0.1-0.3-0.2-0.4-0.3c-0.1,0-0.1-0.1-0.2-0.1c-0.1-0.1-0.2-0.2-0.4-0.3   c-0.1,0-0.1-0.1-0.2-0.1c-0.1-0.1-0.2-0.2-0.3-0.3c-0.1,0-0.1-0.1-0.1-0.1c-0.1-0.1-0.2-0.2-0.2-0.2c0,0-0.1-0.1-0.1-0.1   c-0.1-0.1-0.1-0.1-0.2-0.2c0,0-0.1-0.1-0.1-0.1c0,0-0.1-0.1-0.1-0.1c0,0-0.1-0.1-0.1-0.1c0,0,0,0-0.1-0.1c0,0,0,0,0,0   s-15.9,6.4-20.1-3.8c-0.8-1.9-1.1-3.9-1.1-5.9c0-0.7,0-1.3,0.1-2c0.2-2.5,0.9-5.1,1.7-7.3c1.8-5.1,4.4-9,4.4-9s-0.3-0.8-0.6-2.2   c-1.4-5.2-4-19,1.7-32.7c6.3-15.1,28.9-27.6,41.3-25c11.8-6.9,28.8-13.9,49-12.9c25.1,1.2,60.3,26.9,82.2,45c0,0,0,0,0,0   c3.1,2.5,5.9,4.9,8.3,7.1C295.9,160,297.3,165.8,296.1,171.3z M487.3,166c-0.5,3.1-2.3,8.3-8.3,16.1c-5.3,7-14,7-22.1,4.8   C445.6,204.8,422,237.2,397,240c-24.3,2.7-56-14.3-72.8-24.9c0.5-0.4,1-0.9,1.4-1.4l0,0c0,0,0.1-0.1,0.1-0.1   c0.1-0.1,0.2-0.2,0.2-0.3c0.2-0.2,0.3-0.4,0.5-0.6c0.3-0.3,0.6-0.7,0.9-1l0,0c0,0,0,0,0,0c0-0.1,0.1-0.1,0.1-0.2   c0.2-0.3,0.5-0.6,0.7-0.9c0.1-0.2,0.3-0.4,0.4-0.6c0.1-0.1,0.2-0.2,0.3-0.4c0.3-0.5,0.7-1.1,1-1.6c0-0.1,0.1-0.1,0.1-0.2l0,0   c0,0,0-0.1,0.1-0.1c0-0.1,0.1-0.2,0.1-0.2l0,0c0.1-0.1,0.1-0.3,0.2-0.4c0.1-0.1,0.1-0.3,0.2-0.4c0,0.1-0.1,0.1-0.1,0.2   c0,0.1-0.1,0.1-0.1,0.2c0-0.1,0.1-0.1,0.1-0.2c0.1-0.2,0.2-0.4,0.3-0.6c0,0,0,0,0,0c0,0.1-0.1,0.2-0.1,0.3c0,0,0,0,0,0.1   c0,0,0,0,0,0c0,0,0,0,0,0c0,0,0,0,0,0c0,0,0,0,0,0.1c0-0.1,0.1-0.2,0.1-0.2c0,0,0-0.1,0.1-0.1c0,0,0,0.1-0.1,0.1   c0-0.1,0.1-0.1,0.1-0.2c0,0,0,0,0,0c0,0,0,0,0,0c0,0,0,0,0,0c0.1-0.2,0.2-0.3,0.3-0.5l0,0l0,0v0c0.1-0.1,0.1-0.2,0.2-0.3l0,0l0,0   c0-0.1,0.1-0.1,0.1-0.2c0.3-0.6,0.5-1.2,0.7-1.8c0,0,0,0,0,0c0-0.1,0.1-0.3,0.1-0.4l0,0c0.1-0.2,0.2-0.5,0.3-0.7   c0.1-0.4,0.3-0.8,0.4-1.2c0,0,0-0.1,0-0.1c0,0,0,0,0,0c0.2-0.5,0.3-1.1,0.4-1.6c0-0.2,0.1-0.3,0.1-0.5c0-0.1,0-0.1,0-0.2   c0-0.1,0-0.1,0-0.2c0.1-0.7,0.3-1.4,0.4-2.1c0.1-0.7,0.2-1.4,0.2-2.2l0,0c0-0.1,0-0.1,0-0.2c0-0.1,0-0.1,0-0.2l0,0c0,0,0,0,0,0   c12.6,8.4,34.7,20.8,50.8,16.3c18.7-5.2,35.8-33.1,42.2-44.6c-5.4-7-7.4-17.1-5.1-27.1c2.6-11.1,6-23.3,8.7-26.8   c5.3-6.8,12.6-7.2,12.6-7.2s3.8-9.2,13.1-6.2c9.4,3,15.3,11.5,15.3,11.5s15.3,6,20.2,23.2C494.5,141.9,492,155,487.3,166z    M330.9,206.2C330.9,206.2,330.9,206.2,330.9,206.2C330.9,206.2,330.9,206.2,330.9,206.2C330.9,206.2,330.9,206.2,330.9,206.2z    M387.2,288.9c-10.7-9.4-33.1-19.9-58.6-29.8l0,0c-0.3-0.1-0.6-0.2-0.9-0.3c-2.2-0.9-4.5-1.7-6.8-2.6c-6.3,5.8-12.6,11.4-17.9,18.6   c-1.4,1.9-2.8,4-4.1,6.2c-0.9,1.5-1.7,3-2.5,4.6c-2.9,5.7-5.5,11.6-7.6,17.7c0.5,0.2,0.9,0.4,1.4,0.6c9.9,4.3,19.6,8.5,28.7,12.5   c30.6,13.8,37.2,56.6,38.1,83.7c0.1,4,0.2,7.7,0.1,10.9c0,0.4,0,0.8,0,1.2c0.1,0,0.2,0,0.3-0.1c0.4-0.1,1-0.2,1.8-0.3   c0.2,0,0.5-0.1,0.7-0.1c0,0,0,0,0,0c0.3-0.1,0.6-0.1,0.9-0.2c0,0,0.1,0,0.1,0c0.3-0.1,0.6-0.1,0.9-0.2c0,0,0,0,0,0   c0.2,0,0.4-0.1,0.6-0.1c0.5-0.1,1.1-0.2,1.7-0.3c0,0,0.1,0,0.1,0c0.8-0.2,1.7-0.4,2.7-0.6c0,0,0,0,0.1,0c1-0.2,2-0.4,3-0.6   c0,0,0,0,0,0c0.5-0.1,1-0.2,1.6-0.3c0,0,0.1,0,0.1,0c1.1-0.2,2.2-0.5,3.4-0.8c0,0,0.1,0,0.1,0c1.2-0.3,2.3-0.5,3.6-0.8   c0,0,0.1,0,0.1,0c0.6-0.1,1.2-0.3,1.7-0.4c0,0,0.1,0,0.1,0c0.6-0.2,1.2-0.3,1.9-0.5l0,0c7.5-1.9,15.6-4.1,22.5-6.6   c1.7-0.6,3.3-1.2,4.9-1.9c0.1-0.1,0.3-0.1,0.4-0.2c0.8-0.3,1.6-0.7,2.3-1c0,0,0,0,0.1,0c0.3-0.2,0.7-0.3,1-0.5   c0.1,0,0.1-0.1,0.2-0.1c0.3-0.1,0.5-0.3,0.8-0.4c0.1-0.1,0.2-0.1,0.3-0.2c0.2-0.1,0.5-0.2,0.7-0.4c0.1-0.1,0.2-0.1,0.3-0.2   c0.2-0.1,0.4-0.2,0.6-0.3c0.1-0.1,0.2-0.1,0.3-0.2c0.2-0.1,0.4-0.2,0.6-0.3c0.1-0.1,0.2-0.1,0.3-0.2c0.2-0.1,0.3-0.2,0.5-0.3   c0.1-0.1,0.2-0.1,0.3-0.2c0.2-0.1,0.3-0.2,0.5-0.3c0.1-0.1,0.2-0.1,0.3-0.2c0.1-0.1,0.3-0.2,0.4-0.3c0.1-0.1,0.2-0.1,0.3-0.2   c0.1-0.1,0.3-0.2,0.4-0.4c0.1-0.1,0.1-0.1,0.2-0.2c0.2-0.2,0.4-0.4,0.6-0.5l8.6-8.8c0.1-0.1,0.1-0.1,0.2-0.2   C422.8,352.8,408.6,307.7,387.2,288.9z M187.4,314.4c-2.7-4.1-4.8-8.7-6-13.8c-0.9-4-1.5-8.1-2.1-12.2c-0.2,0.1-0.4,0.2-0.6,0.3   c-0.1,0.1-0.2,0.1-0.3,0.2c-0.5,0.3-1.1,0.6-1.6,0.8c-0.1,0-0.2,0.1-0.3,0.1c-0.3,0.1-0.7,0.3-1,0.4c-1.7,0.6-3.3,0.9-4.8,0.7   c-8.3-1.2-13.9-24.5-16.8-40.3c0,0,0-0.1,0-0.1c0,0,0,0-0.1,0c-0.2,0-0.6,0.1-1,0.2c-0.1,0-0.2,0-0.3,0.1c-0.1,0-0.2,0-0.3,0.1   c-0.1,0-0.2,0-0.4,0.1c-0.2,0-0.4,0.1-0.7,0.1c-0.1,0-0.2,0-0.4,0.1c-0.2,0-0.4,0.1-0.5,0.1c-0.1,0-0.3,0.1-0.4,0.1   c-0.2,0-0.4,0.1-0.7,0.1c-0.2,0-0.4,0.1-0.5,0.1c-0.3,0.1-0.5,0.1-0.8,0.2c-0.2,0-0.3,0.1-0.5,0.1c-0.2,0.1-0.5,0.1-0.7,0.2   c-0.2,0-0.3,0.1-0.5,0.1c-0.4,0.1-0.8,0.2-1.2,0.3c-0.2,0-0.3,0.1-0.5,0.1c-0.3,0.1-0.6,0.1-0.9,0.2c-0.2,0-0.4,0.1-0.5,0.1   c-0.4,0.1-0.9,0.2-1.3,0.3c-0.1,0-0.3,0.1-0.4,0.1c-0.3,0.1-0.7,0.2-1,0.2c-0.2,0-0.4,0.1-0.5,0.1c-0.4,0.1-0.7,0.2-1.1,0.3   c-0.1,0-0.3,0.1-0.4,0.1c-4.8,1.2-10,2.7-14.4,4.2c-0.4,0.1-0.7,0.3-1.1,0.4c-0.2,0.1-0.4,0.1-0.5,0.2c-0.3,0.1-0.7,0.3-1,0.4   c-0.2,0.1-0.4,0.2-0.5,0.2c-0.3,0.1-0.6,0.3-0.9,0.4c-0.2,0.1-0.4,0.2-0.5,0.2c-0.3,0.1-0.5,0.3-0.8,0.4c-0.2,0.1-0.3,0.2-0.5,0.3   c-0.2,0.1-0.5,0.3-0.7,0.4c-0.2,0.1-0.3,0.2-0.5,0.3c-0.2,0.1-0.4,0.3-0.6,0.4c-0.1,0.1-0.3,0.2-0.4,0.2c-0.2,0.1-0.4,0.3-0.6,0.4   c-0.1,0.1-0.2,0.1-0.3,0.2c-0.3,0.2-0.5,0.4-0.7,0.6c0,0,0,0,0,0l-4.6,4.7c8.1,26.4,25.4,72.5,46.4,70.6   c10.2-0.9,21.5-5.8,32.6-12.5c0.1,0,0.1-0.1,0.2-0.1c0.9-0.5,1.8-1.1,2.6-1.6c0.4-0.2,0.7-0.5,1.1-0.7c0.4-0.3,0.8-0.5,1.2-0.8   c0,0,0,0,0,0C191.6,320.1,189.4,317.3,187.4,314.4z M314.9,199.4c-0.1,0-0.1,0.1-0.2,0.1c0,0,0,0,0,0c-0.1,0-0.1,0.1-0.2,0.1   c-0.2,0.1-0.3,0.2-0.5,0.3c-0.1,0-0.2,0.1-0.3,0.1c-0.2,0.1-0.3,0.2-0.5,0.2c0,0,0,0-0.1,0c0,0,0,0-0.1,0c-0.1,0-0.2,0.1-0.3,0.1   c-0.2,0.1-0.4,0.1-0.6,0.2c-0.1,0-0.2,0.1-0.3,0.1c0,0-0.1,0-0.1,0c0,0-0.1,0-0.1,0c-0.2,0-0.3,0.1-0.5,0.1c-0.1,0-0.3,0.1-0.4,0.1   c-0.1,0-0.3,0.1-0.4,0.1c-0.1,0-0.1,0-0.2,0c0,0,0,0,0,0c-0.1,0-0.3,0-0.4,0c-0.2,0-0.4,0-0.6,0c-0.1,0-0.2,0-0.4,0c0,0,0,0-0.1,0   c0,0,0,0,0,0c-0.2,0-0.4,0-0.6,0c-0.1,0-0.3,0-0.4,0c-0.1,0-0.2,0-0.4,0c-0.1,0-0.2,0-0.3,0c0,0,0,0,0,0c-0.1,0-0.2,0-0.3,0   c-0.4-0.1-0.7-0.1-1.1-0.2c-9.3-2.6-3.4-13-0.2-19.6c0.3-0.6,0.5-1.1,0.8-1.7c0,0,0,0,0,0c0.2-0.6,0.5-1.1,0.7-1.7l0,0   c-0.5-0.5-1.1-1-1.6-1.5c-0.4-0.4-0.7-0.8-1.1-1.1c-0.2-0.2-0.4-0.4-0.6-0.7c0,0,0,0,0,0c0-0.1-0.1-0.1-0.1-0.2   c-0.6-0.7-1.3-1.5-1.8-2.2c-0.2-0.2-0.4-0.5-0.5-0.7c-0.4-0.5-0.7-1-1-1.5c-0.1-0.2-0.3-0.4-0.4-0.7c-0.5-0.8-1-1.6-1.5-2.4   c-0.1-0.2-0.2-0.3-0.3-0.5c-0.1-0.2-0.2-0.4-0.3-0.6c-1-1.8-1.8-3.7-2.5-5.7c-0.1-0.2-0.1-0.3-0.2-0.5c-0.7-2-1.3-4.1-1.8-6.2   c0-0.1,0-0.2-0.1-0.3c-0.3-1.4-0.5-2.7-0.7-4.1c0,0,0,0,0,0c-0.1-0.9-0.2-1.7-0.3-2.6c0,0,0,0,0,0l0,0c-0.3-3.3-0.4-6.7-0.1-10.1   c-5.9-0.1-11.3-0.5-11.8-2.1c-1.2-3.4,2.5-6,2.5-6s-15.4,2.2-14.2-6.4c1.1-7.7,11.2-9.6,13.5-9.9c-2.5,0.3-14.7,1.2-13.5-10.3   c0.8-7.6,5.8-9.9,10-10.7c-3.5-2.2-8.6-7-4.2-14.3c6.3-10.3,25.7-5.2,25.7-5.2s-14.5-11-1.6-14.6c12.9-3.6,31.7,12,31.7,12   c-6-6.1-6.6-20.6,18.7-6.3c25.3,14.3,22,43.6,22,43.6l-0.1,0c4,7.2,6.3,15.9,6.4,24.9l11.2,5.1c3.7,1.7,5.8,5.8,5.6,10.4v0   c0,0,0,0,0,0c0,0.7-0.1,1.5-0.3,2.2c0,0.1,0,0.1-0.1,0.2c-0.1,0.3-0.1,0.6-0.2,0.9c-0.1,0.4-0.2,0.7-0.4,1.1c0,0,0,0,0,0l0,0l0,0   c-0.2,0.5-0.4,1-0.7,1.4v0c0,0.1-0.1,0.1-0.1,0.2c0,0.1-0.1,0.1-0.1,0.2c-0.3,0.4-0.5,0.9-0.8,1.3c-0.2,0.3-0.4,0.6-0.7,0.9   c-0.5,0.5-1,1-1.5,1.5c-0.5,0.4-1.1,0.8-1.7,1.1c-1.2,0.6-2.4,1-3.7,1.1c-0.6,0-1.3,0-1.9-0.1c-0.3-0.1-0.6-0.1-0.9-0.2   c-0.3-0.1-0.6-0.2-0.9-0.4l-7.2-3.3c-2.4,6-5.7,11.4-9.6,15.9c0,0,0,0,0,0c-2.5,3-5.3,5.6-8.3,7.8l0,0c-3,2.2-6.1,4-9.3,5.4   c0,0,0,0-0.1,0c-3.2,1.4-6.5,2.3-9.9,2.8c-0.1,0-0.1,0-0.2,0c-0.5,0.1-1,0.1-1.5,0.2c0,0,0,0,0,0c-1.4,0.1-2.7,0.2-4.1,0.1   c-0.6,0-1.3,0-1.9-0.1c0,0-0.1,0-0.1,0c-0.8-0.1-1.6-0.2-2.3-0.3c0,0-0.1,0-0.1,0c-0.1,0.2-0.2,0.5-0.4,0.7   c-1.2,2.4-2.6,4.8-4.1,6.9c-0.4,0.6-0.8,1.1-1.3,1.6c0,0-0.1,0.1-0.1,0.1c-0.2,0.2-0.3,0.4-0.5,0.6l0,0l0,0c0,0,0,0,0,0   c-0.1,0.1-0.3,0.3-0.4,0.4l0,0c-0.1,0.1-0.1,0.1-0.2,0.2c0,0,0,0,0,0c-0.3,0.3-0.6,0.6-0.9,0.8c0,0,0,0-0.1,0.1   C316.4,198.4,315.7,198.9,314.9,199.4z M359.9,122.8c0.9,6.3,4,10.7,6.9,9.8c3-0.9,4.7-6.7,3.8-13c-0.9-6.3-4-10.7-6.9-9.8   C360.8,110.6,359.1,116.5,359.9,122.8z M333.7,186.9c0-0.1,0-0.3-0.1-0.4C333.7,186.7,333.7,186.8,333.7,186.9L333.7,186.9z    M334,188.9c-0.1-0.6-0.1-1.2-0.2-1.7l0,0C333.9,187.7,334,188.3,334,188.9z M363.2,116.6L363.2,116.6c1.1,0.5,1.5,2,1.1,3.3   c-0.4,1.2-1.5,1.8-2.5,1.6c0,0.4,0.1,0.7,0.1,1.1c0.8,4.9,2.9,8.4,4.7,7.8c1.8-0.6,2.6-5,1.9-9.9c-0.8-4.9-2.9-8.4-4.7-7.8   c-1,0.3-1.7,1.8-2,3.9C362.3,116.4,362.8,116.4,363.2,116.6z" originalFill="#4E5273"/>
	<path fill="#F99F1C" d="M152.1,248.8c0.3,0.6,0.6,1.2,0.9,1.9c0,0,0,0-0.1,0c-0.1,0-0.2,0-0.3,0.1c-0.1,0-0.2,0-0.3,0.1   c-0.1,0-0.2,0-0.4,0.1c-0.2,0-0.4,0.1-0.7,0.1c-0.1,0-0.2,0-0.4,0.1c-0.2,0-0.4,0.1-0.5,0.1c-0.1,0-0.3,0.1-0.4,0.1   c-0.2,0-0.4,0.1-0.7,0.1c-0.2,0-0.4,0.1-0.5,0.1c-0.3,0.1-0.5,0.1-0.8,0.2c-0.2,0-0.3,0.1-0.5,0.1c-0.2,0.1-0.5,0.1-0.7,0.2   c-0.2,0-0.3,0.1-0.5,0.1c-0.4,0.1-0.8,0.2-1.2,0.3c-0.2,0-0.3,0.1-0.5,0.1c-0.3,0.1-0.6,0.1-0.9,0.2c-0.2,0-0.4,0.1-0.5,0.1   c-0.4,0.1-0.9,0.2-1.3,0.3c-0.1,0-0.3,0.1-0.4,0.1c-0.3,0.1-0.7,0.2-1,0.2c-0.2,0-0.4,0.1-0.5,0.1c-0.4,0.1-0.7,0.2-1.1,0.3   c-0.1,0-0.3,0.1-0.4,0.1c0,0,0,0,0,0c-1.4-4.6-3.6-8.6-6.4-12c-4.9-5.8-11.5-9.7-18.7-11.9c-7.6-2.3-15.7-2.9-23.6-3.8   c-4.3-0.5-8.6-0.8-12.9-1.4c-4-0.6-8.3-1.9-10.2-6.2c-2.8-6.3,3.9-11.9,8.2-14.9c6.4-4.5,13.5-7,20.8-7.8c2.8-0.3,5.6-0.4,8.4-0.2   c0,2,0.3,4,1.1,5.9c4.2,10.1,20.1,3.8,20.1,3.8s0,0,0,0c0,0,0,0,0.1,0.1c0,0,0,0,0.1,0.1c0,0,0.1,0.1,0.1,0.1c0,0,0.1,0.1,0.1,0.1   c0.1,0.1,0.1,0.1,0.2,0.2c0,0,0.1,0.1,0.1,0.1c0.1,0.1,0.2,0.1,0.2,0.2c0,0,0.1,0.1,0.1,0.1c0.1,0.1,0.2,0.2,0.3,0.3   c0.1,0,0.1,0.1,0.2,0.1c0.1,0.1,0.2,0.2,0.4,0.3c0.1,0,0.1,0.1,0.2,0.1c0.1,0.1,0.3,0.2,0.4,0.3c0.1,0,0.1,0.1,0.2,0.1   c0.2,0.1,0.3,0.2,0.5,0.3c0.1,0,0.1,0.1,0.2,0.1c0.2,0.1,0.3,0.2,0.5,0.3c0.1,0,0.1,0.1,0.2,0.1c0.2,0.1,0.4,0.2,0.6,0.3   c0.1,0,0.1,0.1,0.2,0.1c0.2,0.1,0.4,0.2,0.6,0.3c0.1,0,0.1,0.1,0.2,0.1c0.2,0.1,0.5,0.2,0.7,0.3c0,0,0.1,0,0.1,0   c0.9,0.3,1.9,0.6,3,0.7c0,0,0,0,0,0c0,0,0,0,0,0c0.4,0,0.8,0.1,1.3,0.1c0,0,0,0,0.1,0c0.5,0,0.9,0,1.4-0.1c0.5,0,1-0.2,1.7-0.4   c0.3-0.1,0.7-0.2,1-0.4c1.1-0.5,2.3-1.1,3.6-1.9c0.4-0.2,0.8-0.5,1.3-0.7c1.3,0.7,2.6,1.4,3.9,2.1c3.9,2.1,7.5,4.6,10.7,7.4   l-2,12.2l0,0c-4.4-4.6-10-7.7-15.6-10.1c-5.3-2.3-11.3-4.9-17.2-4.6c-2.6,0.1-5.4,1.2-6.4,4.3c-1,3.2,0.7,5.9,2.8,7.6   c2.5,2,5.6,3.2,8.5,4.5c3.6,1.5,6.6,3.5,9.9,5.9c1,0.8,2.1,1.6,3.2,2.4C146.5,241.4,149.9,244.8,152.1,248.8z M494.6,466.3   c-2.8-7.2-9.6-9.3-15.9-10.4c-6.7-1.2-13.6-1.7-20.4-2.6c-12.5-1.7-25.3-2.7-37.2-6.7c-14.2-4.7-26.8-13.9-34-27.9   c-1.9-3.7-3.4-7.7-4.5-12l0,0c-0.6,0.2-1.2,0.3-1.9,0.5c0,0-0.1,0-0.1,0c-0.6,0.1-1.2,0.3-1.7,0.4c0,0-0.1,0-0.1,0   c-1.2,0.3-2.4,0.6-3.6,0.8c0,0-0.1,0-0.1,0c-1.2,0.3-2.3,0.5-3.4,0.8c0,0-0.1,0-0.1,0c-0.5,0.1-1.1,0.2-1.6,0.3c0,0,0,0,0,0   c-1.1,0.2-2.1,0.4-3,0.6c0,0,0,0-0.1,0c-0.9,0.2-1.8,0.4-2.7,0.6c0,0-0.1,0-0.1,0c-0.6,0.1-1.2,0.2-1.7,0.3c-0.2,0-0.4,0.1-0.6,0.1   c0,0,0,0,0,0c-0.3,0.1-0.6,0.1-0.9,0.2c0,0-0.1,0-0.1,0c-0.3,0.1-0.6,0.1-0.9,0.2c0,0,0,0,0,0c-0.3,0-0.5,0.1-0.7,0.1   c0,0,0,0-0.1,0c0.4,1.1,0.8,2.1,1.3,3.1c0.5,1,1.1,2,1.6,2.9c0.9,1.5,1.9,2.9,2.9,4.3c4.1,5.4,9.1,10.1,14,13.9   c5.2,4.1,9.9,7.4,15.5,10c4.5,2.1,9.3,4.1,13.2,7.5c3.3,2.9,5.8,7.4,4,12.7c-1.7,5.1-6.3,6.9-10.4,7c-9.4,0.4-18.7-3.9-27-7.8   c-8.9-4.2-17.6-9.4-24.3-17.1l-3.9,20.3c5,4.7,10.5,8.8,16.6,12.4c13.8,8.2,28.4,15.2,43.9,18.7c13.1,2.9,26.7,5.3,40.5,3.9   c11.7-1.2,23.1-5.4,33.6-12.7C487.7,486.1,498.8,476.8,494.6,466.3z M256.6,166.1c-0.8-0.6-1.7-1.1-2.6-1.7l-44,32.6   c-1,0.7-1.9,1.5-2.7,2.3c-5.6,4.8-9.9,9.8-12.9,14.8c0.5-0.3,1.3-0.4,2.4-0.4c1.3,0,2.8,0.2,4.7,0.5c0.7-0.8,1.4-1.6,2.2-2.2   l55-44.3C258,167.1,257.3,166.6,256.6,166.1z M431.5,422.1c-3.5,3.4,4.2,8.7,9.4,7.5c0.7-0.1,1.5-0.8,2.4-1.7   c6.1-6.2,17.1-26.8,18.7-33.1v0c0.2-0.7,0.3-1.2,0.2-1.5c-0.6-3.5-9.2-4.3-10.8-2.9c0,0-0.1,0.1-0.2,0.2l0,0   c-1.6,2.6-15.2,27.8-19.4,31C431.8,421.9,431.6,422,431.5,422.1z M77.6,239.8c0.2-0.2,0.2-0.5,0.3-0.7c0.6-2.3-4.2-2.9-6.7-1.1   c-0.7,0.5-1.5,2.4-2.2,4.9c-1.6,5.3-2.9,13.3-3.1,17.2c-0.1,1.1,0,1.9,0.1,2.2c1,1.7,5.9-0.1,6.5-1.3c0-0.1,0.2-0.8,0.4-2   C73.9,254.1,76.2,242.1,77.6,239.8z M451.3,430.7c-1.7,3.7,6.1,6.9,10.8,4.9c0.7-0.3,1.6-1.2,2.5-2.5c5.1-7.2,12.5-27.1,13.9-34.3   c0.2-1.2,0.3-2,0.2-2.4c-1-3.3-9.8-2.4-11.2-0.8c0,0-0.2,0.3-0.4,0.9c-2,4.9-11.5,29.5-15.1,33.2   C451.7,430,451.5,430.3,451.3,430.7z M485.5,437.4c1.6-0.9,3.6-5.2,5.5-10.6c3.6-10.3,6.9-24.8,6.9-29.3c0-0.5,0-1-0.2-1.2   c-1.4-3.1-10.1-0.8-11.4,1c0,0.1-0.2,0.7-0.5,1.8c-1.8,6.4-7.6,28.2-10.7,33.4c-0.1,0.2-0.3,0.4-0.4,0.6   C471.2,437.8,480.5,440.4,485.5,437.4z M412.3,414.7c1.7,2.2,4.6,4.1,7.2,4.2c0.9,0,2.3-0.7,4-2c1.6-1.2,3.4-2.9,5.4-4.8   c2.1-2.1,4.3-4.5,6.4-7c6-6.9,11.3-14.3,11.6-16.3l0,0c0-0.1,0-0.1,0-0.2c0.1-3.7-8-6.7-9.8-5.8c0,0-0.2,0.2-0.6,0.6l0,0   c-0.9,1-2.6,3-4.8,5.6c-5.9,6.8-15.1,17.1-18.8,19.3c-0.2,0.1-0.4,0.2-0.5,0.3C409.9,409.7,410.4,412.3,412.3,414.7z M114.8,247.1   c-1-1.4-3-2.6-4.7-2.5c-0.4,0-1,0.3-1.6,0.9c-4.3,3.5-12.9,16.3-12.9,18.2c0,0.1,0,0.1,0,0.2c0.4,1.9,4.7,3.1,5.8,2.5   c0,0,0,0,0.1,0c0.1-0.1,2.7-3.8,5.6-7.6c2.9-3.9,6.1-7.9,7.5-8.6c0.2-0.1,0.3-0.2,0.4-0.3C115.7,249,115.4,248,114.8,247.1z    M103.3,242.8c0.7-2-3.4-4-6.1-3.1c-0.2,0.1-0.5,0.3-0.8,0.6c-3.1,3-9,16.4-9.8,20.5l0,0c-0.1,0.5-0.1,0.8-0.1,1   c0.5,2,5.5,1.9,6.4,1c0,0,0,0,0,0c0.2-0.3,7.5-16.9,9.9-19.1C103,243.4,103.2,243.1,103.3,242.8z M84.8,237.6   c-0.2,0.1-0.5,0.4-0.8,0.8c-2.5,3.3-6.2,15.6-7,20.7c-0.2,1.1-0.2,1.8-0.1,2.1c0.7,1.8,5.7,0.8,6.5-0.3c0,0,0.1-0.3,0.3-0.8l0,0   c1.1-3.5,5.3-17.4,7.1-19.6c0.4-0.5,0.5-1,0.5-1.4C91,237.3,87.1,236.4,84.8,237.6z M332.9,201C332.9,201,332.9,201,332.9,201   c0,0.1,0,0.1-0.1,0.2l0,0c-0.1,0.2-0.1,0.4-0.2,0.6c-0.1,0.4-0.3,0.9-0.4,1.3l0,0c0,0.1-0.1,0.3-0.1,0.4c0,0,0,0,0,0   c-0.2,0.7-0.5,1.3-0.8,2l0,0l0,0c0,0.1-0.1,0.2-0.2,0.3v0l0,0l0,0l0,0c-0.1,0.1-0.1,0.2-0.2,0.4c0,0.1-0.1,0.1-0.1,0.2   c-0.2,0.3-0.3,0.6-0.5,0.9c0,0.1-0.1,0.2-0.1,0.2l0,0c0,0.1-0.1,0.2-0.1,0.2c0,0,0,0.1-0.1,0.1l0,0c-0.3,0.6-0.7,1.2-1.1,1.8   c-0.1,0.1-0.2,0.3-0.3,0.4c-0.4,0.5-0.7,1.1-1.1,1.6l0,0c0,0.1-0.1,0.1-0.1,0.2c0,0,0,0,0,0l0,0c-0.3,0.4-0.6,0.7-0.9,1   c0,0,0,0,0,0c-0.1,0.1-0.1,0.2-0.2,0.2c-0.1,0.1-0.2,0.2-0.3,0.3l0,0c-0.1,0.1-0.2,0.2-0.2,0.3c0,0-0.1,0.1-0.1,0.1l0,0l0,0   c-0.5,0.5-0.9,0.9-1.4,1.4c0,0-0.1,0.1-0.1,0.1l-24.9,22.4l-7.8,7l0,0c-21.3-8.2-42.9-16.3-60.3-22.2l0,0   c-10.1-3.4-18.9-6.1-25.3-7.5c0.2-0.2,0.4-0.4,0.6-0.6l56.3-44c1.1,0.9,2.3,1.7,3.3,2.5c0.9,0.7,1.9,1.5,2.7,2.2c2.6,2.2,5,4.2,7,6   c1.4,1.3,3.1,2.2,4.8,2.5c0.7,0.2,1.4,0.2,2.1,0.3c0.7,0,1.4,0,2.2-0.2c0.2,0,0.5-0.1,0.7-0.2l0,0c0.1,0,0.2,0,0.3-0.1   c1.1-0.3,2.1-0.8,3.1-1.4c1-0.6,2-1.4,2.9-2.3c0.4-0.5,0.9-1,1.2-1.5c0.1-0.2,0.2-0.3,0.3-0.5c0.3-0.4,0.5-0.8,0.7-1.2   c0.1-0.2,0.2-0.3,0.3-0.5c0.2-0.4,0.4-0.8,0.6-1.3c0.1-0.1,0.1-0.3,0.2-0.4c0.2-0.6,0.4-1.2,0.6-1.7c0.1-0.5,0.3-0.9,0.4-1.4l0,0   c1.2-5.5-0.2-11.3-4.2-14.7c-2.5-2.2-5.3-4.5-8.3-7.1c1.7-0.3,3.3-0.5,5-0.6c0.1,0,0.1,0,0.2,0c1.2-0.1,2.3,0,3.4,0.1   c0.2,1.4,0.4,2.8,0.7,4.1c0,0.1,0,0.2,0.1,0.3c0.5,2.1,1.1,4.2,1.8,6.2c0.1,0.2,0.1,0.3,0.2,0.5c0.7,2,1.6,3.9,2.5,5.7   c0.1,0.2,0.2,0.4,0.3,0.6c0.1,0.2,0.2,0.3,0.3,0.5c0.5,0.8,0.9,1.6,1.5,2.4c0.1,0.2,0.3,0.4,0.4,0.7c0.3,0.5,0.7,1,1,1.5   c0.2,0.2,0.4,0.5,0.5,0.7c0.6,0.8,1.2,1.5,1.8,2.2c0,0.1,0.1,0.1,0.1,0.2c0,0,0,0,0,0c-0.2,0.5-0.4,1.1-0.6,1.6   c-2.4,6.2-7.4,11.9-7,18.9c0.5,10,9.9,12.5,17.2,10.1c0.2-0.1,0.4-0.2,0.6-0.2c6.5-2.4,11.1-8.4,14.4-15.3c0.5-1,0.9-2,1.4-3   c1.4,0,2.7,0,4.1-0.1c0,0.1,0.1,0.3,0.1,0.4l0,0c0,0.1,0,0.1,0,0.2v0c0.1,0.7,0.2,1.4,0.3,2.1c0,0.1,0,0.2,0,0.3   c0.1,0.7,0.1,1.4,0.1,2.1c0,0,0,0.1,0,0.1c0,0.7,0,1.4-0.1,2.1c0,0,0,0,0,0l0,0c0,0.1,0,0.1,0,0.2c0,0.1,0,0.1,0,0.2l0,0   c-0.1,1.4-0.3,2.9-0.6,4.3c0,0.1,0,0.1,0,0.2c0,0.1,0,0.1,0,0.2C333.3,199.6,333.1,200.3,332.9,201L332.9,201z M311.6,220.2   l-36.2-17.2l-26.1,19l39.4,17.4L311.6,220.2z M322.3,212.3l-6.5-2.8l0,0l-0.1,0l-4.5,3.6l-0.1,0l6.9,2.7l3.1-2.7L322.3,212.3z" originalFill="#F99F1C"/>
	<path opacity="0.2" d="M160.1,244.2c1.1-1.4,0.4-3.4-0.5-4.4c-0.9-1-2.1-1.6-3.3-1.9l0.6-3.5c0.8,0.3,1.6,0.6,2.6,0.8   c7.6,1.8,10.4,10.1,5.1,13.3c-0.1,0.1-0.3,0.2-0.4,0.2c-5.3,2.7-8.5-2-9.1-3l0.2-1.2l0,0c0.1,0.1,0.2,0.1,0.4,0.2   C156.8,245.2,159.1,245.6,160.1,244.2z M178.7,288.7c-0.1,0.1-0.2,0.1-0.3,0.2c-0.5,0.3-1.1,0.6-1.6,0.8c-0.1,0-0.2,0.1-0.3,0.1   c-0.3,0.1-0.7,0.3-1,0.4c-1.7,0.6-3.3,0.9-4.8,0.7c-8.3-1.2-13.9-24.5-16.8-40.3c0,0,0-0.1,0-0.1c0,0,0,0-0.1,0   c-0.2,0-0.6,0.1-1,0.2c-0.1,0-0.2,0-0.3,0.1c-0.1,0-0.2,0-0.3,0.1c-0.1,0-0.2,0-0.4,0.1c-0.2,0-0.4,0.1-0.7,0.1   c-0.1,0-0.2,0-0.4,0.1c-0.2,0-0.4,0.1-0.5,0.1c-0.1,0-0.3,0.1-0.4,0.1c-0.2,0-0.4,0.1-0.7,0.1c-0.2,0-0.4,0.1-0.5,0.1   c-0.3,0.1-0.5,0.1-0.8,0.2c-0.2,0-0.3,0.1-0.5,0.1c-0.2,0.1-0.5,0.1-0.7,0.2c-0.2,0-0.3,0.1-0.5,0.1c-0.4,0.1-0.8,0.2-1.2,0.3   c-0.2,0-0.3,0.1-0.5,0.1c-0.3,0.1-0.6,0.1-0.9,0.2c-0.2,0-0.4,0.1-0.5,0.1c-0.4,0.1-0.9,0.2-1.3,0.3c-0.1,0-0.3,0.1-0.4,0.1   c-0.3,0.1-0.7,0.2-1,0.2c-0.2,0-0.4,0.1-0.5,0.1c-0.4,0.1-0.7,0.2-1.1,0.3c-0.1,0-0.3,0.1-0.4,0.1c-4.8,1.2-10,2.7-14.4,4.2   c0.1,0,0.2-0.1,0.3-0.1c-2.8-3.2-5.9-5.8-9.4-8.3c-0.1,0.1-0.3,0.2-0.4,0.3c-1.3,0.8-4.6,4.8-7.5,8.6c-2.9,3.9-5.5,7.6-5.6,7.6   c0,0,0,0-0.1,0c2.3,1.1,4.1,2,5.2,2.7c0.8,0.5,1.9,0.3,2.6-0.5l0.6-0.6l4.6-4.7c0,0,0,0,0,0c0,0,0,0,0,0l-4.6,4.7   c8.1,26.4,25.4,72.5,46.4,70.6c10.2-0.9,21.5-5.8,32.6-12.5c0,0,0,0,0,0c0.1,0,0.1-0.1,0.2-0.1c0.9-0.5,1.8-1.1,2.6-1.6   c0.4-0.2,0.7-0.5,1.1-0.7c0.4-0.3,0.8-0.5,1.2-0.8c0,0,0,0,0,0c18.5-12.1,36.2-28.6,47.5-40c-14.6-6.5-27.4-12.8-36.6-18.3   C198.2,272.1,187.5,283.9,178.7,288.7z M77.9,239.1c-0.1,0.2-0.1,0.4-0.3,0.7c-1.5,2.3-3.8,14.3-4.7,19.2c0.7,0,1.5,0,2.2,0   c0.6,0,1.1,0,1.7,0.1c0.1,0,0.1,0,0.2,0c0.8-5.1,4.5-17.3,7-20.7C81.9,238.4,79.9,238.7,77.9,239.1z M108.4,245.4   c-1.6-0.9-3.4-1.8-5.1-2.6c-0.1,0.3-0.3,0.5-0.6,0.8c-2.4,2.2-9.7,18.8-9.9,19.1c1,0.3,1.9,0.7,2.8,1.1c0-0.1,0-0.1,0-0.2   C95.5,261.8,104.1,248.9,108.4,245.4z M91.3,239c0.1,0.4-0.1,0.9-0.5,1.4c-1.8,2.3-6,16.1-7.1,19.6l0,0c1,0.2,1.9,0.4,2.9,0.7l0,0   c0.9-4.1,6.7-17.5,9.8-20.5C94.7,239.8,93,239.4,91.3,239z M69,242.9c-6.1,4.3-9.8,11.9-9.8,20.5c0,0,0,0,0,0c0,0,0,0,0,0   c0,0,0,0,0.1,0c0.6-0.3,1.2-0.7,1.7-1.1c1.5-1,3.2-1.7,4.9-2.2C66.1,256.2,67.4,248.1,69,242.9z M487.3,166   c0.4-2.2,0.1-3.2,0.1-3.2s-11.9-0.3-21.2-6.2c-9.3-5.9-9.8-8-9.8-8s14.1-8,16.8-21c2.6-13-4.5-25.7-29.8-23c0,0,19.4,0,26,9.3   c6.6,9.3-2.1,25.9-9.9,27.9c-7.8,2-22.7-5.4-22.7-5.4s8.1,5.8,8.7,13.9c0.3,4.3-2.9,10.4-7.1,14.1c-3.7,3.3-8,4.7-11.1,1.2   c0,0,0.1,0.2,0.3,0.6c-0.1-0.2-0.3-0.3-0.4-0.5c-6.4,11.5-23.5,39.4-42.2,44.6c-16,4.5-38.2-7.9-50.8-16.3c0-0.2,0-0.3,0-0.5   c0-0.6,0-1.1,0-1.7c0,0,0-0.1,0-0.1c0-0.7,0-1.4-0.1-2.1c0-0.1,0-0.2,0-0.3c0-0.1,0-0.3,0-0.4c-0.1-0.6-0.1-1.2-0.2-1.7   c0-0.1,0-0.1,0-0.2c0-0.1,0-0.3-0.1-0.4c0,0,0,0,0,0c-1.4,0.1-2.7,0.2-4.1,0.1c-0.6,0-1.3,0-1.9-0.1c0.6,0.1,1.3,0.1,1.9,0.1   c1.4,0,2.7,0,4.1-0.1c0,0,0,0,0,0c0.5,0,1-0.1,1.5-0.2c0.1,0,0.1,0,0.2,0c3.4-0.5,6.7-1.4,9.9-2.8c0,0,0,0,0.1,0   c3.2-1.4,6.4-3.2,9.3-5.4l0,0c3-2.2,5.8-4.8,8.3-7.8c0,0,0,0,0,0c-5.8,3.6-12.4,5.8-18.2,6.7c-5.3,0.8-10.4,0.5-15.3-0.8l0,0   c-0.2-0.1-0.4-0.1-0.6-0.1l0,0c-5.4-1.5-10.5-4.2-15.2-7.8c-1.5-1.1-3-2.3-4.4-3.6c0,0,0,0,0,0c-1.7-1.4-3.4-2.9-5-4.5c0,0,0,0,0,0   c-1.4-1.4-2.8-2.8-4.2-4.2c-2.1-2.2-4-4.5-5.9-6.9c0,0,0,0,0,0c-0.7-0.9-1.4-1.8-2.1-2.8l0,0c0,0,0,0,0,0c0.1,0.9,0.2,1.7,0.3,2.6   c0,0,0,0,0,0c0.2,1.4,0.4,2.8,0.7,4.1c0,0.1,0,0.2,0.1,0.3c0.5,2.1,1.1,4.2,1.8,6.2c0.1,0.2,0.1,0.3,0.2,0.5c0.7,2,1.6,3.9,2.5,5.7   c0.1,0.2,0.2,0.4,0.3,0.6c0.1,0.2,0.2,0.3,0.3,0.5c0.5,0.8,0.9,1.6,1.4,2.4c-0.5-0.8-1-1.6-1.5-2.4c-0.2,0.7-0.5,1.4-0.8,2   c-0.4,0.8-0.8,1.7-1.2,2.5l0,0c-0.1,0.5-0.2,0.9-0.4,1.4c-0.3,0.2-0.6,0.4-0.9,0.6c-3,2-7.5,4-11.4,1c0,0-7-8.1-19.1-16.9   c0,0,0,0,0,0c-12.9-9.4-31.5-19.5-53.5-21.3c-20.3-1.7-33.5,3.4-41.8,9.3c-9.2,6.4-12.4,13.7-12.4,13.7s1.4,3.2,2.1,8.1   c0.6,3.8,0.8,8.6-0.4,13.7c-0.8,3.3-2.1,6.7-4.4,10c-0.4,0.6-0.9,1.2-1.4,1.8c-0.9,1.2-1.9,2.4-2.8,3.6c-2.8,3.3-5.8,6.3-8.6,8.8   c-2.4,2.1-4.6,3.9-6.5,5.3c0,0,0,0,0,0c0.4,0,0.9,0.1,1.3,0.1c0,0,0,0,0.1,0c0.5,0,0.9,0,1.4-0.1c0.5,0,1-0.2,1.7-0.4   c0.3-0.1,0.7-0.2,1-0.4c1.1-0.5,2.3-1.1,3.6-1.9c0.4-0.2,0.8-0.5,1.3-0.7c1.4-0.9,3-1.9,4.6-3c2.3-1.6,4.8-3.4,7.2-5.1   c0.8-0.6,1.6-1.2,2.3-1.8c0.5-0.4,1.1-0.9,1.6-1.3c0,0,0,0,0,0c0,0,0,0,0,0c0.7,0.3,1.5,0.6,2.2,0.9l0,0l0.6-3.7l0,0c0,0,0,0,0,0   c0,0,0,0,0,0l0,0c0.4-0.5,0.9-1,1.3-1.6c0.4-0.5,0.8-1.1,1.2-1.7c0.5-0.8,1.1-1.6,1.5-2.4c0.7-1.2,1.2-2.4,1.8-3.6   c0.1-0.2,0.2-0.4,0.3-0.6c0.5-1.3,1-2.6,1.4-3.9c0.2-0.7,0.4-1.4,0.5-2.2c0-0.2,0.1-0.3,0.1-0.5c0,0,0,0,0-0.1   c0.2-0.9,0.3-1.8,0.4-2.7c0-0.2,0-0.4,0.1-0.6c0-0.3,0.1-0.5,0.1-0.8c0-0.2,0-0.4,0-0.6c0-0.4,0.1-0.9,0.1-1.3c0-0.1,0-0.2,0-0.4   c0-0.1,0-0.2,0-0.3c0-0.4,0-0.9,0-1.3c0-0.2,0-0.4,0-0.6c0,0,0,0,0,0c0-0.6-0.1-1.3-0.1-1.9l0,0c0,0,0,0,0,0l-0.7-6.4   c0.8-0.4,1.7-0.9,2.5-1.3c0,0,0,0,0,0c0.9-0.4,1.7-0.9,2.6-1.3c0,0,0,0,0,0c3.6-1.7,7.5-3.3,11.6-4.6c0.2-0.1,0.3-0.1,0.5-0.2   c0.8-0.3,1.6-0.5,2.5-0.7c0.3-0.1,0.6-0.2,0.9-0.3c0.7-0.2,1.4-0.4,2.1-0.5c0.4-0.1,0.8-0.2,1.1-0.3c0.7-0.1,1.3-0.3,2-0.4   c0.4-0.1,0.8-0.2,1.3-0.2c0.6-0.1,1.3-0.2,1.9-0.3c0.4-0.1,0.9-0.1,1.3-0.2c0.6-0.1,1.2-0.1,1.9-0.2c0.5,0,0.9-0.1,1.4-0.1   c0.6,0,1.2-0.1,1.9-0.1c0.5,0,0.9,0,1.4-0.1c0.6,0,1.3,0,1.9,0c0.5,0,0.9,0,1.4,0c0.7,0,1.3,0.1,2,0.1c0.4,0,0.9,0.1,1.3,0.1   c0.7,0.1,1.4,0.2,2.2,0.3c0.4,0.1,0.7,0.1,1.1,0.2c1.1,0.2,2.2,0.4,3.2,0.7c0,0,0,0,0,0c4.3,1,8.5,2.4,12.6,4.1   c2.7,1.1,5.4,2.3,7.9,3.7c2.6,1.3,5.1,2.7,7.5,4.2c1.5,0.9,3,1.8,4.4,2.8c0.9,0.6,1.7,1.1,2.6,1.7c0.7,0.5,1.4,1,2.1,1.5   c1.3,0.9,2.6,1.8,3.8,2.8c1.1,0.9,2.3,1.7,3.3,2.5c0.9,0.7,1.9,1.5,2.7,2.2c2.6,2.2,5,4.2,7,6c1.4,1.3,3.1,2.2,4.8,2.5   c0.7,0.2,1.4,0.2,2.1,0.3c0.7,0,1.4,0,2.2-0.2c0.2,0,0.5-0.1,0.7-0.2l0,0c-2.7,2.4-5.4,4.7-8.2,7c-1.6,1.3-3.2,2.6-4.7,3.8   c-2.9,2.3-5.9,4.5-8.9,6.7c-3.1,2.3-6.2,4.5-9.3,6.6c-1.6,1.1-3.1,2.1-4.7,3.2c-6.1,4.1-12.4,8-18.7,11.7l0,0   c17.5,5.9,39.1,14,60.3,22.2l32.7-29.4c0.1,0,0.1-0.1,0.1-0.1c0.5-0.4,1-0.9,1.4-1.4c-0.5,0.5-0.9,0.9-1.4,1.4   c0.5-0.4,1-0.9,1.4-1.4l0,0l0,0c-0.5,0.5-0.9,0.9-1.4,1.4c16.8,10.5,48.5,27.6,72.8,24.9c25-2.8,48.6-35.2,59.8-53.1   c8.2,2.2,16.8,2.2,22.1-4.8C484.9,174.4,486.7,169.1,487.3,166z M110.1,177.3c0,0-0.3-0.8-0.6-2.2c-8.7,1-18.6,2.9-29.7,6.1   C33.5,194.6,2.2,230.3,14,252.9c0.3,0.6,0.6,1.2,1,1.8c0,0,0,0.1,0.1,0.1c0.1,0.2,0.2,0.3,0.3,0.5c0,0,0,0.1,0.1,0.1   c0.2,0.3,0.4,0.6,0.6,1c0,0.1,0.1,0.1,0.1,0.2c0.1,0.2,0.2,0.3,0.3,0.5c0,0.1,0.1,0.1,0.1,0.2c0.1,0.2,0.3,0.5,0.4,0.7   c0.1,0.1,0.2,0.2,0.2,0.3c0.1,0.1,0.2,0.3,0.3,0.4c0.1,0.1,0.1,0.2,0.2,0.3c0.1,0.2,0.2,0.3,0.4,0.5c0.1,0.1,0.2,0.3,0.3,0.4   c0.1,0.1,0.2,0.2,0.2,0.3c0.1,0.1,0.2,0.2,0.3,0.3c0.1,0.1,0.2,0.2,0.3,0.3c0.2,0.2,0.3,0.4,0.5,0.6c0,0,0,0,0.1,0.1c0,0,0,0,0,0.1   c0.1,0.1,0.1,0.1,0.2,0.2c0.1,0.1,0.2,0.2,0.3,0.3c0,0,0.1,0.1,0.1,0.1c0.2,0.2,0.3,0.3,0.5,0.5c0.1,0.1,0.2,0.2,0.3,0.3   c0.1,0.1,0.1,0.1,0.2,0.2c0.1,0.1,0.3,0.3,0.4,0.4c0.1,0.1,0.2,0.1,0.2,0.2c0.1,0.1,0.1,0.1,0.2,0.2c0,0,0,0,0,0l0,0   c-0.8-8.7,6.4-33.9,24.8-53.8c13.8-15,35.7-22.7,58.8-23.8C107.6,181.1,110.1,177.3,110.1,177.3z M462.5,135.2   c3.5-4.4,6.9-16.6,4.3-19.7c-2.6-3-11.7-4.7-11.7-4.7s-10,12.6-5.3,25.4C449.9,136.2,459,139.5,462.5,135.2z M278.3,90.8   c-4.2,0.8-9.2,3.1-10,10.7c-1.2,11.5,11,10.6,13.5,10.3c0.3,0,0.5-0.1,0.5-0.1s-0.2,0-0.5,0.1c-2.3,0.3-12.4,2.3-13.5,9.9   c-1.2,8.6,14.2,6.4,14.2,6.4s-3.8,2.5-2.5,6c0.5,1.5,6,2,11.8,2.1c0.1-1.3,0.2-2.6,0.4-3.9c-6.8-4.6-9.5-14.8-5.9-24.1   c3.9-10.2,13.9-15.4,22.2-11.7c0,0,0,0,0,0c0.6,0.3,1.2,0.6,1.7,0.9c0,0,9.9,3.1,6,22.9c0,0,1.2-0.3,3.2-0.9   c7.4-2.2,25.4-7.9,28.7-12.5c4.2-5.7-0.5-7.6-0.5-7.6l22.8,6.6l0.1,0c0,0,3.2-29.3-22-43.6c-25.3-14.3-24.7,0.2-18.7,6.3   c0,0-18.8-15.6-31.7-12c-12.9,3.6,1.6,14.6,1.6,14.6s-19.4-5.1-25.7,5.2C269.6,83.8,274.8,88.6,278.3,90.8z M302.7,114.6   c0.6-1.5,1.6-2.6,2.9-3.3c1.2-0.7,2.6-0.6,3.8-0.2c0.7,0.3,1.4,0.9,1.9,1.7c-0.3-3.9-2.3-7.3-5.6-8.8c-4.9-2.2-10.8,0.9-13.1,6.9   c-2.3,6-0.3,12.7,4.7,15c3.9,1.7,8.3,0.2,11.2-3.5c-1.1,0.5-2.4,0.4-3.4,0c-1.2-0.4-2.2-1.8-2.6-3.1c-0.4-1.4-0.4-3.1,0.2-4.5   L302.7,114.6z M379.7,157.7c0.3,0.1,0.6,0.3,0.9,0.4c0.3,0.1,0.6,0.2,0.9,0.2c0.6,0.1,1.3,0.2,1.9,0.1c1.3-0.1,2.5-0.4,3.7-1.1   c0.6-0.3,1.2-0.7,1.7-1.1c0.5-0.4,1.1-0.9,1.5-1.5c0.2-0.3,0.5-0.6,0.7-0.9c0.3-0.4,0.6-0.8,0.8-1.3c0.1-0.1,0.1-0.2,0.2-0.3   c0.2-0.5,0.5-0.9,0.7-1.4l0,0c0,0,0,0,0,0c0.1-0.4,0.3-0.7,0.4-1.1c0.1-0.3,0.2-0.6,0.2-0.9c0-0.1,0-0.1,0.1-0.2   c0.2-0.7,0.2-1.5,0.3-2.2c0,0,0,0,0,0v0c-0.6,1.5-1.8,2.9-3.9,3.5c-4.8,1.3-16.6-5.7-16.6-5.7s0.4,4.8-0.7,10.3L379.7,157.7z    M115.2,245.2c0.5,0.5,0.8,0.9,1.1,1.4c0.8,1.3,0.8,2.4,0.1,3.7c0,0,1.5-1.1,1-3.2c-0.1-0.2-0.2-0.5-0.3-0.7   c-0.9-1.8-3.7-3.6-5.8-3.6c-1.4,0-2.5,0.5-2.5,0.5S113.3,243.2,115.2,245.2z M102.4,238.8c2.3,1.4,2.8,2.6,2.2,4.5   c0,0,1.3-1.5,0.4-3.3c-0.9-1.8-4.6-3.1-6.9-2.5c-1.4,0.4-2.3,1.2-2.3,1.2S100.2,237.5,102.4,238.8z M92.4,238.9   c0,0,0.9-1.8-0.3-3.3c-1.3-1.4-5.2-1.4-7.4-0.1c-1.3,0.8-2,1.9-2,1.9s4-2.6,6.6-2C91.8,236,92.5,236.9,92.4,238.9z M79,238.1   c0,0,0.8-1.9-0.6-3.2c-1.4-1.3-5.3-0.9-7.4,0.7c-1.2,0.9-1.9,2.1-1.9,2.1s3.9-3,6.5-2.7C78.1,235.3,79,236.2,79,238.1z    M348.1,419.5c-0.8-2.3-0.9-6,1.3-7.5c2.2-1.6,5.3,0.3,6.8,2c0.1,0.2,0.3,0.3,0.4,0.5l0.4-2.3c0,0,0,0,0,0c0-0.4,0-0.8,0-1.2   c-1-3.4-3.9-9.7-11.4-8.8c-0.2,0-0.5,0.1-0.7,0.1c-9.3,2-9,17.2,1.1,24.7c3.1,2.3,5.2,4.8,6.7,7l1.5-7.9   C351.8,424.7,349.3,422.8,348.1,419.5z M452.1,429.6c3.6-3.7,13-28.3,15.1-33.2c-1.7-0.5-3.4-1-5-1.5v0   c-1.7,6.2-12.6,26.9-18.7,33.1c2.6,1,5.2,2,7.9,2.7C451.5,430.3,451.7,430,452.1,429.6z M475.1,432.6c3.1-5.2,9-27,10.7-33.4   c-2.4,0-4.8-0.2-7.3-0.5c-1.4,7.2-8.9,27.1-13.9,34.3C468.1,433.2,471.6,433.1,475.1,432.6z M430.2,382.6c-0.1,0.1-0.1,0.1-0.2,0.2   l-8.6,8.8c-0.2,0.2-0.4,0.4-0.6,0.5c-0.1,0.1-0.1,0.1-0.2,0.2c-0.1,0.1-0.3,0.2-0.4,0.4c-0.1,0.1-0.2,0.1-0.3,0.2   c-0.1,0.1-0.3,0.2-0.4,0.3c-0.1,0.1-0.2,0.1-0.3,0.2c-0.2,0.1-0.3,0.2-0.5,0.3c-0.1,0.1-0.2,0.1-0.3,0.2c-0.2,0.1-0.3,0.2-0.5,0.3   c-0.1,0.1-0.2,0.1-0.3,0.2c-0.2,0.1-0.4,0.2-0.6,0.3c-0.1,0.1-0.2,0.1-0.3,0.2c-0.2,0.1-0.4,0.2-0.6,0.3c-0.1,0.1-0.2,0.1-0.3,0.2   c-0.2,0.1-0.5,0.2-0.7,0.4c-0.1,0.1-0.2,0.1-0.3,0.2c-0.3,0.1-0.5,0.3-0.8,0.4c-0.1,0-0.1,0.1-0.2,0.1c-0.3,0.2-0.7,0.3-1,0.5   c0,0,0,0-0.1,0c-0.7,0.3-1.5,0.7-2.3,1c-0.1,0.1-0.3,0.1-0.4,0.2c-0.8,0.3-1.6,0.6-2.4,0.9c-0.8,0.3-1.6,0.6-2.5,0.9c0,0,0,0,0,0   c2.4,3,5,5.7,7.7,8.3c3.7-2.2,12.9-12.5,18.8-19.3c2.2-2.6,4-4.6,4.8-5.6l0,0c-0.9-0.5-1.7-1-2.4-1.4c-0.2-0.1-0.5-0.3-0.8-0.3   c-0.3-0.1-0.5-0.1-0.8-0.1c-0.7,0-1.5,0.3-2.1,0.8C430.4,382.4,430.3,382.5,430.2,382.6z M491,426.8c10.7-6.8,17.7-19.8,18.2-34.9   c0,0,0,0,0,0c0,0,0,0,0,0c0,0-0.1,0-0.1,0.1c-0.9,0.6-1.9,1.2-2.8,1.8c-2.6,1.7-5.4,2.9-8.4,3.8C497.9,402,494.6,416.5,491,426.8z    M428.8,412c-1.9,1.9-3.8,3.6-5.4,4.8c2.6,1.8,5.3,3.6,8.1,5.3c0.1-0.1,0.2-0.2,0.4-0.3c4.2-3.2,17.8-28.4,19.4-31l0,0   c-1.6-0.7-3.1-1.4-4.5-2l0,0c-0.3,2-5.7,9.4-11.6,16.3C433.1,407.5,430.9,409.9,428.8,412z M582.8,435.1c0.3-1.4,0.5-2.7,0.7-4.1   c0.4-3.4,0.4-6.7,0.1-9.9c-0.4-3.9-1.5-7.6-3.1-11.1c-0.5-1-1-2-1.4-3c0-0.1-0.1-0.1-0.1-0.2c-0.1-0.3-0.3-0.5-0.4-0.8   c0-0.1-0.1-0.1-0.1-0.2c-0.3-0.5-0.6-1.1-0.9-1.6c-0.1-0.1-0.1-0.2-0.2-0.4c-0.2-0.3-0.3-0.5-0.5-0.8c-0.1-0.1-0.1-0.2-0.2-0.3   c-0.2-0.4-0.4-0.8-0.7-1.1c-0.1-0.2-0.2-0.4-0.3-0.5c-0.1-0.2-0.3-0.4-0.4-0.7c-0.1-0.1-0.2-0.3-0.3-0.4c-0.2-0.3-0.4-0.5-0.5-0.8   c-0.2-0.2-0.3-0.5-0.5-0.7c-0.1-0.2-0.2-0.3-0.3-0.5c-0.1-0.2-0.3-0.4-0.4-0.5c-0.1-0.2-0.3-0.4-0.4-0.5c-0.3-0.3-0.5-0.7-0.8-1   c0,0-0.1-0.1-0.1-0.1l0,0c-0.3-0.3-0.5-0.6-0.8-1l0,0c-0.1-0.1-0.1-0.1-0.2-0.2c-0.2-0.3-0.5-0.6-0.8-0.9c-0.2-0.2-0.3-0.4-0.5-0.6   c-0.1-0.1-0.2-0.2-0.3-0.3c-0.2-0.2-0.4-0.4-0.6-0.6c-0.1-0.1-0.2-0.2-0.3-0.4c-0.1-0.1-0.2-0.2-0.3-0.4c0,0,0,0,0,0v0   c0.7,14.4-12.3,56.2-42.7,89c-42.3,45.7-126.7,49.1-185.5,20.7L336,521c0,0,0.9,0.9,2.8,2.2c0.4,0.3,0.8,0.6,1.3,0.9   c1.6,1.1,3.7,2.3,6.3,3.7c1.1,0.6,2.4,1.2,3.7,1.8c0.9,0.4,1.8,0.8,2.8,1.2c1,0.4,2,0.8,3.1,1.2c0.5,0.2,1.1,0.4,1.6,0.6   c1.1,0.4,2.3,0.8,3.5,1.1c0.6,0.2,1.2,0.4,1.8,0.5c1.2,0.4,2.5,0.7,3.9,1c4.7,1.2,10,2.2,15.9,2.8c2.5,0.3,5.2,0.5,8,0.7   c0.9,0.1,1.9,0.1,2.8,0.2c3.8,0.2,7.8,0.2,12,0.1c1.1,0,2.1-0.1,3.2-0.1c2.2-0.1,4.4-0.2,6.7-0.4c3.4-0.2,6.9-0.6,10.6-1   c1.2-0.1,2.5-0.3,3.7-0.5c3.1-0.4,6.3-0.9,9.6-1.5c3.3-0.6,6.7-1.2,10.2-2c3.5-0.7,7.1-1.6,10.7-2.5c3.7-0.9,7.4-1.9,11.3-3   c2.1-0.6,4.2-1.2,6.2-1.9c0.6-0.2,1.2-0.4,1.8-0.6c0.4-0.1,0.8-0.3,1.2-0.4c1.1-0.4,2.2-0.8,3.3-1.1c0.6-0.2,1.2-0.4,1.8-0.6   c2-0.7,4-1.5,6-2.3c2.2-0.9,4.3-1.8,6.5-2.7c9.6-4.2,18.6-9,26.9-14.2c1.8-1.2,3.7-2.3,5.4-3.5c3.6-2.4,7-4.9,10.2-7.4   c3.3-2.5,6.4-5.2,9.3-7.8c2.2-2,4.3-4,6.3-6.1c2-2,3.9-4.1,5.8-6.2c2.4-2.8,4.7-5.6,6.7-8.4c0.5-0.7,1-1.4,1.5-2.1   c1-1.4,1.9-2.8,2.8-4.2c1.3-2.1,2.5-4.3,3.6-6.4c0.7-1.4,1.4-2.8,2-4.2c0.9-2.1,1.7-4.2,2.4-6.3   C581.9,439.3,582.4,437.2,582.8,435.1z M406.9,413.2c0.1,0.7,0.4,1.5,0.8,2.2c1.8,3.1,5.9,6.1,9.1,6.5c2.4,0.3,4.3-0.5,4.3-0.5   s-7.6-0.8-10.6-4.6c-0.5-0.6-0.9-1.1-1.2-1.7c-1.8-2.9-1.8-4.9-0.3-7.3C409.1,407.8,406.3,409.5,406.9,413.2z M427.5,427.8   c1.3,3.4,7.5,6.2,11.6,5.5c2.4-0.4,4.2-1.6,4.2-1.6s-7.7,1.3-11.4-1.5c-3.7-2.8-4.4-4.9-3.2-8.1   C428.6,422.1,426.2,424.4,427.5,427.8z M449.1,432c0,0-1.8,3,0.2,5.7c2,2.7,8.8,3.4,12.7,1.5c2.3-1.1,3.8-2.9,3.8-2.9   s-7.3,3.7-11.6,2.3C449.8,437.1,448.6,435.3,449.1,432z M472.1,435.8c0,0-1.6,3.1,0.6,5.6c2.2,2.5,9.1,2.5,12.9,0.2   c2.2-1.4,3.6-3.2,3.6-3.2s-7.1,4.4-11.5,3.4C473.2,440.8,471.9,439.2,472.1,435.8z" fill="#000000" originalFill="#000000"/>
</g>
</svg>