<svg xmlns="http://www.w3.org/2000/svg" xmlns:xlink="http://www.w3.org/1999/xlink" version="1.1" id="svg-edited-version" x="0px" y="0px" viewBox="0 0 595.3 595.3" enable-background="new 0 0 595.3 595.3" xml:space="preserve" class="injected-svg" data-src="https://preview.pixlr.com/images/svg/100/1/8bce24cbf1e41fd0cde1cd561c8ec5153bebe8407e0a1795548e3e455879b917.svg">
<g>
	<path fill="#FFFFFF" d="M371.8,439.9c0,0-0.1,0-0.1-0.1c-5.9-2.4-14.6,5.2-19.6,17.1c-4.9,11.7-4.3,23.1,1.3,25.8   c0.1,0,0.2,0.1,0.3,0.1c5.9,2.4,14.6-5.2,19.6-17.1C378.2,454,377.5,442.5,371.8,439.9z M354,457.7c2.8-6.7,7-11.7,11-13.6   c0.5,4-0.3,9.3-2.6,14.7c-2.8,6.7-7,11.7-11,13.6C350.9,468.4,351.7,463.1,354,457.7z M386.4,430.2c-3.2-3.2-7.5-2-7.8,0.9   s-3,0.4-3,3.4c0,3-1.6,5.2-1.6,5.2l0,0c-1.1-0.7-1.5-2.1-1-3.4c0.6-1.5,0.9-3.5-0.6-5.1c-2.7-3,3.6-3.2,1.2-5.5   c-2.3-2.3-7.6-0.4-7.6-0.4C381.3,415.3,386.4,430.2,386.4,430.2z M361.5,496.2c0,0-5.7,5.5-12.1,5c-6.4-0.5-9.4-6.9-9.4-6.9   s6.2,3,6.6-1.6s5.5-2.7,3.9-5.9c-0.9-1.8-0.9-2.8-0.8-3.5c0.1-0.5,0-1-0.3-1.5c-0.9-1.4-1-3.2-1-3.2c2.7,5.7,9.1,6.9,9.1,6.9   c-2.5,1.6-5,0-6.2-0.7c-1.2-0.7,1.4,2.3,2.3,5.2c0.9,2.8-3-0.7-2.1,2.1c0.9,2.8-3.4,2,0.2,4.6C355.1,499.4,361.5,496.2,361.5,496.2   z M541.7,230.5C541.7,230.5,541.7,230.4,541.7,230.5c-2.5-0.3-5.4,4.5-6.5,10.6c-1.1,6-0.1,11.1,2.2,11.6c0,0,0.1,0,0.1,0   c2.4,0.3,5.3-4.5,6.4-10.6C545.1,235.9,544.1,230.8,541.7,230.5z M536,241.2c0.6-3.4,1.9-6.4,3.3-7.8c0.5,1.8,0.5,4.3,0,7.1   c-0.6,3.4-1.9,6.4-3.3,7.8C535.5,246.5,535.5,243.9,536,241.2z M546.7,223.9c-1.5-1-3,0.2-3,1.5c0.1,1.3-1.1,0.6-0.9,2   c0.2,1.4-0.3,2.6-0.3,2.6l0,0c-0.5-0.2-0.7-0.8-0.6-1.4c0.1-0.7,0.1-1.7-0.6-2.3c-1.2-1,1.2-2,0.1-2.7c-1-0.7-3,0.9-3,0.9   C543.7,217.8,546.7,223.9,546.7,223.9z M541.5,257.6c0,0-1.8,3.3-4.3,4c-2.5,0.7-4.1-1.8-4.1-1.8s2.6,0.5,2.4-1.7   c-0.2-2.2,2-2,1.1-3.2c-0.5-0.7-0.5-1.2-0.5-1.5c0-0.3-0.1-0.5-0.2-0.6c-0.5-0.5-0.6-1.3-0.6-1.3c1.4,2.2,4,1.8,4,1.8   c-0.9,1.1-1.9,0.7-2.5,0.6c-0.5-0.1,0.7,0.8,1.2,2c0.5,1.2-1.2,0.1-0.7,1.3c0.5,1.2-1.2,1.4,0.4,2.1   C539.3,260,541.5,257.6,541.5,257.6z M246.6,346.2c-0.1,1.6-2.5,2.8-5.4,2.6c-2.9-0.2-5.2-1.6-5.1-3.2c0.1-1.6,2.5-2.8,5.4-2.6   C244.4,343.1,246.6,344.6,246.6,346.2z M275.3,317.9c-0.1,1.3-2.1,2.3-4.4,2.1c-2.4-0.1-4.3-1.3-4.2-2.6c0.1-1.3,2.1-2.3,4.4-2.1   C273.5,315.4,275.4,316.6,275.3,317.9z M189.5,316.3c-0.1,1.6-2.5,2.8-5.4,2.6c-2.9-0.2-5.2-1.6-5.1-3.2c0.1-1.6,2.5-2.8,5.4-2.6   C187.3,313.3,189.6,314.7,189.5,316.3z M228.4,297.2c-0.1,1.3-2,2.2-4.3,2.1c-2.3-0.1-4.2-1.3-4.1-2.5c0.1-1.3,2-2.2,4.3-2.1   C226.6,294.8,228.5,295.9,228.4,297.2z M479.5,195.4c-0.1,1.2-1.9,2-4,1.9c-2.1-0.1-3.8-1.2-3.8-2.4c0.1-1.2,1.9-2,4-1.9   S479.6,194.3,479.5,195.4z M500.8,174.6c-0.1,1-1.5,1.7-3.3,1.6c-1.8-0.1-3.1-1-3.1-1.9c0.1-1,1.5-1.7,3.3-1.6   C499.4,172.7,500.8,173.6,500.8,174.6z M437.4,173.4c-0.1,1.2-1.9,2-4,1.9c-2.1-0.1-3.8-1.2-3.8-2.4c0.1-1.2,1.9-2,4-1.9   C435.8,171.1,437.5,172.2,437.4,173.4z M466.1,159.3c-0.1,0.9-1.5,1.6-3.2,1.5c-1.7-0.1-3.1-0.9-3-1.9s1.5-1.6,3.2-1.5   C464.8,157.5,466.2,158.3,466.1,159.3z" originalFill="#FFFFFF"/>
	<path fill="#3B3B3B" d="M574.7,137.6c1-15-8.8-29.7-24.9-33.2l-52.4-11.6l-0.1,0c-3.2-0.7-6.4-0.9-9.5-0.6c-0.3,0-0.5,0-0.8,0.1   c-0.1,0-0.2,0-0.3,0c-7.3,0.9-14.3,4.3-19.4,9.9c-0.4,0.4-0.7,0.8-1.1,1.2c-33.8,35.9-75.3,63.7-121.3,81.4   c-65.4,25.2-166.2,64.7-237.7,95.7c-8.1,3.5-15.9,6.9-23.2,10.2c-25.2,11.3-44.8,20.9-54.7,27.4c-6.8,4.5-9.3,13.3-8.8,23.7   c-0.1,1.3-0.1,2.6,0,3.9c0,0.9,0.1,1.9,0.2,2.9c1.6,19.1,12.1,43.1,23.5,56.5c18.1,21.4,115.6,70.4,197.9,57.7   c8.9-1.4,19.2-5.2,30.3-10.8c21.5-11,46.3-29,71.9-50.3c60.2-50.3,124.6-118.9,159.2-157.3c4.9-5.4,9.2-10.2,12.8-14.3   c3.9-4.4,7.6-8.8,11.3-13.3c5.2-6.3,10.2-12.8,15-19.4c8.9-12.1,20.2-28.3,27.9-41.4c2.2-3.7,3.5-7.7,4-11.6   c0.1-0.9,0.2-1.8,0.3-2.7C574.8,140.3,574.8,138.9,574.7,137.6z M220,296.7c0.1-1.3,2-2.2,4.3-2.1c2.3,0.1,4.2,1.3,4.1,2.5   c-0.1,1.3-2,2.2-4.3,2.1C221.7,299.2,219.9,298,220,296.7z M236,345.6c0.1-1.6,2.5-2.8,5.4-2.6c2.9,0.2,5.2,1.6,5.1,3.2   s-2.5,2.8-5.4,2.6C238.2,348.6,235.9,347.2,236,345.6z M266.7,317.4c0.1-1.3,2.1-2.3,4.4-2.1c2.4,0.1,4.3,1.3,4.2,2.6   c-0.1,1.3-2.1,2.3-4.4,2.1C268.5,319.9,266.6,318.8,266.7,317.4z M494.4,174.2c0.1-1,1.5-1.7,3.3-1.6c1.8,0.1,3.1,1,3.1,1.9   c-0.1,1-1.5,1.7-3.3,1.6C495.7,176.1,494.3,175.2,494.4,174.2z M479.5,195.4c-0.1,1.2-1.9,2-4,1.9c-2.1-0.1-3.8-1.2-3.8-2.4   c0.1-1.2,1.9-2,4-1.9S479.6,194.3,479.5,195.4z M437.4,173.4c-0.1,1.2-1.9,2-4,1.9c-2.1-0.1-3.8-1.2-3.8-2.4c0.1-1.2,1.9-2,4-1.9   C435.8,171.1,437.5,172.2,437.4,173.4z M463.1,157.4c1.7,0.1,3.1,0.9,3,1.9s-1.5,1.6-3.2,1.5c-1.7-0.1-3.1-0.9-3-1.9   S461.4,157.3,463.1,157.4z M179,315.7c0.1-1.6,2.5-2.8,5.4-2.6c2.9,0.2,5.2,1.6,5.1,3.2c-0.1,1.6-2.5,2.8-5.4,2.6   C181.2,318.7,178.9,317.3,179,315.7z" originalFill="#3B3B3B"/>
	<path fill="#ED1C24" d="M380.1,420.5c-3.3-1.8-16.1-8.5-29.4-15.6c-27.2,23.2-53.8,43-76.7,54.9c1.5,4.4,4.1,7.6,7.6,9.1   c11.2,4.7,63.4,33.2,63.4,33.2l0-0.1c0.2,0.1,0.4,0.2,0.6,0.3c11.2,4.7,27.9-9.9,37.3-32.5C392.3,447.4,391,425.4,380.1,420.5z    M349.4,501.1c-6.4-0.5-9.4-6.9-9.4-6.9s6.2,3,6.6-1.6s5.5-2.7,3.9-5.9c-0.9-1.8-0.9-2.8-0.8-3.5c0.1-0.5,0-1-0.3-1.5   c-0.9-1.4-1-3.2-1-3.2c2.7,5.7,9.1,6.9,9.1,6.9c-2.5,1.6-5,0-6.2-0.7c-1.2-0.7,1.4,2.3,2.3,5.2c0.9,2.8-3-0.7-2.1,2.1   c0.9,2.8-3.4,2,0.2,4.6c3.6,2.7,10-0.5,10-0.5S355.8,501.7,349.4,501.1z M373.3,465.8c-5,11.9-13.7,19.5-19.6,17.1   c-0.1,0-0.2-0.1-0.3-0.1c-5.6-2.7-6.2-14.1-1.3-25.8c5-11.9,13.7-19.5,19.6-17.1c0,0,0.1,0,0.1,0.1   C377.5,442.5,378.2,454,373.3,465.8z M378.6,431.1c-0.4,2.8-3,0.4-3,3.4c0,3-1.6,5.2-1.6,5.2l0,0c-1.1-0.7-1.5-2.1-1-3.4   c0.6-1.5,0.9-3.5-0.6-5.1c-2.7-3,3.6-3.2,1.2-5.5c-2.3-2.3-7.6-0.4-7.6-0.4c15.3-10,20.4,5,20.4,5   C383.2,427,378.9,428.3,378.6,431.1z M364.9,444.1c0.5,4-0.3,9.3-2.6,14.7c-2.8,6.7-7,11.7-11,13.6c-0.5-4,0.3-9.3,2.6-14.7   C356.7,451.1,361,446,364.9,444.1z M107.2,280.5c-8.1,3.5-15.9,6.9-23.2,10.2C91.9,282.1,100.5,277.9,107.2,280.5z M543.6,220.4   c-1.2-0.3-5.4-1.2-10.1-2.3c-5.6,7.1-11.3,14-17.3,20.8c-3.3,3.8-7.3,8.2-11.7,13.1c0.9,2.9,2.4,4.7,4.3,4.9   c4.6,0.5,26.8,5.9,26.8,5.9l0,0c0.1,0,0.2,0,0.2,0c4.6,0.5,10.1-8.6,12.2-20.3C550.1,230.9,548.1,221,543.6,220.4z M537.2,261.6   c-2.5,0.7-4.1-1.8-4.1-1.8s2.6,0.5,2.4-1.7c-0.2-2.2,2-2,1.1-3.2c-0.5-0.7-0.5-1.2-0.5-1.5c0-0.3-0.1-0.5-0.2-0.6   c-0.5-0.5-0.6-1.3-0.6-1.3c1.4,2.2,4,1.8,4,1.8c-0.9,1.1-1.9,0.7-2.5,0.6c-0.5-0.1,0.7,0.8,1.2,2c0.5,1.2-1.2,0.1-0.7,1.3   c0.5,1.2-1.2,1.4,0.4,2.1c1.6,0.7,3.8-1.7,3.8-1.7S539.7,260.9,537.2,261.6z M544,242c-1.1,6.1-4,10.9-6.4,10.6c0,0-0.1,0-0.1,0   c-2.3-0.4-3.3-5.5-2.2-11.6c1.1-6.1,4-10.9,6.4-10.6c0,0,0,0,0.1,0C544.1,230.8,545.1,235.9,544,242z M543.7,225.4   c0.1,1.3-1.1,0.6-0.9,2c0.2,1.4-0.3,2.6-0.3,2.6l0,0c-0.5-0.2-0.7-0.8-0.6-1.4c0.1-0.7,0.1-1.7-0.6-2.3c-1.2-1,1.2-2,0.1-2.7   c-1-0.7-3,0.9-3,0.9c5.2-6.8,8.2-0.7,8.2-0.7C545.3,222.9,543.7,224.1,543.7,225.4z M539.3,233.4c0.5,1.8,0.5,4.3,0,7.1   c-0.6,3.4-1.9,6.4-3.3,7.8c-0.5-1.8-0.5-4.3,0-7.1C536.6,237.7,537.9,234.8,539.3,233.4z" originalFill="#ED1C24"/>
	<path fill="#C78337" d="M574.6,145.9c0-0.5-0.1-1.1-0.2-1.6c-0.6,3.9-1.9,7.9-4,11.6c-7.7,13.2-19,29.3-27.9,41.4   c-4.8,6.6-9.8,13.1-15,19.4c-3.7,4.5-7.4,8.9-11.3,13.3c-3.6,4.1-7.9,8.9-12.8,14.3c-34.6,38.3-99,107-159.2,157.3   c-25.6,21.4-50.4,39.4-71.9,50.3c-11.1,5.7-21.3,9.5-30.3,10.8C159.8,475.4,62.4,426.5,44.2,405c-11.4-13.4-21.9-37.3-23.5-56.5   c0,0.5-0.1,1-0.1,1.4c-1.1,20,10.7,48.6,23.6,63.9c18.1,21.4,115.6,70.4,197.9,57.7c9.4-1.4,20.1-5.5,31.9-11.7   c22.9-12,49.5-31.8,76.7-54.9c58.9-50.2,120.7-116.3,153.8-153c4.4-4.9,8.4-9.3,11.7-13.1c6-6.7,11.7-13.7,17.3-20.8   c3.1-3.9,6.1-7.9,9.1-11.9c8.9-12.1,20.2-28.3,27.9-41.4C573.9,158.7,575.2,152.2,574.6,145.9z" originalFill="#C78337"/>
	<path opacity="0.2" d="M350.6,404.9c13.3,7,26.1,13.8,29.4,15.6c-0.1,0-0.2-0.1-0.2-0.1c-11.2-4.7-27.9,9.9-37.3,32.5   c-9.3,22.2-8.1,44,2.5,49.2l0,0.1c0,0-52.2-28.5-63.4-33.2c-3.5-1.5-6.1-4.7-7.6-9.1C296.9,447.9,323.4,428.1,350.6,404.9z    M370.2,443.8c0,0-0.1,0-0.1-0.1c-1.5-0.6-3.3-0.4-5.1,0.4c0.5,4-0.3,9.3-2.6,14.7c-2.8,6.7-7,11.7-11,13.6   c0.4,3.1,1.6,5.5,3.6,6.5c0.1,0,0.2,0.1,0.2,0.1c4.8,2,12-4.3,16.1-14C375.4,455.3,374.9,445.9,370.2,443.8z M84.1,290.7   c7.3-3.3,15-6.7,23.2-10.2C100.5,277.9,91.9,282.1,84.1,290.7z M531.2,240.6c2.1-11.7,7.6-20.8,12.2-20.3c0,0,0.1,0,0.1,0   c-1.2-0.3-5.4-1.2-10.1-2.3c-5.6,7.1-11.3,14-17.3,20.8c-3.3,3.8-7.3,8.2-11.7,13.1c0.9,2.9,2.4,4.7,4.3,4.9   c4.6,0.5,26.8,5.9,26.8,5.9l0,0C531.1,261.9,529.1,252.1,531.2,240.6z M541.3,232.4C541.3,232.4,541.3,232.4,541.3,232.4   c-0.7-0.1-1.3,0.3-2,0.9c0.5,1.8,0.5,4.3,0,7.1c-0.6,3.4-1.9,6.4-3.3,7.8c0.4,1.4,1,2.3,1.8,2.4c0,0,0.1,0,0.1,0   c2,0.2,4.4-3.7,5.3-8.7C544.2,236.9,543.3,232.7,541.3,232.4z M574.7,141.6c0.1,1.4,0,2.9-0.1,4.3c-0.4,4.5-1.8,9-4.2,13.2   c-7.7,13.2-19,29.3-27.9,41.4c-4.1,5.7-8.4,11.2-12.8,16.7c-4.4,5.4-8.9,10.8-13.5,16c-3.6,4-7.8,8.7-12.6,14.1   c-34.1,37.8-97.4,105.3-157,155.5c-26.3,22.1-51.8,40.8-73.8,52.1c-11.2,5.8-21.6,9.6-30.6,11c-82.3,12.7-179.7-36.3-197.9-57.7   c-11.7-13.8-22.6-38.8-23.6-58.3c-0.1-1.5-0.1-2.9-0.1-4.3c0-1.3,0-2.6,0-3.9c0,0.5,0.1,1,0.1,1.5c0.1,1,0.2,2,0.3,3.1   c2.2,18.7,12.4,41.2,23.3,54.1c18.1,21.4,115.6,70.4,197.9,57.7c8.9-1.4,19.1-5.1,30.1-10.8c20.6-10.5,44.2-27.5,68.7-47.7   c61.2-50.6,127.5-121.2,162.7-160.2c4.8-5.3,9-10.1,12.6-14.1c2.8-3.1,5.5-6.3,8.2-9.5c6.2-7.4,12.2-15,17.9-22.9   c-9.9,13.4-26.9,19.5-43.1,15.3c-32.2-8.5-81.6-25.2-106-33.7c-0.9-0.3-1.8-0.6-2.6-0.9c-1-0.4-1.9-1-2.5-1.7   c-0.6-0.7-1-1.6-1.2-2.5c-0.4-2.2,0.4-4.6,2.7-6c16.7-9.5,49.4-30.3,76.5-60.3c0.4-0.4,0.8-0.8,1.2-1.3c5.2-5.6,12.1-8.9,19.4-9.8   c0.1,0,0.2,0,0.3,0c0.3,0,0.5,0,0.8-0.1c3.2-0.3,6.4-0.1,9.6,0.6l0,0l52.4,11.6c16,3.5,25.9,18.2,24.9,33.2   C574.8,138.9,574.8,140.3,574.7,141.6z M437.4,173.4c0.1-1.2-1.6-2.2-3.8-2.4c-2.1-0.1-3.9,0.7-4,1.9c-0.1,1.2,1.6,2.2,3.8,2.4   C435.5,175.4,437.3,174.6,437.4,173.4z M466.1,159.3c0.1-0.9-1.3-1.8-3-1.9c-1.7-0.1-3.2,0.6-3.2,1.5s1.3,1.8,3,1.9   C464.6,160.9,466.1,160.2,466.1,159.3z M479.5,195.4c0.1-1.2-1.6-2.2-3.8-2.4s-3.9,0.7-4,1.9c-0.1,1.2,1.6,2.2,3.8,2.4   C477.7,197.5,479.5,196.6,479.5,195.4z M500.8,174.6c0.1-1-1.3-1.8-3.1-1.9c-1.8-0.1-3.2,0.6-3.3,1.6c-0.1,1,1.3,1.8,3.1,1.9   C499.2,176.2,500.7,175.5,500.8,174.6z M234.2,344.4c0.1-2.2,3.5-3.9,7.6-3.7c4.1,0.2,7.3,2.2,7.2,4.5c-0.1,2.2-3.5,3.9-7.6,3.7   C237.3,348.6,234.1,346.6,234.2,344.4z M236,345.6c-0.1,1.6,2.2,3,5.1,3.2c2.9,0.2,5.3-1,5.4-2.6s-2.2-3-5.1-3.2   C238.5,342.8,236.1,344,236,345.6z M241,346.2l0.4,1.9l0.2-1.9l2.8-0.3l-2.8-0.4l-0.6-1.7l0,1.8l-3.1,0.1L241,346.2z M265.2,316.5   c0.1-1.8,2.9-3.2,6.2-3c3.3,0.2,6,1.8,5.9,3.6c-0.1,1.8-2.9,3.2-6.2,3C267.7,319.9,265.1,318.3,265.2,316.5z M266.7,317.4   c-0.1,1.3,1.8,2.5,4.2,2.6c2.4,0.1,4.4-0.8,4.4-2.1c0.1-1.3-1.8-2.5-4.2-2.6C268.7,315.2,266.7,316.1,266.7,317.4z M270.7,318   l0.3,1.5l0.1-1.5l2.3-0.3l-2.3-0.3l-0.5-1.4l0,1.5l-2.5,0.1L270.7,318z M177.2,314.5c0.1-2.2,3.5-3.9,7.6-3.7   c4.1,0.2,7.3,2.2,7.2,4.5c-0.1,2.2-3.5,3.9-7.6,3.7C180.3,318.8,177.1,316.8,177.2,314.5z M179,315.7c-0.1,1.6,2.2,3,5.1,3.2   c2.9,0.2,5.3-1,5.4-2.6c0.1-1.6-2.2-3-5.1-3.2C181.5,312.9,179.1,314.1,179,315.7z M183.9,316.4l0.4,1.9l0.2-1.9l2.8-0.3l-2.8-0.4   l-0.6-1.7l0,1.8l-3.1,0.1L183.9,316.4z M218.5,295.8c0.1-1.8,2.8-3.1,6.1-2.9c3.3,0.2,5.8,1.8,5.7,3.6c-0.1,1.8-2.8,3.1-6.1,2.9   C221,299.2,218.4,297.6,218.5,295.8z M220,296.7c-0.1,1.3,1.8,2.4,4.1,2.5c2.3,0.1,4.3-0.8,4.3-2.1c0.1-1.3-1.8-2.4-4.1-2.5   C222,294.5,220,295.5,220,296.7z M223.9,297.2l0.3,1.5l0.1-1.5l2.2-0.3l-2.2-0.3l-0.5-1.4l0,1.5l-2.5,0.1L223.9,297.2z    M475.4,193.7l0,1.4l-2.3,0.1l2.2,0.4l0.3,1.4l0.1-1.4l2.1-0.2l-2.1-0.3L475.4,193.7z M497.4,173.1l0,1.1l-1.9,0.1l1.8,0.3l0.3,1.1   l0.1-1.1l1.7-0.2l-1.7-0.2L497.4,173.1z M433.3,171.6l0,1.4l-2.3,0.1l2.2,0.4l0.3,1.4l0.1-1.4l2.1-0.2l-2.1-0.3L433.3,171.6z    M462.8,157.9l0,1.1L461,159l1.8,0.3l0.2,1.1l0.1-1.1l1.6-0.2l-1.6-0.2L462.8,157.9z" fill="#000000" originalFill="#000000"/>
</g>
</svg>