<svg xmlns="http://www.w3.org/2000/svg" xmlns:xlink="http://www.w3.org/1999/xlink" version="1.1" id="svg-edited-version" x="0px" y="0px" viewBox="0 0 595.3 595.3" enable-background="new 0 0 595.3 595.3" xml:space="preserve" class="injected-svg" data-src="https://preview.pixlr.com/images/svg/100/1/d758b759e1f951722331b035f86399dcaff2443624e7de5d0354ff58989cca25.svg">
<g>
	<path fill="#BABABA" d="M316.1,194.3L293.6,59l-22.7,124.2c-0.2-0.2-0.5-0.4-0.7-0.6c-0.1-0.1-0.3-0.2-0.4-0.4   c-0.4-0.3-0.8-0.6-1.2-1c-0.1-0.1-0.2-0.2-0.4-0.3c-0.1-0.1-0.2-0.2-0.3-0.3c-0.5-0.4-1-0.8-1.5-1.1c-0.1-0.1-0.1-0.1-0.2-0.2   c-0.1,0-0.1-0.1-0.2-0.1c-0.6-0.4-1.2-0.8-1.7-1.2c-0.1,0-0.1-0.1-0.2-0.1l0,0c0,0-0.1-0.1-0.1-0.1c-0.5-0.4-1.1-0.7-1.6-1l12-65.8   l-19,61.8c-0.5-0.2-0.9-0.5-1.4-0.7c-0.2-0.1-0.3-0.2-0.5-0.3c-0.7-0.3-1.4-0.7-2.1-1c-0.2-0.1-0.4-0.2-0.6-0.3   c-0.7-0.3-1.3-0.6-2-0.9c-0.2-0.1-0.5-0.2-0.7-0.3c-0.5-0.2-1.1-0.4-1.6-0.6l42.9-139.4c0,0,0-0.1,0-0.1c0-0.1,0.1-0.3,0.2-0.4   c0-0.1,0.1-0.2,0.2-0.3c0.1-0.1,0.1-0.2,0.2-0.4c0.1-0.1,0.1-0.2,0.2-0.3c0.1-0.1,0.2-0.2,0.3-0.3c0.1-0.1,0.2-0.2,0.3-0.3   c0.1-0.1,0.2-0.2,0.3-0.3c0.1-0.1,0.2-0.2,0.3-0.2c0.1-0.1,0.2-0.1,0.4-0.2c0.1-0.1,0.2-0.1,0.3-0.2c0.1-0.1,0.3-0.1,0.4-0.1   c0.1,0,0.2-0.1,0.4-0.1c0.1,0,0.3-0.1,0.4-0.1c0.1,0,0.3-0.1,0.4-0.1c0,0,0,0,0,0c0.2,0,0.4,0,0.5,0c0.1,0,0.1,0,0.2,0c0,0,0,0,0,0   c0.8,0.1,1.6,0.3,2.3,0.8c0.2,0.1,0.4,0.3,0.6,0.5c0,0,0.1,0.1,0.1,0.1c0.1,0.1,0.3,0.3,0.4,0.4c0.1,0.1,0.1,0.2,0.2,0.3   c0.1,0.1,0.2,0.2,0.3,0.4c0.1,0.1,0.1,0.3,0.2,0.4c0,0.1,0.1,0.2,0.1,0.3l0,0.1l0,0L351,172.1c-0.5,0.2-1,0.4-1.5,0.7   c-0.2,0.1-0.4,0.2-0.5,0.2c-0.7,0.3-1.5,0.7-2.2,1.1c-0.1,0.1-0.3,0.1-0.4,0.2c-0.8,0.4-1.6,0.8-2.3,1.2c-0.1,0-0.2,0.1-0.2,0.1   c-0.5,0.3-1,0.6-1.5,0.9L307,80.7l18.1,108.7c0,0-0.1,0.1-0.1,0.1c0,0,0,0,0,0C322.1,191,319.1,192.6,316.1,194.3z M268.5,234   l1.9-13.3l0.4-2.9c0.3-2.1,0.3-4.1,0-6.1c-0.6-4.1-2.3-7.9-4.8-11c2.3,4.1,3.4,9,2.7,14l-2.3,16.2c-1.3,8.8-10.3,14.3-18.6,11.2   c-19.3-7-52.5-16.2-81.3-9.2c-23.3,5.7-38.8,15.1-48.2,22.5c-0.3,0.2-0.6,0.4-0.8,0.7c-2.5,2.1-5.8,1.8-8,0.1c1,3.5,5,5.4,8.4,4.1   c0.6-0.2,1.2-0.6,1.8-1c9.3-7.6,25-17.3,49-23.2c28.8-7.1,62.1,2.1,81.3,9.2C258.3,248.2,267.3,242.8,268.5,234z M288.4,449.6   c-0.4-0.3-0.7-0.5-1.1-0.8c-0.1,0-0.1-0.1-0.2-0.1c-0.4-0.2-0.7-0.4-1.1-0.6c-0.1,0-0.1-0.1-0.2-0.1c-0.4-0.2-0.7-0.4-1.1-0.5   c-0.1,0-0.1-0.1-0.2-0.1c-0.4-0.2-0.7-0.3-1.1-0.5c0,0-0.1,0-0.1-0.1c-0.5-0.2-1-0.3-1.5-0.5c-0.5-0.1-1-0.3-1.4-0.4l0,0l0,0   c0,0,0,0,0,0c0,0,0,0,0,0c0,0-0.1,0-0.1,0c-0.4-0.1-0.9-0.2-1.3-0.2l0,0c0,0,0,0,0,0c0,0,0,0,0,0c0,0,0,0,0,0c0,0,0,0,0,0l0,0   c-0.5-0.1-0.9-0.1-1.4-0.2c0,0-0.1,0-0.1,0c-0.3,0-0.6,0-0.8-0.1c0,0,0,0,0,0c-0.1,0-0.2,0-0.3,0c-0.2,0-0.4,0-0.6,0   c0,0-0.1,0-0.1,0c0,0,0,0-0.1,0c-0.1,0-0.2,0-0.4,0c0,0,0,0,0,0c-0.2,0-0.4,0-0.6,0c-0.1,0-0.2,0-0.3,0c0,0-0.1,0-0.1,0l0,0   c-0.2,0-0.4,0-0.5,0c0,0-0.1,0-0.1,0c0,0,0,0,0,0c-0.1,0-0.2,0-0.3,0c-0.1,0-0.3,0-0.4,0c0,0-0.1,0-0.1,0c0,0,0,0,0,0c0,0,0,0,0,0   c0,0,0,0,0,0c-0.1,0-0.3,0-0.4,0.1c-0.1,0-0.2,0-0.3,0l0,0c0,0,0,0,0,0c0,0-0.1,0-0.1,0c0,0,0,0,0,0c-0.2,0-0.4,0.1-0.6,0.1   c0,0,0,0,0,0h0c0,0,0,0,0,0c0.1,0,0.2-0.1,0.2-0.1c0.1,0,0.2-0.1,0.3-0.1c0,0,0,0,0,0c0.1,0,0.1,0,0.2-0.1c0,0,0,0,0,0   c0.1,0,0.3-0.1,0.4-0.1c0,0,0,0,0,0c0,0,0,0,0,0c0.1,0,0.2-0.1,0.3-0.1c0,0,0,0,0,0c0,0,0,0,0,0c0.1,0,0.2-0.1,0.4-0.1c0,0,0,0,0,0   c0.1,0,0.2-0.1,0.3-0.1c0,0,0.1,0,0.1,0l0,0c0.1,0,0.2-0.1,0.3-0.1c0,0,0,0,0,0c0,0,0.1,0,0.1,0c0.1-0.1,0.2-0.1,0.4-0.2   c0,0,0,0,0,0c0,0,0,0,0,0c0,0,0,0,0,0c0,0,0,0,0,0c0.4-0.2,0.9-0.4,1.3-0.7c0,0,0,0,0,0c0,0,0.1,0,0.1,0c0,0,0,0,0,0   c0.1,0,0.1-0.1,0.2-0.1c0.1-0.1,0.3-0.1,0.4-0.2c0,0,0,0,0,0c0,0,0,0,0,0c0.1,0,0.1-0.1,0.2-0.1l0,0c0.2-0.1,0.5-0.3,0.7-0.4l0,0   c0,0,0.1,0,0.1-0.1c0,0,0,0,0,0c0.3-0.2,0.5-0.3,0.8-0.5c0,0,0,0,0,0c0,0,0,0,0,0c0,0,0,0,0,0c0.6-0.4,1.1-0.7,1.7-1.2   c0.1,0,0.1-0.1,0.2-0.1c0.1-0.1,0.2-0.1,0.3-0.2c0.5-0.4,1-0.7,1.4-1.1c0,0,0,0,0,0c0,0,0.1-0.1,0.1-0.1l0,0   c0.3-0.2,0.6-0.5,0.9-0.7c0,0,0,0,0,0c0.1-0.1,0.1-0.1,0.2-0.2c0,0,0,0,0,0c0.3-0.3,0.6-0.5,0.9-0.8c-5,1.1-10.3,1.2-15.4,0.2   c-14.9-3-27.2-16.1-18.7-44.3c0.4-1.3,0.7-2.5,1-3.8c0.1-0.4,0.2-0.8,0.3-1.2c0.2-0.8,0.4-1.7,0.6-2.5c0.1-0.5,0.2-1,0.3-1.4   c0.1-0.7,0.3-1.5,0.4-2.2c0.1-0.5,0.2-1,0.2-1.5c0.1-0.7,0.2-1.4,0.3-2.1c0.1-0.5,0.1-1,0.2-1.5c0.1-0.7,0.1-1.4,0.2-2   c0-0.5,0.1-1,0.1-1.5c0-0.7,0.1-1.3,0.1-2c0-0.5,0-1,0-1.4c0-0.7,0-1.3,0-2c0-0.5,0-0.9,0-1.4c0-0.7,0-1.3,0-2c0-0.4,0-0.9,0-1.3   c0-0.7-0.1-1.3-0.1-2c0-0.4-0.1-0.8-0.1-1.2c-0.1-0.7-0.1-1.4-0.2-2c0-0.4-0.1-0.7-0.1-1.1c-0.1-0.7-0.2-1.4-0.3-2.1   c0-0.3-0.1-0.6-0.1-0.9c-0.1-0.8-0.2-1.6-0.4-2.4c0-0.2-0.1-0.4-0.1-0.6c-0.5-2.9-1.2-5.7-1.9-8.4c0-0.1-0.1-0.2-0.1-0.3   c-0.2-0.8-0.4-1.5-0.6-2.2c-0.1-0.2-0.1-0.4-0.2-0.5c-0.2-0.6-0.4-1.3-0.6-1.9c-0.1-0.2-0.1-0.4-0.2-0.6c-0.2-0.6-0.4-1.1-0.6-1.7   c-0.1-0.2-0.2-0.4-0.2-0.6c-0.2-0.5-0.4-1-0.6-1.5c-0.1-0.2-0.2-0.4-0.2-0.6c-0.2-0.5-0.4-1-0.6-1.4c-0.1-0.2-0.2-0.4-0.2-0.6   c-0.2-0.5-0.4-0.9-0.6-1.3c-0.1-0.2-0.2-0.4-0.2-0.6c-0.2-0.4-0.4-0.8-0.6-1.2c-0.1-0.2-0.2-0.3-0.2-0.5c-0.2-0.4-0.4-0.8-0.5-1.2   c-0.1-0.1-0.1-0.3-0.2-0.4c-0.2-0.4-0.4-0.7-0.5-1.1c-0.1-0.1-0.1-0.2-0.2-0.4c-0.2-0.4-0.4-0.7-0.5-1c-0.1-0.1-0.1-0.2-0.2-0.3   c-0.2-0.3-0.4-0.6-0.5-0.9c0-0.1-0.1-0.1-0.1-0.2c-0.2-0.4-0.4-0.7-0.6-1c0,0,0,0,0-0.1c-0.2-0.3-0.3-0.5-0.4-0.7   c-0.1-0.2-0.2-0.3-0.3-0.5c0-0.1-0.1-0.1-0.1-0.2c-0.1-0.2-0.2-0.3-0.3-0.4c0,0,0,0,0,0c0,0,0,0,0,0c0.1,0.2,0.1,0.7,0.1,1.2   c0,0.3,0,0.7,0,1.1c0,0.3,0,0.7-0.1,1.1c-0.1,1-0.2,2.2-0.3,3.5c0,0.3-0.1,0.6-0.1,1c-0.1,0.9-0.2,1.8-0.3,2.8   c0,0.3-0.1,0.5-0.1,0.8c-0.1,0.9-0.2,1.9-0.4,2.8c-0.1,0.4-0.1,0.9-0.2,1.3c-0.3,2.1-0.6,4.3-0.9,6.3c-0.1,0.7-0.2,1.3-0.3,2   c-0.1,0.5-0.2,1.1-0.2,1.6c0,0.3-0.1,0.6-0.1,0.9c-0.3,1.9-0.5,3.4-0.6,4.4c0,0.2,0,0.3-0.1,0.5c-0.9,6.9-1.9,14.1-5.7,20   c-3.8,5.9-11.2,10.1-17.8,7.9c0.3,6.6,8.5,11.4,14.4,8.4c-2.6,8.2-10.3,14.5-18.8,15.3c4.9,3.5,12.1,3.5,17.1,0   c-4,7.2-10.4,13.1-18,16.5c3.5,0.7,7.3,1.5,9.7,4.1c4,4.3,2.5,11.1,3.7,16.8c1.2,5.8,5.2,10.5,9.3,14.8c4.1,4.2,8.6,8.3,11.3,13.6   c2.6,5.3,3,12.3-1,16.7c4.6,0.7,8.9-3.2,10.3-7.7c1.4-4.5,0.6-9.3-0.2-13.9c4.5,3,7.7,8,8.7,13.3c-0.3-6.2,1.5-12.4,5-17.5   c2.2-3.3,5.1-6.2,8.5-8.3c2.3-1.4,4.9-2.5,7.6-2.8C283.2,447.6,285.9,448.4,288.4,449.6L288.4,449.6L288.4,449.6L288.4,449.6   L288.4,449.6z M240,319.4L240,319.4L240,319.4L240,319.4z M483.1,260.4c-0.3-0.2-0.5-0.5-0.8-0.7c-9.2-7.7-24.4-17.4-47.6-23.8   c-28.6-7.8-62.1,0.5-81.5,7.1c-8.4,2.8-17.3-2.8-18.3-11.7L333,215c-0.6-5,0.6-9.9,3-13.9c-2.6,3.1-4.4,6.8-5.1,10.9   c-0.3,2-0.4,4-0.1,6.1l0.3,2.9l1.5,13.3c1,8.8,9.9,14.5,18.3,11.7c19.4-6.5,52.9-14.9,81.5-7.1c23.8,6.5,39.3,16.6,48.4,24.4   c0.5,0.5,1.1,0.8,1.7,1.1c3.4,1.4,7.3-0.4,8.5-3.9C488.9,262.3,485.6,262.5,483.1,260.4z M371.4,403.7c4.9,3.6,12,3.8,17.1,0.4   c-8.5-1.1-16.1-7.6-18.4-15.8c5.8,3.2,14.2-1.4,14.6-8c-6.7,2-14-2.3-17.6-8.3c-3.6-6-4.4-13.2-5.2-20.2c0-0.3-0.1-0.6-0.1-1.1   c-0.1-0.7-0.2-1.6-0.3-2.6c-0.1-1-0.3-2.1-0.4-3.3c-0.1-0.4-0.1-0.9-0.2-1.3c0-0.3-0.1-0.6-0.1-0.9c-0.1-0.6-0.2-1.3-0.2-2   c-0.1-0.8-0.2-1.6-0.3-2.4c-0.1-0.5-0.1-1.1-0.2-1.6c0,0,0,0,0,0c-0.3-2.3-0.5-4.5-0.7-6.6c-0.1-0.6-0.1-1.3-0.2-1.9   c-0.1-0.8-0.1-1.6-0.2-2.4c0,0,0-0.1,0-0.1c0-0.6-0.1-1.1-0.1-1.6c0-0.6-0.1-1.1-0.1-1.6c0-0.3,0-0.6,0-0.9c0,0,0-0.1,0-0.1   c0-0.5,0-0.9,0.1-1.1v0c0,0,0,0,0,0c0,0,0,0,0,0l0,0c0,0,0,0,0,0c0,0,0,0,0,0l0,0c-0.1,0.1-0.2,0.3-0.3,0.4c0,0-0.1,0.1-0.1,0.2   c-0.1,0.1-0.2,0.3-0.3,0.5c-0.1,0.2-0.3,0.5-0.5,0.7c0,0,0,0,0,0.1c-0.2,0.3-0.4,0.6-0.6,1c0,0.1-0.1,0.1-0.1,0.2   c-0.2,0.3-0.4,0.6-0.5,0.9c-0.1,0.1-0.1,0.2-0.2,0.3c-0.2,0.3-0.4,0.6-0.5,1c-0.1,0.1-0.1,0.2-0.2,0.4c-0.2,0.3-0.4,0.7-0.6,1.1   c-0.1,0.1-0.1,0.3-0.2,0.4c-0.2,0.4-0.4,0.7-0.6,1.1c-0.1,0.2-0.2,0.3-0.2,0.5c-0.2,0.4-0.4,0.8-0.6,1.2c-0.1,0.2-0.2,0.4-0.3,0.6   c-0.2,0.4-0.4,0.9-0.6,1.3c-0.1,0.2-0.2,0.4-0.3,0.6c-0.2,0.5-0.4,0.9-0.6,1.4c-0.1,0.2-0.2,0.4-0.3,0.6c-0.2,0.5-0.4,1-0.6,1.5   c-0.1,0.2-0.2,0.4-0.2,0.6c-0.2,0.5-0.4,1.1-0.6,1.7c-0.1,0.2-0.2,0.4-0.2,0.6c-0.2,0.6-0.4,1.2-0.6,1.9c-0.1,0.2-0.1,0.4-0.2,0.5   c-0.2,0.7-0.5,1.5-0.7,2.2c0,0.1-0.1,0.2-0.1,0.3c-0.8,2.6-1.5,5.4-2.1,8.3c0,0.2-0.1,0.4-0.1,0.6c-0.2,0.8-0.3,1.5-0.4,2.3   c-0.1,0.3-0.1,0.6-0.1,0.9c-0.1,0.7-0.2,1.4-0.3,2.1c-0.1,0.4-0.1,0.7-0.1,1.1c-0.1,0.7-0.2,1.3-0.2,2c0,0.4-0.1,0.8-0.1,1.2   c-0.1,0.7-0.1,1.3-0.2,2c0,0.4-0.1,0.9-0.1,1.3c0,0.7-0.1,1.3-0.1,2c0,0.5,0,0.9,0,1.4c0,0.7,0,1.3,0,2c0,0.5,0,1,0,1.4   c0,0.7,0,1.3,0.1,2c0,0.5,0,1,0.1,1.5c0,0.7,0.1,1.4,0.1,2c0,0.5,0.1,1,0.1,1.5c0.1,0.7,0.2,1.4,0.2,2.1c0.1,0.5,0.1,1,0.2,1.5   c0.1,0.7,0.2,1.5,0.4,2.2c0.1,0.5,0.2,1,0.2,1.4c0.2,0.8,0.3,1.7,0.5,2.5c0.1,0.4,0.2,0.8,0.3,1.2c0.3,1.3,0.6,2.5,0.9,3.8   c7.8,28.3-4.8,41.1-19.8,43.8c-5.1,0.9-10.4,0.6-15.3-0.6c0,0,0,0,0,0c0.3,0.3,0.6,0.6,0.9,0.8l0,0c0,0,0,0,0,0   c0.1,0.1,0.1,0.1,0.2,0.2l0,0c0.3,0.3,0.6,0.5,0.8,0.7c0,0,0,0,0,0c0,0,0.1,0.1,0.1,0.1c0,0,0,0,0,0c0.1,0.1,0.3,0.2,0.4,0.3   c0.4,0.4,0.9,0.7,1.3,1l0,0c0.1,0,0.1,0.1,0.2,0.2c0.6,0.4,1.1,0.8,1.7,1.2c0,0,0,0,0,0c0,0,0,0,0,0c0,0,0,0,0,0   c0.3,0.2,0.5,0.3,0.8,0.5c0,0,0,0,0,0c0,0,0.1,0.1,0.1,0.1c0,0,0,0,0,0c0.2,0.1,0.5,0.3,0.7,0.4c0,0,0,0,0,0c0.1,0,0.1,0.1,0.2,0.1   c0,0,0,0,0,0c0.1,0.1,0.2,0.1,0.3,0.2c0.1,0.1,0.2,0.1,0.3,0.2c0,0,0,0,0,0c0,0,0.1,0,0.1,0.1c0,0,0,0,0,0c0.5,0.3,0.9,0.5,1.3,0.7   c0,0,0,0,0,0c0,0,0,0,0,0c0,0,0,0,0,0c0.1,0,0.1,0.1,0.2,0.1c0.1,0,0.2,0.1,0.3,0.1c0,0,0,0,0,0c0.1,0,0.2,0.1,0.3,0.1l0,0   c0.1,0,0.2,0.1,0.2,0.1c0,0,0.1,0,0.1,0.1c0,0,0,0,0,0c0.1,0.1,0.2,0.1,0.4,0.2c0,0,0,0,0,0c0,0,0,0,0,0c0.1,0,0.2,0.1,0.3,0.1   c0,0,0,0,0,0c0.1,0.1,0.3,0.1,0.4,0.2c0,0,0,0,0,0c0.1,0,0.1,0.1,0.2,0.1c0.1,0,0.2,0.1,0.3,0.1c0.1,0,0.2,0.1,0.2,0.1c0,0,0,0,0,0   l0,0c0,0,0,0,0,0c-0.2,0-0.4-0.1-0.6-0.1c0,0,0,0,0,0c0,0-0.1,0-0.1,0c0,0,0,0,0,0c0,0,0,0,0,0c-0.1,0-0.2,0-0.3,0   c-0.1,0-0.3,0-0.4-0.1l0,0c0,0,0,0,0,0c0,0,0,0,0,0c0,0-0.1,0-0.1,0c-0.1,0-0.3,0-0.4-0.1c-0.1,0-0.2,0-0.3,0c0,0,0,0,0,0   c0,0-0.1,0-0.1,0c-0.2,0-0.4,0-0.5,0c-0.1,0-0.1,0-0.2,0c-0.1,0-0.2,0-0.2,0c0,0,0,0,0,0c-0.2,0-0.4,0-0.6,0c0,0,0,0,0,0   c-0.1,0-0.2,0-0.4,0c-0.2,0-0.5,0-0.7,0c-0.1,0-0.2,0-0.3,0c0,0,0,0,0,0c-0.3,0-0.6,0-0.8,0c0,0-0.1,0-0.1,0   c-0.4,0-0.9,0.1-1.4,0.1l0,0h0c0,0,0,0,0,0c0,0,0,0,0,0c0,0,0,0,0,0c0,0,0,0,0,0c0,0,0,0,0,0l0,0c-0.4,0.1-0.9,0.1-1.4,0.2   c0,0,0,0,0,0c0,0,0,0,0,0c0,0,0,0,0,0c0,0,0,0,0,0c0,0,0,0,0,0c-0.5,0.1-1,0.2-1.5,0.3c-0.5,0.1-1,0.3-1.5,0.5   c-0.1,0-0.1,0-0.2,0.1c-0.4,0.1-0.7,0.3-1.1,0.4c-0.1,0-0.1,0.1-0.2,0.1c-0.4,0.2-0.7,0.3-1.1,0.5c-0.1,0-0.1,0.1-0.2,0.1   c-0.4,0.2-0.7,0.4-1.1,0.6c-0.1,0-0.1,0.1-0.2,0.1c-0.4,0.2-0.8,0.5-1.1,0.7c0,0,0,0,0,0l0,0h0l0,0c2.5-1.2,5.3-1.8,8.1-1.6   c2.7,0.3,5.3,1.5,7.6,2.9c3.4,2.2,6.2,5.1,8.3,8.5c3.3,5.2,5,11.5,4.5,17.6c1.1-5.3,4.4-10.2,9-13.1c-0.9,4.6-1.8,9.4-0.6,13.9   c1.3,4.5,5.5,8.6,10.1,8c-3.8-4.5-3.3-11.5-0.6-16.7c2.8-5.2,7.4-9.2,11.6-13.3c4.2-4.1,8.4-8.8,9.7-14.5   c1.3-5.7,0.1-12.5,4.2-16.7c2.5-2.6,6.3-3.3,9.8-3.9C381.5,417.1,375.2,411,371.4,403.7z" originalFill="#BABABA"/>
	<path fill="#BA232A" d="M296.3,206.4C296.3,206.4,296.3,206.4,296.3,206.4C296.4,206.4,296.4,206.4,296.3,206.4   C296.4,206.4,296.3,206.4,296.3,206.4z" originalFill="#BA232A"/>
	<path fill="#BA232A" d="M525.3,460.2c-2.7-67.4-38-146.2-38-146.2l-1.1-12.1h0c0,0,0,0,0,0c0.3-0.3,0.6-0.5,0.9-0.7   c0.1-0.1,0.1-0.1,0.2-0.2c5.1-3.8,11.6-7.4,10-18.2c-1.1-7.3,2-32.9-0.6-48.6c-1.4-8.6-10.7-19.5-18.6-27c-0.1-0.9-0.3-1.8-0.5-2.6   c0,0,0,0,0,0c-0.2-0.9-0.4-1.7-0.6-2.6c-1.7-2.5-3.6-4.9-5.6-7.2c-4-4.6-8.6-8.7-13.5-12.3c-0.6-0.5-1.2-0.9-1.9-1.3   c-1.2-0.9-2.5-1.7-3.8-2.6c-0.6-0.4-1.3-0.8-1.9-1.2c-0.8-0.5-1.6-1-2.4-1.5c-2.5-1.4-5-2.8-7.5-4c-1.7-0.8-3.4-1.6-5.2-2.3   c-0.9-0.4-1.8-0.7-2.6-1.1c-7.9-3.1-16.3-5.2-24.8-5.9c-6-0.5-12-0.6-18-0.1c0,0,0,0,0,0c-2,0.1-3.9,0.3-5.9,0.6   c-1,0.1-2,0.3-3.1,0.4c-3,0.5-5.9,1-8.9,1.7c-3.9,0.9-7.8,2-11.5,3.3c-0.9,0.3-1.8,0.6-2.8,1c-0.2,0.1-0.5,0.2-0.7,0.3   c-0.7,0.3-1.4,0.5-2.1,0.8c-0.2,0.1-0.5,0.2-0.7,0.3c-0.7,0.3-1.4,0.5-2,0.8c-0.2,0.1-0.4,0.2-0.6,0.3c-0.2,0.1-0.4,0.2-0.6,0.3   c-0.5,0.2-1,0.4-1.5,0.7c-0.2,0.1-0.4,0.2-0.5,0.2c-0.7,0.3-1.5,0.7-2.2,1.1c-0.1,0.1-0.3,0.1-0.4,0.2c-0.8,0.4-1.6,0.8-2.3,1.2   c-0.1,0-0.2,0.1-0.2,0.1c-0.5,0.3-1,0.6-1.5,0.9c-0.3,0.2-0.6,0.3-0.9,0.5c0,0,0,0-0.1,0c-0.8,0.5-1.6,1-2.4,1.5   c0,0-0.1,0.1-0.1,0.1l0,0c-0.1,0-0.1,0.1-0.2,0.1c-0.6,0.4-1.2,0.8-1.8,1.2c-0.1,0-0.1,0.1-0.2,0.1c-0.1,0.1-0.1,0.1-0.2,0.2   c-0.5,0.4-1.1,0.7-1.6,1.1c-0.1,0.1-0.2,0.2-0.3,0.3c-0.1,0.1-0.3,0.2-0.4,0.3c-0.4,0.3-0.8,0.6-1.3,0.9c-0.2,0.1-0.3,0.2-0.4,0.3   c-0.3,0.2-0.5,0.4-0.8,0.6c-0.2,0.2-0.5,0.4-0.7,0.6c-0.2,0.1-0.3,0.3-0.5,0.4c-0.5,0.4-1,0.8-1.5,1.2c-0.2,0.2-0.4,0.4-0.7,0.6   c-0.4,0.4-0.8,0.7-1.2,1.1c-0.3,0.3-0.6,0.6-1,0.9c-0.3,0.3-0.6,0.6-0.9,0.9c0,0,0,0,0,0c0,0-0.1,0.1-0.1,0.1c0,0,0,0,0,0   c-2.9,1.5-5.9,3.1-8.9,4.7c-5,2.8-10.2,5.9-15.5,9.3c-8-5.5-15.8-10.2-23.3-14.2c0,0,0,0,0,0c0,0-0.1-0.1-0.1-0.1   c-0.3-0.3-0.6-0.6-0.9-0.9c-0.3-0.3-0.6-0.7-0.9-1c-0.4-0.4-0.8-0.8-1.2-1.2c-0.2-0.2-0.4-0.4-0.6-0.6c-0.5-0.4-0.9-0.9-1.4-1.3   c-0.2-0.1-0.3-0.3-0.5-0.4c-0.2-0.2-0.5-0.4-0.7-0.6c0,0-0.1-0.1-0.1-0.1c-0.2-0.2-0.5-0.4-0.7-0.6c-0.1-0.1-0.3-0.2-0.4-0.4   c-0.4-0.3-0.8-0.6-1.2-1c-0.1-0.1-0.2-0.2-0.4-0.3c-0.1-0.1-0.2-0.2-0.3-0.3c-0.5-0.4-1-0.8-1.5-1.1c-0.1-0.1-0.1-0.1-0.2-0.2   c-0.1,0-0.1-0.1-0.2-0.1c-0.6-0.4-1.2-0.8-1.7-1.2c-0.1,0-0.1-0.1-0.2-0.1l0,0c0,0-0.1-0.1-0.1-0.1c-0.5-0.4-1.1-0.7-1.6-1   c-0.2-0.2-0.5-0.3-0.7-0.5c0,0,0,0-0.1,0c-0.8-0.5-1.6-1-2.4-1.4c-0.1,0-0.2-0.1-0.2-0.1c-0.8-0.4-1.5-0.9-2.3-1.3   c-0.1-0.1-0.3-0.1-0.4-0.2c-0.3-0.1-0.5-0.3-0.8-0.4c-0.5-0.2-0.9-0.5-1.4-0.7c-0.2-0.1-0.3-0.2-0.5-0.3c-0.7-0.3-1.4-0.7-2.1-1   c-0.2-0.1-0.4-0.2-0.6-0.3c-0.7-0.3-1.3-0.6-2-0.9c-0.2-0.1-0.5-0.2-0.7-0.3c-0.5-0.2-1.1-0.4-1.6-0.6c-0.2-0.1-0.3-0.1-0.5-0.2   c-0.2-0.1-0.5-0.2-0.7-0.3c-0.9-0.4-1.8-0.7-2.7-1c-3.7-1.4-7.6-2.6-11.4-3.6c-2.9-0.8-5.8-1.4-8.8-1.9c-1-0.2-2-0.4-3.1-0.5   c-1.9-0.3-3.9-0.5-5.9-0.7c0,0,0,0,0,0c-6-0.6-12-0.7-18-0.3c-8.5,0.6-16.9,2.4-24.9,5.3c-0.9,0.3-1.8,0.7-2.7,1   c-1.8,0.7-3.5,1.4-5.2,2.2c-2.6,1.2-5.1,2.4-7.6,3.8c-0.8,0.5-1.7,0.9-2.5,1.4c-0.7,0.4-1.3,0.8-2,1.2c-1.3,0.8-2.6,1.6-3.8,2.5   c-0.6,0.4-1.3,0.9-1.9,1.3c-5,3.5-9.7,7.5-13.8,11.9c-2.1,2.2-4,4.6-5.8,7.1c-0.3,0.9-0.5,1.7-0.7,2.6c0,0,0,0,0,0   c-0.2,0.9-0.4,1.7-0.6,2.6c-8,7.3-17.6,18-19.3,26.5c-3,15.7-0.6,41.3-1.9,48.6c-1.8,10.8,4.6,14.5,9.5,18.5   c0.1,0.1,0.1,0.1,0.2,0.2c0.3,0.3,0.6,0.5,0.9,0.8c0,0,0,0,0,0l-1.5,12.1c0,0-37.3,77.9-41.7,145.2c-0.6,8.4,0,16.5,1.3,24.3   c9.6,56.6,63.5,94.6,120.3,86.4c9.1-1.3,17.9-3.1,25.2-5.4c0.4-0.1,0.8-0.3,1.2-0.4c0,0,0,0,0,0c0.2-0.1,0.4-0.1,0.5-0.2   c1.2-0.4,2.4-0.8,3.6-1.3c0.2-0.1,0.4-0.2,0.6-0.2c1.2-0.5,2.4-0.9,3.6-1.4c0.2-0.1,0.4-0.2,0.6-0.3c1.2-0.5,2.3-1,3.5-1.5   c0.2-0.1,0.5-0.2,0.7-0.3c1.1-0.5,2.2-1.1,3.3-1.6c0.3-0.1,0.6-0.3,0.9-0.5c1-0.5,2.1-1.1,3.1-1.6c0.4-0.2,0.8-0.4,1.1-0.7   c0.9-0.5,1.8-1,2.7-1.6c0.6-0.3,1.1-0.7,1.6-1c0.7-0.5,1.5-0.9,2.2-1.4c1.3-0.8,2.5-1.7,3.7-2.5c0,0,0,0,0,0c1-0.7,1.9-1.4,2.8-2.1   c0,0,0,0,0.1-0.1c0.9-0.7,1.8-1.4,2.7-2.1c0,0,0.1-0.1,0.1-0.1c0.9-0.7,1.8-1.4,2.6-2.2c0.1,0,0.1-0.1,0.2-0.1   c0.8-0.7,1.7-1.5,2.5-2.2c0.1-0.1,0.1-0.1,0.2-0.2c0.8-0.7,1.6-1.5,2.4-2.2c0.1-0.1,0.2-0.2,0.3-0.3c0.8-0.7,1.5-1.5,2.3-2.2   c0.1-0.1,0.2-0.2,0.3-0.3c0.7-0.7,1.4-1.5,2.1-2.2c0.1-0.1,0.2-0.3,0.4-0.4c0.7-0.7,1.3-1.5,2-2.2c0.1-0.2,0.3-0.3,0.4-0.5   c0.6-0.7,1.3-1.5,1.9-2.2c0.2-0.2,0.3-0.4,0.5-0.6c0.6-0.7,1.2-1.5,1.7-2.2c0.2-0.2,0.3-0.4,0.5-0.7c0.5-0.7,1.1-1.4,1.6-2.2   c0.2-0.3,0.4-0.5,0.5-0.8c0.5-0.7,1-1.4,1.5-2.2c0.2-0.3,0.4-0.6,0.6-0.9c0.5-0.7,0.9-1.4,1.4-2.1c0.2-0.3,0.4-0.6,0.6-1   c0.4-0.7,0.8-1.4,1.3-2.1c0.2-0.4,0.4-0.7,0.6-1.1c0.4-0.7,0.8-1.3,1.1-2c0.2-0.4,0.4-0.8,0.6-1.2c0.3-0.7,0.7-1.3,1-2   c0.2-0.4,0.4-0.9,0.7-1.3c0.3-0.6,0.6-1.3,0.9-1.9c0.2-0.5,0.4-1,0.7-1.5c0.3-0.6,0.5-1.2,0.8-1.8c0.2-0.5,0.5-1.1,0.7-1.6   c0.2-0.6,0.5-1.1,0.7-1.7c0.2-0.6,0.5-1.3,0.7-1.9c0.2-0.5,0.4-1,0.6-1.5c0.3-0.7,0.5-1.5,0.8-2.2c0.1-0.4,0.3-0.8,0.4-1.2   c0.4-1.2,0.7-2.3,1.1-3.5c2.2-7.8,3.2-14.7,2.1-19.5c-0.3-1.1-0.6-2.1-1.1-3c-0.7-1.3-1.5-2.4-2.2-3.5c-0.8-1.1-1.7-2.1-2.6-3   c-0.8,10.2-5.5,35.7-32.4,57.8c-1.4,1.2-2.9,2.4-4.5,3.5c-39.3,28.9-76.5,1.5-69.7-75.3c7.3-82.3,55.4-118.9,55.4-118.9   s0,0,0.1,0.1c0,0,0,0,0,0c0.1,0.1,0.1,0.2,0.2,0.4l0,0c0,0,0,0,0,0c0.1,0.1,0.2,0.3,0.3,0.4c0,0,0.1,0.1,0.1,0.2   c0.1,0.1,0.2,0.3,0.3,0.5c0.1,0.2,0.3,0.5,0.4,0.7c0,0,0,0,0,0.1c0.2,0.3,0.4,0.6,0.6,1c0,0.1,0.1,0.1,0.1,0.2   c0.2,0.3,0.3,0.6,0.5,0.9c0.1,0.1,0.1,0.2,0.2,0.3c0.2,0.3,0.3,0.6,0.5,1c0.1,0.1,0.1,0.2,0.2,0.4c0.2,0.3,0.4,0.7,0.5,1.1   c0.1,0.1,0.1,0.3,0.2,0.4c0.2,0.4,0.4,0.8,0.5,1.2c0.1,0.2,0.2,0.3,0.2,0.5c0.2,0.4,0.4,0.8,0.6,1.2c0.1,0.2,0.2,0.4,0.2,0.6   c0.2,0.4,0.4,0.9,0.6,1.3c0.1,0.2,0.2,0.4,0.2,0.6c0.2,0.5,0.4,0.9,0.6,1.4c0.1,0.2,0.2,0.4,0.2,0.6c0.2,0.5,0.4,1,0.6,1.5   c0.1,0.2,0.2,0.4,0.2,0.6c0.2,0.5,0.4,1.1,0.6,1.7c0.1,0.2,0.1,0.4,0.2,0.6c0.2,0.6,0.4,1.2,0.6,1.9c0.1,0.2,0.1,0.4,0.2,0.5   c0.2,0.7,0.4,1.5,0.6,2.2c0,0.1,0.1,0.2,0.1,0.3c0.7,2.6,1.4,5.4,1.9,8.4c0,0.2,0.1,0.4,0.1,0.6c0.1,0.8,0.3,1.6,0.4,2.4   c0,0.3,0.1,0.6,0.1,0.9c0.1,0.7,0.2,1.4,0.3,2.1c0,0.4,0.1,0.7,0.1,1.1c0.1,0.7,0.1,1.3,0.2,2c0,0.4,0.1,0.8,0.1,1.2   c0,0.7,0.1,1.3,0.1,2c0,0.4,0,0.9,0,1.3c0,0.7,0,1.3,0,2c0,0.5,0,0.9,0,1.4c0,0.7,0,1.3,0,2c0,0.5,0,1,0,1.4c0,0.7-0.1,1.3-0.1,2   c0,0.5-0.1,1-0.1,1.5c-0.1,0.7-0.1,1.4-0.2,2c-0.1,0.5-0.1,1-0.2,1.5c-0.1,0.7-0.2,1.4-0.3,2.1c-0.1,0.5-0.1,1-0.2,1.5   c-0.1,0.7-0.3,1.5-0.4,2.2c-0.1,0.5-0.2,1-0.3,1.4c-0.2,0.8-0.4,1.7-0.6,2.5c-0.1,0.4-0.2,0.8-0.3,1.2c-0.3,1.2-0.7,2.5-1,3.8   c-8.5,28.1,3.7,41.2,18.7,44.3c5,1,10.4,0.9,15.4-0.2c0,0,0.6-0.6,1-0.9c0.8-0.8,1.7-1.7,2.5-2.6c0.8-1,1.7-2,2.6-3.1   c2.8-3.7,5.7-8.2,8.4-13.8c2.5,5.5,5.2,10,7.8,13.6c0.8,1.1,1.7,2.2,2.5,3.2c0.8,1,1.6,1.9,2.4,2.7c0.3,0.3,0.6,0.6,0.9,0.9   c4.9,1.2,10.3,1.5,15.3,0.6c15-2.6,27.6-15.4,19.8-43.8c-0.3-1.3-0.7-2.5-0.9-3.8c-0.1-0.4-0.2-0.8-0.3-1.2   c-0.2-0.8-0.4-1.7-0.5-2.5c-0.1-0.5-0.2-1-0.2-1.4c-0.1-0.7-0.2-1.5-0.4-2.2c-0.1-0.5-0.1-1-0.2-1.5c-0.1-0.7-0.2-1.4-0.2-2.1   c0-0.5-0.1-1-0.1-1.5c-0.1-0.7-0.1-1.4-0.1-2c0-0.5,0-1-0.1-1.5c0-0.7-0.1-1.3-0.1-2c0-0.5,0-1,0-1.4c0-0.7,0-1.3,0-2   c0-0.5,0-0.9,0-1.4c0-0.7,0.1-1.3,0.1-2c0-0.4,0.1-0.9,0.1-1.3c0-0.7,0.1-1.3,0.2-2c0-0.4,0.1-0.8,0.1-1.2c0.1-0.7,0.2-1.4,0.2-2   c0-0.4,0.1-0.7,0.1-1.1c0.1-0.7,0.2-1.4,0.3-2.1c0-0.3,0.1-0.6,0.1-0.9c0.1-0.8,0.3-1.6,0.4-2.3c0-0.2,0.1-0.4,0.1-0.6   c0.6-2.9,1.3-5.7,2.1-8.3c0-0.1,0.1-0.2,0.1-0.3c0.2-0.8,0.5-1.5,0.7-2.2c0.1-0.2,0.1-0.4,0.2-0.5c0.2-0.6,0.4-1.3,0.6-1.9   c0.1-0.2,0.2-0.4,0.2-0.6c0.2-0.6,0.4-1.1,0.6-1.7c0.1-0.2,0.2-0.4,0.2-0.6c0.2-0.5,0.4-1,0.6-1.5c0.1-0.2,0.2-0.4,0.3-0.6   c0.2-0.5,0.4-1,0.6-1.4c0.1-0.2,0.2-0.4,0.3-0.6c0.2-0.4,0.4-0.9,0.6-1.3c0.1-0.2,0.2-0.4,0.3-0.6c0.2-0.4,0.4-0.8,0.6-1.2   c0.1-0.2,0.2-0.3,0.2-0.5c0.2-0.4,0.4-0.8,0.6-1.1c0.1-0.1,0.2-0.3,0.2-0.4c0.2-0.4,0.4-0.7,0.6-1.1c0.1-0.1,0.1-0.2,0.2-0.4   c0.2-0.3,0.4-0.7,0.5-1c0.1-0.1,0.1-0.2,0.2-0.3c0.2-0.3,0.4-0.6,0.5-0.9c0-0.1,0.1-0.1,0.1-0.2c0.2-0.3,0.4-0.7,0.6-1   c0,0,0,0,0-0.1c0.2-0.3,0.3-0.5,0.5-0.7c0.1-0.2,0.2-0.3,0.3-0.5c0-0.1,0.1-0.1,0.1-0.2c0.1-0.2,0.2-0.3,0.3-0.4c0,0,0,0,0,0l0,0   c0,0,0,0,0,0c0.2-0.3,0.3-0.5,0.3-0.5s47.2,37.8,52.3,120.2c4.8,76.9-33.1,103.4-71.6,73.4c-1.5-1.2-3-2.4-4.4-3.6   c-26.3-22.7-30.4-48.3-30.9-58.6c-0.9,0.9-1.8,1.8-2.7,2.9c-0.8,1-1.6,2.2-2.3,3.4c-0.5,0.9-0.9,1.9-1.2,3   c-1.2,4.8-0.4,11.8,1.6,19.6c0.3,1.2,0.6,2.4,1,3.5c0.1,0.4,0.3,0.8,0.4,1.2c0.2,0.7,0.5,1.5,0.7,2.2c0.2,0.5,0.4,1,0.5,1.5   c0.2,0.6,0.4,1.3,0.7,1.9c0.2,0.6,0.4,1.1,0.7,1.7c0.2,0.6,0.4,1.1,0.6,1.7c0.2,0.6,0.5,1.2,0.8,1.8c0.2,0.5,0.4,1,0.6,1.5   c0.3,0.6,0.6,1.3,0.9,1.9c0.2,0.4,0.4,0.9,0.6,1.3c0.3,0.7,0.6,1.3,1,2c0.2,0.4,0.4,0.8,0.6,1.2c0.4,0.7,0.7,1.4,1.1,2   c0.2,0.4,0.4,0.7,0.6,1.1c0.4,0.7,0.8,1.4,1.2,2.1c0.2,0.3,0.4,0.7,0.6,1c0.4,0.7,0.9,1.4,1.3,2.2c0.2,0.3,0.4,0.6,0.5,0.9   c0.5,0.7,1,1.5,1.4,2.2c0.2,0.3,0.3,0.5,0.5,0.8c0.5,0.7,1,1.5,1.6,2.2c0.2,0.2,0.3,0.5,0.5,0.7c0.6,0.8,1.1,1.5,1.7,2.3   c0.1,0.2,0.3,0.4,0.4,0.6c0.6,0.8,1.2,1.5,1.8,2.3c0.1,0.2,0.3,0.3,0.4,0.5c0.6,0.8,1.3,1.5,1.9,2.3c0.1,0.1,0.2,0.3,0.3,0.4   c0.7,0.8,1.4,1.5,2.1,2.3c0.1,0.1,0.2,0.2,0.3,0.3c0.7,0.8,1.5,1.5,2.2,2.3c0.1,0.1,0.2,0.2,0.3,0.3c0.8,0.8,1.5,1.5,2.3,2.3   c0.1,0.1,0.1,0.1,0.2,0.2c0.8,0.8,1.6,1.5,2.4,2.3c0.1,0,0.1,0.1,0.2,0.1c0.8,0.8,1.7,1.5,2.6,2.2c0,0,0.1,0.1,0.1,0.1   c0.9,0.7,1.8,1.5,2.7,2.2c0,0,0,0,0.1,0.1c0.9,0.7,1.8,1.4,2.8,2.1c0,0,0,0,0,0c1.2,0.9,2.4,1.8,3.7,2.6c0.7,0.5,1.4,0.9,2.1,1.4   c0.5,0.4,1.1,0.7,1.6,1.1c0.9,0.6,1.8,1.1,2.7,1.7c0.4,0.2,0.7,0.5,1.1,0.7c1,0.6,2,1.2,3.1,1.7c0.3,0.2,0.6,0.3,0.9,0.5   c1.1,0.6,2.2,1.1,3.3,1.7c0.2,0.1,0.5,0.2,0.7,0.4c1.1,0.6,2.3,1.1,3.5,1.6c0.2,0.1,0.4,0.2,0.6,0.3c1.2,0.5,2.4,1,3.5,1.5   c0.2,0.1,0.4,0.2,0.6,0.3c1.2,0.5,2.4,0.9,3.6,1.4c0.2,0.1,0.3,0.1,0.5,0.2c0,0,0,0,0,0c0.4,0.1,0.8,0.3,1.2,0.5   c7.2,2.5,16,4.5,25.1,6.1c56.6,9.7,111.4-26.9,122.5-83.2C524.9,476.7,525.6,468.7,525.3,460.2z M487.5,328   c5.3,13.6,11.2,41.1,11.2,41.1s-13.2-40.3-20-54.4c-6.8-14.2-35.9-27.2-35.9-27.2s20.1,6,26.7,9c6.6,3,6-3.3,6-3.3l3,3.2   c1.9,2.1,3.2,4.7,3.5,7.5C482.5,309.3,483.9,318.9,487.5,328z M285.6,242.7c0.7-16.1,7.7-27,14.1-32.7c0.3-0.3,0.6-0.5,1-0.8   c1.4-1.2,2.8-2.1,4.1-2.7c0.3-0.1,0.6-0.3,0.8-0.4c0,0-0.2,0.2-0.6,0.6c-0.7,0.6-1.8,1.8-3.3,3.5c-0.3,0.4-0.6,0.8-1,1.2   c-3.8,5-8.8,13.7-11.1,26.9c-3.9,22.7,6.5,31.3,6.5,31.3S284.7,264.2,285.6,242.7z M111.3,323.6c3.8-9,5.5-18.6,6.2-23.9   c0.4-2.8,1.6-5.4,3.6-7.4l3.1-3.1c0,0-0.7,6.3,5.9,3.5c6.6-2.8,26.9-8.3,26.9-8.3s-29.5,12.2-36.6,26.2   c-7.2,14-21.4,53.9-21.4,53.9S105.6,337,111.3,323.6z M93.6,371.6c0,0,5.1,16.6,27.1,19.6c22,3,43.3-29.1,43.3-29.1   s-18.5,59.3-16.5,97.9c0,0-13.6-22.1-34.6-29.6c-21-7.5-36,4.6-36,4.6S86.6,388.1,93.6,371.6z M184.2,562.9   c0,0-107.9-3.4-105-107.1C79.2,455.8,79.4,543.7,184.2,562.9z M249.9,245.2c-19.3-7-52.5-16.2-81.3-9.2c-24,5.9-39.7,15.6-49,23.2   c-0.6,0.5-1.2,0.8-1.8,1c-3.4,1.3-7.3-0.6-8.4-4.1c-1.5-1.2-2.5-3-2.4-5.1l0.6-19.1c0.2-6.1,2.6-11.9,6.7-16.3   c2.8-3,5.8-5.7,8.8-8.3c41.3-34.4,99.8-25.1,129.5-17.1c2.5,0.7,4.8,1.8,6.8,3.2c1.7,1.2,3.2,2.5,4.4,4.1c0.8,1,1.6,2.1,2.2,3.2   c2.6,3.1,4.2,6.9,4.8,11c0.3,2,0.3,4,0,6.1l-0.4,2.9l-1.9,13.3C267.3,242.8,258.3,248.2,249.9,245.2z M263.1,426.7   c31.5-69.7-3-121.3-1.6-119.7C308.3,360.6,263.1,426.7,263.1,426.7z M312.2,288.1c-0.7,0.9-1.3,1.9-2,2.8c-4,5.4-7.6,11-10.7,16.9   c-2.9-5.8-6.2-11.4-10-16.7c-0.7-0.9-1.3-1.9-1.9-2.8c-0.6-1-1.3-1.9-1.8-2.9c-0.6-1-1.2-2-1.7-2.9c-0.1-0.1-0.1-0.2-0.2-0.3   c4.3,1.7,8.3,3.3,12.1,4.6c0.3,0.1,0.6,0.2,0.9,0.2c0.1,0,0.2,0,0.3,0c0.2,0,0.4,0.1,0.6,0.1c0.1,0,0.2,0,0.4,0c0.2,0,0.4,0,0.5,0   c0.1,0,0.3,0,0.4,0c0.2,0,0.3,0,0.5,0c0.1,0,0.3,0,0.4-0.1c0.2,0,0.3-0.1,0.5-0.1c0.1,0,0.3-0.1,0.4-0.1c0.1,0,0.2-0.1,0.3-0.1   c0.2,0,0.3,0,0.5,0c0.1,0,0.2,0,0.4,0c0.2,0,0.4,0,0.6-0.1c0.1,0,0.2,0,0.3,0c0.3-0.1,0.6-0.1,0.9-0.2c3.9-1.2,7.9-2.7,12.2-4.3   c-0.1,0.1-0.1,0.2-0.2,0.3c-0.6,1-1.1,1.9-1.8,2.9C313.5,286.2,312.9,287.1,312.2,288.1z M333.1,427.1c0,0-43.5-67.2,4.7-119.6   C339.3,306,303.4,356.7,333.1,427.1z M351,246c-8.4,2.8-17.3-2.8-18.3-11.7l-1.5-13.3l-0.3-2.9c-0.2-2.1-0.2-4.1,0.1-6.1   c0.7-4.1,2.5-7.8,5.1-10.9c3-4.9,7.8-8.7,13.7-10.1c29.8-7.2,88.6-15.1,129,20.4c3,2.6,5.8,5.4,8.6,8.5c4,4.5,6.2,10.4,6.3,16.4   l0.1,19.2c0,2.2-1,4-2.5,5.1c-1.1,3.5-5.1,5.3-8.5,3.9c-0.6-0.3-1.2-0.6-1.7-1.1c-9.1-7.8-24.6-17.9-48.4-24.4   C403.9,231.1,370.4,239.5,351,246z M408.5,565.3C513.7,548.8,516.2,461,516.2,461C516.4,564.7,408.5,565.3,408.5,565.3z    M483.2,434.8c-21.1,6.9-35.3,28.7-35.3,28.7c3.1-38.6-13.9-98.3-13.9-98.3s20.4,32.6,42.5,30.2c22.1-2.4,27.6-18.9,27.6-18.9   c6.5,16.6,15.1,63.9,15.1,63.9S504.3,427.9,483.2,434.8z" originalFill="#BA232A"/>
	<path opacity="0.2" d="M297.9,311C297.9,311,297.9,311,297.9,311c-0.4,0.9-0.8,1.8-1.3,2.7C297,312.7,297.5,311.8,297.9,311z" fill="#000000" originalFill="#000000"/>
	<path fill="#BA232A" d="M288.4,449.6C288.4,449.6,288.4,449.6,288.4,449.6C288.4,449.6,288.4,449.6,288.4,449.6   C288.4,449.6,288.4,449.6,288.4,449.6z" originalFill="#BA232A"/>
	<path fill="#FFFFFF" d="M333,215c-0.6-5,0.6-9.9,3-13.9c3-4.9,7.8-8.7,13.7-10.1c29.8-7.2,88.6-15.1,129,20.4   c3,2.6,5.8,5.4,8.6,8.5c4,4.5,6.2,10.4,6.3,16.4l0.1,19.2c0,2.2-1,4-2.5,5.1c-2.2,1.7-5.5,1.9-8-0.3c-0.3-0.2-0.5-0.5-0.8-0.7   c-9.2-7.7-24.4-17.4-47.6-23.8c-28.6-7.8-62.1,0.5-81.5,7.1c-8.4,2.8-17.3-2.8-18.3-11.7L333,215z M109.5,256.1   c2.2,1.7,5.5,2,8-0.1c0.3-0.2,0.6-0.4,0.8-0.7c9.4-7.5,24.9-16.8,48.2-22.5c28.8-7.1,62.1,2.1,81.3,9.2c8.3,3.1,17.4-2.4,18.6-11.2   l2.3-16.2c0.7-5-0.3-9.9-2.7-14c-0.6-1.1-1.4-2.2-2.2-3.2c-1.3-1.5-2.8-2.9-4.4-4.1c-2-1.4-4.3-2.5-6.8-3.2   c-29.6-8-88.1-17.3-129.5,17.1c-3,2.5-6,5.3-8.8,8.3c-4.1,4.4-6.5,10.2-6.7,16.3l-0.6,19.1C107,253.2,108,255,109.5,256.1z    M305.6,206.1c-0.3,0.1-0.6,0.3-0.8,0.4c-1.3,0.6-2.7,1.5-4.1,2.7c-0.3,0.3-0.6,0.5-1,0.8c-6.4,5.7-13.4,16.6-14.1,32.7   c-0.9,21.4,10.5,26.8,10.5,26.8s-10.4-8.6-6.5-31.3c2.3-13.2,7.3-21.9,11.1-26.9c0.3-0.4,0.7-0.9,1-1.2c1.4-1.7,2.6-2.9,3.3-3.5   C305.4,206.2,305.6,206.1,305.6,206.1z M296.4,206.4C296.4,206.4,296.3,206.4,296.4,206.4C296.3,206.4,296.3,206.4,296.4,206.4   C296.4,206.4,296.4,206.4,296.4,206.4z M261.5,307c-1.4-1.6,33.2,50,1.6,119.7C263.1,426.7,308.3,360.6,261.5,307z M337.8,307.5   c-48.2,52.4-4.7,119.6-4.7,119.6C303.4,356.7,339.3,306,337.8,307.5z M476.4,395.3c-22.1,2.4-42.5-30.2-42.5-30.2   s17,59.7,13.9,98.3c0,0,14.2-21.8,35.3-28.7c21.1-6.9,35.9,5.6,35.9,5.6s-8.5-47.3-15.1-63.9C504,376.5,498.5,392.9,476.4,395.3z    M482,303.9c-0.3-2.8-1.5-5.5-3.5-7.5l-3-3.2c0,0,0.5,6.3-6,3.3c-6.6-3-26.7-9-26.7-9s29.1,13,35.9,27.2c6.8,14.2,20,54.4,20,54.4   s-5.8-27.6-11.2-41.1C483.9,318.9,482.5,309.3,482,303.9z M112.9,430.5c21,7.5,34.6,29.6,34.6,29.6c-2.1-38.6,16.5-97.9,16.5-97.9   s-21.3,32.1-43.3,29.1c-22-3-27.1-19.6-27.1-19.6c-7,16.4-16.7,63.5-16.7,63.5S91.9,423,112.9,430.5z M411.6,440.2   c-5.2-82.5-52.3-120.2-52.3-120.2s-0.1,0.2-0.3,0.5c0,0,0,0,0,0c0,0.1-0.1,0.3-0.1,0.5c0,0.2,0,0.4,0,0.7c0,0,0,0.1,0,0.1   c0,0.3,0,0.6,0,0.9c0,0.5,0,1,0.1,1.6c0,0.5,0.1,1,0.1,1.6c0,0,0,0.1,0,0.1c0.1,0.7,0.1,1.5,0.2,2.4c0.1,0.6,0.1,1.2,0.2,1.9   c0.2,2.1,0.4,4.4,0.7,6.6c0,0,0,0,0,0c0.1,0.5,0.1,1.1,0.2,1.6c0.1,0.8,0.2,1.6,0.3,2.4c0.1,0.7,0.2,1.3,0.2,2   c0,0.3,0.1,0.6,0.1,0.9c0.1,0.4,0.1,0.9,0.2,1.3c0.1,1.2,0.3,2.3,0.4,3.3c0.1,1,0.2,1.9,0.3,2.6c0,0.4,0.1,0.8,0.1,1.1   c0.7,7,1.5,14.2,5.2,20.2c3.6,6,10.9,10.4,17.6,8.3c-0.4,6.6-8.8,11.2-14.6,8c2.4,8.2,9.9,14.7,18.4,15.8c-5,3.4-12.2,3.2-17.1-0.4   c3.8,7.3,10.1,13.3,17.6,16.9c-3.5,0.6-7.3,1.3-9.8,3.9c-4.1,4.2-2.8,11-4.2,16.7c-1.4,5.8-5.5,10.4-9.7,14.5   c-4.2,4.1-8.8,8.1-11.6,13.3c-2.8,5.2-3.3,12.2,0.6,16.7c-4.6,0.6-8.8-3.5-10.1-8c-1.3-4.5-0.3-9.3,0.6-13.9   c-4.6,2.9-7.9,7.8-9,13.1c0.5-6.2-1.2-12.4-4.5-17.6c-2.1-3.4-5-6.3-8.3-8.5c-2.3-1.5-4.8-2.7-7.6-2.9c-2.8-0.3-5.5,0.4-8.1,1.6   l0,0c0,0,0,0,0,0c-0.4,0.3-0.8,0.6-1.2,0.9c-0.4,0.3-0.8,0.7-1.3,1.1l0,0l0,0v0c0.5,10.2,4.5,35.8,30.9,58.6   c1.4,1.2,2.9,2.4,4.4,3.6C378.5,543.6,416.4,517.2,411.6,440.2z M408.5,565.3c0,0,108-0.6,107.7-104.4   C516.2,461,513.7,548.8,408.5,565.3z M79.2,455.8c-2.9,103.7,105,107.1,105,107.1C79.4,543.7,79.2,455.8,79.2,455.8z M157.1,284.3   c0,0-20.3,5.5-26.9,8.3c-6.6,2.8-5.9-3.5-5.9-3.5l-3.1,3.1c-2,2-3.3,4.6-3.6,7.4c-0.7,5.3-2.3,14.9-6.2,23.9   c-5.7,13.4-12.2,40.8-12.2,40.8s14.2-39.9,21.4-53.9C127.6,296.6,157.1,284.3,157.1,284.3z M290.9,451.7c-0.4-0.4-0.8-0.8-1.2-1.1   c-0.1-0.1-0.1-0.1-0.2-0.2c-0.3-0.3-0.7-0.6-1-0.8c0,0,0,0,0,0l0,0c-2.5-1.2-5.3-2-8-1.8c-2.7,0.2-5.3,1.3-7.6,2.8   c-3.4,2.1-6.3,5-8.5,8.3c-3.4,5.1-5.3,11.3-5,17.5c-0.9-5.4-4.1-10.3-8.7-13.3c0.8,4.6,1.6,9.4,0.2,13.9c-1.4,4.5-5.7,8.4-10.3,7.7   c3.9-4.4,3.6-11.4,1-16.7c-2.6-5.3-7.1-9.4-11.3-13.6c-4.1-4.2-8.1-9-9.3-14.8c-1.2-5.7,0.2-12.5-3.7-16.8   c-2.4-2.6-6.2-3.4-9.7-4.1c7.5-3.4,14-9.2,18-16.5c-5,3.5-12.1,3.5-17.1,0c8.5-0.9,16.3-7.2,18.8-15.3c-5.9,3-14.1-1.8-14.4-8.4   c6.6,2.2,14.1-2,17.8-7.9c3.8-5.9,4.8-13.1,5.7-20c0-0.1,0-0.3,0.1-0.5c0.1-1,0.4-2.5,0.6-4.4c0-0.3,0.1-0.6,0.1-0.9   c0.1-0.5,0.1-1,0.2-1.6c0.1-0.6,0.2-1.3,0.3-2c0.3-2,0.6-4.2,0.9-6.3c0.1-0.4,0.1-0.9,0.2-1.3c0.1-1,0.3-1.9,0.4-2.8   c0-0.3,0.1-0.5,0.1-0.8c0.1-1,0.2-1.9,0.3-2.8c0-0.3,0.1-0.7,0.1-1c0.1-1.3,0.3-2.5,0.3-3.5c0-0.4,0.1-0.7,0.1-1.1   c0-0.4,0-0.8,0-1.1c0-0.6,0-1-0.1-1.2c0,0,0,0,0,0c-0.1-0.2-0.2-0.3-0.2-0.4c0,0,0,0,0,0c0-0.1-0.1-0.1-0.1-0.1   s-48.1,36.6-55.4,118.9c-6.8,76.8,30.4,104.2,69.7,75.3c1.6-1.2,3.1-2.3,4.5-3.5C285.4,487.4,290.1,461.9,290.9,451.7L290.9,451.7   L290.9,451.7L290.9,451.7C290.9,451.7,290.9,451.7,290.9,451.7z M240.1,319.4C240.1,319.4,240.1,319.4,240.1,319.4L240.1,319.4   C240.1,319.4,240.1,319.4,240.1,319.4C240.1,319.4,240.1,319.4,240.1,319.4C240.1,319.4,240.1,319.4,240.1,319.4   C240.1,319.4,240,319.4,240.1,319.4L240.1,319.4L240.1,319.4C240,319.4,240,319.4,240.1,319.4z M358.9,320.4L358.9,320.4   C358.9,320.4,358.9,320.4,358.9,320.4C358.9,320.4,358.9,320.4,358.9,320.4L358.9,320.4C358.9,320.4,358.9,320.4,358.9,320.4z" originalFill="#FFFFFF"/>
	<path opacity="0.2" d="M289.7,450.6C289.7,450.6,289.7,450.6,289.7,450.6c0.3,0.3,0.7,0.6,1,0.9C290.4,451.2,290,450.9,289.7,450.6   z" fill="#000000" originalFill="#000000"/>
	<path opacity="0.2" d="M290.9,451.7C290.9,451.7,290.9,451.7,290.9,451.7c-0.1-0.1-0.1-0.1-0.2-0.2   C290.8,451.6,290.8,451.6,290.9,451.7C290.9,451.7,290.9,451.7,290.9,451.7z" fill="#000000" originalFill="#000000"/>
	<path opacity="0.2" d="M289.7,450.6c-0.1-0.1-0.1-0.1-0.2-0.2c-0.3-0.3-0.7-0.6-1-0.8c0,0,0,0,0,0c0,0,0,0,0,0   c0.2,0.1,0.4,0.3,0.5,0.4C289.2,450.2,289.4,450.4,289.7,450.6z" fill="#000000" originalFill="#000000"/>
	<path opacity="0.2" d="M305.9,450.3c0.3-0.3,0.7-0.5,1-0.8C306.6,449.8,306.3,450.1,305.9,450.3L305.9,450.3z" fill="#000000" originalFill="#000000"/>
	<path opacity="0.2" d="M305.9,450.3C305.9,450.3,305.9,450.3,305.9,450.3C305.9,450.3,305.9,450.3,305.9,450.3   c-0.4,0.3-0.8,0.7-1.3,1.1l0,0c0,0,0,0,0,0c0,0,0,0,0.1-0.1C305.2,451,305.5,450.7,305.9,450.3   C305.9,450.3,305.9,450.3,305.9,450.3z" fill="#000000" originalFill="#000000"/>
	<path opacity="0.2" d="M316.1,194.3L293.6,59l1.8-9.8L307,80.7l18.1,108.7c0,0,0,0,0,0c0.3-0.3,0.6-0.6,0.9-0.9   c0.3-0.3,0.6-0.6,1-0.9c0.4-0.4,0.8-0.8,1.2-1.1c0.2-0.2,0.4-0.4,0.7-0.6c0.5-0.4,1-0.8,1.5-1.2c0.1-0.1,0.2-0.2,0.3-0.3   c0,0,0.1-0.1,0.1-0.1c0.2-0.2,0.5-0.4,0.7-0.6c0.3-0.2,0.5-0.4,0.8-0.6c0.1-0.1,0.2-0.1,0.3-0.2c0.1,0,0.1-0.1,0.2-0.1   c0.4-0.3,0.8-0.6,1.3-0.9c0.1-0.1,0.3-0.2,0.4-0.3c0.1,0,0.1-0.1,0.2-0.1c0.1,0,0.1-0.1,0.2-0.1c0.5-0.4,1-0.7,1.6-1.1   c0.1-0.1,0.1-0.1,0.2-0.2c0,0,0.1,0,0.1-0.1c0,0,0.1,0,0.1-0.1c0.6-0.4,1.2-0.8,1.8-1.2c0.1,0,0.1-0.1,0.2-0.1l0,0   c0.8-0.5,1.7-1,2.5-1.5c0,0,0,0,0.1,0c0.3-0.2,0.6-0.3,0.9-0.5c0.5-0.3,1-0.6,1.5-0.9c0.1,0,0.2-0.1,0.2-0.1   c0.8-0.4,1.5-0.8,2.3-1.2c0.1-0.1,0.3-0.1,0.4-0.2c0.7-0.4,1.5-0.7,2.2-1.1c0.2-0.1,0.4-0.2,0.5-0.2c0.5-0.2,1-0.4,1.5-0.7   c0.2-0.1,0.4-0.2,0.6-0.3c0.2-0.1,0.4-0.2,0.6-0.3c0.7-0.3,1.3-0.6,2-0.8c0.2-0.1,0.5-0.2,0.7-0.3c0.7-0.3,1.4-0.5,2.1-0.8   c0.2-0.1,0.5-0.2,0.7-0.3c0.9-0.3,1.8-0.7,2.8-1c3.8-1.3,7.6-2.4,11.5-3.3c2.9-0.7,5.9-1.2,8.9-1.7c1-0.2,2-0.3,3.1-0.4   c2-0.2,3.9-0.4,5.9-0.6c0,0,0,0,0,0c6-0.5,12-0.4,18,0.1c1,0.1,1.9,0.2,2.9,0.3c0.3,0,0.6,0.1,0.8,0.1c0.7,0.1,1.4,0.2,2.1,0.3   c0.3,0,0.6,0.1,0.8,0.1c1.9,0.3,3.8,0.7,5.6,1.2c0.3,0.1,0.6,0.1,0.8,0.2c0.7,0.2,1.4,0.4,2.1,0.5c0.3,0.1,0.5,0.1,0.8,0.2   c0.9,0.3,1.8,0.5,2.8,0.8c2,0.6,4,1.3,6,2.1c0.9,0.3,1.8,0.7,2.6,1.1c1.7,0.7,3.5,1.5,5.2,2.3c2.6,1.2,5.1,2.6,7.5,4   c0.8,0.5,1.6,1,2.4,1.5c0.6,0.4,1.3,0.8,1.9,1.2c1.3,0.8,2.5,1.7,3.8,2.6c0.6,0.4,1.2,0.9,1.9,1.3c2.5,1.8,4.8,3.7,7.1,5.8   c2.3,2,4.4,4.2,6.4,6.5c2,2.3,3.9,4.7,5.6,7.2c0.2,0.9,0.4,1.7,0.6,2.6c0,0,0,0,0,0c0.2,0.9,0.4,1.7,0.5,2.6   c-0.4-0.4-0.9-0.8-1.3-1.3c0,0-0.1-0.1-0.1-0.1c-0.8-0.8-1.7-1.5-2.4-2.2c-0.1-0.1-0.2-0.1-0.2-0.2c-0.4-0.3-0.7-0.6-1.1-0.9   c-0.3-0.3-0.7-0.6-1-0.9c-0.1-0.1-0.2-0.2-0.4-0.3c-0.2-0.2-0.5-0.4-0.7-0.6c-0.2-0.1-0.3-0.3-0.5-0.4c-0.2-0.2-0.4-0.4-0.7-0.5   c-0.2-0.1-0.3-0.3-0.5-0.4c-0.2-0.2-0.4-0.4-0.7-0.5c-0.2-0.1-0.4-0.3-0.5-0.4c-0.2-0.2-0.4-0.3-0.7-0.5c-0.2-0.2-0.4-0.3-0.6-0.5   c-0.2-0.2-0.5-0.4-0.7-0.6c-0.4-0.3-0.8-0.6-1.1-0.9c-0.2-0.2-0.4-0.3-0.6-0.5c-0.2-0.2-0.5-0.4-0.8-0.6c-0.2-0.1-0.4-0.3-0.6-0.4   c-0.3-0.2-0.5-0.4-0.8-0.6c-0.2-0.1-0.4-0.3-0.6-0.4c-0.3-0.2-0.6-0.4-0.9-0.6c-0.2-0.1-0.4-0.2-0.5-0.4c-0.3-0.2-0.6-0.4-0.9-0.6   c-0.1-0.1-0.3-0.2-0.4-0.3c-1.7-1.1-3.4-2.3-5.3-3.4c-0.1-0.1-0.2-0.1-0.3-0.2c-0.4-0.3-0.8-0.5-1.3-0.8c-0.1-0.1-0.2-0.1-0.4-0.2   c-0.4-0.3-0.9-0.5-1.3-0.8c-0.1-0.1-0.2-0.1-0.3-0.2c-3.1-1.8-6.5-3.5-10.1-5.1c0,0,0,0-0.1,0c-21.1-9.4-49.8-14.6-86.6-3.1   c-3,0.9-6.1,2-9.2,3.2c-6.1,2.3-12.4,5.1-18.9,8.3c0,0-0.1,0-0.1,0.1c0,0,0,0,0,0C322.1,191,319.1,192.6,316.1,194.3z M281.2,446.2   c0.7,0.2,1.4,0.4,2.1,0.7c0,0,0.1,0,0.1,0.1c0.4,0.1,0.7,0.3,1.1,0.5c0.1,0,0.1,0.1,0.2,0.1c0.2,0.1,0.4,0.2,0.6,0.3   c-0.1,0-0.2-0.1-0.3-0.1c-0.4-0.2-0.7-0.3-1.1-0.5c-0.4-0.2-0.9-0.3-1.3-0.5c-0.1,0-0.2-0.1-0.4-0.1   C282,446.4,281.6,446.3,281.2,446.2L281.2,446.2z M285.9,448c0.1,0,0.1,0.1,0.2,0.1c0.4,0.2,0.7,0.4,1.1,0.6c0.1,0,0.1,0.1,0.2,0.1   c0.3,0.2,0.5,0.3,0.8,0.5c-0.4-0.3-0.9-0.6-1.3-0.9c-0.5-0.3-0.9-0.5-1.4-0.8c0,0,0,0,0,0c0,0,0,0,0,0c0,0,0,0,0,0c0,0,0,0,0,0   c0,0,0,0,0,0C285.5,447.8,285.7,447.9,285.9,448z M125.3,201.7c0.9-0.8,1.7-1.5,2.5-2.1c0.1-0.1,0.2-0.1,0.2-0.2   c0.4-0.3,0.8-0.6,1.1-0.9c0.3-0.3,0.7-0.6,1.1-0.8c0.1-0.1,0.3-0.2,0.4-0.3c0.2-0.2,0.5-0.4,0.7-0.6c0.2-0.1,0.3-0.2,0.5-0.4   c0.2-0.2,0.5-0.3,0.7-0.5c0.2-0.1,0.3-0.3,0.5-0.4c0.2-0.2,0.5-0.3,0.7-0.5c0.2-0.1,0.4-0.3,0.6-0.4c0.2-0.2,0.5-0.3,0.7-0.5   c0.2-0.1,0.4-0.3,0.6-0.4c0.2-0.2,0.5-0.4,0.7-0.5c0.4-0.3,0.8-0.6,1.2-0.8c0.2-0.2,0.4-0.3,0.6-0.5c0.3-0.2,0.5-0.4,0.8-0.5   c0.2-0.1,0.4-0.3,0.6-0.4c0.3-0.2,0.5-0.4,0.8-0.6c0.2-0.1,0.4-0.3,0.6-0.4c0.3-0.2,0.6-0.4,0.9-0.6c0.2-0.1,0.4-0.2,0.5-0.4   c0.3-0.2,0.6-0.4,1-0.6c0.1-0.1,0.3-0.2,0.4-0.3c1.7-1.1,3.5-2.2,5.3-3.2c0.1-0.1,0.2-0.1,0.3-0.2c0.4-0.2,0.9-0.5,1.3-0.7   c0.1-0.1,0.2-0.1,0.4-0.2c0.4-0.2,0.9-0.5,1.3-0.7c0.1-0.1,0.2-0.1,0.3-0.2c3.2-1.7,6.6-3.3,10.2-4.8c0,0,0,0,0.1,0   c20.3-8.4,47.4-12.9,81.4-2.5c3,0.9,6.1,2,9.2,3.1c2.6,1,5.2,2,7.8,3.1c3,1.3,6,2.7,9.1,4.2c2.3,1.1,4.6,2.3,7,3.6c0,0,0,0,0,0   c0-0.1-0.1-0.1-0.1-0.2c-0.3-0.3-0.6-0.6-0.9-0.9c-0.3-0.3-0.6-0.7-0.9-1c-0.4-0.4-0.8-0.8-1.2-1.2c-0.2-0.2-0.4-0.4-0.6-0.6   c-0.5-0.4-0.9-0.9-1.4-1.3c-0.1-0.1-0.2-0.2-0.3-0.3c0,0-0.1-0.1-0.1-0.1c-0.2-0.2-0.5-0.4-0.7-0.6c0,0-0.1-0.1-0.1-0.1   c-0.2-0.2-0.5-0.4-0.7-0.6c-0.1-0.1-0.2-0.2-0.3-0.2c-0.1,0-0.1-0.1-0.2-0.1c-0.4-0.3-0.8-0.6-1.2-1c-0.1-0.1-0.2-0.2-0.4-0.3   c-0.1,0-0.1-0.1-0.2-0.1c-0.1,0-0.1-0.1-0.2-0.1c-0.5-0.4-1-0.8-1.5-1.1c-0.1-0.1-0.1-0.1-0.2-0.2c0,0-0.1,0-0.1-0.1   c0,0-0.1,0-0.1-0.1c-0.6-0.4-1.2-0.8-1.7-1.2c-0.1,0-0.1-0.1-0.2-0.1l0,0c-0.6-0.4-1.2-0.8-1.8-1.1c-0.2-0.2-0.5-0.3-0.7-0.5   c0,0,0,0-0.1,0c-0.8-0.5-1.6-1-2.4-1.4c-0.1,0-0.2-0.1-0.2-0.1c-0.8-0.4-1.5-0.9-2.3-1.3c-0.1-0.1-0.3-0.1-0.4-0.2   c-0.3-0.1-0.5-0.3-0.8-0.4l19-61.8L289,30c0-0.2,0.1-0.4,0.2-0.7c0,0,0,0.1,0,0.1l-42.9,139.4c-0.2-0.1-0.3-0.1-0.5-0.2   c-0.2-0.1-0.5-0.2-0.7-0.3c-0.9-0.4-1.8-0.7-2.7-1c-3.7-1.4-7.6-2.6-11.4-3.6c-2.9-0.8-5.8-1.4-8.8-1.9c-1-0.2-2-0.4-3.1-0.5   c-1.9-0.3-3.9-0.5-5.9-0.7c0,0,0,0,0,0c-3-0.3-6-0.5-9-0.5c-3-0.1-6,0-9,0.2c-1,0.1-1.9,0.1-2.9,0.2c-0.3,0-0.6,0.1-0.8,0.1   c-0.7,0.1-1.4,0.2-2.1,0.3c-0.3,0-0.6,0.1-0.8,0.1c-0.9,0.1-1.9,0.3-2.8,0.5c-0.9,0.2-1.9,0.4-2.8,0.6c-0.3,0.1-0.6,0.1-0.8,0.2   c-0.7,0.2-1.4,0.3-2.1,0.5c-0.3,0.1-0.6,0.1-0.8,0.2c-0.9,0.2-1.8,0.5-2.8,0.7c0,0,0,0,0,0c-2,0.6-4.1,1.2-6.1,2   c-0.9,0.3-1.8,0.7-2.7,1c-1.8,0.7-3.5,1.4-5.2,2.2c-2.6,1.2-5.1,2.4-7.6,3.8c-0.8,0.5-1.7,0.9-2.5,1.4c-0.7,0.4-1.3,0.8-2,1.2   c-1.3,0.8-2.6,1.6-3.8,2.5c-0.6,0.4-1.3,0.9-1.9,1.3c-1.2,0.9-2.5,1.8-3.7,2.7c-2.4,1.9-4.7,3.9-6.9,6c-1.1,1.1-2.2,2.1-3.2,3.3   c-2.1,2.2-4,4.6-5.8,7.1c-0.3,0.9-0.5,1.7-0.7,2.6c0,0,0,0,0,0c-0.2,0.9-0.4,1.7-0.6,2.6c0.5-0.4,0.9-0.8,1.4-1.2   C125.2,201.8,125.2,201.7,125.3,201.7z M296.4,459.6c-0.2-0.5-0.4-1-0.6-1.4c-0.4-0.6-0.7-1.3-1.1-1.8c-0.4-0.6-0.8-1.1-1.1-1.7   c-0.4-0.6-0.8-1.1-1.3-1.6c-0.4-0.5-0.9-1-1.3-1.4l0,0c-0.8,10.2-5.5,35.7-32.4,57.8c-2.6,6.3-6.1,12.7-10.8,18.9   c-11.1,14.6-21.4,24.6-29.6,31.3c0,0,0,0,0,0c1.1-0.4,2.2-0.8,3.3-1.1c0.3-0.1,0.6-0.2,0.9-0.3c0.2-0.1,0.4-0.2,0.6-0.2   c1.2-0.5,2.4-0.9,3.6-1.4c0.2-0.1,0.4-0.2,0.6-0.3c1.2-0.5,2.3-1,3.5-1.5c0.2-0.1,0.5-0.2,0.7-0.3c1.1-0.5,2.2-1.1,3.3-1.6   c0.3-0.1,0.6-0.3,0.9-0.5c0.5-0.3,1-0.6,1.6-0.8c0.5-0.3,1-0.5,1.5-0.8c0.4-0.2,0.8-0.4,1.1-0.7c0.3-0.2,0.6-0.3,0.9-0.5   c0.6-0.4,1.2-0.7,1.8-1.1c0.6-0.3,1.1-0.7,1.6-1c0.1-0.1,0.2-0.1,0.3-0.2c0.6-0.4,1.3-0.8,1.9-1.2c0.2-0.2,0.5-0.3,0.7-0.5   c1-0.7,2-1.3,3-2c0,0,0,0,0,0c1-0.7,1.9-1.4,2.8-2.1c0,0,0,0,0.1-0.1c0.9-0.7,1.8-1.4,2.7-2.1c0,0,0.1-0.1,0.1-0.1   c0.9-0.7,1.8-1.4,2.6-2.2c0.1,0,0.1-0.1,0.2-0.1c0.8-0.7,1.7-1.5,2.5-2.2c0.1-0.1,0.1-0.1,0.2-0.2c0.8-0.7,1.6-1.5,2.4-2.2   c0.1-0.1,0.2-0.2,0.3-0.3c0.8-0.7,1.5-1.5,2.3-2.2c0.1-0.1,0.2-0.2,0.3-0.3c0.7-0.7,1.4-1.5,2.1-2.2c0.1-0.1,0.2-0.3,0.4-0.4   c0.7-0.7,1.3-1.5,2-2.2c0.1-0.2,0.3-0.3,0.4-0.5c0.6-0.7,1.3-1.5,1.9-2.2c0.2-0.2,0.3-0.4,0.5-0.6c0.6-0.7,1.2-1.5,1.7-2.2   c0.2-0.2,0.3-0.4,0.5-0.7c0.5-0.7,1.1-1.4,1.6-2.2c0.2-0.3,0.4-0.5,0.5-0.8c0.5-0.7,1-1.4,1.5-2.2c0.2-0.3,0.4-0.6,0.6-0.9   c0.5-0.7,0.9-1.4,1.4-2.1c0.2-0.3,0.4-0.6,0.6-1c0.4-0.7,0.8-1.4,1.3-2.1c0.2-0.4,0.4-0.7,0.6-1.1c0.4-0.7,0.8-1.3,1.1-2   c0.2-0.4,0.4-0.8,0.6-1.2c0.3-0.7,0.7-1.3,1-2c0.2-0.4,0.4-0.9,0.7-1.3c0.3-0.6,0.6-1.3,0.9-1.9c0.2-0.5,0.4-1,0.7-1.5   c0.3-0.6,0.5-1.2,0.8-1.8c0.2-0.5,0.5-1.1,0.7-1.6c0.2-0.6,0.5-1.1,0.7-1.7c0.2-0.6,0.5-1.3,0.7-1.9c0.2-0.5,0.4-1,0.6-1.5   c0.3-0.7,0.5-1.5,0.8-2.2c0.1-0.4,0.3-0.8,0.4-1.2c0.4-1.2,0.7-2.3,1.1-3.5c2.2-7.8,3.2-14.7,2.1-19.5   C296.7,460.7,296.6,460.2,296.4,459.6z M244.3,350.3c0,0-2.3,27.1-8.9,41.3c-6.8,14.6-12.8,41.2,2.7,53.2c11.1,8.6,20,6,24,3.8   c1.6-0.9,2.5-1.6,2.5-1.6s-0.7,0.3-1.8,0.6c-4.3,1.2-15.5,2.7-24.8-8.9c-11.8-14.7,1.7-50.2,1.7-50.2S246.1,368.9,244.3,350.3z    M310.6,447.5c-0.1,0-0.2,0.1-0.3,0.1c0.2-0.1,0.4-0.2,0.6-0.2c0.1,0,0.1-0.1,0.2-0.1c0.4-0.2,0.7-0.3,1.1-0.4c0.1,0,0.1,0,0.2-0.1   c0.7-0.3,1.4-0.5,2.1-0.6c0,0,0,0,0,0c-0.4,0.1-0.7,0.2-1.1,0.3c-0.1,0-0.2,0.1-0.4,0.1c-0.4,0.1-0.9,0.3-1.3,0.4   C311.3,447.1,311,447.3,310.6,447.5z M497.5,287.7c-0.7,7.1-5.9,10.2-10.1,13.4c-0.1,0.1-0.1,0.1-0.2,0.2c-0.3,0.2-0.6,0.5-0.9,0.7   c0,0,0,0,0,0l0,0c0,0-0.6-0.8-1.7-2.2c-3.4-4.2-12-13.5-25.7-21.9c-1.8-1.1-3.7-2.2-5.7-3.3c-2-1.1-4.1-2.1-6.3-3   c-2.2-1-4.5-1.9-6.8-2.8c-3.5-1.3-7.3-2.4-11.2-3.4c-4-1-8.1-1.7-12.5-2.2c-10.6-1.3-20.6-1.3-30.1-0.4c-2.7,0.2-5.4,0.6-8,0.9   c-2.6,0.4-5.2,0.8-7.8,1.3c-2.6,0.5-5.1,1-7.5,1.6c-1.2,0.3-2.5,0.6-3.7,0.9c-3.6,0.9-7.2,1.9-10.6,3c-1.1,0.4-2.3,0.7-3.4,1.1   c-2.3,0.7-4.5,1.5-6.6,2.2c-0.4,0.1-0.8,0.3-1.2,0.4c0.2,6-0.5,11-2.9,14.7c-4.1,6.5-18.2,25.9-23.8,54.8   c-2.2,11.7-3.1,24.9-1.4,39.4c2,16.8,7.4,35.4,18.2,55.4c-5.1,0.9-10.4,0.6-15.3-0.6c-0.3-0.3-0.6-0.6-0.9-0.9   c-0.6-0.6-1.2-1.3-1.8-2c-0.4-0.5-0.9-1-1.3-1.6c-0.6-0.7-1.2-1.5-1.8-2.3c-2.7-3.6-5.3-8.1-7.8-13.6c-2.7,5.6-5.6,10.2-8.4,13.8   c-0.9,1.1-1.7,2.1-2.6,3.1c-0.8,1-1.7,1.8-2.5,2.6c-0.4,0.4-0.8,0.8-1.2,1.2c-0.2,0.2-0.4,0.4-0.6,0.6c0.3-0.3,0.6-0.5,0.9-0.8   c-5,1.1-10.3,1.2-15.4,0.2c11.4-19.9,17.3-38.6,19.7-55.4c-0.3-2.1-0.6-4.2-0.9-6.3c-0.6-5.4-0.9-10.6-0.9-15.5   c0-3.2,0.1-6.3,0.3-9.5c0.2-2.7,0.6-5.4,1-8.1c-4.9-28.8-18.3-48.4-22.3-55c-2.3-3.7-2.8-8.7-2.5-14.8c-0.4-0.2-0.8-0.3-1.2-0.5   c-2.2-0.8-4.3-1.6-6.6-2.4c-1.1-0.4-2.2-0.8-3.4-1.2c-3.4-1.1-6.9-2.2-10.5-3.3c-1.2-0.3-2.4-0.7-3.6-1c-2.5-0.6-4.9-1.2-7.5-1.8   c-2.5-0.5-5.1-1-7.7-1.5c-2.6-0.4-5.3-0.8-8-1.1c-9.5-1.1-19.5-1.4-30.1-0.4c-4.4,0.4-8.5,1.1-12.5,1.9c-4,0.9-7.7,1.9-11.3,3.1   c-2.4,0.8-4.7,1.7-6.9,2.6c-2.2,0.9-4.3,1.9-6.4,2.9c-2,1-4,2-5.8,3.1c-13.9,8-22.7,17.1-26.2,21.2c-1.2,1.4-1.8,2.2-1.8,2.2l0,0   c0,0,0,0,0,0c-0.3-0.3-0.6-0.5-0.9-0.8c-0.1-0.1-0.1-0.1-0.2-0.2c-4.1-3.3-9.2-6.5-9.8-13.6c2.9-3.1,7.7-7.8,14.2-12.7   c13.3-10.1,33.8-21.6,60.7-24.3c34.3-3.4,63.3,5.5,87.2,14.8c5.4,2.1,10.5,4.2,15.4,6.2l0,0c1.7,0.7,3.4,1.4,5,2   c0-0.1-0.1-0.2-0.1-0.2c-0.1-0.2-0.1-0.4-0.2-0.5c-0.1-0.3-0.3-0.7-0.4-1c-0.1-0.2-0.1-0.4-0.2-0.6c-0.1-0.3-0.2-0.7-0.4-1   c-0.1-0.2-0.1-0.4-0.2-0.6c-0.1-0.4-0.2-0.7-0.3-1.1c-0.1-0.2-0.1-0.4-0.2-0.6c-0.1-0.4-0.2-0.7-0.3-1.1c-0.1-0.2-0.1-0.4-0.2-0.6   c-0.1-0.4-0.2-0.8-0.3-1.1c0-0.2-0.1-0.4-0.1-0.5c-0.1-0.4-0.2-0.8-0.3-1.2c0-0.2-0.1-0.3-0.1-0.5c-0.1-0.4-0.2-0.9-0.3-1.3   c0-0.1-0.1-0.3-0.1-0.4c-0.1-0.5-0.2-1-0.3-1.5c0-0.1,0-0.2-0.1-0.3c-0.1-0.6-0.2-1.2-0.3-1.8c3.4,9.3,8.3,16.6,13.6,19.5   c1.2,0.7,2.5,1.1,3.7,1.3c1.3,0.2,2.6,0.1,3.8-0.3c2.2-0.7,4.5-1.5,6.9-2.3c2.3-0.8,4.6-1.7,7.1-2.6c1.5-0.6,3-1.1,4.6-1.7h0   c4.9-1.9,10.1-3.9,15.6-5.8c24.2-8.7,53.3-16.8,87.6-12.5c26.9,3.4,47.1,15.4,60.1,25.8C490,279.7,494.6,284.5,497.5,287.7z    M316.1,282c-4.3,1.6-8.4,3.1-12.2,4.3c-0.3,0.1-0.6,0.2-0.9,0.2c-0.1,0-0.2,0-0.3,0c-0.2,0-0.4,0.1-0.6,0.1c-0.1,0-0.2,0-0.4,0   c-0.2,0-0.3,0-0.5,0c-0.1,0-0.2,0.1-0.3,0.1c-0.1,0-0.3,0.1-0.4,0.1c-0.2,0-0.3,0.1-0.5,0.1c-0.1,0-0.3,0-0.4,0.1   c-0.2,0-0.3,0-0.5,0c-0.1,0-0.3,0-0.4,0c-0.2,0-0.4,0-0.5,0c-0.1,0-0.2,0-0.4,0c-0.2,0-0.4-0.1-0.6-0.1c-0.1,0-0.2,0-0.3,0   c-0.3-0.1-0.6-0.1-0.9-0.2c-3.8-1.3-7.9-2.9-12.1-4.6c0.1,0.1,0.1,0.2,0.2,0.3c0.5,1,1.1,2,1.7,2.9c0.6,1,1.2,1.9,1.8,2.9   c0.6,1,1.3,1.9,1.9,2.8c0,0,0,0,0,0c1.2,1.6,2.3,3.2,3.3,4.9c1.1,1.7,2.1,3.3,3.1,5c0,0,0,0,0,0c1,1.7,1.9,3.4,2.8,5.2   c0.3,0.5,0.5,1,0.8,1.6c0.3-0.7,0.7-1.3,1.1-2c0.9-1.7,1.9-3.4,3-5.1c0,0,0,0,0,0c1-1.7,2.1-3.3,3.2-5c0,0,0,0,0,0   c1.1-1.6,2.3-3.2,3.5-4.8c0,0,0,0,0,0c0.7-0.9,1.4-1.8,2-2.8c0.7-0.9,1.3-1.9,1.9-2.8c0.6-1,1.2-1.9,1.8-2.9   C316,282.2,316,282.1,316.1,282z M308.5,448.6c0.4-0.2,0.7-0.4,1.1-0.6c0.1,0,0.1-0.1,0.2-0.1c0.2-0.1,0.3-0.2,0.5-0.2c0,0,0,0,0,0   c0,0,0,0,0,0c0,0,0,0,0,0c0,0,0,0,0,0c-0.5,0.2-1,0.5-1.4,0.7c-0.4,0.3-0.9,0.5-1.3,0.8c0.3-0.2,0.6-0.3,0.8-0.5   C308.4,448.6,308.5,448.6,308.5,448.6z M345.8,529.2c-4.5-6.3-7.9-12.7-10.3-19.1c-26.3-22.7-30.4-48.3-30.9-58.6v0   c-0.5,0.4-0.9,0.9-1.4,1.4c-0.4,0.5-0.9,1-1.3,1.6c-0.4,0.5-0.8,1.1-1.2,1.6c-0.4,0.6-0.8,1.2-1.1,1.8c-0.3,0.4-0.5,0.9-0.7,1.4   c-0.2,0.5-0.4,1-0.5,1.6c-1.2,4.8-0.4,11.8,1.6,19.6c0.3,1.2,0.6,2.4,1,3.5c0.1,0.4,0.3,0.8,0.4,1.2c0.2,0.7,0.5,1.5,0.7,2.2   c0.2,0.5,0.4,1,0.5,1.5c0.2,0.6,0.4,1.3,0.7,1.9c0.2,0.6,0.4,1.1,0.7,1.7c0.2,0.6,0.4,1.1,0.6,1.7c0.2,0.6,0.5,1.2,0.8,1.8   c0.2,0.5,0.4,1,0.6,1.5c0.3,0.6,0.6,1.3,0.9,1.9c0.2,0.4,0.4,0.9,0.6,1.3c0.3,0.7,0.6,1.3,1,2c0.2,0.4,0.4,0.8,0.6,1.2   c0.4,0.7,0.7,1.4,1.1,2c0.2,0.4,0.4,0.7,0.6,1.1c0.4,0.7,0.8,1.4,1.2,2.1c0.2,0.3,0.4,0.7,0.6,1c0.4,0.7,0.9,1.4,1.3,2.2   c0.2,0.3,0.4,0.6,0.5,0.9c0.5,0.7,1,1.5,1.4,2.2c0.2,0.3,0.3,0.5,0.5,0.8c0.5,0.7,1,1.5,1.6,2.2c0.2,0.2,0.3,0.5,0.5,0.7   c0.6,0.8,1.1,1.5,1.7,2.3c0.1,0.2,0.3,0.4,0.4,0.6c0.6,0.8,1.2,1.5,1.8,2.3c0.1,0.2,0.3,0.3,0.4,0.5c0.6,0.8,1.3,1.5,1.9,2.3   c0.1,0.1,0.2,0.3,0.3,0.4c0.7,0.8,1.4,1.5,2.1,2.3c0.1,0.1,0.2,0.2,0.3,0.3c0.7,0.8,1.5,1.5,2.2,2.3c0.1,0.1,0.2,0.2,0.3,0.3   c0.8,0.8,1.5,1.5,2.3,2.3c0.1,0.1,0.1,0.1,0.2,0.2c0.8,0.8,1.6,1.5,2.4,2.3c0.1,0,0.1,0.1,0.2,0.1c0.8,0.8,1.7,1.5,2.6,2.2   c0,0,0.1,0.1,0.1,0.1c0.9,0.7,1.8,1.5,2.7,2.2c0,0,0,0,0.1,0.1c0.9,0.7,1.8,1.4,2.8,2.1c0,0,0,0,0,0c1.2,0.9,2.4,1.8,3.7,2.6   c0.2,0.1,0.4,0.3,0.6,0.4c0.5,0.4,1,0.7,1.6,1c0.5,0.3,1,0.7,1.6,1c0.9,0.6,1.8,1.1,2.7,1.7c0.4,0.2,0.7,0.5,1.1,0.7   c1,0.6,2,1.2,3.1,1.7c0.3,0.2,0.6,0.3,0.9,0.5c1.1,0.6,2.2,1.1,3.3,1.7c0.2,0.1,0.5,0.2,0.7,0.4c1,0.5,2.1,1,3.1,1.5   c0.1,0.1,0.2,0.1,0.4,0.2c0.2,0.1,0.4,0.2,0.6,0.3c0.9,0.4,1.8,0.8,2.7,1.1c0.3,0.1,0.6,0.3,0.9,0.4c0.2,0.1,0.4,0.2,0.6,0.3   c0.3,0.1,0.5,0.2,0.8,0.3c1.1,0.4,2.2,0.9,3.3,1.3C366.6,554.3,356.6,544,345.8,529.2z M332.8,448c-1.1-0.3-1.8-0.6-1.8-0.6   s0.9,0.8,2.4,1.7c4,2.3,12.8,5.2,24.1-3.2c15.8-11.6,10.5-38.3,4.1-53.1c-6.3-14.3-7.8-41.5-7.8-41.5c-2.3,18.5,3.6,38.2,3.6,38.2   s12.5,35.9,0.4,50.3C348.2,451.1,337.1,449.2,332.8,448z" fill="#000000" originalFill="#000000"/>
</g>
</svg>