<svg xmlns="http://www.w3.org/2000/svg" xmlns:xlink="http://www.w3.org/1999/xlink" version="1.1" id="svg-edited-version" x="0px" y="0px" viewBox="0 0 595.3 595.3" enable-background="new 0 0 595.3 595.3" xml:space="preserve" class="injected-svg" data-src="https://preview.pixlr.com/images/svg/100/1/6e481f161dd3a952ecca12e40032df616e7267543a39dc939e9905c13a91d3b0.svg">
<g>
	<g>
		<path fill="#F7941E" d="M180.2,113.3c0.1,8.5,0.3,16.9,1.9,25.3c3.3,17,11.6,34.9,23.7,47.5c10.4,10.8,24.6,16,38.4,8.2    c1.8-1,3.8-2.3,5.8-3.8c-0.6-0.7-1.3-1.4-1.9-2.1c-4.5,3.3-9.4,5.7-13.2,6.5c-17.1,3.6-30.4-13.1-37.8-25.9    c-8.3-14.4-12.9-29.8-13.6-46.4c-0.1-2-0.1-3.9-0.2-5.9C182.3,115.6,181.3,114.5,180.2,113.3z" originalFill="#F7941E"/>
		<path fill="#F7941E" d="M191,125.2c0.4,6.6,1.6,13.2,3.3,19.2c3.5,12.1,10.3,21.4,22.2,26.4c5.7,2.4,12.5,4,19,3.6    c-2.3-2.6-4.7-5.2-7.1-7.9c-5.6-0.8-11.4-2.9-15.1-5.4c-8.4-5.7-13.1-16.3-14.8-27.6C196,130.7,193.5,128,191,125.2z" originalFill="#F7941E"/>
		<path fill="#F7941E" d="M162.5,93.9c1.6,15.4,2.1,31.1,5.2,46.1c4.8,23,13.9,47.3,33.9,61.5c16.8,11.9,41.1,16.2,58.6,3.5    c0.6-0.4,1.1-0.8,1.6-1.3c-1.5-1.7-3.1-3.4-4.7-5.3c-1.7,1.4-3.6,2.6-5.7,3.7c-20.4,10.3-45.9-2.4-58.6-18.9    c-14.2-18.5-18.8-43.1-21.6-65.6c-0.7-5.3-1.1-10.6-1.6-15.9C167.2,99,164.8,96.4,162.5,93.9z" originalFill="#F7941E"/>
		<path fill="#F7941E" d="M412.1,387.7c-3,12.1-5.5,24.5-4.4,36.9c0.6,6.6,2.5,13.1,5.4,19.3c1-0.5,2-1,2.9-1.5    c-3.9-8.1-5.8-16.9-5.5-26.4c0.3-8.6,2-17,3.9-25.3C413.7,389.7,412.9,388.7,412.1,387.7z" originalFill="#F7941E"/>
		<path fill="#F7941E" d="M396.1,367.3C396.1,367.3,396.1,367.3,396.1,367.3c3.2,19.7,2.2,41.6-5.3,59.5c1.8,1.7,3.6,3.5,5.3,5.2    c7.4-16.1,9.8-35.3,8.4-53.8C401.6,374.6,398.8,371,396.1,367.3z" originalFill="#F7941E"/>
		<path fill="#F7941E" d="M418.3,395.2c-0.1,9.2-0.8,18.5-0.1,27.5c0.4,5.5,1.5,11.1,3.1,16.5c2.2-1.6,4.3-3.3,6.2-5.1    c-2.3-10-2.2-20.3-2.1-30.6c0,0.1,0.1,0.1,0.1,0.2C423.1,400.8,420.7,398,418.3,395.2z" originalFill="#F7941E"/>
		<path fill="#F7941E" d="M433.7,412.8c-0.2-0.3-0.5-0.5-0.7-0.8c-0.7,5.2-0.6,10.5,0.3,15.7c2-2.7,3.8-5.5,5.2-8.5l0.3-0.7l0.9,0.9    L433.7,412.8z" originalFill="#F7941E"/>
		<path fill="#F7941E" d="M359.9,332.6c3.7,4.3,8.1,8,12.9,11.2c5.1,11.1,8.2,23.8,8.8,35.1c0.7,11.7-1.5,23-7.6,32.2    c0.8,0.7,1.5,1.4,2.3,2.1c6.2-9,8.8-20,8.5-31.7c-0.3-11.2-2.8-23.5-7.4-34.6c2.1,1.3,4.2,2.5,6.4,3.7c-3.5-5-7-10.1-10.4-15.2    c-5-3.9-9.3-8.1-12.7-13.6c-2.1-3.3-5.9-9.8-4-12.9c-1.3-2.2-2.6-4.4-3.9-6.6C344.4,308.3,353.6,325.3,359.9,332.6z" originalFill="#F7941E"/>
		<path fill="#F7941E" d="M47.1,94.9c-2.8-7.3-8-16.2-16.3-17.4c0,1,0.1,2,0.2,3C40.4,82.2,46.9,97,48,109.2l3.2,3.2    C51,106.2,49,99.8,47.1,94.9z" originalFill="#F7941E"/>
		<path fill="#F7941E" d="M77.4,115.7c-1,0.7-2,1.4-3,2c0,5.1-0.4,10.2-1.1,15.3c0,0.4-0.1,0.7-0.1,1.1l2.7,2.7    c0.2-1.2,0.3-2.4,0.5-3.7C77.2,127.2,77.6,121.4,77.4,115.7z" originalFill="#F7941E"/>
		<path fill="#F7941E" d="M46.7,82.6c6.8,7.8,13.1,19.9,10.9,30.3c2.5-1.5,5-3.1,7.5-4.7c-0.2-10.4-5.6-21.3-12.2-29.3    c-5.4-6.5-12.6-12.2-20.5-15.6c-0.6,2.4-1,4.8-1.2,7.2C37,73.3,42.4,77.7,46.7,82.6z" originalFill="#F7941E"/>
		<path fill="#F7941E" d="M289.7,300.3c-27.8-6-54.1-22-76.5-38.8c-24.1-18.1-45.8-39.9-63.1-64.4c-19.1-27-30.4-58.5-42.1-89.2    c-1.6-4.2-3.2-8.3-4.8-12.5c-1.9,1.7-3.7,3.3-5.7,4.9c1.7,4.5,3.4,8.9,5.1,13.4c12.4,32.6,24.9,65.1,46,93.3    c1.8,2.4,3.7,4.8,5.6,7.2l48.9,48.4c4.7,3.7,9.4,7.2,14.3,10.6c23.6,16.5,51.7,32.3,81,35.6c18.6,2.1,38-1.3,51.5-11.8    c-0.5-0.8-0.9-1.6-1.4-2.4c-0.5-0.9-1.3-2.1-2.3-3.5C331.7,302.8,308.6,304.4,289.7,300.3z" originalFill="#F7941E"/>
		<path fill="#F7941E" d="M54.1,69.7c7.2,7.8,13,16.5,16.6,26.4c0.8,2.3,1.4,4.5,2,6.8c0.9-0.6,1.8-1.3,2.7-1.9    c-0.8-3.2-1.8-6.3-3.1-9.4c-4.5-10.6-11.5-20-19.9-28C48,59.3,42,54,35.6,53.2c-0.4,1-0.8,1.9-1.1,2.9    C42.1,56.4,49.6,64.7,54.1,69.7z" originalFill="#F7941E"/>
		<path fill="#F7941E" d="M92.9,106.4c-0.2-0.6-0.4-1.2-0.6-1.7c-0.9,0.7-1.7,1.4-2.6,2c1.4,4.5,2.8,9,4.1,13.5    c4.7,16,9,32.2,13.9,48.2l4.5,4.4c-1.4-4.5-2.7-9.1-4.1-13.6C103.1,141.6,98.4,123.8,92.9,106.4z" originalFill="#F7941E"/>
		<path fill="#F7941E" d="M262.5,203.2c1.6-1.4,3.1-2.8,4.4-4.3l-4.7-5.4c-1.3,1.6-2.7,3.1-4.3,4.4L262.5,203.2z" originalFill="#F7941E"/>
		<path fill="#F7941E" d="M283.6,227.7l2.2,2.5c2-0.8,4.1-1.8,6.1-2.9l-2.1-2.4c-0.1,0.1-0.2,0.1-0.4,0.2    C287.5,226.1,285.6,227,283.6,227.7z" originalFill="#F7941E"/>
		<path fill="#F7941E" d="M284.8,268.5c2.1,6.5,10.1,10.9,16.4,12.2c7.6,1.5,15.5-0.8,21.9-4.8c2.4-1.5,4.7-3.2,6.8-5.1    c-0.7-0.8-1.3-1.6-2-2.3c-1.6,1.4-3.3,2.8-5,3.9c-5.4,3.6-11.9,6.2-18.5,5.7c-5.9-0.4-17.4-5.1-17.1-12.5    c0.4-9.5,17.9-12.4,27.1-12.6c-0.8-1-1.7-1.9-2.5-2.8c-1.9,0.1-3.7,0.3-5.5,0.6C298.7,252.1,281.2,257.3,284.8,268.5z" originalFill="#F7941E"/>
		<path fill="#F7941E" d="M328,268.5C328,268.5,328,268.5,328,268.5L328,268.5C328,268.5,328,268.5,328,268.5z" originalFill="#F7941E"/>
		<path fill="#F7941E" d="M327,284.1c-17,9.9-40,2.5-56.7-4.2c-20-8-38.7-17.9-55.8-30.9c-37.3-28.2-65.1-65-83.3-107.6    c-7.4-17.3-14-35-20.7-52.7c-0.8,0.8-1.6,1.5-2.4,2.3c8.4,22.3,16.7,44.8,27,66.2c23.5,48.9,64,92.2,113.3,116.3    c19.5,9.6,42.6,20.3,65,17.5c8.1-1,18.5-5,23.7-11.9c-0.7-0.9-1.4-1.8-2.2-2.7C332.9,279.7,330.1,282.3,327,284.1z" originalFill="#F7941E"/>
		<path fill="#F7941E" d="M288.9,241.9c-23.5,12.8-53.6-0.2-73.8-13.5c-22.1-14.6-41-34.5-56.1-56c-16.1-23-25.1-48.4-34.4-74.7    c-2-5.7-4.1-11.3-6.4-16.9c-1.8,1.9-3.6,3.7-5.4,5.6c3.3,8.4,6.3,17,9.3,25.7c9.5,27.4,21.2,52.4,39.3,75.4    c17.1,21.8,38.3,42,63.2,54.8c21.6,11.2,52.2,18.7,73.3,2.3c1.9-1.5,3.5-3,5-4.7c-2-2.3-3.7-4.1-4.8-5.3    C295.8,237.4,292.7,239.9,288.9,241.9z" originalFill="#F7941E"/>
		<path fill="#F7941E" d="M328.8,328.9c22.3,5.8,35.6,23,34.9,46.2c-0.3,8.5-3,15.4-7.3,20.6c0,0,0,0,0,0c1.9,1.6,3.8,3.2,5.7,4.9    c0,0,0,0,0,0c0.5-0.6,0.9-1.1,1.3-1.7c9.5-13.4,9-31.5,3.6-46.4c-13.2-36.3-56.4-31.7-87.6-38.1c-14.7-3-27.9-9-40.6-16.1    c4.1,4.2,9.9,9.9,16.2,16.1c4.8,2,9.6,3.7,14.7,5C289,324.5,309.4,323.9,328.8,328.9z" originalFill="#F7941E"/>
		<path fill="#F7941E" d="M323.5,335.6c11.9,3.1,22.6,9,28.5,20.1c6,11.3,6.3,26.1-1.5,35.1c0.8,0.7,1.7,1.4,2.5,2.1    c13-14.8,5-43.1-12.6-53.8c-23.6-14.3-53.7-7-78.3-17.9c1.8,1.8,3.6,3.5,5.4,5.2C285.4,332.1,305.3,330.9,323.5,335.6z" originalFill="#F7941E"/>
		<path fill="#F7941E" d="M463.4,445.7c-5.9,2.6-12.2,2-17.4-5.3c-1.4,2-3,3.8-4.7,5.6c0.5,0.6,0.9,1.1,1.4,1.6    c8.2,8.6,17.4,8.1,25.6,3.5L463.4,445.7z" originalFill="#F7941E"/>
		<path fill="#F7941E" d="M492.9,531.7c0.9,1.2,1.8,2.4,2.6,3.6c9.2,1.5,18.4,3.1,27.8,3.2c7,0,14.1-1,21.1-1.7    c1.8-0.2,5.2-0.4,9-0.9c0-1-0.2-2-0.4-3c-6.9,1-13.6,1.3-15.7,1.6C522,535.9,507.7,533.9,492.9,531.7z" originalFill="#F7941E"/>
		<path fill="#F7941E" d="M169,94.7c-0.3-3-0.6-5.9-0.9-8.9l-8-9.2c0.6,3.1,1.1,6.3,1.5,9.4L169,94.7z" originalFill="#F7941E"/>
		<path fill="#F7941E" d="M498.5,539.6c0.8,1.2,1.5,2.4,2.2,3.6c5.3,1.1,10.7,2,16.2,2.3c8.8,0.4,17.5-1,26.2-1.3    c2.7-0.1,5.8,0,8.8-0.1c0.3-0.9,0.6-1.8,0.8-2.6c-6.9,0.6-14.5-0.1-19.3,0.3C521.2,542.9,510.2,541.8,498.5,539.6z" originalFill="#F7941E"/>
		<path fill="#F7941E" d="M198,128.3c-0.2-2.8-0.2-5.7-0.1-8.4l-6.4-7.4c-0.3,2.5-0.5,5-0.5,7.6L198,128.3z" originalFill="#F7941E"/>
		<path fill="#F7941E" d="M183.3,111.3c0-2.7,0-5.4-0.1-8.1l-3.2-3.6c0.1,2.7,0.1,5.4,0.1,8.1L183.3,111.3z" originalFill="#F7941E"/>
		<path fill="#F7941E" d="M43.6,51.3c0.9-2.3,2-4.5,3.1-6.5c-1.9-0.9-3.8-1.5-5.7-1.9c-1.4,2.2-2.8,4.5-3.9,7    C39.3,49.7,41.5,50.2,43.6,51.3z" originalFill="#F7941E"/>
		<path fill="#F7941E" d="M346.5,358.3c-4.2-10.2-13.5-16.3-24.4-17.4c-15-1.5-29.2-0.5-43.7-4.1c4.4,4.1,8.3,7.4,10.9,9.4    c4.6,0.6,9.4,0.9,14.2,1c11,0.2,24.7-1.3,32.7,7.8c5.8,6.7,6.8,16.7,3.9,24.8c-0.3,0.7-0.5,1.4-0.9,2c1.8,1.4,3.7,2.9,5.5,4.4    C349.3,378.2,350.5,368.2,346.5,358.3z" originalFill="#F7941E"/>
		<path fill="#F7941E" d="M291.1,347.4C291.1,347.4,291.1,347.4,291.1,347.4C291.1,347.4,291.1,347.4,291.1,347.4    C291.1,347.4,291.1,347.4,291.1,347.4C291.1,347.4,291.1,347.4,291.1,347.4z" originalFill="#F7941E"/>
		<path fill="#F7941E" d="M486.9,471.8l-2.2-2.4c-5.5,4.1-12.9,6.1-20.3,6c-0.5,0-1.1,0-1.6-0.1c4.8-1,9.4-3.5,13.7-7.5    c1.2-1.1,2.3-2.3,3.5-3.6l-4.7-5.2c-2.9,3.3-6.2,6.1-9.3,7.9c-12.8,7.5-24.8-4.4-31.5-15.2c-1.9,1.4-4,2.7-6.1,3.9    c2.8,4.5,6.1,8.7,10.1,12.2c0.8,0.7,1.6,1.4,2.5,2c-5.8-3-10.9-7.2-15.5-12.8c-0.8,0.4-1.7,0.8-2.5,1.1l-0.7,0.3    c0.6,0.8,1.3,1.5,1.9,2.3l5.7,5.8c0.5,0.5,1,0.9,1.5,1.4C444.7,479.2,472.2,482.5,486.9,471.8z" originalFill="#F7941E"/>
		<path fill="#F7941E" d="M504.9,491.7c-14.4,7-30.9,8.1-46.7,3.6l4,4.1c15.3,3.2,31,1.5,44.7-5.4L504.9,491.7z" originalFill="#F7941E"/>
		<path fill="#F7941E" d="M498,484.1c-5.3,1.1-10.3,1.8-14,2.2c-10.5,1.3-20.2,0.5-30.1-3.5c-4.7-1.9-9.3-4.1-13.9-6.1l13.1,13.4    c1.9,0.7,3.9,1.4,5.9,1.9c10.3,2.9,21,2.1,31.5,0.5c3.8-0.6,8.2-1.4,12.9-2.6L498,484.1z" originalFill="#F7941E"/>
		<path fill="#F7941E" d="M474.7,512.1c13.5,0.2,27.6-3.6,39.1-10.7c0.1,0.1,0.3,0.2,0.4,0.4c-0.7-0.7-1.4-1.4-2.1-2.2l-0.4-0.5    c-11.8,7.2-26.5,10.7-40.1,9.8L474.7,512.1z" originalFill="#F7941E"/>
		<path fill="#F7941E" d="M519.6,507.1c-12.1,6.5-26.7,9-41.1,9l2.9,3c14.3-0.3,28.7-3.2,40.7-9.9    C521.3,508.5,520.4,507.8,519.6,507.1z" originalFill="#F7941E"/>
		<path fill="#F7941E" d="M549.9,527c-1-1-2.2-1.9-3.5-2.5c-0.7-0.3-1.3-0.7-2-1c-1.4-0.7-2.8-1.4-4.2-2.2    c-4.6,0.9-9.2,1.5-13.8,1.7c-14.3,0.9-30-0.2-44.8-3.9l0,0l4.4,4.4c1.4,1.5,2.8,3,4.1,4.5c0,0,0,0,0,0    C510,531.9,531.6,532,549.9,527z" originalFill="#F7941E"/>
		<path fill="#F7941E" d="M143.2,64.8l5.6,6.5c0.2-0.5,0.4-1,0.6-1.6c0.4-1.4,0.7-2.8,0.9-4.2l-7.1-8.1    C143.5,59.9,143.6,62.5,143.2,64.8z" originalFill="#F7941E"/>
		<path fill="#F7941E" d="M225.3,156.7c2.5,1.7,5.3,3,8.1,3.9l-4.7-5.4c-1-0.6-1.9-1.2-2.9-1.8c-5.5-3.9-9.8-9.2-12-15.1l-4.4-5    C210.8,142.5,216.8,151.1,225.3,156.7z" originalFill="#F7941E"/>
		<path fill="#F7941E" d="M331.5,360c-7.5-10.8-19.2-5.8-29.9-5.6c-0.1-0.1-0.2-0.2-0.4-0.2c1.4,1,2.8,1.9,4.2,2.9    c2.6-0.3,5.3-0.7,8-1c6.5-0.7,12.9,0.9,16.3,7c2.4,4.3,2.3,8.7,0.2,11.6c0.8,0.6,1.6,1.2,2.4,1.8    C335.5,372.2,335.5,365.7,331.5,360z" originalFill="#F7941E"/>
		<path fill="#F7941E" d="M86.5,109.2c-1.9,1.5-3.9,2.9-5.9,4.3c2.9,11.8,5,23.7,7.7,35.6l9.6,9.5c-0.4-1.5-0.9-3-1.2-4.5    C92.7,139.1,90.2,124,86.5,109.2z" originalFill="#F7941E"/>
		<path fill="#F7941E" d="M141.1,70.6c-3.4,5.5-8,2.6-12-2.2c-1.6,2-3.3,3.9-5,5.8c0.4,0.4,0.7,0.8,1.1,1.2    c4.9,4.8,11.4,5.8,16.5,3.4c9,15.5,11,36.7,14.2,52.6c2,10.4,4.1,20.9,8.8,30.5c5.8,11.8,13.1,23,21.6,33.1    c23.9,28,63.5,50.2,99.4,35.2c-0.6-0.7-1.3-1.5-2.2-2.5c-14.1,5.5-29.3,5.8-43.9,1c-25.4-8.3-46.2-27.2-60.9-48.8    c-6.5-9.6-12.4-19.9-15.6-31.1c-2.9-10.1-4.5-20.4-6.5-30.7c-2.6-13.1-5.3-28.6-12.3-40.9c0.6-0.5,1.1-1,1.7-1.5    C144.3,74,142.7,72.3,141.1,70.6z" originalFill="#F7941E"/>
		<path fill="#F7941E" d="M93.5,18.2c-2.6-0.2-5.3-0.2-7.9,0c1.2,1.8,2.5,3.5,3.8,5.1c5,0.5,8.6,1.5,9.9,1.8    C97.2,22.9,95.2,20.6,93.5,18.2z" originalFill="#F7941E"/>
		<path fill="#F7941E" d="M123.9,53.9c-1.2-1.3-2.3-2.8-3.4-4.3c-3.2-2.2-6.2-3-8.7-2.9c-3.4,0.1-5.6-3.5-3.8-6.3    c0.2-0.2,0.3-0.5,0.5-0.7c1.1-1.5,2.6-2.6,4.3-3.1c-0.1-0.3-0.3-0.5-0.4-0.7c-3.1-5.2-5.9-10.7-9.1-16c-1.3-0.4-2.7-0.7-4-1    c3.9,5.9,7.2,12.4,10.7,18.6c-1.1-1.4-2.1-2.7-3.3-4.1c-2.1-2.5-4.7-5.3-7.4-8.2c-1-0.1-3.8-0.4-8.3,0.2c4.4,5.6,9,10.9,13.5,16.5    c4.1,5.1,7.3,10.2,10,16.1c0.7,1.5,1.5,3.1,2.2,4.7c1.7-2,3.4-4,5-6c-0.4-0.7-0.7-1.4-0.9-1.9c-0.3-0.6-0.6-1.1-0.8-1.7    c0.7,0.9,1.5,1.9,2.4,2.8C122.9,55.2,123.4,54.6,123.9,53.9z" originalFill="#F7941E"/>
		<path fill="#F7941E" d="M80.1,23.2c-1.3-1.2-2.6-2.4-3.9-3.6c-2.7,0.6-5.4,1.4-8.1,2.4c1.1,0.9,2.1,1.8,3.1,2.8    C74.3,23.9,77.3,23.4,80.1,23.2z" originalFill="#F7941E"/>
		<path fill="#F7941E" d="M59.6,66.3c7.9,10.3,13.1,21.6,17.1,33.7c2-1.5,3.9-3,5.8-4.5c-1.2-3.7-2.5-7.3-4-10.9    c-4.4-10.8-16.1-30.8-29.7-38.6c-1.9,2-3.5,3.8-4.7,5.7C50.5,54.7,56.1,61.7,59.6,66.3z" originalFill="#F7941E"/>
		<path fill="#F7941E" d="M107.2,73.2c1.8-1.8,3.5-3.7,5.2-5.6c-3.4-7-7.2-13.8-11.5-20.3c-5-7.5-10.8-14.2-17-20.5    c-2.3,0.6-4.9,1.4-7.7,2.5c2.2,2.2,4.4,4.4,6.5,6.7c1.2,2.3,2.4,4.5,3.6,6.7c5.6,10.2,10.9,20.2,15.1,31c0.5,1.3,1,2.5,1.5,3.8    c0.8-0.8,1.6-1.6,2.4-2.4c-1.1-2.8-2.2-5.6-3.3-8.3c-2.8-7-6.9-13.8-10.8-20.7c3.4,4.5,6.6,9.2,9.4,14.2    C102.9,64.6,105.1,68.8,107.2,73.2z" originalFill="#F7941E"/>
		<path fill="#F7941E" d="M97.8,82.4C94.1,74.1,90,66,85,58.2c-5.5-8.6-11.7-16.8-18.3-24.7c-1.7,0.9-3.4,1.8-5.2,2.9    c-0.4,0.2-0.7,0.5-1.1,0.7c7.2,8.5,13.9,17.3,19.7,26.7c4.7,7.6,8.6,15.5,12.1,23.7C94.1,85.8,95.9,84.1,97.8,82.4z" originalFill="#F7941E"/>
		<path fill="#F7941E" d="M59.9,25.7c-2.1,1.2-4.2,2.4-6.1,3.8c0.9,1,1.8,2.1,2.7,3.1c1.9-1.6,3.8-3,5.8-4.1    C61.5,27.5,60.7,26.6,59.9,25.7z" originalFill="#F7941E"/>
		<path fill="#F7941E" d="M137.3,57.9l1.7,2c1.1-1.5,1.3-3.6,1.1-5.8l-0.2,0.3C139,55.6,138.2,56.7,137.3,57.9z" originalFill="#F7941E"/>
		<path fill="#F7941E" d="M249.1,187.7l1.8,2.1c1.6-1.2,3.1-2.6,4.5-4.1l-1.8-2.1C252.2,185.1,250.7,186.4,249.1,187.7z" originalFill="#F7941E"/>
		<path fill="#F7941E" d="M61.4,48.8C66.8,55,71.3,61.9,75,69.2c4,7.8,7.3,15.9,10.3,24.1c0.9-0.7,1.7-1.4,2.6-2.1    c-3.7-10.3-8-20.4-13.6-29.8c-3.7-6.1-8-12.3-13.1-17.4c-1.6-1.6-3.2-2.9-5-4.2c-1,0.7-1.9,1.4-2.7,2C56.3,43.8,59,46,61.4,48.8z" originalFill="#F7941E"/>
		<path fill="#F7941E" d="M52,37.1c-1.4-0.9-2.8-1.7-4.3-2.5c-0.7,0.7-1.5,1.5-2.2,2.3c1.5,0.9,3,1.8,4.5,2.7    C50.7,38.7,51.3,37.9,52,37.1z" originalFill="#F7941E"/>
		<path fill="#F7941E" d="M231.2,166.9l6.4,7.4c2.2-0.3,4.3-0.8,6.4-1.7l-5.3-6.1C236.4,167,233.8,167.1,231.2,166.9z" originalFill="#F7941E"/>
		<path fill="#F7941E" d="M542.4,553.7c-12.9-0.1-26-1.8-38.7-4.9c1.4,2.8,3.9,8.4,3.9,8.2c10.4,2.3,21.1,3.5,31.6,3.7    c1.2-0.8,2.3-1.7,3.4-2.8c1.5-1.4,2.8-2.8,4-4.3C545.2,553.7,543.8,553.7,542.4,553.7z" originalFill="#F7941E"/>
	</g>
	<g>
		<path fill="#4D2700" d="M130.5,45.1c-0.6,0.9-1.3,1.8-2,2.7l8.7,10.1c0.9-1.2,1.7-2.3,2.6-3.5l0.2-0.3l0.1-0.1l-0.1-0.1l-4.3-4.9    l-0.6-0.7l-3.8-4.3L130.5,45.1z" originalFill="#4D2700"/>
		<path fill="#4D2700" d="M123.9,53.9c-0.5,0.7-1,1.3-1.5,2c-0.2,0.3-0.4,0.5-0.6,0.8c-1.6,2-3.3,4-5,6c-1.4,1.7-2.9,3.3-4.3,4.9    c-1.7,1.9-3.4,3.7-5.2,5.6c-0.7,0.7-1.3,1.4-2,2c-0.8,0.8-1.6,1.6-2.4,2.4c-1.7,1.6-3.3,3.3-5.1,4.9c-1.8,1.7-3.7,3.4-5.5,5    c-1.4,1.3-2.9,2.5-4.4,3.8c-0.8,0.7-1.7,1.4-2.6,2.1c-0.9,0.7-1.8,1.5-2.7,2.2c-1.9,1.5-3.9,3-5.8,4.5c-0.4,0.3-0.9,0.6-1.3,1    c-0.9,0.7-1.8,1.3-2.7,1.9c-2.5,1.8-5.1,3.6-7.7,5.3c-2.5,1.6-4.9,3.2-7.5,4.7c-0.9,0.6-1.9,1.2-2.8,1.7l-0.8,0.5l0.8,0.8l1.3,1.3    l5.2,5.2l2.1,2.1l0,0c3.7-2.2,7.3-4.4,10.9-6.8c1-0.7,2-1.4,3-2c1.1-0.7,2.1-1.5,3.2-2.2c2-1.4,3.9-2.8,5.9-4.3    c1.1-0.8,2.2-1.7,3.3-2.5c0.9-0.7,1.7-1.4,2.6-2c1.7-1.4,3.5-2.8,5.1-4.2c1.9-1.6,3.8-3.2,5.7-4.9c1.6-1.5,3.2-2.9,4.8-4.4    c0.8-0.8,1.6-1.5,2.4-2.3c0.8-0.8,1.6-1.6,2.4-2.4c1.8-1.8,3.6-3.7,5.4-5.6c2-2.1,4-4.3,5.9-6.5c1.7-1.9,3.3-3.9,5-5.8    c1.6-1.9,3.1-3.8,4.6-5.8c-4-4.3-7.2-7.5-9.2-9.6C124.3,53.4,124.1,53.7,123.9,53.9z" originalFill="#4D2700"/>
		<path fill="#4D2700" d="M433.2,427.6c-1.7,2.3-3.6,4.4-5.7,6.4c-1.9,1.9-4,3.6-6.2,5.1c-1.7,1.2-3.4,2.2-5.2,3.2    c-1,0.5-1.9,1-2.9,1.5c-0.7,0.3-1.5,0.7-2.2,1l-1.6,0.6l2.5,2.6l10.3,10.5l0.2-0.1l0.7-0.3c0.9-0.3,1.7-0.7,2.5-1.1    c1-0.5,2-1,2.9-1.5c2.1-1.2,4.2-2.5,6.1-3.9c2.4-1.7,4.6-3.7,6.6-5.7c1.7-1.7,3.3-3.6,4.7-5.6c1.9-2.6,3.6-5.4,5-8.4v0l-8.2-9    l-3.2-3.6l-0.9-0.9l-0.3,0.7C437,422.1,435.2,425,433.2,427.6z" originalFill="#4D2700"/>
	</g>
	<g>
		<path fill="#BB7112" d="M231.2,166.9c2.6,0.2,5.2,0.1,7.4-0.4l0,0l-5.2-5.9l0,0c-2.8-0.9-5.6-2.2-8.1-3.9    c-8.5-5.6-14.5-14.1-15.8-23.5l-11.6-13.3c-0.1,2.8-0.1,5.6,0.1,8.4L231.2,166.9z" originalFill="#BB7112"/>
		<path fill="#BB7112" d="M228.4,166.6c-9.7-10.7-19.8-22-29.9-33c1.7,11.3,6.4,21.9,14.8,27.6C217.1,163.7,222.8,165.7,228.4,166.6    z" originalFill="#BB7112"/>
		<path fill="#BB7112" d="M225.9,153.3c0.9,0.6,1.9,1.2,2.9,1.8l0,0l-14.8-16.9l0,0C216.1,144.1,220.3,149.4,225.9,153.3z" originalFill="#BB7112"/>
		<path fill="#BB7112" d="M183.4,116.8c0,2,0.1,3.9,0.2,5.9c0.7,16.5,5.3,32,13.6,46.4c7.4,12.8,20.7,29.5,37.8,25.9    c3.8-0.8,8.7-3.2,13.2-6.5c-4-4.5-8.2-9.1-12.6-13.9c-6.5,0.4-13.4-1.2-19-3.6c-11.9-5.1-18.7-14.4-22.2-26.4    c-1.8-6-3-12.6-3.3-19.2C188.5,122.4,185.9,119.6,183.4,116.8z" originalFill="#BB7112"/>
		<path fill="#BB7112" d="M190.9,120.1c0-2.5,0.2-5.1,0.5-7.6l-0.9-1.1l-7.2-8.3c0,2.7,0,5.4,0.1,8.1L190.9,120.1z" originalFill="#BB7112"/>
		<path fill="#BB7112" d="M249.1,187.7c1.6-1.2,3.1-2.6,4.5-4l-9.7-11.1c-2,0.9-4.2,1.4-6.4,1.7L249.1,187.7z" originalFill="#BB7112"/>
		<path fill="#BB7112" d="M169.7,101.7c0.5,5.3,1,10.6,1.6,15.9c2.8,22.5,7.4,47.1,21.6,65.6c12.7,16.5,38.2,29.2,58.6,18.9    c2.1-1.1,4-2.3,5.7-3.7c-2.3-2.5-4.7-5.2-7.1-7.9c-2,1.5-3.9,2.8-5.8,3.8c-13.8,7.8-28,2.6-38.4-8.2    c-12.1-12.6-20.4-30.5-23.7-47.5c-1.6-8.3-1.9-16.8-1.9-25.3C176.6,109.4,173.1,105.5,169.7,101.7z" originalFill="#BB7112"/>
		<path fill="#BB7112" d="M180.2,107.7c0-2.7,0-5.4-0.1-8.1l-8.2-9.3l-3.8-4.4c0.3,2.9,0.6,5.9,0.9,8.9L180.2,107.7z" originalFill="#BB7112"/>
		<path fill="#BB7112" d="M251,189.8l6.9,8.1c1.6-1.4,3-2.8,4.3-4.4l0,0l-6.8-7.7l0,0C254,187.2,252.5,188.6,251,189.8z" originalFill="#BB7112"/>
		<path fill="#BB7112" d="M122.7,51.4c-0.8-0.7-1.5-1.2-2.2-1.7c1.1,1.5,2.2,3,3.4,4.3c0.2-0.3,0.4-0.5,0.6-0.8    C123.8,52.4,123.2,51.8,122.7,51.4z" originalFill="#BB7112"/>
		<path fill="#BB7112" d="M118.2,28.8L118.2,28.8c-0.5-0.5-1-1.1-1.6-1.6c-0.4-0.4-0.8-0.7-1.2-1c-0.2-0.1-0.3-0.3-0.5-0.4    c-0.4-0.3-0.9-0.7-1.3-1c-3.1-2.2-6.6-3.8-10.4-4.9c3.2,5.3,6,10.8,9.1,16c0.1,0.2,0.3,0.5,0.4,0.7c2.9-0.9,6.2-0.1,8.3,2.4    l7.5,8.6c0.7-0.9,1.3-1.8,2-2.7l0.9-1.2L118.2,28.8z" originalFill="#BB7112"/>
		<path fill="#BB7112" d="M93.5,18.2c1.7,2.4,3.7,4.7,5.8,7c0.3,0.1,0.5,0.1,0.5,0.1s-0.1,0-0.4-0.1c2.7,2.9,5.4,5.7,7.4,8.2    c1.1,1.4,2.2,2.7,3.3,4.1c-3.5-6.3-6.8-12.7-10.7-18.6C97.3,18.6,95.4,18.3,93.5,18.2z" originalFill="#BB7112"/>
		<path fill="#BB7112" d="M133.7,62.7c-1.5,1.9-3,3.9-4.6,5.8c4,4.8,8.6,7.7,12,2.2C138.4,67.7,135.9,65,133.7,62.7z" originalFill="#BB7112"/>
		<path fill="#BB7112" d="M120,53.1c0.3,0.6,0.6,1.1,0.8,1.7c0.2,0.5,0.6,1.2,0.9,1.9c0.2-0.3,0.4-0.5,0.6-0.8    C121.5,55,120.7,54,120,53.1z" originalFill="#BB7112"/>
		<path fill="#BB7112" d="M140.2,53.9l-0.1,0.1c0.2,2.2-0.1,4.3-1.1,5.8l4.3,4.9c0.4-2.3,0.3-4.9-0.1-7.4l-3.1-3.5l0,0L140.2,53.9z" originalFill="#BB7112"/>
		<path fill="#BB7112" d="M262.5,203.2l21.1,24.5c1.9-0.8,3.9-1.6,5.8-2.6c0.1-0.1,0.2-0.1,0.4-0.2l0,0L267,198.9l0,0    C265.6,200.4,264.1,201.9,262.5,203.2z" originalFill="#BB7112"/>
		<path fill="#BB7112" d="M145.9,75.8c-0.5,0.6-1.1,1.1-1.7,1.5c7,12.4,9.7,27.9,12.3,40.9c2,10.2,3.7,20.6,6.5,30.7    c3.2,11.2,9.1,21.5,15.6,31.1c14.8,21.7,35.5,40.5,60.9,48.8c14.6,4.8,29.8,4.4,43.9-1c-4.3-4.7-11.9-13.3-21.6-24.1    c-0.5,0.4-1.1,0.9-1.6,1.3c-17.5,12.7-41.8,8.3-58.6-3.5c-20.1-14.2-29.1-38.4-33.9-61.5c-3.1-15-3.6-30.7-5.2-46.1    C156.5,87.3,150.9,81.2,145.9,75.8z" originalFill="#BB7112"/>
		<path fill="#BB7112" d="M148.8,71.3l12.8,14.8c-0.4-3.2-0.9-6.3-1.5-9.4l-4-4.5l-5.9-6.7c-0.2,1.4-0.5,2.9-0.9,4.2    C149.2,70.2,149,70.7,148.8,71.3z" originalFill="#BB7112"/>
		<path fill="#BB7112" d="M114.5,58c-2.8-5.9-5.9-11-10-16.1C100,36.4,95.3,31,91,25.4c-2,0.3-4.4,0.7-7.1,1.4    c6.2,6.3,12,13,17,20.5c4.4,6.5,8.1,13.3,11.5,20.3c1.5-1.6,2.9-3.3,4.3-4.9C115.9,61.1,115.2,59.6,114.5,58z" originalFill="#BB7112"/>
		<path fill="#BB7112" d="M89.3,23.3c-1.3-1.6-2.6-3.3-3.8-5.1c-3.1,0.2-6.2,0.7-9.3,1.4c1.3,1.2,2.6,2.4,3.9,3.6    C83.5,23,86.6,23.1,89.3,23.3z" originalFill="#BB7112"/>
		<path fill="#BB7112" d="M285.8,230.3l1.5,1.7C287.3,232,286.8,231.4,285.8,230.3c-36,15-75.5-7.2-99.4-35.2    c-8.6-10.1-15.8-21.2-21.6-33.1c-4.7-9.6-6.7-20.2-8.8-30.5c-3.1-15.9-5.2-37.2-14.2-52.6c-5.2,2.4-11.7,1.5-16.5-3.4    c-0.4-0.4-0.7-0.8-1.1-1.2c-1.9,2.2-3.9,4.4-5.9,6.5c2.3,5.6,4.4,11.2,6.4,16.9c9.3,26.3,18.3,51.7,34.4,74.7    c15.1,21.6,34,41.4,56.1,56c20.1,13.3,50.3,26.3,73.8,13.5c3.8-2.1,6.8-4.6,9.2-7.4l0,0c-0.1-0.1-0.1-0.1-0.2-0.2    c-0.1-0.1-0.3-0.3-0.4-0.4c-0.2-0.2-0.4-0.4-0.5-0.5l-5.2-6l0,0C289.9,228.5,287.8,229.4,285.8,230.3z" originalFill="#BB7112"/>
		<path fill="#BB7112" d="M287.4,265.6c-0.4,7.4,11.2,12.1,17.1,12.5c6.6,0.5,13.1-2.1,18.5-5.7c1.7-1.1,3.4-2.5,5-3.9    c-4.5-5.2-9.1-10.6-13.4-15.6l0,0C305.4,253.2,287.9,256.2,287.4,265.6z" originalFill="#BB7112"/>
		<path fill="#BB7112" d="M313.3,291.1c-22.4,2.8-45.4-7.9-65-17.5C199,249.5,158.4,206.2,135,157.3c-10.3-21.5-18.6-43.9-27-66.2    c-1.6,1.5-3.2,3-4.8,4.4c1.6,4.1,3.2,8.3,4.8,12.5c11.7,30.6,23,62.1,42.1,89.2c17.3,24.5,39,46.3,63.1,64.4    c22.4,16.9,48.7,32.8,76.5,38.8c18.8,4.1,41.9,2.5,56.5-9.2l0,0c0,0,0,0,0,0c-0.3-0.4-0.5-0.7-0.8-1.1c0-0.1-0.1-0.1-0.1-0.2    c-0.3-0.4-0.6-0.7-0.8-1.1c-0.2-0.3-0.5-0.6-0.7-0.9c-0.1-0.1-0.1-0.2-0.2-0.3c-0.3-0.3-0.5-0.7-0.8-1c-0.1-0.1-0.1-0.2-0.2-0.2    c-0.3-0.4-0.6-0.8-0.9-1.2c0,0-0.1-0.1-0.1-0.1c-0.3-0.4-0.7-0.9-1.1-1.3c0,0,0,0,0,0c-1.1-1.4-2.3-2.8-3.5-4.4    C331.8,286.1,321.4,290.1,313.3,291.1z" originalFill="#BB7112"/>
		<path fill="#BB7112" d="M102.8,77.6c-0.5-1.3-1-2.5-1.5-3.8c-4.2-10.9-9.5-20.8-15.1-31c-1.2-2.2-2.4-4.4-3.6-6.7    c-2.1-2.3-4.3-4.5-6.5-6.7c-2.9,1.1-6.1,2.5-9.4,4.2c6.6,7.9,12.8,16,18.3,24.7c5,7.8,9.1,15.9,12.7,24.2    C99.5,80.9,101.1,79.2,102.8,77.6z" originalFill="#BB7112"/>
		<path fill="#BB7112" d="M68.1,22c-1.4,0.5-2.7,1.1-4.1,1.6c-0.1,0-0.2,0.1-0.3,0.1c-0.5,0.2-1.1,0.5-1.6,0.8    c-0.1,0.1-0.3,0.1-0.4,0.2c-0.6,0.3-1.3,0.6-1.9,1c0,0,0,0,0,0l0,0c0.8,0.9,1.6,1.9,2.5,2.8c2.9-1.7,6-2.9,8.9-3.7    C70.3,23.8,69.2,22.9,68.1,22z" originalFill="#BB7112"/>
		<path fill="#BB7112" d="M105.2,75.2c0.7-0.7,1.3-1.4,2-2c-2-4.3-4.2-8.6-6.6-12.8c-2.9-5-6-9.7-9.4-14.2c4,6.9,8,13.7,10.8,20.7    C103,69.7,104.1,72.4,105.2,75.2z" originalFill="#BB7112"/>
		<path fill="#BB7112" d="M297.9,244.5c-21.1,16.5-51.7,8.9-73.3-2.3c-24.9-12.8-46.1-33-63.2-54.8c-18-22.9-29.8-48-39.3-75.4    c-3-8.6-6-17.2-9.3-25.7c-0.8,0.8-1.6,1.6-2.4,2.4c6.7,17.6,13.3,35.3,20.7,52.7c18.2,42.6,46,79.4,83.3,107.6    c17.1,13,35.8,22.9,55.8,30.9c16.7,6.7,39.7,14.1,56.7,4.2c3.1-1.8,5.9-4.4,7.8-7.5c0,0,0,0,0,0c-0.1-0.1-0.2-0.2-0.3-0.3    c-0.7-0.8-1.3-1.6-2-2.4c-0.1-0.1-0.2-0.2-0.3-0.3c-0.7-0.9-1.5-1.8-2.2-2.7c-2.2,1.9-4.5,3.6-6.8,5.1c-6.5,4-14.3,6.3-21.9,4.8    c-6.3-1.3-14.3-5.7-16.4-12.2c-3.6-11.3,13.9-16.4,21.8-17.8c1.8-0.3,3.6-0.5,5.5-0.6c-2.2-2.5-4.3-4.9-6.2-7.1    c-0.1-0.1-0.1-0.2-0.2-0.3c-0.6-0.7-1.2-1.3-1.7-1.9c0,0,0,0-0.1-0.1c-0.3-0.4-0.6-0.7-1-1.1l0,0    C301.4,241.4,299.8,243,297.9,244.5z" originalFill="#BB7112"/>
		<path fill="#BB7112" d="M31,80.6C31,80.6,31,80.6,31,80.6c0,0.1,0,0.2,0,0.2c0.1,0.7,0.2,1.5,0.3,2.2c0,0.2,0.1,0.4,0.1,0.7    c0.1,0.8,0.3,1.6,0.5,2.4c0,0.1,0.1,0.2,0.1,0.3c0.2,0.8,0.4,1.6,0.7,2.3c0,0.1,0.1,0.2,0.1,0.4c0.6,1.7,1.2,3.3,2,4.9    c0.1,0.2,0.2,0.3,0.3,0.5c0.3,0.6,0.6,1.2,1,1.7c0.1,0.2,0.3,0.5,0.4,0.7c0.3,0.5,0.7,1,1.1,1.5c0.2,0.2,0.3,0.4,0.5,0.6    c0.5,0.7,1.1,1.3,1.7,2l0,0l0,0l8.3,8.2C46.9,97,40.4,82.2,31,80.6z" originalFill="#BB7112"/>
		<path fill="#BB7112" d="M57.6,112.9c2.2-10.4-4.1-22.5-10.9-30.3c-4.3-4.9-9.7-9.3-15.6-12.2c0,0,0,0,0,0c0,0,0,0.1,0,0.1    c-0.1,1.1-0.2,2.2-0.2,3.3c0,0.1,0,0.2,0,0.3c0,1.1,0,2.1,0,3.2c0,0.1,0,0.1,0,0.2c0,0,0,0,0,0c8.3,1.1,13.4,10.1,16.3,17.4    c1.9,4.9,3.9,11.3,4.1,17.4l2.8,2.7l0.8-0.5C55.7,114,56.7,113.4,57.6,112.9z" originalFill="#BB7112"/>
		<path fill="#BB7112" d="M63.5,124.5l9.7,9.6c0-0.4,0.1-0.7,0.1-1.1c0.7-5.1,1.1-10.2,1.1-15.3C70.8,120,63.5,124.5,63.5,124.5z" originalFill="#BB7112"/>
		<path fill="#BB7112" d="M52.8,78.9c6.7,8,12.1,18.9,12.2,29.3c2.6-1.7,5.1-3.5,7.7-5.3c-0.5-2.3-1.1-4.6-2-6.8    c-3.6-9.9-9.4-18.6-16.6-26.4c-4.6-4.9-12.1-13.2-19.7-13.6l0,0c-0.4,1.1-0.8,2.3-1.1,3.4c0,0,0,0,0,0.1c-0.3,1.2-0.7,2.3-0.9,3.5    c0,0.1,0,0.1,0,0.2c0,0,0,0,0,0C40.2,66.7,47.4,72.4,52.8,78.9z" originalFill="#BB7112"/>
		<path fill="#BB7112" d="M77.4,115.7c0.2,5.7-0.2,11.6-1,17.5c-0.2,1.2-0.3,2.4-0.5,3.7l2.2,2.2L88.2,149    c-2.6-11.8-4.7-23.8-7.7-35.6C79.5,114.2,78.5,114.9,77.4,115.7z" originalFill="#BB7112"/>
		<path fill="#BB7112" d="M52.4,63.5c8.4,8,15.4,17.4,19.9,28c1.3,3.1,2.4,6.3,3.1,9.4c0.4-0.3,0.9-0.6,1.3-1    c-4-12.1-9.2-23.4-17.1-33.7c-3.5-4.6-9.2-11.5-15.4-14.7c-0.7,1-1.3,2-1.8,2.9c0.4-1.1,0.8-2.2,1.2-3.2c-2.2-1-4.4-1.6-6.6-1.4    l0,0l0,0c-0.5,1.1-1,2.2-1.5,3.3c0,0,0,0,0,0l0,0C42,54,48,59.3,52.4,63.5z" originalFill="#BB7112"/>
		<path fill="#BB7112" d="M46.7,44.8c1-1.9,2.2-3.6,3.3-5.2c-1.5-0.9-3-1.8-4.5-2.7l0,0c0,0,0,0,0,0c-0.8,0.9-1.5,1.8-2.3,2.8    c0,0-0.1,0.1-0.1,0.1c-0.8,1-1.5,2-2.2,3.1l0,0l0,0C42.9,43.2,44.8,43.9,46.7,44.8z" originalFill="#BB7112"/>
		<path fill="#BB7112" d="M85.3,93.3C82.3,85.1,79,77,75,69.2c-3.7-7.3-8.2-14.2-13.6-20.4c-2.4-2.8-5.1-5-7.9-6.9    c-1.7,1.4-3.3,2.7-4.6,4.1c13.6,7.8,25.3,27.9,29.7,38.6c1.5,3.6,2.8,7.3,4,10.9C83.5,94.8,84.4,94.1,85.3,93.3z" originalFill="#BB7112"/>
		<path fill="#BB7112" d="M89.8,106.6c-1.1,0.8-2.2,1.7-3.3,2.5c3.7,14.8,6.3,29.9,10.1,44.9c0.4,1.5,0.8,3,1.2,4.5l0,0l9.6,9.5    l0.4,0.4c-4.9-16-9.2-32.1-13.9-48.2C92.6,115.7,91.2,111.1,89.8,106.6z" originalFill="#BB7112"/>
		<path fill="#BB7112" d="M87.8,91.2c1.5-1.2,2.9-2.5,4.4-3.8c-3.5-8.1-7.4-16.1-12.1-23.7c-5.9-9.4-12.6-18.2-19.7-26.7    c-1.5,0.9-2.9,1.8-4.2,2.8c1.8,1.3,3.4,2.6,5,4.2c5,5.1,9.4,11.2,13.1,17.4C79.8,70.8,84.1,80.9,87.8,91.2z" originalFill="#BB7112"/>
		<path fill="#BB7112" d="M52,37.1c1.4-1.7,3-3.2,4.5-4.5c-0.9-1-1.8-2.1-2.7-3.1l0,0c0,0,0,0,0,0c-0.8,0.5-1.5,1.1-2.2,1.7    c-0.1,0.1-0.2,0.1-0.3,0.2c-0.7,0.6-1.4,1.2-2.1,1.8c0,0,0,0,0,0l0,0c0,0,0,0,0,0c-0.5,0.4-0.9,0.9-1.4,1.4l0,0    C49.2,35.4,50.6,36.2,52,37.1z" originalFill="#BB7112"/>
		<path fill="#BB7112" d="M97.5,100.4c-1.7,1.4-3.4,2.8-5.1,4.2c0.2,0.6,0.4,1.2,0.6,1.7c5.5,17.5,10.2,35.2,15.3,52.8    c1.3,4.5,2.7,9.1,4.1,13.6l42,41.6l0,0c-1.9-2.4-3.8-4.8-5.6-7.2c-21.1-28.2-33.6-60.7-46-93.3C100.9,109.3,99.2,104.9,97.5,100.4    z" originalFill="#BB7112"/>
		<path fill="#BB7112" d="M346.5,358.3c4.1,9.9,2.9,19.9-1.8,27.8c0,0,0,0,0,0c1.9,1.6,3.9,3.1,5.8,4.7c0,0,0,0,0,0    c7.8-9.1,7.5-23.8,1.5-35.1c-5.9-11.1-16.5-17-28.5-20.1c-18.2-4.7-38.1-3.5-56-9.1l0,0c0.1,0.1,0.1,0.1,0.2,0.2    c0.9,0.8,1.8,1.7,2.6,2.5c0,0,0,0,0,0c0.9,0.8,1.7,1.6,2.6,2.4c0.1,0.1,0.3,0.2,0.4,0.4c0.7,0.7,1.5,1.4,2.2,2.1    c0.1,0.1,0.3,0.3,0.4,0.4c0.7,0.7,1.5,1.3,2.2,2c0.1,0.1,0.2,0.2,0.3,0.3c0,0,0,0,0,0c14.4,3.7,28.6,2.6,43.7,4.1    C333,342,342.3,348.1,346.5,358.3z" originalFill="#BB7112"/>
		<path fill="#BB7112" d="M353,392.9C353,392.9,353,392.9,353,392.9c1.1,0.9,2.2,1.8,3.3,2.7c0,0,0,0,0,0c4.4-5.2,7.1-12.1,7.3-20.6    c0.8-23.2-12.6-40.4-34.9-46.2c-19.4-5-39.7-4.4-59.1-9.5c-5-1.3-9.9-3.1-14.7-5c0,0,0,0,0,0c0.1,0.1,0.1,0.1,0.2,0.2    c1,1,2.1,2,3.1,3c0.1,0.1,0.3,0.3,0.4,0.4c1.1,1.1,2.2,2.2,3.4,3.3c24.7,10.9,54.8,3.6,78.3,17.9C358,349.8,366,378.1,353,392.9z" originalFill="#BB7112"/>
		<path fill="#BB7112" d="M329.8,363.1c-3.4-6.1-9.8-7.7-16.3-7c-2.8,0.3-5.4,0.7-8,1c0,0,0,0,0,0c8.3,5.7,16.5,11.6,24.5,17.7    c0,0,0,0,0,0C332.1,371.8,332.2,367.4,329.8,363.1z" originalFill="#BB7112"/>
		<path fill="#BB7112" d="M336.2,354.9c-8-9.1-21.7-7.5-32.7-7.8c-4.9-0.1-9.6-0.4-14.2-1c0,0,0,0,0,0c0.1,0.1,0.3,0.2,0.4,0.3    c0.1,0.1,0.3,0.2,0.4,0.3c0.3,0.2,0.6,0.5,0.9,0.6c0,0,0,0,0,0c0,0,0,0,0,0c3.4,2.2,6.8,4.5,10.2,6.7c0.1,0.1,0.2,0.2,0.4,0.2    c10.7-0.2,22.4-5.2,29.9,5.6c4,5.7,4,12.2,0.9,16.5c0,0,0,0,0,0c2.3,1.7,4.5,3.5,6.8,5.2c0,0,0,0,0,0c0.3-0.7,0.6-1.3,0.9-2    C343,371.6,342,361.6,336.2,354.9z" originalFill="#BB7112"/>
		<path fill="#BB7112" d="M360.7,321.7c3.4,5.5,7.7,9.8,12.7,13.6c0,0,0,0,0,0c-1.4-2.2-2.8-4.3-4.3-6.5c0,0,0,0,0,0    c-4.2-6.6-8.4-13.2-12.4-20c0,0,0,0,0,0C354.8,312,358.7,318.4,360.7,321.7z" originalFill="#BB7112"/>
		<path fill="#BB7112" d="M396.1,367.3c-2.1-2.7-4.1-5.5-6.1-8.2c0-0.1-0.1-0.1-0.1-0.2c-2-2.8-4-5.6-6-8.4c0,0,0,0,0,0    c-2.1-1.2-4.3-2.4-6.4-3.7c4.5,11.2,7.1,23.5,7.4,34.6c0.3,11.7-2.3,22.7-8.5,31.7c0,0,0,0,0,0c4.9,4.5,9.7,9,14.4,13.6    c0,0,0,0,0,0C398.2,408.9,399.3,387,396.1,367.3C396.1,367.3,396.1,367.3,396.1,367.3z" originalFill="#BB7112"/>
		<path fill="#BB7112" d="M298.3,308.9c-29.2-3.3-57.4-19-81-35.6c-4.8-3.4-9.6-6.9-14.3-10.6l29.9,29.6l0,0l0,0    c0.1,0.1,0.3,0.3,0.5,0.5c0.1,0.1,0.1,0.2,0.2,0.2c0.1,0.1,0.3,0.3,0.4,0.4c0.1,0.1,0.2,0.2,0.3,0.3c0.2,0.2,0.4,0.4,0.6,0.6    c0.2,0.2,0.5,0.5,0.7,0.8c0.1,0.1,0.2,0.2,0.3,0.3c0.2,0.2,0.5,0.5,0.7,0.7c0,0,0,0,0.1,0.1c0.6,0.6,1.2,1.3,1.9,1.9c0,0,0,0,0,0    c12.7,7.1,25.8,13.1,40.6,16.1c31.1,6.4,74.4,1.7,87.6,38.1c5.4,14.9,5.9,33-3.6,46.4c-0.4,0.6-0.9,1.2-1.3,1.7c0,0,0,0,0,0    c4.1,3.5,8.1,7,12,10.6c0,0,0,0,0,0c6.1-9.2,8.3-20.5,7.6-32.2c-0.7-11.3-3.7-24-8.8-35.1c-4.8-3.3-9.2-6.9-12.9-11.2    c-6.3-7.4-15.5-24.4-7.1-30.4c0,0,0,0,0,0c-1-1.7-2-3.5-3-5.2l0,0C336.4,307.5,317,310.9,298.3,308.9z" originalFill="#BB7112"/>
		<path fill="#BB7112" d="M453.7,435l-2.7-3c-1.4,3-3.1,5.8-5,8.4c5.2,7.3,11.5,7.9,17.4,5.3L453.7,435z" originalFill="#BB7112"/>
		<path fill="#BB7112" d="M433,411.9c-2.5-2.7-4.9-5.5-7.4-8.3c0-0.1-0.1-0.1-0.1-0.2c-0.1,10.3-0.2,20.6,2.1,30.6    c2.1-2,4-4.1,5.7-6.4C432.3,422.5,432.3,417.1,433,411.9C433,411.9,433,411.9,433,411.9z" originalFill="#BB7112"/>
		<path fill="#BB7112" d="M474,457.5l-5.7-6.4c-8.2,4.5-17.4,5.1-25.6-3.5c-0.5-0.5-1-1.1-1.4-1.6c-2,2.1-4.3,4-6.6,5.7    c6.7,10.8,18.7,22.7,31.5,15.2c3.1-1.8,6.4-4.6,9.3-7.9L474,457.5z" originalFill="#BB7112"/>
		<path fill="#BB7112" d="M425.6,457.1c4.6,5.5,9.8,9.8,15.5,12.8c-0.8-0.6-1.7-1.3-2.5-2c-4-3.5-7.3-7.7-10.1-12.2    C427.6,456.1,426.6,456.6,425.6,457.1z" originalFill="#BB7112"/>
		<path fill="#BB7112" d="M418.3,395.2c-1.3-1.5-2.5-3-3.8-4.5c0,0,0,0,0,0c-2,8.3-3.6,16.7-3.9,25.3c-0.4,9.5,1.6,18.3,5.5,26.4    c1.8-1,3.5-2,5.2-3.2c-1.6-5.4-2.7-11-3.1-16.5C417.5,413.7,418.2,404.4,418.3,395.2C418.3,395.2,418.3,395.2,418.3,395.2z" originalFill="#BB7112"/>
		<path fill="#BB7112" d="M462.8,475.3c0.5,0,1,0.1,1.6,0.1c7.4,0.1,14.8-1.9,20.3-6l0,0l-4.7-5.2l0,0c-1.1,1.3-2.3,2.5-3.5,3.6    C472.3,471.7,467.6,474.2,462.8,475.3z" originalFill="#BB7112"/>
		<path fill="#BB7112" d="M453.9,482.9c9.9,3.9,19.6,4.7,30.1,3.5c3.7-0.4,8.7-1.1,14-2.2l0,0l-11.1-12.3l0,0    c-14.7,10.7-42.2,7.4-55.5-3.9c-0.5-0.4-1-0.9-1.5-1.4l10,10.2C444.6,478.8,449.1,481,453.9,482.9z" originalFill="#BB7112"/>
		<path fill="#BB7112" d="M413.2,443.9c-2.9-6.2-4.9-12.7-5.4-19.3c-1.1-12.4,1.4-24.8,4.4-36.9c0,0,0,0,0,0    c-2.6-3.1-5.1-6.3-7.6-9.5c0,0,0,0,0,0c1.4,18.5-1,37.7-8.4,53.8c0,0,0,0,0,0c1.3,1.3,2.6,2.6,3.9,3.9c1.4,1.4,2.7,2.7,4,4.1    l5.3,5.4l1.6-0.6C411.7,444.5,412.4,444.2,413.2,443.9z" originalFill="#BB7112"/>
		<path fill="#BB7112" d="M504.9,491.7L504.9,491.7l-1.6-1.7h0c-4.6,1.2-9.1,2-12.9,2.6c-10.5,1.7-21.1,2.4-31.5-0.5    c-2-0.6-3.9-1.2-5.9-1.9l5.1,5.2C474,499.8,490.5,498.7,504.9,491.7z" originalFill="#BB7112"/>
		<path fill="#BB7112" d="M511.6,499.1L511.6,499.1L507,494l0,0c-13.7,6.9-29.4,8.6-44.7,5.4l9.3,9.5    C485.1,509.9,499.8,506.3,511.6,499.1z" originalFill="#BB7112"/>
		<path fill="#BB7112" d="M519.6,507.1C519.6,507.1,519.6,507.1,519.6,507.1c-1.9-1.7-3.7-3.5-5.5-5.3c-0.1-0.1-0.3-0.2-0.4-0.4    c-11.5,7.1-25.6,10.9-39.1,10.7l3.8,3.9C492.9,516.1,507.5,513.6,519.6,507.1z" originalFill="#BB7112"/>
		<path fill="#BB7112" d="M526.4,523.1c4.6-0.3,9.2-0.9,13.8-1.7l0,0c-6.4-3.5-12.5-7.5-18.1-12.1c0,0,0,0,0,0    c-12,6.7-26.4,9.6-40.7,9.9l0.1,0.1C496.4,522.9,512.1,523.9,526.4,523.1z" originalFill="#BB7112"/>
		<path fill="#BB7112" d="M490,528.1C490,528.1,490,528.1,490,528.1c1,1.2,1.9,2.3,2.9,3.5c0,0,0,0,0,0c14.8,2.2,29.1,4.2,44.3,2.7    c2.1-0.2,8.8-0.6,15.7-1.6c0,0,0,0,0,0c0-0.1-0.1-0.2-0.1-0.3c-0.1-0.4-0.2-0.8-0.3-1.1c-0.1-0.2-0.2-0.4-0.2-0.6    c-0.1-0.3-0.3-0.6-0.4-1c-0.1-0.3-0.3-0.5-0.4-0.8c-0.1-0.2-0.3-0.5-0.4-0.7c-0.3-0.5-0.7-0.9-1.1-1.3c0,0-0.1-0.1-0.1-0.1    C531.6,532,510,531.9,490,528.1z" originalFill="#BB7112"/>
		<path fill="#BB7112" d="M543.1,544.3c-8.8,0.2-17.5,1.7-26.2,1.3c-5.5-0.3-10.9-1.2-16.2-2.3c0,0,0,0,0,0c1,1.8,2.1,3.6,3,5.5    c0,0,0,0,0,0c12.7,3.2,25.8,4.8,38.7,4.9c1.4,0,2.8,0,4.2,0c0,0,0,0,0,0c0.1-0.1,0.1-0.1,0.1-0.2c0.5-0.7,1-1.4,1.5-2    c0,0,0-0.1,0.1-0.1c0.5-0.7,1-1.5,1.4-2.3c0,0,0,0,0,0c0.5-0.8,0.9-1.6,1.3-2.4c0.2-0.4,0.3-0.8,0.5-1.2c0.1-0.4,0.3-0.7,0.4-1.1    c0,0,0,0,0,0C548.9,544.4,545.9,544.3,543.1,544.3z" originalFill="#BB7112"/>
		<path fill="#BB7112" d="M544.4,536.7c-7,0.8-14.1,1.8-21.1,1.7c-9.3-0.1-18.6-1.6-27.8-3.2c0,0,0,0,0,0c1,1.4,2,2.9,2.9,4.4    c0,0,0,0,0,0c11.7,2.1,22.7,3.3,35,2.3c4.8-0.4,12.4,0.3,19.3-0.3c0,0,0,0,0,0c0,0,0-0.1,0-0.1c0.1-0.3,0.1-0.5,0.2-0.8    c0.1-0.7,0.3-1.4,0.3-2c0,0,0-0.1,0-0.1c0.1-0.6,0.1-1.2,0.1-1.8c0-0.3,0-0.6,0-1c0,0,0,0,0,0    C549.6,536.3,546.2,536.5,544.4,536.7z" originalFill="#BB7112"/>
		<path fill="#BB7112" d="M507.5,557c0.3,0.8,0.7,1.5,1,2.3c0.3,0.7,0.6,1.3,1,2c0.4,0.6,0.9,1.2,1.4,1.8c0.4,0.4,0.8,0.8,1.3,1.2    c0.2,0.1,0.3,0.2,0.5,0.3c0.3,0.2,0.6,0.4,0.9,0.6c0.2,0.1,0.4,0.2,0.6,0.3c0.3,0.2,0.6,0.3,0.9,0.4c0.2,0.1,0.5,0.2,0.7,0.3    c0.3,0.1,0.6,0.2,0.9,0.3c0.3,0.1,0.6,0.2,0.9,0.2c0.3,0.1,0.6,0.1,0.9,0.2c0.3,0.1,0.6,0.1,1,0.1c0.3,0,0.5,0,0.8,0.1    c0.4,0,0.7,0,1.1,0c0.2,0,0.4,0,0.7,0c0.4,0,0.9,0,1.3-0.1c0.1,0,0.2,0,0.3,0c2.7-0.3,5.5-1,8.3-2.3c1.1-0.5,2.1-1,3.2-1.6    c0,0,0,0,0,0c0.7-0.4,1.3-0.8,1.9-1.2c0,0,0,0,0,0c0.6-0.4,1.3-0.9,1.9-1.3c0,0,0,0,0,0C528.6,560.5,517.9,559.2,507.5,557z" originalFill="#BB7112"/>
	</g>
	<g>
		<path fill="#FFFFFF" d="M546.4,524.5c1.3,0.6,2.5,1.5,3.5,2.5c0,0,0.1,0.1,0.1,0.1c0.4,0.4,0.7,0.9,1.1,1.3    c0.2,0.2,0.3,0.5,0.4,0.7c0.1,0.2,0.3,0.5,0.4,0.8c0.2,0.3,0.3,0.6,0.4,1c0.1,0.2,0.2,0.4,0.2,0.6c0.1,0.4,0.2,0.7,0.3,1.1    c0,0.1,0.1,0.2,0.1,0.3c0,0,0,0,0,0c0.2,1,0.4,2,0.4,3c0,0,0,0,0,0c0,0.3,0,0.6,0,1c0,0.6,0,1.2-0.1,1.8c0,0,0,0.1,0,0.1    c-0.1,0.7-0.2,1.4-0.3,2c-0.1,0.3-0.1,0.5-0.2,0.8c0,0,0,0.1,0,0.1c0,0,0,0,0,0c-0.2,0.9-0.5,1.7-0.8,2.6c0,0,0,0,0,0    c-0.1,0.4-0.3,0.7-0.4,1.1c-0.2,0.4-0.3,0.8-0.5,1.2c-0.4,0.8-0.8,1.6-1.3,2.4c0,0,0,0,0,0c-0.4,0.8-0.9,1.5-1.4,2.3    c0,0,0,0.1-0.1,0.1c-0.5,0.7-1,1.4-1.5,2c-0.1,0.1-0.1,0.1-0.1,0.2c0,0,0,0,0,0c-1.2,1.5-2.5,3-4,4.3c-1.1,1-2.3,1.9-3.4,2.8    c0,0,0,0,0,0c-0.6,0.5-1.3,0.9-1.9,1.3c0,0,0,0,0,0c-0.6,0.4-1.3,0.8-1.9,1.2c0,0,0,0,0,0c-1,0.6-2.1,1.1-3.2,1.6    c-2.8,1.2-5.7,2-8.3,2.3c-0.1,0-0.2,0-0.3,0c-0.4,0-0.9,0-1.3,0.1c-0.2,0-0.5,0-0.7,0c-0.4,0-0.7,0-1.1,0c-0.3,0-0.5,0-0.8-0.1    c-0.3,0-0.7-0.1-1-0.1c-0.3,0-0.6-0.1-0.9-0.2c-0.3-0.1-0.6-0.1-0.9-0.2c-0.3-0.1-0.6-0.2-0.9-0.3c-0.3-0.1-0.5-0.2-0.7-0.3    c-0.3-0.1-0.6-0.3-0.9-0.4c-0.2-0.1-0.4-0.2-0.6-0.3c-0.3-0.2-0.6-0.4-0.9-0.6c-0.2-0.1-0.3-0.2-0.5-0.3c-0.4-0.4-0.9-0.7-1.3-1.2    c-0.5-0.5-1-1.1-1.4-1.8c-0.4-0.6-0.7-1.3-1-2c-0.2-0.4-0.3-0.7-0.5-1.1c0.6,3.8,3.8,14,13.9,18.4c11.7,5,41.3-19.1,42.4-31.6    c1.2-12.3-12.3-21.5-20-21.5C545.1,523.8,545.7,524.2,546.4,524.5z" originalFill="#FFFFFF"/>
		<path fill="#FFFFFF" d="M48.9,45.9c1.3-1.3,2.9-2.7,4.6-4.1c0.9-0.7,1.8-1.4,2.7-2c1.3-0.9,2.7-1.8,4.2-2.8    c0.4-0.2,0.7-0.5,1.1-0.7c1.8-1,3.5-2,5.2-2.9c3.4-1.7,6.5-3.1,9.4-4.2c2.8-1.1,5.4-1.9,7.7-2.5c2.7-0.7,5.1-1.1,7.1-1.4    c4.5-0.6,7.3-0.3,8.3-0.2c0.3,0,0.4,0.1,0.4,0.1s-0.2-0.1-0.5-0.1c-1.3-0.4-4.9-1.4-9.9-1.8c-2.7-0.3-5.8-0.4-9.2-0.1    c-2.8,0.2-5.8,0.7-8.8,1.5c-3,0.8-6,2-8.9,3.7c-2,1.1-3.9,2.5-5.8,4.1c-1.6,1.3-3.1,2.8-4.5,4.5c-0.7,0.8-1.3,1.6-2,2.5    c-1.2,1.6-2.3,3.3-3.3,5.2c-1.1,2-2.1,4.1-3.1,6.5c-0.4,1-0.8,2.1-1.2,3.2c0.5-0.9,1.1-1.9,1.8-2.9C45.5,49.8,47,47.9,48.9,45.9z" originalFill="#FFFFFF"/>
		<path fill="#FFFFFF" d="M112.8,36.7c-1.7,0.5-3.2,1.5-4.3,3.1c-0.2,0.2-0.3,0.5-0.5,0.7c-1.8,2.8,0.4,6.4,3.8,6.3    c2.6-0.1,5.5,0.7,8.7,2.9c0.7,0.5,1.5,1.1,2.2,1.7c0.4,0.4,1.1,1,1.8,1.7c2,2,5.2,5.3,9.2,9.6c2.2,2.4,4.7,5,7.4,8    c1.5,1.7,3.1,3.4,4.8,5.2c5,5.4,10.6,11.5,16.6,18c2.3,2.6,4.7,5.2,7.2,7.9c3.4,3.8,7,7.6,10.6,11.6c1,1.1,2.1,2.3,3.2,3.5    c2.5,2.8,5.1,5.6,7.6,8.4c2.5,2.8,5,5.5,7.5,8.3c10,11.1,20.2,22.3,29.9,33c2.4,2.7,4.8,5.3,7.1,7.9c4.3,4.8,8.5,9.5,12.6,13.9    c0.6,0.7,1.3,1.4,1.9,2.1c2.5,2.7,4.9,5.4,7.1,7.9c1.6,1.8,3.2,3.6,4.7,5.3c9.7,10.8,17.4,19.3,21.6,24.1c0.9,1,1.6,1.8,2.2,2.5    c1,1.1,1.5,1.7,1.5,1.7l-1.5-1.7l-2.2-2.5l-21.1-24.5l-4.6-5.4l-6.9-8.1l-1.8-2.1l-11.5-13.4l-6.4-7.4L198,128.3l-7.1-8.2    l-7.6-8.8l-3.1-3.6l-11.2-13l-7.5-8.7l-12.8-14.8l-5.6-6.5l-4.3-4.9l-1.7-2l-8.7-10.1l-7.5-8.6C119,36.6,115.7,35.8,112.8,36.7z" originalFill="#FFFFFF"/>
	</g>
	<g>
		<path opacity="0.2" d="M348.5,294.6c-8.1,25.5-28.7,45.1-54.8,52.1l-2.6,0.7c41.4,26.8,78.6,57.4,112.9,92.6l81.9,83.6    c9.7,9.9,16.8,21.9,22.1,34.6c0.6,3.8,3.8,14,13.9,18.4c11.7,5,41.3-19.1,42.4-31.6c1.2-12.3-12.3-21.5-20-21.5    c-12.1-6.1-23.3-13.9-32.4-23.9l-78.3-86.8C400.7,376.3,372.6,337.4,348.5,294.6z" fill="#000000" originalFill="#000000"/>
		<path opacity="0.2" d="M49.2,33.2L49.2,33.2C33,48,24.8,77.7,36,96l2.4-1.3C68,79,93.1,56.1,111.3,28.1l2.2-3.4    C95.8,12.3,65.3,18.3,49.2,33.2z" fill="#000000" originalFill="#000000"/>
	</g>
</g>
</svg>