<svg xmlns="http://www.w3.org/2000/svg" xmlns:xlink="http://www.w3.org/1999/xlink" version="1.1" id="svg-edited-version" x="0px" y="0px" viewBox="0 0 595.3 595.3" enable-background="new 0 0 595.3 595.3" xml:space="preserve" class="injected-svg" data-src="https://preview.pixlr.com/images/svg/100/1/23a38a042a5d4acd4c72da23c6523fd74fb651498e33c0870577cecf76080794.svg">
<g>
	<path fill="#754C29" d="M279.1,254.3c-0.1,0-0.3-0.1-0.4-0.1c-0.3-0.1-0.7-0.2-1.2-0.3l0.7-1.6c0,0,3.8-1.1,6.9,0.4   c0.6,0.2,1.1,0.4,1.7,0.7c3.2,1.8-8,24.6-12.9,24.9c-1.6,0.1-2.6-0.2-3.4-0.6c-2.7-0.6-2.7-2.7-2.7-2.7l1.8-3.9   c0.4,0.2,0.8,0.4,1.1,0.6c0.6,0.3,0.9,0.5,0.9,0.5C278.1,271.1,285,256.5,279.1,254.3z M237.2,334.3c0,0-0.7-0.8-2-1.8   c-0.3-0.2-0.6-0.5-1-0.8l-2.4,3.6c0,0-0.3,2.1,2.2,3.1c0.7,0.5,1.7,0.9,3.2,1.1c4.9,0.5,19.6-20.1,16.8-22.5   c-0.5-0.4-1-0.7-1.5-0.9c-2.8-1.9-6.8-1.5-6.8-1.5l-0.8,1.1c0.4,0.2,0.7,0.5,1,0.7C253.4,322.5,243.4,333.3,237.2,334.3z    M498,334.6c-4.3,13.8-10.5,27.1-19.3,33.9c-2.1,1.6-5.3,3.5-9.2,5.5c-8.5,4.4-20.6,9.5-34.5,14.9c-16.7,6.5-35.9,13.3-53.9,19.5   c-8.2,2.8-16.1,0-21.1-5.5c-4.8-5.3-6.8-13.2-3.5-20.9c6.8-15.9,12.9-32.2,18.4-44.7c1.5-3.4,3.6-7.5,6.2-12.3   c0.6-1.1,1.2-2.1,1.8-3.2c0.4-0.8,0.9-1.5,1.3-2.3c0.7-1.2,1.4-2.4,2.1-3.6c1.4-2.5,2.9-5.1,4.5-7.7c0.8-1.3,1.6-2.7,2.4-4   c2.2-3.7,4.6-7.5,6.9-11.4c0.8-1.3,1.6-2.6,2.4-3.9c1-1.6,1.9-3.1,2.9-4.7c1.8-2.9,3.7-5.9,5.5-8.8c1.1-1.7,2.2-3.5,3.3-5.2   c0.8-1.2,1.5-2.5,2.3-3.7c2.3-3.7,4.6-7.4,6.9-11c2.3-3.6,4.5-7.1,6.6-10.5c0.4-0.6,0.8-1.3,1.2-1.9c0.4-0.6,0.8-1.2,1.1-1.8   c1.3-2.1,2.6-4.1,3.8-6.1c0.1-0.2,0.2-0.3,0.3-0.5c0.6-1,1.2-2,1.8-3c0.1-0.1,0.1-0.2,0.2-0.4c2.4-3.8,4.5-7.4,6.3-10.5   c0.2-0.4,0.5-0.8,0.7-1.2c0.1-0.1,0.2-0.2,0.2-0.3c0.3-0.4,0.6-0.8,0.9-1.2c1.3-1.6,2.9-3,4.8-4.1c0.4-0.2,0.8-0.4,1.2-0.6   c1.8-0.8,3.3-1.2,4.7-0.9c0.5,0.1,1,0.2,1.5,0.4c0.3,0.1,0.7,0.3,1,0.4c0.2,0.1,0.4,0.1,0.6,0.2c0.3,0.1,0.6,0.3,1,0.5   c0.3,0.1,0.5,0.3,0.8,0.4c0.4,0.2,0.7,0.4,1.1,0.6c0.3,0.2,0.5,0.3,0.8,0.5c0.4,0.2,0.7,0.5,1.1,0.7c0.3,0.2,0.5,0.4,0.8,0.5   c0.3,0.2,0.6,0.5,1,0.7c0.3,0.2,0.7,0.5,1,0.7c0.4,0.3,0.7,0.5,1.1,0.8c0.3,0.2,0.6,0.5,1,0.7c0.4,0.3,0.7,0.6,1.1,0.9   c0.3,0.3,0.6,0.5,1,0.8c0.4,0.4,0.9,0.7,1.3,1.1c0.3,0.2,0.5,0.4,0.8,0.6c0.4,0.3,0.7,0.7,1.1,1c0.3,0.3,0.6,0.5,0.9,0.8   c0.4,0.3,0.7,0.6,1.1,1c0.3,0.3,0.6,0.6,0.9,0.8c0.5,0.4,0.9,0.8,1.4,1.3c0.2,0.2,0.4,0.4,0.6,0.5c0.5,0.5,1,1,1.5,1.4   c0.1,0.1,0.2,0.2,0.3,0.3c0.3,0.3,0.7,0.6,1,1c0.3,0.3,0.5,0.5,0.8,0.8c0.5,0.5,0.9,0.9,1.4,1.4c0.1,0.1,0.2,0.2,0.3,0.3   c0.5,0.5,0.9,0.9,1.3,1.3c0.1,0.1,0.1,0.1,0.2,0.2c0,0,0,0,0,0c-2.5-5.8-5.1-11.3-7.7-16.5c0-0.1-0.1-0.2-0.1-0.3   c-0.8-1.7-1.7-3.3-2.5-4.9c0,0,0,0,0,0c-0.1-0.1-0.2-0.1-0.3-0.2c-14.4-9.7-22.7-26.1-22.4-43.4c0.1-3.2,0.1-6.5,0.1-9.8   c0.1-10,0.2-20.3,0.2-29.6c0,0,0,0,0,0v0v0c-0.2-1.5-0.5-3.1-0.7-4.6c0-0.1,0-0.2,0-0.2c-0.2-1.4-0.4-2.8-0.7-4.2   c0-0.2-0.1-0.4-0.1-0.7c-0.2-1.3-0.4-2.5-0.6-3.7c-0.1-0.4-0.1-0.8-0.2-1.2c-0.1-0.9-0.3-1.7-0.4-2.6c0-0.3-0.1-0.6-0.1-0.9   c0-0.3-5-29.8-5.6-30.9c0,0.7,0.8,17.7,0.8,18.3c0,0.4,0,0.7,0,1.1c0,0.4,0,0.8,0,1.2c0,1.7,0,3.5,0,5.3c0,2.1,0,4.3,0,6.6   c0,0.1,0,0.3,0,0.4c0,3.6,0,7.2,0,11v0c0,8.9-0.1,18.1-0.2,26.8c-0.3,26.4-7.3,52.3-20.3,75.3c-15.3,27.1-35.6,63-44.9,79.7   c-16.1,28.9-40.9,104.6-60.5,117.1c-12.8,8.2-66,13.5-101.4,16.3c-25.1,2-50.1-5.3-70.1-20.6c-0.3-0.3-0.7-0.5-1-0.8   c-0.2-0.2-0.4-0.3-0.6-0.5c-0.8-0.6-1.6-1.2-2.5-1.8c-0.4-0.3-0.8-0.5-1.2-0.7c-0.5-0.3-1-0.6-1.5-0.9c-0.4-0.2-0.9-0.5-1.3-0.7   c-0.5-0.3-1-0.5-1.5-0.8c-0.5-0.2-1-0.5-1.6-0.7c-0.5-0.2-0.9-0.4-1.4-0.6c-0.5-0.2-1-0.4-1.4-0.6c-0.5-0.2-1.1-0.4-1.6-0.6   c-0.5-0.2-1-0.3-1.5-0.5c-0.5-0.2-1.1-0.4-1.6-0.5c-0.6-0.2-1.1-0.3-1.7-0.5c-0.5-0.1-1-0.3-1.5-0.4c-0.6-0.2-1.2-0.3-1.9-0.4   c-0.4-0.1-0.9-0.2-1.3-0.3c-0.6-0.1-1.3-0.3-1.9-0.4c-0.4-0.1-0.8-0.2-1.3-0.3c-0.7-0.1-1.3-0.2-1.9-0.3c-0.4-0.1-0.8-0.1-1.2-0.2   c-0.8-0.1-1.6-0.2-2.4-0.3c-0.2,0-0.5-0.1-0.7-0.1c-0.8-0.1-1.5-0.2-2.3-0.3c-0.3,0-0.6-0.1-0.8-0.1c-0.8-0.1-1.6-0.1-2.4-0.2   c-0.2,0-0.4,0-0.6-0.1c-0.8-0.1-1.6-0.1-2.3-0.2c-0.2,0-0.4,0-0.6,0c-0.7,0-1.4-0.1-2.1-0.1c-0.2,0-0.4,0-0.6,0   c-0.8,0-1.7-0.1-2.5-0.1c0,0-0.1,0-0.2,0c-0.5,1.1-1,2.2-1.4,3.3c-0.4,1-0.7,1.9-1,2.9v0l0,0c-0.1,0.2-0.1,0.4-0.2,0.7   c-0.1,0.5-0.3,1-0.4,1.5c0,0,0,0,0,0c-0.5,2-0.9,4.1-1.2,6.2c0,0,0,0.1,0,0.1l0,0c-0.2,1.4-0.3,2.7-0.4,4.1l-0.1,2.5   c-0.9,19.1,11.8,35.9,29.9,40.4c1.5,0.4,3.1,0.7,4.7,0.9c0.9,0.1,1.8,0.2,2.7,0.3c0.4,0,0.8,0.1,1.2,0.1c0.7,0.1,1.4,0.2,2.1,0.3   c0.6,0.1,1.2,0.1,1.8,0.2c1,0.1,2,0.2,3,0.4c0.3,0,0.6,0.1,0.9,0.1c1.2,0.2,2.5,0.3,3.8,0.5c0.1,0,0.1,0,0.1,0   c3.1,0.4,6.4,0.8,9.7,1.2c1.9,0.2,3.8,0.4,5.7,0.7c0,0,0.1,0,0.1,0c0.5,0.1,1,0.1,1.5,0.2l0,0c0.2,0,0.4,0,0.5,0.1   c28.6,3.3,60.3,6.4,83.6,7.1c2.7,0.1,5.2,0.1,7.6,0.2c5.5,0,10.3-0.1,14.2-0.4c0.9-0.1,1.8-0.2,2.7-0.3c0,0,0.1,0,0.1,0   c2.8-0.3,5.5-0.8,8.2-1.4c14.3-3.2,27.5-10.3,38.5-20.1c4.4-3.9,9.3-8.3,14.5-12.6c6.3-5.4,13.4-9.6,20.9-13.1   c0.4-0.2,0.8-0.4,1.2-0.6c1.2-0.7,2.7-1.4,4.3-2.1l-0.9,21.9c0,0,0,0,22-1.2c7.6-0.4,15.6,0.2,22.8,1.2c2.6,0.4,5.1,0.8,7.4,1.2   c7.7,1.4,13.6,3,15.8,3.6c0.6,0.2,0.9,0.3,0.9,0.3l7.1-1l47.4-6.7c2-5.9,10.9-58.4,13.1-71.7c0.2-1.2,0.4-2.4,0.5-3   c0,0,0-0.1,0-0.1c0-0.1,0-0.2,0-0.3c0-0.1,0-0.2,0-0.3c0,0,0,0,0,0c0.1-0.6,0.1-1.2,0.2-1.8c0.1-0.5,0.1-1.1,0.2-1.6   c0.1-0.6,0.1-1.3,0.2-1.9c0.1-0.9,0.2-1.9,0.3-2.8c0.1-0.7,0.1-1.4,0.2-2c0.1-0.9,0.2-1.9,0.2-2.8c0.1-0.7,0.1-1.5,0.2-2.2   c0.1-0.9,0.1-1.9,0.2-2.8c0.1-0.8,0.1-1.7,0.2-2.5c0.1-0.9,0.1-1.7,0.2-2.6c0.1-1.1,0.1-2.3,0.2-3.4c0.1-0.8,0.1-1.7,0.2-2.5   c0.1-1.5,0.2-3,0.3-4.5c0-0.7,0.1-1.3,0.1-2C497.9,336.5,498,335.5,498,334.6C498,334.6,498,334.6,498,334.6z M283,35.3   c0.4,4.7,0.9,10.6,1.5,16.9c2.7-0.8,5.1-1.5,7.2-2c1.4-0.3,2.5-0.6,3.5-0.8c0.2-4.7,0.5-8,1-9.4c1.2-3.3,4.1-6.1,7.5-8.3   c0,0,0,0,0,0c0,0,0,0,0,0c0,0,0,0,0,0c0,0,0,0,0,0c-0.1,0-0.2,0-0.2,0c-0.1,0-0.2,0-0.4,0c-1.3,0.1-2.6,0.2-3.9,0.4   c-0.1,0-0.2,0-0.3,0c-0.1,0-0.2,0-0.2,0c0,0-0.1,0-0.1,0c-0.1,0-0.2,0-0.3,0.1c-0.5,0.1-1,0.1-1.4,0.2c-0.2,0-0.5,0.1-0.7,0.1   c-0.7,0.1-1.4,0.2-2.1,0.3c0,0,0,0,0,0c0,0,0,0,0,0s0,0,0,0c-0.1,0-0.3,0-0.4,0.1c-0.1,0-0.1,0-0.2,0c-1.6,0.3-3.3,0.6-4.9,1   c-0.1,0-0.2,0.1-0.3,0.1c-1.2,0.3-2.3,0.6-3.5,0.8c-0.1,0-0.2,0.1-0.3,0.1c-0.2,0-0.4,0.1-0.6,0.1l0,0c-0.1,0-0.3,0.1-0.4,0.1   C283.1,35.3,283.1,35.3,283,35.3C283,35.3,283,35.3,283,35.3C283,35.3,283,35.3,283,35.3z M299.8,43.5c-1.9,0.8-3.3,2-3.3,2   l0.1,3.7c0.4-0.1,0.7-0.1,1-0.1c0.1,0,0.2,0,0.2,0c0.4,0,0.7,0.1,1.1,0.2c5.2,2,6.6,15.3,1.2,18.4c0,0-0.7,0-1.8,0   c-0.1,0-0.1,0-0.2,0c-0.3,0-0.7,0-1,0l0.1,2.7c0,0,0.3,0.5,0.9,0.9c0.6,0.4,1.5,0.6,2.7,0.3c0.8,0,1.9-0.2,3.3-1   c4.3-2.4,4.2-27.8,0.6-28c-0.6,0-1.2,0-1.8,0.2C301.7,42.9,300.7,43.1,299.8,43.5z M298.2,104.2c0,0-0.2,0-0.6,0   c-0.3,0-0.7,0-1.2,0c-0.4,0-0.8,0-1.2,0l0,2.7c0,0,0.6,1.4,2.5,1.5c0.3,0,0.7,0,1.1-0.1c0.8,0.1,1.9-0.1,3.3-0.8   c4.4-2.2,5.5-27.6,1.8-28c-0.6-0.1-1.2,0-1.8,0.1c-1.5,0-2.9,0.4-4,1c-1.4,0.7-2.4,1.5-2.4,1.5l-0.1,3.6c0.4,0,0.7,0,1,0   c0.1,0,0.2,0,0.2,0c0.4,0,0.8,0.2,1.1,0.3C302.9,88.2,303.6,101.4,298.2,104.2z M304.2,111.1c-0.6-0.1-1.2,0-1.8,0.1   c-1.9,0-3.7,0.7-4.9,1.4c-1,0.5-1.6,1-1.6,1l-0.1,3.6c0.4,0,0.7,0,1,0c0.1,0,0.2,0,0.2,0c0.1,0,0.2,0,0.3,0   c5.8,1.1,6.9,15.6,1.1,18.6c0,0-0.6,0-1.5-0.1c-0.1,0-0.2,0-0.3,0c-0.4,0-0.8,0-1.2,0l0,2.7c0,0,0.4,0.9,1.5,1.3   c0.5,0.2,1.2,0.3,2.1,0.1c0.8,0.1,1.9-0.1,3.3-0.8C306.8,136.9,307.9,111.5,304.2,111.1z M287.2,104.2c-0.1,4.5-0.3,9.3-0.6,14.4   c1.6-0.3,3-0.5,4.3-0.7c1.4-0.2,2.6-0.4,3.5-0.5c0.1-4.5,0.1-8.9,0.1-13.3c-1,0-2.3,0-3.6,0C289.9,104.1,288.6,104.1,287.2,104.2z    M284.7,149.8c1.2-0.2,2.3-0.4,3.3-0.6c2.3-0.4,4.3-0.7,5.8-0.9c0.1-4.2,0.3-8.3,0.4-12.5c-1.3,0-2.9,0-4.6,0   c-1.3,0-2.6,0.1-3.9,0.1C285.3,140.6,285,145.2,284.7,149.8z M294.8,67.8c-1.1,0-2.3,0.1-3.6,0.2c-1.7,0.1-3.5,0.3-5.3,0.5   c0.4,4.7,0.8,9.3,1.2,13.6c0.1,1.4,0.2,3,0.3,4.8c1.4-0.3,2.6-0.5,3.7-0.7c1.5-0.3,2.7-0.5,3.7-0.6   C294.8,79.2,294.8,73.2,294.8,67.8z M179.7,340.1c8.2-0.3,17.9,0.9,26,2.2c10.6,1.7,21.2-2.7,27.4-11.4c-2.4-1.6-5.8-3.2-9.7-3.5   c-4.2,3.5-9.6,5.4-15.2,5.1c-4.2-0.3-8.5-0.6-12.6-0.9c-0.8-0.1-1.5-0.1-2.3-0.2c-1.5-0.1-3-0.3-4.3-0.4c0,0,0,0,0,0c0,0,0,0,0,0   c0,0,0,0,0,0c0,0,0,0,0,0c0,0-0.1,0.1-0.1,0.1c-0.6,0.7-1.2,1.4-1.9,2.1c-0.7,0.7-1.4,1.5-2.2,2.2c0,0-0.1,0.1-0.1,0.1c0,0,0,0,0,0   c-0.7,0.7-1.4,1.3-2.1,2c0,0,0,0,0,0c-0.2,0.1-0.3,0.3-0.5,0.4c0,0,0,0,0,0C181.3,338.6,180.5,339.4,179.7,340.1L179.7,340.1   L179.7,340.1z M288.8,247.8c4-0.6,10.7-16.7,11.1-23.3c0.1-1.4-0.1-2.3-0.6-2.7c0,0,0,0-0.1-0.1c-0.6-0.3-1.1-0.4-1.7-0.5   c-3.2-1.1-6.9,0.3-6.9,0.3l-1.2,3.4c0.4,0.1,0.7,0.2,0.9,0.3c0.1,0,0.1,0.1,0.2,0.1c5.5,2.5,2.1,17.1-4.4,18.2c0,0-0.6-0.2-1.7-0.6   c-0.3-0.1-0.7-0.3-1.2-0.4l-0.9,2.6c0,0,0.2,2.1,3,2.4C286.2,247.9,287.3,248,288.8,247.8z M245.8,311.3c2.2-3.5,4.4-7.2,6.7-11   c0.5-0.9,1.1-1.9,1.7-2.8c-0.5-0.2-1-0.5-1.5-0.7c-2.4-1.1-5.5-2.2-8.9-2.7c-3.3,6.1-6.6,11.8-9.5,17c-0.4,0.7-0.8,1.4-1.2,2.1   c4.7,0.5,8.5,1.2,10.4,1.9C244.3,313.8,245,312.6,245.8,311.3z M262.9,281.9c0.1-0.3,0.3-0.5,0.4-0.8L262.9,281.9   c0.2,0,0.4,0.1,0.5,0.1c0.3,0.1,0.5,0.1,0.8,0.2c0.3,0.1,0.5,0.2,0.8,0.2c3.3,1.2,2.5,5.9,0,10c-1.9,3.2-5,6.1-7.9,6.6   c0,0-0.2-0.1-0.5-0.3c-0.2-0.1-0.5-0.3-0.8-0.4c-0.1-0.1-0.2-0.1-0.3-0.2l-0.2,0.5l-1.9,4.2c0,0,0,2.1,2.7,2.7   c0.7,0.4,1.8,0.7,3.4,0.6c3.4-0.2,9.6-10.8,12.2-18.1c1.2-3.4,1.7-6.2,0.7-6.8c-0.5-0.3-1.1-0.5-1.7-0.7c-2.3-1.1-4.9-0.8-6.2-0.5   c-0.3,0.1-0.5,0.1-0.7,0.1c1.7-3.1,3.3-6.3,4.9-9.5c-0.9-0.5-2-1-3.2-1.5c-2.1-0.9-4.6-1.8-7.1-2.5c-2.3,4.5-4.7,9-7.1,13.5   c3.3,0.4,6.2,0.8,8.6,1.2C261,281.5,262.1,281.7,262.9,281.9z M412.7,62.5C412.7,62.5,412.7,62.5,412.7,62.5   c5.4-10.6,10.2-20.8,21.2-26.6c0.4-0.2,0.9-0.4,1.3-0.7c-10.6-9.6-51.3-6.6-72.5,12.2c13.1,5.7,26.7,12.3,39.2,18.5   C405.9,68,410.7,66.4,412.7,62.5z M276.5,253.7c1.7-4,3.2-7.9,4.6-11.9c-1.2-0.4-2.5-0.8-3.9-1.2c-1.8-0.5-3.7-1.1-5.7-1.5   c-1.7,4.1-3.8,8.5-6,13.1c2.6,0.3,5,0.6,7.1,0.9C274.1,253.3,275.4,253.5,276.5,253.7z M304.3,180.8c-0.6-0.1-1.2-0.2-1.8-0.2   c-3.4-0.5-6.8,1.6-6.8,1.6l-0.5,3.6c0.4,0,0.7,0.1,1,0.1c0.1,0,0.2,0,0.2,0.1c5.9,1.5,5.2,16.5-1,18.7c0,0-0.3,0-0.7-0.1   c-0.3,0-0.6-0.1-1-0.2c-0.2,0-0.4-0.1-0.7-0.1c-0.2,0-0.4-0.1-0.6-0.1l-0.4,2.7c0,0,0.1,0.4,0.5,0.8c0.5,0.5,1.3,1.2,2.9,1.1   c0.2,0,0.3,0.1,0.5,0.1c0.7,0.1,1.7,0,2.9-0.5C303.4,206.6,307.8,181.7,304.3,180.8z M289,185.8c1,0,1.9-0.1,2.7-0.1   c0.5-6.2,1-12.5,1.3-19c-2,0-4.4,0-6.9,0.1c-0.9,0-1.8,0.1-2.8,0.2c0,0.4-0.1,0.9-0.1,1.3c-0.5,6.1-1.1,12.1-1.6,17.8   c0.8-0.1,1.7-0.1,2.4-0.2C285.8,185.9,287.5,185.8,289,185.8z M286.3,224.3c1.4-6.2,2.5-13.1,3.5-20.6c-2.2-0.3-4.8-0.6-7.6-0.8   c-0.8-0.1-1.5-0.1-2.3-0.1c-0.9,7.7-1.7,14.1-2.3,18.4c-0.1,0.6-0.2,1.2-0.4,1.9c0.9,0.1,1.8,0.2,2.6,0.3   C282.3,223.7,284.5,224,286.3,224.3z M303.8,142c-0.6-0.1-1.2,0-1.8,0.1c-2,0-3.9,0.8-5.1,1.5c-0.8,0.5-1.3,0.9-1.3,0.9l-0.1,3.6   c0.4,0,0.7,0,1,0c0.1,0,0.2,0,0.2,0c0,0,0,0,0,0c6,0.7,7.3,15.6,1.4,18.7c0,0-0.7,0-1.8-0.1c-0.1,0-0.2,0-0.4,0c-0.3,0-0.5,0-0.8,0   l0,2.7c0,0,0.2,0.4,0.7,0.9c0.5,0.4,1.4,0.8,2.9,0.5c0.8,0.1,1.9-0.1,3.3-0.8C306.4,167.8,307.5,142.4,303.8,142z" originalFill="#754C29"/>
	<path fill="#C2B59B" d="M453.9,169.9c0.1-3.2,0.1-6.5,0.1-9.8c0.1-10,0.2-20.3,0.2-29.6c0,0,0,0,0,0v0c3.7,23.4,8.3,50,11.4,59.7   c2,6.1,6.2,14,10.9,23.4c-0.1-0.1-0.2-0.1-0.3-0.2C461.9,203.7,453.6,187.3,453.9,169.9z M446.6,218.1c1.3-1.6,2.9-3,4.8-4.1   c0.4-0.2,0.8-0.4,1.2-0.6c1.8-0.8,3.3-1.2,4.7-0.9c0.5,0.1,1,0.2,1.5,0.4c0.3,0.1,0.7,0.3,1,0.4c0.2,0.1,0.4,0.1,0.6,0.2   c0.3,0.1,0.6,0.3,1,0.5c0.3,0.1,0.5,0.3,0.8,0.4c0.4,0.2,0.7,0.4,1.1,0.6c0.3,0.2,0.5,0.3,0.8,0.5c0.4,0.2,0.7,0.5,1.1,0.7   c0.3,0.2,0.5,0.4,0.8,0.5c0.3,0.2,0.6,0.5,1,0.7c0.3,0.2,0.7,0.5,1,0.7c0.4,0.3,0.7,0.5,1.1,0.8c0.3,0.2,0.6,0.5,1,0.7   c0.4,0.3,0.7,0.6,1.1,0.9c0.3,0.3,0.6,0.5,1,0.8c0.4,0.4,0.9,0.7,1.3,1.1c0.3,0.2,0.5,0.4,0.8,0.6c0.4,0.3,0.7,0.7,1.1,1   c0.3,0.3,0.6,0.5,0.9,0.8c0.4,0.3,0.7,0.6,1.1,1c0.3,0.3,0.6,0.6,0.9,0.8c0.5,0.4,0.9,0.8,1.4,1.3c0.2,0.2,0.4,0.4,0.6,0.5   c0.5,0.5,1,1,1.5,1.4c0.1,0.1,0.2,0.2,0.3,0.3c0.3,0.3,0.7,0.6,1,1c0.3,0.3,0.5,0.5,0.8,0.8c0.5,0.5,0.9,0.9,1.4,1.4   c0.1,0.1,0.2,0.2,0.3,0.3c0.5,0.5,0.9,0.9,1.3,1.3c0.1,0.1,0.1,0.1,0.2,0.2c6.4,15.1,11.8,32.3,12.1,50.6   c0.2,13.9-0.1,31.4-0.9,48.8c-4.3,13.8-10.5,27.1-19.3,33.9c-2.1,1.6-5.3,3.5-9.2,5.5c-8.5,4.4-20.6,9.5-34.5,14.9   c-16.7,6.5-35.9,13.3-53.9,19.5c-8.2,2.8-16.1,0-21.1-5.5c-4.8-5.3-6.8-13.2-3.5-20.9c6.8-15.9,12.9-32.2,18.4-44.7   c1.5-3.4,3.6-7.5,6.2-12.3c0.6-1.1,1.2-2.1,1.8-3.2c0.4-0.8,0.9-1.5,1.3-2.3c0.7-1.2,1.4-2.4,2.1-3.6c1.4-2.5,2.9-5.1,4.5-7.7   c0.8-1.3,1.6-2.7,2.4-4c3-4.9,6.1-10.1,9.4-15.4c1-1.6,1.9-3.1,2.9-4.7c1.8-2.9,3.7-5.9,5.5-8.8c1.1-1.7,2.2-3.5,3.3-5.2   c0.8-1.2,1.5-2.5,2.3-3.7c2.3-3.7,4.6-7.4,6.9-11c2.3-3.6,4.5-7.1,6.6-10.5c0.4-0.6,0.8-1.3,1.2-1.9c0.4-0.6,0.8-1.2,1.1-1.8   c1.3-2.1,2.6-4.1,3.8-6.1c0.1-0.2,0.2-0.3,0.3-0.5c0.6-1,1.2-2,1.8-3c0.1-0.1,0.1-0.2,0.2-0.4c2.4-3.8,4.5-7.4,6.3-10.5   c0.2-0.4,0.5-0.8,0.7-1.2c0.1-0.1,0.2-0.2,0.2-0.3C446,218.8,446.3,218.4,446.6,218.1z M452.5,379.1c0,0,4.6-1.6,10.5-4.9   c7-3.9,16-10.3,21.5-19.3c10.1-16.6,12.1-59.7,7.5-82.9c-4.6-23.2-15.3-43.7-28.6-46.3c0,0,17.4,25.2,22.7,62   c5.3,36.8-1.9,62.5-9.9,72.7c-4.3,5.4-10.8,10.4-15.8,13.9C455.8,377.2,452.5,379.1,452.5,379.1z M184.7,335.5   C184.7,335.5,184.7,335.5,184.7,335.5C184.7,335.4,184.7,335.4,184.7,335.5c0.1-0.1,0.1-0.1,0.1-0.1   C184.7,335.4,184.7,335.4,184.7,335.5z M182.6,337.5C182.6,337.5,182.6,337.5,182.6,337.5c-0.2,0.1-0.3,0.3-0.5,0.4c0,0,0,0,0,0   C182.3,337.8,182.4,337.6,182.6,337.5z M100.3,406.1c0,0-0.1,0-0.1,0c2.4-5.3,5.8-10.2,9.9-14.3c0,0,0,0,0,0   c0.8-0.8,1.6-1.6,2.5-2.3c0,0,0.1-0.1,0.1-0.1c0.8-0.7,1.6-1.4,2.5-2c0.2-0.1,0.3-0.3,0.5-0.4c0.9-0.6,1.7-1.3,2.6-1.9   c1-0.7,2.1-1.4,3.2-2.1c0.2-0.2,0.5-0.3,0.7-0.5c1.1-0.7,2.2-1.4,3.3-2.2c0.1-0.1,0.3-0.2,0.4-0.3c1-0.7,2-1.4,3.1-2   c0.2-0.2,0.5-0.3,0.7-0.5c1.1-0.8,2.3-1.5,3.5-2.3c0.2-0.2,0.5-0.3,0.7-0.5c1-0.7,2.1-1.4,3.2-2.2c0.2-0.1,0.4-0.3,0.6-0.4   c1.2-0.8,2.4-1.6,3.6-2.5c0.2-0.1,0.3-0.2,0.5-0.3c0,0,0,0,0,0c0.9-0.6,1.7-1.2,2.6-1.8c0.4-0.3,0.7-0.5,1.1-0.8   c0.1-0.1,0.2-0.2,0.3-0.2c1.2-0.9,2.4-1.7,3.6-2.6c0.3-0.2,0.6-0.4,0.8-0.6c1.2-0.9,2.4-1.8,3.6-2.6c0,0,0,0,0,0   c0.4-0.3,0.9-0.6,1.3-1c0.7-0.5,1.4-1.1,2.2-1.6c0.1,0,0.1-0.1,0.2-0.1c0,0,0,0,0,0c0.3-0.2,0.5-0.4,0.8-0.6   c1.2-0.9,2.3-1.8,3.5-2.6c0.2-0.1,0.3-0.3,0.5-0.4c1-0.8,2.1-1.6,3.1-2.4c0.2-0.2,0.4-0.3,0.6-0.5c1.1-0.9,2.2-1.7,3.3-2.6   c0.2-0.2,0.4-0.3,0.6-0.5c1-0.8,1.9-1.6,2.9-2.3c0.1-0.1,0.3-0.2,0.4-0.3c1-0.8,2-1.7,3-2.5c0.2-0.2,0.4-0.4,0.6-0.5   c1-0.8,1.9-1.7,2.9-2.5h0h0c8.2-0.3,17.9,0.9,26,2.2c10.6,1.7,21.2-2.7,27.4-11.4c0.4,0.3,0.8,0.6,1.2,0.8l-2.4,3.6   c0,0-0.3,2.1,2.2,3.1c0.7,0.5,1.7,0.9,3.2,1.1c4.9,0.5,19.6-20.1,16.8-22.5c-0.5-0.4-1-0.7-1.5-0.9c-2.8-1.9-6.8-1.5-6.8-1.5   l-0.8,1.1c-0.3-0.2-0.5-0.3-0.8-0.5c-0.2-0.1-0.4-0.2-0.7-0.3c0.8-1.2,1.5-2.4,2.3-3.7c2.2-3.5,4.4-7.2,6.7-11   c0.5-0.9,1.1-1.9,1.7-2.8c0.1,0,0.2,0.1,0.3,0.1c0.4,0.2,0.7,0.4,1,0.5l-0.2,0.5l-1.9,4.2c0,0,0,2.1,2.7,2.7   c0.7,0.4,1.8,0.7,3.4,0.6c3.4-0.2,9.6-10.8,12.2-18.1c1.2-3.4,1.7-6.2,0.7-6.8c-0.5-0.3-1.1-0.5-1.7-0.7c-2.3-1.1-4.9-0.8-6.2-0.5   c-0.3,0.1-0.5,0.1-0.7,0.1c1.7-3.1,3.3-6.3,4.9-9.5c0.2,0.1,0.4,0.2,0.6,0.3c0.1,0,0.2,0.1,0.3,0.1l-1.8,3.9c0,0,0,2.1,2.7,2.7   c0.7,0.4,1.8,0.7,3.4,0.6c4.9-0.3,16.1-23.1,12.9-24.9c-0.5-0.3-1.1-0.5-1.7-0.7c-3.1-1.5-6.9-0.4-6.9-0.4l-0.7,1.6c0,0,0,0,0,0   c-0.3-0.1-0.6-0.1-1-0.2c1.7-4,3.2-7.9,4.6-11.9c0.4,0.1,0.9,0.3,1.2,0.4c0.4,0.1,0.7,0.2,1,0.3l-0.9,2.6c0,0,0.2,2.1,3,2.4   c0.8,0.3,1.9,0.5,3.4,0.2c4-0.6,10.7-16.7,11.1-23.3c0.1-1.4-0.1-2.3-0.6-2.7c0,0,0,0-0.1-0.1c-0.6-0.3-1.1-0.4-1.7-0.5   c-3.2-1.1-6.9,0.3-6.9,0.3l-1.2,3.4c-0.3-0.1-0.6-0.1-0.9-0.2c-0.6-0.1-1.4-0.3-2.2-0.4c1.4-6.2,2.5-13.1,3.5-20.6   c1,0.1,1.9,0.3,2.7,0.4l-0.4,2.7c0,0,0.1,0.4,0.5,0.8c0.5,0.5,1.3,1.2,2.9,1.1c0.2,0,0.3,0.1,0.5,0.1c0.7,0.1,1.7,0,2.9-0.5   c4.7-1.6,9.1-26.6,5.5-27.5c-0.6-0.1-1.2-0.2-1.8-0.2c-3.4-0.5-6.8,1.6-6.8,1.6l-0.5,3.6c-0.1,0-0.2,0-0.4,0c-0.8,0-1.9-0.1-3.2,0   c0.5-6.2,1-12.5,1.3-19c0.8,0,1.5,0,2.2,0l0,2.7c0,0,0.2,0.4,0.7,0.9c0.5,0.4,1.4,0.8,2.9,0.5c0.8,0.1,1.9-0.1,3.3-0.8   c4.4-2.2,5.5-27.6,1.8-28c-0.6-0.1-1.2,0-1.8,0.1c-2,0-3.9,0.8-5.1,1.5c-0.8,0.5-1.3,0.9-1.3,0.9l-0.1,3.6c-0.5,0-1,0.1-1.6,0.1   c0.1-4.2,0.3-8.3,0.4-12.5c0.5,0,1,0,1.4,0l0,2.7c0,0,0.4,0.9,1.5,1.3c0.5,0.2,1.2,0.3,2.1,0.1c0.8,0.1,1.9-0.1,3.3-0.8   c4.4-2.2,5.5-27.6,1.8-28c-0.6-0.1-1.2,0-1.8,0.1c-1.9,0-3.7,0.7-4.9,1.4c-1,0.5-1.6,1-1.6,1l-0.1,3.6c-0.4,0-0.8,0.1-1.3,0.1   c0.1-4.5,0.1-8.9,0.1-13.3c0.2,0,0.3,0,0.5,0l0,2.7c0,0,0.6,1.4,2.5,1.5c0.3,0,0.7,0,1.1-0.1c0.8,0.1,1.9-0.1,3.3-0.8   c4.4-2.2,5.5-27.6,1.8-28c-0.6-0.1-1.2,0-1.8,0.1c-1.5,0-2.9,0.4-4,1c-1.4,0.7-2.4,1.5-2.4,1.5l-0.1,3.6c-0.2,0-0.4,0-0.7,0.1   c0-6.4,0-12.4,0.1-17.8c0.8,0,1.6-0.1,2.3-0.1l0.1,2.7c0,0,0.3,0.5,0.9,0.9c0.6,0.4,1.5,0.6,2.7,0.3c0.8,0,1.9-0.2,3.3-1   c4.3-2.4,4.2-27.8,0.6-28c-0.6,0-1.2,0-1.8,0.2c-1.1,0-2.1,0.3-3.1,0.7c-1.9,0.8-3.3,2-3.3,2l0.1,3.7c-0.4,0.1-0.9,0.1-1.4,0.3   c0.2-4.7,0.5-8,1-9.4c1.2-3.3,4.1-6.1,7.5-8.3c0,0,0,0,0,0c0,0,0,0,0,0c0.4,0,0.9-0.1,1.3-0.1c0,0,0,0,0,0c0,0,0,0,0,0c0,0,0,0,0,0   c0.2,0,0.5,0,0.7,0c0.7,0,1.3-0.1,2-0.1c0.2,0,0.4,0,0.5,0c0.1,0,0.2,0,0.3,0c0,0,0,0,0,0c0.3,0,0.5,0,0.8,0c0,0,0,0,0,0   c0.3,0,0.7,0,1,0c0.3,0,0.6,0,0.9,0c0.6,0,1.2,0,1.8,0.1c0.3,0,0.6,0,0.9,0c0.6,0,1.3,0.1,1.9,0.2c0.1,0,0.1,0,0.2,0   c0.1,0,0.3,0,0.4,0c0,0,0.1,0,0.1,0c1.1,0.1,2.2,0.3,3.4,0.5c0.2,0,0.5,0.1,0.7,0.1c1.1,0.2,2.2,0.4,3.3,0.7c1,0.2,2,0.5,3,0.8   c0,0,0,0,0,0c10,2.8,22.5,7.7,35.6,13.4c13.1,5.7,26.7,12.3,39.2,18.5c3.9,2,8.8,0.5,10.8-3.5c0,0,0,0,0-0.1   c5.3-10.6,10.1-20.8,21.1-26.5c0.4-0.2,0.9-0.4,1.3-0.7c0.2,0.2,0.4,0.4,0.6,0.6c0.2,0.2,0.5,0.5,0.7,0.8c0.1,0.1,0.2,0.2,0.2,0.3   c0.2,0.4,0.5,0.7,0.6,1.1c0.6,1.4,1.2,3.2,1.8,5.6c0.4,1.5,0.8,3.3,1.2,5.1c0.3,1.4,0.6,2.9,0.9,4.5c0.3,1.6,0.6,3.2,0.9,4.9   c0.2,1.1,0.4,2.3,0.6,3.5c0.3,1.8,0.6,3.6,0.9,5.4c0.4,2.5,0.8,5,1.2,7.6c0.1,0.6,0.2,1.3,0.3,1.9c0.2,1.3,0.4,2.6,0.6,3.9   c0.1,0.4,0.1,0.8,0.2,1.2c0,0.7,0.8,17.7,0.8,18.3c0,0.4,0,0.7,0,1.1c0,0.4,0,0.8,0,1.2c0,1.7,0,3.5,0,5.3c0,2.1,0,4.3,0,6.6   c0,0.1,0,0.3,0,0.4c0,3.6,0,7.2,0,11v0c0,8.9-0.1,18.1-0.2,26.8c-0.3,26.4-7.3,52.3-20.3,75.3c-15.3,27.1-35.6,63-44.9,79.7   c-16.1,28.9-40.9,104.6-60.5,117.1c-12.8,8.2-66,13.5-101.4,16.3c-25.1,2-50.1-5.3-70.1-20.6c-0.3-0.3-0.7-0.5-1-0.8   c-0.2-0.2-0.4-0.3-0.6-0.5c-0.8-0.6-1.6-1.2-2.5-1.8c-0.4-0.3-0.8-0.5-1.2-0.7c-0.5-0.3-1-0.6-1.5-0.9c-0.4-0.2-0.9-0.5-1.3-0.7   c-0.5-0.3-1-0.5-1.5-0.8c-0.5-0.2-1-0.5-1.6-0.7c-0.5-0.2-0.9-0.4-1.4-0.6c-0.5-0.2-1-0.4-1.4-0.6c-0.5-0.2-1.1-0.4-1.6-0.6   c-0.5-0.2-1-0.3-1.5-0.5c-0.5-0.2-1.1-0.4-1.6-0.5c-0.6-0.2-1.1-0.3-1.7-0.5c-0.5-0.1-1-0.3-1.5-0.4c-0.6-0.2-1.2-0.3-1.9-0.4   c-0.4-0.1-0.9-0.2-1.3-0.3c-0.6-0.1-1.3-0.3-1.9-0.4c-0.4-0.1-0.8-0.2-1.3-0.3c-0.7-0.1-1.3-0.2-1.9-0.3c-0.4-0.1-0.8-0.1-1.2-0.2   c-0.8-0.1-1.6-0.2-2.4-0.3c-0.2,0-0.5-0.1-0.7-0.1c-0.8-0.1-1.5-0.2-2.3-0.3c-0.3,0-0.6-0.1-0.8-0.1c-0.8-0.1-1.6-0.1-2.4-0.2   c-0.2,0-0.4,0-0.6-0.1c-0.8-0.1-1.6-0.1-2.3-0.2c-0.2,0-0.4,0-0.6,0c-0.7,0-1.4-0.1-2.1-0.1c-0.2,0-0.4,0-0.6,0   C101.9,406.1,101.1,406.1,100.3,406.1z M377,67.4c0,0,10,6.3,20.7,14.8c10.6,8.4,22,18.8,25.2,27.4c0.2,0.5,0.4,1,0.5,1.5   c0.5,1.6,1,3.4,1.4,5.4c0,0,0,0,0,0c4.1,20.6,2.5,59.4,0.3,75.2c-2.4,17.9-19.3,48.8-19.3,48.8s27.8-41.6,28.1-60.3   c0.2-12.6,2.3-40,2.2-58.8v0c0-9.1-0.6-16.2-2.1-18.7c-2.5-4.1-19.3-14.2-34.1-22.6C387.8,73.1,377,67.4,377,67.4z M230.9,312.8   c0.7,0.1,1.4,0.1,2.1,0.2c0.4-0.7,0.8-1.4,1.2-2.1c2.9-5.1,6.1-10.9,9.5-17c-1.3-0.2-2.6-0.4-4-0.4c-8,0-23.9-0.2-28.4-1.5   c-0.4-0.1-0.7-0.3-1-0.4c-0.4-0.3-0.6-0.7-0.6-1.2c-0.2-1.5,0.8-3.9,2.1-6.2l0,0c0.2-0.4,0.4-0.7,0.7-1.1c0,0,0.1-0.1,0.1-0.1   c0.2-0.3,0.5-0.7,0.7-1c0.6-0.9,1.3-1.7,1.9-2.4c0.3-0.4,1.1-0.6,2.2-0.8c6-1.1,21.9-0.1,33.8,1.2c2.4-4.5,4.8-9,7.1-13.5   c-2-0.5-4.1-0.8-6.1-0.8c-7.7,0-23.4,0.2-28.7-0.9c-0.7-0.2-1.3-0.3-1.6-0.6c-0.4-0.3-0.6-0.8-0.6-1.5v0c0-0.1,0-0.1,0-0.2   c0-0.1,0-0.3,0.1-0.4c0-0.1,0-0.2,0.1-0.3c0-0.1,0.1-0.2,0.1-0.4c0-0.1,0.1-0.2,0.1-0.4c0-0.1,0.1-0.2,0.1-0.4   c0.1-0.1,0.1-0.3,0.2-0.4c0-0.1,0.1-0.1,0.1-0.2c0.2-0.4,0.3-0.7,0.5-1.1c0-0.1,0.1-0.1,0.1-0.2c0.1-0.2,0.2-0.4,0.3-0.6   c0-0.1,0.1-0.1,0.1-0.2c0.1-0.2,0.3-0.4,0.4-0.7c0,0,0,0,0,0c1.1-1.8,2.5-3.7,3.6-5c0.2-0.2,0.3-0.4,0.5-0.5   c0.2-0.3,0.7-0.5,1.4-0.6c5.3-1.4,23.4-0.5,36.5,0.9c2.2-4.6,4.2-9.1,6-13.1c-3.5-0.8-7-1.4-9.8-1.4c-6.9,0-20.5-0.1-27.2-0.9   c-1.1-0.1-1.9-0.3-2.6-0.5c-0.2-0.1-0.4-0.1-0.6-0.2c-0.2-0.1-0.3-0.1-0.4-0.2c-2.3-1.7,1.2-10.6,4.2-13.9c0.1-0.1,0.2-0.2,0.3-0.2   c0,0,0.1,0,0.1-0.1c0.1-0.1,0.3-0.1,0.4-0.2c0,0,0.1,0,0.1,0c0.4-0.1,1-0.2,1.6-0.3c0.7-0.1,1.5-0.2,2.4-0.2   c8.3-0.5,25.1,0.8,37.1,2.2c0.1-0.7,0.3-1.3,0.4-1.9c0.7-4.2,1.5-10.6,2.3-18.4c-3.5-0.2-6.9-0.1-9.6,0.4c-6.5,1.2-19.2,3.5-26.1,4   c-0.7,0-1.3,0.1-1.8,0.1c-0.6,0-1.2,0-1.6,0c0,0,0,0,0,0c-0.2,0-0.3,0-0.5-0.1c0,0-0.1,0-0.1,0c-0.1,0-0.3-0.1-0.4-0.1   c-2.6-1.3-0.7-10.7,1.6-14.4c0.1-0.1,0.1-0.2,0.2-0.2c0,0,0.1-0.1,0.1-0.1c0.1-0.1,0.2-0.1,0.3-0.2c0,0,0.1-0.1,0.1-0.1   c0.1-0.1,0.2-0.1,0.4-0.2c0,0,0.1,0,0.1-0.1c0.2-0.1,0.4-0.2,0.6-0.2c0.1,0,0.2-0.1,0.3-0.1c0.1,0,0.3-0.1,0.4-0.1   c0.1,0,0.2-0.1,0.3-0.1c0.2,0,0.3-0.1,0.5-0.1c0.1,0,0.2-0.1,0.3-0.1c0.6-0.2,1.3-0.3,2.1-0.5c8.1-1.8,23.2-3.4,34.6-4.2   c0.5-5.6,1.1-11.6,1.6-17.8c0-0.4,0.1-0.9,0.1-1.3c-0.2,0-0.4,0-0.6,0c-3.5,0.3-7,0.8-9.7,1.6c-6.8,2.2-20.4,6.6-26.8,7.6   c-0.7,0.1-1.3,0.2-1.8,0.2c-0.3,0-0.5,0-0.7,0c0,0,0,0,0,0c-0.2,0-0.4,0-0.5-0.1c-2.7-0.9-2.1-10.5-0.4-14.5c0-0.1,0.1-0.2,0.2-0.3   c0.1-0.1,0.1-0.2,0.2-0.2c0.3-0.3,0.8-0.6,1.4-0.9c5.1-2.7,19.9-6.5,32.5-9.2c2.6-0.6,5.1-1.1,7.4-1.5c0.3-4.6,0.7-9.3,1-13.8   c-4.3,0.2-8.9,0.8-12.1,1.8c-0.3,0.1-0.7,0.2-1,0.3c-8.2,2.7-24.9,8.1-29.5,8.2c-0.4,0-0.7,0-0.9-0.1c-0.2-0.1-0.4-0.2-0.5-0.3   c-0.3-0.2-0.5-0.5-0.8-0.8c0-0.1-0.1-0.1-0.1-0.1c-0.1-0.1-0.2-0.3-0.3-0.4c-0.1-0.1-0.1-0.2-0.2-0.3c-0.1-0.1-0.2-0.3-0.2-0.5   c-0.1-0.1-0.1-0.2-0.2-0.4c-0.1-0.2-0.1-0.3-0.2-0.5c-0.1-0.1-0.1-0.3-0.2-0.4c-0.1-0.2-0.1-0.3-0.2-0.5c-0.1-0.2-0.1-0.3-0.2-0.5   c-0.1-0.2-0.1-0.4-0.2-0.5c0-0.2-0.1-0.3-0.1-0.5c0-0.2-0.1-0.4-0.1-0.5c0-0.2-0.1-0.4-0.1-0.6c0-0.2-0.1-0.4-0.1-0.5   c0-0.2-0.1-0.4-0.1-0.6c0-0.2,0-0.3-0.1-0.5c0-0.2,0-0.4-0.1-0.6c0-0.2,0-0.3,0-0.5c0-0.2,0-0.4,0-0.6c0-0.2,0-0.3,0-0.5   c0-0.2,0-0.4,0-0.6c0-0.1,0-0.3,0-0.4c0-0.2,0-0.4,0.1-0.6c0-0.1,0-0.3,0-0.4c0-0.2,0.1-0.4,0.1-0.6c0-0.1,0-0.2,0.1-0.3   c0.1-0.3,0.2-0.5,0.3-0.8c0-0.1,0.1-0.2,0.3-0.3c0,0,0,0,0,0c0.1-0.1,0.3-0.2,0.5-0.4c0.3-0.2,0.7-0.5,1.2-0.7   c4.3-2.1,15-5.1,26-7.7c7.1-1.7,14.2-3.2,19.9-4.2c0.3-5.1,0.5-10,0.6-14.4c-4.9,0.2-10.4,0.7-14.2,1.9c-2.5,0.8-6.7,2.2-11.3,3.7   c-8.3,2.7-18.3,5.8-23.1,6.7c-0.5,0.1-1,0.2-1.4,0.2c-0.2,0-0.5,0-0.7,0c-0.1,0-0.2,0-0.2,0c-0.1,0-0.1,0-0.2,0   c-0.1,0-0.3,0-0.3-0.1c-2.7-0.9-3.8-10-2.1-14c0-0.1,0.1-0.2,0.2-0.3c0,0,0.1-0.1,0.1-0.1c0.1-0.1,0.2-0.2,0.3-0.3   c0.1-0.1,0.2-0.1,0.3-0.2c0.4-0.2,0.8-0.5,1.4-0.8c3.7-1.8,11.1-4.1,19.6-6.5c10.8-3,23.1-6,31.5-7.6c-0.1-1.8-0.1-3.4-0.3-4.8   c-0.4-4.3-0.8-8.9-1.2-13.6c-3.9,0.4-7.8,1.1-10.7,2.2c-4.1,1.5-14.8,6-24.8,10c-6.3,2.5-12.3,4.8-16.4,6.1c-0.5,0.2-1,0.3-1.4,0.4   c0,0,0,0,0,0c-0.9,0.3-1.6,0.5-2.2,0.6c0,0,0,0-0.1,0c-0.3,0.1-0.5,0.1-0.7,0.1c0,0-0.1,0-0.1,0c-0.2,0-0.3,0-0.4,0   c-2.8-0.8-2.6-10.4-1-14.5c0.2-0.5,1.3-1.3,3.2-2.2c0.3-0.2,0.7-0.3,1.1-0.5c0.4-0.2,0.7-0.4,1.1-0.5c2.8-1.3,6.5-2.8,10.8-4.4   c12.2-4.6,28.7-10.1,40.2-13.4c-0.6-6.4-1.1-12.2-1.5-16.9c0,0,0,0,0,0c-13.1,3.5-25.6,8.8-35.2,13.5c0,0,0,0,0,0   c-0.2,0.1-0.5,0.3-0.7,0.4c-4.8,3.1-9.5,6.2-14.2,9.4l0,0c-1,0.7-1.9,1.3-2.9,2c-0.1,0.1-0.3,0.2-0.4,0.3l0,0c0,0-0.1,0-0.1,0.1   c0,0-0.1,0-0.1,0.1c0,0,0,0,0,0c0,0,0,0-0.1,0c-5.9,4-9.6,10.5-10.1,17.4c0,0,0,0,0,0.1c0,0.4,0,0.7,0,1.1c0,0.2,0,0.4,0,0.6   c0,0.2,0,0.4,0,0.6c0,0.4,0,0.8,0,1.2c0,0,0,0,0,0.1c0,0.6,0.1,1.1,0.2,1.7c0,0,0,0,0,0c0.1,0.6,0.2,1.1,0.3,1.7c0,0,0,0,0,0   c0,0,0,0,0,0c0.2,0.9,0.4,1.7,0.6,2.6c0.2,0.8,0.4,1.6,0.5,2.4c0,0.1,0,0.2,0.1,0.3c0.3,1.1,0.5,2.2,0.8,3.4   c0.3,1.1,0.5,2.2,0.8,3.4c0.5,2.1,1,4.3,1.4,6.5c6.8,30.8,14.5,70.4,14.3,90.5c0,1.4-0.1,2.8-0.2,4c-0.1,0.8-0.1,1.6-0.3,2.3   c-0.1,0.6-0.2,1.2-0.3,1.9c0,0.2-0.1,0.3-0.1,0.5c-0.1,0.6-0.2,1.3-0.4,1.9c0,0,0,0.1,0,0.1c-0.2,0.7-0.3,1.5-0.5,2.2   c0,0.2-0.1,0.4-0.1,0.6c-0.2,0.7-0.3,1.4-0.5,2.2c0,0.1,0,0.2-0.1,0.3c-0.2,0.8-0.4,1.7-0.7,2.6c-0.1,0.2-0.1,0.5-0.2,0.7   c-0.2,0.8-0.4,1.6-0.7,2.4c0,0.1-0.1,0.3-0.1,0.4c-0.3,0.9-0.5,1.9-0.8,2.9c-0.1,0.2-0.1,0.5-0.2,0.8c-0.2,0.8-0.5,1.7-0.8,2.5   c-0.1,0.2-0.1,0.4-0.2,0.6c-0.3,1-0.6,2-0.9,3.1c-0.1,0.3-0.2,0.6-0.3,0.8c-0.3,0.9-0.6,1.8-0.8,2.7c-0.1,0.2-0.1,0.5-0.2,0.7   c-0.3,1.1-0.7,2.2-1,3.3c-0.1,0.3-0.2,0.6-0.3,0.9c-0.3,0.9-0.6,1.8-0.9,2.7c-0.1,0.3-0.2,0.6-0.3,0.8c-0.4,1.1-0.7,2.2-1.1,3.4   c-0.1,0.3-0.2,0.6-0.3,0.9c-0.3,0.9-0.6,1.8-0.9,2.8c-0.1,0.3-0.2,0.6-0.3,1c-0.4,1.2-0.8,2.3-1.2,3.5c-0.1,0.3-0.2,0.6-0.3,0.9   c-0.3,1-0.7,1.9-1,2.9c-0.1,0.3-0.2,0.7-0.3,1c-0.4,1.2-0.8,2.4-1.2,3.5c-0.1,0.3-0.2,0.6-0.3,0.8c-0.3,1-0.7,2-1,3   c-0.1,0.3-0.2,0.7-0.4,1c-0.4,1.2-0.8,2.4-1.3,3.5c-0.1,0.3-0.2,0.5-0.3,0.8c-0.4,1-0.7,2-1.1,3c-0.1,0.4-0.3,0.7-0.4,1.1   c-0.4,1.2-0.8,2.3-1.3,3.5c-0.1,0.2-0.1,0.4-0.2,0.6c-0.4,1.1-0.8,2.1-1.2,3.2c-0.1,0.3-0.2,0.6-0.3,0.9c-0.4,1.2-0.9,2.4-1.3,3.6   c0,0.1-0.1,0.2-0.1,0.3c-0.4,1.1-0.8,2.2-1.2,3.3c-0.1,0.3-0.2,0.6-0.3,0.9c-0.9,2.3-1.7,4.6-2.6,6.9c-0.1,0.3-0.2,0.5-0.3,0.8   c-0.9,2.3-1.7,4.5-2.5,6.7c-0.1,0.2-0.1,0.3-0.2,0.5c-0.6,1.7-1.2,3.3-1.8,4.9c-0.2,0.5-0.4,1-0.6,1.5c0,0.1-0.1,0.2-0.1,0.4   c-0.4,1.1-0.8,2.2-1.2,3.2c0.2,0,0.3-0.1,0.5-0.1C207.5,311.4,220.7,311.8,230.9,312.8z M470.1,488.2c-5-1.9-10.4-3.3-15.5-3.3   c-3.1,0-13.4,1.4-28.4,3.8c1.8-9.4,4.6-22.9,7.8-33.5l-7.1,1c0,0-0.3-0.1-0.9-0.3c-2.2-0.6-8.1-2.2-15.8-3.6   c-2.3-0.4-4.8-0.8-7.4-1.2l-8.8,42.7c-35.4,5.7-81,13.2-123,19.4c2-10.4,5.2-25.1,8.6-35.5c-2.7,0.6-5.4,1.1-8.2,1.4   c0,0-0.1,0-0.1,0c-0.9,0.1-1.8,0.2-2.7,0.3c-3.9,0.3-8.8,0.5-14.2,0.4c-2.4,0-5-0.1-7.6-0.2l-7.9,38.1c-37.5,5.1-68.3,8.4-80.3,7.1   c-15-8.9-2.4-38.4,4.7-52.4c-0.2,0-0.4,0-0.5-0.1l0,0c-0.5-0.1-1-0.1-1.5-0.2c-2-0.2-3.9-0.5-5.8-0.7c-3.3-0.4-6.5-0.8-9.7-1.2   c-0.1,0-0.1,0-0.1,0c-1.3-0.2-2.5-0.3-3.8-0.5c-0.3,0-0.6-0.1-0.9-0.1c-1-0.1-2-0.2-3-0.4c-0.6-0.1-1.2-0.1-1.8-0.2   c-0.7-0.1-1.4-0.2-2.1-0.3c-0.4,0-0.8-0.1-1.2-0.1c-0.9-0.1-1.8-0.2-2.7-0.3c-1.6-0.2-3.2-0.5-4.7-0.9l-8.9,39.8   c-12.8,1.1-21.5,13.8-17.5,25.9c0.6,1.9,1.4,3.7,2.3,5.5v0c5.7,11.4,16.2,19.4,28.4,22c4.2,1.8,8.7,2.8,13.4,3.1   c56.9,3.6,206,4.9,356.9-60.7C499.9,503.2,485.2,491.7,470.1,488.2z M193.3,331.3c0.7,0.1,1.5,0.1,2.3,0.2   c4.1,0.3,8.4,0.7,12.6,0.9c5.6,0.3,11.1-1.5,15.2-5.1c-0.4,0-0.8-0.1-1.2-0.1c-4.4,0-11.5,0-17.9-0.3c-3.5-0.1-6.7-0.3-9.1-0.6   c-1-0.1-1.8-0.3-2.4-0.4l0,0c0,0,0,0.1-0.1,0.1c-0.2,0.3-0.5,0.6-0.7,0.9c-0.1,0.1-0.2,0.3-0.3,0.4c-0.3,0.4-0.6,0.9-1,1.3   c-0.3,0.4-0.6,0.8-1,1.2c-0.3,0.3-0.6,0.7-0.9,1c0,0,0,0,0,0c0,0,0,0,0,0C190.3,331.1,191.8,331.2,193.3,331.3z" originalFill="#C2B59B"/>
	<path opacity="0.2" d="M470.1,488.2c-2.8-0.7-5.6-1-8.3-1c-3.6,0-16.9,1.9-36.2,5c0.2-1.1,0.4-2.2,0.6-3.5   c1.8-9.4,4.6-22.9,7.8-33.5l-7.1,1l0.7-5.8l1.5-12.3l0.3-2.7l4.3-35.9c-8.3,3.1-13.9,5.2-13.2,4.9l-6.5,2c-0.7,0.2-1.5,0.5-2.2,0.7   c-20.8,8.2-41.4,16.5-53,22.1l-0.9,21.9c0,0,0,0,22-1.2c7.6-0.4,15.6,0.2,22.8,1.2c2.6,0.4,5.1,0.8,7.4,1.2l-9,43.7   c-37.6,6.1-86.7,14.2-130.8,20.6c0.2-1.1,0.4-2.2,0.6-3.4c2-10.4,5.2-25.1,8.6-35.5c-2.7,0.6-5.4,1.1-8.2,1.4c0,0-0.1,0-0.1,0   c-0.9,0.1-1.8,0.2-2.7,0.3c-3.9,0.3-8.8,0.5-14.2,0.4l-8.3,40.2c-41.1,5.6-74.2,9-83.2,6.6c-1.6-0.4-3-1-4.3-1.8   c-15-8.9-2.4-38.4,4.7-52.4c-0.2,0-0.4,0-0.5-0.1c-1.3-2.7-2.4-5.4-3.5-8.1c-0.1-0.3-0.2-0.5-0.3-0.8c-0.1-0.3-0.3-0.7-0.4-1   c-0.7-1.7-1.4-3.5-2.1-5.2c-6.2-14.5-7.7-25-7.5-32.2c0.1-2,0.2-3.7,0.5-5.2c0.6-3.9,1.7-6.2,2-7c6.9-18.7,72-31.8,109.4-94.9   c8.2-13.8,15.1-26.3,21-37.4c9.4-18,16.1-32.8,20.7-44.7v0c5.6-14.4,8.3-24.6,9.5-31.4c2.6-15-4.6-134.4,15.2-170.6   c-1-0.3-2.1-0.6-3-0.8c-1.1-0.3-2.2-0.5-3.3-0.7c-0.2,0-0.5-0.1-0.7-0.1c-1.1-0.2-2.2-0.4-3.4-0.5c0,0-0.1,0-0.1,0l0,0c0,0,0,0,0,0   l0,0c0,0-0.1,0-0.1,0c-0.1,0-0.3,0-0.4,0c-0.6-0.1-1.3-0.1-1.9-0.2c-0.3,0-0.6,0-0.9,0c-0.6,0-1.2-0.1-1.8-0.1c-0.3,0-0.6,0-0.9,0   c-0.3,0-0.7,0-1,0c0,0,0,0,0,0c-0.3,0-0.5,0-0.8,0c0,0-0.1,0-0.1,0c0,0,0,0,0,0c0,0,0,0,0,0c-0.2,0-0.4,0-0.7,0c-0.7,0-1.3,0-2,0.1   c-0.2,0-0.5,0-0.7,0h0c0,0,0,0,0,0c0,0,0,0,0,0c0,0,0,0,0,0c0,0,0,0,0,0c-0.4,0-0.8,0.1-1.1,0.1c-0.1,0-0.2,0-0.2,0c0,0,0,0,0,0   c-0.2,0-0.4,0-0.6,0c0,0,0,0,0,0c0.1,0,0.2,0,0.4,0c-0.2,0-0.4,0-0.6,0c-0.2,0-0.3,0-0.5,0c-0.2,0-0.4,0-0.7,0.1   c-0.3,0-0.6,0.1-0.9,0.1c-0.2,0-0.5,0-0.7,0.1c-0.2,0-0.4,0-0.6,0.1c-0.2,0-0.5,0.1-0.7,0.1c0.1,0,0.2,0,0.3,0   c-0.4,0-0.8,0.1-1.2,0.1c-0.5,0.1-1,0.2-1.5,0.2c0.6-0.1,1.1-0.2,1.7-0.3c-1.4,0.2-2.8,0.4-4.3,0.6c0,0,0,0,0,0c0,0,0,0,0,0   c0,0,0,0,0,0c0,0,0,0,0,0s0,0,0,0c0,0,0,0,0,0c-0.2,0-0.5,0.1-0.7,0.1c-1.6,0.3-3.2,0.6-4.9,1c-0.2,0.1-0.5,0.1-0.7,0.2   c-1,0.2-2.1,0.5-3.1,0.8c-0.3,0.1-0.6,0.1-0.9,0.2c-0.2,0-0.4,0.1-0.6,0.1c-13.1,3.5-25.6,8.8-35.2,13.6l0,0   c-0.2,0.1-0.4,0.3-0.7,0.4c-3.2,2.1-6.4,4.2-9.6,6.3c-1.4,3.6-3,8.6-4,14.4c0,0,0,0,0,0c2.8-1.3,6.5-2.8,10.8-4.4   c12.2-4.6,28.7-10.1,40.2-13.4c2.7-0.8,5.1-1.5,7.2-2c1.4-0.3,2.5-0.6,3.5-0.8c0.6-0.1,1-0.2,1.4-0.3l-0.1-3.7c0,0,1.3-1.2,3.3-2   c0.9-0.4,2-0.7,3.1-0.7c0.2,0,0.4,0,0.6,0c3.7,0.2,3.7,25.6-0.6,28c-0.8,0.4-1.5,0.7-2.1,0.8c-1.3,0.3-2.2,0-2.7-0.3   c-0.6-0.4-0.9-0.9-0.9-0.9l-0.1-2.7c-0.7,0-1.4,0-2.3,0.1c-1.1,0-2.3,0.1-3.6,0.2c-1.7,0.1-3.5,0.3-5.3,0.5   c-3.9,0.4-7.8,1.1-10.7,2.2c-4.1,1.5-14.8,6-24.8,10c-6.3,2.5-12.3,4.8-16.4,6.1c-0.5,0.2-1,0.3-1.4,0.4c0.1,1.7,0.3,3.4,0.7,5.2   c0.5,2.6,1,5.8,1.6,9.4c0.4-0.2,0.8-0.5,1.4-0.8c3.7-1.8,11.1-4.1,19.6-6.5c10.8-3,23.1-6,31.5-7.6c1.4-0.3,2.6-0.5,3.7-0.7   c1.5-0.3,2.7-0.5,3.7-0.6c0.3,0,0.5,0,0.7-0.1l0.1-3.6c0,0,1-0.8,2.4-1.5c1.1-0.5,2.5-1,4-1c0.2,0,0.4,0,0.6,0   c3.6,0.4,2.6,25.7-1.8,28c-0.8,0.4-1.5,0.6-2.1,0.8c-0.4,0.1-0.8,0.1-1.1,0.1c-1.8-0.1-2.5-1.5-2.5-1.5l0-2.7c-0.2,0-0.3,0-0.5,0   c-1,0-2.3,0-3.6,0c-1.2,0-2.5,0-3.8,0.1c-4.9,0.2-10.4,0.7-14.2,1.9c-2.5,0.8-6.7,2.2-11.3,3.7c-8.3,2.7-18.3,5.8-23.1,6.7   c-0.5,0.1-1,0.2-1.4,0.2c0.7,4.6,1.5,9.5,2.2,14.5c0.3-0.2,0.7-0.5,1.2-0.7c4.3-2.1,15-5.1,26-7.7c7.1-1.7,14.2-3.2,19.9-4.2   c1.6-0.3,3-0.5,4.3-0.7c1.4-0.2,2.6-0.4,3.5-0.5c0.5-0.1,1-0.1,1.3-0.1l0.1-3.6c0,0,0.6-0.5,1.6-1c1.2-0.7,3-1.4,4.9-1.4   c0.2,0,0.4,0,0.6,0c3.6,0.4,2.6,25.7-1.8,28c-0.8,0.4-1.5,0.6-2.1,0.8c-0.9,0.2-1.6,0.1-2.1-0.1c-1.1-0.4-1.5-1.3-1.5-1.3l0-2.7   c-0.4,0-0.9,0-1.4,0c-1.3,0-2.9,0-4.6,0c-1.3,0-2.6,0.1-3.9,0.1c-4.3,0.2-8.9,0.8-12.1,1.8c-0.3,0.1-0.7,0.2-1,0.3   c-8.2,2.7-24.9,8.1-29.5,8.2c-0.4,0-0.7,0-0.9-0.1c-0.2-0.1-0.4-0.2-0.5-0.3c0,0,0,0,0,0c0.7,5.2,1.3,10.4,1.8,15.5   c0.3-0.3,0.8-0.6,1.4-0.9c5.1-2.7,19.9-6.5,32.5-9.2c2.6-0.6,5.1-1.1,7.4-1.5c1.2-0.2,2.3-0.4,3.3-0.6c2.3-0.4,4.3-0.7,5.8-0.9   c0.6-0.1,1.2-0.1,1.6-0.1l0.1-3.6c0,0,0.5-0.4,1.3-0.9c1.2-0.7,3.1-1.5,5.1-1.5c0.2,0,0.4,0,0.6,0c3.6,0.4,2.6,25.7-1.8,28   c-0.8,0.4-1.5,0.6-2.1,0.8c-1.4,0.3-2.3-0.1-2.9-0.5c-0.5-0.4-0.7-0.9-0.7-0.9l0-2.7c-0.6,0-1.4,0-2.2,0c-2,0-4.4,0-6.9,0.1   c-0.9,0-1.8,0.1-2.8,0.2c-0.2,0-0.4,0-0.6,0c-3.5,0.3-7,0.8-9.7,1.6c-6.8,2.2-20.4,6.6-26.8,7.6c-0.7,0.1-1.3,0.2-1.8,0.2   c0.3,5.2,0.4,10,0.3,14.3c0.6-0.2,1.3-0.3,2.1-0.5c8.1-1.8,23.2-3.4,34.6-4.2c0.8-0.1,1.7-0.1,2.4-0.2c1.8-0.1,3.4-0.2,4.9-0.2   c1,0,1.9-0.1,2.7-0.1c1.3,0,2.3,0,3.2,0c0.1,0,0.2,0,0.4,0l0.5-3.6c0,0,3.4-2.1,6.8-1.6c0.2,0,0.4,0.1,0.6,0.1   c3.6,0.9-0.8,25.9-5.5,27.5c-0.6,0.2-1.2,0.4-1.7,0.4c-0.2,0-0.3,0-0.5,0.1c-1.6,0.1-2.4-0.5-2.9-1.1c-0.3-0.4-0.5-0.8-0.5-0.8   l0.4-2.7c-0.8-0.1-1.7-0.3-2.7-0.4c-2.2-0.3-4.8-0.6-7.6-0.8c-0.8-0.1-1.5-0.1-2.3-0.1c-3.5-0.2-6.9-0.1-9.6,0.4   c-6.5,1.2-19.2,3.5-26.1,4c-0.7,0-1.3,0.1-1.8,0.1c-1.1,3.8-2.7,8.5-4.6,13.8c0.7-0.1,1.5-0.2,2.4-0.2c8.3-0.5,25.1,0.8,37.1,2.2   c0.9,0.1,1.8,0.2,2.6,0.3c2.5,0.3,4.7,0.7,6.5,1c0.8,0.1,1.6,0.3,2.2,0.4c0.3,0.1,0.7,0.2,0.9,0.2l1.2-3.4c0,0,3.7-1.5,6.9-0.3   c0.2,0.1,0.4,0.1,0.5,0.2c3.3,1.5-5.5,25.3-10.4,26.1c-0.9,0.1-1.6,0.1-2.2,0.1c-2.7-0.3-3-2.4-3-2.4l0.9-2.6   c-0.3-0.1-0.6-0.2-1-0.3c-0.4-0.1-0.8-0.3-1.2-0.4c-1.2-0.4-2.5-0.8-3.9-1.2c-1.8-0.5-3.7-1.1-5.7-1.5c-3.5-0.8-7-1.4-9.8-1.4   c-6.9,0-20.5-0.1-27.2-0.9c-1.1-0.1-1.9-0.3-2.6-0.5c-2.7,6.8-5.5,14.1-8.5,21.3c0,0,0,0,0,0c1.1-1.8,2.5-3.7,3.6-5   c0.2-0.2,0.3-0.4,0.5-0.5c0.2-0.3,0.7-0.5,1.4-0.6c5.3-1.4,23.4-0.5,36.5,0.9c2.6,0.3,5,0.6,7.1,0.9c1.5,0.2,2.7,0.4,3.8,0.6   c0.3,0.1,0.7,0.1,1,0.2c0,0,0,0,0,0l0.7-1.6c0,0,3.8-1.1,6.9,0.4c0.2,0.1,0.3,0.2,0.5,0.3c3.2,1.8-8,24.6-12.9,24.9   c-0.9,0.1-1.6,0-2.2-0.1c-2.7-0.6-2.7-2.7-2.7-2.7l1.8-3.9c-0.1,0-0.2-0.1-0.3-0.1c-0.2-0.1-0.4-0.2-0.6-0.3c-0.9-0.5-2-1-3.2-1.5   c-2.1-0.9-4.6-1.8-7.1-2.5c-2-0.5-4.1-0.8-6.1-0.8c-7.7,0-23.4,0.2-28.7-0.9c-0.7-0.2-1.3-0.3-1.6-0.6c-0.4-0.3-0.6-0.8-0.6-1.5   c-2.7,6.6-5.4,13.2-8,19.2c0,0,0,0,0,0c0.6-0.9,1.3-1.7,1.9-2.4c0.3-0.4,1.1-0.6,2.2-0.8c6-1.1,21.9-0.1,33.8,1.2   c3.3,0.4,6.2,0.8,8.6,1.2c1.2,0.2,2.2,0.4,3,0.6c0,0,0,0,0.1,0l0.4-0.8l0.4-0.9c0,0,0,0,0.1,0c0.1,0,0.3-0.1,0.7-0.1   c1.3-0.2,3.9-0.5,6.2,0.5c0.2,0.1,0.3,0.2,0.5,0.3c1.2,0.7,0.4,4.2-1.3,8.4c-2.9,7.2-8.5,16.3-11.6,16.5c-0.9,0.1-1.6,0-2.2-0.1   c-2.7-0.6-2.7-2.7-2.7-2.7l1.9-4.2l0.2-0.5c-0.3-0.2-0.6-0.3-1-0.5c-0.1,0-0.2-0.1-0.3-0.1c-0.5-0.2-1-0.5-1.5-0.7   c-2.4-1.1-5.5-2.2-8.9-2.7c-1.3-0.2-2.6-0.4-4-0.4c-8,0-23.9-0.2-28.4-1.5c-0.4-0.1-0.7-0.3-1-0.4c-0.4-0.3-0.6-0.7-0.6-1.2   c-3.2,7.6-6,14-7.8,18.3c0.2-0.5,0.4-1,0.5-1.4c-0.2,0.5-0.4,1-0.6,1.5c0,0.1-0.1,0.2-0.1,0.4c-0.4,1.1-0.8,2.1-1.2,3.2l0,0   c0.2,0,0.3-0.1,0.5-0.1c6.3-0.9,19.5-0.5,29.8,0.5c0.7,0.1,1.4,0.1,2.1,0.2c4.7,0.5,8.5,1.2,10.4,1.9c0.3,0.1,0.5,0.2,0.7,0.3   c0.3,0.2,0.6,0.3,0.8,0.5l0.8-1.1c0,0,3.9-0.5,6.8,1.5c0.2,0.1,0.3,0.2,0.5,0.3c2.8,2.3-11.9,23-16.8,22.5   c-0.9-0.1-1.6-0.3-2.2-0.5c-2.6-1-2.2-3.1-2.2-3.1l2.4-3.6c-0.4-0.3-0.8-0.6-1.2-0.8c-2.4-1.6-5.8-3.2-9.7-3.5   c-0.4,0-0.8-0.1-1.2-0.1c-4.4,0-11.5,0-17.9-0.3c-3.5-0.1-6.7-0.3-9.1-0.6c-1-0.1-1.8-0.3-2.4-0.4c0,0,0,0.1-0.1,0.1   c-0.2,0.3-0.5,0.6-0.7,0.9c-0.1,0.1-0.2,0.3-0.3,0.4c-0.3,0.4-0.6,0.9-1,1.3c-0.3,0.4-0.6,0.8-1,1.2c-0.3,0.3-0.6,0.7-0.9,1   c0,0,0,0,0,0l0,0l0,0c0,0-0.1,0.1-0.1,0.1c-0.6,0.7-1.2,1.4-1.9,2.1c-0.7,0.7-1.4,1.5-2.2,2.2c0,0-0.1,0.1-0.1,0.1c0,0,0,0,0,0   c0,0,0,0,0,0c-0.7,0.7-1.4,1.3-2.1,2c0,0,0,0,0,0c0,0,0,0,0,0c-0.2,0.1-0.3,0.3-0.5,0.4c0,0,0,0,0,0c0,0,0,0,0,0   c-0.8,0.7-1.6,1.5-2.4,2.2l0,0l0,0c0,0,0,0,0,0c-0.9,0.8-1.9,1.7-2.9,2.5c-0.2,0.2-0.4,0.4-0.6,0.5c-1,0.8-2,1.7-3,2.5   c-0.1,0.1-0.3,0.2-0.4,0.3c-0.9,0.8-1.9,1.6-2.9,2.3c-0.2,0.2-0.4,0.3-0.6,0.5c-1.1,0.9-2.2,1.7-3.3,2.6c-0.2,0.2-0.4,0.3-0.6,0.5   c-1,0.8-2,1.6-3.1,2.4c-0.2,0.1-0.3,0.3-0.5,0.4c-1.2,0.9-2.3,1.8-3.5,2.6c-0.2,0.2-0.5,0.4-0.8,0.6c0,0,0,0,0,0   c-0.8,0.6-1.5,1.1-2.3,1.7c-0.4,0.3-0.7,0.6-1.1,0.8c-0.1,0-0.1,0.1-0.2,0.1c-1.2,0.9-2.4,1.8-3.6,2.6c-0.3,0.2-0.6,0.4-0.8,0.6   c-1.2,0.9-2.4,1.7-3.6,2.6c-0.1,0.1-0.2,0.1-0.3,0.2c-0.4,0.3-0.8,0.5-1.2,0.8c-0.8,0.5-1.5,1.1-2.3,1.6c-0.1,0.1-0.2,0.1-0.3,0.2   c-0.2,0.1-0.3,0.2-0.5,0.3c-1.2,0.8-2.4,1.7-3.6,2.5c-0.2,0.1-0.4,0.3-0.6,0.4c-1.1,0.7-2.1,1.4-3.2,2.2c-0.2,0.2-0.5,0.3-0.7,0.5   c-1.2,0.8-2.3,1.6-3.5,2.3c-0.2,0.2-0.5,0.3-0.7,0.5c-1,0.7-2.1,1.4-3.1,2c-0.1,0.1-0.3,0.2-0.4,0.3c-1.1,0.7-2.2,1.5-3.3,2.2   c-0.3,0.2-0.5,0.3-0.7,0.5c-1.1,0.7-2.1,1.4-3.2,2.1c-0.9,0.6-1.8,1.2-2.6,1.9c-0.2,0.1-0.3,0.3-0.5,0.4c-0.9,0.7-1.7,1.3-2.5,2   c0,0-0.1,0.1-0.1,0.1c-0.9,0.8-1.7,1.5-2.5,2.3c0,0,0,0,0,0c-0.6,0.6-1.2,1.3-1.8,1.9c-0.3,0.3-0.5,0.6-0.7,0.9   c-0.3,0.4-0.6,0.7-0.9,1.1c-1.2,1.5-2.2,3-3.2,4.5c0,0.1-0.1,0.1-0.1,0.2c-1.1,1.8-2.2,3.7-3.1,5.7c0,0,0,0,0,0c0,0,0,0.1,0,0.1   c-1,2.2-1.9,4.5-2.6,6.8c0,0,0,0,0,0c0.1-0.2,0.2-0.4,0.2-0.7c-0.1,0.2-0.1,0.4-0.2,0.7c-0.1,0.5-0.3,1-0.4,1.5c0,0,0,0,0,0   c-0.5,2-0.9,4.1-1.2,6.2c0,0,0,0.1,0,0.1l0,0c-0.2,1.4-0.3,2.7-0.4,4.1l-0.1,2.5c-0.9,19.1,11.8,35.9,29.9,40.4   c1.5,0.4,3.1,0.7,4.7,0.9c0.9,0.1,1.8,0.2,2.7,0.3l-9.1,40.8c-12.8,1.1-21.5,13.8-17.5,25.9c0.6,1.9,1.4,3.7,2.3,5.5v0   c4.5,9,12.1,16,21.2,19.8c4.2,1.8,8.7,2.8,13.4,3.1c56.9,3.6,206,4.9,356.9-60.7C499.9,503.2,485.2,491.7,470.1,488.2z M401.9,66   c-12.5-6.2-26.2-12.8-39.2-18.5c21.2-18.9,61.9-21.9,72.5-12.2c-0.4,0.2-0.9,0.4-1.3,0.7c-11,5.8-15.8,15.9-21.1,26.5   c0,0,0,0,0,0.1C410.7,66.4,405.9,68,401.9,66z" fill="#000000" originalFill="#000000"/>
	<path fill="#E2D9C5" d="M286.2,243.6c0,0-0.6-0.2-1.7-0.6c-0.3-0.1-0.7-0.3-1.2-0.4c-0.3-0.1-0.6-0.2-1-0.3   c-0.4-0.1-0.8-0.3-1.2-0.4c-1.2-0.4-2.5-0.8-3.9-1.2c-1.8-0.5-3.7-1.1-5.7-1.5c-3.5-0.8-7-1.4-9.8-1.4c-6.9,0-20.5-0.1-27.2-0.9   c-1.1-0.1-1.9-0.3-2.6-0.5c-0.2-0.1-0.4-0.1-0.6-0.2c-0.2-0.1-0.3-0.1-0.4-0.2c-2.3-1.7,1.2-10.6,4.2-13.9c0.1-0.1,0.2-0.2,0.3-0.2   c0,0,0.1,0,0.1-0.1c0.1-0.1,0.3-0.1,0.4-0.2c0,0,0.1,0,0.1,0c0.4-0.1,1-0.2,1.6-0.3c0.7-0.1,1.5-0.2,2.4-0.2   c8.3-0.5,25.1,0.8,37.1,2.2c0.9,0.1,1.8,0.2,2.6,0.3c2.5,0.3,4.7,0.7,6.5,1c0.8,0.1,1.6,0.3,2.2,0.4c0.3,0.1,0.7,0.2,0.9,0.2   c0.4,0.1,0.7,0.2,0.9,0.3c0.1,0,0.1,0.1,0.2,0.1C296.1,227.9,292.7,242.5,286.2,243.6z M297.4,117.3c-0.1,0-0.2,0-0.3,0   c-0.1,0-0.2,0-0.2,0c-0.3,0-0.6,0-1,0c-0.4,0-0.8,0.1-1.3,0.1c-1,0.1-2.2,0.3-3.5,0.5c-1.3,0.2-2.8,0.5-4.3,0.7   c-5.6,1-12.8,2.5-19.9,4.2c-11,2.6-21.7,5.5-26,7.7c-0.5,0.2-0.9,0.5-1.2,0.7c-0.2,0.1-0.3,0.2-0.5,0.4c0,0,0,0,0,0   c-0.1,0.1-0.2,0.2-0.3,0.3c-0.1,0.2-0.2,0.5-0.3,0.8c0,0.1,0,0.2-0.1,0.3c0,0.2-0.1,0.4-0.1,0.6c0,0.1,0,0.3,0,0.4   c0,0.2,0,0.4-0.1,0.6c0,0.1,0,0.3,0,0.4c0,0.2,0,0.4,0,0.6c0,0.2,0,0.3,0,0.5c0,0.2,0,0.4,0,0.6c0,0.2,0,0.3,0,0.5   c0,0.2,0,0.4,0.1,0.6c0,0.2,0,0.3,0.1,0.5c0,0.2,0.1,0.4,0.1,0.6c0,0.2,0.1,0.4,0.1,0.5c0,0.2,0.1,0.4,0.1,0.6   c0,0.2,0.1,0.4,0.1,0.5c0,0.2,0.1,0.3,0.1,0.5c0,0.2,0.1,0.4,0.2,0.5c0,0.2,0.1,0.3,0.2,0.5c0.1,0.2,0.1,0.4,0.2,0.5   c0.1,0.1,0.1,0.3,0.2,0.4c0.1,0.2,0.1,0.3,0.2,0.5c0.1,0.1,0.1,0.2,0.2,0.4c0.1,0.2,0.2,0.3,0.2,0.5c0.1,0.1,0.1,0.2,0.2,0.3   c0.1,0.2,0.2,0.3,0.3,0.4c0,0.1,0.1,0.1,0.1,0.1c0.3,0.3,0.5,0.6,0.8,0.8c0.2,0.1,0.4,0.2,0.5,0.3c0.2,0.1,0.5,0.1,0.9,0.1   c4.6-0.1,21.3-5.6,29.5-8.2c0.4-0.1,0.7-0.2,1-0.3c3.3-1.1,7.8-1.6,12.1-1.8c1.4-0.1,2.7-0.1,3.9-0.1c1.7,0,3.3,0,4.6,0   c0.5,0,1,0,1.4,0c0.5,0,0.9,0,1.2,0c0.1,0,0.2,0,0.3,0c1,0,1.5,0.1,1.5,0.1C304.3,133,303.2,118.5,297.4,117.3z M436.1,121.3   c0-9.1-0.6-16.2-2.1-18.7c-2.5-4.1-19.3-14.2-34.1-22.6C387.8,73.1,377,67.4,377,67.4s10,6.3,20.7,14.8c10.6,8.4,22,18.8,25.2,27.4   c0.2,0.5,0.4,1,0.5,1.5c0.5,1.6,1,3.4,1.4,5.4c0,0,0,0,0,0c4.1,20.6,2.5,59.4,0.3,75.2c-2.4,17.9-19.3,48.8-19.3,48.8   s27.8-41.6,28.1-60.3C434.1,167.6,436.2,140.2,436.1,121.3L436.1,121.3z M246,316.5c-0.3-0.2-0.6-0.5-1-0.7   c-0.3-0.2-0.5-0.3-0.8-0.5c-0.2-0.1-0.4-0.2-0.7-0.3c-1.9-0.7-5.8-1.4-10.4-1.9c-0.7-0.1-1.4-0.2-2.1-0.2   c-10.2-1-23.5-1.4-29.8-0.5c-0.2,0-0.4,0.1-0.5,0.1l0,0c-1.5,0.3-2.6,0.6-3,1c-2.9,3.3-8.5,10.3-6.2,12.1c0.3,0.2,0.7,0.4,1.4,0.5   l0,0c0.6,0.2,1.5,0.3,2.4,0.4c2.4,0.3,5.6,0.5,9.1,0.6c6.3,0.2,13.5,0.3,17.9,0.3c0.4,0,0.8,0,1.2,0.1c3.9,0.3,7.3,1.9,9.7,3.5   c0.4,0.3,0.8,0.6,1.2,0.8c0.4,0.3,0.7,0.5,1,0.8c1.3,1.1,2,1.8,2,1.8C243.4,333.3,253.4,322.5,246,316.5z M491.9,271.9   c-4.6-23.2-15.3-43.7-28.6-46.3c0,0,17.4,25.2,22.7,62c5.3,36.8-1.9,62.5-9.9,72.7c-4.3,5.4-10.8,10.4-15.8,13.9   c-4.4,3-7.7,4.9-7.7,4.9s4.6-1.6,10.5-4.9c7-3.9,16-10.3,21.5-19.3C494.5,338.2,496.5,295.1,491.9,271.9z M296.7,148.2   C296.7,148.2,296.7,148.2,296.7,148.2c-0.1,0-0.2,0-0.3,0c-0.3,0-0.6,0-1,0c-0.5,0-1,0.1-1.6,0.1c-1.5,0.2-3.5,0.5-5.8,0.9   c-1,0.2-2.2,0.4-3.3,0.6c-2.3,0.4-4.8,0.9-7.4,1.5c-12.6,2.7-27.4,6.6-32.5,9.2c-0.6,0.3-1.1,0.6-1.4,0.9c-0.1,0.1-0.2,0.2-0.2,0.2   c-0.1,0.1-0.1,0.2-0.2,0.3c-1.8,4-2.4,13.6,0.4,14.5c0.1,0,0.3,0.1,0.5,0.1c0,0,0,0,0,0c0.2,0,0.5,0,0.7,0c0.5,0,1.1-0.1,1.8-0.2   c6.4-1.1,20-5.4,26.8-7.6c2.7-0.9,6.1-1.4,9.7-1.6c0.2,0,0.4,0,0.6,0c0.9-0.1,1.9-0.1,2.8-0.2c2.5-0.1,4.9-0.1,6.9-0.1   c0.8,0,1.5,0,2.2,0c0.3,0,0.6,0,0.8,0c0.1,0,0.3,0,0.4,0c1.1,0,1.8,0.1,1.8,0.1C304,163.8,302.7,148.9,296.7,148.2z M298.9,49.4   c-0.3-0.1-0.7-0.2-1.1-0.2c-0.1,0-0.2,0-0.2,0c-0.2,0-0.6,0-1,0.1c-0.4,0.1-0.9,0.1-1.4,0.3c-1,0.2-2.2,0.5-3.5,0.8   c-2,0.5-4.5,1.2-7.2,2c-11.5,3.4-28,8.8-40.2,13.4c-4.3,1.6-8,3.1-10.8,4.4c-0.4,0.2-0.8,0.4-1.1,0.5c-0.4,0.2-0.7,0.4-1.1,0.5   c-1.9,1-3,1.7-3.2,2.2c-1.6,4.1-1.8,13.7,1,14.5c0.1,0,0.3,0,0.4,0c0,0,0.1,0,0.1,0c0.2,0,0.4,0,0.7-0.1c0,0,0,0,0.1,0   c0.6-0.1,1.3-0.3,2.2-0.6c0,0,0,0,0,0c0.4-0.1,0.9-0.3,1.4-0.4c4.1-1.3,10.1-3.6,16.4-6.1c10.1-4,20.8-8.4,24.8-10   c2.9-1.1,6.8-1.8,10.7-2.2c1.8-0.2,3.6-0.4,5.3-0.5c1.3-0.1,2.5-0.1,3.6-0.2c0.8,0,1.6-0.1,2.3-0.1c0.4,0,0.7,0,1,0   c0.1,0,0.1,0,0.2,0c1.1,0,1.8,0,1.8,0C305.5,64.6,304.1,51.3,298.9,49.4z M296.4,185.9c-0.1,0-0.2,0-0.2-0.1c-0.3,0-0.6-0.1-1-0.1   c-0.1,0-0.2,0-0.4,0c-0.8,0-1.9-0.1-3.2,0c-0.8,0-1.7,0-2.7,0.1c-1.5,0.1-3.1,0.1-4.9,0.2c-0.8,0-1.6,0.1-2.4,0.2   c-11.5,0.8-26.5,2.4-34.6,4.2c-0.8,0.2-1.5,0.3-2.1,0.5c-0.1,0-0.2,0.1-0.3,0.1c-0.2,0-0.3,0.1-0.5,0.1c-0.1,0-0.2,0.1-0.3,0.1   c-0.1,0-0.3,0.1-0.4,0.1c-0.1,0-0.2,0.1-0.3,0.1c-0.2,0.1-0.4,0.2-0.6,0.2c0,0-0.1,0-0.1,0.1c-0.1,0.1-0.3,0.1-0.4,0.2   c0,0-0.1,0.1-0.1,0.1c-0.1,0.1-0.2,0.1-0.3,0.2c0,0-0.1,0.1-0.1,0.1c-0.1,0.1-0.2,0.2-0.2,0.2c-2.3,3.8-4.2,13.1-1.6,14.4   c0.1,0.1,0.2,0.1,0.4,0.1c0,0,0.1,0,0.1,0c0.1,0,0.3,0.1,0.5,0.1c0,0,0,0,0,0c0.4,0,1,0.1,1.6,0c0.5,0,1.1,0,1.8-0.1   c6.9-0.5,19.6-2.8,26.1-4c2.7-0.5,6.1-0.5,9.6-0.4c0.8,0,1.5,0.1,2.3,0.1c2.7,0.2,5.4,0.5,7.6,0.8c1,0.1,1.9,0.3,2.7,0.4   c0.2,0,0.4,0.1,0.6,0.1c0.2,0,0.5,0.1,0.7,0.1c0.4,0.1,0.8,0.1,1,0.2c0.5,0.1,0.7,0.1,0.7,0.1C301.6,202.4,302.3,187.4,296.4,185.9   z M279.1,254.3c-0.1,0-0.3-0.1-0.4-0.1c-0.3-0.1-0.7-0.2-1.2-0.3c0,0,0,0,0,0c-0.3-0.1-0.6-0.1-1-0.2c-1.1-0.2-2.3-0.4-3.8-0.6   c-2.1-0.3-4.5-0.6-7.1-0.9c-13.1-1.4-31.2-2.3-36.5-0.9c-0.7,0.2-1.1,0.4-1.4,0.6c-0.2,0.2-0.3,0.4-0.5,0.5c-1.1,1.4-2.5,3.2-3.6,5   c0,0,0,0,0,0c-0.1,0.2-0.3,0.4-0.4,0.7c0,0.1-0.1,0.1-0.1,0.2c-0.1,0.2-0.2,0.4-0.3,0.6c0,0.1-0.1,0.1-0.1,0.2   c-0.2,0.4-0.4,0.7-0.5,1.1c0,0.1-0.1,0.1-0.1,0.2c-0.1,0.1-0.1,0.3-0.2,0.4c0,0.1-0.1,0.3-0.1,0.4c0,0.1-0.1,0.2-0.1,0.4   c0,0.1-0.1,0.3-0.1,0.4c0,0.1-0.1,0.2-0.1,0.3c0,0.1,0,0.3-0.1,0.4c0,0.1,0,0.2,0,0.2v0c0,0.6,0.2,1.2,0.6,1.5   c0.3,0.2,0.8,0.4,1.6,0.6c5.3,1.1,21,0.9,28.7,0.9c2,0,4.1,0.3,6.1,0.8c2.6,0.6,5,1.6,7.1,2.5c1.2,0.5,2.3,1,3.2,1.5   c0.2,0.1,0.4,0.2,0.6,0.3c0.1,0,0.2,0.1,0.3,0.1c0.4,0.2,0.8,0.4,1.1,0.6c0.6,0.3,0.9,0.5,0.9,0.5   C278.1,271.1,285,256.5,279.1,254.3z M264.9,282.4c-0.2-0.1-0.5-0.2-0.8-0.2c-0.2-0.1-0.5-0.1-0.8-0.2c-0.1,0-0.3-0.1-0.4-0.1   c0,0,0,0-0.1,0c-0.9-0.2-1.9-0.4-3-0.6c-2.4-0.4-5.3-0.8-8.6-1.2c-11.9-1.3-27.8-2.3-33.8-1.2c-1.1,0.2-1.9,0.5-2.2,0.8   c-0.6,0.7-1.2,1.5-1.9,2.4c-0.2,0.3-0.5,0.7-0.7,1c0,0-0.1,0.1-0.1,0.1c-0.2,0.4-0.4,0.7-0.7,1.1l0,0c-1.3,2.3-2.3,4.7-2.1,6.2   c0.1,0.5,0.3,0.9,0.6,1.2c0.2,0.2,0.5,0.3,1,0.4c4.5,1.4,20.3,1.5,28.4,1.5c1.3,0,2.7,0.1,4,0.4c3.4,0.6,6.5,1.7,8.9,2.7   c0.6,0.2,1.1,0.5,1.5,0.7c0.1,0,0.2,0.1,0.3,0.1c0.4,0.2,0.7,0.4,1,0.5c0.1,0.1,0.2,0.1,0.3,0.2c0.3,0.2,0.6,0.3,0.8,0.4   c0.3,0.2,0.5,0.3,0.5,0.3c2.9-0.5,5.9-3.4,7.9-6.6C267.4,288.3,268.2,283.6,264.9,282.4z M236.2,116.7c0.1,0,0.1,0,0.2,0   c0.1,0,0.1,0,0.2,0c0.2,0,0.4,0,0.7,0c0.4,0,0.8-0.1,1.4-0.2c4.9-0.9,14.8-4,23.1-6.7c4.6-1.5,8.8-2.9,11.3-3.7   c3.8-1.2,9.3-1.7,14.2-1.9c1.3,0,2.6-0.1,3.8-0.1c1.3,0,2.6,0,3.6,0c0.2,0,0.3,0,0.5,0c0.5,0,0.9,0,1.2,0c0.5,0,0.9,0,1.2,0   c0.4,0,0.6,0,0.6,0c5.5-2.8,4.7-16.1-0.3-18.4c-0.4-0.2-0.7-0.3-1.1-0.3c-0.1,0-0.2,0-0.2,0c-0.2,0-0.6,0-1,0c-0.2,0-0.4,0-0.7,0.1   c-1,0.1-2.2,0.3-3.7,0.6c-1.1,0.2-2.4,0.4-3.7,0.7c-8.4,1.7-20.7,4.6-31.5,7.6c-8.5,2.4-15.9,4.7-19.6,6.5c-0.6,0.3-1,0.5-1.4,0.8   c-0.1,0.1-0.2,0.2-0.3,0.2c-0.1,0.1-0.2,0.2-0.3,0.3c0,0-0.1,0.1-0.1,0.1c-0.1,0.1-0.2,0.2-0.2,0.3c-1.8,4-0.7,13.1,2.1,14   C236,116.7,236.1,116.7,236.2,116.7z" originalFill="#E2D9C5"/>
</g>
</svg>