<svg xmlns="http://www.w3.org/2000/svg" xmlns:xlink="http://www.w3.org/1999/xlink" version="1.1" id="svg-edited-version" x="0px" y="0px" viewBox="0 0 595.3 595.3" enable-background="new 0 0 595.3 595.3" xml:space="preserve" class="injected-svg" data-src="https://preview.pixlr.com/images/svg/100/1/e9b25112fa24d3a6db7a73670354e33acb1bf20a5b1210e3643e49f56ea7b065.svg">
<g>
	<path fill="#FFFFFF" d="M163.7,439c0.1,0.1,0.2,0.2,0.3,0.3l-0.6,3l-2.3,11.3c-3.9,0-7.5,0-10.5,0c-15.8,0-29.8,8.2-38.8,21   l8.5-42.6c4.3,1.8,8.9,2.9,13.8,3c6.9,0.2,14.5,0.3,22.7,0.4c1.5,0,3,0,4.5,0C162.1,436.8,162.8,437.9,163.7,439z M363.2,395   c0,0.8,0.1,1.5,0.2,2.3c2.4,0.1,4.8,0.3,7.1,0.7c8,0.5,15.3,4.3,20.9,10.3c0.9,1,1.7,2,2.5,3.1l7.6-2.9c0.3-0.2,0.6-0.5,0.9-0.7   c0-1.3,0.1-2.5,0.2-3.7c1.2-12.6,7.7-23.3,16.7-28.7c-17.4,4.6-35.9,9.2-49,12.2C368.1,390.2,365.7,392.7,363.2,395z M209.1,444.8   c0.9,1.9,2,3.8,3.4,5.5c1.2,1.5,2.5,2.9,3.9,4.1c2-7.6,5.7-14.4,10.6-19.8c-1.1,0-2.1,0.1-3.2,0.1   C219.4,438.6,214.5,442,209.1,444.8z M284.7,315.8c-2.7-1-14.4,9-14.4,9s9.2-6.7,14.8-4.6c5.6,2.1,37,22.1,40.3,25.5   c3.3,3.3-1.5,9-1.5,9s10.4-7.3,10.2-9.6C334,342.7,287.4,316.8,284.7,315.8z M408.7,94.3c3.8,7.5,19.6,92.3,19.2,114   c-0.4,21.7-10.4,50.9-10.4,50.9s20-49.3,19.2-57.6c-0.8-8.4-19.6-115.2-23.4-118.6c-3.8-3.3-22.5,0-22.5,0S404.9,86.8,408.7,94.3z    M323.9,163.6c0,0-0.1,0-0.1-0.1c-4.7-1.8-9.7,1.7-9.8,6.8c0,1.8,0.2,3.8,0.7,5.8c2.1,7.1,4.6,40.5,3.8,49.3c-0.4,4.2-1.7,9-3,12.9   c-1.4,4.2,1,8.6,5.3,9.8l8.6,2.4c0,0-5.4-4.6-3.8-16.3c1.7-11.7-4.6-53-4.2-56.8c0.4-3.8,5.4-10,5.4-10c4.2-0.4,15.9-6.3,15.9-6.3   S328.1,165.3,323.9,163.6z M408.9,324.3c-4.4,4.6-3.6,10.1,0.1,4.3c3.7-5.8,7.8-5.8,7.8-5.8C418.4,320.4,413.4,319.7,408.9,324.3z" originalFill="#FFFFFF"/>
	<path fill="rgba(40, 40, 90, 1)" d="M297.9,49.9c6.6-0.6,12.7-0.6,15.4,1c15,8.8,37.6-3.1,60.1,1.9c21,4.7,38.2,15.3,41,21.8   c-6.4-2.5-55.1-20.8-80.3-13.2C320.4,65.4,308.8,58.1,297.9,49.9z M447.1,421.6c2.8,0,5.3-1.3,7.2-3.3l-8.5,3.2   C446.2,421.5,446.7,421.6,447.1,421.6z M368.8,452.5c3.6,0,6.9-2,9-5.1l-12.1,4.6C366.7,452.3,367.8,452.5,368.8,452.5z    M168.7,526.5c1.5,0.5,3,0.7,4.7,0.7c5.3,0,10.1-2.7,13.2-6.9l-14.2,5.4C171.2,526.2,169.9,526.4,168.7,526.5z M451.1,332.7   c0,0,12.6-3.8,23.1-7.8c-0.3,18.1-1.8,32.8-5.1,34.9c-0.8,0.6-2.4,1.2-4.4,2.1c-0.2,0.1-0.4,0.1-0.6,0.2c-3.3,1.3-7.9,2.8-13.4,4.4   c-1.6,0.5-3.3,1-5,1.5c-1.4,0.4-2.8,0.8-4.3,1.3c-2.5,0.7-5.1,1.5-7.8,2.2c-0.3,0.1-0.6,0.2-1,0.3c-4.3,1.2-8.8,2.4-13.3,3.6   c-17.4,4.6-35.9,9.2-49,12.2c-2.4,0.6-4.7,1.1-6.7,1.5c-0.9,0.2-1.7,0.4-2.4,0.5c-0.1,0-0.1,0-0.2,0c-1.2,0.3-2.3,0.5-3.4,0.8   c-11,3-16.8,8.3-24.8,14.7c-0.5,0.4-1,0.8-1.5,1.2c-7.9,6.1-18.3,13.1-37.8,19.8c-0.6,0.2-1.1,0.4-1.7,0.6   c-0.2,0.1-0.4,0.1-0.6,0.2c-0.9,0.3-1.8,0.5-2.8,0.8c-2,0.5-4.1,1-6.4,1.5c-9.4,1.9-21.2,3.3-34.2,4.3c-6.7,0.5-13.7,0.9-20.8,1.3   c-1.1,0-2.1,0.1-3.2,0.1c-2.8,0.1-5.5,0.2-8.3,0.3c-3.1,0.1-6.3,0.2-9.4,0.3c-1.7,0-3.5,0.1-5.2,0.1c-10.2,0.2-20.5,0.2-30.2,0.2   c-2,0-4,0-6,0c-1.1,0-2.2,0-3.4,0c-1.5,0-3,0-4.5,0c-8.2-0.1-15.9-0.2-22.7-0.4c-4.9-0.1-9.6-1.2-13.8-3c-1.9-0.8-3.7-1.8-5.4-2.9   c-9.2-5.9-15.6-15.6-17-27.1l-3-24.8c0,0,1.7-2.5,5.2-7c16.1-1,53.7,0.8,67.8,9.9c2.2,1.4,4.2,2.3,6,2.9c10.2,3,14.9-12.3,4.9-15.9   c0,0,0,0,0,0c-0.1,0-0.1,0-0.2-0.1c-0.1,0-0.3-0.1-0.4-0.1c-0.5-0.2-1.1-0.4-1.6-0.6c-0.2-0.1-0.4-0.1-0.6-0.2   c-0.7-0.2-1.4-0.5-2.1-0.7c-0.1,0-0.2-0.1-0.4-0.1c-0.6-0.2-1.3-0.4-1.9-0.7c-0.2-0.1-0.4-0.1-0.6-0.2c-1.5-0.5-3.1-1-4.8-1.6   c-0.2-0.1-0.5-0.1-0.7-0.2c-0.7-0.2-1.4-0.5-2.2-0.7c-0.1,0-0.3-0.1-0.4-0.1c-0.8-0.3-1.7-0.5-2.6-0.8c-0.2-0.1-0.5-0.1-0.7-0.2   c-0.7-0.2-1.4-0.4-2.1-0.7c-0.2-0.1-0.4-0.1-0.6-0.2c-0.9-0.3-1.8-0.5-2.7-0.8c-0.2-0.1-0.4-0.1-0.6-0.2c-0.7-0.2-1.5-0.4-2.2-0.6   c-0.2-0.1-0.5-0.1-0.7-0.2c-0.9-0.3-1.8-0.5-2.7-0.8c-0.1,0-0.3-0.1-0.4-0.1c-0.8-0.2-1.6-0.4-2.4-0.7c-0.2-0.1-0.5-0.1-0.7-0.2   c-0.9-0.2-1.9-0.5-2.8-0.7h0c-0.9-0.2-1.8-0.5-2.8-0.7c-0.2-0.1-0.5-0.1-0.7-0.2c-0.8-0.2-1.6-0.4-2.4-0.6c-0.1,0-0.3-0.1-0.4-0.1   c-0.9-0.2-1.8-0.4-2.7-0.6c-0.2,0-0.5-0.1-0.7-0.1c-0.7-0.2-1.5-0.3-2.2-0.4c-0.2,0-0.4-0.1-0.6-0.1c-0.9-0.2-1.7-0.3-2.6-0.5   c-0.2,0-0.4-0.1-0.6-0.1c-0.7-0.1-1.4-0.2-2.1-0.3c-0.2,0-0.4-0.1-0.6-0.1c-0.8-0.1-1.6-0.2-2.5-0.3c-0.1,0-0.2,0-0.4,0   c-0.7-0.1-1.4-0.2-2.1-0.2c-0.2,0-0.4,0-0.6-0.1c-0.8-0.1-1.5-0.1-2.3-0.2c-4-2.8-1.2-7.8,1.6-11c5-5.8,11.9-12.5,21.9-11.7   c20,5.1,69,19,87.7,36.7c11.1,10.5,22.6,16.6,33,19.9c2,0.6,4,1.2,5.9,1.6c9.4,2.2,17.5,2.1,22.5,1c5.3-1.2,13-7.8,21.5-14.5   c3-2.3,6-4.6,9-6.7c6.8-4.6,13.6-8.1,19.6-7.6c16.3,1.3,33.8-20,28.8-40.1c-5-20-92.7-48.8-131.5-46.3c-19.1,1.2-31.2,2.5-38.6,3.4   c-5.3-2.1,2.6-13.2,6-18.4c3.8-5.8,5.6-13.2,15-14c25.6-1.3,73.1-1.4,115.2,11.5c61.4,18.8,60.1,45.1,76.4,41.3   c16.3-3.8,32.4-97.3,32.4-97.3c9-5.5,26.7,25.6,32.1,45.9c0.8,3,1.9,11.9-2.9,18.3c-6.8,13.9-15.5,32.4-17.8,40.5   C449.8,317.7,451.1,332.7,451.1,332.7z M330.1,262.2c0,0-0.1-0.1-0.3-0.3c-5.4-6-15.8-6-18.2-2.1c-2.4,3.9-15.1,20-15.1,20   s7.8,2.4,10.2,1.5c2.4-1,8.8-11.2,14.6-17c4.8-4.8,7.6-3,8.5-2.3C329.9,262,330,262.1,330.1,262.2z M444.3,226.1c0,0,2.9-5,7.9-1.2   c5,3.7,12.9,25,13.3,30c0.4,5-1.2,8.3-1.2,8.3s9.6-8.3,7.9-14.2c-1.7-5.8-17.1-37-22.1-39.5C445.1,207,444.3,226.1,444.3,226.1z    M210.4,377.1c6.8-8.3,17.5-4.4,17.5-4.4s-10.2-10.7-21.4,1.9c-9.5,10.8-12.7,31.8-11.9,41.7c0.1,1.2,0.3,2.3,0.5,3.2   c0.1,0.3,0.2,0.6,0.3,0.9c0.7,1.8,2.3,3.2,4.3,4.3c1.7,1,3.7,1.7,5.7,2.3c3.9,1.2,7.5,1.7,7.5,1.7s-3.9-1.8-7.6-6.3   c-1.1-1.3-2.1-2.7-3.1-4.4c0-0.1-0.1-0.1-0.1-0.2C197.8,409.8,203.6,385.3,210.4,377.1z M420.8,352.4c0.2-0.3,0.5-0.6,0.7-0.9   c1.8-2.6,3.3-5.8,4.4-9.3c3.6-11.7,1-23-6-25.1c-0.6-0.2-1.2-0.3-1.7-0.3c-6.6-0.5-14.1,6.9-17.4,17.6c-1.4,4.4-1.8,8.7-1.5,12.4   c0.1,0.9,0.2,1.8,0.3,2.6c0.7,3.7,2.2,6.8,4.5,8.6c0.8,0.6,1.7,1.2,2.7,1.5C411.4,360.9,416.7,358,420.8,352.4z M200.7,161.4   c0.3,0.1,0.6,0.1,0.9,0.1c7.4,0,7.5-3.3,15.5-10.5c0.1-0.1,0.2-0.2,0.3-0.3c4.4-4,24.5-3.5,45.5-1.9c15.6,1.2,31.7,2.9,42.4,3.9   c-1.5-1.7-2.9-4-4.2-6.9c-0.9-2.2-1.7-4.8-2.3-7.8c-2-9.5-0.8-17.8,1.9-23.4c-5.4-0.5-10.9-1.3-16.5-2.3c-29-5.2-62.8-1.6-80.8,1.1   c-7.9,1.2-12.7,2.2-12.7,2.2c-2.4,1.4-4.2,3-5.5,4.9C175.7,134.1,193.4,159.3,200.7,161.4z M401.6,139c0.2-0.3,0.4-0.6,0.4-0.8   c5.8-19.2-3.3-33.4-20.9-29.2c-5.5,1.3-13,2.9-22,4.2c1.8,0.3,3.4,0.7,4.3,1.7c2.5,2.5,4.7,22.1,1.7,32c-0.3,1-0.7,1.9-1.1,2.7   C382.3,146.8,398.5,143,401.6,139z M197.9,498.5c0,0.2,0,0.4,0,0.7c0,5.4-3.2,10-7.7,11.6c-1.1,0.4-2.2,0.6-3.5,0.6   c-0.3,0-0.5,0-0.8,0c-5.8-0.4-10.4-5.7-10.4-12.2c0-1.8,0.3-3.4,1-4.9c0.5-1.3,1.3-2.5,2.2-3.5c0.9-1,2-1.9,3.2-2.5   c0.8-0.4,1.6-0.8,2.5-1c0.7-0.2,1.5-0.3,2.3-0.3c0.2,0,0.4,0,0.6,0c1.6,0.1,3.2,0.6,4.6,1.4c0,0,0.1,0,0.1,0.1   C195.4,490.4,197.7,494.1,197.9,498.5z M186.8,505.7c1.2,0,2.3-0.4,3.2-1.1c1.6-1.2,2.7-3.2,2.7-5.5c0-3.6-2.7-6.5-6-6.5   c-1.1,0-2.2,0.4-3.1,1c-1.7,1.1-2.9,3.2-2.9,5.6C180.8,502.8,183.5,505.7,186.8,505.7z M189.4,502.3c0.8-0.8,1.2-1.9,1.2-3.1   c0-2.4-1.7-4.3-3.9-4.3c-0.5,0-1,0.1-1.4,0.3c-1.5,0.6-2.5,2.2-2.5,4c0,2.4,1.7,4.3,3.9,4.3C187.8,503.4,188.7,503,189.4,502.3z    M295.1,459.9c0.2,0.9,0.4,1.9,0.4,2.9c0,5.2-3.3,9.5-7.7,10.7c-0.8,0.2-1.5,0.3-2.3,0.3c-0.2,0-0.5,0-0.7,0   c-5.2-0.4-9.3-5.1-9.3-11c0-2.8,1-5.3,2.5-7.3c0.7-0.9,1.5-1.6,2.4-2.2c1.5-1,3.3-1.6,5.1-1.6c0.2,0,0.4,0,0.6,0   c0.4,0,0.8,0.1,1.2,0.2c3,0.6,5.5,2.7,7,5.5C294.6,458.3,294.9,459.1,295.1,459.9z M285.5,468.7c1.2,0,2.3-0.5,3.3-1.2   c1.3-1.1,2.1-2.7,2.1-4.6c0-3.2-2.4-5.9-5.4-5.9c-0.2,0-0.4,0-0.6,0.1c-2.7,0.3-4.7,2.8-4.7,5.8   C280.1,466.1,282.5,468.7,285.5,468.7z M288.5,464.8c0.3-0.6,0.5-1.2,0.5-1.9c0-1.8-1.1-3.2-2.6-3.7c-0.3-0.1-0.6-0.2-0.9-0.2   c-1.9,0-3.5,1.7-3.5,3.8s1.6,3.8,3.5,3.8C286.8,466.7,287.9,465.9,288.5,464.8z M381.6,431c0,1.8-0.5,3.4-1.2,4.8   c-1.5,2.6-4.1,4.3-7.1,4.3c-0.2,0-0.4,0-0.6,0c-4.3-0.3-7.7-4.3-7.7-9.1c0-2.6,1-5,2.6-6.6c1.5-1.5,3.5-2.5,5.7-2.5   c0.2,0,0.3,0,0.5,0C378.1,422.2,381.6,426.1,381.6,431z M373.3,435.9c2.5,0,4.4-2.2,4.4-4.9c0-1-0.3-2-0.8-2.8   c-0.4-0.6-0.9-1.1-1.5-1.5c-0.6-0.4-1.4-0.6-2.2-0.6c-2.5,0-4.4,2.2-4.4,4.9C368.9,433.7,370.8,435.9,373.3,435.9z M376.2,431   c0-1.8-1.3-3.2-2.9-3.2c-1.6,0-2.9,1.4-2.9,3.2c0,1.8,1.3,3.2,2.9,3.2C374.9,434.2,376.2,432.7,376.2,431z M458.2,405.3   c0,1.1-0.2,2.1-0.5,3c-1.1,3.6-4.2,6.1-7.8,6.1c-0.2,0-0.4,0-0.6,0c-4.3-0.3-7.7-4.3-7.7-9.1c0-4.8,3.4-8.8,7.7-9.1   c0.2,0,0.4,0,0.6,0c0.2,0,0.3,0,0.5,0C454.8,396.5,458.2,400.5,458.2,405.3z M449.9,410.2c2.5,0,4.4-2.2,4.4-4.9s-2-4.9-4.4-4.9   c-2.5,0-4.4,2.2-4.4,4.9S447.5,410.2,449.9,410.2z M452.8,405.3c0-1.8-1.3-3.2-2.9-3.2c-1.6,0-2.9,1.4-2.9,3.2   c0,1.8,1.3,3.2,2.9,3.2C451.5,408.5,452.8,407.1,452.8,405.3z M352.5,240.3c1.1-0.3,2.3-0.7,3.4-1.2c4.9-2.6,9.4-12,12.4-20.3   c3.2-8.7,1.3-18.5-5-25.3c-5.9-6.4-13.2-13.2-18.1-13.9c-0.6-0.1-1.1-0.1-1.6-0.1c-8.3-0.1-12.7,8-11.5,13.3   c1.3,5.6,6.3,26.3,3.8,35.1C333.6,235.6,343.7,242.4,352.5,240.3z M399.8,215.9c0.9-0.3,1.7-0.7,2.5-1.2c3.6-2.4,6.4-10,8.2-16.6   c1.9-7-0.3-14.4-5.6-19.2c-5-4.5-11.1-9.3-15-9.4c-0.4,0-0.9,0-1.3,0c-6.5,0.5-9.3,7.1-8,11.1c1.4,4.3,6.7,19.9,5.4,26.8   C384.8,213.6,393.1,218.1,399.8,215.9z M292.2,313.5c0,0,33,18,43.4,25.9c1.6,1.2,3.3,1.8,4.9,1.9c7-3.5,12.5-13.3,10.3-17.8   c-3.1-6.2-36.9-24.1-45.6-26.8C300,300,292.9,308,292.2,313.5z M305.3,296.7c0.4-0.2,0.8-0.5,1.1-0.6   C306.1,296.2,305.7,296.4,305.3,296.7z M305.3,296.7L305.3,296.7C305.3,296.7,305.3,296.7,305.3,296.7   C305.3,296.7,305.3,296.7,305.3,296.7z M346.4,339.9c-0.7,0.4-1.4,0.7-2.2,0.9C345,340.6,345.7,340.3,346.4,339.9z M274.2,333.1   c-0.6,0.2-1.3,0.5-1.9,0.8C272.9,333.6,273.6,333.4,274.2,333.1z M271,334.9l-10,8.8c-2.9,2.6-6.1,4.7-9.6,6.3   c-6.3,2.9-11.5,5.4-3.1,12.7c5.2,4.4,13.5,9.2,21.6,12.4c1.9,0.7,3.8,1.4,5.6,1.9c3.5,1,6.8,1.6,9.5,1.6c0.4-0.3,0.8-0.6,1.1-0.9   c1.4-1.6,3.2-3.2,5.2-5c1.7-1.4,3.4-2.9,5.1-4.4c5.5-4.8,10.3-9.7,8.1-13.2c-2.7-4.2-19.5-14.7-28.6-20c-1.1-0.7-2.4-1.1-3.7-1.2   C271.9,334.3,271.4,334.6,271,334.9z M285.9,378.7c-0.3,0-0.6,0-0.9,0c0,0,0,0,0,0C285.3,378.7,285.6,378.7,285.9,378.7z" originalFill="#000034"/>
	<path fill="rgba(208, 0, 255, 0.52)" d="M499.2,376.5c-2.3-6-7.6-10.2-13.9-11.2c-2.3-1.2-4.9-2-7.6-2.1c-4.2-0.2-8.9-0.6-13.1-1.4   c-0.2,0.1-0.4,0.1-0.6,0.2c-3.3,1.3-7.9,2.8-13.4,4.4c-1.6,0.5-3.3,1-5,1.5c-1.4,0.4-2.8,0.8-4.3,1.3c-2.5,0.7-5.1,1.5-7.8,2.2   c-0.3,0.1-0.6,0.2-1,0.3c-4.3,1.2-8.8,2.4-13.3,3.6c-9,5.4-15.5,16.1-16.7,28.7c-0.1,1.2-0.2,2.5-0.2,3.7c-0.3,0.2-0.6,0.5-0.9,0.7   c-2.1,1.5-4.3,2.9-6.7,4.2c-0.9,0.5-1.9,0.9-2.9,1.4c-2,0.8-3.9,1.4-5.9,1.8c-1.7,0.3-3.5,0.5-5.2,0.6c-1.6,0-3.2-0.1-4.8-0.4   c-0.6-0.3-1.3-0.7-1.9-1.1c-3.5-2.2-6.5-5.4-8.6-9.7c-1-2.1-1.7-4.4-2-6.7c1.7-0.3,3.5-0.5,5.4-0.5c0.6,0,1.1,0,1.6,0.1   c-2.3-0.4-4.7-0.6-7.1-0.7c-0.1-0.8-0.1-1.5-0.2-2.3c2.5-2.3,4.9-4.9,7.2-7.5c-2.4,0.6-4.7,1.1-6.7,1.5c-0.9,0.2-1.7,0.4-2.4,0.5   c-0.1,0-0.1,0-0.2,0c-1.2,0.3-2.3,0.5-3.4,0.8c-11,3-16.8,8.3-24.8,14.7c-0.5,0.4-1,0.8-1.5,1.2c-7.9,6.1-18.3,13.1-37.8,19.8   c-0.6,0.2-1.1,0.4-1.7,0.6c-0.2,0.1-0.4,0.1-0.6,0.2c-0.9,0.3-1.8,0.5-2.8,0.8c-2,0.5-4.1,1-6.4,1.5c-5.4,6.2-11,12.1-17.5,17.2   c-1.5,0.9-2.9,1.9-4.2,3.1c-3.1,2.2-6.4,4.1-9.9,5.9c-5.1,2.5-10.6,4.1-16.1,4.5c1.7-10.4,6.6-19.6,13.5-26.3   c-6.7,0.5-13.7,0.9-20.8,1.3c-4.9,5.4-8.6,12.2-10.6,19.8c-1.4-1.2-2.7-2.6-3.9-4.1c-1.4-1.7-2.5-3.6-3.4-5.5   c5.4-2.8,10.3-6.2,14.8-10.1c-2.8,0.1-5.5,0.2-8.3,0.3c-2.6,2-5.3,3.9-8.1,5.6c-0.6-1.7-1-3.5-1.3-5.4c-1.7,0-3.5,0.1-5.2,0.1   c-10.2,0.2-20.5,0.2-30.2,0.2c-2,0-4,0-6,0l-0.7,3.7l-0.6,3l-2.3,11.3c-3.9,0-7.5,0-10.5,0c-15.8,0-29.8,8.2-38.8,21l8.5-42.6   c-1.9-0.8-3.7-1.8-5.4-2.9l-13.8,69.1c-0.5,2.4-0.3,4.8,0.6,6.9c0,0.8-0.1,1.5-0.1,2.3c0,29.7,21.9,53.9,49,53.9   c4,0,12.6,0.9,19,0.7c-23.6-2-42.5-22.3-45-48.1c-0.1-1.3-0.2-2.6-0.2-3.9c0-0.5,0-1.1,0-1.6c0-24.9,15.4-45.8,36.2-52l-6.5,32.4   c-2.9,3.4-5,7.6-6.1,12.2c-0.3,1.4-0.6,2.8-0.7,4.3c-0.1,1-0.1,2-0.1,3.1c0,15.9,11.7,28.8,26.2,28.8c12.2,0,22.4-9.2,25.4-21.6   l0.7-0.3l22.9-8.7l8.7-3.3c6.9,5.9,15.4,9.3,24.7,9.3c3.3,0,10.5,0.7,15.8,0.6c-10.8-0.9-20.4-6.5-27.2-15l21.5-8.2   c2.7,1.4,5.7,2.1,8.9,2.1c8.3,0,15.5-5.2,19.2-12.8l2.1-0.8l19.3-7.4l13.9-5.3c6.1,7.5,14.7,12.2,24.1,12.2c2.8,0,8.7,0.7,13,0.5   c-10.4-0.9-19.5-7.6-25.1-17.3l16.3-6.2c3.1,3,7.1,4.9,11.4,4.9c8.3,0,15.2-6.7,17.3-15.8l0.6-0.2l15.8-6l9.2-3.5   c5.5,6.4,13,10.4,21.3,10.4c2.5,0,7.9,0.6,11.8,0.5c-9.2-0.8-17.2-6.5-22.4-15l15.1-5.8c2.7,2.4,6,3.8,9.6,3.8   c7.2,0,13.3-5.6,15.5-13.3l0.7-0.3l9.6-3.6c1.6-0.6,3.2-1.4,4.8-2.1c7.2-3.6,13.6-8.7,18.7-15h0   C500.4,389.1,501.4,382.4,499.2,376.5z M457.8,408.3c-1.1,3.6-4.2,6.1-7.8,6.1c-0.2,0-0.4,0-0.6,0c-4.3-0.3-7.7-4.3-7.7-9.1   c0-4.8,3.4-8.8,7.7-9.1c0.2,0,0.4,0,0.6,0c0.2,0,0.3,0,0.5,0c4.4,0.3,7.8,4.2,7.8,9.1C458.2,406.4,458.1,407.4,457.8,408.3z    M197.9,499.2c0,5.4-3.2,10-7.7,11.6c-1.1,0.4-2.2,0.6-3.5,0.6c-0.3,0-0.5,0-0.8,0c-5.8-0.4-10.4-5.7-10.4-12.2   c0-1.8,0.3-3.4,1-4.9c0.5-1.3,1.3-2.5,2.2-3.5c0.9-1,2-1.9,3.2-2.5c0.8-0.4,1.6-0.8,2.5-1c0.7-0.2,1.5-0.3,2.3-0.3   c0.2,0,0.4,0,0.6,0c1.6,0.1,3.2,0.6,4.6,1.4c0,0,0.1,0,0.1,0.1c3.3,2,5.6,5.7,5.8,10.1C197.9,498.7,197.9,498.9,197.9,499.2z    M287.8,473.5c-0.8,0.2-1.5,0.3-2.3,0.3c-0.2,0-0.5,0-0.7,0c-5.2-0.4-9.3-5.1-9.3-11c0-2.8,1-5.3,2.5-7.3c0.7-0.9,1.5-1.6,2.4-2.2   c1.5-1,3.3-1.6,5.1-1.6c0.2,0,0.4,0,0.6,0c0.4,0,0.8,0.1,1.2,0.2c3,0.6,5.5,2.7,7,5.5c0.4,0.7,0.7,1.5,0.9,2.4   c0.2,0.9,0.4,1.9,0.4,2.9C295.5,468,292.2,472.4,287.8,473.5z M380.4,435.8c-1.5,2.6-4.1,4.3-7.1,4.3c-0.2,0-0.4,0-0.6,0   c-4.3-0.3-7.7-4.3-7.7-9.1c0-2.6,1-5,2.6-6.6c1.5-1.5,3.5-2.5,5.7-2.5c0.2,0,0.3,0,0.5,0c4.4,0.3,7.8,4.2,7.8,9.1   C381.6,432.7,381.1,434.4,380.4,435.8z M173.3,527.2c-1.6,0-3.2-0.3-4.7-0.7c1.3-0.1,2.5-0.3,3.7-0.8l14.2-5.4   C183.4,524.5,178.7,527.2,173.3,527.2z M368.8,452.5c-1.1,0-2.1-0.2-3.1-0.5l12.1-4.6C375.7,450.5,372.5,452.5,368.8,452.5z    M447.1,421.6c-0.4,0-0.9,0-1.3-0.1l8.5-3.2C452.4,420.3,449.9,421.6,447.1,421.6z M100.2,370.4c3.5-4.5,8.6-11.1,15.5-19.2   c0.7,0,1.5,0.1,2.3,0.2c0.2,0,0.4,0,0.6,0.1c0.7,0.1,1.4,0.1,2.1,0.2c0.1,0,0.2,0,0.4,0c0.8,0.1,1.6,0.2,2.5,0.3   c0.2,0,0.4,0.1,0.6,0.1c0.7,0.1,1.4,0.2,2.1,0.3c0.2,0,0.4,0.1,0.6,0.1c0.9,0.1,1.7,0.3,2.6,0.5c0.2,0,0.4,0.1,0.6,0.1   c0.7,0.1,1.4,0.3,2.2,0.4c0.2,0,0.5,0.1,0.7,0.1c0.9,0.2,1.8,0.4,2.7,0.6c0.1,0,0.3,0.1,0.4,0.1c0.8,0.2,1.6,0.4,2.4,0.6   c0.2,0.1,0.5,0.1,0.7,0.2c0.9,0.2,1.8,0.4,2.8,0.7h0c0.9,0.2,1.9,0.5,2.8,0.7c0.2,0.1,0.5,0.1,0.7,0.2c0.8,0.2,1.6,0.4,2.4,0.7   c0.1,0,0.3,0.1,0.4,0.1c0.9,0.3,1.8,0.5,2.7,0.8c0.2,0.1,0.5,0.1,0.7,0.2c0.7,0.2,1.5,0.4,2.2,0.6c0.2,0.1,0.4,0.1,0.6,0.2   c0.9,0.3,1.8,0.5,2.7,0.8c0.2,0.1,0.4,0.1,0.6,0.2c0.7,0.2,1.4,0.4,2.1,0.7c0.2,0.1,0.5,0.1,0.7,0.2c0.9,0.3,1.7,0.5,2.6,0.8   c0.1,0,0.3,0.1,0.4,0.1c0.7,0.2,1.4,0.5,2.2,0.7c0.2,0.1,0.5,0.1,0.7,0.2c1.7,0.5,3.3,1.1,4.8,1.6c0.2,0.1,0.4,0.1,0.6,0.2   c0.7,0.2,1.3,0.4,1.9,0.7c0.1,0,0.2,0.1,0.4,0.1c0.7,0.2,1.4,0.5,2.1,0.7c0.2,0.1,0.4,0.1,0.6,0.2c0.6,0.2,1.1,0.4,1.6,0.6   c0.1,0,0.3,0.1,0.4,0.1c0.1,0,0.1,0.1,0.2,0.1c10,3.5,5.3,18.9-4.9,15.9c-1.8-0.5-3.8-1.5-6-2.9   C153.9,371.2,116.3,369.4,100.2,370.4z M189,76.8c1.9,4.7,7,17.3,12.4,31c16.2-2.7,53.7-7.6,85.4-1.9c6.5,1.2,12.9,2,19.1,2.5   c-2,1.2-3.7,3.3-5,6c-2.8,5.6-3.9,13.9-1.9,23.4c0.6,3,1.4,5.6,2.3,7.8c1.2,3,2.6,5.2,4.2,6.9c-10.6-1-26.8-2.8-42.4-3.9   c-21-1.6-41.1-2-45.5,1.9c-0.1,0.1-0.2,0.2-0.3,0.3c0.5,1.7,0.7,2.9,0.7,3.6c0,3.2-0.9,6.7-1,10.8c-0.1,4.6,0.8,9.8,5.1,16.2   c8.1,12.2,8.1,27,6.8,39.2c-0.5,4.4-4.7,12.8-10.6,22.8c25.6-1.3,73.1-1.4,115.2,11.5c61.4,18.8,60.1,45.1,76.4,41.3   c16.3-3.8,32.4-97.3,32.4-97.3c-4.1-14.9-27-124.3-27-124.3s-0.2-0.1-0.7-0.3c-6.4-2.5-55.1-20.8-80.3-13.2   c-13.7,4.1-25.3-3.2-36.2-11.4c-10.7-8-20.7-16.9-31.4-16.9c-21.6,0-86.4,10.8-78.3,41.9C188.2,74.8,188.4,75.5,189,76.8z    M365.1,146.7c3-9.9,0.9-29.5-1.7-32c-0.9-0.9-2.5-1.4-4.3-1.7c-4.2-0.6-9.8,0.1-12-0.8c-0.9-0.3-1.5-1-2.1-1.7   c-0.5-0.7-1-1.3-1.7-1.8c17.2-1.2,31.3-4,40.3-6.1c17.5-4.2,31.7,12.5,23.6,30.9c-0.9,2.1-2.9,3.9-5.7,5.4   c-3.1,4-19.3,7.8-37.6,10.5C364.4,148.7,364.8,147.8,365.1,146.7z M320.8,248.1c-4.2-1.2-6.6-5.6-5.3-9.8c1.3-3.9,2.6-8.7,3-12.9   c0.8-8.8-1.7-42.2-3.8-49.3c-0.6-2-0.8-4-0.7-5.8c0.1-5,5.1-8.6,9.8-6.8c0,0,0.1,0,0.1,0.1c4.2,1.7,18.8-2.5,18.8-2.5   s-11.7,5.8-15.9,6.3c0,0-5,6.3-5.4,10c-0.4,3.8,5.8,45.1,4.2,56.8c-1.7,11.7,3.8,16.3,3.8,16.3L320.8,248.1z M368.3,218.8   c-3.1,8.3-7.5,17.7-12.4,20.3c-1.1,0.6-2.2,1-3.4,1.2c-8.9,2-18.9-4.7-16.7-12.5c2.5-8.8-2.5-29.4-3.8-35.1   c-1.2-5.3,3.2-13.4,11.5-13.3c0.5,0,1.1,0,1.6,0.1c4.9,0.7,12.3,7.5,18.1,13.9C369.6,200.3,371.6,210.1,368.3,218.8z M410.4,198.1   c-1.8,6.6-4.6,14.2-8.2,16.6c-0.8,0.5-1.6,0.9-2.5,1.2c-6.7,2.2-15-2.3-13.8-8.5c1.3-7-4-22.6-5.4-26.8c-1.3-4,1.5-10.6,8-11.1   c0.4,0,0.8,0,1.3,0c3.9,0.2,10,4.9,15,9.4C410.2,183.8,412.3,191.2,410.4,198.1z M436.7,201.6c0.8,8.4-19.2,57.6-19.2,57.6   s10-29.2,10.4-50.9c0.4-21.7-15.4-106.5-19.2-114c-3.8-7.5-18-11.3-18-11.3s18.8-3.3,22.5,0C417.1,86.3,435.8,193.2,436.7,201.6z    M186.8,492.6c-1.1,0-2.2,0.4-3.1,1c-1.7,1.1-2.9,3.2-2.9,5.6c0,3.6,2.7,6.5,6,6.5c1.2,0,2.3-0.4,3.2-1.1c1.6-1.2,2.7-3.2,2.7-5.5   C192.7,495.5,190.1,492.6,186.8,492.6z M189.4,502.3c-0.7,0.7-1.6,1.2-2.6,1.2c-2.1,0-3.9-1.9-3.9-4.3c0-1.8,1-3.4,2.5-4   c0.4-0.2,0.9-0.3,1.4-0.3c2.1,0,3.9,1.9,3.9,4.3C190.7,500.4,190.2,501.5,189.4,502.3z M285.5,456.9c-0.2,0-0.4,0-0.6,0.1   c-2.7,0.3-4.7,2.8-4.7,5.8c0,3.2,2.4,5.9,5.4,5.9c1.2,0,2.3-0.5,3.3-1.2c1.3-1.1,2.1-2.7,2.1-4.6   C290.8,459.6,288.4,456.9,285.5,456.9z M288.5,464.8c-0.6,1.1-1.7,1.9-3,1.9c-1.9,0-3.5-1.7-3.5-3.8s1.6-3.8,3.5-3.8   c0.3,0,0.6,0.1,0.9,0.2c1.5,0.4,2.6,1.9,2.6,3.7C289,463.5,288.8,464.2,288.5,464.8z M375.5,426.7c-0.6-0.4-1.4-0.6-2.2-0.6   c-2.5,0-4.4,2.2-4.4,4.9c0,2.7,2,4.9,4.4,4.9s4.4-2.2,4.4-4.9c0-1-0.3-2-0.8-2.8C376.6,427.6,376.1,427.1,375.5,426.7z    M373.3,434.2c-1.6,0-2.9-1.4-2.9-3.2c0-1.8,1.3-3.2,2.9-3.2c1.6,0,2.9,1.4,2.9,3.2C376.2,432.7,374.9,434.2,373.3,434.2z    M449.9,400.4c-2.5,0-4.4,2.2-4.4,4.9s2,4.9,4.4,4.9c2.5,0,4.4-2.2,4.4-4.9S452.4,400.4,449.9,400.4z M449.9,408.5   c-1.6,0-2.9-1.4-2.9-3.2c0-1.8,1.3-3.2,2.9-3.2c1.6,0,2.9,1.4,2.9,3.2C452.8,407.1,451.5,408.5,449.9,408.5z" originalFill="#FFF200"/>
	<path fill="rgba(26, 116, 173, 1)" d="M477.7,409c-0.1,20.2-13.7,36.5-30.5,36.5c-0.8,0-1.6,0-2.3-0.1c-9.2-0.8-17.2-6.5-22.4-15l15.1-5.8   c2.7,2.4,6,3.8,9.6,3.8c7.2,0,13.3-5.6,15.5-13.3l0.7-0.3l9.6-3.6C474.5,410.5,476.1,409.8,477.7,409z M386.7,444l-0.6,0.2   c-2.1,9.1-9.1,15.8-17.3,15.8c-4.3,0-8.3-1.8-11.4-4.9l-16.3,6.2c5.6,9.8,14.7,16.4,25.1,17.3c0.9,0.1,1.7,0.1,2.6,0.1   c18.6,0,33.7-18.1,33.7-40.5c0-0.1,0-0.3,0-0.4L386.7,444z M370.5,398c-0.5,0-1.1-0.1-1.6-0.1c-1.8,0-3.6,0.2-5.4,0.5   c0.3,2.3,1,4.6,2,6.7c2.1,4.4,5.1,7.6,8.6,9.7c0.6,0.4,1.3,0.7,1.9,1.1c1.6,0.3,3.2,0.4,4.8,0.4c1.7,0,3.4-0.2,5.2-0.6   c2-0.4,4-1,5.9-1.8c1-0.4,2-0.9,2.9-1.4c-0.3-0.4-0.6-0.8-0.9-1.3c-0.8-1.1-1.6-2.1-2.5-3.1C385.8,402.3,378.5,398.4,370.5,398z    M293.7,479.5c-3.7,7.6-10.9,12.8-19.2,12.8c-3.2,0-6.2-0.8-8.9-2.1l-21.5,8.2c6.8,8.5,16.4,14.1,27.2,15c1,0.1,2.1,0.1,3.1,0.1   c21.5,0,39.1-18.6,40.6-42.2l-19.3,7.4L293.7,479.5z M260.5,449.3c1.3-1.2,2.7-2.2,4.2-3.1c6.4-5,12.1-10.9,17.5-17.2   c-9.4,1.9-21.2,3.3-34.2,4.3c-6.9,6.6-11.8,15.8-13.5,26.3c5.5-0.4,11-2,16.1-4.5C254.1,453.4,257.3,451.4,260.5,449.3z    M199.4,515.4l-0.7,0.3c-2.9,12.4-13.2,21.6-25.4,21.6c-14.5,0-26.2-12.9-26.2-28.8c0-1,0.1-2.1,0.1-3.1c0.1-1.5,0.4-2.9,0.7-4.3   c1.1-4.6,3.2-8.8,6.1-12.2l6.5-32.4c-20.9,6.2-36.2,27.1-36.2,52c0,0.6,0,1.1,0,1.6c0,1.3,0.1,2.6,0.2,3.9   c2.4,25.8,21.4,46.1,45,48.1c1.2,0.1,2.5,0.2,3.7,0.2c27,0,49-24.1,49-53.9c0-0.6,0-1.2,0-1.7L199.4,515.4z M201.6,161.5   c-0.3,0-0.6-0.1-0.9-0.1c2.7,2.1,7.5,3.9,16.2,3.9c0.1-4.1,1-7.6,1-10.8c0-0.6-0.3-1.9-0.7-3.6C209.1,158.3,209,161.5,201.6,161.5z    M338.4,359c-6-0.5-12.8,3-19.6,7.6c-3,2.1-6.1,4.4-9,6.7c-8.4,6.6-16.2,13.3-21.5,14.5c-5,1.1-13,1.2-22.5-1   c-1.9-0.4-3.9-1-5.9-1.6c-10.4-3.3-22-9.5-33-19.9c-18.7-17.7-67.7-31.6-87.7-36.7c14.9-10,30.4-15,42.3-30.8   c4.5-6,10-13.6,15.6-21.8c7.4-0.9,19.5-2.2,38.6-3.4c38.8-2.5,126.5,26.3,131.5,46.3C372.2,338.9,354.6,360.2,338.4,359z    M304.5,355.2c-2.7-4.2-19.5-14.7-28.6-20c-1.1-0.7-2.4-1.1-3.7-1.2c-0.5,0.3-0.9,0.6-1.3,0.9l-10,8.8c-2.9,2.6-6.1,4.7-9.6,6.3   c-6.3,2.9-11.5,5.4-3.1,12.7c5.2,4.4,13.5,9.2,21.6,12.4c1.9,0.7,3.8,1.4,5.6,1.9c3.5,1,6.8,1.6,9.5,1.6c0.4-0.3,0.8-0.6,1.1-0.9   c1.4-1.6,3.2-3.2,5.2-5c1.7-1.4,3.4-2.9,5.1-4.4C302,363.6,306.8,358.7,304.5,355.2z M274.2,333.1c-0.6,0.2-1.3,0.5-1.9,0.8   C272.9,333.6,273.6,333.4,274.2,333.1z M334.2,345c-0.2-2.3-46.8-28.2-49.5-29.2c-2.7-1-14.4,9-14.4,9s9.2-6.7,14.8-4.6   c5.6,2.1,37,22.1,40.3,25.5c3.3,3.3-1.5,9-1.5,9S334.4,347.3,334.2,345z M346.4,339.9c-0.7,0.4-1.4,0.7-2.2,0.9   C345,340.6,345.7,340.3,346.4,339.9z M350.9,323.5c-3.1-6.2-36.9-24.1-45.6-26.8c-5.3,3.3-12.4,11.3-13.1,16.8c0,0,33,18,43.4,25.9   c1.6,1.2,3.3,1.8,4.9,1.9C347.6,337.8,353.1,328,350.9,323.5z M453.6,303.9c-3.8,13.8-2.5,28.8-2.5,28.8s12.6-3.8,23.1-7.8   c0.3-20.4-0.8-45.3-2.8-61.6C464.5,277.2,455.8,295.8,453.6,303.9z M190.8,115.6c0,0,4.8-1,12.7-2.2c18-2.7,51.8-6.4,80.8-1.1   c5.6,1,11.1,1.8,16.5,2.3c1.3-2.7,3.1-4.8,5-6c-6.2-0.5-12.6-1.4-19.1-2.5c-31.7-5.7-69.3-0.8-85.4,1.9c-5.1,0.8-8.1,1.5-8.1,1.5   c-4.9,2.7-7.3,6.7-8,11.1C186.6,118.6,188.3,116.9,190.8,115.6z M345.1,110.5c0.5,0.7,1.2,1.4,2.1,1.7c2.2,0.9,7.8,0.2,12,0.8   c9-1.3,16.5-2.9,22-4.2c17.5-4.2,26.7,10,20.9,29.2c-0.1,0.3-0.2,0.6-0.4,0.8c2.8-1.5,4.8-3.3,5.7-5.4c8.1-18.4-6.1-35.1-23.6-30.9   c-8.9,2.1-23,4.9-40.3,6.1C344,109.3,344.6,109.8,345.1,110.5z M452.2,224.9c5,3.7,12.9,25,13.3,30c0.4,5-1.2,8.3-1.2,8.3   s9.6-8.3,7.9-14.2c-1.7-5.8-17.1-37-22.1-39.5c-5-2.5-5.8,16.6-5.8,16.6S447.2,221.1,452.2,224.9z M329.8,261.9   c0.1,0.1,0.2,0.2,0.3,0.3C330.1,262.2,330,262.1,329.8,261.9z M306.7,281.2c2.4-1,8.8-11.2,14.6-17c4.8-4.8,7.6-3,8.5-2.3   c-5.4-6-15.8-6-18.2-2.1c-2.4,3.9-15.1,20-15.1,20S304.3,282.2,306.7,281.2z M206.5,374.7c-9.5,10.8-12.7,31.8-11.9,41.7   c0.1,1.2,0.3,2.3,0.5,3.2c0.1,0.3,0.2,0.6,0.3,0.9c0.7,1.8,2.3,3.2,4.3,4.3c1.7,1,3.7,1.7,5.7,2.3c3.9,1.2,7.5,1.7,7.5,1.7   s-3.9-1.8-7.6-6.3c-1.1-1.3-2.1-2.7-3.1-4.4c0-0.1-0.1-0.1-0.1-0.2c-4.2-8,1.6-32.5,8.4-40.7c6.8-8.3,17.5-4.4,17.5-4.4   S217.7,362,206.5,374.7z M425.9,342.2c-1.1,3.5-2.6,6.6-4.4,9.3c-0.2,0.3-0.4,0.6-0.7,0.9c-4.1,5.6-9.5,8.6-14.1,7.1   c-1-0.3-1.9-0.8-2.7-1.5c-2.3-1.8-3.8-4.9-4.5-8.6c-0.2-0.8-0.3-1.7-0.3-2.6c-0.3-3.8,0.2-8.1,1.5-12.4   c3.3-10.8,10.8-18.2,17.4-17.6c0.6,0,1.2,0.1,1.7,0.3C426.9,319.2,429.5,330.4,425.9,342.2z M408.9,324.3   c-4.4,4.6-3.6,10.1,0.1,4.3c3.7-5.8,7.8-5.8,7.8-5.8C418.4,320.4,413.4,319.7,408.9,324.3z" originalFill="#003D6B"/>
	<path opacity="0.2" d="M499.2,376.5c-2.3-6-7.6-10.2-13.9-11.2c-0.6-0.1-1.3-0.2-1.9-0.2c-6.5-0.3-14.3-1.1-19.2-3   c-3.3,1.3-7.9,2.8-13.4,4.4c-1.6,0.5-3.3,1-5,1.5c-1.4,0.4-2.8,0.8-4.3,1.3c-0.5,0.7-1.1,1.5-1.6,2.2c-0.5,0.7-1.1,1.4-1.6,2.2   c-3.1,4.2-6.1,8.4-9.2,12.5c-2.7,3.7-5.5,7.3-8.4,10.9c-1.1,1.4-2.2,2.7-3.4,4c-0.7,0.8-1.4,1.5-2.1,2.3c-3.7,3.8-7.8,7.3-12.5,10   c-1.7,1-3.4,1.8-5.2,2.6c-0.2,0.1-0.4,0.1-0.6,0.2c-3.5,1.4-7.1,2.1-10.6,2.2c-2.6,0-5.1-0.4-7.5-1.1c-1-0.3-1.9-0.7-2.9-1.2   c-0.6-0.3-1.3-0.7-1.9-1.1c-3.5-2.2-6.5-5.4-8.6-9.7c-1-2.1-1.7-4.4-2-6.7c-0.1-0.4-0.1-0.7-0.1-1.1c2.4,0.1,4.8,0.3,7.1,0.7   c8,0.5,15.3,4.3,20.9,10.3c0.9,1,1.7,2,2.5,3.1l7.6-2.9c0.3-0.2,0.6-0.5,0.9-0.7c2.5-1.9,4.9-4.1,7.1-6.4   c5.1-5.2,9.5-11.2,13.9-17.1c3.1-4.2,6.2-8.4,9.2-12.6c-4.3,1.2-8.8,2.4-13.3,3.6c-17.4,4.6-35.9,9.2-49,12.2   c-2.4,0.6-4.7,1.1-6.7,1.5c-0.9,0.2-1.7,0.4-2.4,0.5c-0.1,0-0.1,0-0.2,0c-1.2,0.3-2.3,0.5-3.4,0.8c-11,3-16.8,8.3-24.8,14.7   c-0.5,0.4-1,0.8-1.5,1.2c-7.9,6.1-18.3,13.1-37.8,19.8c-0.6,0.2-1.1,0.4-1.7,0.6c-0.2,0.1-0.4,0.1-0.6,0.2c-0.5,0.7-1.1,1.3-1.7,2   c-4.4,5.2-9,10.3-14,14.8c-1.9,1.7-3.8,3.4-5.8,4.9c-2.7,2.1-5.5,4-8.4,5.7c-1.7,1-3.4,1.9-5.1,2.8c-0.5,0.2-1,0.5-1.4,0.7   c-6.5,2.9-13.7,4.4-20.6,3.8c-3.7-0.3-7.3-1.1-10.6-2.6c-2.5-1.1-4.9-2.6-7.1-4.5c2-7.6,5.7-14.4,10.6-19.8c-1.1,0-2.1,0.1-3.2,0.1   c-2.8,0.1-5.5,0.2-8.3,0.3c-2.6,2-5.3,3.9-8.1,5.6c-0.6-1.7-1-3.5-1.3-5.4c-1.7,0-3.5,0.1-5.2,0.1c-1.4,0-2.8,0.1-4.2,0.1   c-2.5-3.7-4.6-7.8-6.1-12.3c-0.3-0.8-0.5-1.6-0.7-2.5c-0.3-1-0.5-2.1-0.7-3.1c-3-15.3,1-32.1,9.2-45.1c4-6.4,9-12,14.5-17.1   c0,0,0,0,0,0c0.5,0.3,1.1,0.6,1.6,0.9c0,0,0,0,0,0c19-15,40.3-27.3,56.6-45.6c8.2-9.2,15.1-19.4,20.7-30.2c0,0,0,0,0,0   c5-10.5,9-21.4,13-32.3c0,0,0,0,0,0c-0.3,0-0.5-0.1-0.8-0.1c1.1-4.3,2-8.6,2.7-12.9c4.4-27.1,1.4-55.4-3.1-82.7   c-10.6-1-26-2.7-40.8-3.8c-21-1.6-41.1-2-45.5,1.9c-0.1,0.1-0.2,0.2-0.3,0.3c-0.1,0.1-0.3,0.3-0.4,0.4c0.6,2,1,3.6,1.1,4.5   c0,0.2,0,0.4,0,0.6c0,2.7-0.7,5.6-0.9,8.9c0,0.5-0.1,1-0.1,1.5c-0.1,4.5,0.7,9.7,5.1,16c5.6,8.2,7.3,17.6,7.4,26.5   c0.1,4.1-0.2,8.1-0.7,11.9c-0.5,4.3-4.7,12.5-10.5,22.3c0,0,0,0-0.1,0c-1.2,0.1-2.2,0.3-3.2,0.6c-1,0.3-1.8,0.7-2.6,1.1   c-0.8,0.4-1.5,1-2.1,1.5c-0.3,0.3-0.6,0.6-0.9,0.9c-0.6,0.6-1.1,1.3-1.6,2c-0.2,0.4-0.5,0.7-0.7,1.1c-0.5,0.7-0.9,1.5-1.3,2.2   c-0.9,1.5-1.7,3.1-2.6,4.5c-0.3,0.5-0.7,1-1.1,1.6c-0.4,0.6-0.8,1.2-1.2,1.8c-0.4,0.6-0.8,1.3-1.3,2c-0.4,0.7-0.8,1.4-1.2,2.1   c-0.3,0.5-0.5,0.9-0.8,1.4c-0.2,0.4-0.4,0.7-0.5,1c-0.5,1-0.9,2.1-1.2,3c-0.3,0.8-0.4,1.6-0.5,2.3c0,0.4,0,0.7,0.1,1   c0.2,0.9,0.7,1.6,1.7,2c-5.7,8.2-11.2,15.8-15.6,21.8c-11.9,15.8-27.4,20.8-42.3,30.8c-10-0.9-16.8,5.9-21.9,11.7   c-2.8,3.1-5.6,8.1-1.6,11c-6.9,8.2-12.1,14.7-15.5,19.2c-3.5,4.5-5.2,7-5.2,7l3,24.8c1.2,9.8,6.1,18.4,13.2,24.3   c1.2,1,2.5,1.9,3.8,2.8c1.7,1.1,3.5,2.1,5.4,2.9c1.7,0.7,3.5,1.4,5.4,1.8c-1.9-0.5-3.7-1.1-5.4-1.8c-1.9-0.8-3.7-1.8-5.4-2.9   l-13.8,69.1c-0.5,2.4-0.3,4.8,0.6,6.9c0.4-11.5,4.2-22,10.2-30.6c9-12.7,23-21,38.8-21c3,0,6.7-0.1,10.5,0l2.3-11.3l0.6-3   c-0.1-0.1-0.2-0.2-0.3-0.3c-0.9-1.1-1.6-2.3-2.3-3.4c-0.5,0-1,0-1.6,0c0.5,0,1,0,1.6,0c1.1,0,2.2,0,3.4,0c0.8,0,1.5,0,2.3,0   c0.2,0,0.5,0,0.7,0c1,0,2,0,3,0c1.5,0,3,0,4.5,0c-1.5,0-3,0-4.5,0l-1.7,8.6l-0.3,1.3l-1.7,8.3l-0.2,1.2l-5.6,27.8l-1.4,6.9   l-1.5,7.3l-0.7,3.7l-0.1,0.7l-1.3,6.7l-0.7,3.3c-0.8,3.8,0.3,7.7,2.7,10.6c0.9,1,1.8,1.8,2.9,2.5c-1.7-0.1-3.4-0.6-4.9-1.5   c4,5.5,10.1,9.1,17,9.1c8.9,0,16.6-6,19.9-14.5l5.4-2.1l0.7-0.3l22.9-8.7l8.7-3.3l13.3-5.1l21.5-8.2l6.2-2.4   c0.9,0.1,1.7,0.2,2.7,0.2c5.1,0,9.7-2.4,13-6.2l6.2-2.4l2.1-0.8l19.3-7.4l13.9-5.3l12-4.6l16.3-6.2l3.8-1.4   c2.2,1.6,4.8,2.5,7.6,2.5c6.1,0,11.3-4.4,13.6-10.6l3.7-1.4l0.6-0.2l15.8-6l9.2-3.5c5.5,6.4,13,10.4,21.3,10.4   c2.5,0,7.9,0.6,11.8,0.5c-9.2-0.8-17.2-6.5-22.4-15l15.1-5.8l3.6-1.4c1.8,1.1,3.9,1.7,6,1.7c5.1,0,9.6-3.5,11.9-8.6l3.6-1.4   l0.7-0.3l9.6-3.6c1.6-0.6,3.2-1.4,4.8-2.1c7.2-3.6,13.6-8.7,18.7-15h0C500.4,389.1,501.4,382.4,499.2,376.5z M127.8,434.5   c2.1,0.4,4.2,0.6,6.4,0.7C132,435.1,129.9,434.9,127.8,434.5z M170.7,496.5c0.3-1.8,1-3.4,2-4.8c0.5-0.7,1-1.4,1.6-1.9   c2-1.9,4.5-3,7.3-3c0.1,0,0.3,0,0.5,0c1,0,2.2,0,3.5,0c0.6,0,1.3,0.1,1.9,0.2c-0.2,0-0.4,0-0.6,0c-0.8,0-1.6,0.1-2.3,0.3   c-0.3,0.1-0.7,0.2-1,0.3c-0.5,0.2-1.1,0.4-1.5,0.7c-1.2,0.6-2.3,1.5-3.2,2.5c-0.9,1-1.6,2.2-2.2,3.5c-0.6,1.5-1,3.2-1,4.9   c0,6.5,4.6,11.8,10.4,12.2c-1.5,0.1-3.5-0.1-4.4-0.1c-6.1,0-11.1-5.5-11.1-12.2C170.5,498.1,170.6,497.3,170.7,496.5z M173.3,527.2   c-1.6,0-3.2-0.3-4.7-0.7c1.3-0.1,2.5-0.3,3.7-0.8l14.2-5.4C183.4,524.5,178.7,527.2,173.3,527.2z M190,504.6   c-0.9,0.7-2,1.1-3.2,1.1c-3.3,0-6-2.9-6-6.5c0-2.4,1.2-4.4,2.9-5.6c0.9-0.6,1.9-1,3.1-1c1.4,0,2.7,0.6,3.8,1.5c1,0.9,1.7,2.1,2,3.5   c0.1,0.5,0.2,1,0.2,1.5C192.7,501.5,191.7,503.5,190,504.6z M280.8,473.7c-5.5,0-10-4.9-10-11c0-1.7,0.4-3.3,1-4.7   c1.1-2.6,3.1-4.6,5.6-5.6c1.1-0.4,2.2-0.7,3.4-0.7c1.2,0,2.9-0.1,4.4,0.1c0.3,0,0.5,0.1,0.8,0.1c-0.2,0-0.4,0-0.6,0   c0,0-0.1,0-0.1,0c-1.8,0-3.5,0.6-5,1.6c-0.9,0.6-1.7,1.3-2.4,2.2c-1.6,1.9-2.5,4.5-2.5,7.3c0,5.8,4.1,10.6,9.3,11   C283.5,473.8,281.7,473.7,280.8,473.7z M288.7,467.5c-0.9,0.8-2,1.2-3.3,1.2c-3,0-5.4-2.6-5.4-5.9c0-3,2.1-5.5,4.7-5.8   c0.2,0,0.4-0.1,0.6-0.1c3,0,5.4,2.6,5.4,5.9C290.8,464.7,290,466.4,288.7,467.5z M375.5,426.7c0.6,0.4,1.1,0.9,1.5,1.5   c0.5,0.8,0.8,1.7,0.8,2.8c0,2.7-2,4.9-4.4,4.9s-4.4-2.2-4.4-4.9c0-2.7,2-4.9,4.4-4.9C374.1,426.1,374.8,426.3,375.5,426.7z    M361.1,430.8c0-1.4,0.3-2.7,0.8-3.9c1.3-3.1,4.2-5.3,7.5-5.3c1.2,0,2.9-0.1,4.3,0.2c-0.2,0-0.3,0-0.5,0c-2.2,0-4.2,1-5.7,2.5   c-1.6,1.7-2.6,4-2.6,6.6c0,4.8,3.4,8.8,7.7,9.1c-1.1,0-2.6-0.1-3.3-0.1C364.9,440,361.1,435.9,361.1,430.8z M368.8,452.5   c-1.1,0-2.1-0.2-3.1-0.5l12.1-4.6C375.7,450.5,372.5,452.5,368.8,452.5z M437.8,405.2c0-1.6,0.4-3,1-4.3c1.4-2.8,4-4.7,7-4.8   c0.1,0,0.2,0,0.3,0c0.6,0,1.5,0,2.3,0c0.7,0,1.4,0.1,2,0.2c-0.2,0-0.3,0-0.5,0c-0.2,0-0.4,0-0.6,0c-4.3,0.3-7.7,4.3-7.7,9.1   c0,4.8,3.4,8.8,7.7,9.1c-1.1,0-2.6-0.1-3.3-0.1C441.5,414.3,437.8,410.2,437.8,405.2z M447.1,421.6c-0.4,0-0.9,0-1.3-0.1l8.5-3.2   C452.4,420.3,449.9,421.6,447.1,421.6z M449.9,410.2c-2.5,0-4.4-2.2-4.4-4.9s2-4.9,4.4-4.9c2.5,0,4.4,2.2,4.4,4.9   S452.4,410.2,449.9,410.2z M137.8,435.3c2,0,4.2,0.1,6.3,0.1C141.9,435.3,139.8,435.3,137.8,435.3z M156.9,435.6   c-1.6,0-3.2,0-4.8-0.1C153.7,435.5,155.3,435.5,156.9,435.6c0.7,0,1.5,0,2.2,0C158.4,435.6,157.6,435.6,156.9,435.6z M294.2,107.2   c-2.5-0.4-4.9-0.7-7.4-1.2c-31.7-5.7-69.3-0.8-85.4,1.9c-0.1,0-0.2,0-0.3,0c-1.8-4.6-3.5-9.1-5-13.1c-0.1-0.3-0.1-0.6-0.2-0.8   C195.6,82.8,271.9,65.2,294.2,107.2z M188.2,74.8C180.1,43.8,244.9,33,266.5,33c0.6,0,1.2,0,1.8,0.1c0.1,0,0.2,0,0.3,0h0   c0.3,0,0.6,0.1,0.9,0.1c0.3,0,0.6,0.1,0.9,0.1c0.1,0,0.2,0,0.3,0.1c0.6,0.1,1.2,0.3,1.8,0.4c0,0,0.1,0,0.1,0l0,0   c0.1,0,0.2,0.1,0.3,0.1c0.5,0.1,0.9,0.3,1.4,0.5c0.1,0,0.2,0.1,0.3,0.1c0.6,0.2,1.1,0.5,1.7,0.7c0.1,0,0.2,0.1,0.3,0.1l0,0   c0.5,0.2,1,0.5,1.5,0.7c0.1,0,0.2,0.1,0.3,0.1c0.1,0,0.1,0.1,0.2,0.1l0,0c0.6,0.3,1.1,0.6,1.7,0.9l0,0c0.1,0,0.1,0.1,0.2,0.1   c0.4,0.2,0.8,0.5,1.2,0.7c0.2,0.1,0.3,0.2,0.5,0.3l0,0c0.1,0.1,0.2,0.1,0.3,0.2c0.2,0.1,0.3,0.2,0.5,0.3c0.4,0.3,0.8,0.5,1.2,0.8   c0,0,0,0,0,0c0.1,0,0.1,0.1,0.2,0.1c0,0,0,0,0,0c0.3,0.2,0.7,0.5,1,0.7c0.3,0.2,0.5,0.4,0.8,0.5c0,0,0.1,0.1,0.1,0.1   c0.6,0.4,1.2,0.9,1.8,1.3c0.1,0.1,0.2,0.1,0.2,0.2c0,0,0,0,0,0c0.5,0.4,1,0.8,1.5,1.1c0.1,0.1,0.2,0.1,0.3,0.2c0,0,0.1,0,0.1,0.1   c0,0,0,0,0,0c0,0,0,0,0,0c1.4,1.1,2.9,2.2,4.3,3.3c0.8,0.6,1.5,1.2,2.3,1.8c0.3,0.2,0.6,0.5,0.9,0.7c0,0,0,0,0.1,0c0,0,0,0,0,0   c0,0,0,0-0.1,0c6.6-0.6,12.7-0.6,15.4,1c15,8.8,37.6-3.1,60.1,1.9c21,4.7,38.2,15.3,41,21.8c0.5,0.2,0.7,0.3,0.7,0.3s0,0.1,0,0.1   c0,0.1,0.1,0.3,0.1,0.5c0,0.1,0,0.2,0.1,0.3c-0.2,0-0.4,0-0.6,0c-13.9-0.4-58.1-1.4-69.3,3.5c-8.8,3.8-24.8,7.7-37.3,7.7   c-6.5,0-12-1-15.2-3.5c0,0-0.1,0-0.1-0.1c-9.2-7.5-17.5-22.5-53.4-23.4C203.5,59.2,188.2,74.8,188.2,74.8z M317.7,158   c-3.4,0-8.2-0.7-12.3-5.3c-0.7-0.8-1.3-1.6-2-2.6c-0.8-1.2-1.5-2.7-2.2-4.3c-0.9-2.2-1.7-4.8-2.3-7.8c-0.1-0.6-0.2-1.2-0.3-1.7   c0-0.2-0.1-0.4-0.1-0.5c-0.1-0.4-0.1-0.8-0.2-1.2c0-0.2,0-0.4-0.1-0.6c0-0.4-0.1-0.7-0.1-1.1c0-0.2,0-0.4,0-0.6   c0-0.3-0.1-0.7-0.1-1c0-0.2,0-0.4,0-0.6c0-0.3,0-0.7,0-1c0-0.2,0-0.4,0-0.5c0-0.3,0-0.7,0-1c0-0.2,0-0.3,0-0.5c0-0.3,0-0.7,0-1   c0-0.1,0-0.3,0-0.4c0-0.4,0-0.7,0.1-1.1c0-0.1,0-0.3,0-0.4c0-0.4,0.1-0.7,0.1-1.1c0-0.1,0-0.2,0-0.3c0.1-0.4,0.1-0.7,0.2-1.1   c0-0.1,0-0.2,0-0.3c0.1-0.4,0.1-0.7,0.2-1.1c0-0.1,0-0.1,0-0.2c0-0.1,0-0.2,0.1-0.3c0.1-0.3,0.1-0.6,0.2-0.8c0-0.1,0-0.1,0-0.2   c0.1-0.4,0.2-0.7,0.3-1.1c0,0,0-0.1,0-0.1c0.1-0.4,0.2-0.7,0.4-1.1c0,0,0,0,0-0.1c0.1-0.4,0.3-0.7,0.4-1.1c0,0,0,0,0,0   c0.2-0.4,0.3-0.7,0.5-1.1l0,0c14.3,4.9,30.2,3.6,44.9,1.2c4.6-0.8,9.2-1.7,13.7-2.8h0l0,0c0.4,0.1,0.8,0.1,1.1,0.2c0,0,0.1,0,0.1,0   c0.3,0.1,0.6,0.2,0.9,0.3c0.1,0,0.1,0,0.2,0.1c0.3,0.1,0.5,0.2,0.7,0.3c0.1,0,0.1,0.1,0.2,0.1c0.3,0.2,0.5,0.4,0.7,0.6   c2.5,2.5,4.7,22.1,1.7,32c-0.3,1-0.7,1.9-1.1,2.7c-0.5,0.9-1.1,1.7-1.8,2.2C355.3,156.7,323.3,158,317.7,158z M186.8,504.6   c1.1,0,2.1-0.4,3-1.1c1.2-1,2-2.5,2-4.3c0-3-2.2-5.4-4.9-5.4c-0.8,0-1.5,0.2-2.2,0.6c-1.6,0.9-2.7,2.7-2.7,4.8   C181.9,502.2,184.1,504.6,186.8,504.6z M185.4,495.2c0.4-0.2,0.9-0.3,1.4-0.3c2.1,0,3.9,1.9,3.9,4.3c0,1.2-0.5,2.3-1.2,3.1   c-0.7,0.7-1.6,1.2-2.6,1.2c-2.1,0-3.9-1.9-3.9-4.3C182.9,497.3,183.9,495.8,185.4,495.2z M285.5,467.7c1.3,0,2.4-0.6,3.2-1.5   c0.8-0.9,1.2-2.1,1.2-3.4c0-2.6-1.9-4.7-4.3-4.8c-0.1,0-0.1,0-0.2,0c-2.4,0-4.4,2.2-4.4,4.9S283,467.7,285.5,467.7z M285.5,459   c0.3,0,0.6,0.1,0.9,0.2c1.5,0.4,2.6,1.9,2.6,3.7c0,0.7-0.2,1.4-0.5,1.9c-0.6,1.1-1.7,1.9-3,1.9c-1.9,0-3.5-1.7-3.5-3.8   S283.6,459,285.5,459z M373.3,435c2,0,3.7-1.8,3.7-4c0-2.2-1.6-4-3.7-4c-2,0-3.7,1.8-3.7,4C369.6,433.2,371.3,435,373.3,435z    M373.3,427.8c1.6,0,2.9,1.4,2.9,3.2c0,1.8-1.3,3.2-2.9,3.2c-1.6,0-2.9-1.4-2.9-3.2C370.4,429.2,371.7,427.8,373.3,427.8z    M449.9,409.4c2,0,3.7-1.8,3.7-4c0-2.2-1.6-4-3.7-4c-2,0-3.7,1.8-3.7,4C446.2,407.6,447.9,409.4,449.9,409.4z M449.9,402.1   c1.6,0,2.9,1.4,2.9,3.2c0,1.8-1.3,3.2-2.9,3.2c-1.6,0-2.9-1.4-2.9-3.2C447,403.6,448.3,402.1,449.9,402.1z M359,238.7   c-2,1.1-4.3,1.6-6.5,1.6c1.1-0.3,2.3-0.7,3.4-1.2c4.9-2.6,9.4-12,12.4-20.3c3.2-8.7,1.3-18.5-5-25.3c-5.9-6.4-13.2-13.2-18.1-13.9   c-0.6-0.1-1.1-0.1-1.6-0.1c1.4-0.4,3-0.5,4.7-0.3c4.9,0.7,12.3,7.5,18.1,13.9c6.3,6.8,8.2,16.6,5,25.3   C368.4,226.7,364,236.1,359,238.7z M410.4,198.1c1.9-7-0.3-14.4-5.6-19.2c-5-4.5-11.1-9.3-15-9.4c-0.4,0-0.9,0-1.3,0   c1.1-0.4,2.3-0.6,3.7-0.5c3.9,0.2,10,4.9,15,9.4c5.3,4.8,7.5,12.2,5.6,19.2c-1.8,6.6-4.6,14.2-8.2,16.6c-1.5,1-3.2,1.5-4.9,1.7   c0.9-0.3,1.7-0.7,2.5-1.2C405.9,212.3,408.6,204.8,410.4,198.1z M350.9,323.5c-3.1-6.2-36.9-24.1-45.6-26.8   c0.4-0.2,0.8-0.5,1.1-0.7c0,0,0,0,0.1,0c0.3-0.2,0.7-0.3,1-0.5c0.1,0,0.2-0.1,0.3-0.1c0.2-0.1,0.5-0.2,0.7-0.2   c0.3-0.1,0.6-0.1,0.9-0.1c1,0,3.7,1,7.3,2.6c1,0.5,2.1,1,3.3,1.5c0.6,0.3,1.2,0.6,1.8,0.9c1.2,0.6,2.5,1.2,3.8,1.9   c0.6,0.3,1.3,0.7,2,1c2,1,4,2.1,6,3.2c0.7,0.4,1.3,0.7,2,1.1c1.3,0.8,2.7,1.5,4,2.3c0.7,0.4,1.3,0.8,1.9,1.1   c1.3,0.8,2.5,1.5,3.7,2.3c0.6,0.4,1.2,0.7,1.7,1.1c1.7,1.1,3.2,2.2,4.6,3.2c2.7,2,4.6,3.7,5.2,5c0.1,0.2,0.2,0.4,0.2,0.6   c0,0.1,0,0.1,0.1,0.2c0,0.1,0.1,0.3,0.1,0.5c0,0.1,0,0.2,0,0.3c0,0.1,0,0.3,0,0.5c0,0.1,0,0.2,0,0.3c0,0.2,0,0.3,0,0.5   c0,0.1,0,0.2,0,0.3c0,0.2,0,0.4-0.1,0.6c0,0.1,0,0.1,0,0.2c0,0.3-0.1,0.5-0.2,0.8c0,0.1,0,0.1-0.1,0.2c-0.1,0.2-0.1,0.4-0.2,0.6   c0,0.1-0.1,0.2-0.1,0.3c-0.1,0.2-0.1,0.4-0.2,0.5c0,0.1-0.1,0.2-0.1,0.4c-0.1,0.2-0.1,0.3-0.2,0.5c-0.1,0.1-0.1,0.3-0.2,0.4   c-0.1,0.2-0.2,0.3-0.3,0.5c-0.1,0.1-0.1,0.3-0.2,0.4c-0.1,0.2-0.2,0.4-0.3,0.6c-0.1,0.2-0.2,0.3-0.3,0.5c-0.1,0.2-0.3,0.4-0.4,0.6   c-0.1,0.1-0.2,0.3-0.3,0.4c-0.1,0.1-0.2,0.3-0.3,0.4c-0.1,0.2-0.2,0.3-0.3,0.4c-0.1,0.1-0.2,0.3-0.3,0.4c-0.1,0.2-0.2,0.3-0.4,0.5   c-0.1,0.1-0.2,0.2-0.3,0.4c-0.1,0.2-0.3,0.3-0.4,0.5c-0.1,0.1-0.2,0.2-0.3,0.3c-0.5,0.6-1.1,1.1-1.7,1.6c-0.1,0.1-0.2,0.1-0.2,0.2   c-0.2,0.1-0.4,0.3-0.5,0.4c-0.1,0.1-0.2,0.2-0.3,0.2c-0.2,0.1-0.4,0.3-0.5,0.4c-0.1,0.1-0.2,0.1-0.3,0.2c-0.2,0.1-0.4,0.2-0.6,0.4   c-0.1,0.1-0.2,0.1-0.3,0.2c-0.2,0.1-0.4,0.2-0.6,0.3c0,0-0.1,0-0.1,0.1c-0.7,0.4-1.4,0.7-2.2,0.9c-0.1,0-0.2,0.1-0.3,0.1   c-0.2,0.1-0.4,0.1-0.6,0.2c-0.1,0-0.2,0-0.3,0.1c-0.2,0-0.4,0.1-0.6,0.1c-0.1,0-0.2,0-0.3,0c-0.2,0-0.4,0-0.6,0c-0.1,0-0.2,0-0.3,0   c-0.2,0-0.4,0-0.6,0h0C347.6,337.8,353.1,328,350.9,323.5z M304.5,355.2c-2.7-4.2-19.5-14.7-28.6-20c-1.1-0.7-2.4-1.1-3.7-1.2h0   c0,0,0,0,0,0c0.6-0.4,1.2-0.6,1.9-0.8c0.1,0,0.3-0.1,0.4-0.1c0.2-0.1,0.5-0.1,0.7-0.2c0.2,0,0.4-0.1,0.6-0.1c0.2,0,0.4,0,0.7-0.1   c0.2,0,0.4,0,0.7,0c0.2,0,0.4,0,0.6,0c0.2,0,0.5,0.1,0.7,0.1c0.2,0,0.4,0.1,0.6,0.1c0.3,0.1,0.6,0.2,0.8,0.3   c0.1,0.1,0.3,0.1,0.4,0.1c0.4,0.2,0.8,0.4,1.2,0.6c0.4,0.2,0.7,0.4,1.1,0.7c1.9,1.1,4,2.4,6.2,3.8c0.9,0.6,1.8,1.1,2.7,1.7   c0.4,0.2,0.7,0.5,1.1,0.7c0.7,0.5,1.5,0.9,2.2,1.4c0.7,0.5,1.5,1,2.2,1.4c1.1,0.7,2.1,1.4,3.2,2.1c0.7,0.5,1.3,0.9,2,1.4   c0.6,0.5,1.3,0.9,1.8,1.3c0.6,0.4,1.1,0.9,1.7,1.3c2.1,1.7,3.7,3.1,4.3,4.2c2.2,3.5-2.5,8.3-8,13.1c-1.7,1.5-3.4,3-5.1,4.4   c-2,1.8-3.9,3.5-5.3,5.1c-0.2,0.2-0.4,0.4-0.6,0.6c-0.1,0.1-0.2,0.1-0.3,0.2c-0.1,0.1-0.3,0.2-0.4,0.3c-0.1,0.1-0.2,0.1-0.4,0.2   c-0.1,0.1-0.3,0.1-0.4,0.2c-0.2,0.1-0.3,0.1-0.5,0.2c-0.1,0-0.3,0.1-0.4,0.1c-0.2,0.1-0.4,0.1-0.6,0.1c-0.1,0-0.2,0.1-0.4,0.1   c-0.2,0-0.4,0.1-0.7,0.1c-0.1,0-0.2,0-0.3,0c-0.3,0-0.5,0.1-0.8,0.1c-0.1,0-0.1,0-0.2,0c-0.3,0-0.6,0-0.9,0c0.4-0.3,0.8-0.6,1.2-1   c1.4-1.6,3.2-3.2,5.2-5c1.7-1.4,3.4-2.9,5.1-4.4C302,363.6,306.8,358.7,304.5,355.2z M416,351.1c0.1-0.1,0.2-0.3,0.3-0.4   c2.1-2.8,3.9-6.3,5.1-10.3c3.1-10.1,1.6-19.8-3.3-23.7c0.6,0,1.2,0.1,1.7,0.3c6.9,2.2,9.6,13.4,6,25.1c-1.1,3.5-2.6,6.6-4.4,9.3   c-0.2,0.3-0.4,0.6-0.7,0.9c-4.1,5.6-9.5,8.6-14.1,7.1c-1-0.3-1.9-0.8-2.7-1.5C408.1,358.4,412.5,355.7,416,351.1z" fill="#000000" originalFill="#000000"/>
</g>
</svg>