<svg xmlns="http://www.w3.org/2000/svg" xmlns:xlink="http://www.w3.org/1999/xlink" version="1.1" id="svg-edited-version" x="0px" y="0px" viewBox="0 0 595.3 595.3" enable-background="new 0 0 595.3 595.3" xml:space="preserve" class="injected-svg" data-src="https://preview.pixlr.com/images/svg/100/1/862972da7a7351d09e00d8d5996a12e98ccbfa5f2237dc90a84c7862f72a7677.svg">
<g>
	<path fill="#242625" d="M428.9,225c-5.5,0-10,4.5-10,10c0,5.5,4.5,10,10,10c5.5,0,10-4.5,10-10C438.9,229.5,434.4,225,428.9,225z    M427.1,236.1c-2.3,0-4.3-1.9-4.3-4.3c0-2.3,1.9-4.3,4.3-4.3c2.3,0,4.3,1.9,4.3,4.3C431.3,234.2,429.4,236.1,427.1,236.1z" originalFill="#242625"/>
	<path fill="#7F9A95" d="M550.7,264c-10.1,13.1-36.8,24.6-52.9,28.2c-31.4,7-63.4,15.9-89,35.3c-3.3,2.5-6.5,5.2-9.6,8   c0.9-7,1.9-13.9,3.4-20.8c1.1-5.5,2.5-11,2.3-16.6c-0.3-5.6-2.6-11.4-7.4-14.3c-3.9-2.3-8.7-2.5-13.2-1.8   c-9.1,1.3-17.7,5.7-24.5,12c0-0.7,0-1.3,0.1-2c0.1-8.1-0.6-16.3,0.8-24.3c1.3-8,5.1-16,11.9-19.9c7.6-4.4,17.1-2.6,24.9,1.2   c7.8,3.8,14.8,9.4,22.7,13.1c20.7,9.5,44.7,4.1,66.1-3.4c21.4-7.5,43.1-17.1,65.7-15.4c0.2,0,0.5,0.1,0.7,0.1   C555.9,250,556.8,256.3,550.7,264z M343.9,392c2.2-11.1,3.1-22.5,2.6-33.8c-0.1-3.1-0.4-6.1-0.6-9.2c-8,16.3-19.1,31-32.2,43   c-18.5,16.9-40.8,28.5-64.5,35.3c31.4-2.6,62.9-13.8,87.6-30.1C339.2,395.6,341.6,393.8,343.9,392z M410.7,178.1   c-20.7,1.5-41.1,8.5-58.3,20.2c-1.3,0.9-2.7,1.9-3.5,3.3c-0.8,1.4-0.8,3.4,0.5,4.5c1.3,1.2,3.3,0.8,5,0.3   c19.9-5.3,39.4-12.4,58.1-21.1c0,0,0.1,0,0.1,0C416.5,183.5,414.9,177.8,410.7,178.1z M427.1,227.6c-2.3,0-4.3,1.9-4.3,4.3   c0,2.3,1.9,4.3,4.3,4.3c2.3,0,4.3-1.9,4.3-4.3C431.3,229.5,429.4,227.6,427.1,227.6z M297.6,227.7c0.6,1.1,1.1,2.2,1.7,3.3   c11.7-15.6,26.3-29,42.8-39.4c-6.1-2.8-12.6-4.8-19.1-6.3c-23.2-5.3-48.6-4.8-69,8c1.9,2.1,5,3.1,7.9,4.1   C277,202.5,290.1,213.6,297.6,227.7z" originalFill="#7F9A95"/>
	<path fill="#3F7284" d="M553,240.5c-0.7,0.1-1.3,0-2-0.1c-0.4-0.1-0.8-0.1-1.2-0.2c-6.5-1.1-13-0.9-19.5-0.1   c-9.8,1.2-19.4,4-28.6,7.3c-13.9,5-27.4,11.2-41.9,14.1c-14.5,2.9-30.3,2.3-42.8-5.6c14.9,6,31.8,4.4,47.3-0.1   c15.4-4.5,29.9-11.6,45.2-16.6c9.3-3,18.4-6.7,28.1-8.1c2.1-0.3,4.7-0.7,7.4-0.8c4.6-0.2,9.2,0.7,11,5   C556.8,237.5,555.4,240.1,553,240.5z M166.1,376.3c-14.6-8.3-25.7-21.7-33.9-36.4c5.8,16.7,16.6,32.1,31.9,40.8   c15.3,8.7,35.5,9.8,50.4,0.3C199,387.3,180.7,384.6,166.1,376.3z M105.4,289.8c-7.6-6.6-17.7-9.4-27.6-11   c-9.9-1.6-20.1-2.1-29.7-4.9c0.9,7.5,5.5,14.2,11.4,18.9c5.9,4.7,13,7.6,20.2,9.9c6.9,2.2,14.2,4,21.4,3.6c3-0.1,6.3-0.8,8.2-3.2   c1.6-2,1.7-5,0.8-7.4C109.1,293.4,107.3,291.4,105.4,289.8z M134.3,283.1c0.7,0.3,1.5,0,2.2-0.4c16.5-8.5,29.2-24.1,34.2-42   c-8.2,4.5-16.3,9.3-23.2,15.6c-6.9,6.3-12.4,14.5-14.1,23.7C133.2,281.2,133.2,282.6,134.3,283.1z M467.1,184.8   c-9.3,0.9-18.6,2-27.5,4.5c-17,4.7-32.2,14.3-47.8,22.6c-15.6,8.3-32.5,15.6-50.1,15.2c-4-0.1-8.4-0.8-9.7-5.8   c-0.5-1.8-0.3-3.8,0.3-5.5c2.1-6.7,7.2-12,12.9-15.9c1.8-1.2,3.8-2.3,5.7-3.3l10.9-5c-3.7,1.6-7.3,3.2-10.9,5l-0.8,0.4   c32.8-21.3,74.3-28.8,112.4-20.2c2,0.4,4.1,1.1,5.9,2C471.2,180.2,470.3,184.5,467.1,184.8z M410.7,178.1   c-20.7,1.5-41.1,8.5-58.3,20.2c-1.3,0.9-2.7,1.9-3.5,3.3c-0.8,1.4-0.8,3.4,0.5,4.5c1.3,1.2,3.3,0.8,5,0.3   c19.9-5.3,39.4-12.4,58.1-21.1c0,0,0.1,0,0.1,0C416.5,183.5,414.9,177.8,410.7,178.1z M300.6,246.2c-1.8-0.2-3.4,1.4-4.5,2.8   c-8.3,10.9-14.4,23.5-17.7,36.8c-0.5,1.8-0.7,4.1,0.8,5.3c1.8,1.4,4.3-0.1,6-1.7c10.1-9.6,16.7-22.7,18.4-36.4   c0.2-1.4,0.3-2.8-0.1-4.1C303,247.6,301.9,246.4,300.6,246.2z M266.6,322.1c6.6-4.2,10.4-12.4,9.2-20.2   C269.4,306.3,265.7,314.3,266.6,322.1z M334.9,319.1c-0.8,8.2,2.2,16.7,7.9,22.7c-4.1-14.3-2.7-30.2,4.1-43.5   C340.1,303.1,335.6,310.9,334.9,319.1z M166.1,376.3c-14.6-8.3-25.7-21.7-33.9-36.4c5.8,16.7,16.6,32.1,31.9,40.8   c15.3,8.7,35.5,9.8,50.4,0.3C199,387.3,180.7,384.6,166.1,376.3z M105.4,289.8c-7.6-6.6-17.7-9.4-27.6-11   c-9.9-1.6-20.1-2.1-29.7-4.9c0.9,7.5,5.5,14.2,11.4,18.9c5.9,4.7,13,7.6,20.2,9.9c6.9,2.2,14.2,4,21.4,3.6c3-0.1,6.3-0.8,8.2-3.2   c1.6-2,1.7-5,0.8-7.4C109.1,293.4,107.3,291.4,105.4,289.8z M134.3,283.1c0.7,0.3,1.5,0,2.2-0.4c16.5-8.5,29.2-24.1,34.2-42   c-8.2,4.5-16.3,9.3-23.2,15.6c-6.9,6.3-12.4,14.5-14.1,23.7C133.2,281.2,133.2,282.6,134.3,283.1z" originalFill="#3F7284"/>
	<path fill="#254A5D" d="M551,240.4c-0.4-0.1-0.8-0.1-1.2-0.2c-6.5-1.1-13-0.9-19.5-0.1c-9.8,1.2-19.4,4-28.6,7.3   c-13.9,5-27.4,11.2-41.9,14.1c-14.5,2.9-30.3,2.3-42.8-5.6c14.9,6,31.8,4.4,47.3-0.1c15.4-4.5,29.9-11.6,45.2-16.6   c9.3-3,18.4-6.7,28.1-8.1c2.1-0.3,4.7-0.7,7.4-0.8c-0.7-1.3-1.5-2.6-2.1-4c-25.6-52-99.5-66.7-151.3-55.2   c-41.8,9.3-79.3,36.5-101.2,73.4c-20.7,34.9-27.7,77.3-52.6,109.3c-9.7,12.4-22.8,23.3-38.3,25.9c-21.3,3.6-42.7-9.5-55.2-27.2   c-6.3-8.9-10.7-18.8-14.2-29.1c1.3-5.1,4.5-9.9,8.3-13.5c6.4-6.1,14.6-10.1,21.4-15.9c17-14.3,23.6-39.6,15.9-60.4   c-19,9.6-37.4,22.2-48,40.6c-4.1,7.1-6.7,15.1-7.6,23.3c-0.2,0.6-0.3,1.3-0.5,1.9c-1.7-3-3.7-5.8-5.9-8.4   c-8.5-10-20.8-16.7-33.8-18.7c-13.3-2-28.5,0.4-38.6-8.5c-5.1,13.1-1.2,28.6,7.7,39.5c8.9,10.9,22.2,17.5,35.9,20.8   c11.5,2.7,23.3,3.2,35.1,3.2c0.6,2.7,1.2,5.4,2,8c3.5,12.6,7.2,25.8,13.3,37.4c23,43.9,68.2,58.4,113.8,54.6   c23.7-6.8,46-18.5,64.5-35.3c13.2-12,24.2-26.7,32.2-43c-0.9-11.8-2.1-23.7,1.3-34.9c2.3-7.7,6.8-14.7,12.7-20.1c0-0.6,0-1.3,0-1.9   c0.1-8.1-0.6-16.3,0.8-24.3c1.3-8,5.1-16,11.9-19.9c7.6-4.4,17.1-2.6,24.9,1.2c7.8,3.8,14.8,9.4,22.7,13.1   c20.7,9.5,44.7,4.1,66.1-3.4c21.4-7.5,43.1-17.1,65.7-15.4c0.2,0,0.5,0.1,0.7,0.1C552.1,242.5,551.6,241.4,551,240.4z M133.4,280   c1.7-9.2,7.3-17.3,14.1-23.7c6.8-6.3,15-11.1,23.2-15.6c-5,17.9-17.7,33.5-34.2,42c-0.7,0.4-1.5,0.7-2.2,0.4   C133.2,282.6,133.2,281.2,133.4,280z M109.3,303.2c-1.8,2.4-5.2,3.1-8.2,3.2c-7.3,0.3-14.5-1.4-21.4-3.6   c-7.2-2.3-14.3-5.2-20.2-9.9c-5.9-4.7-10.5-11.4-11.4-18.9c9.6,2.8,19.8,3.3,29.7,4.9c9.9,1.6,20,4.4,27.6,11   c1.9,1.7,3.7,3.7,4.7,6.1C110.9,298.2,110.8,301.1,109.3,303.2z M164.2,380.7c-15.3-8.7-26.1-24.1-31.9-40.8   c8.2,14.6,19.3,28,33.9,36.4c14.6,8.3,32.9,11,48.4,4.7C199.7,390.5,179.5,389.4,164.2,380.7z M266.6,322.1   c-0.8-7.7,2.9-15.7,9.2-20.2C276.9,309.6,273.1,317.9,266.6,322.1z M303.6,253.1c-1.7,13.8-8.3,26.9-18.4,36.4   c-1.6,1.6-4.2,3.1-6,1.7c-1.5-1.1-1.3-3.4-0.8-5.3c3.3-13.3,9.3-26,17.7-36.8c1.1-1.5,2.6-3.1,4.5-2.8c1.4,0.2,2.5,1.4,2.9,2.7   C303.9,250.3,303.7,251.7,303.6,253.1z M428.9,245.1c-5.5,0-10-4.5-10-10c0-5.5,4.5-10,10-10c5.5,0,10,4.5,10,10   C438.9,240.6,434.4,245.1,428.9,245.1z M342.7,341.8c-5.7-6-8.6-14.5-7.9-22.7c0.8-8.2,5.2-16,11.9-20.8   C340.1,311.6,338.6,327.4,342.7,341.8z M391.8,211.9c-15.6,8.3-32.5,15.6-50.1,15.2c-4-0.1-8.4-0.8-9.7-5.8   c-0.5-1.8-0.3-3.8,0.3-5.5c2.1-6.7,7.2-12,12.9-15.9c1.8-1.2,3.8-2.3,5.7-3.3l-0.8,0.4c32.8-21.3,74.3-28.8,112.4-20.2   c2,0.4,4.1,1.1,5.9,2c2.8,1.5,1.9,5.8-1.3,6.1c-9.3,0.9-18.6,2-27.5,4.5C422.5,194.1,407.4,203.6,391.8,211.9z M252.8,191.5   c-2.4-5.3,3.3-10.6,8.6-13.1c25.5-12.2,55.7-8.9,83.1-1.9c5,1.3,10.3,3,14.8,5.6c-5.9,2.8-11.7,5.9-17.2,9.4   c-6.1-2.8-12.6-4.8-19.1-6.3c-23.2-5.3-48.6-4.8-69,8C253.5,192.7,253.1,192.2,252.8,191.5z" originalFill="#254A5D"/>
	<path fill="#325E73" d="M404.8,298.2c0.3,5.6-1.1,11.1-2.3,16.6c-3.2,15.3-4.2,31-7.2,46.4c-3,15.3-8.2,30.7-18.4,42.6   c-10.2,11.8-26.3,19.5-41.6,16.4c8.3-19.4,12.1-40.8,11.2-61.9c-0.6-14.8-3.6-29.9,0.6-44.1c4.9-16.5,20-29.6,37.1-32   c4.5-0.6,9.3-0.5,13.2,1.8C402.2,286.8,404.5,292.6,404.8,298.2z M485.6,312.2c-6.6-4.4-13.6-8-20.7-11.6   c-13.4,4.1-26.5,9.1-38.6,15.7c5.1,8.7,12.9,15.8,22.1,19.9c10.2,4.5,21.5,5.5,32.2,8.7c9.2,2.7,17.9,7,25.6,12.7   c1.2,0.9,2.9,1.9,4.2,1.2c1.1-0.6,1.4-2,1.5-3.3C513.2,337.8,500.3,322.1,485.6,312.2z" originalFill="#325E73"/>
	<path opacity="0.2" d="M297.6,227.7c-2.5-4.6-5.5-8.9-9-12.7c13.4-11.3,30.4-18.3,47.9-19.7c-14.2,9.8-26.8,21.9-37.2,35.7   C298.7,229.9,298.2,228.8,297.6,227.7z M343.9,392.1c0.9-4.4,1.5-8.8,2-13.3c-13.3,14.7-29.4,26.6-46.3,37.2   c13.4-5,26-11.3,37.1-18.7C339.2,395.6,341.6,393.9,343.9,392.1z M532.2,276.2c-2.5-2.7-6.9-2.1-10.4-1.1   c-20.5,5.3-41.9,12.4-61,15.2c-20.1,2.9-40.3,9.4-57.3,20.6c-0.3,1.3-0.6,2.6-0.8,3.9c-1.4,6.9-2.4,13.9-3.4,20.8   c3.1-2.8,6.3-5.5,9.6-8c25.6-19.4,57.6-28.3,89-35.3c9.9-2.2,23.8-7.4,35.4-14.2C533,277.4,532.7,276.8,532.2,276.2z M493.6,326.6   c-11.2-9.3-29-13.9-44.3-20.7c-7.9,3-15.6,6.4-23,10.4c5.1,8.7,12.9,15.8,22.1,19.9c10.2,4.5,21.5,5.5,32.2,8.7   c9.2,2.7,17.9,7,25.6,12.7c1.2,0.9,2.9,1.9,4.2,1.2c0,0,0,0,0.1-0.1C510.1,346.7,505.1,335.4,493.6,326.6z M404.8,298.2   c-0.3-5.6-2.6-11.4-7.4-14.3c-1.5-0.9-3.1-1.5-4.8-1.8c-11.3,43.3,3.6,96.3-32,128.4c-4.4,4.1-9.4,7.4-14.6,10.1   c11.8-1.2,23.1-7.8,31-16.9c10.2-11.8,15.4-27.2,18.4-42.6c3-15.3,4-31,7.2-46.4C403.7,309.3,405.1,303.8,404.8,298.2z" fill="#000000" originalFill="#000000"/>
</g>
</svg>