<?xml version="1.0" encoding="UTF-8"?>
<!-- Created with Inkscape (http://www.inkscape.org/) -->
<svg width="2250" height="3e3" version="1.1" viewBox="0 0 595.31 793.75" xmlns="http://www.w3.org/2000/svg" xmlns:cc="http://creativecommons.org/ns#" xmlns:dc="http://purl.org/dc/elements/1.1/" xmlns:rdf="http://www.w3.org/1999/02/22-rdf-syntax-ns#" xmlns:xlink="http://www.w3.org/1999/xlink">
 <defs>
  <linearGradient id="linearGradient1137">
   <stop stop-color="#c87137" offset="0"/>
   <stop stop-color="#c87137" stop-opacity="0" offset="1"/>
  </linearGradient>
  <linearGradient id="linearGradient1219">
   <stop stop-color="#784421" offset="0"/>
   <stop stop-color="#f4e3d7" offset="1"/>
  </linearGradient>
  <radialGradient id="radialGradient1221" cx="53.158" cy="1162.6" r="56.666" gradientTransform="matrix(2.3115 -.16728 .25709 3.5523 -162.24 -3882.7)" gradientUnits="userSpaceOnUse" xlink:href="#linearGradient1219"/>
  <radialGradient id="radialGradient1229" cx="195.91" cy="901.17" r="26.92" gradientTransform="matrix(3.4605 .43452 -.3316 2.6408 -150.59 -2674)" gradientUnits="userSpaceOnUse" xlink:href="#linearGradient1219"/>
  <radialGradient id="radialGradient1239" cx="405.98" cy="848.11" r="78.31" gradientTransform="matrix(3.0887 0 0 .88525 -919.28 -579.17)" gradientUnits="userSpaceOnUse">
   <stop stop-color="#502d16" offset="0"/>
   <stop stop-color="#502d16" stop-opacity="0" offset="1"/>
  </radialGradient>
  <linearGradient id="linearGradient1499-0" x1="376.65" x2="396.38" y1="1010.1" y2="1010.1" gradientTransform="matrix(-2.1094 1.1151 .86217 1.7715 383.02 -2944.1)" gradientUnits="userSpaceOnUse" xlink:href="#linearGradient1137"/>
  <radialGradient id="radialGradient1141-3-3" cx="257.4" cy="898.55" r="12.151" gradientTransform="matrix(1 0 0 2.7793 239.91 -1529.6)" gradientUnits="userSpaceOnUse" xlink:href="#linearGradient1137"/>
  <radialGradient id="radialGradient1141-9-6-5" cx="257.4" cy="898.55" r="12.151" gradientTransform="matrix(-.96313 .26903 .78034 2.7936 30.618 -1624.5)" gradientUnits="userSpaceOnUse" xlink:href="#linearGradient1137"/>
  <radialGradient id="radialGradient1141-2-1" cx="257.4" cy="898.55" r="12.151" gradientTransform="matrix(.98055 .17145 -.56932 2.4843 696.31 -1218)" gradientUnits="userSpaceOnUse" xlink:href="#linearGradient1137"/>
  <radialGradient id="radialGradient1141-8-9" cx="257.4" cy="898.55" r="12.151" gradientTransform="matrix(-.86002 0 0 2.9006 644.02 -1535.4)" gradientUnits="userSpaceOnUse" xlink:href="#linearGradient1137"/>
 </defs>
 <metadata>
  <rdf:RDF>
   <cc:Work rdf:about="">
    <dc:format>image/svg+xml</dc:format>
    <dc:type rdf:resource="http://purl.org/dc/dcmitype/StillImage"/>
    <dc:title/>
   </cc:Work>
  </rdf:RDF>
 </metadata>
 <g transform="translate(0 496.75)">
  <rect x="1.25e-6" y="-496.75" width="595.31" height="793.75" fill="#ff8080"/>
  <ellipse transform="rotate(.067611)" cx="337.29" cy="167.62" rx="241.88" ry="69.324" fill="url(#radialGradient1239)"/>
  <g transform="matrix(1.1 0 0 1.1 -613.43 -22.67)" shape-rendering="auto" stroke-width=".90909">
   <path d="m761.43 160.8c3.7035-2.5525 11.032-10.06 9.2892-15.965-4.439-15.04-32.613-22.05-41.946-21.299-22.546-0.91843-36.665 9.441-41.6 19.711-1.0755 2.1821-2.432 7.1056-0.92269 10.149 2.7784 5.602 11.272 14.095 15.901 9.9539 2.8617 4.4908 9.2736 6.3104 15.864 6.7613 9.2172 0.63055 19.469-2.5788 19.469-2.5788-0.15379 0.13329 10.87 2.8768 23.946-6.7322z" color="#000000" color-rendering="auto" dominant-baseline="auto" fill="#f4e3d7" image-rendering="auto" solid-color="#000000" style="font-feature-settings:normal;font-variant-alternates:normal;font-variant-caps:normal;font-variant-ligatures:normal;font-variant-numeric:normal;font-variant-position:normal;isolation:auto;mix-blend-mode:normal;shape-padding:0;text-decoration-color:#000000;text-decoration-line:none;text-decoration-style:solid;text-indent:0;text-orientation:mixed;text-transform:none;white-space:normal"/>
   <path d="m700.44 163.68 2.732 0.60653s-2.4489-12.106 3.2979-17.813c-5.7889 3.2327-8.0874 8.5666-6.0299 17.206z" color="#000000" color-rendering="auto" dominant-baseline="auto" fill="#c87137" image-rendering="auto" solid-color="#000000" style="font-feature-settings:normal;font-variant-alternates:normal;font-variant-caps:normal;font-variant-ligatures:normal;font-variant-numeric:normal;font-variant-position:normal;isolation:auto;mix-blend-mode:normal;shape-padding:0;text-decoration-color:#000000;text-decoration-line:none;text-decoration-style:solid;text-indent:0;text-orientation:mixed;text-transform:none;white-space:normal"/>
   <path d="m735.17 167.69 2.732-0.43507c0.0559 0.0239-0.66686-11.94-1.9694-17.853-2.2679 11.058-0.0168 12.607-0.7626 18.288z" color="#000000" color-rendering="auto" dominant-baseline="auto" fill="#c87137" image-rendering="auto" solid-color="#000000" style="font-feature-settings:normal;font-variant-alternates:normal;font-variant-caps:normal;font-variant-ligatures:normal;font-variant-numeric:normal;font-variant-position:normal;isolation:auto;mix-blend-mode:normal;shape-padding:0;text-decoration-color:#000000;text-decoration-line:none;text-decoration-style:solid;text-indent:0;text-orientation:mixed;text-transform:none;white-space:normal"/>
  </g>
  <path d="m524.21 176.57c63.784-6.2562 51.427-37.894 61.617-39.501 16.765-2.6432-51.316 0.59046-64.768-3.6424-12.837-1.6808-58.958-18.434-58.958-18.434s-31.996-12.174-32.266-2.9918c5.5257 44.102 59.538 64.557 94.374 64.569z" color="#000000" color-rendering="auto" dominant-baseline="auto" fill="#f4e3d7" image-rendering="auto" shape-rendering="auto" solid-color="#000000" style="font-feature-settings:normal;font-variant-alternates:normal;font-variant-caps:normal;font-variant-ligatures:normal;font-variant-numeric:normal;font-variant-position:normal;isolation:auto;mix-blend-mode:normal;shape-padding:0;text-decoration-color:#000000;text-decoration-line:none;text-decoration-style:solid;text-indent:0;text-orientation:mixed;text-transform:none;white-space:normal"/>
  <path d="m402.13 170.03c25.128-13.032 35.765-51.795 49.438-69.043 28.045-35.379-27.043-154.56-29.17-144.43l-61.891-198.34-162.86-16.456s-14.51 28.198-30.654 55.204c-8.4677 14.165-12.056 65.755-11.393 98.949 0.63228 31.688 8.0778 71.247 14.636 93.951 9.9271 34.368 40.176 78.235 40.182 103.76 3.3336 50.648 35.501 70.47 73.267 77.291 44.258 7.9939 83.396 17.289 118.45-0.88884z" color="#000000" color-rendering="auto" dominant-baseline="auto" fill="url(#radialGradient1221)" image-rendering="auto" shape-rendering="auto" solid-color="#000000" style="font-feature-settings:normal;font-variant-alternates:normal;font-variant-caps:normal;font-variant-ligatures:normal;font-variant-numeric:normal;font-variant-position:normal;isolation:auto;mix-blend-mode:normal;shape-padding:0;text-decoration-color:#000000;text-decoration-line:none;text-decoration-style:solid;text-indent:0;text-orientation:mixed;text-transform:none;white-space:normal"/>
  <path d="m346.46 71.852c-18.252 35.802 2.7888 59.915 2.7888 59.915 14.251-1.9774 31.302-12.483 47.49 8.7854l1.6336 42.647c49.744-5.0273 87.598-45.42 87.476-90.593-0.05826-21.579-14.454-66.934-34.689-87.361-48.97-38.438-84.932 28.895-104.7 66.606z" fill="#f4e3d7"/>
  <path d="m220.62-96.009c-29.507 2.9984-67.529-76.11-59.728-95.737 2.7624-6.9502 32.341-61.64 36.823-67.274l145.79 16.918 2.0126 82.836c-32.415 19.537-91.63 64.437-124.89 63.257z" fill="url(#radialGradient1229)"/>
  <path d="m419.3-63.068c1.804 17.237 14.548 25.676 24.811 63.386-22.893-17.486-29.582-1.5946-52.475-38.043-27.51-63.758 2.3561-69.89 2.0897-102.61 12.531 19.201 16.489 51.937 25.575 77.267z" fill="#a05a2c"/>
  <path d="m235.81-21.432c0.10696 6.2073 14.446 66.759 14.923 100.68 0.51043 36.257 13.369 86.508-12.914 108.01-5.392 4.4118-15.912 4.3374-25.948 2.8889-13.409 4.4064-24.982-1.4831-24.412-5.7934-12.785 13.535-31.31-2.939-19.053-32.911 5.6688-6.4983 12.736-11.372 20.831-13.017 1.4954-9.3645 6.2562-46.175 0.39428-75.98l-15.098-100.08z" fill="#f4e3d7"/>
  <path d="m184.58 187.14c1.8943-3.9443 3.0889-0.65322 3.0889-0.65322-2.7789-0.39703-1.0286-11.342 2.5024-16.893-5.8367 5.4352-6.3908 10.196-5.5913 17.547z" color="#000000" color-rendering="auto" dominant-baseline="auto" fill="#c87137" image-rendering="auto" shape-rendering="auto" solid-color="#000000" style="font-feature-settings:normal;font-variant-alternates:normal;font-variant-caps:normal;font-variant-ligatures:normal;font-variant-numeric:normal;font-variant-position:normal;isolation:auto;mix-blend-mode:normal;shape-padding:0;text-decoration-color:#000000;text-decoration-line:none;text-decoration-style:solid;text-indent:0;text-orientation:mixed;text-transform:none;white-space:normal"/>
  <path d="m214.72 190.9-2.5751-0.64149s-0.12626-14.263 0.46188-18.74c3.0312 9.5857 2.7273 12.204 2.1132 19.382z" color="#000000" color-rendering="auto" dominant-baseline="auto" fill="#c87137" image-rendering="auto" shape-rendering="auto" solid-color="#000000" style="font-feature-settings:normal;font-variant-alternates:normal;font-variant-caps:normal;font-variant-ligatures:normal;font-variant-numeric:normal;font-variant-position:normal;isolation:auto;mix-blend-mode:normal;shape-padding:0;text-decoration-color:#000000;text-decoration-line:none;text-decoration-style:solid;text-indent:0;text-orientation:mixed;text-transform:none;white-space:normal"/>
  <g transform="matrix(1.1 0 0 1.1 -425.33 3.9731)" shape-rendering="auto" stroke-width=".90909">
   <path d="m761.43 160.8c3.7035-2.5525 11.032-10.06 9.2892-15.965-4.439-15.04-32.613-22.05-41.946-21.299-22.546-0.91843-36.665 9.441-41.6 19.711-1.0755 2.1821-2.432 7.1056-0.92269 10.149 2.7784 5.602 11.272 14.095 15.901 9.9539 2.8617 4.4908 9.2736 6.3104 15.864 6.7613 9.2172 0.63055 19.469-2.5788 19.469-2.5788-0.15379 0.13329 10.87 2.8768 23.946-6.7322z" color="#000000" color-rendering="auto" dominant-baseline="auto" fill="#f4e3d7" image-rendering="auto" solid-color="#000000" style="font-feature-settings:normal;font-variant-alternates:normal;font-variant-caps:normal;font-variant-ligatures:normal;font-variant-numeric:normal;font-variant-position:normal;isolation:auto;mix-blend-mode:normal;shape-padding:0;text-decoration-color:#000000;text-decoration-line:none;text-decoration-style:solid;text-indent:0;text-orientation:mixed;text-transform:none;white-space:normal"/>
   <path d="m700.44 163.68 2.732 0.60653s-2.4489-12.106 3.2979-17.813c-5.7889 3.2327-8.0874 8.5666-6.0299 17.206z" color="#000000" color-rendering="auto" dominant-baseline="auto" fill="#c87137" image-rendering="auto" solid-color="#000000" style="font-feature-settings:normal;font-variant-alternates:normal;font-variant-caps:normal;font-variant-ligatures:normal;font-variant-numeric:normal;font-variant-position:normal;isolation:auto;mix-blend-mode:normal;shape-padding:0;text-decoration-color:#000000;text-decoration-line:none;text-decoration-style:solid;text-indent:0;text-orientation:mixed;text-transform:none;white-space:normal"/>
   <path d="m735.17 167.69 2.732-0.43507c0.0559 0.0239-0.66686-11.94-1.9694-17.853-2.2679 11.058-0.0168 12.607-0.7626 18.288z" color="#000000" color-rendering="auto" dominant-baseline="auto" fill="#c87137" image-rendering="auto" solid-color="#000000" style="font-feature-settings:normal;font-variant-alternates:normal;font-variant-caps:normal;font-variant-ligatures:normal;font-variant-numeric:normal;font-variant-position:normal;isolation:auto;mix-blend-mode:normal;shape-padding:0;text-decoration-color:#000000;text-decoration-line:none;text-decoration-style:solid;text-indent:0;text-orientation:mixed;text-transform:none;white-space:normal"/>
  </g>
  <path d="m413.64 41.215c-20.309 27.752-49.814 30.165-72.441 65.717-4.2286 6.644-13.898 28.439-16.317 49.641-3.0099 26.381 0.0267 53.061-21.732 62.703-5.018 2.2237-19.874 0.15165-19.874 0.15165-17.914 2.1126-26.725-2.2767-30.078-10.565-14.109 8.43-24.066-9.2478-13.602-30.59 4.5622-11.338 12.38-13.123 23.533-17.401-2.0624-13.753 25.395-78.884 23.155-145.09l1.0974-71.023z" fill="#f4e3d7"/>
  <path d="m252.12 211.12 1.9503-0.82953c-1.0541 0.0958 1.5975-13.239 4.6826-18.67-8.1939 8.1292-6.6328 19.5-6.6328 19.5z" color="#000000" color-rendering="auto" dominant-baseline="auto" fill="#c87137" image-rendering="auto" shape-rendering="auto" solid-color="#000000" style="font-feature-settings:normal;font-variant-alternates:normal;font-variant-caps:normal;font-variant-ligatures:normal;font-variant-numeric:normal;font-variant-position:normal;isolation:auto;mix-blend-mode:normal;shape-padding:0;text-decoration-color:#000000;text-decoration-line:none;text-decoration-style:solid;text-indent:0;text-orientation:mixed;text-transform:none;white-space:normal"/>
  <path d="m286.35 219.79-4.0152 0.0858c4.0336-0.73338 7.597-16.028 4.8966-20.509 5.7971 9.9808 1.8065 13.542-0.88137 20.423z" color="#000000" color-rendering="auto" dominant-baseline="auto" fill="#c87137" image-rendering="auto" shape-rendering="auto" solid-color="#000000" style="font-feature-settings:normal;font-variant-alternates:normal;font-variant-caps:normal;font-variant-ligatures:normal;font-variant-numeric:normal;font-variant-position:normal;isolation:auto;mix-blend-mode:normal;shape-padding:0;text-decoration-color:#000000;text-decoration-line:none;text-decoration-style:solid;text-indent:0;text-orientation:mixed;text-transform:none;white-space:normal"/>
  <g transform="translate(-3.6826 410.98)">
   <g transform="matrix(2.6295 -.11941 .11051 2.6886 -1105.8 -3511.1)" shape-rendering="auto" stroke-width=".37575">
    <path transform="scale(.26458)" d="m1570.6 3914.7c-14.14 20.291-16.063 46.382-9.1328 67.088 5.0443 30.637-4.7063 57.898-19.609 78.728-14.915 20.848-35.062 35.197-50.193 39.861 12.176-0.1625 24.359-5.1623 34.797-11.775-7.2266 5.1961-14.336 8.9176-20.547 10.896 17.562-0.3733 35.216-11.437 47.059-22.356-1.1733 2.6138-2.4352 5.1665-3.7754 7.6602-11.41 10.052-23.674 17.692-31.93 20.68 7.2806-0.4 15.329-2.9629 23.16-6.6582-3.8258 5.3271-7.9823 10.295-12.352 14.867-18.726 19.596-41.324 31.959-57.104 34.998 24.657 2.5157 53.355-15.825 65.59-28.244 4.5372-4.748 8.6237-10.044 12.26-15.772-0.2388 1.3436-0.4459 2.6879-0.6191 4.0332-3.2298 4.3762-6.7264 8.4374-10.488 12.133-18.727 19.596-41.324 31.959-57.104 34.998 4.3776 0.4463 8.8831 0.2224 13.4-0.4942 18.17 0.08 40.367-11.748 54.471-22.365 0.3307 2.1912 0.74 4.3521 1.2285 6.4746-15.787 12.604-34.115 21.892-44.941 24.52 14.313 0.835 33.207-6.6237 47.672-15.176 0.9997 2.7873 2.1374 5.4754 3.4063 8.0372 9.4893 30.442 4.1863 60.586-7.0606 85.221-11.257 24.657-28.544 43.753-42.451 51.803 24.116-5.7165 45.204-32.462 52.686-48.209 9.7987-21.462 12.081-47.558 6.4766-74.189-2.3571-9.0873-4.634-18.119-5.5547-27.467 1.2483-0.8699 2.4299-1.7337 3.5469-2.5918 11.715 38.136 10.841 75.796-3.25 104.24-11.257 24.657-28.546 43.752-42.453 51.801 4.2816-1.0152 8.4629-2.7022 12.494-4.8633 21.83-7.4755 43.546-35.255 50.379-49.734 4.224-9.3091 6.9462-19.32 8.1934-29.816 1.3726 1.8803 2.9192 3.6157 4.6152 5.1992-1.2124 8.617-3.5943 16.991-7.2676 25.285-10.295 23.246-30.759 45.844-42.924 53.686 20.892-5.9206 45.535-33.266 52.361-48.119 2.2942-5.1803 3.8926-10.54 4.9121-16.055 4.4766 16.298 0.6173 34.603-7.3887 51.754-10.466 22.421-28.083 42.858-42.857 53.848 26.298-12.912 47.502-40.414 54.51-54.838 9.1103-19.516 9.4961-39.79 1.084-57.635-1.3642-2.4043-2.7015-4.811-3.9434-7.2597 0.105-4.6424-0.1187-9.3749-0.584-14.18 15.988 24.174 18.05 52.46 4.7969 78.633-10.466 22.421-28.085 42.858-42.859 53.848 4.6689-2.2926 9.172-5.0501 13.469-8.1074 23.615-13.403 45.434-41.905 51.826-55.15 10.24-22.073 8.7806-44.041-3.8165-63.211-2.3605-3.6533-4.2055-7.8653-5.539-12.354 4.0827 6.6773 8.8815 12.571 12.768 16.924 10.557 18.3 12.302 36.143 2.7949 57.15-9.5142 21.023-30.371 45.212-43.228 55.422 22.702-11.908 47.806-41.134 54.16-54.656 9.7141-21.465 2.9342-40.513-7.9355-59.334-4.0529-7.1419-5.6047-16.122-5.1778-25.742 0.089 0.2958 0.1692 0.5897 0.2637 0.8868 4.7081 14.081 26.136 45.403 47.207 59.139-11.53-11.261-29.34-37.189-36.299-59.053-3.6246-11.388-4.3195-21.673-2.3769-31.398 2.9729-3.4084 5.7589-6.8606 8.375-10.344-4.9577 13.601-5.0579 28.434-0.031 43.723 4.7783 13.806 23.036 44.143 44.836 59.453 3.8943 3.4069 8.029 6.5309 12.381 9.1992-13.335-12.195-28.382-34.104-36.119-57.445-11.079-30.105-3.4693-61.337 20.022-85.475-1.352 11.178-7.1161 19.6-13.076 28.039-10.407 17.269-12.393 37.667-5.6582 57.984 5.2493 15.037 23.021 44.323 47.533 59.35-13.335-12.195-28.38-34.102-36.117-57.443-7.7302-23.32-8.2524-48.074 6.9004-66.436 13.709-10.328 20.5-29.644 13.34-52.141-1.8585-57.557 17.885-230.95 17.885-230.95s-90.442-25.54-151.09 59.472zm57.604-43.514c-45.466 1.838-56.754 20.345-68.561 37.738-14.14 20.291-16.063 46.384-9.1328 67.09 5.0443 30.636-4.7064 57.898-19.609 78.729-14.915 20.848-35.062 35.195-50.193 39.859 25.028-0.3326 50.111-21.083 59.93-34.336 15.229-21.286 21.022-50.739 15.809-82.254-3.6512-22.777 4.8776-53.027 15.141-67.768 13.32-18.21 30.433-33.579 56.617-39.059zm-33.383 30.309c-3.6176 6.6774-8.679 13.397-12.5 19.053-3.2025 4.6182-5.7543 9.5424-7.7129 14.629l-2.045 3.4063s-0.1275 1.9655-0.2265 3.4863c-2.6864 9.7788-3.3144 19.914-2.1524 29.478-0.4987 6.2998-1.0603 13.086-1.6972 20.274-0.2858-2.6612-0.6362-5.3381-1.0821-8.0332-3.6512-22.777 4.8738-53.029 15.137-67.77 3.7477-5.1238 7.8133-10.007 12.279-14.523zm-33.18 146.1c-0.052 0.3577-0.1105 0.7121-0.1661 1.0683-0.4103 0.7555-0.8171 1.5152-1.2421 2.2578 0.4903-1.0938 0.9567-2.2058 1.4082-3.3261zm118.18 67.666c-0.9814 1.7238-5.992 16.714-7.1875 18.182-4.5132 5.4546-9.4226 11.637-12 17.814 1.8115-6.4324 2.4817-13.516 6.8867-19.004 1.6788-1.3009 10.858-15.412 12.301-16.992zm-120.12 14.943c0.042 0.1126 0.08 0.2254 0.1211 0.3379-0.049 0.049-0.097 0.098-0.1465 0.1465 0.01-0.1619 0.014-0.3222 0.025-0.4844zm10.342 5.4825c1.5786 5.8079 5.7565 23.435 6.8183 25.631 2.7292 9.0342 1.9204 18.085 2.2246 26.93-1.0157-8.9303-4.046-19.078-6.875-28.127-0.6486-2.1116-1.7848-18.302-2.4043-24.195 0.071-0.072 0.1497-0.1468 0.2188-0.2187 0.01-0.01 0.012-0.013 0.018-0.02zm9.7363 5.3789c2.3757 8.4529 5.2004 16.353 7.7754 22.949-0.2748 0.8089-0.5595 1.5543-0.8555 2.2285-0.3072 0.6787-0.6017 1.3548-0.8809 2.0293-0.7063-2.951-1.507-5.9157-2.4082-8.8906-1.7026-5.72-2.9016-11.946-3.6308-18.316zm27.559 55.734c1.2607 1.6717 8.812 16.305 10.342 17.719 3.7726 5.7566 3.6183 12.796 4.6836 19.281-1.8621-6.294-6.0605-12.774-9.9453-18.506-1.0265-1.5409-4.298-16.717-5.0801-18.494z" color="#000000" color-rendering="auto" dominant-baseline="auto" fill="#a05a2c" image-rendering="auto" solid-color="#000000" style="font-feature-settings:normal;font-variant-alternates:normal;font-variant-caps:normal;font-variant-ligatures:normal;font-variant-numeric:normal;font-variant-position:normal;isolation:auto;mix-blend-mode:normal;shape-padding:0;text-decoration-color:#000000;text-decoration-line:none;text-decoration-style:solid;text-indent:0;text-orientation:mixed;text-transform:none;white-space:normal"/>
    <path d="m443.45 1028.1c-11.398 3.3863-12.874 8.2273-14.565 12.856-2.0656 5.4233-0.59647 11.332 2.715 15.467 3.578 6.4594 3.1491 13.14 0.9304 18.733-2.2206 5.5976-6.256 10.098-9.7455 12.123 6.3253-1.7134 11.133-7.9557 12.63-11.536 2.2672-5.7153 1.5278-12.622-2.159-19.265-2.6349-4.8087-2.7402-12.071-1.242-16.011 2.0136-4.9085 5.2032-9.4355 11.436-12.366zm3.2132 0.5618c-11.398 3.3863-12.874 8.2273-14.565 12.856-2.0656 5.4233-0.59645 11.332 2.7151 15.467 3.578 6.4594 3.1491 13.14 0.93038 18.733-2.2206 5.5977-6.2559 10.098-9.7454 12.123 3.0773-0.8336 5.7935-2.7399 7.9458-4.8894-1.4438 1.6251-2.9685 2.9158-4.396 3.7613 5.9978-1.6707 10.576-7.7025 12.008-11.158 2.1702-5.5156 1.4982-12.17-1.9672-18.562-2.4764-4.6267-2.5475-11.627-1.1127-15.428 1.9268-4.7373 4.9659-9.1106 10.881-11.954-10.809 3.2987-12.226 7.9697-13.846 12.436-1.978 5.2335-0.61041 10.924 2.5095 14.899 2.8363 5.2416 2.9669 10.641 1.6661 15.442 0.74281-4.8153-0.33826-10.162-3.2165-15.348-2.635-4.8086-2.7407-12.072-1.2425-16.011 2.0136-4.9085 5.2032-9.4355 11.436-12.366zm4.13 1.6762c-9.8455 3.3514-11.278 12.372-11.811 13.514-2.2296 4.4147-0.72855 10.61 2.029 14.435 2.9418 5.9916 3.6822 11.196 1.6763 16.463-2.0076 5.2711-6.784 10.597-9.8098 12.543 5.4474-1.6957 11.196-8.1383 12.545-11.511 2.0498-5.3819 0.0349-11.305-2.9945-17.468-2.1639-4.462-2.1855-10.154-0.75833-14.967 1.446-4.8764 3.732-10.177 9.1231-13.01z" color="#000000" color-rendering="auto" dominant-baseline="auto" fill="url(#radialGradient1141-2-1)" image-rendering="auto" solid-color="#000000" style="font-feature-settings:normal;font-variant-alternates:normal;font-variant-caps:normal;font-variant-ligatures:normal;font-variant-numeric:normal;font-variant-position:normal;isolation:auto;mix-blend-mode:normal;shape-padding:0;text-decoration-color:#000000;text-decoration-line:none;text-decoration-style:solid;text-indent:0;text-orientation:mixed;text-transform:none;white-space:normal"/>
    <path d="m423.18 1035.7c8.9576 6.0388 9.2662 11.763 9.7978 17.291 0.69381 6.4936-1.687 12.838-5.2787 16.83-4.2656 6.5488-5.195 14.132-4.4048 20.846 0.79082 6.7197 3.3241 12.563 5.8754 15.522-5.003-3.165-7.8507-11.116-8.4212-15.429-0.80744-6.861 1.151-14.47 5.5438-21.203 3.1513-4.8809 4.6437-13.013 4.1416-17.73-0.74943-5.9056-2.5643-11.614-7.2538-16.126zm-2.8182 0c8.9576 6.0388 9.2662 11.763 9.7978 17.291 0.6938 6.4936-1.687 12.838-5.2787 16.83-4.2656 6.5488-5.195 14.132-4.4048 20.846 0.79081 6.7197 3.3241 12.563 5.8754 15.522-2.434-1.5398-4.3561-4.2129-5.7557-7.0484 0.90348 2.1077 1.9398 3.8559 2.9802 5.0853-4.735-3.0528-7.43-10.722-7.9699-14.883-0.76419-6.6178 1.0886-13.957 5.2461-20.451 2.9825-4.7079 4.3953-12.552 3.92-17.101-0.7093-5.6963-2.427-11.202-6.8653-15.555 8.4777 5.8247 8.77 11.346 9.273 16.678 0.65663 6.2634-1.5964 12.383-4.9957 16.233-3.4048 5.3273-4.5584 11.363-4.3893 17.008 0.30419-5.5515 2.2492-11.342 5.6787-16.599 3.1514-4.8809 4.6442-13.013 4.142-17.73-0.74944-5.9056-2.5643-11.614-7.2538-16.126zm-3.8067 1.0711c7.6549 5.6948 7.1198 16.102 7.3483 17.489 1.027 5.3935-1.4362 12.054-4.5007 15.807-3.6387 6.1485-5.269 11.846-4.5952 18.152 0.67433 6.3114 3.6729 13.228 5.8484 16.006-4.266-2.9727-7.8683-11.333-8.3547-15.385-0.68852-6.444 2.1554-12.698 5.9011-19.022 2.6871-4.5843 3.8054-10.97 3.532-16.653-0.27704-5.758-1.1804-12.157-5.1792-16.395z" color="#000000" color-rendering="auto" dominant-baseline="auto" fill="url(#radialGradient1141-8-9)" image-rendering="auto" solid-color="#000000" style="font-feature-settings:normal;font-variant-alternates:normal;font-variant-caps:normal;font-variant-ligatures:normal;font-variant-numeric:normal;font-variant-position:normal;isolation:auto;mix-blend-mode:normal;shape-padding:0;text-decoration-color:#000000;text-decoration-line:none;text-decoration-style:solid;text-indent:0;text-orientation:mixed;text-transform:none;white-space:normal"/>
   </g>
   <path d="m145-786.7s-22.291 47.227-20.296 72.122c1.8785 23.441 29.682 64 29.682 64l137.67 66.632 79.397-29.847 11.475-96.511z" fill="#784421"/>
   <path d="m162.85-624.32c34.064-25.188 95.236-15.407 123.75 18.064l-29.084 12.829c-13.031 5.748-31.351 2.3348-46.595 1.2878-16.689-1.1462-29.955-0.54293-34.969-8.3606-20.173-31.457-22.973-16.097-13.101-23.82z" fill="#f4e3d7"/>
   <path d="m187.62-599.73c-5.0876 0.21554-6.6496 2.5743-14.466-4.9114l34.96-19.533s19.752 10.562 42.129 33.054c-11.462 4.765-42.193-14.14-41.326-17.916 0 0-13.557 8.9789-21.297 9.3068z" fill="#d38d5f"/>
   <path d="m140.54-710.66c2.4879-10.48-4.9426-88.005 25.792-109.34 50.228-34.867 143.03-25.846 171.55 7.625 18.666 19.259 19.753 71.509 11.348 115.4-6.512 34.008-12.869 51.04-27.016 55.792 10.4 40.051-17.872 58.012-44.918 60.161-37.015 0.25231-35.665-8.9264-50.703-19.178-7.6332-5.2036-16.604-19.725-18.853-20.663-2.172 5.6472-12.83 13.853-20.901 18.155-5.4763 2.9185-9.4759 10.921-17.864 4.7602-45.409-33.351-6.8361-62.56-11.339-62.954 2.5763-22.696-13.973-40.173-17.09-49.763z" fill="#f4e3d7"/>
   <path d="m160.33-797.58c7.1826-15.905 52.22-41.02 51.787-41.061-15.779-1.4704-54.113 14.667-65.159 34.729-7.7695 57.656-17.086 72.485-10.742 91.661 9.9172 29.977 26.199 48.265 20.314 54.842 0 0 2.8408-1.9251 10.266-16.319 12.293-23.831 32.144-10.451 35.563-41.908 1.3447-12.373-13.263-38.897-27.756-55.037-9.1751-10.218-15.352-23.312-14.273-26.908z" fill="#a05a2c"/>
   <path d="m324.52-787.61c-3.2434-21.779-31.998-50.113-31.998-50.113 0.14751-2.773 42.918 14.162 54.711 28.519 0.45169 5.0202 10.028 16.489 10.389 21.219 10.585 138.64-18.297 148.99-32.792 157.01-0.29401 4.2349-1.4104-16.86-13.076-32.313-48.189-6.8955-70.641-39.436-65.821-52.99 4.6704-13.134 21.288-50.423 46.352-64.458 15.868-8.8858 33.444-3.1525 32.236-6.8701z" fill="#a05a2c"/>
   <g transform="matrix(2.6022 .14487 -.13842 2.7234 -162.64 -3108.1)" stroke-width=".37511">
    <path d="m163.67 870.88s0.96555 1.3698 2.4419 0.0384c2.977-2.6847 7.1339-7.7078 10.536-6.7295 3.2378 0.93108 5.9866 7.7975 5.9866 7.7975-0.26004-1.9981 2.37-4.2092 1.8244-5.799-1.1093-3.2326-2.8946-5.5538-5.7044-6.6903-3.03-1.2255-6.692 0.97123-9.3306 2.9496-2.6863 2.0141-5.7538 8.4334-5.7538 8.4334z" fill="#784421"/>
    <path d="m167.22 874.04c-1.2604-1.1948 5.9823-7.4873 6.0965-7.5019 4.3728-4.869 8.6077 4.3309 8.6077 4.3309 0.40785 0.33715 0.39271 1.018 0.0963 1.8604-0.77986 2.2162-3.5068 5.5504-5.5999 6.6838-2.8677 1.5529-7.4975-3.1866-9.2006-5.3731z" fill="#ffffff"/>
    <g>
     <ellipse transform="matrix(-.96213 .27258 .22726 .97384 0 0)" cx="27.463" cy="886.28" rx="6.137" ry="6.4309" fill="#784421" stroke="#000000" stroke-linecap="round" stroke-linejoin="round" stroke-width=".49652"/>
     <ellipse transform="matrix(-.96213 .27258 .22726 .97384 0 0)" cx="27.741" cy="885.74" rx="3.4413" ry="3.9335" fill="#000000"/>
     <path d="m172.89 865.29c-1.8236 0.24924-3.1474 1.9885-4.2207 3.6797-0.53666 0.84557-1.0105 1.694-1.4277 2.3672-0.37127 0.62103-0.75906 1.1362-1.375 1.4824l0.25586 0.32617c0.86447 1.1099 2.5763 3.1107 4.4609 4.6602 0.94232 0.77473 1.9253 1.4388 2.8906 1.8164s1.9453 0.47011 2.7812 0.0137c0.97262-0.53104 2.0709-1.5515 3.1348-2.6348 1.0639-1.0833 2.0827-2.2319 2.8125-2.9922 0.53225-0.55446 0.54287-1.2662 0.36914-1.8144-1.0102-2.3159-1.9302-4.8754-3.9394-5.9492-1.7967-0.92406-3.9679-1.1976-5.7422-0.95508zm0.0976 0.70898c1.6227-0.22178 3.6797 0.0391 5.3164 0.88086 1.6367 0.84177 2.8488 2.2137 2.9492 4.3125 0.11816 0.44626 0.50191 0.82183 0.63881 1.2187 0.12721 0.40143 0.13544 0.7488-0.20508 1.1035-0.74839 0.77961-1.7599 1.9205-2.8066 2.9863-1.0467 1.0658-2.1397 2.0562-2.9668 2.5078-0.5952 0.32497-1.3274 0.2806-2.1797-0.0527-0.85224-0.33333-1.7898-0.95511-2.6973-1.7012-2.0252-1.956-4.5783-3.323-3.1875-5.541 0.43114-0.69553 0.90131-1.538 1.4238-2.3613 1.045-1.6466 2.307-3.1611 3.7148-3.3535z" color="#000000" color-rendering="auto" dominant-baseline="auto" fill="#000000" image-rendering="auto" shape-rendering="auto" solid-color="#000000" style="font-feature-settings:normal;font-variant-alternates:normal;font-variant-caps:normal;font-variant-ligatures:normal;font-variant-numeric:normal;font-variant-position:normal;isolation:auto;mix-blend-mode:normal;shape-padding:0;text-decoration-color:#000000;text-decoration-line:none;text-decoration-style:solid;text-indent:0;text-orientation:mixed;text-transform:none;white-space:normal"/>
     <ellipse transform="matrix(-.96213 .27258 .22726 .97384 0 0)" cx="25.994" cy="888.68" rx="1.6633" ry="1.6233" fill="#ffffff"/>
    </g>
    <path d="m174.02 862.44c3.1634-1.254 6.9114 1.7645 8.803 4.4547 1.0951 1.5574 2.1788 4.4658 0.70272 5.6683-0.27972 0.22789-1.0251-0.34755-1.0251-0.34755-2.2422 1.0721-4.011-5.9532-7.0718-6.1297-2.7668-0.15951-5.4316 4.3939-7.6112 6.6115-1.1883 1.209-2.3536-0.25194-3.3679-0.0393 0.06-1.3713 2.1144-2.0113 2.4213-3.1325 1.2212-4.4605 3.9465-5.8159 7.149-7.0854z" fill="#28170b"/>
   </g>
   <path d="m322.75-742.85c1.2054-1.3277 18.207 43.642 6.7803 59.908-8.2694 11.772-41.179 8.2798-41.179 8.2798-0.23058 0.85736 32.696 17.145 45.777 8.4062 11.434-7.6384 14.186-20.778 10.393-41.022-1.9312-10.308-19.192-36.747-21.771-35.572z" fill="#784421"/>
   <g transform="matrix(2.5386 .13504 -.13506 2.539 -156.27 -2938.1)" stroke-width=".39333">
    <path d="m190.6 898.99c1.6001 0.45788 3.6101-0.37662 4.9306-0.78672 7.1732-2.2277 5.4478-8.284 5.1215-9.4609-3.873-5.6631-20.965-5.7899-18.682 2.7445 0.84483 9.1879 4.9649 6.4544 8.6298 7.5031z" fill="#502d16"/>
    <path d="m192.41 890.23c-0.94175 0.34315-1.8425 1.6428-1.584 2.6475 0.61286 2.3824 5.9137 4.437 6.2658 3.4759-3.3138-0.96254-2.1829-2.5932-3.5804-3.5558 0 0 3.8458 0.69463 3.9619-0.69645 0.15523-1.8599-3.3729-2.487-5.0633-1.8711z" fill="#000000"/>
    <path d="m185.57 889.49c2.2489 0.36436 3.2842 1.3266 2.4823 3.7223-0.64646 1.9314-2.8878 4.1084-3.3829 3.2696 0.4089 0.72633 1.699-2.5479 1.1128-3.7957-0.58631-1.2478-1.1265 0.0655-2.3274-0.72382-3.2885-2.94 2.5127-2.2963 2.1153-2.4724z" fill="#000000"/>
   </g>
   <g transform="matrix(2.8371 .30236 -.30236 2.8371 -711.56 -3566.7)" shape-rendering="auto" stroke-width=".35049">
    <path d="m497.05 962.26c-2.0738 5.9098-0.73146 12.41 2.4195 16.997 3.3762 7.138 2.8702 14.452 0.64616 20.544-2.2261 6.0976-6.1941 10.963-9.6004 13.124 6.148-1.7725 10.887-8.5343 12.385-12.433 1.9377-5.3076 1.7714-11.601-0.47588-17.89-1.3092-3.1701-2.5712-6.3132-2.7259-9.791 5.3003 9.7773 6.6577 19.916 3.521 27.66-2.2261 6.0977-6.1946 10.963-9.6009 13.124 1.0915-0.3147 2.1374-0.7891 3.1298-1.3743 5.4977-2.1561 10.371-9.1767 11.737-12.761 2.1762-6.0087 1.5452-12.988-1.7236-20.05-0.61332-1.3426-1.1097-2.815-1.4871-4.3298 1.0654 2.4337 2.2926 4.6845 3.281 6.376 2.768 6.616 3.4145 12.333 1.4006 18.072-2.0155 5.7434-6.7132 11.501-9.6694 13.584 5.2976-1.7677 10.951-8.7328 12.304-12.407 2.0578-5.864 0.18715-12.389-2.6626-19.194-2.0348-4.9262 4.6506-14.478 6.0978-19.729l-0.3283-9.4148zm5.345 11.305c0.32397 0.62972 2.3233 5.8433 2.7086 6.4159 0.97917 2.1197 1.0319 4.3029 1.3705 6.4179-0.5274-2.1236-1.6177-4.5056-2.6235-6.6274-0.26609-0.5688-1.2453-5.5847-1.4557-6.2064z" color="#000000" color-rendering="auto" dominant-baseline="auto" fill="#c87137" image-rendering="auto" solid-color="#000000" style="font-feature-settings:normal;font-variant-alternates:normal;font-variant-caps:normal;font-variant-ligatures:normal;font-variant-numeric:normal;font-variant-position:normal;isolation:auto;mix-blend-mode:normal;shape-padding:0;text-decoration-color:#000000;text-decoration-line:none;text-decoration-style:solid;text-indent:0;text-orientation:mixed;text-transform:none;white-space:normal"/>
    <path d="m489.45 977.81c1.7338 5.4089 0.0899 10.053-3.2299 12.536-3.6693 4.4147-3.543 10.366-1.6711 15.973 1.8736 5.6121 5.5165 10.879 8.7456 13.811-5.9356-3.6128-10.239-10.654-11.51-14.27-1.6309-4.885-1.15-9.7893 1.3702-13.941 1.4432-2.0291 2.8388-4.0539 3.1661-6.7415-5.6884 5.8034-7.5309 13.313-4.848 20.551 1.8736 5.6121 5.5171 10.88 8.7462 13.812-1.0538-0.6416-2.0548-1.3926-2.9979-2.2118-5.279-3.6809-9.7004-10.975-10.857-14.294-1.8292-5.524-0.85821-10.803 2.7021-15.196 0.66889-0.83811 1.2298-1.8208 1.6762-2.8797-1.167 1.5361-2.4835 2.8696-3.5376 3.8478-3.0469 4.2218-3.9694 8.4987-2.2856 13.752 1.685 5.2567 5.998 11.491 8.79 14.198-5.1025-3.3026-10.291-10.833-11.431-14.219-1.7205-5.3671 0.4425-9.8407 3.5791-14.182 2.243-3.1529 2.5026-8.0942 1.3496-12.757-11.242-27.094 5.431-49.403 5.431-49.403l8.2113 23.39s-3.0718 22.789-1.3988 28.224zm-5.8093 6.9927c-0.34932 0.38003-2.5721 3.7725-2.9786 4.0852-1.0667 1.3195-1.2287 3.0226-1.6674 4.5692 0.62413-1.4852 1.813-2.9715 2.9059-4.2829 0.28951-0.35286 1.5025-3.957 1.7401-4.3715z" color="#000000" color-rendering="auto" dominant-baseline="auto" fill="#c87137" image-rendering="auto" solid-color="#000000" style="font-feature-settings:normal;font-variant-alternates:normal;font-variant-caps:normal;font-variant-ligatures:normal;font-variant-numeric:normal;font-variant-position:normal;isolation:auto;mix-blend-mode:normal;shape-padding:0;text-decoration-color:#000000;text-decoration-line:none;text-decoration-style:solid;text-indent:0;text-orientation:mixed;text-transform:none;white-space:normal"/>
    <path transform="scale(.26458)" d="m1821.1 3705.9c4.7615 19.396 3.6886 39.947-5.5742 53.061-12.953 18.058-21.884 36.665-14.779 58.988 4.7081 14.081 26.134 45.403 47.205 59.139-11.53-11.261-29.34-37.191-36.299-59.055-6.9534-21.847-3.1431-39.636 9.4395-57.195 1.5812-1.4778 3.3062-3.1549 5.0918-4.9921 0.2221 1.1406 0.4584 2.2756 0.7246 3.4003-13.156 17.774-16.511 38.805-9.2891 60.77 4.7783 13.806 23.038 44.141 44.838 59.451 0.2457 0.2149 0.5005 0.4182 0.7481 0.6308-0.5409 0.7899-1.0809 1.5744-1.6231 2.3164 0.6854-0.647 1.3591-1.3067 2.0254-1.9785 0.8551 0.727 1.7185 1.4417 2.5957 2.1387-3.5165 26.443-14.145 49.378-24.863 61.06 20.688-12.302 32.692-42.635 35.594-60.189 0.3394 0.2837 0.6824 0.5628 1.0254 0.8418-3.7397 25.716-14.133 47.919-24.619 59.348 3.782-2.2492 7.2683-5.1111 10.469-8.3789 18.595-13.662 31.008-46.665 33.197-62.525 0.9874-8.0377 0.942-16.214-0.086-24.43 1.4501-2.3562 2.8153-4.7691 4.1309-7.1972 0.7607 3.577 1.3141 7.17 1.6562 10.791-1.6802 3.0379-3.3279 5.7732-4.875 8.0371 1.7206-1.7134 3.4152-3.5833 5.0762-5.5742 0.3852 5.6872 0.2565 11.452-0.4141 17.352-2.8713 25.261-15.641 52.946-24.904 64.066 18.165-11.898 33.503-45.361 35.574-61.576 1.1443-10.067-0.011-20.017-2.7832-29.914 12.264-18.361 21.456-41.369 23.025-52.582 1.2666-10.1-0.2795-18.856-3.7246-26.738 4.0877 2.7658 8.2709 4.988 12.398 6.3652-11.173-7.8706-28.929-29.632-36.547-51.34-7.6118-21.691-5.1667-43.299 5.2949-68.305 3.7358-6.3932 8.3739-14.899 12.4-24.098-1.4265 5.7252-3.303 11.289-5.6211 16.363-12.355 26.692-14.739 53.073-6.5137 75.783 5.1607 13.548 23.579 40.082 44.358 48.23 3.7508 2.2117 7.7046 4.0038 11.83 5.1934-12.874-8.1689-27.873-26.555-36.287-49.602-11.855-29.266-6.724-67.588 13.309-104.54-0.5849 13.144-5.3544 25.024-10.303 37.006-8.4938 23.771-9.1224 47.555-1.7988 67.615 5.6619 14.736 23.574 40.293 46.81 46.992-12.874-8.1688-27.872-26.555-36.285-49.602-8.4059-23.025-10.319-50.668 2.4414-77.646 11.909-17.336 15.568-43.587 9.1446-64.24-8.305-26.701-56.844-61.694-56.844-61.694-52.722-35.093-107.2-43.389-118.79-29.374-29.101 35.202 24.539 192.28 42.416 217.83zm113.01-84.031c-0.7952 2.3498-4.4963 21.307-5.5019 23.457-3.8014 8.0196-7.9208 17.021-9.9141 25.047 1.2797-7.9936 1.4789-16.244 5.1797-24.256 1.4562-2.164 9.0119-21.868 10.236-24.248zm-27.068 23.08c-0.1034 2.5019-0.5332 4.8393-1.4023 6.9433-0.069 0.1658-0.134 0.3304-0.2031 0.4961 0.603-2.4965 1.126-4.9731 1.6054-7.4394zm-11.945 37.748c-0.844 3.5187-1.5369 7.0078-2.0117 10.455-0.011-2.1155 0.032-4.2411 0.1563-6.3711 0.6438-1.3626 1.2522-2.7236 1.8554-4.084zm-9.1328 45.348c5.8747 5.1711 12.202 9.3821 17.201 12.391 15.497 14.36 22.44 30.89 19.57 53.77-1.8059 14.401-7.5281 31.318-13.83 45.268-0.8932-2.689-1.8916-5.3748-2.9961-8.0586 6.1994-13.403 10.188-26.316 11.338-33.951 3.2539-24.114-4.6371-44.667-22.34-59.254-3.3354-2.7919-6.3423-6.2711-8.9434-10.164zm-11.484 2.3301c2.3954 1.993 12.958 12.696 14.758 13.557 5.3062 4.3831 7.24 11.153 10.176 17.033-3.6401-5.4618-9.5665-10.41-14.973-14.736-1.3471-1.0958-8.0631-12.944-9.9492-15.635 0-0.073-0.01-0.1458-0.012-0.2187zm-0.7734 11.547c20.368 18.219 29.592 43.546 24.893 71.166-0.1067 0.7768-0.2419 1.5532-0.3633 2.3301-0.2657-0.4929-0.5342-0.9856-0.8047-1.4785 0-0.01 0-0.021 0.01-0.031 2.9311-21.338-2.6968-40.819-16.01-55.377-2.7646-2.5988-5.5004-5.2027-8.0176-8.0019-0.1677-1.847-0.3078-3.6939-0.4004-5.5352 0.2648-1.006 0.4994-2.0299 0.6973-3.0723zm1.2149 20.027c7.9508 9.6748 11.737 21.975 12.574 35.219-6.1496-10.176-10.302-22.461-12.574-35.219zm-44.225 9.3359c0.3544 0.8973 0.7224 1.7861 1.1036 2.666-1.297 2.0587-2.4462 4.1427-3.3164 6.2285 0.8173-2.9023 1.4125-5.9333 2.2128-8.8945zm12.619 0.2285c0.7039 0.908 1.3912 1.822 2.0762 2.7364-0.3096 0.5228-0.6121 1.0477-0.9063 1.5761-0.4259-1.4159-0.8225-2.8486-1.1699-4.3125zm10.978 1.3399c2.4909 3.7117 12.914 21.312 14.701 23.215 5.3062 7.8044 7.24 16.686 10.176 25.035-3.6401-8.2179-9.5666-16.998-14.973-24.787-1.3536-1.971-8.127-19.36-9.9746-23.346 0.024-0.039 0.046-0.078 0.07-0.1172zm11.428 3.0195c5.8747 9.0118 12.202 17.133 17.201 23.178 1.6595 2.6356 3.2004 5.2463 4.6621 7.8457-0.092 2.4337-0.2532 4.8799-0.5078 7.3379-3.3683-7.4261-7.512-14.775-12.412-21.971-3.3354-4.9489-6.3423-10.53-8.9434-16.391zm-15.512 5.0859c15.354 22.328 25.096 46.186 28.234 69.025-0.5256 1.4096-1.0671 2.8031-1.6231 4.1778-2.1649-15.081-7.4377-30.4-15.637-45.018-4.6439-7.4481-9.2059-14.87-12.783-22.869 0.5092-1.8016 1.1138-3.5738 1.8086-5.3164zm-13.68 2.3321c0.886 1.514 1.8104 2.989 2.7735 4.4218-4.4867 13.856-4.2974 28.979 0.7011 44.059 3.6377 10.42 13.291 27.68 27.031 42.299-0.7782 1.3114-1.5622 2.573-2.3516 3.7929-10.23-12.404-20.158-29.119-25.967-46.642-5.915-16.073-6.499-32.466-2.1875-47.93zm9.9121 13.537c0.3842 0.4206 0.7691 0.8395 1.1602 1.248 14.876 21.471 20.215 45.718 19.812 68.557-6.4094-9.932-12.118-21.263-15.994-32.955-4.0662-12.267-6.1334-24.929-4.9786-36.85zm48.977 26.186c0.3079 0.7576 0.6106 1.5146 0.9004 2.2715-0.6627 2.8603-1.41 5.6965-2.2324 8.5-0.2977-1.1247-0.6136-2.2492-0.9473-3.373 0.8821-2.5934 1.6433-5.0681 2.2793-7.3985zm-16.027 36.895c0.1442 2.73 0.1973 5.4406 0.1406 8.125-0.5338 0.9158-1.0712 1.8039-1.6113 2.6777 0.03-2.6826-0.041-5.3821-0.2207-8.0977 0.5762-0.8972 1.1394-1.7987 1.6914-2.705zm0.027 11.211c-0.1772 3.4982-0.5236 6.9505-1.0566 10.346-0.3296-0.39-0.6593-0.7631-0.9883-1.1621 0.2689-2.4799 0.4416-4.9843 0.5215-7.5059 0.5116-0.5556 1.0239-1.1089 1.5234-1.6777zm-12.582 5.8789c-0.094 1.0112-0.2075 2.0133-0.3223 3.0156-0.3908-0.4528-0.7815-0.9112-1.1719-1.3769 0.5054-0.5383 1.0004-1.0875 1.4942-1.6387z" color="#000000" color-rendering="auto" dominant-baseline="auto" fill="#a05a2c" image-rendering="auto" solid-color="#000000" style="font-feature-settings:normal;font-variant-alternates:normal;font-variant-caps:normal;font-variant-ligatures:normal;font-variant-numeric:normal;font-variant-position:normal;isolation:auto;mix-blend-mode:normal;shape-padding:0;text-decoration-color:#000000;text-decoration-line:none;text-decoration-style:solid;text-indent:0;text-orientation:mixed;text-transform:none;white-space:normal"/>
    <path d="m496.69 933.97c-10.416 5.7864-10.774 11.271-11.392 16.568-0.80674 6.2222 1.9616 12.302 6.1378 16.127 4.9599 6.2751 6.0406 13.542 5.1218 19.975-0.91954 6.4388-3.8652 12.038-6.8317 14.873 5.8173-3.0328 9.1286-10.652 9.7919-14.785 0.93886-6.5742-1.3384-13.865-6.4461-20.317-3.6642-4.6769-5.3995-12.47-4.8156-16.989 0.87142-5.6588 2.9817-11.128 8.4345-15.452zm3.2769 0c-10.416 5.7864-10.774 11.271-11.392 16.568-0.80673 6.2222 1.9616 12.302 6.1379 16.127 4.9599 6.2751 6.0406 13.542 5.1218 19.975-0.91953 6.4388-3.8652 12.038-6.8317 14.873 2.8301-1.4755 5.0651-4.0368 6.6925-6.7538-1.0505 2.0196-2.2555 3.6947-3.4652 4.8727 5.5057-2.9252 8.6393-10.274 9.2671-14.261 0.88856-6.3412-1.2658-13.373-6.1-19.597-3.468-4.5111-5.1107-12.027-4.558-16.387 0.82475-5.4582 2.822-10.734 7.9827-14.905-9.8576 5.5813-10.197 10.872-10.782 15.981-0.7635 6.0016 1.8562 11.865 5.8088 15.555 3.959 5.1047 5.3003 10.888 5.1037 16.297-0.3537-5.3194-2.6153-10.868-6.6029-15.905-3.6643-4.6769-5.4001-12.47-4.8162-16.989 0.87142-5.6588 2.9817-11.128 8.4345-15.452zm4.4263 1.0263c-8.9008 5.4568-8.2786 15.429-8.5444 16.758-1.1942 5.1681 1.6699 11.55 5.2333 15.146 4.2309 5.8915 6.1266 11.351 5.3432 17.394-0.78409 6.0476-4.2707 12.675-6.8003 15.337 4.9604-2.8485 9.149-10.86 9.7145-14.742 0.80059-6.1747-2.5062-12.167-6.8616-18.227-3.1245-4.3927-4.4248-10.511-4.1068-15.957 0.32213-5.5174 1.3725-11.649 6.0221-15.71z" color="#000000" color-rendering="auto" dominant-baseline="auto" fill="url(#radialGradient1141-3-3)" image-rendering="auto" solid-color="#000000" style="font-feature-settings:normal;font-variant-alternates:normal;font-variant-caps:normal;font-variant-ligatures:normal;font-variant-numeric:normal;font-variant-position:normal;isolation:auto;mix-blend-mode:normal;shape-padding:0;text-decoration-color:#000000;text-decoration-line:none;text-decoration-style:solid;text-indent:0;text-orientation:mixed;text-transform:none;white-space:normal"/>
    <path d="m475 920.82c11.656 3.014 13.542 8.4305 15.624 13.588 2.524 6.0372 1.5646 12.893-1.3837 17.861-3.0152 7.6418-2.0158 15.237 0.67544 21.456 2.6935 6.2246 7.1026 11.06 10.756 13.111-6.4543-1.4833-11.783-8.2505-13.582-12.226-2.75-6.3554-2.6038-14.296 0.50411-22.156 2.216-5.6868 1.6994-13.986-0.1318-18.372-2.4281-5.4535-5.9962-10.383-12.462-13.263zm-3.1561 0.8816c11.656 3.014 13.542 8.4305 15.624 13.588 2.524 6.0372 1.5646 12.893-1.3838 17.861-3.0152 7.6418-2.0158 15.237 0.67545 21.456 2.6934 6.2246 7.1026 11.06 10.756 13.111-3.14-0.72165-6.0117-2.6949-8.342-4.988 1.5788 1.7474 3.2097 3.1069 4.7056 3.9655-6.124-1.4591-11.206-8.0029-12.929-11.841-2.6362-6.1347-2.5356-13.782 0.37304-21.338 2.0735-5.4673 1.5453-13.464-0.21081-17.697-2.3268-5.2644-5.7317-10.03-11.873-12.834 11.061 2.958 12.874 8.1846 14.872 13.163 2.4204 5.8271 1.5436 12.426-1.2274 17.197-2.3798 6.196-2.0479 12.37-0.33979 17.754-1.1528-5.4419-0.53245-11.627 1.8939-17.763 2.216-5.6868 1.6999-13.986-0.13127-18.372-2.4281-5.4535-5.9962-10.383-12.462-13.263zm-3.975 2.2224c10.105 3.0902 12.305 13.281 12.935 14.546 2.6012 4.8734 1.6346 12.059-0.78782 16.632-2.4208 7.0601-2.7137 13.058-0.26258 18.921 2.4532 5.8678 7.672 11.591 10.856 13.587-5.5773-1.5286-11.861-8.4541-13.495-12.204-2.5047-5.9911-1.0023-12.904 1.4911-20.167 1.776-5.2559 1.3104-11.756-0.52472-17.144-1.8593-5.4591-4.5925-11.339-10.211-14.171z" color="#000000" color-rendering="auto" dominant-baseline="auto" fill="url(#radialGradient1141-9-6-5)" image-rendering="auto" solid-color="#000000" style="font-feature-settings:normal;font-variant-alternates:normal;font-variant-caps:normal;font-variant-ligatures:normal;font-variant-numeric:normal;font-variant-position:normal;isolation:auto;mix-blend-mode:normal;shape-padding:0;text-decoration-color:#000000;text-decoration-line:none;text-decoration-style:solid;text-indent:0;text-orientation:mixed;text-transform:none;white-space:normal"/>
   </g>
   <path d="m425.81-764.39c0.29334 0.16453 0.58791 0.32781 0.88406 0.48456 15.494 8.1025 28.706 17.229 33.444 31.327 2.8473 8.932 2.35 30.735-5.1488 42.357 2.565-8.5141 3.0212-26.574-1.6191-40.381-4.6366-13.796-14.317-23.357-29.373-31.238-0.19807-0.0656-0.39771-0.1366-0.59642-0.2061 0.7838-0.79428 1.5859-1.5767 2.4093-2.343zm-3.5465 3.5207c15.099 7.9658 25.831 19.94 30.269 33.604 2.825 9.2251 3.8638 28.435-4.7052 40.83 1.3256-3.8682 2.1244-8.7942 2.2384-14.284-0.60526 7.625-2.6538 15.594-7.088 21.905 3.3072-9.3698 3.6926-24.629-1.0694-39.424-4.2626-13.244-12.61-26.124-26.521-34.335 0.72367-0.9995 1.4743-1.9883 2.2513-2.966 11.65 6.2172 20.715 14.737 26.346 24.579-4.7394-10.712-12.48-20.667-24.108-27.274 0.77303-0.89156 1.5686-1.7706 2.3876-2.6352zm-8.5306 10.668c13.715 8.1071 23.429 19.55 27.599 32.506 2.9026 9.5783 3.8477 29.563-5.2666 42.535 3.3072-9.3699 3.6925-24.629-1.0694-39.424-3.9299-12.21-11.333-24.11-23.365-32.328 0.66929-1.1037 1.3705-2.2008 2.1023-3.2891z" fill="url(#linearGradient1499-0)"/>
   <g transform="matrix(1.1213 0 0 1.0176 -256.91 94.918)" stroke-width=".93612">
    <path d="m517.11-786.19s-3.7044 0.21065-8.1124-3.3587c-8.8888-7.1978-21.493-20.879-31.037-17.576-9.0838 3.1434-20.055 22.867-20.055 22.867-1.4437-4.4882-4.4485-10.052-1.8969-15.99 3.3733-7.8502 7.4051-16.262 15.238-19.926 8.4471-3.9507 19 1.9197 27.031 6.9894 6.5364 4.1265 15.581 18.038 15.581 18.038z" fill="#784421"/>
    <path d="m506.33-780.5c3.4098-3.5951-18.179-20.425-18.506-20.45-13.196-13.21-23.868 13.644-23.868 13.644-1.1109 1.0224-0.96458 2.9599 8e-3 5.3149 2.5578 6.196 10.832 15.282 16.968 18.194 8.4058 3.9896 20.878-10.215 25.399-16.703z" fill="#ffffff"/>
    <g>
     <ellipse transform="matrix(.97525 .22108 -.17521 .98453 0 0)" cx="338.29" cy="-877.55" rx="17.51" ry="18.348" fill="#784421" stroke="#000000" stroke-linecap="round" stroke-linejoin="round" stroke-width="1.2391"/>
     <ellipse transform="matrix(.97525 .22108 -.17521 .98453 0 0)" cx="339.08" cy="-879.07" rx="9.8185" ry="11.223" fill="#000000"/>
     <path d="m488.84-804.55c5.2335 0.43373 9.2686 5.1885 12.583 9.8441 1.6571 2.3278 3.1357 4.6733 4.4265 6.5279 1.1519 1.7131 2.3348 3.122 4.1422 4.0152l-0.67953 0.96806c-2.2947 3.2932-6.8686 9.2531-12.003 13.953-2.5673 2.3501-5.2672 4.3912-7.9604 5.6132-2.6931 1.222-5.471 1.6342-7.922 0.46055-2.8516-1.3656-6.1352-4.1064-9.3306-7.0316-3.1953-2.9252-6.2719-6.0433-8.4665-8.0988-1.6005-1.499-1.7386-3.5253-1.3267-5.1136 2.5272-6.7514 4.7604-14.183 10.322-17.547 4.9789-2.905 11.123-4.0134 16.215-3.5914zm-0.17062 2.0347c-4.6568-0.38594-10.478 0.66909-15.013 3.3154-4.5354 2.6463-7.7808 6.7389-7.749 12.734-0.26901 1.2893-1.3054 2.4175-1.6353 3.569-0.30159 1.163-0.2724 2.1539 0.75154 3.1129 2.2504 2.1078 5.3052 5.205 8.449 8.083 3.1438 2.878 6.4077 5.534 8.8327 6.6953 1.745 0.83566 3.8246 0.59827 6.2021-0.48049 2.3776-1.0788 4.9546-2.9924 7.4269-5.2556 5.4735-5.8796 12.54-10.161 8.2417-16.27-1.3338-1.9163-2.801-4.2454-4.4145-6.5118-3.227-4.533-7.052-8.6566-11.092-8.9915z" color="#000000" color-rendering="auto" dominant-baseline="auto" fill="#000000" image-rendering="auto" shape-rendering="auto" solid-color="#000000" style="font-feature-settings:normal;font-variant-alternates:normal;font-variant-caps:normal;font-variant-ligatures:normal;font-variant-numeric:normal;font-variant-position:normal;isolation:auto;mix-blend-mode:normal;shape-padding:0;text-decoration-color:#000000;text-decoration-line:none;text-decoration-style:solid;text-indent:0;text-orientation:mixed;text-transform:none;white-space:normal"/>
     <ellipse transform="matrix(.97525 .22108 -.17521 .98453 0 0)" cx="347.44" cy="-873.69" rx="4.7456" ry="4.6316" fill="#ffffff"/>
    </g>
    <path d="m485.2-812.51c-9.203-3.0933-19.424 6.0747-24.405 14.026-2.884 4.6033-5.5308 13.054-1.143 16.256 0.83148 0.60688 2.8678-1.1456 2.8678-1.1456 6.5506 2.7147 10.525-17.569 19.219-18.536 7.8586-0.87377 16.141 11.695 22.687 17.683 3.5688 3.2646 6.6675-1.0745 9.5895-0.6224-0.37878-3.8979-6.3288-5.41-7.3733-8.5579-4.1554-12.523-12.125-15.972-21.442-19.103z" fill="#28170b"/>
   </g>
  </g>
 </g>
</svg>
