<svg xmlns="http://www.w3.org/2000/svg" xmlns:xlink="http://www.w3.org/1999/xlink" version="1.1" id="svg-edited-version" x="0px" y="0px" viewBox="0 0 595.3 595.3" enable-background="new 0 0 595.3 595.3" xml:space="preserve" class="injected-svg" data-src="https://preview.pixlr.com/images/svg/100/1/767a120db361320558b97897ffb714ad9a329d7e9c818b5ee07a7f9e92f1ba9d.svg">
<g>
	<path fill="#9BA6BC" d="M236.3,325.2c-7.1-8.6-10.3-24.2-10.5-35.3c1.2,8.7,5.3,17,11.5,23.2c3.4-4.8,6.9-9.5,10.3-14.3   C246.4,308.4,242.5,317.6,236.3,325.2z M246.6,363.1c3.4-9.1,4.3-19.1,2.4-28.6c-1.8,5.6-3.5,11.2-5.3,16.8   c-7.8-4-14.3-10.6-18.2-18.5C229.3,343.4,237.2,357.2,246.6,363.1z M262.3,363.6c0.4,5.9,0.8,11.7,1.2,17.6   c-8.7-0.9-17.1-4.7-23.6-10.6c7.2,8.4,19.7,18.5,30.6,20.5C270.4,381.4,267.5,371.7,262.3,363.6z M285.1,401.4   c-7.1,0.3-14.4-1.7-20.3-5.7c6.8,5.9,18,12.5,27,12.9c-1.2-7.8-4.7-15.2-9.8-21.2C283,392,284,396.7,285.1,401.4z M265.3,341.7   c6.9-7.2,11.9-16.2,14.5-25.8c-4.3,3.7-8.5,7.4-12.8,11.2c-1.5,1.3-3.4,2.7-5.3,2c-0.9-0.3-1.5-1.1-2.1-1.9   c-2.4-3.1-4.5-6.5-6.2-10.1c-0.2,4.7,1.3,9.3,3.6,13.4C259.2,334.6,262.2,338.2,265.3,341.7z M276.8,361c-0.9-0.3-1.5-1.1-2.1-1.9   c-2.4-3.1-4.5-6.5-6.2-10.1c-0.2,4.7,1.3,9.3,3.6,13.4c2.3,4.1,5.3,7.7,8.4,11.2c6.9-7.2,11.9-16.2,14.5-25.8   c-4.3,3.7-8.5,7.4-12.8,11.2C280.6,360.3,278.7,361.7,276.8,361z M306.8,392.1c-0.7-0.3-1.3-0.9-1.8-1.5c-2-2.6-3.8-5.4-5.1-8.4   c-0.1,3.9,1.1,7.7,2.9,11.1c1.9,3.4,4.4,6.4,7,9.3c5.7-6,9.9-13.4,12-21.3c-3.5,3.1-7.1,6.2-10.6,9.2   C309.9,391.5,308.3,392.7,306.8,392.1z M331.3,405.3c-0.7-0.3-1.2-0.8-1.6-1.4c-1.8-2.3-3.4-4.9-4.6-7.6c-0.1,3.5,1,7,2.7,10   c1.7,3.1,4,5.8,6.3,8.4c5.2-5.4,8.9-12.1,10.8-19.3c-3.2,2.8-6.4,5.6-9.6,8.3C334.2,404.8,332.7,405.8,331.3,405.3z M313.5,361   c-0.9-0.3-1.5-1.1-2.1-1.9c-2.4-3.1-4.5-6.5-6.2-10.1c-0.2,4.7,1.3,9.3,3.6,13.4c2.3,4.1,5.3,7.7,8.4,11.2   c6.9-7.2,11.9-16.2,14.5-25.8c-4.3,3.7-8.5,7.4-12.8,11.2C317.3,360.3,315.3,361.7,313.5,361z M301.3,343.2   c6.9-7.2,11.9-16.2,14.5-25.8c-4.3,3.7-8.5,7.4-12.8,11.2c-1.5,1.3-3.4,2.7-5.3,2c-0.9-0.3-1.5-1.1-2.1-1.9   c-2.4-3.1-4.5-6.5-6.2-10.1c-0.2,4.7,1.3,9.3,3.6,13.4C295.1,336,298.1,339.7,301.3,343.2z M327,323.9c6.9-7.2,11.9-16.2,14.5-25.8   c-4.3,3.7-8.5,7.4-12.8,11.2c-1.5,1.3-3.4,2.7-5.3,2c-0.9-0.3-1.5-1.1-2.1-1.9c-2.4-3.1-4.5-6.5-6.2-10.1   c-0.2,4.7,1.3,9.3,3.6,13.4C320.8,316.8,323.9,320.4,327,323.9z M426.4,401.2c0.7,8.1,1.4,16.2,2.1,24.3c-28.9,3.9-57.9,7.7-87,6.3   c-29.1-1.4-58.5-8.5-82.7-24.8c-33.9-22.9-54.1-62.3-61-102.6c-5-29.4-3.6-59.3,0.8-88.9c-19.4-23.5-29.9-54.3-28.2-84.8   c-16.9-10.7-28.4-29.6-30-49.5c0.2,0.2,0.4,0.5,0.6,0.7c5.9,14.3,20,24.8,35.3,26.5c1.2,0.1,2.3,0.2,3.5,0.2c0.5,0,0.9,0,1.4,0   c14.2-0.2,27.4-7.4,41.3-10.3c23.2-4.8,48.6,3.3,64.7,20.6c-5.6-12.6-17.3-21.7-30.2-26.5c-12.6-4.7-26.3-5.7-39.7-5.3   c8.6-2.2,17.6-3.6,27.2-4.6c16.8-1.8,33.6-1.1,50.4,0.2c16.8-1.3,33.7-2.1,50.4-0.2c9.5,1,18.4,2.4,27,4.5   c-12.5-0.1-25.2,1-36.9,5.4c-12.9,4.8-24.6,14-30.2,26.5c16.1-17.3,41.6-25.4,64.7-20.6c13.9,2.9,27.1,10.1,41.3,10.3   c0.5,0,0.9,0,1.4,0c0.3,0,0.7,0,1,0c16.2-0.8,31.6-11.6,37.8-26.7c0.2-0.2,0.4-0.5,0.6-0.7c-1.6,21-14.3,40.7-32.6,51.1   c1.2,29.2-8.6,58.7-26.8,81.5c1.6,1.9,3.1,3.8,4.6,5.7c-2.8,0.2-5.6,1.2-7.8,3.3l-8.3,7.6c-5,4.6-7.8,11.1-8,18   c-0.2,8.7-1.5,17.5-3.3,25.9c-3.8,18.4-9.1,36.8-7.8,55.5c1.2,17.4,8.5,34.3,20.2,47.2C393.7,389.5,409.5,398.2,426.4,401.2z    M209.3,214.4c22.8,22.4,53.6,38.8,85.4,37.5c31.8,1.3,62.6-15.1,85.4-37.5c14-13.8,26.2-30.9,28.3-50.5   c2.7-25.4-13.9-51.5-38-59.8c-24.1-8.3-53.3,2.1-66.8,23.8c-4.5,7.3-7.2,15.3-8.9,23.7c-1.6-8.4-4.4-16.4-8.9-23.7   c-13.4-21.7-42.6-32.1-66.8-23.8c-24.1,8.3-40.8,34.5-38,59.8C183.1,183.4,195.2,200.6,209.3,214.4z M368.3,375.2   c-11.9-18.4-13.9-49.9-7.4-80.2c4.3-20,9.8-40.1,6.4-57.8c-21.1,14.6-46.9,22.3-72.6,21.8c-30.4,0.6-61-10.3-83.7-30.5   c-1.6-1.4-3.1-2.8-4.5-4.3c-2.1,4.1-3.8,8.6-5.2,13.5c0,0-12.7,80.2,29.1,135.4c41.7,55.2,112.1,61,130.5,52.8   C379.4,417.7,380.2,393.6,368.3,375.2z" originalFill="#9BA6BC"/>
	<path fill="#646D7E" d="M314.4,206.1c0.3,9-5.9,16.8-11.7,23.7c-2.1,2.5-4.3,5-6.4,7.5c-0.5,0.6-1.1,1.3-1.9,1.6   c-0.3,0.1-0.6,0.1-0.9,0.1c-0.3,0-0.6,0-0.9-0.1c-0.8-0.3-1.4-0.9-1.9-1.6c-2.1-2.5-4.3-5-6.4-7.5c-5.9-6.9-12.1-14.7-11.7-23.7   c0.4-9.3,8.9-17.5,18.2-17.5c0,0,0,0,0,0h5.6c0,0,0,0,0,0C305.6,188.6,314.1,196.8,314.4,206.1z M394.3,142.4   c-3.7,11.2-7.5,22.5-11.2,33.7c-4.4,13.2-16.5,21.9-30.7,21.3c-20.2-0.9-33.9-23.3-29-42.1c5.6-21.4,28-27,47.3-21.4   c4.7,1.4,10,2.9,15.2,2.9c1.3,0,2.7-0.1,4-0.2C393.4,136.5,396.1,136.9,394.3,142.4z M382.6,165c0-15.6-12.7-28.3-28.3-28.3   c-15.6,0-28.3,12.7-28.3,28.3s12.7,28.3,28.3,28.3C369.9,193.3,382.6,180.6,382.6,165z M197.8,304.4c-5-29.4-3.6-59.3,0.8-88.9   c-0.1-0.2-0.2-0.3-0.4-0.5c-0.4,1.2-0.8,2.5-1.1,3.7c-8.5,33.5-15.3,67.8-14.8,102.3c0.5,34.6,8.8,69.7,28.5,98.1   c10.8-8.5,19.4-19.2,26.1-31.1C216,365.2,203,335.1,197.8,304.4z M242.6,197.5c-14.2,0.6-26.3-8.1-30.7-21.3   c-3.7-11.2-7.5-22.5-11.2-33.7c-1.8-5.6,0.9-5.9,4.4-5.8c1.3,0.1,2.7,0.2,4,0.2c5.2,0,10.5-1.5,15.2-2.9c19.3-5.6,41.7,0,47.3,21.4   C276.5,174.1,262.8,196.6,242.6,197.5z M268.9,165c0-15.6-12.7-28.3-28.3-28.3c-15.6,0-28.3,12.7-28.3,28.3s12.7,28.3,28.3,28.3   C256.2,193.3,268.9,180.6,268.9,165z M440.1,277c-2.8-12.9-7.6-25.6-15.2-36.4c-5.6-7.9-12.8-14.8-21.2-19.7   c-4.6-2.7-10.4-1.9-14.4,1.7l-8.3,7.6c-5,4.6-7.8,11.1-8,18c-0.2,8.7-1.5,17.5-3.3,25.9c-3.8,18.4-9.1,36.8-7.8,55.5   c1.2,17.4,8.5,34.3,20.2,47.2c11.7,12.9,27.9,21.7,45.1,24.5c5.1,0.8,11.5,0.6,14-4c1-1.9,1.1-4.1,1.1-6.2   c0.4-16.6,0.8-33.3,1.2-49.9C444.2,319.8,444.7,298,440.1,277z M266.6,451.6c-0.1,0.7-0.1,1.4-0.2,2.1c2.1-3.6,3.6-7.5,3.9-11.6   c1.3,2.1,2.2,4.4,2.8,6.9c0.4-1.9,0.8-3.8,1.5-5.6c1.3,3.2,3,6.2,4.8,9.1c-0.1-0.5-0.1-1-0.2-1.5c-1-9.9,0.8-20,5.3-28.9   c0.2-0.5,0.5-0.9,0.8-1.4c-9-3.4-17.5-7.7-25.6-13c1.3,3.4,2.6,6.8,3.6,10.2C266.6,428.7,267.7,440.3,266.6,451.6z M377.2,451.3   c0.9,1.7,8.3,13.1,18.8,20.1c0.5,0.4,1.1,0.7,1.6,1.1c6.1-0.9,11.8-4.6,14.6-10.1c5.8,5.9,13.3,10.6,21.6,11.3   c8.3,0.6,17.2-3.6,20.4-11.3c3.2-7.7-1.4-18.1-9.5-19.5c3.3-0.3,6.7-0.5,10-0.8c-0.3-10.4-9.4-18-17-25.1   c-3.9-3.6-7.5-7.5-10.9-11.5c0.6,6.7,1.2,13.4,1.7,20.1c-16.4,2.2-32.9,4.4-49.4,5.6c0,0,0,0,0,0c-4.9,0.4-9.8,0.7-14.8,0.8   c0,0-12.7,0.4-22.9-0.1c-11.9-0.6-23.9-2.1-35.6-4.9c4.4,9.3,12.3,17,22,20.5c1.1-3.1,2.2-6.1,3.3-9.2c2.6,7.4,5.2,14.8,9.8,21.1   c2.6,3.4,5.9,6.4,9.7,8.5c2.1-1.5,4.2-3.1,6.2-4.9c2.9-2.7,5.5-5.8,7.6-9.2c0,0,0,0,0,0c2.1-3.6,3.6-7.5,3.9-11.6   c1.3,2,2.1,4.2,2.7,6.4c0.4-2.1,0.9-4.1,1.6-6.1C373.9,445.5,375.5,448.5,377.2,451.3" originalFill="#646D7E"/>
	<path fill="#F27C4D" d="M306,485c-0.1-0.4-0.2-0.9-0.3-1.3c-0.5-1.5-1.4-3-2.9-3.5c-1.3-0.4-2.8,0.1-3.8,1   c-0.5,0.5-0.9,1.1-1.2,1.7c-0.4,1-0.3,2.2,0.5,3.1l2.4,2.7c-0.2,0-0.4,0.1-0.7,0.1c-2.2,0.1-4.3-0.5-6.3-1.4   c-6.7-2.8-12.4-7.8-16.2-13.9c0.4,3.7,0.8,7.4,1.2,11.1c0.5,4.7,1,9.4,0.1,14c-0.9,4.6-3.4,9.1-7.6,11.2c-0.6,0.3-1.3,0.5-2,0.7   c0.4-0.8,0.8-1.7,1.1-2.5c0.5-1.1,1-2.3,0.8-3.5c-0.2-1.3-1.3-2.3-2.3-3c-1-0.7-2.1-1.2-3.3-1.3c-1.2-0.1-2.5,0.3-3.3,1.2   c-0.9,1.1-0.9,2.6-0.8,4c0.1,1.4,0.4,2.7,0.8,4c-0.5-0.3-0.9-0.7-1.3-1.1c-2.6-3.1-1.7-7.8-0.7-11.7c1.8-7.2,3.7-14.3,5.5-21.5   c-5.6,6.9-13.2,12-21,16.3c-3.7,2-8.6,3.7-11.9,1.6c1.5-1,3.2-1.8,4.2-3.4c0.6-1,0.7-2.3,0.3-3.4c-0.5-1.1-1.5-1.9-2.7-2   c-1.8-0.1-3.3,1.3-4.3,2.8c0,0.1-0.1,0.1-0.1,0.2c0.1-1.5,0.5-2.9,1.3-4.2c1.7-2.8,4.6-4.7,7.4-6.5c6.9-4.3,14-8.3,19.9-13.8   c6-5.5,10.8-12.7,11.5-20.7c1.3,2.1,2.2,4.4,2.8,6.9c0.4-1.9,0.8-3.8,1.5-5.6c4.9,11.6,13.1,21.7,23.4,28.9   c2.4,1.7,4.9,3.2,6.6,5.5C306.2,479.8,306.9,482.7,306,485z M382.6,165c0,15.6-12.7,28.3-28.3,28.3c-15.6,0-28.3-12.7-28.3-28.3   s12.7-28.3,28.3-28.3C369.9,136.7,382.6,149.4,382.6,165z M378.5,165c0-13.4-10.8-24.2-24.2-24.2c-13.4,0-24.2,10.8-24.2,24.2   c0,13.4,10.8,24.2,24.2,24.2C367.7,189.2,378.5,178.4,378.5,165z M268.9,165c0,15.6-12.7,28.3-28.3,28.3   c-15.6,0-28.3-12.7-28.3-28.3s12.7-28.3,28.3-28.3C256.2,136.7,268.9,149.4,268.9,165z M264.8,165c0-13.4-10.8-24.2-24.2-24.2   c-13.4,0-24.2,10.8-24.2,24.2c0,13.4,10.8,24.2,24.2,24.2C253.9,189.2,264.8,178.4,264.8,165z M402.6,476.9   c-1.7-2.3-4.2-3.9-6.6-5.5c-10.3-7.2-18.5-17.4-23.4-28.9c-0.7,2-1.3,4-1.6,6.1c-0.5-2.3-1.4-4.4-2.7-6.4   c-0.7,8.1-5.5,15.3-11.5,20.7c-6,5.5-13.1,9.5-19.9,13.8c-2.8,1.7-5.7,3.6-7.4,6.5c-0.8,1.3-1.2,2.8-1.3,4.2   c0.2-0.3,0.3-0.6,0.5-0.9c1-1.5,2.5-2.9,4.3-2.8c1.2,0.1,2.2,0.9,2.7,2c0.5,1.1,0.3,2.4-0.3,3.4c-1,1.8-3.2,2.5-4.8,3.8   c3.4,2.3,8.4,0.6,12.1-1.5c7.7-4.2,15.1-9.2,20.7-15.9c-1.7,6.7-3.5,13.5-5.2,20.2c-1,3.9-1.9,8.6,0.7,11.7c0.5,0.6,1,1,1.6,1.4   c-0.4-1.3-0.7-2.6-0.8-3.9c-0.1-1.4-0.1-2.9,0.8-4c0.8-0.9,2.1-1.3,3.3-1.2c1.2,0.1,2.3,0.6,3.3,1.3c1.1,0.7,2.1,1.7,2.3,3   c0.2,1.2-0.3,2.4-0.8,3.5c-0.3,0.7-0.6,1.4-0.9,2c0.5-0.2,0.9-0.3,1.4-0.6c4.2-2.1,6.7-6.6,7.6-11.2c0.9-4.6,0.4-9.3-0.1-14   c-0.4-3.7-0.8-7.4-1.2-11.1c3.8,6.2,9.5,11.1,16.2,13.9c2,0.8,4.1,1.5,6.3,1.4c0.3,0,0.5-0.1,0.8-0.1l-2.1-2.3   c-0.7-0.8-0.9-2-0.5-3.1c0.3-0.6,0.7-1.2,1.2-1.7c1-0.9,2.5-1.4,3.8-1c1.5,0.5,2.4,2,2.9,3.5c0,0.1,0,0.2,0.1,0.3   C404.8,481.3,404,478.7,402.6,476.9z" originalFill="#F27C4D"/>
	<path opacity="0.2" d="M236.9,388c-5.1,9.1-11.2,17.4-18.6,24.6c-21.6-40.8-32.1-93.2-23.5-140.4c0.3,10.8,1.2,21.5,3.1,32.1   C203,335.1,216,365.2,236.9,388z M408.4,163.9c-2.1,19.6-14.2,36.7-28.3,50.5c-22.7,22.3-53.3,38.7-85,37.6v-13.4   c0.4-0.3,0.8-0.7,1.2-1.2c2.1-2.5,4.3-5,6.4-7.5c5.9-6.9,12.1-14.7,11.7-23.7c-0.4-9.3-8.9-17.5-18.2-17.5c0,0,0,0,0,0h-1.2v-39   c1.7-7.7,4.3-15,8.4-21.7c13.4-21.7,42.6-32.1,66.8-23.8C394.5,112.3,411.1,138.5,408.4,163.9z M389.9,136.7   c-1.3,0.1-2.7,0.2-4,0.2c-5.2,0-10.5-1.5-15.2-2.9c-19.3-5.6-41.7,0-47.3,21.4c-4.9,18.7,8.8,41.2,29,42.1   c14.2,0.6,26.3-8.1,30.7-21.3c3.7-11.2,7.5-22.5,11.2-33.7C396.1,136.9,393.4,136.5,389.9,136.7z M294.9,259   c-30.4,0.6-61-10.3-83.7-30.5c-1.6-1.4-3.1-2.8-4.6-4.3c-2.1,4.1-3.8,8.6-5.2,13.5c0,0,0,0.3-0.1,0.8   c40.7,41,104.7,53.9,162.6,40.5c0.2-0.1,0.5-0.1,0.7-0.2c3.1-14.5,5.4-28.7,2.9-41.6C346.3,251.8,320.5,259.5,294.9,259z    M395.8,367.4c-21.2-40.1-31.1-116.5,11.7-144.1c-1.1-0.8-2.3-1.5-3.5-2.2c-4.7-2.7-10.6-2.1-14.6,1.6l-8.3,7.6   c-5,4.6-7.8,11.1-8,18c-0.2,8.7-1.5,17.5-3.3,26c-3.8,18.4-9.1,36.8-7.8,55.5c1.2,17.4,8.5,34.3,20.2,47.2   c11.6,12.8,27.6,21.5,44.5,24.4C414.5,394,403.8,382.9,395.8,367.4z M393.8,334.5c0.5,1.6,1.4,3,2.7,4.1c1.3,1,3,1.6,4.6,1.2   c2.2-0.5,3.7-2.6,4.1-4.8c0.4-2.2,0-4.4-0.6-6.6c-1.6-6.2-4.3-12.2-7.9-17.6c-1.8,4.3-3,8.8-3.6,13.4   C392.8,327.7,392.7,331.3,393.8,334.5z M424.1,332.4c1.6-1.4,1.8-3.8,1.7-6c-0.4-9.9-3.7-19.7-9.4-27.9c-3.1,6.1-4.7,12.8-4.7,19.6   c0,5.4,1.4,11.5,6,14.2C419.6,333.6,422.3,333.9,424.1,332.4z M432.9,309.8c-2.3,7.7-2.9,16-1.6,24c0.2,1.4,0.5,2.9,1.4,4   c0.8,1.1,2.4,1.9,3.7,1.5c1.7-0.6,2.4-2.6,2.6-4.4C440.5,324.9,438.8,318,432.9,309.8z M418.6,358.4c-2-6.7-4.1-13.5-6.1-20.2   c-3.6,6.9-5.2,14.9-4.5,22.7c0.2,2.4,0.6,4.8,2.1,6.8c1.4,1.9,4,3.2,6.3,2.4c2.1-0.7,3.3-3,3.5-5.2   C419.9,362.7,419.2,360.5,418.6,358.4z M434.9,359.3c-1.8-5.2-4.1-10.2-7-14.9c-2.1,5.3-2.4,11.3-0.8,16.8c0.5,1.6,1.1,3.3,2.4,4.4   c1.3,1.1,3.3,1.5,4.6,0.6c1-0.7,1.5-2,1.6-3.2S435.3,360.5,434.9,359.3z M429,385.5c1-0.2,1.8-1.1,2.1-2.2s0.2-2.1,0-3.2   c-0.9-4.9-3.1-9.6-6.4-13.4c-2.5,5.1-2.3,11.4,0.6,16.2C426.1,384.4,427.4,385.8,429,385.5z M262,508.6c-0.1,0.1-0.3,0.3-0.4,0.4   c0.2,0.2,0.4,0.4,0.7,0.5C262.2,509.2,262.1,508.9,262,508.6z M304.6,477.8c-1.7-2.3-4.2-3.9-6.6-5.5c-9.9-7-17.8-16.6-22.8-27.7   c-1.3,19.7,2.5,40.6-7.2,56.5c0.3,0.2,0.6,0.3,0.9,0.5c1.1,0.7,2.1,1.7,2.3,3c0.2,1.2-0.3,2.4-0.8,3.5c-0.4,0.8-0.8,1.7-1.1,2.5   c0.7-0.2,1.4-0.4,2-0.7c4.2-2.1,6.7-6.6,7.6-11.2c0.9-4.6,0.4-9.3-0.1-14c-0.4-3.7-0.8-7.4-1.2-11.1c3.8,6.2,9.5,11.1,16.2,13.9   c2,0.8,4.1,1.5,6.3,1.4c0.2,0,0.4-0.1,0.7-0.1l-2.4-2.7c-0.7-0.8-0.9-2-0.5-3.1c0.3-0.6,0.7-1.2,1.2-1.7c1-0.9,2.5-1.4,3.8-1   c1.5,0.5,2.4,2,2.9,3.5c0.1,0.4,0.2,0.9,0.3,1.3C306.9,482.7,306.2,479.8,304.6,477.8z M354,448l4.9-8.6c0,0,0.3,4.8,5.8,9.6   c0.4-5.7,0.2-11.5-0.5-17.2c0,0-12.7,0.4-22.9-0.1c-1.2-0.1-2.3-0.1-3.5-0.2C338.6,434.4,341.6,440.8,354,448z M440.4,434.1   c0,0-4-9-12.8-19.1c0.3,3.5,0.6,7,0.9,10.5c-16.4,2.2-32.9,4.4-49.4,5.6c0,0,0,0,0,0c-1.9,6.4-2.5,13.2-1.8,19.8c0,0.1,0,0.2,0,0.4   c0.2,0.4,1.6,2.6,3.8,5.6c3,0.8,6.4,1.4,10.2,1.8l0.8-14.3c0,0,16.8,11,37.6,12.3l-7.8-17.6C421.9,439,429.7,441.1,440.4,434.1z    M402.6,476.9c-1.7-2.3-4.2-3.9-6.6-5.5c-9.6-6.7-17.3-16-22.3-26.6c0,18.7-0.4,38.8-6.9,56c0.2,0.1,0.4,0.2,0.6,0.3   c1.1,0.7,2.1,1.7,2.3,3c0.2,1.2-0.3,2.4-0.8,3.5c-0.3,0.7-0.6,1.3-0.9,2c0.5-0.2,0.9-0.3,1.4-0.6c4.2-2.1,6.7-6.6,7.6-11.2   c0.9-4.6,0.4-9.3-0.1-14c-0.4-3.7-0.8-7.4-1.2-11.1c3.8,6.2,9.5,11.1,16.2,13.9c2,0.8,4.1,1.5,6.3,1.4c0.3,0,0.5-0.1,0.8-0.1   l-2.1-2.3c-0.7-0.8-0.9-2-0.5-3.1c0.3-0.6,0.7-1.2,1.2-1.7c1-0.9,2.5-1.4,3.8-1c1.5,0.5,2.4,2,2.9,3.5c0,0.1,0,0.2,0.1,0.3   C404.8,481.3,404,478.7,402.6,476.9z" fill="#000000" originalFill="#000000"/>
	<path fill="#161618" d="M354.3,140.8c-13.4,0-24.2,10.8-24.2,24.2c0,13.4,10.8,24.2,24.2,24.2c13.4,0,24.2-10.8,24.2-24.2   C378.5,151.6,367.7,140.8,354.3,140.8z M360.7,167.7c-5.2,0-9.4-4.2-9.4-9.4c0-5.2,4.2-9.4,9.4-9.4c5.2,0,9.4,4.2,9.4,9.4   C370.1,163.5,365.9,167.7,360.7,167.7z M230.1,496.6c-0.4,0.5-1.2,0.9-1.8,0.5c-0.5-0.3-0.7-1-0.7-1.7c-0.1-3,0.9-5.9,2.6-8.4   c1-1.5,2.5-2.9,4.3-2.8c1.2,0.1,2.2,0.9,2.7,2c0.5,1.1,0.3,2.4-0.3,3.4c-1.3,2.3-4.6,2.9-6,5.2   C230.8,495.4,230.6,496.1,230.1,496.6z M265.5,500.3c1.2,0.1,2.3,0.6,3.3,1.3c1.1,0.7,2.1,1.7,2.3,3c0.2,1.2-0.3,2.4-0.8,3.5   c-1,2.2-2,4.4-3,6.6c-0.2,0.5-0.6,1.1-1.1,1.2c-0.6,0.1-1.1-0.5-1.5-1c-1.9-2.8-3.1-6-3.4-9.3c-0.1-1.4-0.1-2.9,0.8-4   C263.1,500.6,264.3,500.2,265.5,500.3z M299.1,481.3c1-0.9,2.5-1.4,3.8-1c1.5,0.5,2.4,2,2.9,3.5c0.8,2.5,0.7,5.3-0.3,7.7   c-0.2,0.5-0.7,1.1-1.2,1c-0.2-0.1-0.3-0.2-0.5-0.4l-5.3-6c-0.7-0.8-0.9-2-0.5-3.1C298.2,482.4,298.6,481.8,299.1,481.3z    M397.5,480.7c1-0.9,2.5-1.4,3.8-1c1.5,0.5,2.4,2,2.9,3.5c0.8,2.5,0.7,5.3-0.3,7.7c-0.2,0.5-0.7,1.1-1.2,1   c-0.2-0.1-0.3-0.2-0.5-0.4l-5.3-6c-0.7-0.8-0.9-2-0.5-3.1C396.6,481.8,397,481.2,397.5,480.7z M363.9,499.7   c1.2,0.1,2.3,0.6,3.3,1.3c1.1,0.7,2.1,1.7,2.3,3c0.2,1.2-0.3,2.4-0.8,3.5c-1,2.2-2,4.4-3,6.6c-0.2,0.5-0.6,1.1-1.1,1.2   c-0.6,0.1-1.1-0.5-1.5-1c-1.9-2.8-3.1-6-3.4-9.3c-0.1-1.4-0.1-2.9,0.8-4C361.5,500,362.7,499.6,363.9,499.7z M328.5,496   c-0.4,0.5-1.2,0.9-1.8,0.5c-0.5-0.3-0.7-1-0.7-1.7c-0.1-3,0.9-5.9,2.6-8.4c1-1.5,2.5-2.9,4.3-2.8c1.2,0.1,2.2,0.9,2.7,2   c0.5,1.1,0.3,2.4-0.3,3.4c-1.3,2.3-4.6,2.9-6,5.2C329.2,494.8,329,495.5,328.5,496z M240.6,140.8c-13.4,0-24.2,10.8-24.2,24.2   c0,13.4,10.8,24.2,24.2,24.2c13.4,0,24.2-10.8,24.2-24.2C264.8,151.6,253.9,140.8,240.6,140.8z M234.1,167.7   c-5.2,0-9.4-4.2-9.4-9.4c0-5.2,4.2-9.4,9.4-9.4c5.2,0,9.4,4.2,9.4,9.4C243.5,163.5,239.3,167.7,234.1,167.7z" originalFill="#161618"/>
	<path fill="#D7D8DD" d="M243.5,158.3c0,5.2-4.2,9.4-9.4,9.4c-5.2,0-9.4-4.2-9.4-9.4c0-5.2,4.2-9.4,9.4-9.4   C239.3,148.9,243.5,153.2,243.5,158.3z M417.3,89.4c-13.8-0.2-27.5-1.9-41.2-2.3c-1.3,0-2.5-0.1-3.8-0.1c-12.5-0.1-25.2,1-36.9,5.4   c-12.9,4.8-24.6,14-30.2,26.5c16.1-17.3,41.6-25.4,64.7-20.6c13.9,2.9,27.1,10.1,41.3,10.3c0.5,0,0.9,0,1.4,0c0.3,0,0.7,0,1,0   c16.2-0.8,31.6-11.6,37.8-26.7c0.3-0.8,0.7-1.6,0.9-2.4C443.3,88,429.8,89.5,417.3,89.4z M222.4,98.3c23.2-4.8,48.6,3.3,64.7,20.6   c-5.6-12.6-17.3-21.7-30.2-26.5c-12.6-4.7-26.3-5.7-39.7-5.3c-0.3,0-0.6,0-1,0c-13.8,0.4-27.5,2.1-41.2,2.3c-12.4,0.2-26-1.4-35-10   c0.3,0.8,0.6,1.6,0.9,2.4c5.9,14.3,20,24.8,35.3,26.5c1.2,0.1,2.3,0.2,3.5,0.2c0.5,0,0.9,0,1.4,0   C195.4,108.4,208.5,101.2,222.4,98.3z M360.7,148.9c-5.2,0-9.4,4.2-9.4,9.4c0,5.2,4.2,9.4,9.4,9.4c5.2,0,9.4-4.2,9.4-9.4   C370.1,153.2,365.9,148.9,360.7,148.9z M370.3,104c-24.1-8.3-53.3,2.1-66.8,23.8c-4.5,7.3-7.2,15.3-8.9,23.7   c-1.6-8.4-4.4-16.4-8.9-23.7c-13.4-21.7-42.6-32.1-66.8-23.8c-24.1,8.3-40.8,34.5-38,59.8c2.1,19.6,14.2,36.7,28.3,50.5   c22.8,22.4,53.6,38.8,85.4,37.5c31.8,1.3,62.6-15.1,85.4-37.5c14-13.8,26.2-30.9,28.3-50.5C411.1,138.5,394.5,112.3,370.3,104z    M242.6,197.5c-14.2,0.6-26.3-8.1-30.7-21.3c-3.7-11.2-7.5-22.5-11.2-33.7c-1.8-5.6,0.9-5.9,4.4-5.8c1.3,0.1,2.7,0.2,4,0.2   c5.2,0,10.5-1.5,15.2-2.9c19.3-5.6,41.7,0,47.3,21.4C276.5,174.1,262.8,196.6,242.6,197.5z M302.7,229.9c-2.1,2.5-4.3,5-6.4,7.5   c-0.5,0.6-1.1,1.3-1.9,1.6c-0.3,0.1-0.6,0.1-0.9,0.1c-0.3,0-0.6,0-0.9-0.1c-0.8-0.3-1.4-0.9-1.9-1.6c-2.1-2.5-4.3-5-6.4-7.5   c-5.9-6.9-12.1-14.7-11.7-23.7c0.4-9.3,8.9-17.5,18.2-17.5c0,0,0,0,0,0h5.6c0,0,0,0,0,0c9.3,0,17.8,8.2,18.2,17.5   C314.8,215.2,308.6,223,302.7,229.9z M394.3,142.4c-3.7,11.2-7.5,22.5-11.2,33.7c-4.4,13.2-16.5,21.9-30.7,21.3   c-20.2-0.9-33.9-23.3-29-42.1c5.6-21.4,28-27,47.3-21.4c4.7,1.4,10,2.9,15.2,2.9c1.3,0,2.7-0.1,4-0.2   C393.4,136.5,396.1,136.9,394.3,142.4z M361,295c4.3-20,9.8-40.1,6.4-57.8c-21.1,14.6-46.9,22.3-72.6,21.8   c-30.4,0.6-61-10.3-83.7-30.5c-1.6-1.4-3.1-2.8-4.5-4.3c-2.1,4.1-3.8,8.6-5.2,13.5c0,0-12.7,80.2,29.1,135.4   c41.7,55.2,112.1,61,130.5,52.8c18.4-8.2,19.2-32.3,7.4-50.7C356.5,356.8,354.4,325.3,361,295z M321.2,309.4   c0.6,0.8,1.2,1.5,2.1,1.9c1.9,0.7,3.8-0.7,5.3-2c4.3-3.7,8.5-7.4,12.8-11.2c-2.5,9.6-7.6,18.6-14.5,25.8c-3.1-3.5-6.2-7.1-8.4-11.2   c-2.3-4.1-3.7-8.7-3.6-13.4C316.7,302.9,318.8,306.3,321.2,309.4z M331.6,347.9c-2.5,9.6-7.6,18.6-14.5,25.8   c-3.1-3.5-6.2-7.1-8.4-11.2c-2.3-4.1-3.7-8.7-3.6-13.4c1.7,3.6,3.8,7,6.2,10.1c0.6,0.8,1.2,1.5,2.1,1.9c1.9,0.7,3.8-0.7,5.3-2   C323,355.3,327.3,351.6,331.6,347.9z M295.5,328.7c0.6,0.8,1.2,1.5,2.1,1.9c1.9,0.7,3.8-0.7,5.3-2c4.3-3.7,8.5-7.4,12.8-11.2   c-2.5,9.6-7.6,18.6-14.5,25.8c-3.1-3.5-6.2-7.1-8.4-11.2c-2.3-4.1-3.7-8.7-3.6-13.4C291,322.1,293.1,325.5,295.5,328.7z    M259.6,327.2c0.6,0.8,1.2,1.5,2.1,1.9c1.9,0.7,3.8-0.7,5.3-2c4.3-3.7,8.5-7.4,12.8-11.2c-2.5,9.6-7.6,18.6-14.5,25.8   c-3.1-3.5-6.2-7.1-8.4-11.2c-2.3-4.1-3.7-8.7-3.6-13.4C255,320.7,257.1,324.1,259.6,327.2z M237.3,313.1c3.4-4.8,6.9-9.5,10.3-14.3   c-1.2,9.6-5.2,18.9-11.3,26.4c-7.1-8.6-10.3-24.2-10.5-35.3C227.1,298.5,231.2,306.8,237.3,313.1z M225.6,332.9   c3.9,7.9,10.4,14.4,18.2,18.5c1.8-5.6,3.5-11.2,5.3-16.8c1.9,9.5,1,19.6-2.4,28.6C237.2,357.2,229.3,343.4,225.6,332.9z    M239.9,370.6c6.5,5.9,14.9,9.7,23.6,10.6c-0.4-5.9-0.8-11.7-1.2-17.6c5.2,8.2,8.1,17.8,8.2,27.5C259.6,389,247.1,379,239.9,370.6z    M264.8,395.6c5.9,4,13.1,6,20.3,5.7c-1-4.7-2-9.3-3-14c5.2,6,8.6,13.4,9.8,21.2C282.8,408.2,271.6,401.6,264.8,395.6z    M280.4,373.7c-3.1-3.5-6.2-7.1-8.4-11.2c-2.3-4.1-3.7-8.7-3.6-13.4c1.7,3.6,3.8,7,6.2,10.1c0.6,0.8,1.2,1.5,2.1,1.9   c1.9,0.7,3.8-0.7,5.3-2c4.3-3.7,8.5-7.4,12.8-11.2C292.3,357.5,287.3,366.5,280.4,373.7z M309.8,402.6c-2.6-2.9-5.1-5.9-7-9.3   c-1.9-3.4-3.1-7.2-2.9-11.1c1.4,3,3.1,5.8,5.1,8.4c0.5,0.6,1,1.3,1.8,1.5c1.5,0.6,3.1-0.6,4.4-1.7c3.5-3.1,7.1-6.2,10.6-9.2   C319.6,389.2,315.5,396.6,309.8,402.6z M334,414.8c-2.3-2.6-4.6-5.3-6.3-8.4c-1.7-3.1-2.8-6.5-2.7-10c1.3,2.7,2.8,5.2,4.6,7.6   c0.4,0.6,0.9,1.1,1.6,1.4c1.4,0.5,2.8-0.5,4-1.5c3.2-2.8,6.4-5.6,9.6-8.3C343,402.7,339.2,409.4,334,414.8z" originalFill="#D7D8DD"/>
</g>
</svg>