<?xml version="1.0" encoding="UTF-8"?>
<!DOCTYPE svg  PUBLIC '-//W3C//DTD SVG 1.1//EN'  'http://www.w3.org/Graphics/SVG/1.1/DTD/svg11.dtd'>
<svg enable-background="new 0 0 841.89 595.28" version="1.1" viewBox="0 0 841.89 595.28" xml:space="preserve" xmlns="http://www.w3.org/2000/svg">
<path d="m354.24 374.54c-6.395 10.436-16.844 20.258-27.02 27.623-6.34 4.586-13.035 8.75-19.914 12.701-6.092 3.5-17.146 6.447-21.656 11.873-11.297 13.586 23.891 6.451 30.102 2.842 10.232-5.949 20.174-19.113 25.66-29.715-8.07 4.518-12.49 14.979-17.818 22.438-3.652 5.113-13.638 15.801-12.922 21.613 1.227 9.949 15.689-0.342 20.77-4.211 7.229-5.506 13.607-17.719 19.438-24.174 3.944-6.701 7.699-13.307 9.852-20.545-3.266 7.014-26.854 60.178-10.504 61.023 8.973 0.465 14.861-22.279 17.156-29.063 3.252-9.619 5.285-22.002 6.838-31.373 0.74 10.105 6.318 27.535 6.555 27.23 3.255-4.203 0.328-11.613 1.045-16.811 1.039-7.557 0.227-13.178-1.166-20.967-2.443-13.668-13.291-22.123-25.607-10.486" fill="#4993CF"/>
<path d="m370.07 416.44c1.581-4.322 3.457-16.986 4.052-21.59 0.504-0.504-3.174 4.814-3.676 8.305" fill="#1C50A3"/>
<path d="m374.12 394.81c-0.637 4.672 2.959 17.242 4.388 21.66 1.961-2.699 0.224-21.326-3.79-21.66" fill="#1C50A3"/>
<path d="m362.96 389.78c-1.402 1.867-2.066 5.902-3.131 8.445-1.457 3.48-3.348 6.729-4.863 10.133-2.666 5.986-5.156 11.953-7.246 18.176-1.779 5.301-3.596 10.203-3.883 15.82-0.129 2.498-0.557 6.053 0.307 8.383 2.051 5.531 6.701 8.238 10.223 3.92 0.693-0.852-1.027-2.715-2.715-5.902-1.666-3.951-1.541-10.996-1.541-14.443 0-6.01 1.859-9.77 3.961-15.227 2.113-5.49 4.314-10.758 6.58-16.072 1.072-2.518 3.76-8.764 2.607-12.635" fill="#2C5BAA"/>
<path d="m355.46 382.74c-1.244 1.912-6.134 8.391-7.69 10.73-1.701 2.557-3.568 5.041-5.593 7.475-3.619 4.352-7.126 8.629-10.718 12.934-3.575 4.283-7.606 8.932-11.101 12.426-5.74 5.738-8.664 9.188-9.583 14.66-0.431 2.563-0.167 1.762-0.272 2.541 4.435 2.359 9.847-7.414 12.246-10.178 3.636-4.186 6.554-8.961 9.929-13.438 7.002-9.285 14.71-18.375 20.618-28.453 1.917-3.271 6.135-10.236 6.301-13.994" fill="#3557A7"/>
<path d="m353.58 375.37c-3.273 4.697-5.748 7.795-9.709 12.225-4.217 4.713-12.103 12.072-17.457 15.236-11.705 6.914-24.01 12.918-36.098 19.285-2.387 1.258-11.704 10.619-4.475 10.229 2.88-0.154 5.943-1.936 8.404-3.182 2.662-1.35 5.074-2.518 7.782-3.682 11.635-5.006 24.852-14.809 35.035-22.914 4.051-3.223 6.177-4.797 9.079-9.139 2.508-3.752 10.336-12.566 10.611-17.092-1.115-0.059-1.411-0.666-2.461-0.967" fill="#3357A7"/>
	<path d="m597.8 364.45c6.615-9.087 1.732-36.62-2.229-46.656-3.93 0.652-6.205 4.768-8.633 7.939 3.154-10.057 4.131-23.783-3.193-32.276-2.133 2.982-4.1 6.039-6.641 8.689 1.43-9.589-6.176-20.627-14.791-24.803-0.912 2.647-1.738 5.422-2.43 8.171-0.254-6.216-2.685-14.176-8.426-17.123-3.688 4.433-8.712 13.627-8.982 19.012-3.691-0.327-5.646-3.585-8.293-5.477-2.828 9.029-12.651 25.805 0.379 32.72-3.941-0.638-7.725-0.128-11.551-1.669 3.551 6.634 2.115 13.376 7.551 19.604 5.525 6.328 13.766 10.111 21.335 13.126-2.017 1.318-4.953 1.761-7.546 1.209 7.097 10.725 19.954 19.569 33.746 17.951-2.158 0.052-5.01 0.769-7.32 1.104 5.008 5.51 24.854 10.687 26.582 0.031" fill="#5BBA47"/>
	<path d="m247.03 380.58c-7.405-7.55-12.838-10.403-23.026-8.897-10.106 1.492-14.634 2.852-25.013-2.115 2.005 7.9 4.155 13.564 11.248 18.225 5.042 3.312 14.943 0.626 15.917 6.738 3.608-0.791 7.372-1.999 10.375-3.852 0.569 1.633 2.109 2.268 2.56 3.066 1.969-4.305 9.223-11.207 14.186-11.869-1.27-0.483-3.919-1.406-5.475-1.535" fill="#6CBE45"/>
	<path d="m459.12 390.38c-16.234-5.063-37.066 7.183-43.224 21.865-3.168 7.555-4.428 16.117-7.229 23.84-2.848 7.852-6.696 14.752-10.849 21.716 7.788 2.357 17.347-1.101 23.771-4.938-0.484 3.074-1.18 6.019-0.845 8.914 3.369-1.365 7.354-6.014 10.043-8.752 1.277-1.301 3.379-5.001 4.994-5.614 2.618-0.995 3.669 1.045 5.902 0.398 5.078-1.468 7.283-2.116 11.218-7.638 3.019-4.235 6.583-9.123 8.828-13.752 9.337 7.32 13.505-22.821 14.606-28.309-0.979 4.11-2.904 8.326-2.465 12.546 1.225-6.668 4.023-13.521 4.514-20.193-6.957 0.474-17.565 0.138-24.665-1.137" fill="#67BD45"/>
	<path d="m228.54 320.85c-7.958-12.269-21.686-28.054-36.623-28.861 1.718 2.163 1.993 4.488 2.654 7.075-7.2-0.225-16.303 1.375-23.694 3.632 1.474 1.533 2.096 4.341 3.552 5.859-6.776 4.875-13.679 6.892-21.077 10.012 3.91 5.683 11.798 7.251 16.268 12.273-2.521 1.87-5.477 3.521-7.768 5.506 9.103 7.474 20.74 3.174 31.028 5.535-0.177 3.953-1.849 6.976-4.077 10.318 10.169 1.797 18.569-4.27 27.701-8.106 2.716 4.112-0.616 8.566-2.645 11.923 5.116-3.315 10.727-4.891 15.97-8.178 6.467-4.056 7.288-7.263 11.286-13.19-2.993-4.863-8.63-7.112-11.704-12.441" fill="#47B649"/>
	<path d="m281.69 388.05c-7.25-5.782-33.746 2.991-38.768 11.106 0.798 0.023 1.622-0.178 2.304-0.127-5.487 7.978-13.361 13.36-14.775 23.445 7.396-3.546 5.629 7.483 5.796 11.897 0.222 5.855 0.761 13.293 3.171 18.463 4.297-2.133 6.938-6.237 10.204-9.79 1.86 2.379 2.854 5.684 2.449 8.817 13.566-3.592 16.69-14.103 23.495-24.747 0.418 2.01 2.451 3.955 3.11 5.327 10.519-12.174 12.139-29.904 5.483-44.371-1.004 0.513-1.074-0.07-1.721-0.324" fill="#149C48"/>
	<path d="m665.31 393.03c-16.07 7e-3 -37-3.964-51.453-10.685-6.404-2.978-27.705-22.184-33.283-28.588 0.24 10.378 22.354 21.656 20.691 31.412-14.682 0.482-50.214-1.011-65.791-1.011-16.396 0-32.625-2.038-48.569-4.977-19.872-3.662-42.666-1.475-63.27-1.475h-67.212c-14.306 0-28.793 0.815-42.729-1.637-15.129-2.661-22.63-7.492-33.887-17.089-9.368-7.987-19.272-15.418-30.631-20.59-5.393-2.456-32.222-14.498-29.712-1.936 24.436-2.062 51.154 21.891 62.522 41.312-8.341 1.754-17.689 0.475-26.354 0.746-9.954 0.312-18.527 3.618-27.982 5.642 15.22 0.018 31.521 0.135 45.464 5.411 0 6.271-2.498 13.734-6.916 19.428 7.708 0.18 11.353-6.184 14.253-12.739 4.148-9.376 4.842-11.162 15.502-11.29 13.692-0.164 28.32-1.369 41.936-0.042 29.12 2.839 59.609 1.655 89.295 1.655 15.799 0 33.114 2.511 48.405 1.734-9.567 9.923-16.62 12.631-28.604 16.652 7.785 0.571 16.819-3.328 24.129-5.685 7.62-2.457 12.068-3.039 20.045-3.832 13.826-1.374 28.575 0 42.481 0 24.674 0 105.66 16.859 113.72 20.162 7.66 3.136 15.371 4.834 22.781 7.885 6.18 2.545 11.025 6.864 16.773 9.776-0.787-7.741 1.82-17-0.623-24.92-1.81-5.88-10.4-11.47-20.98-15.31" fill="#605921"/>
<path d="m426.44 293.27c4.9-14.099-0.283-11.966 8.188-25.811 7.383-12.064 31.281-7.689 43.311-1.687 16.148 8.057 10.244 20.333 4.051 33.515-6.58 14.005-14.307 26.277-22.342 39.148-12.258 19.637-21.742 25.463-49.285 33.879-0.457 0.139 0.113-0.465 0 0 0 0-10.227 5.904-11.686-2.395-0.451-2.576 1.451-5.885 4.285-6.004-13.086 1.084-1.121-11.607 0.789-15.518-16.1 2.682 5.9-13.463 15.066-31.796" fill="#3087C8"/>
<path d="m379.5 224.06c-3.377-16.835 1.449-39.445 12.342-52.44 12.564-14.99 33.961-15.41 35.145-38.875 6.172 0.771 10.41 10.698 6.627 16.267 6.029-3.506 4.711-9.542 5.039-15.433 12.287 0.822 15.67 13.921 4.297 18.852 10.047 5.147 10.271-4.289 10.707-11.355 11.676-2.771 17.82 13.854 7.83 19.734 19.75 7.956 26.254 38.175 26.867 56.347 17.668-2.649 12.206 15.101 5.665 27.031-8.02 14.628-9.735 23.472-25.485 26.784-13.33 2.804-26.721 12.628-40.836 11.645-7.881-0.549-11.359-5.8-18.105-8.559-6.002-2.455-13.518-3.032-20.229-3.107-13.775-0.155-24.798-2.455-26.571-18.701-1.258-11.529 4.409-38.25 21.486-28.189" fill="#76BEEA"/>
<path d="m418.99 374.72c-2.229-0.955-3.288-1.129-5.11 1.664 2.121 3.238 6.63 6.287 8.556 9.406 1.605 2.602 3.792 9.164 3.792 9.164s0.521-14.441-1.332-16.275c4.187 6.066 5.618 9.463 6.312 17.691 4.451-3.705 0.583-14.951-1.473-18.363 1.344 1.826 4.559 2.438 5.924 3.803 1.866 1.867 3.432 8.264 3.432 8.264s1.672-0.482 1.672-4.869c0-8.36-13.6-17.14-21.77-10.48" fill="#CCAA29"/>
<path d="m384.02 227.11c2.192-0.815 4.99-17.944 7.395-22.521 4.914-9.348 11.479-16.827 22.443-17.844 10.633-0.986 16.61 5.044 17.761 15.383 0.953 8.566 2.874 18.945 2.278 27.26-14.914 5.027-37.396 15.286-49.877-0.666" fill="#046896" opacity=".4"/>
<path d="m435.96 222.86c2.193-0.815 4.99-17.944 7.396-22.521 4.912-9.348 11.477-16.827 22.441-17.844 10.633-0.986 16.611 5.044 17.762 15.383 0.953 8.566 2.873 18.945 2.279 27.26-14.916 5.027-37.398 15.286-49.879-0.666" fill="#046896" opacity=".4"/>
<path d="m392.06 227.21c3.941-10.919 3.297-23.802 16.174-28.444 13.01-4.69 19.184 1.269 20.926 13.122 1.662 11.316 3.516 20.631-9.68 22.578-12.047 1.777-17.729-3.251-27.42-6.449" fill="#fff"/>
<path d="m444.86 223.18c3.941-10.919 3.295-23.802 16.172-28.444 13.012-4.69 19.186 1.269 20.928 13.122 1.662 11.316 3.514 20.631-9.682 22.578-12.045 1.777-17.727-3.251-27.418-6.449" fill="#fff"/>
<ellipse cx="468.02" cy="216" rx="10.08" ry="15.021"/>
<ellipse cx="415.75" cy="222.73" rx="10.08" ry="15.021"/>
<path d="m378.06 221.17c15.311 1.573 31.028 8.871 46.219 11.426 13.752 2.313 30.281-10.166 44.352-13.73 13.387-3.392 31.658-7.375 34.879 9.719 3.004 15.95-7.803 27.138-21.172 35.708-13.313 8.535-32.617 16.008-48.035 18.346-16.299 2.473-25.627-3.455-42.259-7.48-14.198-3.436-13.903-3.726-15.015-4.315-10.646-5.655-4.089-1.997-15.178-10.476-6.949-5.312-6.804-20.934-0.473-29.542 6.406-8.71 9.105-10.542 15.861-9.775" fill="#40C0C3"/>
<path d="m479.91 267.75c-1.719 0.488-4.982 2.465-5.959 4.111-1.811 3.043 1.975 3.272 4.762 3.884 6.471 1.419 5.736 6.06 6.023 11.986 2.055-0.514 1.449-8.001 1.449-10.12 0.01-5-1.69-7.73-6.27-9.86" fill="#2556A7"/>
<path d="m423.21 151.54c5.123-1.597 5.613-10.833 5.514-15.357 5.448 4.695 3.077 16.753-5.193 15.092" fill="#3965B0" opacity=".6"/>
<path d="m437.32 151.2c5.674 0.445 7.869-11.012 5.324-14.696 3.244 0.644 5.189 5.881 4.41 8.827-0.998 3.788-5.002 5.166-7.967 5.869" fill="#0E4BA0" opacity=".5"/>
<path d="m454.11 157.09c2.574-2.929 5.646-9.32 2.451-12.987 5.115-0.231 9.283 3.646 8.451 9.085-0.615 4.02-8.512 8.182-10.902 3.607" fill="#174BA0" opacity=".4"/>
	<path d="m421.28 232.26c6.9-6.154 6.833-13.086 17.803-15.281 7.574-1.515 16.793-1.128 24.814-0.726 0.959 11.128-6.076 21.881-16.549 25.665 6.246 2.509 10.01 11.816 10.904 17.642-15.684 0.777-36.004-7.814-36.973-24.88" fill="#FCE131"/>
	<path d="m434 235c6.609-3.611 6.971-8.231 15.201-8.569 0.213 5.186-1.711 10.336-4.48 14.173 4.133 3.186 5.156 6.898 4.48 12.017-10.398 0.986-10.264-14.451-15.201-16.007" fill="#F2652A"/>
<path d="m434.51 235.53c0.698 0.482 2.047 0.384 2.959 0.624 1.002 0.263 2.068 0.735 2.956 1.26 1.734 1.022 3.089 1.848 5.008 2.398-3.397 0.982-8.09-2.398-10.739-3.871" fill="#BF4826"/>
<path d="m424.32 213.58c-1.027 0.931-3.084 3.204-3.419 4.535 1.335 0.653 5.524 4.668 6.301 1.952 0.687-2.402-0.165-6.372-2.882-6.612" fill="#fff"/>
<path d="m476.77 206.04c-1.028 0.931-3.085 3.204-3.419 4.535 1.334 0.653 5.523 4.668 6.301 1.952 0.686-2.402-0.165-6.372-2.882-6.612" fill="#fff"/>
<path d="m423.07 232.44c4.727-1.76 4.872-8.679 9.213-10.991 5.42-2.887 11.848-2.812 17.921-3.271 2.11-0.16 4.101-0.472 6.3-0.472 1.573 0 3.574 0.309 5.085-0.103-4.231 2.8-10.451 3.689-15.408 4.476-4.685 0.744-11.628 1.208-14.841 4.992-0.765 0.9-1.64 1.609-2.407 2.494-0.78 0.898-1.173 1.972-2.145 2.716-0.493 0.378-1.298 0.564-1.726 1.009-0.498 0.517-0.42 0.524-0.584 1.371-0.213 1.096-0.375 2.008-0.156 3.146 0.451 2.347 1.814 4.951 3.277 6.967 1.374 1.895 3.924 3.034 5.959 4.121 3.207 1.713 6.441 3.774 9.766 5.24 3.015 1.33 7.135 2.842 10.57 2.76 0.511-2.729-1.295-6.555-2.239-9.049 0.723 3.465 5.146 6.35 4.486 10.423-4.415 0.224-9.186-0.415-13.196-2.013-2.353-0.938-4.788-1.899-6.926-3.182-1.977-1.185-3.629-2.502-5.451-3.872-2.708-2.036-4.535-3.716-5.875-6.996-0.698-1.711-4.273-8.322-1.998-9.767" fill="#FCB02B"/>
<path d="m381.55 221.27c-0.386-2.744 0.125-5.244 0.125-7.992 0-3.073-0.019-6.113 0.278-9.121 0.306-3.102 1.357-6.158 1.816-9.144 0.449-2.922 0.965-5.541 2.644-7.984 1.841-2.68 1.601-6.221 3.25-9.123 1.411-2.48 3.687-5.111 5.872-6.864 2.183-1.75 4.275-3.61 6.646-5.155 2.839-1.85 5.754-2.749 8.093-5.313 1.687-1.851 3.436-3.329 5.492-4.766 1.635-1.141 3.01-3.249 4.893-3.73-1.529 2.132-2.58 4.127-4.77 5.634-2.004 1.379-4.016 2.569-5.997 3.995-2.03 1.461-3.638 3.053-5.841 4.381-2.008 1.209-4.586 2.503-6.277 4.114-1.896 1.804-3.142 4.241-4.797 6.24-1.783 2.153-2.879 3.998-4.029 6.618-0.518 1.181-0.674 2.348-1.178 3.494-0.324 0.735-0.873 1.45-1.256 2.159-0.443 0.821-0.407 1.264-0.594 2.189-0.289 1.441-1.141 2.722-1.367 4.183-0.216 1.404-0.44 2.898-0.752 4.306-0.197 0.892-0.626 1.693-0.752 2.556-0.13 0.89-8e-3 1.831-0.122 2.716-0.267 2.069-0.253 4.152-0.253 6.274 0 3.682 0.045 7.342-0.145 11.063-0.358 0.062-0.852 0.062-1.21 0-0.047-0.458 0.03-0.906 0.106-1.354" fill="#5273B8" opacity=".6"/>
<path d="m414.4 278.56c5.221 1.275 10.709 1.183 16.159 1.183 5.42 0 10.51-0.817 15.606-2.585 3.844-1.334 13.244-3.484 14.792-7.329-4.341 1.354-10.1 4.269-14.792 4.958-5.244 0.77-11.239 2.656-16.65 2.656" fill="#0886BF"/>
<path d="m377.14 228.24c-16.643-2.563-21.912 34.015-4.362 35.578-7.01-2.057-9.097-13.232-7.939-19.03 0.958-4.801 2.367-7.171 4.675-11.346 1.51-2.73 6.44-2.53 7.62-5.2" fill="#5273B8" opacity=".6"/>
<path d="m361.96 377.89c16.878 6.92 43.691 3.188 58.73-2.615 15.705-6.061 34.991-16.621 44.427-31.723 7.412-11.861 13.466-38.318 9.134-52.151-5.566-17.771-21.607-21.09-38.098-20.924-12.936 0.131-26.59 2.27-35.305 12.274-8.881 10.193-12.229 24.406-18.906 36.113-6.178 10.828-11.898 22.164-18.549 32.42-3.074 4.74-8.549 9.939-10.543 15.117-3.842 9.979 1.938 8.709 8.303 11.334" fill="#76BEEA"/>
<path d="m354.3 375.37c-2.52-2.52-4.473-6.988-1.658-10.615 6.944-8.947 22.295-23.816 28.539-32.293 9.747-13.227 16.674-46.134 41.568-51.819 7.623-1.742 27.886-1.492 35.413 1.052 9.939 3.357 12.601 13.4 13.921 19.245 2.151 9.521-1.506 27.218-10.148 41.052-6.596 10.559-14.964 20-23.008 24.703-17.207 10.057-24.879 11.59-37.035 12.814-5.281 0.533-18.323 1.039-26.448 2.131" fill="#40C0C3"/>
<path d="m357.82 295.51c4.9-14.099-0.283-11.967 8.188-25.811 7.383-12.064 31.281-7.689 43.311-1.687 16.148 8.057 15.346 23.093 9.152 36.274-6.578 14.005-16.32 28.461-28.305 37.252-18.912 13.871 0.602 0.328-22.789 15.723-0.4 0.264-26.923 13.531-27.037 13.996 0 0-1.25 1.113-10.281 3.086-2.257 0.494 1.449-8.068 4.283-8.188-13.086 1.084-1.121-11.607 0.791-15.518-16.102 2.682 5.898-13.463 15.066-31.796" fill="#3087C8"/>
<path d="m401.25 277.99c16.377 13.968-1.744 35.517-12.176 46.248-6.041 6.216-10.85 10.78-18.389 15.509-6.442 4.043-19.669 14.834-25.832 19.193 10.481 3.414 28.25-8.961 36.807-14.594 10.891-7.17 10.95-6.654 19.967-16.791 2.698-2.699 5.43-6.967 7.18-9.363 5.115-10.615 12.077-21.33 10.908-34.139-0.572-6.271-4.475-12.188-10.732-13.892-5.65-1.55-13.97 2.36-7.74 7.82" fill="#1E51A4"/>
<path d="m369.6 273.53c-3.903 2.977-3.695 10.896-4.279 15.483-0.819 6.432-1.157 12.898-2.959 19.126-3.578 12.366-12.115 19.794-18.271 30.755 5.439-1.238 10.294-7.908 13.289-11.828 3.848-5.033 7.91-11.24 10.33-17.117 2.297-5.579 3.199-12.617 3.779-18.557 0.519-5.316 0.759-16.382 7.002-18.073-2.386-1.549-5.1-1.063-8.208-0.266" fill="#45C7EC"/>
<path d="m384.88 381.5c-2.23-0.955-3.289-1.129-5.111 1.664 2.121 3.238 6.631 6.287 8.557 9.406 1.605 2.602 3.791 9.164 3.791 9.164s0.521-14.441-1.332-16.275c4.188 6.066 5.619 9.463 6.313 17.691 4.451-3.705 0.582-14.951-1.473-18.363 1.344 1.826 4.559 2.439 5.924 3.805 1.866 1.865 3.432 8.264 3.432 8.264s1.672-0.482 1.672-4.871c0.01-8.37-13.6-17.15-21.77-10.49" fill="#CCAA29"/>
</svg>
