<?xml version="1.0" encoding="UTF-8"?>
<!DOCTYPE svg  PUBLIC '-//W3C//DTD SVG 1.1//EN'  'http://www.w3.org/Graphics/SVG/1.1/DTD/svg11.dtd'>
<svg enable-background="new 0 0 850.39 850.39" version="1.1" viewBox="0 0 850.39 850.39" xml:space="preserve" xmlns="http://www.w3.org/2000/svg">
	<path d="m547.61 449.27s19.51 20.951 22.971 29.67c4.553 11.471 4.785 49.131 4.785 49.131h5.422v4.146s11.684-1.756 14.996 0c2.385 1.264 6.061 8.934 6.061 8.934l35.732-24.564s-0.523-9.57-2.553-11.805c-1.852-2.041-7.965-2.549-10.209-4.148-7.5-5.342-18.57-21.219-21.375-29.988-1.848-5.773 0-24.246 0-24.246l-55.83 2.87z" fill="#F3EFD6"/>
	<path d="m827 400.69c1.186 3.217-2.568 9.23-5.158 11.479-9.105 7.902-24.791 19.466-40.1 17.802-6.527-0.709-11.725-16.322-7.154-17.136 12.146-2.162 30.449-9.15 38.473-14.01 2.019-1.221 11.609-4.459 13.939 1.865z" fill="#F0D99A"/>
	<path d="m224.76 459.8s11.6 24.395 12.441 33.5c0.748 8.07-5.104 31.584-5.104 31.584l8.932-2.553v7.018l9.572-1.594 9.889 17.545 35.893-21.854s-21.059-36.43-25.684-49.607c-3.771-10.744-8.932-44.666-8.932-44.666l-37.007 30.627z" fill="#F3EFD6"/>
	<path d="m367.36 431.09c0.106 4.246-7.013 11.967-15.715 19.791-2.87 2.58-15.088 12.641-17.901 14.828-7.339 5.706-12.962 9.727-12.962 9.727s4.126 27.08-5.983 29.988c-7.164 2.061-14.114-22.652-14.114-22.652l-24.852 2.705s-3.359 29.08-10.563 28.242c-12.234-1.423-10.846-34.455-10.846-34.455s-28.174-10.234-31.584-14.996c-12.133-16.938 67.314-49.128 67.314-49.128s76.714-3.753 77.206 15.95z" fill="#F2B6A3"/>
	<path d="m398.62 217.4c49.664 1.913 147.7-15.118 192.59 6.223 44.709 21.256 125.98 151.46 125.98 151.46l19.754 25.617-77.602 73.845s-20.289 2.836-26.191 0c-6.869-3.303-19.047-23.811-19.047-23.811s-44.818 8.67-59.525 5.953c-16.793-3.105-46.273-23.23-63.094-26.191-32.568-5.732-99.076 5.566-132.14 5.953-19.129 0.223-32.143-20.238-76.189-7.143-26.061 7.748-70.797 47.398-80.953 72.619-7.018 17.428-4.762 71.771-4.762 71.771l-51.479 3.869c-0.779 3.451 9.99-15.939 5.051-20.879-1.684-1.684-9.523 0-9.523 0l7.143-22.619s6.506-53.656 8.332-71.43c2.096-20.393 4.744-61.755 7.145-80.951 4.65-37.211-1.965-108.88 5.951-144.05 2.121-9.422 12.787-27.833 21.43-32.143 46.414-23.15 155.31 9.911 207.14 11.907z" fill="#F3EFD6"/>
	<path d="m276.76 533.17c-4.656 2.543-20.84 4.025-20.84 4.025l8.717 15.117s31.881 2.48 42.111 0c2.877-0.699 9.412-2.682 10.527-5.424 0.619-1.523-0.648-5.037-1.594-6.381-3.877-5.514-19.301-18.822-19.301-18.822s-15.489 9.227-19.62 11.485z" fill="#BE8D6D"/>
	<path d="m197.25 567.63s15.049 22.975 16.021 31.902c0.289 2.641-0.023 3.951-2.232 5.424-9.098 6.066-35.412 1.596-43.707 1.596-8.148 0-21.375-28.988-21.375-28.988s24.076-2.559 30.945-3.871c5.426-1.038 20.348-6.063 20.348-6.063z" fill="#BE8D6D"/>
	<path d="m533.9 397.27c-9.707-2.053-27.514 11.533-36.051 16.59-3.131 1.854-8.713 2.938-9.889 6.379-3.105 9.08-4.127 44.125-0.957 58.382 1.002 4.506 5.457 12.941 5.742 17.547 1.076 17.439-10.209 78.801-10.209 78.801l9.57-3.51 2.871 8.934 43.707-10.848s-9.922-30.355-9.57-40.836c0.41-12.254 8.834-34.859 11.166-46.896 1.516-7.83 3.189-31.904 3.189-31.904s8.732-19.914 7.658-26.798c-1.196-7.671-9.632-24.236-17.227-25.841z" fill="#F3EFD6"/>
	<path d="m496.89 586.45h3.828s-0.906 7.123 0 9.252c1.201 2.818 6.744 6.477 9.572 7.656 10.453 4.355 34.705 3.998 45.301 0 2.486-0.938 7.354-4.436 7.977-7.02 0.514-2.133-1.723-6.424-2.871-8.295-4.518-7.355-23.994-24.834-23.994-24.834s-14.709 8.217-19.826 9.84c-5.643 1.791-23.107 3.59-23.107 3.59l3.12 9.811z" fill="#BE8D6D"/>
	<path d="m600.43 538.42s-0.035 7.59 1.418 10.066c2.512 4.275 13.084 7.303 17.865 8.613 6.615 1.814 20.816 1.797 27.438 0 4.908-1.332 14.344-8.406 15.313-13.398 1.861-9.586-19.461-29.904-25.117-29.904-5.455 0-3.594 1.83-17.951 11.4-4.4 2.932-18.966 13.223-18.966 13.223z" fill="#BE8D6D"/>
	<path d="m654.78 463.09c-0.277 4.711 1.42 14.74 4.473 18.338 2.473 2.91 13.418 7.301 13.418 7.301s-1.201 8.877 0 11.484c6.586 14.301 47.855 40.939 47.855 40.939l2.684 10.045s1.516 9.363 3.131 12.012c1.406 2.309 8.051 7.221 8.051 7.221s20.754 4.295 27.281 2.236c8.178-2.58 25.182-13.426 26.387-21.916 0.379-2.668-4.918-9.598-4.918-9.598s-7.934-24.795-7.604-33.338c0.334-8.656 9.047-24.52 10.285-33.096 0.805-5.561-2.234-22.361-2.234-22.361s5.923-13.521 6.707-18.338c0.765-4.699-0.418-14.871-3.131-18.785-3.309-4.775-14.512-10.125-20.125-11.627-12.344-3.305-33.543-8.945-50.986-3.578-10.279 3.162-31.219 10.822-38.91 18.336-8.944 8.737-21.627 32.246-22.364 44.725z"/>
	<path d="m771.96 387.63c-6.281 2.943-19.68 19.549-19.68 19.549l7.604 8.945s28.986-7.268 35.234-14.855c2.492-3.027 6.057-10.229 4.123-13.639-2.058-3.629-21.586-2.668-27.281 0z"/>
	<path d="m721.18 433.3s-6.797 5.367-2.662 14.975c4.008 9.318 16.305 7.32 16.305 7.32s30.107-25.289 29.617-30.281c-1.077-10.945-43.26 7.986-43.26 7.986z" fill="#F0D99A"/>
	<path d="m742.19 492.06c-1.836-7.213-8.986-11.617-13.613-10.439s-8.799 8.467-6.963 15.68 9.457 11.498 13.613 10.439 8.799-8.467 6.963-15.68z" fill="#656668" opacity=".1"/>
	<path d="m788.06 441.31s-12.158 9.617-12.021 14.465c0.094 3.332 5.949 9.361 4.736 12.467-1.791 4.58-14.998 3.992-14.998 12.729 0 19.83-7.654 60.178-7.654 60.178s11.861 6.658 16.184 7.93c4.717 1.389 8.072-10.381 8.072-10.381l-6.793-31.607s9.996-23.957 11.086-32.375c1.021-7.889-2.557-22.361-2.557-22.361l3.945-11.045z" fill="#F3EFD6"/>
	<path d="m88.334 498.33c-1.223 1.596-1.258 6.471 0 8.037 1.277 1.592 7.502 3.215 7.502 3.215s2.76 8.631 5.357 9.109c5.061 0.932 16.074-12.859 16.074-12.859s3.531 3.164 4.822 2.678c30.055-11.295 43.398-120.88 43.398-120.88s0-99.864 0-130.4c0-12.074 15.783-29.179 26.789-40.185 5.627-5.626 3.869-13.612 3.869-13.612s-31.73 0-50.191 64.513c-16.335 57.079 17.927 131.8-57.62 230.39z"/>
	<path d="m342.15 223.37c-2.463 2.299-6.842 9.326-5.373 12.358 1.98 4.091 13.586 1.232 15.045 10.209 1.275 7.855-7.832 8.332-7.523 11.821 0.479 5.393 13.141 3.606 15.582 15.045 1.814 8.5-3.271 11.269-2.686 15.044 0.91 5.874 13.59 6.967 10.168 21.493-1.107 4.704-13.518 7.327-15.293 11.821-3.385 8.562 8.885 24.179-9.92 35.462-6.041 3.625-21.121 7.406-24.768 13.434-3.541 5.854 2.18 20.883 0 27.369-2.059 6.127-12.861 15.143-18.756 17.795-13.984 6.291-45.301 8.889-59.643 14.32-10.166 3.85-17.404 27.023-37.074 22.725-15.031-3.283-18.678-12.705-18.27-19.344 1.098-17.832-8.48-39.099-18.152-81.552-4.578-20.096-0.498-60.704-5.248-72.317-1.07-2.618 7.631-5.087 5.248-3.564-6.523 4.17-9.25 29.553-9.25 29.553l-17.846 73.063s-4.281-90.703 14.152-129c24.426-50.755 39.297-55.767 112.99-51.799 25.213 1.357 101.4 16.683 101.4 16.683s-19.894 4.821-24.783 9.386z"/>
	<path d="m455.52 250.94c-9.869 0-24.104-2.725-31.068 5.898-5.313 6.58-4.957 17.28-0.688 24.099-11.467 3.219-27.588 41.075-2.672 45.335-7.822 1.4-7.176 27.838-5.871 34.594 2.055 10.623 7.807 25.619 18.688 30.326 4.197 1.816 13.65 2.35 17.852 0.146 4.707-2.469 5.406-7.416 11.43-5.545 5.074 1.576 7.92 6.998 11.018 10.787 4.273 5.227 12.775 9.113 19.432 9.117 23.232 0.016 26.02-23.07 37.551-19.5 4.768 1.477 8.207 6.441 12.449 8.756 4.711 2.568 12.641 3.885 17.91 2.791 14.035-2.916 14.682-17.148 8.26-27.371-2.74-4.361-6.881-8.826-6.287-14.535 0.5-4.809 4.943-9.098 7.641-12.873 6.299-8.813 7.219-23.171-1.18-30.889-4.654-4.275-9.688-5.315-12.477-11.193-2.857-6.028-1.389-14.116-4.285-20.376-4.689-10.135-15.531-17.799-26.895-17.747-7.996 0.037-11.902 2.686-19.221-2.045-4.381-2.831-7.814-6.821-12.363-9.358-11.198-6.244-29.743-10.25-39.224-0.417"/>
	<path d="m358.6 405.54c4.334 2.91 4.613 9.486 11.365 8.244 5.705-1.049 9.42-9.492 16.268-4.758 2.664 1.842 1.799 3.496 2.781 6.33 1.627 4.695 2.459 4.162 6.865 5.91 5.211 2.068 9.043 5.777 7.99 12.277-9.67 0.471-18.539 2.184-27.885 3.197-8.531 0.928-19.324 0.9-27.016-1.908-5.17-1.887-21.121-7.09-21.793-7.762-7.789-7.789 8.824-8.037 13.5-10.376 3.773-1.887 1.879-4.775 4.439-8.217 2.804-3.765 9.435-5.657 13.486-2.937z"/>
	<path d="m380.54 215.84c0 5.022-1.467 11.332 3.523 14.055 3.521 1.922 11.867 2.657 14.076-1.846 1.766-0.534 3.479-2.022 5.803-2.357 2.438-0.351 3.863 1.183 5.918 1.083 4.857-0.236 9.188-4.657 6.361-9.629-2.909 0.581-24.45 0.191-35.681-1.306"/>
	<path d="m465.19 217.63c0.068 7.028 1.807 12.277 9.059 13.836 3.475 0.747 7.805 1.263 11.373 0.669 3.063-0.51 5.576-2.478 8.713-2.697 8.01-0.56 6.506 4.714 10.631 9.159 3.33 3.589 10.105 4.722 15.002 3.774 6.035-1.168 9.615-6.078 16.148-5.399 4.756 0.495 10.291 3.479 12.24 8.06 2.213 5.206 1.129 10.702 4.955 15.592 3.51 4.488 8.389 3.906 13.432 4.828 17.166 3.139 10.477 15.198 8.57 27.522-2.121 13.704 5.137 21.583 15.609 28.197 12.635 7.979 4.414 20.232 3.225 31.623-1.113 10.654-0.504 22.164 8.584 28.729 6.299 4.551 16.668 6.592 20.324 14.467 5.377 11.584-8.67 12.639-15.578 16.791-3.213 1.93-6.621 5.166-4.625 9.59 2.254 4.996 7.479 3.751 2.055 10.066-2.984 3.473-7.289 5.16-9.711 9.361-2.23 3.867-4.201 8.43-6.262 12.398 6.5 1.039 18.625-2.551 22.965-3.057 3.836-0.445 0.16-1.473 4.289 4.637 4.975 7.361 10.045 17.35 19.377 19.939 9.586 2.662 24.928 0.688 32.43-5.848 8.387-7.305 15.051-15.994 22.75-23.893 7.252-7.439 15.639-13.164 23.734-19.975 4.221-3.548 6.059-8.273 10.234-11.984 3.434-3.049 7.227-5.1 10.865-7.67 11.838-8.363 3.203-15.104-4.443-22.699-6.346-6.303-12.305-15.02-17.596-22.834-2.943-4.35-3.795-9.811-6.395-14.244-2.416-4.117-5.822-7.908-8.76-11.689-6.338-8.161-11.443-17.065-17.703-25.597-10.949-14.924-20.828-31.057-33.342-44.492-14.41-15.473-26.855-35.731-46.086-45.362-10.822-5.419-20.795-7.973-33.305-9.646-22.385-2.995-64.568-0.045-76.971 0.553-6.111 0.294-11.756 1.029-17.77 1.948-1.865 0.285-5.826 0.444-6.955 1.021-1.966 1.007-1.062 2.535-1.062 4.326"/>
	<path d="m655.88 552.1c2.555-2.746 6.588-5.729 6.588-8.396 0-14.729-21.773-29.5-25.117-29.904-4.625-0.561-12.617 7.686-12.617 7.686s22.422 17.014 22.422 35.617c-1e-3 0.567 7.742-3.947 8.724-5.003z" fill="#A16527" opacity=".1"/>
	<path d="m540.42 601.27c-2.051-8.615-14.553-32.291-14.553-32.291l10.834-5.775s17.246 16.311 21.654 21.641c3.629 4.391 5.381 9.299 5.211 11.488-0.207 2.648-5.604 5.824-7.977 7.02-3.342 1.682-14.953 2.813-14.953 2.813s0.067-3.704-0.216-4.896z" fill="#A16527" opacity=".1"/>
	<path d="m303.59 552.86s8.453-1.547 12.139-4.182c3.633-2.6 0.607-7.283-0.049-8.164-4.025-5.406-19.301-18.822-19.301-18.822l-15.047 8.873c0 1e-3 22.258 8.362 22.258 22.295z" fill="#A16527" opacity=".1"/>
	<path d="m192.78 608.13s18.994 0.1 20.385-5.664c1.986-8.221-15.912-34.836-15.912-34.836s-7.803 2.922-12.309 3.85c-1.9 0.392 10.524 28.951 7.836 36.65z" fill="#A16527" opacity=".1"/>
	<ellipse cx="731.89" cy="494.85" rx="8.682" ry="8.35" fill="#FDF7BB"/>
	<ellipse cx="732" cy="495.2" rx="6.156" ry="5.324" fill="#5A3111"/>
	<path d="m788.73 550.75v0.25c-0.01 2.041-0.65 4.631-2.68 7.441-3.311 4.59-10.33 9.779-24.381 14.219-0.158 0.051-0.328 0.1-0.5 0.141-6.75 1.881-20.84 1.1-26.779-1.939-2.41-1.24-7.141-4.9-8.439-7.26-1.51-2.721-2.75-12.4-2.75-12.4s19.369 1.389 24.93-1.43c2.949-1.49 6.73-8.141 9.99-8.621 4.84-0.719 12.6 8.49 17.379 7.42 2.881-0.639 6.631-9.299 6.861-9.84 0.01-0.02 0.01-0.029 0.01-0.029s0.01 0.01 0.02 0.029c0.371 0.509 6.259 8.79 6.339 12.019z" fill="#F2B6A3"/>
	<ellipse cx="755.29" cy="556.09" rx="6.489" ry="3.994" fill="#FFDEA2" opacity=".1"/>
	<path d="m745.48 568.07l28.211-0.143s-5.633 2.615-6.781 2.926c-5.216 1.411-21.43-2.783-21.43-2.783z" fill="#FFDEA2" opacity=".1"/>
	<path d="m788.73 551c-0.01 2.041-0.65 4.631-2.68 7.441-0.18 0.02-0.359 0.02-0.539 0.02-0.611 0-1.191-0.051-1.75-0.15-2.74-0.471-4.74-2.01-4.74-3.85 0-2.201 2.898-3.99 6.49-3.99 0.898 0 1.75 0.109 2.529 0.32 0.241 0.061 0.472 0.129 0.69 0.209z" fill="#FFDEA2" opacity=".1"/>
	<ellipse cx="737.6" cy="496.12" rx="1.524" ry="1.459" fill="#fff"/>
</svg>
