<?xml version="1.0" encoding="UTF-8"?>
<svg enable-background="new 0 0 3000 3000" version="1.1" viewBox="0 0 3000 3000" xml:space="preserve" xmlns="http://www.w3.org/2000/svg">
			<path d="m418.5 1109.6s-27-39 22.5-40.5 124.5 1.5 138-9 73.5-69 135-79.5 145.5-4.5 175.5-10.5c26.7-5.3 129.4-51.1 191.9-51.6 7.1-0.1 10 9.2 4.1 13.1-30.2 20.3-90.2 63.6-92.5 89.4 0 0 135-60 154.5-40.5l-112.5 114s43.5 29.4 111.1 36.2c0 0 83.5-7.7 118 4.3s210.3 70.5 271.8 69 63.7 3 178.5-28.5c0 0 84-21 144 6s165 82.5 315 3 256.5-118.5 481.5-433.5c0 0 46.5 196.5-52.5 297 0 0 22.5 15 75-43.5 0 0-57 163.5-126 196.5 0 0 52.5 13.5 105-27 0 0-93 115.5-210 139.5 0 0 60 21 108-9 0 0-94.5 99-252 82.5 0 0 24 33 61.5 37.5 0 0-109.6 36.7-309-63 0 0-112.5 4.5-73.5 141 32.6 114.1 77.3 203.8 151.1 262 26 20.5 35.6 55.6 23.4 86.4-27.4 69-66.3 181.6-44 217.1l-154.5 16.5s-27 3-34.5-21 7.5-87 82.5-79.5c0 0 48-117 39-132s-60-27-60-27 16.5 15 15 24 6 13.5-3 24-156 136.5-180 202.5l-160.5 9.1s-10.5-33.1-4.5-52.6 28.5-54 94.5-49.5 82.5-114 84-138-39-156-66-172.5-256.5-232.5-543-37.5c0 0 47.3 106.7 96 150 0 0 10.5 3 15 36s13.5 79.5 27 97.5-70.5 102-70.5 102l-111 9s-48-73.5 48-73.5c0 0 46.5-15 31.5-61.5s-133.5-168-133.5-168-215.6 109.2-250.5 237c0 0-15 19.5-42 31.5s-27 34.5-27 34.5l-163.5-4.5s-43.5-82.5 91.5-82.5c0 0 220.5-238.5 228-259.5s39-99 24-118.5-58.5-67.7-81-151.6-312-176.9-312-176.9-97.5-12-94.5-51c0.1 0.1-83.9-11.9-77.9-74.9z" fill="#D65B20"/>
			<path d="m1323 1789.2c-5.4-10.6-37.1-17.7-37.1-17.7 9 7 19.2 41.4 19.2 41.4-20-34-78.2-64.4-78.2-64.4 17 8 37.2 90.4 25.2 77.4 0 0-28.2-19.9-33.2-43.4 0 0 3.4 61.9 20.3 77.7l19 34.3c15 46.5-31.5 61.5-31.5 61.5-96 0-48 73.5-48 73.5l111-9s84-84 70.5-102-22.5-64.5-27-97.5-15-36-15-36" fill="#010202"/>
			<path d="m476.9 1068.6l-52 4-13.3 12 1.7 14.6 5.3 10.4 6.4 1.9s38 5.7 52-32.8v-10.1" fill="#010202"/>
			<path d="m1984.5 1825.1s-112.5-150.2-7.5-273c0 0 21-6 4.5-49.5" fill="none" stroke="#010202" stroke-miterlimit="10" stroke-width="9"/>
			<path d="m1123.5 1726.1c-27-13.5-139.5-162-139.5-162" fill="none" stroke="#010202" stroke-miterlimit="10" stroke-width="9"/>
			<path d="m1170 1350.9s40.5 55.7 25.5 136.7 25.5 147 25.5 147" fill="none" stroke="#010202" stroke-miterlimit="10" stroke-width="9"/>
			<path d="m874.1 1963.5s-15 19.5-42 31.5-27 34.5-27 34.5l-163.5-4.5s-43.5-82.5 91.5-82.5l87.7-99.5s32.8-11.5 54.1-31.5l-13 28c-9.3-4 53.6-22.7 100.9-82 0 0-64.9 114-90.9 126 0 0 55-28 87.6-72 26.2-35.3-11.2 34.8-15.2 38.8s-55.9 56.3-68.7 106.8" fill="#010202"/>
			<path d="m995.6 1021.1s-58.7 125.4-148.5 100.5" fill="none" stroke="#010202" stroke-miterlimit="10" stroke-width="9"/>
				<path d="m656.8 1050.2c-11.4 6.3-18.5 17.8-16.9 31.3 1.7 13.4 10.3 20 14 21.6 33.7 13.6 71.4-14 77.3-18.5-22.6-28.5-61.9-41.1-74.4-34.4z" fill="#fff"/>
				<path d="m683.3 1106.6c25.6-17.9 7.8-49.6 7.8-49.6 26 15.8 28.9 35.5 28.9 35.5l11.4-7.6c27.9 4.2 43.3-26.9 43.3-26.9-32 28.1-55 16.1-55 16.1 14.4 3.8 32.1-26.8 32.1-26.8-26.6 23.7-44.8 16.8-44.8 16.8 16.5-4.1 18.6-26.4 18.6-26.4s-11.3 25.8-37.7 15.5c-29-15.5-39.5 2.1-39.5 2.1-25 27.2 0.9 45.6 0.9 45.6 12 10.3 34 5.7 34 5.7z" fill="#010202"/>
			<path d="m1817.5 2075.6l-160.5 9.1s-10.5-33.1-4.5-52.6 28.5-54 94.5-49.5c27.3 1.9 44.9-17.9 58.9-42.1 6.5-11.3 15.8-42.3 15.8-42.3 12.7 19.7 28.3-19.8 28.3-19.8 5 22.9-4 40.1-4 40.1s24-10.2 36-40.1c0 0 5 16.1-6 34.1 0 0 30-14 46-42 0 0-25 65-55 82 0 0 30-5 47-29 0 0-0.5 28.2-10.2 39.5-26.1 23.6-48.5 51.1-66.9 81.1l-19.4 31.5z" fill="#010202"/>
			<path d="m2128.1 1929.7c5.1-16.6-4.6-57.2-4.6-57.2 2 22-22 36-22 36 6-16 5-74 5-74-9 58-33 86-33 86 8-15 3-51 3-51 0 17-26 55.1-26 55.1 12-31.9 7-44.1 7-44.1-4 23-23.1 27-23.1 27l-2.7 8.1c-5.7 16.8-12 33.7-17 46.5-4.7 12.2-15.9 20.6-28.9 21.7-57.5 4.7-69 58.1-62.3 79.8 7.5 24 34.5 21 34.5 21l117.4-12.5c17.4-1.9 30.6-16.6 30.5-34.1-0.2-26.4 8-62.4 19.1-98.6 1.1-3.3 2.1-6.5 3.1-9.7" fill="#010202"/>
			<path d="m2602.4 1048.1c99-100.5 52.5-297 52.5-297-122.2 171.1-209.5 260.8-287.8 319.8-27.5 37.7-41.5 88.3-41.5 88.3s69.8-11.1 111.3-39l35.7-24c-17.7 35.5-86.3 135.6-139.5 154.5 0 0 96.2-20.4 169.7-83.9l40.3-25.6c-3 33-50 60.3-63.8 67.4 0 0 55.5 3 72-7.5 69-33 126-196.5 126-196.5-52.4 58.5-74.9 43.5-74.9 43.5z" fill="#fff" stroke="#010202" stroke-miterlimit="10" stroke-width="5"/>
			<path d="m591.1 1236.5c244.5 73.8 305.2 161.9 305.2 161.9s49.9 139.2 90.6 172.2c8.3 6.7 8.7-218.8 8.7-218.8-11.6-121.3-120.4-142.7-180.2-147.8-40.8-3.5-124.7-23.7-153.9-18.5-42 7.5-75 8.6-75 8.6l-89.9-8.6s-4.5 39 94.5 51" fill="#fff" stroke="#010202" stroke-miterlimit="10" stroke-width="3"/>
			<path d="m661.5 1184.6c-54 19.5-165 0-165 0" fill="none" stroke="#010202" stroke-miterlimit="10" stroke-width="9"/>
			<path d="m1206.8 1419.9s157.3 71.4 442 50.2h9.6s60 165 109.5 204c0 0-261-243.6-543-37.5 0 0-42.2-80-25.5-141.8 0 0 4.4-58.5 0-76.9l7.4 2z" display="none" fill="#fff" stroke="#010202" stroke-miterlimit="10" stroke-width="5"/>
			<path d="m1650.6 1422.5s10.5 100.9 113.3 249.6" fill="none" stroke="#010202" stroke-miterlimit="10" stroke-width="9"/>
			<path d="m418.5 1109.6s-27-39 22.5-40.5 124.5 1.5 138-9 73.5-69 135-79.5 145.5-4.5 175.5-10.5c27-5.4 132-52.2 194.2-51.6 6.4 0.1 8.9 8.4 3.6 12-29.6 19.7-91.9 64.3-94.2 90.6 0 0 135-60 154.5-40.5l-112.5 114s36 29.4 111.1 36.2c0 0 83.5-7.7 118 4.3s210.3 70.5 271.8 69 63.7 3 178.5-28.5c0 0 84-21 144 6s165 82.5 315 3c68.5-36.3 127.9-64.2 193.7-113.7 78.3-59 165.5-148.6 287.8-319.8 0 0 46.5 196.5-52.5 297 0 0 22.5 15 75-43.5 0 0-57 163.5-126 196.5 0 0 52.5 13.5 105-27 0 0-93 115.5-210 139.5 0 0 60 21 108-9 0 0-94.5 99-252 82.5 0 0 24 33 61.5 37.5 0 0-109.6 36.7-309-63 0 0-112.5 4.5-73.5 141 32.6 114.1 77.4 203.8 151.1 262 26 20.5 35.6 55.6 23.4 86.4-21.9 55-51 137.7-50.6 187 0.1 17.5-13.1 32.2-30.5 34.1l-117.4 12.5s-27 3-34.5-21c-6.8-21.7 4.8-75.1 62.3-79.8 13-1.1 24.2-9.5 28.9-21.7 13.4-34.6 36.8-99.2 30.3-110-9-15-60-27-60-27s16.5 15 15 24 6 13.5-3 24-156 136.5-180 202.5l-160.5 9.1s-10.5-33.1-4.5-52.6 28.5-54 94.5-49.5 82.5-114 84-138-39-156-66-172.5-256.5-232.5-543-37.5c0 0 47.3 106.7 96 150 0 0 10.5 3 15 36s13.5 79.5 27 97.5-70.5 102-70.5 102l-111 9s-48-73.5 48-73.5c0 0 46.5-15 31.5-61.5s-133.5-168-133.5-168-215.6 109.2-250.5 237c0 0-15 19.5-42 31.5s-27 34.5-27 34.5l-163.5-4.5s-43.5-82.5 91.5-82.5c0 0 220.5-238.5 228-259.5s39-99 24-118.5-58.5-67.7-81-151.6-312-176.9-312-176.9-97.5-12-94.5-51c0 0-84-12-78-75z" fill="none" stroke="#010202" stroke-miterlimit="10" stroke-width="9"/>
			<path d="m652.5 1063.9s-1-7.8 6.3-9.2c0 0 2.1-0.7 2.1 1.8s-3.6 2.5-4.2 4.9c-0.7 2.4-1.8 4.6-4.2 2.5z" fill="#fff"/>
	<path d="m1089.5 922.2s-13.3-7.2-93.9 12.8c0 0-7.3 0.7-20.6 16.9-10.5 12.8 7.6-6.6 20.6 1.1 0 0-25.8 7-27.8 15 0 0 13.1-3.6 12.1 6.7s39.6 8 39.6 8l70-60.5z"/>
	<path d="m855.2 1108.7s24.7-41.6 69.4-55.6c0 0-36.7-10-56-7.3 0 0 46-25.3 87.3-19.3 0 0-8-22.7-30.7-20.7 0 0 41.3-18.2 60.7-0.1 0 0 7.3-14.5-6-29.2 0 0 33.3 2 36 0 0 0-2-6-7.3-14s38-10 38-10-0.7-11.3-10.7-10.7c-10 0.7 38.3-20.1 49.8-9.4l-94.2 86.7s-25.1 111.6-141.6 105.5c-0.8-0.2 5.3-15.9 5.3-15.9z" fill="#fff" stroke="#010202" stroke-miterlimit="10" stroke-width="5"/>
	<path d="m1034.5 1004s-12 15.5-15 29c0 0 12-12 30.5-16.5 0 0-5.5 11-12 16.5 0 0 15 1.7 31.5-11.9 0 0-10 25.4-25 31.9s26.4-0.3 41.2-9.9 61.9-62.5 61.9-62.5-12.6-16-113.1 23.4z" fill="#010202"/>
</svg>
