<?xml version="1.0" encoding="UTF-8"?>
<svg viewBox="0 0 271.25 150" xmlns="http://www.w3.org/2000/svg">
 <g transform="matrix(1.25,0,0,-1.25,0,150)">
  <g transform="scale(.24)">
   <path d="m263.39 282.12-112.34-97.402h-7.488s-37.446-29.969-44.938-29.969l-3.8047-3.687c0-14.985 7.4927-33.774 7.4927-44.954 63.718-29.972 127.32-63.746 206.02-82.418 33.641-7.4922 78.578-3.8086 108.54-11.301 116.02-37.461 288.28 18.793 385.64 59.941 7.488 0 26.269 18.789 26.269 22.477 7.493 0 48.625 37.461 48.625 44.957 7.489 0 22.465 18.789 26.27 22.476 0 14.985 0 48.758-7.488 59.938h-3.805c0 3.687-3.684 11.179-11.176 11.179 0 7.493-3.801 0-3.801 7.493-18.664 0-209.7 14.984-209.7 26.285h-7.488c-78.578 78.609-299.45 7.492-396.82 14.984" fill="#c3cbde"/>
   <path d="m535.742,178.176c4.637.953 20.563,9.398 23.297,12.25 14.149,0 21.52,20.574 29.008,28.07 0,2.852 2.851,7.371 3.805,9.274h.949l.953,1.785h2.734l2.852-2.735c0-5.472-2.852-9.277-5.586-13.914-8.441,0-18.781-22.48-23.422-27.234 0-1.785-.949-2.738-.949-4.641l1.902-1.902c4.637,0 9.274,1.902 14.028,1.902 0,1.903 15.929,14.985 16.882,14.985 1.782,2.855 13.075,8.445 13.075,11.3 1.902,0 15.929,11.18 15.929,13.082 1.785,0 0,.95 1.785.95 0,.832 1.903,3.57 1.903,4.519 3.804,0 7.488,7.492 12.242,4.641l.832-.953v-5.59c-2.734-.953-6.539-6.422-10.223-6.422 0-8.441-18.781-14.984-18.781-27.117 4.754,0 32.809,2.738 32.809,10.23 1.902,0 7.488,4.758 8.441,5.707v.953c.949.832 6.535,3.684 6.535,5.59h1.903c1.785,1.903 2.738,3.684 4.636,4.637v1.902l9.395,9.278v.832c5.586,4.758 15.929,8.445 21.515,14.152 0,2.734 3.684,6.543 4.637,8.324 5.586,0 6.539,13.203 15.93,10.348 0-5.59-15.93-21.527-20.567-23.43 0-1.902-5.586-8.441-7.488-8.441 0-.953-.953-1.785-.953-2.738-1.902-.95-3.684-5.59-3.684-7.372 .832,0 1.782-1.902 1.782-2.855 5.59,0 24.371,1.902 24.371,10.227l.953.953c.949,0 1.898.832 1.898,1.785l.832.949c.953,0 2.856.953 3.805.953 0-.953 4.637-4.64 5.59-4.64 2.851,0 4.754,3.687 6.535,3.687 0,10.348 20.688,18.793 20.688,26.281l.832.953c4.753,0 9.39.832 14.144-3.804v-1.903c-7.488-3.687-34.711-8.445-20.683-22.476 6.539,0 13.195,6.539 17.832,6.539 0,3.805 5.585,1.902 7.488,1.902 .953-.949 3.683-2.734 3.683-3.687 1.907,0 1.907-2.852 3.805-2.852l.953-.953v-1.902h.949c.954-.832-1.902-4.637-1.902-5.59-14.027,0-62.766-9.156-62.766-29.852 15.93,0 36.497-7.492 50.641,6.543 .832,0 1.785,0 1.785.949 1.903,0 2.852-.949 4.754-.949l.953-.832 .828-.953c0-4.758-1.781-5.707-4.632-8.445-2.856,0-11.176-3.805-11.176-6.539-.953,0-1.903-.953-2.852-1.903v-2.855c-4.636,0-44.937,2.855-44.937-3.688-10.344,0-11.293-13.082-11.293-19.742 1.902,0 2.851-2.734 4.754-2.734 4.636-9.395 31.859-5.59 38.398-.949v.949c4.637,3.687 8.442.953 13.078.953v-5.711l-.953-.832c-13.078-7.492-39.348.832-50.523-10.348v-2.851c.953-.953 1.902-1.785 2.734-1.785 0-.953.953-1.903 1.902-1.903 0-2.855-.949-5.59-1.902-7.492-5.586,0-12.125,3.688-12.125,9.395-.949,0-1.902.832-2.851,1.785-6.54,0-14.86-1.785-19.618-5.59v-.953l-1.902-.949v-14.036c-1.781-1.902-11.176-6.539-14.027-6.539 0-1.906-.95,0-.95-1.906-1.785,0-7.488,3.809-7.488,5.711-.836,0-7.492,6.539-7.492,7.492h-5.586c-12.125-3.804-22.469-14.152-34.594-18.7927-17.832-6.5391-43.984,3.8087-61.816-3.6836-13.078-5.7109-29.957-7.4922-43.985-10.3477-5.589-.9531-56.945-3.6875-56.945,6.5391-5.586,0-12.242,4.7578-15.93,8.4453 58.848,0 135.641-14.0351 189.852,15.9376 3.801,1.902 2.852,4.637 4.754,7.492h.949c.832,1.902-1.902,5.59-1.902,6.539-16.879,8.445-30.906-3.805-45.887,11.18-7.488,0-22.465-4.637-29.004-.832v.832c-2.855,1.902-6.539,3.805-9.39,6.66 0,.832.949,4.641 1.902,4.641 0,12.129-5.59,20.574-21.52,20.574 0,.949.954,2.851.954,3.805l15.929,1.781" fill="#a8b0c9"/>
   <path d="m535.742,178.176c4.637.953 20.563,9.398 23.297,12.25 14.149,0 21.52,20.574 29.008,28.07 0,2.852 2.851,7.371 3.805,9.274h.949c.238.593.594,1.191.953,1.785h2.734c.95-.832 1.903-1.785 2.852-2.735 0-5.472-2.852-9.277-5.586-13.914-8.441,0-18.781-22.48-23.422-27.234 0-1.785-.949-2.738-.949-4.641 .594-.593 1.308-1.187 1.902-1.902 4.637,0 9.274,1.902 14.028,1.902 0,1.903 15.929,14.985 16.882,14.985 1.782,2.855 13.075,8.445 13.075,11.3 1.902,0 15.929,11.18 15.929,13.082 1.785,0 0,.95 1.785.95 0,.832 1.903,3.57 1.903,4.519 3.804,0 7.488,7.492 12.242,4.641 .238-.238.594-.598.832-.953v-5.59c-2.734-.953-6.539-6.422-10.223-6.422 0-8.441-18.781-14.984-18.781-27.117 4.754,0 32.809,2.738 32.809,10.23 1.902,0 7.488,4.758 8.441,5.707v.953c.949.832 6.535,3.684 6.535,5.59h.953 .95c1.785,1.903 2.738,3.684 4.636,4.637v.953 .949c3.094,2.973 6.301,6.067 9.395,9.278v.832c5.586,4.758 15.929,8.445 21.515,14.152 0,2.734 3.684,6.543 4.637,8.324 5.586,0 6.539,13.203 15.93,10.348 0-5.59-15.93-21.527-20.567-23.43 0-1.902-5.586-8.441-7.488-8.441 0-.953-.953-1.785-.953-2.738-1.902-.95-3.684-5.59-3.684-7.372 .832,0 1.782-1.902 1.782-2.855 5.59,0 24.371,1.902 24.371,10.227 .355.238.594.593.953.953 .949,0 1.898.832 1.898,1.785 .239.355.598.711.832.949 .953,0 2.856.953 3.805.953 0-.953 4.637-4.64 5.59-4.64 2.851,0 4.754,3.687 6.535,3.687 0,10.348 20.688,18.793 20.688,26.281 .234.239.593.598.832.953 4.753,0 9.39.832 14.144-3.804v-.953-.95c-7.488-3.687-34.711-8.445-20.683-22.476 6.539,0 13.195,6.539 17.832,6.539 0,3.805 5.585,1.902 7.488,1.902 .953-.949 3.683-2.734 3.683-3.687 1.907,0 1.907-2.852 3.805-2.852 .359-.359.598-.594.953-.953v-1.902h.949c.954-.832-1.902-4.637-1.902-5.59-14.027,0-62.766-9.156-62.766-29.852 15.93,0 36.497-7.492 50.641,6.543 .832,0 1.785,0 1.785.949 1.903,0 2.852-.949 4.754-.949 .238-.238.594-.597.953-.832 .235-.359.594-.715.828-.953 0-4.758-1.781-5.707-4.632-8.445-2.856,0-11.176-3.805-11.176-6.539-.953,0-1.903-.953-2.852-1.903v-2.855c-4.636,0-44.937,2.855-44.937-3.688-10.344,0-11.293-13.082-11.293-19.742 1.902,0 2.851-2.734 4.754-2.734 4.636-9.395 31.859-5.59 38.398-.949v.949c4.637,3.687 8.442.953 13.078.953v-5.711c-.359-.238-.597-.594-.953-.832-13.078-7.492-39.348.832-50.523-10.348v-2.851c.953-.953 1.902-1.785 2.734-1.785 0-.953.953-1.903 1.902-1.903 0-2.855-.949-5.59-1.902-7.492-5.586,0-12.125,3.688-12.125,9.395-.949,0-1.902.832-2.851,1.785-6.54,0-14.86-1.785-19.618-5.59v-.953c-.593-.238-1.187-.594-1.902-.949v-13.082-.954c-1.781-1.902-11.176-6.539-14.027-6.539 0-1.906-.95,0-.95-1.906-1.785,0-7.488,3.809-7.488,5.711-.836,0-7.492,6.539-7.492,7.492h-5.586c-12.125-3.804-22.469-14.035-34.594-18.7927-17.832-6.5391-43.984,3.8087-61.816-3.6836-13.078-5.7109-29.957-7.4922-43.985-10.3477-5.589-.9531-56.945-3.6875-56.945,6.5391-5.586,0-12.242,4.7578-15.93,8.4453 58.848,0 135.997-14.3906 190.208,15.5786 3.804,1.906 11.648,7.136 13.55,9.871-1.308.593-2.613,1.191-3.922,1.668 .95,1.902 9.75,5.113 7.844,7.132-16.879,8.446-22.824-1.07-37.801,13.914-7.488,0-11.652-3.21-19.734,3.688-1.07,1.07-2.141,2.141-3.328,3.211-2.734,1.906-11.77-1.664-14.621,1.07 0,.953-2.973-1.426-5.352-.355 0,12.25-21.16,17.246-37.09,17.246 0,.949.954,2.851.954,3.805 5.23.593 10.578,1.187 15.929,1.781" fill="#b7c0d4"/>
   <path d="m535.742,178.176c4.637.953 20.563,9.398 23.297,12.25 14.149,0 21.52,20.574 29.008,28.07 0,2.852 2.851,7.371 3.805,9.274h.949c.238.593.594,1.191.953,1.785h2.734c.95-.832 1.903-1.785 2.852-2.735 0-5.472-2.852-9.277-5.586-13.914-8.441,0-18.781-22.48-23.422-27.234 0-1.785-.949-2.738-.949-4.641 .594-.593 1.308-1.187 1.902-1.902 4.637,0 9.274,1.902 14.028,1.902 0,1.903 15.929,14.985 16.882,14.985 1.782,2.855 13.075,8.445 13.075,11.3 1.902,0 15.929,11.18 15.929,13.082 1.785,0 0,.95 1.785.95 0,.832 1.903,3.57 1.903,4.519 3.804,0 7.488,7.492 12.242,4.641 .238-.238.594-.598.832-.953v-5.59c-2.734-.953-6.539-6.422-10.223-6.422 0-8.441-18.781-14.984-18.781-27.117 4.754,0 32.809,2.738 32.809,10.23 1.902,0 7.488,4.758 8.441,5.707v.953c.949.832 6.535,3.684 6.535,5.59h.953 .95c1.785,1.903 2.738,3.684 4.636,4.637v.953 .949c3.094,2.973 6.301,6.067 9.395,9.278v.832c5.586,4.758 15.929,8.445 21.515,14.152 0,2.734 3.684,6.543 4.637,8.324 5.586,0 6.539,13.203 15.93,10.348 0-5.59-15.93-21.527-20.567-23.43 0-1.902-5.586-8.441-7.488-8.441 0-.953-.953-1.785-.953-2.738-1.902-.95-3.684-5.59-3.684-7.372 .832,0 1.782-1.902 1.782-2.855 5.59,0 24.371,1.902 24.371,10.227 .355.238.594.593.953.953 .949,0 1.898.832 1.898,1.785 .239.355.598.711.832.949 .953,0 2.856.953 3.805.953 0-.953 4.637-4.64 5.59-4.64 2.851,0 4.754,3.687 6.535,3.687 0,10.348 20.688,18.793 20.688,26.281 .234.239.593.598.832.953 4.753,0 9.39.832 14.144-3.804v-.953-.95c-7.488-3.687-34.711-8.445-20.683-22.476 6.539,0 13.195,6.539 17.832,6.539 0,3.805 5.585,1.902 7.488,1.902 .953-.949 3.683-2.734 3.683-3.687 1.907,0 1.907-2.852 3.805-2.852 .359-.359.598-.594.953-.953v-1.902h.949c.954-.832-1.902-4.637-1.902-5.59-14.027,0-62.766-9.156-62.766-29.852 15.93,0 36.497-7.492 50.641,6.543 .832,0 1.785,0 1.785.949 1.903,0 2.852-.949 4.754-.949 .238-.238.594-.597.953-.832 .235-.359.594-.715.828-.953 0-4.758-1.781-5.707-4.632-8.445-2.856,0-11.176-3.805-11.176-6.539-.953,0-1.903-.953-2.852-1.903v-2.855c-4.636,0-44.937,2.855-44.937-3.688-10.344,0-11.293-13.082-11.293-19.742 1.902,0 2.851-2.734 4.754-2.734 4.636-9.395 31.859-5.59 38.398-.949v.949c4.637,3.687 8.442.953 13.078.953v-5.711c-.359-.238-.597-.594-.953-.832-13.078-7.492-39.348.832-50.523-10.348v-2.851c.953-.953 1.902-1.785 2.734-1.785 0-.953.953-1.903 1.902-1.903 0-2.855-.949-5.59-1.902-7.492-5.586,0-12.125,3.688-12.125,9.395-.949,0-1.902.832-2.851,1.785-6.54,0-14.86-1.785-19.618-5.59v-.953c-.593-.238-1.187-.594-1.902-.949v-13.082-.954c-1.781-1.902-11.176-6.539-14.027-6.539 0-1.906-.95,0-.95-1.906-1.785,0-7.488,3.809-7.488,5.711-.836,0-7.492,6.539-7.492,7.492h-5.586c-12.125-3.804-22.469-14.035-34.594-18.7927-17.832-6.5391-43.984,3.8087-61.816-3.6836-13.078-5.7109-29.957-7.4922-43.985-10.3477-5.589-.9531-56.945-3.6875-56.945,6.5391-5.586,0-12.242,4.7578-15.93,8.4453 58.848,0 136.356-14.7461 190.68,15.2226 3.688,1.902 20.332,9.516 22.235,12.367-2.973,1.071-5.829,2.141-8.797,3.332 .949,1.903 21.394,4.52 17.593,7.61-16.882,8.445-14.742,1.547-29.722,16.531-7.489,0-.832-1.664-10.34,8.445-2.258,1.785-4.52,3.567-6.777,5.469-2.735,1.785-17-7.133-19.852-4.398 0,.953-6.895-7.61-12.723-5.352 0,12.129-36.613,13.797-52.543,13.797 0,.949.954,2.851.954,3.805 5.23.593 10.578,1.187 15.929,1.781" fill="#c8cedd"/>
   <path d="m535.742,178.176c4.637.953 20.563,9.398 23.297,12.25 14.149,0 21.52,20.574 29.008,28.07 0,2.852 2.851,7.371 3.805,9.274h.949c.238.593.594,1.191.953,1.785h2.734c.95-.832 1.903-1.785 2.852-2.735 0-5.472-2.852-9.277-5.586-13.914-8.441,0-18.781-22.48-23.422-27.234 0-1.785-.949-2.738-.949-4.641 .594-.593 1.308-1.187 1.902-1.902 4.637,0 9.274,1.902 14.028,1.902 0,1.903 15.929,14.985 16.882,14.985 1.782,2.855 13.075,8.445 13.075,11.3 1.902,0 15.929,11.18 15.929,13.082 1.785,0 0,.95 1.785.95 0,.832 1.903,3.57 1.903,4.519 3.804,0 7.488,7.492 12.242,4.641 .238-.238.594-.598.832-.953v-5.59c-2.734-.953-6.539-6.422-10.223-6.422 0-8.441-18.781-14.984-18.781-27.117 4.754,0 32.809,2.738 32.809,10.23 1.902,0 7.488,4.758 8.441,5.707v.953c.949.832 6.535,3.684 6.535,5.59h.953 .95c1.785,1.903 2.738,3.684 4.636,4.637v.953 .949c3.094,2.973 6.301,6.067 9.395,9.278v.832c5.586,4.758 15.929,8.445 21.515,14.152 0,2.734 3.684,6.543 4.637,8.324 5.586,0 6.539,13.203 15.93,10.348 0-5.59-15.93-21.527-20.567-23.43 0-1.902-5.586-8.441-7.488-8.441 0-.953-.953-1.785-.953-2.738-1.902-.95-3.684-5.59-3.684-7.372 .832,0 1.782-1.902 1.782-2.855 5.59,0 24.371,1.902 24.371,10.227 .355.238.594.593.953.953 .949,0 1.898.832 1.898,1.785 .239.355.598.711.832.949 .953,0 2.856.953 3.805.953 0-.953 4.637-4.64 5.59-4.64 2.851,0 4.754,3.687 6.535,3.687 0,10.348 20.688,18.793 20.688,26.281 .234.239.593.598.832.953 4.753,0 9.39.832 14.144-3.804v-.953-.95c-7.488-3.687-34.711-8.445-20.683-22.476 6.539,0 13.195,6.539 17.832,6.539 0,3.805 5.585,1.902 7.488,1.902 .953-.949 3.683-2.734 3.683-3.687 1.907,0 1.907-2.852 3.805-2.852 .359-.359.598-.594.953-.953v-1.902h.949c.954-.832-1.902-4.637-1.902-5.59-14.027,0-62.766-9.156-62.766-29.852 15.93,0 36.497-7.492 50.641,6.543 .832,0 1.785,0 1.785.949 1.903,0 2.852-.949 4.754-.949 .238-.238.594-.597.953-.832 .235-.359.594-.715.828-.953 0-4.758-1.781-5.707-4.632-8.445-2.856,0-11.176-3.805-11.176-6.539-.953,0-1.903-.953-2.852-1.903v-2.855c-4.636,0-44.937,2.855-44.937-3.688-10.344,0-11.293-13.082-11.293-19.742 1.902,0 2.851-2.734 4.754-2.734 4.636-9.395 31.859-5.59 38.398-.949v.949c4.637,3.687 8.442.953 13.078.953v-5.711c-.359-.238-.597-.594-.953-.832-13.078-7.492-39.348.832-50.523-10.348v-2.851c.953-.953 1.902-1.785 2.734-1.785 0-.953.953-1.903 1.902-1.903 0-2.855-.949-5.59-1.902-7.492-5.586,0-12.125,3.688-12.125,9.395-.949,0-1.902.832-2.851,1.785-6.54,0-14.86-1.785-19.618-5.59v-.953c-.593-.238-1.187-.594-1.902-.949v-13.082-.954c-1.781-1.902-11.176-6.539-14.027-6.539 0-1.906-.95,0-.95-1.906-1.785,0-7.488,3.809-7.488,5.711-.836,0-7.492,6.539-7.492,7.492h-5.586c-12.125-3.804-22.469-14.035-34.594-18.7927-17.832-6.5391-43.984,3.8087-61.816-3.6836-13.078-5.7109-29.957-7.4922-43.985-10.3477-5.589-.9531-56.945-3.6875-56.945,6.5391-5.586,0-12.242,4.7578-15.93,8.4453 58.848,0 136.711-15.1055 191.04,14.7466 3.683,2.023 29.125,12.011 31.027,14.867-4.52,1.664-9.035,3.328-13.672,4.996 .953,1.902 32.93,3.922 27.344,8.324-16.883,8.445-6.778,4.043-21.758,19.027-7.488,0 10.227-.117-.832,13.203-3.445,2.497-6.774,5.114-10.102,7.61-2.855,1.902-22.351-12.488-25.086-9.75 0,.949-10.937-13.797-20.089-10.469 0,12.133-52.188,10.469-68.118,10.469 0,.949.954,2.851.954,3.805 5.23.593 10.578,1.187 15.929,1.781" fill="#d9dde9"/>
   <path d="m535.742,178.176c4.637.953 20.563,9.398 23.297,12.25 14.149,0 21.52,20.574 29.008,28.07 0,2.852 2.851,7.371 3.805,9.274h.949c.238.593.594,1.191.953,1.785h2.734c.95-.832 1.903-1.785 2.852-2.735 0-5.472-2.852-9.277-5.586-13.914-8.441,0-18.781-22.48-23.422-27.234 0-1.785-.949-2.738-.949-4.641 .594-.593 1.308-1.187 1.902-1.902 4.637,0 9.274,1.902 14.028,1.902 0,1.903 15.929,14.985 16.882,14.985 1.782,2.855 13.075,8.445 13.075,11.3 1.902,0 15.929,11.18 15.929,13.082 1.785,0 0,.95 1.785.95 0,.832 1.903,3.57 1.903,4.519 3.804,0 7.488,7.492 12.242,4.641 .238-.238.594-.598.832-.953v-5.59c-2.734-.953-6.539-6.422-10.223-6.422 0-8.441-18.781-14.984-18.781-27.117 4.754,0 32.809,2.738 32.809,10.23 1.902,0 7.488,4.758 8.441,5.707v.953c.949.832 6.535,3.684 6.535,5.59h.953 .95c1.785,1.903 2.738,3.684 4.636,4.637v.953 .949c3.094,2.973 6.301,6.067 9.395,9.278v.832c5.586,4.758 15.929,8.445 21.515,14.152 0,2.734 3.684,6.543 4.637,8.324 5.586,0 6.539,13.203 15.93,10.348 0-5.59-15.93-21.527-20.567-23.43 0-1.902-5.586-8.441-7.488-8.441 0-.953-.953-1.785-.953-2.738-1.902-.95-3.684-5.59-3.684-7.372 .832,0 1.782-1.902 1.782-2.855 5.59,0 24.371,1.902 24.371,10.227 .355.238.594.593.953.953 .949,0 1.898.832 1.898,1.785 .239.355.598.711.832.949 .953,0 2.856.953 3.805.953 0-.953 4.637-4.64 5.59-4.64 2.851,0 4.754,3.687 6.535,3.687 0,10.348 20.688,18.793 20.688,26.281 .234.239.593.598.832.953 4.753,0 9.39.832 14.144-3.804v-.953-.95c-7.488-3.687-34.711-8.445-20.683-22.476 6.539,0 13.195,6.539 17.832,6.539 0,3.805 5.585,1.902 7.488,1.902 .953-.949 3.683-2.734 3.683-3.687 1.907,0 1.907-2.852 3.805-2.852 .359-.359.598-.594.953-.953v-1.902h.949c.954-.832-1.902-4.637-1.902-5.59-14.027,0-62.766-9.156-62.766-29.852 15.93,0 36.497-7.492 50.641,6.543 .832,0 1.785,0 1.785.949 1.903,0 2.852-.949 4.754-.949 .238-.238.594-.597.953-.832 .235-.359.594-.715.828-.953 0-4.758-1.781-5.707-4.632-8.445-2.856,0-11.176-3.805-11.176-6.539-.953,0-1.903-.953-2.852-1.903v-2.855c-4.636,0-44.937,2.855-44.937-3.688-10.344,0-11.293-13.082-11.293-19.742 1.902,0 2.851-2.734 4.754-2.734 4.636-9.395 31.859-5.59 38.398-.949v.949c4.637,3.687 8.442.953 13.078.953v-5.711c-.359-.238-.597-.594-.953-.832-13.078-7.492-39.348.832-50.523-10.348v-2.851c.953-.953 1.902-1.785 2.734-1.785 0-.953.953-1.903 1.902-1.903 0-2.855-.949-5.59-1.902-7.492-5.586,0-12.125,3.688-12.125,9.395-.949,0-1.902.832-2.851,1.785-6.54,0-14.86-1.785-19.618-5.59v-.953c-.593-.238-1.187-.594-1.902-.949v-13.082-.954c-1.781-1.902-11.176-6.539-14.027-6.539 0-1.906-.95,0-.95-1.906-1.785,0-7.488,3.809-7.488,5.711-.836,0-7.492,6.539-7.492,7.492h-5.586c-12.125-3.804-22.469-14.035-34.594-18.7927-17.832-6.5391-43.984,3.8087-61.816-3.6836-13.078-5.7109-29.957-7.4922-43.985-10.3477-5.589-.9531-56.945-3.6875-56.945,6.5391-5.586,0-12.242,4.7578-15.93,8.4453 58.848,0 137.067-15.4609 191.395,14.3906 3.688,2.02 38.043,14.508 39.824,17.246l-18.543,6.777c.949,1.903 44.578,3.329 37.09,8.801-16.762,8.446 1.305,6.778-13.672,21.762-7.488,0 21.043,1.309 8.442,17.723-4.52,3.328-8.918,6.66-13.434,9.988-2.855,1.785-27.582-18.078-30.316-15.223 0,.953-14.86-19.98-27.34-15.578 0,12.25-67.762,7.137-83.692,7.137 0,.949.954,2.851.954,3.805 5.23.593 10.578,1.187 15.929,1.781" fill="#eceef3"/>
   <path d="m535.742,178.176c4.637.953 20.563,9.398 23.297,12.25 14.149,0 21.52,20.574 29.008,28.07 0,2.852 2.851,7.371 3.805,9.274h.949l.953,1.785h2.734l2.852-2.735c0-5.472-2.852-9.277-5.586-13.914-8.441,0-18.781-22.48-23.422-27.234 0-1.785-.949-2.738-.949-4.641l1.902-1.902c4.637,0 9.274,1.902 14.028,1.902 0,1.903 15.929,14.985 16.882,14.985 1.782,2.855 13.075,8.445 13.075,11.3 1.902,0 15.929,11.18 15.929,13.082 1.785,0 0,.95 1.785.95 0,.832 1.903,3.57 1.903,4.519 3.804,0 7.488,7.492 12.242,4.641l.832-.953v-5.59c-2.734-.953-6.539-6.422-10.223-6.422 0-8.441-18.781-14.984-18.781-27.117 4.754,0 32.809,2.738 32.809,10.23 1.902,0 7.488,4.758 8.441,5.707v.953c.949.832 6.535,3.684 6.535,5.59h1.903c1.785,1.903 2.738,3.684 4.636,4.637v1.902l9.395,9.278v.832c5.586,4.758 15.929,8.445 21.515,14.152 0,2.734 3.684,6.543 4.637,8.324 5.586,0 6.539,13.203 15.93,10.348 0-5.59-15.93-21.527-20.567-23.43 0-1.902-5.586-8.441-7.488-8.441 0-.953-.953-1.785-.953-2.738-1.902-.95-3.684-5.59-3.684-7.372 .832,0 1.782-1.902 1.782-2.855 5.59,0 24.371,1.902 24.371,10.227l.953.953c.949,0 1.898.832 1.898,1.785l.832.949c.953,0 2.856.953 3.805.953 0-.953 4.637-4.64 5.59-4.64 2.851,0 4.754,3.687 6.535,3.687 0,10.348 20.688,18.793 20.688,26.281l.832.953c4.753,0 9.39.832 14.144-3.804v-1.903c-7.488-3.687-34.711-8.445-20.683-22.476 6.539,0 13.195,6.539 17.832,6.539 0,3.805 5.585,1.902 7.488,1.902 .953-.949 3.683-2.734 3.683-3.687 1.907,0 1.907-2.852 3.805-2.852l.953-.953v-1.902h.949c.954-.832-1.902-4.637-1.902-5.59-14.027,0-62.766-9.156-62.766-29.852 15.93,0 36.497-7.492 50.641,6.543 .832,0 1.785,0 1.785.949 1.903,0 2.852-.949 4.754-.949l.953-.832 .828-.953c0-4.758-1.781-5.707-4.632-8.445-2.856,0-11.176-3.805-11.176-6.539-.953,0-1.903-.953-2.852-1.903v-2.855c-4.636,0-44.937,2.855-44.937-3.688-10.344,0-11.293-13.082-11.293-19.742 1.902,0 2.851-2.734 4.754-2.734 4.636-9.395 31.859-5.59 38.398-.949v.949c4.637,3.687 8.442.953 13.078.953v-5.711l-.953-.832c-13.078-7.492-39.348.832-50.523-10.348v-2.851c.953-.953 1.902-1.785 2.734-1.785 0-.953.953-1.903 1.902-1.903 0-2.855-.949-5.59-1.902-7.492-5.586,0-12.125,3.688-12.125,9.395-.949,0-1.902.832-2.851,1.785-6.54,0-14.86-1.785-19.618-5.59v-.953l-1.902-.949v-14.036c-1.781-1.902-11.176-6.539-14.027-6.539 0-1.906-.95,0-.95-1.906-1.785,0-7.488,3.809-7.488,5.711-.836,0-7.492,6.539-7.492,7.492h-5.586c-12.125-3.804-22.469-14.152-34.594-18.7927-17.832-6.5391-43.984,3.8087-61.816-3.6836-13.078-5.7109-29.957-7.4922-43.985-10.3477-5.589-.9531-56.945-3.6875-56.945,6.5391-5.586,0-12.242,4.7578-15.93,8.4453 58.848,0 137.426-15.8164 191.754,14.0356 3.684,2.019 46.836,16.886 48.739,19.621l-23.418,8.445c.949,1.902 56.109,2.852 46.718,9.395-16.761,8.445 9.391,9.394-5.589,24.378-7.489,0 31.863,2.735 17.832,22.481l-16.879,12.129c-2.852,1.902-32.809-23.43-35.543-20.574 0,.949-18.785-26.282-34.715-20.575 0,12.129-83.215,3.688-99.145,3.688 0,.949.954,2.851.954,3.805l15.929,1.781" fill="#fff"/>
   <path d="m435.64 192.21c-89.872-33.656-153.59 11.297-232.17-67.434 0-7.488-3.805-11.175-3.805-18.668l3.805-3.808c44.937 0 56.109-52.446 56.109-22.477h-3.684l-24.371 17.84c-22.468 37.461 35.543 75.875 76.797 75.875-43.988-47.809-44.937-108.7 74.891-108.7l-3.801 3.8047c-58.965 31.876-60.629 50.546-30.793 89.91 11.176 7.492 30.793 18.672 45.77 18.672-14.028-11.18-43.985-35.559-3.684-56.133 26.152-11.301 53.375-14.985 86.066-26.285l70.137-6.5391c-7.488-3.6875-17.828-17.723-105.68-4.6406l-45.886 15.938 23.418-25.332c65.382-37.461 162.86-16.887 177.84-16.887l3.688 3.8046c-14.98 0-29.961 11.18-41.133 14.984v7.4922l3.684 3.6875c7.488 3.8047 48.742 14.985 56.23 14.985 0 7.492 3.684 0 3.684 7.492-7.488 0-14.977 3.809-18.664 3.809-63.715-29.973 44.937 11.175 44.937 41.148l-3.804 3.805-3.684 3.687h-7.488v-3.687c-14.981-7.492-52.426 0-63.723 3.687v7.492c3.805 3.805 7.492 7.493 7.492 11.297l-7.492 3.688h-3.684c-7.488 0-26.269-7.492-33.761-7.492-3.684 3.804-18.664 11.296-18.664 14.984h-78.578" fill="#a8b0c9"/>
   <path d="m714.652,495.598 20.567-1.071 14.027-1.547 1.664-1.191h4.281l4.872-1.543 13.078-1.668 17.238-5.351 7.012-3.805 3.804-6.539-3.804-1.547-7.489-2.262-6.062-.472-4.281-3.809 4.281-5.352-7.488-3.328h-3.211l-16.762-2.617-6.539-.594-.594-.597v-.473l5.469-1.668h3.211l10.816-3.211h2.735l1.664-2.14-1.664-3.805-5.946-4.875-11.41-1.664-6.422-.477-10.816-4.402 3.211-1.543 6.535-1.07 .476-1.668v-1.664l-8.082-5.352-17.355-9.156-5.352-1.664-11.886-1.668-1.071-1.071 7.61-3.211 1.066-1.07v-1.664l-7.605-4.281-2.141-.594-8.797-7.019-10.105-1.543-9.27-1.192h-1.07l-4.281-7.015-13.551-4.282-8.203-1.664-.953-1.547 5.945-3.804-.594-2.739-9.75-8.086-5.941-3.21-5.946.476-1.07-1.07 2.617-2.141 7.133-1.664 7.012-5.949 5.469-3.805 6.418-5.945 9.75-7.02 6.539-2.734 11.293-1.07 16.285,3.332 12.957,5.945 7.492,5.945 7.129,2.617 .476.594 2.141-2.734-2.617-7.492-3.328-5.469-8.559-8.684h-.594l-1.07-1.07 5.352-3.211 7.132-3.211 11.293-1.191 5.942,1.668h5.469l1.546-2.141-.476-1.668-9.746-5.351-8.68-1.665-10.223,1.071-8.203-.477-.476-.594 3.211-3.21-6.418-1.071-.598-.594v-.476l1.07-1.07 19.973.476 2.734-1.547-.476-2.261-12.004-3.805-5.945-.477-4.754-1.066-17.477.473-11.293,1.07-.594-.477 1.188-2.734v-1.07l-7.133-2.141-14.504-1.07h-37.328l-7.488-.594-4.875-2.617-14.145.476-.593.594h-.477l-1.07-1.07 .476-3.805-3.09-8.207-6.66-9.633-8.082-6.539-4.281-2.14-15.691-14.036-24.372-21.05-17.234-20.098-4.398-7.969-1.547-8.801v-4.164l-4.399-7.73-11.293-9.035-17.832.472-7.609.477-4.871,2.734-.477.477 2.141,3.332 .473-.594 5.945,11.891 7.609,8.086 12.957,15.222 18.426,24.977 4.281,5.352-8.679-.594-5.352-1.071-4.277,1.071-16.762.594-20.566,5.828-7.965,3.804h-.594l-2.141.477-3.804,2.734-8.082,1.664-2.141,1.547-5.945-.594-20.567-6.421-11.886-2.141-16.286-1.07-12.363,1.664-7.609,2.14-22.703,16.176-3.805,3.805-.477-.477-7.609,6.422-8.676,5.473-11.89,4.281-14.028-.598-15.215-3.211-11.89-7.015-16.762-14.629h-1.07l-4.871-5.945-28.649-24.739-12.961-13.554-5.941-4.403-4.398-2.617-6.422-8.086-4.871-7.609-8.68-9.754-12.481-11.418-11.89-5.945-16.762-4.164-1.07-1.188h-2.735l-15.097-5.949-7.012-5.469-4.2813-6.422-29.8359-30.8006-10.2266-6.543-12.4804.5938-1.0704,2.1406v3.8086l7.1329,7.0156 9.1523,13.438 3.2109,9.753-5.3476-1.546-7.6094-3.805-17.3555-6.543-8.0859-1.543-9.1523,1.066-3.8047,1.075-8.67972,7.015-1.06641,5.945 1.06641,4.282 4.39843,3.804 5.35159,1.668 12.957,3.211 10.8164,2.735h2.1445l14.6211,16.172 11.8868,17.367 3.8046,5.945v17.242l5.4688,7.731 5.9414,4.879 12.3633,9.156 3.8047,1.547 5.469,3.211 11.886,3.211 11.293,1.664 23.778-1.071 12.957,3.211 .594.477 8.679,4.398 5.348,4.282 5.469,7.019 11.89,12.961 23.774,27.59 1.07,1.191-3.684.477-7.726,4.875-3.688,8.086h-3.804l-4.871,3.808-2.618,4.875-2.851,18.434 1.066,15.578 1.192,3.805v2.262l-.594.476-9.156-29.258-.594-34.609-.477-.473h-1.187l-3.211,4.281-3.207,9.278-1.07,18.906 1.07,13.441v5.946l1.664,21.644-.477.594-5.468-9.156-3.805-8.684-4.871-27.113-.598-29.734-1.07-1.067-5.348,7.61-3.328,9.75-.476,15.105-2.735,6.543-1.664-.598-2.141,4.403-2.136,12.965v23.187l3.207,14.629 3.804,14.035 4.399,9.75 10.223,18.91 9.75,11.418 7.488,7.492 10.344,7.137 9.152,2.613 23.777-.472 6.535-2.739 15.692-8.085 12.961-14.629 4.871-9.157 6.422-14.152 12.008-18.316 8.675-7.016 5.946-2.734h8.082l34.117,18.433 26.988,9.156 11.887,3.211 7.609,1.664h4.278l15.097,2.145 18.426,1.07h8.086l30.195-.476 11.293-2.739 10.817-2.14h2.734l22.23-9.274 5.946.594 8.558,6.422 17.356,13.559 22.113,22.714 3.328,5.946 15.215,18.91 10.106,11.894 14.621,9.75 7.015,3.332h2.258l15.574,5.352 6.657,1.07 11.886,1.071 29.719.593 2.617.477 21.16-.477 11.293-.593" fill="#231f20"/>
   <path d="m738.43,491.316 8.675-1.07 9.75-2.141 15.692-2.261 16.168-5.352 5.941-3.211 2.262-2.258-8.203-3.21-6.422-.477-3.805-3.332-8.675,2.262-29.719,1.07h-14.625l-26.985,2.141-2.14-2.141 2.14-1.664 3.805,1.066 5.945-1.066h7.012l16.762-1.668h28.055l12.484-1.547 5.941-5.945-3.207-1.664-9.273-1.071-6.418-1.664-22.707-.476-22.231-1.071-18.902,2.141-10.816-.594-12.957,2.141-10.821.594h-11.293l-8.203-1.071-6.539,1.071-1.543-2.141v-.594l3.207-1.547h7.61l2.14.477h1.547l2.852-8.684v-1.546h-1.071l-.593-.594v-1.071l-2.258-.476-.477-.594v.594l-.476.476-2.137-1.664-8.203-2.14-5.469-.477-2.617-2.734-7.012,1.07-.594.594h-1.668l-.472-1.07v-1.664l3.804-2.141h5.465l.477.476 1.547-3.808 8.082-6.422 1.191-2.141-.476-2.734-4.875-3.805-13.075-3.804-1.07-1.071h-7.016l-.476.594h-1.07l-.594-1.07v-1.664l3.211-2.145 4.875.477h1.07l.473.593 2.261-2.14-1.664-7.61-4.281-3.21-19.019-7.016h-5.946l-.476.473h-.594l-1.07-1.071v-2.14l1.07-1.071 8.797.477v-3.211l-2.258-2.734 .477-5.352-2.618-2.734-5.468-1.071-9.746-3.211-7.493,1.543-1.664-1.543v-1.074l3.805-1.664 3.805-.594v-7.492l-3.328-2.14-3.688-1.665-3.801-2.734h-5.468l-2.024,1.664h-1.187l-.594-1.664v-1.668l2.734-2.141 5.469.594h1.543v-8.679l-5.348-5.352-11.886-4.402-9.274.597-3.211,2.141h-1.07l-.594-1.07v-1.668l4.399-2.735 2.734-.476 3.687-1.664 15.215-.477 4.282-.594 5.464-4.875 4.875-2.14h5.946l1.547-1.071h-.477l-12.363-2.14-4.992-2.141-1.547-2.734 3.207-2.739 7.015-1.664 10.223-1.07-7.012-2.141-10.82-1.546-2.613-2.258v-1.071l2.613-2.14 2.734-.477 15.692-8.683 6.422-7.61v-7.015l-10.821-16.176-9.629-5.469-12.363-11.301-12.598-7.609-.476,4.281h-2.735l-7.609-4.875 4.875,9.75v1.071l-1.547,1.07-1.664.476 5.945,14.153 .594,2.734v.953l-1.664,1.782-3.211-2.258-1.664-1.547-.472,9.754-2.262,2.14-1.543-1.07 1.543-7.019-2.137-8.204-11.297-18.316-2.258-2.734-5.347-2.735-6.539-.476-5.352-1.071-16.164.473-23.301,5.949-11.769,4.875-3.211,2.617-10.34,2.856v.473l-11.297-1.071-20.09-6.422-12.957-1.664-5.945-1.07-17.234,2.023-8.68,2.258-12.957,8.563-11.887,10.347-15.691,10.821-14.625,5.472-15.098-.593-4.871-1.547h-4.399l-7.015-2.735-10.817-5.949-21.16-18.906-22.113-18.316-23.773-23.309-11.414-8.09-9.036-14.152-9.867-10.703-11.293-10.227-9.746-4.996-18.902-4.875-7.133-2.023-1.07-1.188-4.282-1.664h-2.734l-1.07-1.07h-1.543l-4.875,4.875-1.188,6.539-3.2107,4.402-1.0703,6.422-1.0703,1.547-6.5391,3.328-1.543,1.547-7.0156,1.664-4.8711,4.879-.5976,6.422-2.1368,1.187-1.0703,1.664 .4727,13.442 4.3984,5.945 16.7617,13.559 12.363,5.824 7.133,1.668 11.891,2.019 15.097-.949 10.817-5.828 2.734-2.734 1.071.593 1.07,1.071-.594,2.617 1.664.594 1.07.949-.593,1.668-1.547,2.019 12.957,4.403 11.293,9.277 10.344,12.961 3.207,1.547 7.015,9.277 30.313,36.152 17.359,23.907 18.426,17.84 13.433,11.296 17.829,12.489 8.679,5.945h1.664l20.567,12.367 5.945,3.332 2.141,1.547 15.691,4.875 5.348,2.734 15.215,3.805 8.086,2.141 28.054,3.804 29.719.477 11.414-1.07h10.106l7.132-2.141h3.207l16.168-3.211 21.637-8.086-10.223-7.015-2.734-2.739h-1.664l-21.043-13.554-8.082-3.809-11.414-1.547-4.16,2.145h-2.141v-2.145l5.352-3.328 11.293,1.07 14.027,6.543 20.566,12.961 33.996,24.856 12.961,10.824 9.27,9.277 8.68,8.563 8.082,12.484 7.492,9.16 6.535,9.278 2.141,2.14v1.071l.593-.598 13.434,11.418 10.344,5.351 8.203,2.739 3.683,1.66 19.024,2.617 12.957,1.668 51.355-.477 30.196-1.664" fill="#d1eaf4"/>
   <path d="m448.484,363.469c-12.957-3.332-13.789-6.899-24.132-12.133 0-9.273 5.707-31.754 7.488-39.246 28.058-9.395 18.785-28.184 18.785-44.953 1.902,0-11.293-22.477-11.293-24.379l1.902-1.906h1.899v-1.903h1.902v-.832l2.141-.594 3.211-2.617 11.769-4.875 1.543-.359c.239.238 1.903,1.785 3.688,1.785 0,1.902 13.074-5.59 13.074-1.785l28.769-4.875 1.903.121-32.574,10.344c17.359-9.395 29.246-11.18 37.449-8.801l2.851,1.43 2.258,2.734 11.297,18.316 2.02,7.493c0,.355 0,.711.117.949l-1.543,6.781 1.543,1.07 .715-.714c3.566,17.839 24.843,39.125 35.066,49.355l-14.262,6.66-9.629.356-3.687,1.664-2.734.476-4.399,2.735v1.668l.594,1.07h1.07l.715-.477c2.973.832 6.539,1.309 4.277-.953l1.903-.949-3.684.238-.949.594c4.516.356 9.152.238 13.668.117l3.805,1.43 2.496.832 7.488,7.848v7.015h-1.543l-5.469-.594-2.734,2.141v1.668l.594,1.664h1.187l2.024-1.664h5.468l3.801,2.734 3.688,1.665 3.328,2.14v7.492l-3.805.594-3.805,1.664v1.074l1.664,1.543 7.493-1.543 9.746,3.211 5.468,1.071 2.618,2.734-.477,5.352 2.258,2.734v3.211l-8.797-.477-1.07,1.071v2.14l1.07,1.071h.594l.476-.473h5.946l16.523,6.062c2.852,3.688 5.586,7.258 8.32,10.942l.121.832-2.261,2.14-.473-.593h-1.07l-4.875-.477-3.211,2.145v1.664l.594,1.07h1.07l.476-.594h7.016l1.07,1.071 8.676,2.613c2.617,3.57 5.113,7.019 7.727,10.586l-7.25,5.707-1.547,3.808-.477-.476h-5.465l-3.804,2.141v1.664l.472,1.07h1.668l.594-.594 7.012-1.07 2.617,2.734 5.469.477 8.203,2.14 2.137,1.664 .476-.476v-.594l.477.594 .476.121c.356,3.566.711,7.371 1.067,11.059l-.473,1.191h-1.547l-2.14-.477h-7.61l-3.207,1.547v.594l1.543,2.141 6.539-1.071 7.254.953c0,1.188.117,2.141.117,3.211-1.902,0-5.707,3.684-5.707,3.684-15.929,4.758-48.5-10.941-78.816-30.918l-.117-.238-8.68-8.563-9.27-9.277-12.961-10.824-29.597-21.524c-2.024-2.5-3.567-4.758-4.637-6.66v-1.902c-4.398-2.141-10.582-3.688-16.523-5.356l-3.805-2.375-14.027-6.543-11.293-1.07-5.114,3.094zm87.137-36.867c-1.902-.239-1.426.234 0,.711m-81.074,36.39-1.188.598 2.258-.477-1.07-.121" fill="#bcdce8"/>
   <path d="m625.969,465.031 4.281-14.39c-5.59,0-14.98-3.688-14.98-11.18 3.21,0 4.757-.711 5.113-2.02l-.356.356h-1.668l-.472-1.07v-1.664l1.543-.954c-3.801-6.062-17.235-15.339-17.235-15.339l-1.902-1.786c-1.902-1.902 1.902-7.492 1.902-9.394-5.59-1.902-13.078-5.59-16.882-7.492 0-1.903 1.902-7.493 1.902-9.395-3.805,0-7.488-5.59-11.293-5.59v-9.394c-13.078-5.59-24.25-14.989-35.543-22.481 0-5.59-11.176-20.574-16.883-20.574 4.754,0 11.652-1.547 17.594-4.043-.949,0-2.02-.238-3.09-.594l-.715.477h-1.07l-.594-1.07v-1.668l4.399-2.735 2.734-.476 3.687-1.664 2.852-.118c-.953-3.449-3.684-7.613-5.113-10.585-9.391,0-20.684-11.297-29.957-11.297 0-1.786 3.687-5.59 3.687-7.493-1.902-1.785-7.492-5.589-11.176-5.589l-1.902-1.903c0-7.492 16.883,1.903-5.586,1.903 0-1.903-1.902-3.688-1.902-5.59l-9.391,13.082 3.801-11.18-7.488,26.164c5.589,5.59 3.687,26.285-1.903,33.778h-1.902c-5.586,7.488-13.074,11.175-24.367,11.175v7.375l8.797.832 14.027,6.543 3.805,2.375c5.941,1.668 12.125,3.215 16.523,5.356 0,1.902 20.567,14.984 24.25,14.984 5.707,13.082 54.328,43.051 67.402,48.758 0,3.687 7.493,5.59 7.493,9.277l1.902,1.903c2.375,0 11.41,6.781 17.832,12.132 2.734.95 5.348,1.665 7.844,2.258zm-83.094-137.242c.473-.117.949-.355 1.305-.594-1.543,0-3.09-.121-4.633-.238l.949-.594 3.684-.238-1.903.949c.36.239.477.598.598.715zm-7.254-.476c-1.426-.477-1.902-.95 0-.711-1.902-.239-1.426.234 0,.711" fill="#abcddb"/>
   <path d="m505.547,385.469c-.477-.715-.715-1.426-.715-2.258-1.902,0-28.055-18.672-28.055-20.574h-9.39l11.531,5.351 20.566,12.961 6.063,4.52zm-55.516-22.832-1.785,1.066v2.145h2.141l4.16-2.145 11.414,1.547 8.082,3.809 21.043,13.554h1.664l2.734,2.739 10.223,7.015-21.637,8.086-16.168,3.211h-3.207l-7.132,2.141h-10.106l-11.414,1.07-29.719-.477-28.054-3.804-8.086-2.141-15.215-3.805-5.348-2.734-15.691-4.875-2.141-1.547-5.945-3.332-20.567-12.367h-1.664l-8.679-5.945-17.829-12.489-13.433-11.296-18.426-17.84-17.359-23.907-9.864-11.773c-1.191-9.156 5.825-19.859 5.825-27.117 4.039,0 14.382-10.106 23.894-12.485l11.531,10.344 10.817,5.949 7.015,2.735h4.399l4.871,1.547 15.098.593 14.625-5.472 15.691-10.821 11.887-10.347 12.957-8.563 2.617-.715c.594,1.547 1.188,2.973 1.188,2.973v1.785c0,0-1.786,3.809-1.786,5.711-5.703,0-5.703,26.164-3.804,29.969h1.906v3.687c1.898,1.903 9.391,9.395 9.391,11.297 5.585,0 16.761,5.59 22.468,5.59l1.782,1.902v7.493c3.804,1.785 14.98,18.672 14.98,22.476 13.195,1.785 14.977,11.18 22.465,20.574h1.902c0,1.903 1.903,5.59 5.59,5.59 0,3.809 7.488,5.59 7.488,9.399h3.211" fill="#dbb88f"/>
   <path d="m246.867,321.012c2.02-2.262 5.231-7.258 5.231-8.922 1.902,0 3.804-1.902 7.488-1.902-1.781-1.903-7.488-7.493-9.27-7.493 0-1.902 1.782-3.804 1.782-5.59l-1.782-1.902h-3.808c0-1.902-5.586-3.805-5.586-7.492-1.902,0-5.586-7.492-7.488-7.492v-5.59c3.683,0 11.175,1.785 14.98,1.785 0,5.707 3.684,5.707 3.684,7.492 1.902,0 5.707-1.785 7.488-1.785v1.785h7.488l1.903-1.785c0-1.902 1.902-5.707 1.902-7.492h5.59c0-1.191 1.902-4.164 3.207-7.254l-5.586-2.141-10.817-5.949-21.16-18.906-22.113-18.316-23.773-23.309-11.414-8.09-9.036-14.152-9.867-10.703-11.293-10.227-9.746-4.996-18.902-4.875-7.133-2.023-1.07-1.188-4.282-1.664h-2.734l-1.07-1.07h-1.543l-4.875,4.875-1.188,6.539-3.2107,4.402-1.0703,6.422-1.0703,1.547-6.5391,3.328-1.543,1.547-7.0156,1.664-4.8711,4.879-.5976,6.422-2.1368,1.187-1.0703,1.664 .4727,13.442 4.3984,5.945 16.7617,13.559 12.363,5.824 7.133,1.668 11.891,2.019 15.097-.949 10.817-5.828 2.734-2.734 1.071.593 1.07,1.071-.594,2.617 1.664.594 1.07.949-.593,1.668-1.547,2.019 12.957,4.403 11.293,9.277 10.344,12.961 3.207,1.547 7.015,9.277 30.313,36.152 14.98,20.696" fill="#648e86"/>
   <path d="m106.117,190.426c0,0 9.27,7.496 9.27,9.277h24.371l1.902,3.805 1.903,1.906h13.074c.953,4.637 1.429,10.82 1.668,17.004l.593.594-.593,1.547c.117.953.117,1.902.117,2.738l11.293,3.805 11.293,9.277 10.344,12.961 3.207,1.547 7.015,9.277 5.469,6.422c1.187.117 2.496.238 3.922.238 0,1.543 0,3.09.121,4.637l16.762,19.98v-2.14l3.683-3.688c0-1.902-5.586-7.492-7.488-9.394 1.902-1.903 3.805-5.59 5.586-7.492-1.781-1.903-3.684-5.59-5.586-7.493-3.688,0-5.59,1.903-7.488,1.903v-3.809c3.8,0 5.586-5.59 9.39-5.59 0-5.586 0-7.488-3.804-11.297-5.586,0-13.078,5.711-16.879,7.493 3.801,0 3.801-3.684 3.801-5.59-5.586-1.903-14.977-3.684-16.879-3.684v-7.496h-7.489c0-1.902-3.687-5.707-3.687-7.492 1.785,0 1.785-3.805 1.785-5.707-5.59,0-9.273,0-14.98-3.567 0-1.902-1.782-3.808-1.782-3.808 0-1.902 3.684-9.395 0-9.395 1.782,0 1.782-1.781 1.782-3.687l-1.782-1.903c-3.804-1.902-3.804,0 1.782,0-3.684,0-11.176-3.683-14.977-3.683v-7.496h7.488c0-3.805-5.59-9.395-5.59-11.297-3.683,0-7.488,3.805-11.171,3.805 0-3.805-5.708-3.805-7.489-3.805v-1.902h-3.804l-1.903-3.688h-3.687v-1.902h-3.801v-1.903c-1.785,0-9.274-1.785-9.274-3.687h-14.98c0,5.59 1.785,13.082 1.785,16.887l1.903,1.785 1.898,1.902c1.906,0 3.687,0 1.906,3.805zm125.653,109.773c-.118-.359-.239-.836-.239-1.308l-1.426-.715 1.665,2.023" fill="#5e7b76"/>
   <path d="m658.898,469.672-3.089-2.141h-3.329l-5.468-2.14-12.364-2.739-2.14-1.664-3.805-.476-2.734-2.258-6.539-8.09-2.614-5.351-7.609-1.665-13.551-11.296-9.156-10.348-9.629-5.352-7.726-11.894-.473-2.258-3.688-2.141h-1.187l.594,4.399 3.207,7.019 15.695,16.172 7.488,8.09 4.399,7.133 8.086,9.16 13.55,9.156 9.747,4.875 1.664,1.668 2.023.473 7.012,2.734 14.148,2.739 7.488-.594v-3.211" fill="#231f20"/>
   <path d="m632.51 464.79-8.68-3.805-8.558-11.297v-1.668l-8.797-2.734-13.907-12.367-0.714-1.07-2.141-2.262 10.344 14.152 12.363 11.301 4.992 2.734 4.875 2.735 4.871 3.211 12.364 4.281 10.82 2.262h2.613l-20.445-5.473" fill="#9ab9c7"/>
   <path d="m682.199,453.496 19.496-.594 21.637-1.668 14.027.598 5.469-2.141 10.817-1.668 16.168-4.281-1.547-2.258-6.539-3.211-11.293-.476-8.2-2.734-1.074-1.071h-2.137l-19.496-4.402-21.636-1.07-9.153,1.668-15.097,4.875-10.821,3.804-2.734-.594-1.188-1.546 2.856-1.664h3.684l19.496-7.016 7.011-2.141h21.16l9.75,1.071 7.012,1.07 4.281-1.668 9.153-1.547-6.418-4.398-15.692-8.086-5.945-2.141-20.566-2.734-24.844-.598-15.098,1.191-9.75,1.547-8.203-.476-.594-.594 1.071-1.07h4.398l26.512-3.809h21.637l7.011,1.07h2.141l.594-1.543 8.679-3.332-8.679-4.281-5.348-4.875-7.133-2.14-41.609-3.211-13.434.472-.711.598h-.476l-.594-1.07v-1.668l2.258-1.664 22.707,1.07h9.629l3.328.594h1.07l-.476-2.141-3.922-2.734-12.84-3.805-11.414-1.07-14.621-2.141-9.629.473h-7.133l-3.211-3.207v-.477l1.07-1.191 4.875,2.261h4.399l4.281-1.07 8.559.477 12.48,1.664h1.664v-2.735l4.758-3.808-10.105-8.086-4.875-2.141h-10.817l-16.762-.594-10.937,1.071h-2.02l-1.191-1.071 1.664-1.546 4.758-.594 11.41-1.668h14.148l-1.664-1.543 .594-.594-4.875-3.809-11.887-4.875-5.945-.476-11.887-1.664-7.132,1.07-2.735-1.07 .594-2.141 11.293-1.07 12.484,1.07 3.328-1.664v-1.07l-9.867-7.02-9.156-.472-5.941-2.262-9.629,1.07-1.785,1.192-2.614.472-4.398-1.066-3.805,1.066 10.344,6.543 2.73,4.875-.472,7.492v1.071l5.347,2.738 4.754,5.945v7.61l15.219,5.949 3.805,4.875 .476,5.352 1.664,2.734v4.281l17.235,7.613 4.875,5.469 1.07,5.949-.477,2.614-1.07,1.07 6.422,3.809 8.203,2.734 3.207,4.281v5.946l-5.941,5.945-2.617,1.191-1.071,2.141-.711.476 1.782,1.665 .476-.594 2.141,1.664 14.144,3.805 3.09,2.14 1.785,2.141v3.804l-2.258,3.809-.476,3.211 .949.594 23.301-.594 5.945-1.547zm-78.34-2.617c-3.804-5.59 2.02,1.664-1.664,1.664h3.684c6.18,6.187 18.902,4.996 29.957,2.5l-2.258,1.07v.594l1.543,2.141 6.539-1.071 8.203,1.071h11.293l10.821-.594 12.957-2.141 10.816.594 18.902-2.141 22.231,1.071 22.707.476 6.418,1.664 9.273,1.071 3.207,1.664-5.941,5.945-12.484,1.547h-28.055l-16.762,1.668h-7.012l-5.945,1.066-3.805-1.066-2.14,1.664 2.14,2.141 26.985-2.141h14.625l29.719-1.07 8.675-2.262 3.805,3.332 6.422.477 8.203,3.21-2.262,2.258-5.941,3.211-16.168,5.352-15.692,2.261-9.75,2.141-8.675,1.07-30.196,1.664-51.355.477-12.957-1.668-19.024-2.617-3.683-1.66-8.203-2.739-10.344-5.351-13.434-11.418-.593.598v-1.071l-2.141-2.14-6.535-9.278-7.492-9.16-8.082-12.484-8.68-8.563-9.27-9.277-12.961-10.824-33.996-24.856-20.566-12.961-8.086-3.808c-1.426-1.426-3.445-2.496-5.348-3.45h3.805v1.907h7.488v-1.907c15.692-9.039 26.985-3.804 42.082,0v1.907c3.688,0 8.442,7.492 12.125,7.492 0,4.043 4.637,9.394 9.395,9.394 0,11.18 29.953,22.36 29.953,35.559 3.805,0 20.094,14.27 20.094,18.078 3.922-.121 12.957,14.508 13.433,17.719zm-131.004-82.297c.118.477.118.949.118,1.547 1.902,0 3.687,1.781 5.586,1.902l-4.516-2.972-1.188-.477zm5.704,3.449c0,3.688 1.902,0 1.902,3.688 1.902,0 5.59,1.902 5.59,3.804 3.804,0 7.488,3.688 9.39,5.59h3.805c0,3.688 1.781,0 1.781,3.688 2.379,0 4.875,1.07 7.371,2.617l-8.914-6.066-2.734-2.739h-1.664l-16.527-10.582zm170.828,79.086-1.305,3.926h-1.547l-2.14-.477h-6.657c4.399-1.07 8.442-2.378 11.649-3.449" fill="#a58d70"/>
   <path d="m236.762,442.078 7.133-4.875 7.015-5.945 6.418-8.684 12.957-24.855 3.805-7.016 6.539-9.754 14.621-9.75 4.875-.476-15.219-10.825-26.031-21.168-14.504-15.101-3.805-5.356-18.902-26.043v-1.07h-1.187v1.664l-4.161.477-4.992,2.734-3.804,7.61-4.875,21.648v3.211l.593,3.211v5.469l-1.664,1.546h-.476l-1.071-1.07 .477-19.387 2.734-11.414-1.07-1.07-3.207,2.141-2.734,3.804-2.618,15.7 .477,17.836 1.543,12.964-.473,4.282-.597.593h-1.543l-7.133-20.574-5.352-19.504-.593-26.996 .593-.476v-1.188l-3.804,7.609-.473,9.161 .473,27.589 1.07,3.805 .598,20.574 3.328,11.895v.594l-1.785,1.547-2.614-3.211-7.609-16.176-6.539-15.695-4.871-27.118-.477-19.386-2.734,4.757-1.071,6.543 .594,18.907-2.258,2.738h-1.07l.594,17.242 2.14-5.351 1.071-.594h1.664l1.07,1.664-1.664,3.805 1.07,3.808 .594,6.422 9.152,20.098v1.547l8.086,12.488 2.258,1.07 1.543,1.664-1.07,1.547-1.07,1.07-3.801-2.617-9.156-15.699-8.676-18.91v-1.188l-.477-.476-2.734,1.664-1.664-3.328-2.617-11.895v-15.101l-2.731,21.644 .473,18.91 2.734,9.75 4.281,15.7 7.606,15.699 8.086,14.031 12.48,14.035 14.028,9.156 7.609,2.262 6.422.477 12.598-1.075 15.574-5.945" fill="#a58d70"/>
   <path d="m585.91 425.31-1.07-1.071 3.805 4.282-2.141-3.211h-0.594" fill="#fff"/>
   <path d="m643.922,338.73 .473.594 11.414-10.226 2.613-1.664 1.664-7.614-8.676,1.664h-3.805l-5.945,1.071h-2.14l-1.067-2.141 .594-5.945 .473-.594-2.258-1.547-12.957,1.07-11.293,2.618-1.547-.477h-1.07l-1.188-1.07 1.664-1.664 3.211,1.07 15.691-4.281 11.293-.594 2.258,2.141-1.187,7.609 16.761-1.664 2.856-1.07 2.137.593 .953,1.071-1.547,4.875v.476l6.539-2.617 .949-1.07 12.008-1.664 14.621,2.14 16.168,5.946 9.273,7.019 5.348,2.735-1.664-5.946-7.012-8.683-18.902-12.368-3.211-1.664-7.605.594-13.555-.594h-1.07l-1.543-1.668v-5.945l-1.664-3.211-5.352-3.805-6.539-1.07h-8.676l-5.351-2.738-4.993-5.945-3.089-1.547-3.329-.594-2.617-1.07-17.949-.477-3.211-3.328h-10.34l-5.945,2.141-6.895,6.543-8.203,2.734-9.75,4.875h-.593l3.328,1.547 14.027,2.734 1.664,1.07 1.547,1.665-.477,1.546-3.328,2.262-16.761,2.141 3.804,2.734 12.481,1.07 1.668,1.071 .593,1.07v1.664l-4.398,3.211-4.398.477-5.352,1.07-2.141,1.187-1.664,1.547 11.293-1.07 7.61,2.141h7.609l12.363,9.277 .594,2.617v1.664l-1.07,1.071h-.594l13.672,5.945 5.941,7.019 9.629-3.808 7.137-5.946" fill="#5e7b76"/>
   <path d="m826.043,344.199 1.664-4.398v-2.617l-8.68-13.555-6.418-16.176-3.804-10.348-7.61-9.753-1.664-6.422 1.664-3.328 6.539,1.187 7.012,6.422 10.227,11.894 12.957,12.489 4.875,5.945 14.621,10.227 1.664,2.144h2.14l3.801-5.355-.593-5.469-2.735-2.617-4.871-.594-8.562-4.281-16.762-23.309-2.735-5.355-1.066-5.469 5.348-4.281 6.539-1.664 5.347,1.664 5.946,6.422 2.258,4.402 15.097,15.695 1.664,3.809-1.07,2.137 1.07,4.285 2.141,2.14 4.875-.476 3.207-4.403v-6.421l-2.137-2.735-8.086-5.945-7.609-11.895-4.277-6.539v-5.351l3.21-2.141 4.278-.598 12.957,1.668 5.945,1.543h3.328l2.141-2.613v-3.809l-4.875-4.281-.594.477-3.211-2.735-.472.594-2.735-1.664-12.484-1.07h-5.942l-3.804-1.071h-1.071l-.476-.476v.476l-.594.594-4.281-1.785-13.551-2.019-2.734-1.071-2.141-3.804 1.07-4.997 4.399-3.093 4.281-1.071h4.871l4.281-2.734v-3.328l-3.207-3.215-7.015-2.019h-3.211l-6.535-3.805-1.075-1.547 1.075-2.734 9.746-2.739 14.621,3.688 5.351,2.262h4.872l1.664-2.262-1.071-3.09-6.535-6.543-7.016-3.211-16.761-.594-8.082-3.332h-3.805l-2.141-1.07-4.875-1.543-1.07-1.547-1.066-1.191v-3.688l6.418-7.133-.477-3.211-3.805-2.261-5.468-1.543-2.614-.598-3.328-2.019 2.258-2.262 5.945-1.07 11.887-.594 2.613-3.211-.472-5.473-5.946-5.945-8.082-2.141h-5.468l-14.625-.476h-1.543l8.558,1.074h2.735l14.027,1.543 5.469,3.332 3.211,4.398v3.094l-2.141,2.258-14.621.598-5.352,2.613-1.664,1.668 3.211,2.613 10.817,4.402 1.07.594 1.664,1.547-6.539,8.203 1.191,5.949 4.278,3.688 11.886,2.258 6.54,2.617 17.238.476 7.015,4.399 4.399,5.945-1.07,1.071-4.875-.594-9.75-3.688-11.411-1.187-7.488,2.258-2.262,3.211 .598,3.332 8.082,5.23 8.086,1.074 2.734,1.543 1.067,1.192v1.07l-3.207,2.141-9.156,1.546-3.329,2.258-2.613,4.875v4.879l1.07,2.141 2.614,1.664 14.621,3.211 14.621,2.14 11.297-.476 5.469,1.547 8.082,4.398 1.664,2.738-1.071,2.614h-4.875l-6.535-2.141-11.89-1.07-6.418,2.14-2.258,2.141 .593,7.613 12.958,19.504 6.539,4.875 2.613,3.809-.473,3.683-3.211,2.739-2.258-1.071-1.546-2.14v-6.543l-2.141-4.281-11.41-11.418-4.875-5.352-2.141-4.281-6.535-4.875-4.281-1.192-4.281,1.192v.476l-7.606,3.211-2.141,2.735 1.543,9.156 4.875,8.683 5.469,6.54 8.68,12.371 8.082,3.804 7.015,2.141 2.137,2.258-.472,3.211-2.735,2.738-16.285-11.895-25.324-27.113-6.535-7.019-4.875-3.211h-7.61l-1.547,1.547v8.207l3.805,7.492 6.422,7.609 5.469,15.699 2.613,4.875 2.734,8.09 6.539,8.68-.593,4.281-4.282,2.735-2.734-.594-3.211-5.352-2.137-7.015-3.804-14.629-5.946-15.7v-3.804l-4.875-9.156-6.535-7.614-8.086-4.875-2.734-1.07-1.543,1.664 8.559,3.805 7.605,8.09 5.352,9.156 2.734,10.347 5.941,17.84 2.141,9.157 3.328,9.75 2.141,2.144 6.539-1.07 2.617-2.145" fill="#7c88a5"/>
   <path d="m724.996,305.191 1.543.598 4.875-2.144 12.957,1.074h3.328l-7.011-3.809-8.68-1.07-12.481,1.07-8.558-1.664-1.192-2.141 .594-1.07 1.07-1.07-7.011.594h-1.664l-.477-1.188v-1.547l5.945-3.804 7.489-1.071 11.41.473h1.07l-8.676-2.613-14.027-1.071-17.953,1.547-11.293,1.067h-2.613l-.594-1.067v-1.547l5.941-3.332 .594-.476-12.957-2.141-23.895.477 7.61,7.613 4.875,1.543 13.551.598 5.351,4.281 3.328,5.945 .473,3.805 7.609,1.07 9.153-.476h4.281l12.008,7.496 4.754-1.071 9.273-4.879" fill="#648e86"/>
   <path d="m728.203,262.023-1.07-5.472-12.481-6.422-8.558-12.606-10.344-9.039-2.258-4.402v-2.613l3.328-2.141 3.805.594 5.469,2.141 7.011,5.234 7.493,4.875 3.328,3.805h1.07l2.137-3.805 1.664-1.547 4.875.477 7.488,8.679 4.403,8.684 17.832,12.367 4.277,1.191 3.211-.597 3.805-4.875-.477-3.211-7.016-3.211-7.605-2.734-5.469-6.543-2.141-5.946 6.54-1.07 6.418,1.07 10.343,8.086h4.278l7.609-4.875 3.211-4.758v-6.062l-4.875-4.758-14.621-4.758h-2.141l-16.168-3.804-9.273-4.403-4.278-1.07-9.156-5.469-4.871-4.879v-2.019l5.942-4.996 11.296-1.547 6.536.597 11.89,3.09 7.012,4.875 4.281,3.332 4.871,1.071 4.875-1.071 3.328-5.351-.593-3.332-4.278-3.211-8.679-3.328-5.469-4.282-1.547-4.281-13.551-1.664-13.551,2.258-9.156-1.07-12.48-4.875-7.016-7.137v-8.086l4.398-4.402 6.422-2.141 13.551-1.547 5.945.598 17.356,6.898h4.281l4.278-4.879v-3.211l-5.348-3.804h-9.156l-8.2-3.211-8.086-1.071-17.238-1.664-3.328-2.144-1.07-1.067 .593-3.214 4.875-3.805h1.071l1.07-1.07v-2.258l-4.875-3.211-7.605,1.664-2.141,1.547-3.805,7.133-11.886-1.665-10.821-3.21-2.734-2.735-.594-3.211 4.399-4.875 2.14-2.261h.594v-1.543l-8.082-4.879-8.086-3.211-5.469,2.617-4.277,5.945-3.926,2.262h-11.293l-16.762-6.543-12.957-10.8204-3.804-1.0703-2.141-.5976-7.488-2.6133h-4.875l-6.535-1.0703h-15.219l-21.637-2.2618h-8.082l-4.281-1.0703-21.633-3.2109-7.016-.5938-15.691-2.6171-15.215.4765-22.113,4.3985-7.488,3.2109-17.239,5.9492-2.734.4727 8.086-1.543 21.516-7.0195 21.636-3.8047h16.164l18.43,3.2109h5.941l28.176,4.4024 15.692.4726 8.558,1.668 18.903.4726 10.816,2.1407 12.602,5.949 7.488,7.137 7.015,3.684 15.692,3.808 8.082-.476 2.734-1.071 7.016-8.207 2.141-1.547 4.875,1.071 9.746,5.351-4.875,4.879-1.543,4.875 .476,2.734v1.188l4.871,3.094 19.496,3.804h4.282l4.875-8.086 .593.594 4.278-2.734 3.211.476 1.664,1.664-4.875,4.282-1.543,2.855v4.16l5.941,3.332 13.434.477 12.484,2.852 .473-.594 3.328,2.14 7.016,2.141 4.875-1.07 3.207,1.547 1.07,1.187-1.07,4.281-3.207,1.664-8.68-2.73-8.68-4.402-8.082-1.071-17.355,3.328-5.352,2.145-3.207,4.875-1.07,4.875 .472,4.875 8.086,7.492 8.68,3.926 11.887,1.547h5.941l11.891-2.141 5.469,1.07h3.207l3.211,4.875 8.679,5.946 7.012,2.14 2.734,3.332-1.664,3.09-2.14,2.262-8.082-1.664-8.68-7.613h-3.207l-11.414-3.211-14.028.593-6.418,2.141-4.875,5.473 .477,3.804 7.606,6.422 16.761,7.614 11.891,3.804 17.832,3.688 9.152,4.758 1.664,2.257-.593,5.352-6.422,5.945-2.735,1.071-3.8-.473-5.946-5.473-7.015-2.734-10.223.476-1.664,1.782 2.14,7.019 2.141,4.281 6.539,4.875 10.817,3.805 1.07.953-1.07,2.258-3.211,2.141-7.133-2.141-12.363-9.156-4.872-6.543-2.738-5.945-5.347-5.946-5.469-1.07h-3.211l-3.207,2.734-17.832-11.297-5.946-2.617-5.941.477-2.734,3.211 .472,5.23 3.805,5.473 6.539,5.351 5.352,6.54v.597l-.477.594-8.68-7.731-4.992-1.546-11.293-8.086-5.945-9.039-2.137-4.875-14.031-9.278-8.676-3.211-11.89-8.683-10.34-3.688h-7.489l-3.332,4.164v5.946l2.856,4.878 5.348,4.875 1.664,3.329 2.617,2.617 1.187,2.855 4.754,3.094 4.281,1.188 4.993,3.093 2.023,2.735v1.664l-2.617,1.547-3.328-.477-5.946-4.875-1.543-3.211-10.343-10.703-28.649-24.977-13.433-9.156-5.946-1.664-2.734,1.188-4.398,4.757-.473,2.258v2.617l2.73,4.875 18.309,18.317v1.187l8.086,7.02 3.801,6.422-3.801,4.875-.477.476h-1.07l-3.211-3.804-1.187-6.305-9.629-14.035-5.946-5.946-13.55-8.8-27.579-13.438-7.015-2.262h-1.664v1.071l8.082,2.855 7.609,2.617 22.231,10.821 12.957,9.277 11.886,16.176 2.141,4.281 .477,5.352 1.781,3.211 2.617,2.257 4.875-3.804 2.141-2.258-.598-5.234-3.09-5.352-7.012-6.66-21.636-22.715v-5.352l1.543-2.14 3.328-2.141 4.758,1.07 5.347,3.211 16.762,13.082 27.582,24.262 5.469,9.156 7.011,4.875 2.258.477 4.282-1.664 1.07-2.141-.477-4.281-4.398-3.687-9.746-4.282-3.688-4.402-12.004-14.625 .594-7.02 2.137-1.543 10.344,1.543 9.628,4.879 5.946,5.469 14.621,5.945 7.016,4.879 4.398,5.946 3.207,7.375 5.469,5.468 14.504,8.684 3.328,1.543 7.488,10.824 2.262,5.945 9.629,7.614h4.398l3.207-4.282" fill="#7c88a5"/>
   <path d="m725.47 261.43v-2.141l-3.801-2.734-4.281-1.188-5.946-4.164-3.8-5.469 5.941 11.891 5.469 4.402 2.617 1.543h2.258l1.543-2.14" fill="#fff"/>
   <path d="m530.273,231.102 .594-1.547h3.211l1.543,2.14-3.683-8.086v-1.07l1.07-1.07h2.613l5.469,3.687-.594-1.547v-.597l1.07-.949 2.735.476h1.664l.476.473-22.113-21.524-11.414-14.152-2.613-5.352-2.735-12.964-1.07-4.399-8.68-9.637-4.277-2.73-16.285.473-6.422.593-1.664.477 3.805,10.348 5.945,7.613 10.223,10.226 19.019,26.043 13.434,17.129 12.484,19.504 1.543,4.754 1.664-.949 .594-.594 1.547,3.328-3.211-10.347-5.942-9.75" fill="#e7b579"/>
   <path d="m525.398,214.926-2.14,2.262 .476,1.664 .594.476 1.664-1.547-.594-2.855" fill="#231f20"/>
   <path d="m523.26 214.45v-2.14l-2.141-1.543-4.398 1.543v1.668l1.07 0.472 1.664-1.07 3.805 1.07" fill="#231f20"/>
   <path d="m512.441,199.941 1.664.477v.594h1.547v-1.785l-2.738-1.543-1.543.472h-.594l-1.07,1.071 .594,2.261h.476l1.664-1.547" fill="#231f20"/>
   <path d="m152.359,195.543-4.757-4.879-3.801-3.805h-.598l-.473.477-1.664-1.547v-1.547l-1.664-1.664-.476.594-2.735-1.188h-.593l-.477.594-3.211-4.281-.594-.594h-1.664v.594l-.472.476 4.277,5.469 1.664,7.969 2.141-1.547 1.07,2.141 1.07-1.664-.476-2.618 .476-.593 3.328,6.066 1.071-4.402 2.613,5.949h3.805l1.07,1.543h1.07v-1.543" fill="#231f20"/>
   <path d="m668.766,193.281v-5.945l-.594-2.141-9.274-8.683-10.816-5.946-11.891-10.109-2.019-4.875 .476-1.785h5.469l5.942,4.402 4.875,4.281 7.964,2.141 1.188,1.188 .594-.594h1.074l.473-2.141v-1.547l5.945-1.785h5.945l.594-.472h.949l.594-1.668-1.07-3.09-3.207-3.926-5.352-3.211-15.691-.594-5.469-5.351-1.07-5.473-4.875-4.281h-1.067v1.668l3.207,2.14 1.664,2.735v4.875l7.016,4.758 7.012,1.785 5.468-1.192 5.352,1.192 5.945,6.422v1.07l-3.804,1.543-9.157.598-1.664,1.664v.593l.594.477h-4.871l-5.945-3.332-6.54-5.352-4.277-1.664h-4.281l-1.664,2.856 1.07,4.758 2.613,3.21 16.289,14.032 7.012,2.855 7.133,6.899 .477,3.328v1.547l-1.664,1.664-2.618-.594-10.816-13.914-7.016-5.945-4.398-2.856-25.32-17.242-12.004-8.566h-10.227l-3.805,4.757 .477,4.282 5.469,5.472 5.351,4.281h.594l1.07,1.071h2.735l3.207,2.258 2.258,3.211-1.782.476h-1.547l-.593-.476-6.418-3.805-8.68-8.086-24.844-12.488-10.343-3.805h-7.012l-.477.594v.476l7.489.594 14.742,4.875 13.906,7.609 19.617,15.106 5.942,1.668 .476.594 1.07-1.192v-3.683l-3.328-3.926-3.09-2.024-4.992-1.785-8.679-7.488-.477-1.668 .477-3.211 2.734-2.734h5.945l5.942,2.734 18.902,13.559 21.637,14.507 8.797,8.801 8.082,11.301h2.734l2.141-2.262" fill="#7c88a5"/>
   <path d="m505.902,191.141-2.613-2.618-.598.594-.593.477v1.547l2.257,1.07 1.071-.477 .476-.593" fill="#231f20"/>
   <path d="m118.836,181.391-.477-7.969-6.539-4.996-10.816-3.805-.477-.476v-.594l-1.6637,1.07-1.5469,2.258-1.6641,4.281v8.207l4.2813,7.969 4.3984,2.855 5.348.473 4.875-2.141 4.281-7.132" fill="#231f20"/>
   <path d="m130.84,185.195-3.328-5.351-1.071-2.617h-2.136l-1.071,2.14 3.805,3.805 .473,3.687-.473,3.332 2.141-.597 1.66-4.399" fill="#231f20"/>
   <path d="m136.78 190.19-1.187-5.949 1.187 5.949" fill="#fff"/>
   <path d="m108.613,186.266-2.14-1.071-1.664-2.617h-.477l-1.664-2.734v-2.141l-3.211-3.332 1.07-5.351 .477-.594h.594v-.477h-1.071l-2.1403,3.809v6.539l2.6173,5.945 4.875,3.094h2.734v-1.07" fill="#f89b5c"/>
   <path d="m414.723,184.242-5.469-1.664-17.238-3.211-10.817-3.328-.594.473-12.957-5.352-17.832-6.539-18.425-8.562-25.325-17.364-6.656-7.019-4.16-8.68 .477-12.965 5.468-9.75 6.418-5.949 18.426-10.2265 10.223-3.3282 7.015-2.1406 26.036-4.8789 18.898-.4726 4.281.4726h.594l.477.5977v-1.0703l-8.086-3.2149-9.153,1.0703-27.578.4766-9.156.5976-12.004,3.211-25.918,7.6094-16.762,8.0859-8.199,8.0898-5.352,9.1561 .594,17.957 2.735,4.758 11.293,12.606 .593-.594 1.547,2.14 20.567,14.508 18.425,8.684 21.637,6.543 14.621,3.804 13.434,2.618 28.176,4.875 7.011,1.07 2.735-.477v-2.617" fill="#7c88a5"/>
   <path d="m325.445,184.719v-2.141l-5.347-2.734-4.875-.477-12.957-2.855-21.161-10.703-29.246-8.207-21.636-9.75-21.039-16.77-4.758-5.945 .476-8.086 10.344-13.559 13.434-9.6326 12.957-7.0196v-2.2578l-10.344.5938-7.012,1.0703-13.433,3.2109-15.219,7.0157-5.941,4.8793-3.805,7.609 .594,14.629 3.211,6.422 10.816,10.824 13.551,9.273 29.246,14.036 24.371,9.75 17.234,5.949h4.399l3.093,1.547 6.536,1.187 4.875,1.664h5.945l2.258,1.547 8.086-1.07h5.347" fill="#7c88a5"/>
   <path d="m504.83 183.65v-1.664h-2.734l-2.614 1.664v2.141l4.871-2.141h0.477" fill="#231f20"/>
   <path d="m310.23,179.844h-6.898l-10.934-4.403v-1.07l-8.558-4.875-26.988-7.492-14.145-5.469-14.027-6.898-20.09-15.223-5.352-5.949-1.664-3.328 .594-7.016 2.734-5.351 9.629-11.418 12.008-9.1606 8.559-4.2812 .593-.5938-8.558.5938-16.762,4.8789-13.078,5.3515-7.605,8.0864-1.547,5.945 1.07,9.754 2.613,5.945 6.66,8.086 19.375,13.68 15.219,7.965 19.852,8.8 22.23,7.969 19.496,4.402 10.817,3.805 11.89-.594-7.133-2.14" fill="#eceef3"/>
   <path d="m374.66 176.51-3.207-2.141h-1.668l-1.543-1.547h-2.734l-23.301-8.679-29.719-17.364-10.82-9.039-8.199-12.012-1.547-7.609 1.547-9.754 5.941-10.226 6.656-5.3515 19.379-10.824 20.567-5.9453 10.816-2.7343 7.016-0.5977-24.254 2.1406-16.285 4.4024-14.028 3.8047-22.707 10.226-8.675 9.7543-3.805 7.613v11.297l1.07 3.804 4.399 7.137 10.816 11.297 10.82 8.09 17.235 9.75 10.343 4.398 20.45 7.02h2.73l22.707 5.351 2.141 1.071 16.285 2.734h2.141l-20.567-6.066" fill="#eceef3"/>
   <path d="m107.543,176.512v2.261l-.598.594h-.472l2.14,2.617h3.805l-4.875-5.472" fill="#c4dbe4"/>
   <path d="m498.414,177.703h-.598l-.472,1.07 1.07,2.618 .477-1.547-.477-2.141" fill="#231f20"/>
   <path d="m80.555 166.88 7.4922-2.258 5.4687-3.094h1.0664l1.0703-2.855v-5.352l3.211-3.211 1.0703-7.015 5.4684-5.352-8.6793-9.871-2.7344-4.281-17.234-16.77v-1.07l-9.2734-9.2773-9.6289-5.9454-8.2032-1.0703h-1.0703l-1.0703 1.0703 0.5938 2.2618 2.6172 2.1406 1.664 1.543 1.6641-1.0704 7.4883 2.7383 17.832 16.886 17.949 26.403 0.4766 3.804-2.1407 1.071-2.7343-1.071-3.8008-3.328-18.309-10.824-11.887-5.352-13.555-6.539-19.969-5.355-8.6796 1.191-4.875 2.618-3.8047 3.328-1.6641 1.547v4.875l4.3984 3.687 11.891 3.805 10.223 2.14-7.0156-3.683h-1.543l-1.1914-1.074 0.5977-1.665 1.0664-1.07 4.2812 1.07 13.551 9.754 10.344 10.821 10.816 14.629 8.0859 12.488 1.543 1.547v-6.422l7.1328-6.543" fill="#e7b579"/>
   <path d="m73.4219,155.344c-.9492-.477-5.586-5.235-7.0117-5.235 0-3.211-11.293-7.968-12.7188-10.703-.4766,0-2.2617-1.426-2.2617-1.902-7.4883,0-16.4024-6.539-25.3203-6.539h.9531c0,1.426 1.9023,2.258 1.9023,3.683-3.332,1.43-6.0625-1.781-8.9179-1.781l-.4766-.953c-.4726,0-.9492-.476-1.4258-.476 0-.95-.9492-1.903-.9492-2.852 .4727,0 .9492-1.902.9492-2.379l.9532-.477c0-.832.4726,0 .4726-.832 12.125-2.855 19.6172-1.425 46.8399,8.325 2.1406.832 10.6992,9.394 13.0742,9.394 0,3.805 14.5039,5.59 14.5039,9.399-1.4258-1.43-4.1602-1.907-6.5391-1.907l-.9492.954v2.378l-7.9648-.476c-.9493,1.902-1.4258,3.211-1.4258,5.59-.4766,0-1.4258-.477-1.7852-.477l-.4726-.476-.4766-.473-.9531-1.785" fill="#daa564"/>
   <path d="m68.668,156.652c-.4766-.476-1.7813-1.308-2.2578-1.785 0-.949-3.3282-4.281-3.8047-5.23-3.6836,0-8.4414-10.707-11.6485-10.707l-.4765-.95c2.3789,0 3.6836,3.211 6.0625,3.211 3.3281,5.231 18.3086,11.297 25.3203,11.297 0-5.113-7.4883-7.492-7.4883-12.129 6.5391,0 11.6484,8.801 16.7617,8.801l.4766.477v1.902l-5.1133,1.426c-.9531,0-1.9023.476-2.8516.476 0,.477-1.3086,1.903-2.2617,1.903 0,5.113-5.2304,7.015-8.914,7.015-.4766-.949-2.8516-5.23-3.8047-5.707" fill="#c69760"/>
   <path d="m497.344,176.512v-.473l.472-.598-1.066-1.07-2.734,1.07-3.805-1.07 1.664-.949v-1.07l-2.734-.594v5.469l.593.476 6.418-1.191h1.192" fill="#231f20"/>
   <path d="m429.82,166.879-17.238-6.422-15.691-7.137-6.539-4.281-5.942-4.398-4.875-5.946 1.07-7.019 6.54-5.352 5.347-3.328 1.664-1.547 8.086-1.191 10.34-.473 11.293-1.664 .598.594h1.066l.477-.594v-.476l-1.071-1.071-13.55-.597h-1.547l-1.071,1.074h-8.199l-9.156,1.664-3.211,1.07-2.734,2.141-12.36,6.539-2.262,2.14v7.614l4.399,7.015 5.945,5.946 5.946,3.332 19.375,7.015 7.132.477 10.223,4.398 2.141,1.075 9.75,2.613h1.07l-7.016-3.211" fill="#7c88a5"/>
   <path d="m486.523,166.402 2.618-2.257 .593-.594v-1.547h-2.14v.476l-4.399,2.141v1.188h1.071l1.664,3.211 1.07-1.071-.477-1.547" fill="#231f20"/>
   <path d="m434.102,155.582-3.211-5.473 .593-4.875 1.547-3.328 4.399-2.617h1.543l.597.477v-.477l12.481-2.738h14.383v-.594h2.734l18.902,3.332 7.016,3.211 6.535.594 11.293,4.758 7.137,8.207v6.421h1.543l1.664-2.023-.594-5.473-8.082-9.273-12.961-4.875-6.535-1.07h-2.617l-9.274-4.282-11.886-.597-4.282-1.543-23.656,1.07-7.605,1.543-8.68,3.332-3.211,2.141-1.664,3.211 1.07,8.086 7.133,5.945 14.027,7.73 1.547.477h3.328l-15.214-11.297" fill="#7c88a5"/>
   <path d="m496.75,160.934-.598-.477-1.543,2.023v2.141l1.071.594 2.136-2.735-1.066-1.546" fill="#231f20"/>
   <path d="m484.859,159.742 .598-.472h.473l-1.664-1.668-3.684,2.855h-2.734v.477l-.594.593 1.664.953 3.211-.476 2.73-2.262" fill="#231f20"/>
   <path d="m77.2266,157.602v-3.09l-9.7461-6.66h-1.5469l-.5938-.477-1.0703,1.664 .5938,2.141 3.2109,1.547 3.8047,4.402v.473l-2.7344.597v1.543l2.7344,2.262 3.207-1.07 2.1407-3.332" fill="#231f20"/>
   <path d="m451.457,157.602-4.281-5.348-.594-1.668 2.734-2.734h3.211l.594.593 1.07-1.07v-1.07h-7.015l-2.735,1.547-.593,2.257 1.664,5.473 6.539,4.875 4.637.477h2.257l-7.488-3.332" fill="#7c88a5"/>
   <path d="m377.395,155.582-6.54-3.926-7.011-2.617-17.832-11.297-5.946-6.66-1.664-4.758 3.805-6.539 5.945-4.758 9.27-3.925 11.293-2.141 8.086-.594h1.664l-.594-1.547-5.351-2.14-15.692.476-10.816,3.211-7.61,4.403-4.754,1.543-3.804,6.66v9.632l1.07,3.809 14.027,11.891 8.68,4.281 9.746,2.734 4.281,2.262 4.872.477 3.804-.477h1.071" fill="#7c88a5"/>
   <path d="m70.809 110.03-12.957-10.226-2.7344-0.5938 2.7344 4.8751 3.207 4.281 8.0859 18.551 22.23 12.371-12.008-17.84-8.5586-11.418" fill="#c69760"/>
   <path d="m538.949,124.066-5.941-5.351-5.945-1.664-7.012-.477-1.192-1.07 5.469-1.668 12.485-1.066 22.703,1.543 2.14-2.618-2.14-3.804-17.356-5.946-22.707-3.2106-14.027.4765-4.875,2.1411-2.735,2.734-5.941-.594-15.098-5.949-2.14-1.543 .476,1.543 7.61,3.809 15.093,4.398 2.141-1.07 1.664-3.328 8.086-2.1411 16.762,1.0701 12.48,2.141 14.149,4.398 5.23,3.211 1.188,1.071v.593l-1.188,1.075-28.055-1.075-10.222,1.075-3.332,2.257 .597,2.618 3.801,1.546 4.281-1.07 7.61,2.852 4.871,5.351h-5.465l-8.086-3.328-23.301-5.351-14.027.476-10.223,1.664-1.07-1.07-.594.476v1.067l12.957-.473 8.082-1.664 15.696,2.852 10.816,3.687h2.258l11.891,4.281 2.136-.476v-4.399" fill="#7c88a5"/>
   <path d="m780.629,123.59-1.07-2.617-1.664-1.188 2.261,2.735v1.546l-2.261,1.664h-2.141l-.473,1.665 4.875-1.071 .473-2.734" fill="#231f20"/>
   <path d="m760.063,111.695-8.083-2.14v-4.399l-4.281-2.734-10.816-2.6173-15.215.4763-12.367,1.664-10.34-1.07-10.223-4.875-.476-.5977 3.683-3.2109 6.539-2.1406 3.805.4765 3.211,2.2618h9.746l1.664-1.1914v-1.5469l-4.875-3.211-20.09-4.875-10.816-1.664-1.547,1.0703-15.691,1.0703-13.551,1.0703-8.203-2.1406-4.875-1.6641h-2.141l-.473.5938v1.0703l17.356,3.2109h10.816l7.965-1.5468 17.477-.5938 21.039,5.4688 2.14,1.0703 .594.4765v.5938l-3.328,1.0703-7.488-2.7344-1.071-1.0703-11.886,5.4727-1.188,1.5429-.476.5977v1.543l3.804,2.7382 9.153,3.2111 8.086,1.07 24.843-2.617 13.079,2.141 4.277,2.14 1.07,1.071-1.664,2.14-8.558-.476h-7.61l-1.664,2.14 1.07,1.664 2.735,2.141 12.48-2.734 16.762,2.734 7.492,3.215h1.188l-13.078-5.356" fill="#7c88a5"/>
   <path d="m737.36 109.56h-3.211l0.594 1.547 7.016-1.071-4.399-0.476" fill="#fff"/>
   <path d="m450.86 97.07-8.086 4.2817-10.222 1.664 2.14 1.07 11.293-3.211 4.875-3.8047" fill="#231f20"/>
   <path d="m548.7 47.832-21.16-5.9453-8.68-2.1406h-22.707l-9.629-1.0703h-28.648l-10.699 1.5469-17.832 3.8046-8.203 2.7344-10.817 5.3516v1.668h5.469l10.223-2.1446 26.511-3.8047 28.528-1.0703 26.511 1.6641 17.356 1.5469 19.379 3.332 13.551 2.1406 5.351 1.543 1.188-1.543-15.692-7.6133" fill="#7c88a5"/>
   <path d="m547.035,48.9023-2.734.5977-20.567-7.0195-14.027-1.6641-24.848-.5937-33.996.5937-2.617,1.6641h-2.734l-8.676,2.1406-6.422.4766-4.398,2.2578h-1.071v1.0703l-7.011,2.6172 7.605-1.0703 11.297-2.1407 14.621-2.1406 28.531-1.0703 30.789,1.5469 8.082.5937 4.399.5938 2.734,1.0703-.594-.5938 5.946.5938 16.761,3.2109h3.208l-4.278-2.7344" fill="#eceef3"/>
   <path d="m263.867,338.375c.473-.121.949-.121 1.426-.121 0-1.902-1.902-3.684-1.902-5.59l18.664-5.59c0-3.804-1.785-5.707-3.684-7.492 3.684,0 0-9.394 0-11.297 7.488,3.805 7.488,14.985 11.172,22.477l-5.586,5.59c0,3.804 5.586,7.492 7.488,9.394 5.59-5.59 14.981-9.394 14.981-18.672 18.781,0 13.074,14.989 13.074,24.262 1.902,5.711 14.98,24.383 18.785,20.695 0-1.902 1.903-3.804 1.903-5.711-1.903-5.59 3.683-11.179 3.683-16.769 3.805-1.903 1.902,0 7.488,0v11.179c1.903,1.907 7.489,7.497 9.395,7.497 0,3.804 0,9.394 3.684,9.394v-14.984c3.804-1.907 7.488-3.809 7.488-9.399 7.492,16.891 0,0 0,14.989 3.804,1.902 9.39,7.492 13.195,9.394 1.785,0 7.492-3.805 9.274-3.805 0-9.277 3.804-11.179 9.39-16.769 9.395,7.492 13.078,9.273 22.469,16.769 0-1.785 3.805-5.589 3.805-7.496 5.586,0 14.976,3.809 20.566,3.809 5.586-2.617 10.816-4.047 15.93-4.52l7.488,3.45 21.043,13.554h1.664l2.734,2.739 10.223,7.015-21.637,8.086-16.168,3.211h-3.207l-7.132,2.141h-10.106l-11.414,1.07-29.719-.477-28.054-3.804-8.086-2.141-15.215-3.805-5.348-2.734-15.691-4.875-2.141-1.547-5.945-3.332-20.567-12.367h-1.664l-8.679-5.945-17.829-12.489-13.433-11.296-3.805-3.688zm209.699,27.113 5.352,2.5 20.566,12.961 6.063,4.52c-.477-.715-.715-1.426-.715-2.258-1.426,0-16.762-10.703-24.133-16.652-2.375-.594-4.754-.95-7.133-1.071" fill="#c7a378"/>
   <path d="m274.57 283.91c1.903 3.805 3.805 11.297 7.489 14.985 1.902 0 3.804-1.786 5.707-1.786v-14.984c1.781 0 3.683-1.902 5.586-1.902l1.902 1.902c0 7.492 0 14.984-3.805 18.672 0 5.59 3.805 7.492 7.489 9.395 0 0 7.492-14.985 7.492-18.79 1.902 0 3.804-1.785 5.586-1.785 0 3.688 1.902 11.18 1.902 14.985 3.805 0 0 1.785 5.586 1.785 3.805-9.278 1.902-16.77 1.902-28.067 7.493 0 14.981 14.985 14.981 22.477 3.805 0 11.293-1.902 14.976-1.902l1.903-3.688v9.395l-7.489-16.887c1.903 1.902-1.902-3.805 1.903 0 5.586 0 16.762 7.492 20.566 5.59 0-6.067-0.715 3.566-1.902-4.281-5.945-1.43-4.754-4.637-9.391-4.637 0-1.906-3.687-7.969-5.59-9.754v-6.66l-1.425-4.641c-1.782-3.683-1.782-14.508 3.804-14.508 0-1.902 2.379-6.539 2.379-6.539l0.832-3.332s6.895-3.211 6.301-4.758l-2.617 0.715-12.957 8.563-11.887 10.347-15.691 10.821-14.625 5.472-15.098-0.593-4.871-1.547h-4.399l-7.015-2.735-8.797-4.879c0.355 2.618 1.781 8.801 1.781 10.469h1.903c0 1.903-3.684 14.985-3.684 18.789 1.781 0 5.586 0 9.273-5.707" fill="#c7a378"/>
   <path d="m343.156,390.703c3.094,0 10.106-.476 10.106-3.687h7.492c1.898,1.785 5.586,5.589 5.586,7.492 3.805,0 7.488,1.785 11.293,1.785 1.785-1.785 7.488-7.492 9.273-11.18 3.805,3.688 7.489,9.395 11.293,13.082 3.684,0 11.176-1.902 14.981-1.902 0-1.785 3.683-5.59 3.683-7.492 3.805,0 7.489-1.785 11.293-1.785 1.903,1.785 7.489,7.492 9.391,7.492 1.785,0 11.176-1.903 13.078-1.903v-1.902c1.902-1.902 16.762,3.805 20.445,3.805 0-1.903 3.805-5.707 5.707-5.707v-11.18l-3.804-1.902c0-3.688-1.903,0-1.903-3.688l-3.683-1.902v-3.809l.238-.238 6.418,2.977 21.043,13.554h1.664l2.734,2.739 10.223,7.015-21.637,8.086-16.168,3.211h-3.207l-7.132,2.141h-10.106l-11.414,1.07-29.719-.477-28.054-3.804-8.086-2.141-15.215-3.805-5.348-2.734-10.465-3.211zm132.196-25.094c-.598,0-1.192-.121-1.786-.121l5.352,2.5 15.098,9.512c-.953-.832-1.786-1.664-2.141-2.496-1.309-1.07-2.734-2.024-4.043-2.973h-1.781c0-2.5-5.707-4.996-10.699-6.422zm24.132,15.34l6.063,4.52c-.238-.477-.477-.832-.594-1.188-1.547-1.191-3.57-2.261-5.469-3.332" fill="#ba966c"/>
   <path d="m63.793,114.551c3.8047.359 13.4336,13.203 16.1679,15.937 .4766-3.332-3.3281-8.445-4.6367-10.824h-.4726v-1.426l.832-.355c.4727,0 .832,0 1.1875.238l2.4961,3.328 1.6641,2.496c.121.36.2382.715.3554.953 .1211,0 .2383.118.3594.118l8.6758,12.964c.2383.356.3594.715.4765,1.071l-21.7539-12.133-5.3515-12.367" fill="#927450"/>
   <path d="m77.109 187.1c0 27.234 37.922 41.625 61.817 32.347 0.476 0 1.664-1.902 1.902-2.379 4.043-12.25-27.105-15.699-34.711-17.718-4.164-1.192-12.601-11.301-14.504-14.985-0.4766 0-7.9649-6.66-8.7969-2.855-1.4297 0-3.332 1.902-4.7578 1.902l-1.4258 1.785-0.4765-0.832 0.9531 2.735" fill="#648e86"/>
   <path d="m79.6055,190.547c0,23.07 32.2145,35.32 52.5425,27.473 .36,0 1.426-1.665 1.547-2.024 3.446-10.348-23.062-13.082-29.484-14.984-3.563-.953-10.8165-9.516-12.4805-12.727-.3555,0-6.418-5.351-7.25-2.375-1.1914,0-2.7344,1.543-3.9258,1.543-.3555.594-.832,1.07-1.1875,1.547l-.3555-.715c.2383.715.3555,1.547.5938,2.262" fill="#67958c"/>
   <path d="m82.1016,193.996c0,19.027 26.5114,29.016 43.2734,22.594 .234,0 1.188-1.305 1.305-1.664 2.855-8.563-19.258-10.582-24.489-12.129-2.9722-.832-8.9137-7.852-10.3433-10.465-.2344,0-4.9922-4.164-5.586-2.023-.9492,0-2.2578,1.308-3.3281,1.308-.2383.356-.5938.715-.832,1.188-.1172-.235-.2383-.356-.3555-.473 .1172.473.2383,1.07.3555,1.664" fill="#689a91"/>
   <path d="m84.5977,197.324c0,14.985 20.8043,22.953 33.8823,17.84 .356,0 1.067-1.07 1.067-1.309 2.262-6.66-15.215-8.085-19.375-9.277-2.2579-.594-7.1329-6.183-8.0861-8.203-.3554,0-3.6836-2.973-4.039-1.547-.8321,0-1.9024.832-2.6172.832-.2383.356-.4766.594-.5938.953l-.3554-.359c0,.359.1172.715.1172,1.07" fill="#6ba196"/>
   <path d="m86.9766,200.773c0,10.942 15.2144,16.653 24.7264,12.965 .238,0 .715-.715.832-.953 1.543-4.875-11.414-5.59-14.3866-6.422-1.664-.476-5.2304-4.519-5.9414-6.066-.2382,0-2.1406-1.781-2.4961-1.07-.5937,0-1.3086.597-1.9023.597-.1211.117-.2383.356-.3594.473 0,0-.1172,0-.1172-.117-.1172.238-.2382.476-.3554.593" fill="#6ea89e"/>
   <path d="m89.4727,204.223c0,6.777 9.5117,10.465 15.4533,8.086 .121,0 .476-.473.476-.594 1.071-3.09-7.3707-3.09-9.2731-3.688-1.0703-.238-3.3281-2.734-3.8047-3.683-.1172,0-.7109-.598-.832-.715-.3555,0-.832.238-1.1875.238l-.1211.238-.1172.118h-.5937" fill="#6dac9f"/>
   <path d="m109.445,158.555c13.075,13.082 28.528,15.937 46.836,15.937 0-.476 1.309-1.902 1.785-2.379 0-26.164-29.957-21.05-47.671-21.05l-.477.476c0,.477-.473,1.426-.473,1.902-.953,0-.953,2.258 0,5.114" fill="#648e86"/>
   <path d="m113.012,158.793c11.172,11.18 24.25,13.559 39.824,13.559 0-.36 1.187-1.547 1.543-2.024 0-22.238-25.438-17.84-40.539-17.84-.117.121-.235.239-.473.36 0,.355-.355,1.187-.355,1.543-.832,0-.832,2.023 0,4.402" fill="#67958c"/>
   <path d="m116.578,159.031c9.152,9.157 19.969,11.18 32.809,11.18 0-.359.949-1.309 1.308-1.668 0-18.313-21.043-14.746-33.406-14.746l-.355.355c0,.36-.356.953-.356,1.309-.598,0-.598,1.668 0,3.57" fill="#689a91"/>
   <path d="m120.141,159.27c7.254,7.253 15.695,8.8 25.797,8.8 0-.238.714-1.07.953-1.308 0-14.391-16.407-11.535-26.153-11.535-.121,0-.238.117-.359.234 0,.238-.238.715-.238.953-.473,0-.473,1.309 0,2.856" fill="#6ba196"/>
   <path d="m123.711,159.508c5.23,5.23 11.41,6.422 18.781,6.422 0-.239.594-.715.711-.953 0-10.465-12.004-8.442-19.019-8.442l-.239.235c0,.121-.234.476-.234.714-.359,0-.359.954 0,2.024" fill="#6ea89e"/>
   <path d="m127.395,159.742c3.207,3.332 7.132,4.047 11.648,4.047 0-.121.359-.476.477-.594 0-6.543-7.489-5.234-12.008-5.234l-.117.117v.477c-.239,0-.239.476 0,1.187" fill="#6dac9f"/>
   <path d="m150.695,387.254c13.196,13.793 21.278,35.676 41.606,39.008 0-17.84-7.488-36.512-7.488-54.352l7.488,16.891c.953-1.906 2.734-2.856 2.734-5.59l10.344,13.082 .949-18.672 12.125,13.082c2.856,0 3.805-.953 5.59-1.902 0-10.348-4.637-20.574-4.637-30.922l1.903-1.902h1.902c1.781,1.902 3.684,4.753 5.586,6.66 0-.953.953-2.856.953-3.809 .949,0 2.734.953 3.684.953 0-2.855.953-6.543.953-8.445 2.851,0 14.027,3.805 14.027,3.805l3.801-3.805c4.637.953 12.125,3.805 14.027,8.445h1.903c0,4.637 4.636,11.18 4.636,15.938 3.688,1.781 6.66,3.207 9.391,4.281l13.078-8.801 4.875-.476-15.219-10.825-26.031-21.168-14.504-15.101-3.805-5.356-18.902-26.043v-1.07h-1.187v1.664l-4.161.477-4.992,2.734-3.804,7.61-4.875,21.648v3.211l.593,3.211v5.469l-1.664,1.546h-.476l-1.071-1.07 .477-19.387 2.734-11.414-1.07-1.07-3.207,2.141-2.734,3.804-2.618,15.7 .477,17.836 1.543,12.964-.473,4.282-.597.593h-1.543l-7.133-20.574-5.352-19.504-.593-26.996 .593-.476v-1.188l-3.804,7.609-.473,9.161 .473,27.589 1.07,3.805 .598,20.574 3.328,11.895v.594l-1.785,1.547-2.614-3.211-7.609-16.176-6.539-15.695-4.871-27.118-.477-19.386-2.734,4.757-1.071,6.543 .594,18.907-2.258,2.738h-1.07l.594,17.242 2.14-5.351 1.071-.594h1.664l1.07,1.664-1.664,3.805 1.07,3.808 .594,6.422 9.152,20.098v1.547l8.086,12.488 2.258,1.07 1.543,1.664-1.07,1.547-1.07,1.07-3.801-2.617-9.156-15.699-8.676-18.91v-1.188l-.477-.476-2.734,1.664-1.664-3.328-2.617-11.895v-15.101l-2.731,21.644 .473,18.91 2.734,9.75 2.617,9.516" fill="#957f65"/>
   <path d="m153.43,356.809c.832,9.632 2.14,21.406 6.062,29.136h7.488c.239-.593.122-2.14-.355-4.402l-2.855-4.875-8.676-18.91v-1.188l-.477-.476-1.187.715zm9.867,10.703-5.469-12.012-.594-6.422-1.07-3.808 1.543-3.446c1.43,8.801 3.688,17.957 5.59,25.688zm-5.707-26.403c-2.02-11.656-2.496-22.476.715-27.949l-.477-17.601-2.734,4.757-1.071,6.543 .594,18.907-2.258,2.738h-1.07l.477,15.578c.117.356.238.715.355,1.07l1.902-4.757 1.071-.594h1.664l.832,1.308zm20.445,8.801c2.024,1.781 4.52,3.328 7.727,4.281 .597-3.804-2.969-14.628-2.852-22.597l-2.379-8.563-.593-26.996 .593-.476v-1.188l-3.804,7.609-.473,9.161 .473,27.589 1.07,3.805 .238,7.375zm15.93-9.633c5.945,9.633 13.316,20.453 13.316,28.899 .949,0 2.735-.949 3.684-.949 0-3.809-.949-7.497-3.684-10.348 0-4.641 0-11.18-1.902-15.938 3.805,0 7.488,3.805 10.344,3.805 0-6.539 2.73-15.933-2.856-21.523 0-2.856 0-5.59.953-7.493 .95,0 1.903.95 2.735.95 0,.953.949,1.785 1.898,2.734 0-.949.953-1.781.953-2.734l3.805,3.687c0-1.902.832-5.59.832-7.492 13.195,2.855 14.977,32.824 32.809,32.824 1.902-3.808-1.903-6.543-1.903-9.394 2.024,0-.472-3.094-2.258-4.996l-8.32-8.68-3.805-5.356-18.902-26.043v-1.07h-1.187v1.664l-4.161.477-4.992,2.734-3.804,7.61-4.875,21.648v3.211l.593,3.211v5.469l-1.664,1.546h-.476l-1.071-1.07 .477-19.387 2.734-11.414-1.07-1.07-3.207,2.141-2.734,3.804-2.618,15.7 .356,12.843zm-47.192-6.781c.356.359.594.836.829,1.309v-7.371l-.829,6.062" fill="#84715c"/>
   <path d="m770.645,470.266-9.629.355 8.797-.355 .832-.239v.239zm-33.524,1.07-19.258.594 7.606-.594h11.652zm-39.586,1.187-1.191-1.187 2.14-1.664 3.805,1.066 5.945-1.066h7.012l16.762-1.668h28.055l8.441-1.07c-11.41-7.493-67.047,1.546-74.656-6.063 9.39-2.855 26.39-.715 36.855-5.59l-16.051-.715-18.902,2.141-9.152-.477c.476.715.711,1.309.711,1.903-5.586,0-38.395,3.687-38.395,14.035l1.902,1.902 46.719-1.547zm-12.719-19.144c-.714-1.074-1.191-2.024-1.191-2.738-4.992-3.09-20.805-7.731-33.641-10.703h-.121l-14.144-3.805-.715-.477c.832-.832 1.781-1.308 1.781-1.902 4.875,0 6.184-6.305 4.637-9.871l.238-.238v-5.946l-3.207-4.281-8.203-2.734-6.422-3.809 1.07-1.07 .477-2.614-.715-4.519v-2.379c-1.187-1.07-2.613-2.262-4.16-3.332l-1.07-1.188-2.973-1.308c-2.496-1.309-5.109-2.496-7.727-3.332l-6.535-2.973v-4.281l-1.664-2.734-.476-5.352-3.805-4.875-15.219-5.949v-7.61l-4.754-5.945-5.347-2.738v-1.071l.472-7.253c3.45,2.734 4.637,1.664 7.016.476l2.141.832 7.132-1.07 6.539.953c-2.617,1.309-5.23,2.613-6.183,2.613 0,.953-1.781,1.785-2.734,2.735 0,1.906.953,4.757.953,6.543 4.632,0 12.125-.95 16.761-1.786h.95c1.664,0 4.281.954 6.777,1.903h-1.547l-11.41,1.668-4.758.594-1.664,1.546 1.191,1.071h2.02l10.937-1.071 1.426.118c-5.469,2.14-11.414,5.589-11.414,9.16 8.442,8.324 26.274,3.683 37.449,3.683-1.07,1.071-2.379,2.024-3.687,2.739h-.117l-8.559-.477-4.281,1.07h-4.399l-4.875-2.261-1.07,1.191v.477l3.211,3.207h7.133l6.777-.356c-2.855,1.309-5.707,2.617-7.847,4.758 3.687,6.543 29.957,5.59 38.398,5.59l.355.832-21.515-1.07-2.258,1.664v1.668l.594,1.07h.476l.711-.598 13.434-.472 6.777.472c-8.558,4.758-24.847.715-24.847,15.106 11.175,11.179 38.16-3.567 52.308,2.734h-11.531l-26.512,3.809h-4.398l-1.071,1.07 .594.594 8.203.476 9.75-1.547 15.098-1.191 8.082.238c-.473.477-.832.953-.832,1.309-9.391,0-28.172,5.711-17.832,15.937h39.351l1.426,1.547h-8.086l-7.011,2.141-19.496,7.016h-3.684l-2.856,1.664 1.188,1.546 2.734.594 10.821-3.804 15.097-4.875 8.321-1.43-.356.355v.953c0,0-1.902.832-2.855.832-2.735,3.809-4.637,6.661-4.637,11.301 9.394,6.539 37.449,6.539 48.621,6.539-.473,1.071-1.187,2.141-2.019,2.973l-12.481-.477-21.637,1.668-16.879.477zm-121.734-125.707c2.734.473 5.352,1.187 7.25,2.141 0,.71-.473,1.781-.711,3.089l-.949-1.664-5.59-3.566zm22.824,6.062c3.449-2.14 11.176-.117 14.387-.117 0,.117-.238.238-.598.594l-9.984-.832-3.805.355" fill="#84715c"/>
   <path d="m520.762,169.852c8.324,0 19.617,1.785 27.105,1.785 0-.953 1.903-2.735 1.903-3.688v-.949c-2.856-13.082 9.269-13.082 19.613-13.082l1.902,1.781h1.903c2.734,2.856 8.32,3.809 13.078,3.809 0-7.492-15.934-11.301-18.786-14.035-7.488,0-14.027-5.59-22.468-5.59v-2.856h1.902v-.949h5.59c0-4.64 0-9.394-.953-14.035l-23.301-5.59c.836,1.785 5.59,4.641 8.324,5.59 0,.953.949,3.687.949,5.59-40.179-9.395-81.429-12.129-121.492,7.492 29.957,0 98.074-26.164 120.543,1.902h.949v1.903l-.949.953-14.027-.953c0-2.852-13.078-2.852-15.93-2.852 8.438,3.805 17.828,11.297 23.418,16.887v7.492c-1.785,1.902-6.539,7.492-9.273,9.395" fill="#7c88a5"/>
  </g>
 </g>
</svg>
