<?xml version="1.0" encoding="UTF-8"?>
<svg width="134.52mm" height="144.65mm" version="1.1" viewBox="0 0 476.65174 512.55086" xmlns="http://www.w3.org/2000/svg" xmlns:xlink="http://www.w3.org/1999/xlink">
 <defs>
  <linearGradient id="r">
   <stop stop-color="#3d7d1e" offset="0"/>
   <stop stop-color="#62a920" offset="1"/>
  </linearGradient>
  <linearGradient id="p">
   <stop stop-color="#ffb202" offset="0"/>
   <stop stop-color="#ffc504" offset="1"/>
  </linearGradient>
  <linearGradient id="o">
   <stop stop-color="#458d22" offset="0"/>
   <stop stop-color="#9dbc16" offset="1"/>
  </linearGradient>
  <linearGradient id="m">
   <stop stop-color="#fe880d" offset="0"/>
   <stop stop-color="#fe9b05" offset=".027022"/>
   <stop stop-color="#ffa901" offset="1"/>
  </linearGradient>
  <linearGradient id="n" x1="213.57" x2="148.57" y1="354.51" y2="573.08" gradientUnits="userSpaceOnUse" xlink:href="#m"/>
  <radialGradient id="s" cx="219.23" cy="340.43" r="58.432" gradientTransform="matrix(.60191 -.15767 .13971 .53333 39.71 186.59)" gradientUnits="userSpaceOnUse" xlink:href="#o"/>
  <linearGradient id="q" x1="204.05" x2="137.89" y1="341.72" y2="537.69" gradientUnits="userSpaceOnUse" xlink:href="#p"/>
  <radialGradient id="v" cx="219.23" cy="340.43" r="58.432" gradientTransform="matrix(.61882 .065003 -.057596 .54831 198.99 147.46)" gradientUnits="userSpaceOnUse" xlink:href="#o"/>
  <linearGradient id="t" x1="213.57" x2="148.57" y1="354.51" y2="573.08" gradientTransform="matrix(.9356 .35307 -.35307 .9356 227.72 -41.13)" gradientUnits="userSpaceOnUse" xlink:href="#m"/>
  <linearGradient id="u" x1="204.05" x2="137.89" y1="341.72" y2="537.69" gradientTransform="matrix(.9356 .35307 -.35307 .9356 227.72 -41.13)" gradientUnits="userSpaceOnUse" xlink:href="#p"/>
  <radialGradient id="w" cx="219.23" cy="340.43" r="58.432" gradientTransform="matrix(.55354 -.28417 .25179 .49047 -32.195 214.83)" gradientUnits="userSpaceOnUse" xlink:href="#r"/>
  <radialGradient id="x" cx="219.23" cy="340.43" r="58.432" gradientTransform="matrix(.6163 -.085638 .075881 .54608 94.569 175.39)" gradientUnits="userSpaceOnUse" xlink:href="#r"/>
 </defs>
 <g transform="translate(-10.099 -5.3256)">
  <g transform="matrix(1.4616 0 0 1.4616 -96.247 -338.27)">
   <path d="m248.56 344.66c5.1906-6.6056 0.44251-18.014-7.965-18.827-8.9403-2.8092-18.258-8.9816-20.102-18.81-0.42197-8.8562 12.951-14.289 18.447-7.0403 2.5492 6.1784 14.818 6.8799 14.779-1.1338-0.48711-8.6377-10.164-13.184-10.869-21.832-1.403-7.1402 2.7815-14.881 9.9277-16.939 10.447-4.0765 24.65 0.54072 28.073 11.89 2.1591 6.7477-0.3443 14.22-4.8381 19.436-2.8406 6.3221 4.4026 14.609 10.998 11.59 10.522-2.9285 15.769-15.552 27.237-16.251 11.073-2.2411 20.316 13.508 12.379 21.831-5.823 6.5792-15.666 9.4521-24.034 6.5692-6.5176-1.6665-12.307 7.9201-5.7332 11.766 6.2203 4.9176 14.907 4.8547 21.072 9.9526 4.9018 3.3848 10.49 7.4658 11.673 13.669 0.92474 7.5913-7.0076 11.498-13.551 10.412-14.728-0.66503-27.152-9.4931-39.316-16.91-3.3262-2.9863-7.9966-2.4925-11.596-0.24042-4.3706 2.4216-4.9273 9.9329-9.6341 6.1313l-6.1287-4.4857-0.817-0.77707z" fill="url(#x)" fill-rule="evenodd" stroke="#377b29" stroke-width="3"/>
   <path d="m252.25 349.44c0.58397 0.041 1.1706 0.0714 1.7581 0.0908-0.20405-0.62322 0.44504-6.6316 8.4182-17.522 12.491-16.84 31.45-23.362 31.372-23.604-0.0774-0.24205-19.45 5.4942-32.829 22.49-8.5595 10.734-10.009 16.941-10.45 18.199 0.56703 0.18925 1.1462 0.30475 1.7309 0.3458z" fill="#377b29" fill-rule="evenodd"/>
   <path d="m252.89 348.37c0.57434 0.11658 1.1553 0.20019 1.7439 0.24827-0.11167-0.84229 0.76081-6.3363 3.6986-19.618 4.6796-20.56 5.4057-37.914 5.1034-37.933-0.30253-0.0181-1.6507 17.244-6.8857 37.5-3.4866 13.166-4.9107 18.556-5.3592 19.337 0.5581 0.19476 1.1247 0.3494 1.699 0.46597z" fill="#377b29" fill-rule="evenodd"/>
   <path d="m262.22 404.94c-23.821 38.577-42.966 65.891-67.77 105.46-11.565 18.452-26.404 29.921-30.241 27.79-16.169-8.9781 8.4632-125.97 45.071-172.99 9.1422-11.742 23.94-27.09 39.124-21.505 15.184 5.5854 34.252 28.147 13.816 61.242z" fill="#fb7d0d" stroke="#dd7101" stroke-linecap="round" stroke-linejoin="round" stroke-width="3"/>
   <path d="m169.02 323.81c2.7208-7.9482-5.5254-17.152-13.73-15.146-9.3665 0.29761-20.199-2.4551-25.182-11.125-3.3201-8.2212 7.5116-17.761 15.091-12.732 4.4448 4.9915 16.258 1.6061 13.578-5.9462-3.3095-7.9934-13.944-9.0932-17.463-17.023-3.6801-6.2776-2.2836-14.965 3.7834-19.266 8.5173-7.2949 23.448-7.6218 30.424 1.9629 4.2643 5.6576 4.3663 13.537 1.845 19.944-0.5958 6.9052 8.9758 12.339 14.206 7.3131 8.967-6.2359 9.7556-19.884 20.351-24.327 9.7135-5.7687 23.636 6.0496 18.888 16.525-3.3265 8.1319-11.67 14.091-20.521 14.13-6.7024 0.57705-9.0046 11.537-1.5307 12.998 7.4944 2.5902 15.674-0.33491 23.175 2.4437 5.744 1.5781 12.366 3.5871 15.529 9.0527 3.3774 6.8612-2.8219 13.166-9.3575 14.3-14.123 4.2312-28.763-4e-3 -42.694-2.9928-4.1252-1.7218-8.3712 0.28519-11.026 3.5986-3.327 3.7279-1.3745 11.002-7.0719 8.9664l-7.2655-2.2127-1.0276-0.46403z" fill="url(#w)" fill-rule="evenodd" stroke="#377b29" stroke-width="3"/>
   <path d="m174.08 327.1c0.5648-0.15395 1.1286-0.3188 1.6897-0.49426-0.39823-0.52101-1.7677-6.4072 2.1663-19.318 6.2359-20.018 21.981-32.429 21.829-32.632-0.15293-0.20296-16.548 11.603-23.572 32.061-4.5391 12.957-3.8598 19.295-3.861 20.628 0.59771-8e-3 1.1826-0.0905 1.7481-0.24461z" fill="#377b29" fill-rule="evenodd"/>
   <path d="m174.32 325.89c0.58065-0.0794 1.1567-0.19218 1.7282-0.34096-0.3833-0.75829-1.3722-6.2325-2.9807-19.74-2.3652-20.952-7.4053-37.575-7.6966-37.492-0.29157 0.0827 4.1305 16.823 5.8713 37.672 1.0521 13.579 1.4859 19.137 1.3202 20.022 0.59112-2.7e-4 1.177-0.0412 1.7577-0.12065z" fill="#377b29" fill-rule="evenodd"/>
   <path d="m201.8 376.21c-14.311 64.921-31.41 169.7-45.009 167.35-18.226-3.1411-37.694-127.79-18.076-187.4 4.6519-14.136 13.662-33.472 29.839-33.208 16.177 0.26328 41.62 15.271 33.247 53.256z" fill="#fb7d0d" stroke="#dd7101" stroke-linecap="round" stroke-linejoin="round" stroke-width="3"/>
   <path d="m306.55 410.58c-47.499 46.512-147.62 179.6-157.72 170.2-13.537-12.601 50.796-169.47 115.89-221.5 11.625-9.2914 29.749-20.542 43.146-11.471 13.397 9.0712 26.482 35.554-1.3088 62.768z" fill="url(#t)" stroke="#dd7101" stroke-linecap="round" stroke-linejoin="round" stroke-width="3"/>
   <path d="m145.79 405.9c7.1103-0.78847 14.323-0.8224 21.477-0.0933l0.0307 3e-3c6.3674 0.98198 12.625 2.568 18.661 4.7235-6.1444-1.825-12.446-3.0598-18.792-3.6885l-0.0302-5e-3c-7.0371-1.0644-14.206-1.3827-21.346-0.94014z" fill="#dd2501" fill-rule="evenodd" stroke="#dd2501" stroke-linecap="round" stroke-linejoin="round" stroke-width="1px"/>
   <path d="m140.45 499.69c4.4584-0.18435 8.9395-0.1 13.411 0.25525l0.0728 0.0122c3.8288 0.66866 7.6126 1.5359 11.331 2.5949-3.8058-0.68297-7.6374-1.165-11.474-1.4457-1e-5 0-0.0728-6e-3 -0.0728-6e-3 -4.3776-0.73473-8.8111-1.2071-13.269-1.4109z" fill="#dd2501" fill-rule="evenodd" stroke="#dd2501" stroke-linecap="round" stroke-linejoin="round" stroke-width="1px"/>
   <path d="m159.32 499.95c-2.1473-0.84168-4.4064-1.4275-6.7138-1.7358l-0.0196-3e-3c-1.9296-0.0925-3.8594 9e-3 -5.7514 0.29852 1.9108-0.11266 3.8238-0.0332 5.7013 0.23323l0.0194 9.2e-4c2.2815 0.12758 4.5583 0.53174 6.7641 1.2059z" fill="#dd2501" fill-rule="evenodd" stroke="#dd2501" stroke-linecap="round" stroke-linejoin="round" stroke-width="1px"/>
   <path d="m161.54 550.24c-2.8116-1.102-5.7696-1.8691-8.7907-2.2727 0 0-0.0257-4e-3 -0.0257-4e-3 -2.5265-0.12116-5.0534 0.0115-7.5306 0.39083 2.5018-0.14749 5.0067-0.0435 7.465 0.3054l0.0254 1e-3c2.9873 0.16705 5.9684 0.69624 8.8566 1.5789z" fill="#dd2501" fill-rule="evenodd" stroke="#dd2501" stroke-linecap="round" stroke-linejoin="round" stroke-width="1px"/>
   <path d="m176.74 308.28c0.22604 0.17468 0.46766 0.32913 0.72408 0.46773 0.30174-0.5721 3.3211-4.2004 9.61-5.8245 6.4628-1.6782 11.995-0.14509 12.035-0.27285 0.04-0.12779-5.4564-2.0449-12.24-0.59727-6.6271 1.4231-10.038 4.9952-10.72 5.5964 0.1679 0.2446 0.36571 0.45586 0.59172 0.63052z" fill="#337808" fill-rule="evenodd"/>
   <path d="m172.21 307.13c0.24732-0.14289 0.47159-0.32581 0.67069-0.54577-0.59564-0.68703-3.4988-4.683-9.8763-6.979-6.5291-2.3413-12.232-1.176-12.21-1.044 0.0225 0.13196 5.7095-0.64802 11.89 1.8789 6.0154 2.4501 8.5227 6.4494 8.7453 7.0567 0.27264-0.10309 0.53275-0.22385 0.7801-0.36676z" fill="#337808" fill-rule="evenodd"/>
   <path d="m135.13 448.95c8.1563-2.0363 16.732-2.6551 25.222-1.776 0.046 9e-3 0.092 0.0176 0.13799 0.0265 7.3362 1.4632 14.39 4.0421 20.85 7.587-6.7798-2.8889-13.95-4.7135-21.173-5.4221-0.0452-5e-3 -0.0904-9e-3 -0.13556-0.014-8.1293-1.5675-16.598-1.719-24.901-0.40132z" fill="#dd2501" fill-rule="evenodd" stroke="#dd2501" stroke-linecap="round" stroke-linejoin="round" stroke-width="1.4434px"/>
   <path d="m174.75 448.99c-5.1277-2.1493-10.553-3.6445-16.103-4.4263-0.0874-7e-3 -0.17488-0.0138-0.26233-0.0204-5.1459-0.37327-10.315-0.13342-15.366 0.70344 5.0948-0.50113 10.229-0.39471 15.259 0.3069 0.0855 0.0117 0.17106 0.0235 0.25654 0.0355 5.4989 0.43032 10.964 1.5726 16.215 3.4009z" fill="#dd2501" fill-rule="evenodd" stroke="#dd2501" stroke-linecap="round" stroke-linejoin="round" stroke-width="1.4434px"/>
   <path d="m265.44 366.45c-49.701 44.152-116.96 174.45-114.98 211.72-13.537-12.601 49.988-167.47 114.25-218.89 11.62-9.297 29.749-20.542 43.146-11.471 4.9713 3.3662 9.8998 9.1302 12.713 16.439-21.918-32.773-47.489-4.5881-55.132 2.2022z" fill="url(#u)"/>
   <path d="m210.95 434.98c7.9413 2.7581 15.458 6.9323 22.083 12.313 0.0337 0.0325 0.0674 0.0651 0.10101 0.0977 5.3401 5.2387 9.8336 11.257 13.302 17.759-4.0943-6.1276-9.098-11.578-14.756-16.123-0.0352-0.0287-0.0705-0.0573-0.10578-0.0859-5.947-5.7599-12.952-10.52-20.624-13.96z" fill="#dd2501" fill-rule="evenodd" stroke="#dd2501" stroke-linecap="round" stroke-linejoin="round" stroke-width="1.4434px"/>
   <path d="m187.64 480.37c3.8327 2.285 7.5375 4.8074 11.086 7.5513l0.0543 0.05c2.839 2.6546 5.5318 5.4507 8.0651 8.3718-2.812-2.654-5.7554-5.1539-8.813-7.4878l-0.0578-0.0447c-3.2622-3.0101-6.7148-5.8312-10.334-8.4407z" fill="#dd2501" fill-rule="evenodd" stroke="#dd2501" stroke-linecap="round" stroke-linejoin="round" stroke-width="1px"/>
   <path d="m203.3 490.91c-1.3369-1.8794-2.9073-3.6058-4.67-5.1263l-0.0149-0.013c-1.5645-1.1332-3.2354-2.1043-4.9775-2.897 1.661 0.95117 3.2189 2.0644 4.6446 3.3146l0.0157 0.0114c1.8399 1.3551 3.5246 2.9391 5.0021 4.7102z" fill="#dd2501" fill-rule="evenodd" stroke="#dd2501" stroke-linecap="round" stroke-linejoin="round" stroke-width="1px"/>
   <path d="m177.64 534.22c-1.7505-2.4608-3.8067-4.7213-6.1147-6.712l-0.0195-0.0171c-2.0485-1.4838-4.2362-2.7552-6.5173-3.7932 2.1748 1.2454 4.2146 2.703 6.0814 4.34-1e-5 0 0.0206 0.0149 0.0206 0.0149 2.4091 1.7743 4.6149 3.8483 6.5494 6.1674z" fill="#dd2501" fill-rule="evenodd" stroke="#dd2501" stroke-linecap="round" stroke-linejoin="round" stroke-width="1px"/>
   <g transform="matrix(.92189 -.38746 .38746 .92189 -207.78 94.208)">
    <path d="m212.58 336.53c4.376-7.1713-1.6836-17.941-10.128-17.758-9.209-1.736-19.19-6.7672-22.179-16.31-1.4627-8.7448 11.177-15.715 17.488-9.1652 3.2596 5.8349 15.526 5.0857 14.543-2.8676-1.5016-8.5201-11.646-11.895-13.366-20.399-2.2347-6.9251 1.0084-15.105 7.8622-17.991 9.8939-5.2793 24.542-2.368 29.279 8.499 2.9392 6.4462 1.3339 14.162-2.5138 19.871-2.0757 6.6128 6.0936 13.988 12.287 10.213 10.104-4.1481 13.827-17.302 25.132-19.348 10.732-3.5304 21.767 11.02 14.865 20.22-5.0071 7.2196-14.443 11.232-23.092 9.3557-6.6685-0.88675-11.287 9.3153-4.3067 12.359 6.7565 4.1503 15.375 3.0642 22.098 7.4 5.2665 2.7835 11.297 6.1776 13.202 12.198 1.8129 7.4294-5.6037 12.244-12.23 11.936-14.704 1.0753-28.081-6.2274-41.035-12.159-3.655-2.5735-8.2346-1.5328-11.543 1.1278-4.0548 2.9198-3.7224 10.444-8.8444 7.224l-6.6146-3.7322-0.90288-0.67537z" fill="url(#s)" fill-rule="evenodd" stroke="#337808" stroke-width="3"/>
    <path d="m216.8 340.84c0.58473-0.0281 1.1708-0.0671 1.7566-0.11698-0.27608-0.59483-0.33961-6.6379 6.2946-18.392 10.419-18.195 28.477-26.905 28.372-27.137-0.10539-0.23124-18.667 7.748-29.95 26.202-7.2349 11.668-7.943 18.003-8.2326 19.304 0.58538 0.12111 1.1741 0.16754 1.7596 0.1394z" fill="#337808" fill-rule="evenodd"/>
    <path d="m217.31 339.7c0.58408 0.0481 1.1709 0.0626 1.761 0.041-0.21016-0.82325 9e-3 -6.3818 1.3608-19.917 2.224-20.968 0.89987-38.287 0.59754-38.27-0.30256 0.0177 0.3929 17.318-2.4185 38.05-1.9107 13.485-2.6897 19.005-3.043 19.834 0.57717 0.12763 1.1581 0.21441 1.7421 0.26249z" fill="#337808" fill-rule="evenodd"/>
    <path d="m233.25 394.78c-28.018 60.287-75.289 194.57-88.06 189.34-17.114-7.01-7.9442-158.47 30.806-222.56 7.6998-12.735 20.58-29.723 36.317-25.966s37.33 23.914 20.937 59.187z" fill="url(#n)" stroke="#dd7101" stroke-linecap="round" stroke-linejoin="round" stroke-width="3"/>
    <path d="m172.14 411.65c7.1125 0.7686 14.162 2.296 20.988 4.5556 0 0 0.0293 0.01 0.0293 0.01 6.0041 2.3364 11.77 5.2386 17.197 8.649-5.604-3.1111-11.49-5.6802-17.549-7.6669l-0.0285-0.0111c-6.6401-2.5617-13.57-4.4235-20.637-5.5363z" fill="#dd2501" fill-rule="evenodd" stroke="#dd2501" stroke-linecap="round" stroke-linejoin="round" stroke-width="1px"/>
    <path d="m146.64 502.06c4.3926 0.78462 8.7494 1.8365 13.038 3.1508l0.0685 0.0276c3.5934 1.4812 7.1 3.1466 10.502 4.9851-3.5679-1.4902-7.2045-2.7899-10.889-3.8939l-0.0699-0.0214c-4.1149-1.6645-8.3412-3.0849-12.649-4.2482z" fill="#dd2501" fill-rule="evenodd" stroke="#dd2501" stroke-linecap="round" stroke-linejoin="round" stroke-width="1px"/>
    <path d="m165 506.4c-1.9144-1.2863-3.9932-2.3471-6.1792-3.1472l-0.0185-7e-3c-1.8639-0.50784-3.7699-0.82645-5.6798-0.95299 1.8899 0.30345 3.7404 0.79494 5.5158 1.4613l0.0188 5e-3c2.1998 0.61819 4.3353 1.5054 6.343 2.6408z" fill="#dd2501" fill-rule="evenodd" stroke="#dd2501" stroke-linecap="round" stroke-linejoin="round" stroke-width="1px"/>
    <path d="m156.29 555.98c-2.5066-1.6842-5.2285-3.0731-8.0907-4.1208 0 0-0.0243-9e-3 -0.0243-9e-3 -2.4405-0.66494-4.9362-1.0821-7.4368-1.2478 2.4745 0.39732 4.8975 1.0408 7.2221 1.9133l0.0245 7e-3c2.8804 0.80942 5.6764 1.9711 8.3052 3.4577z" fill="#dd2501" fill-rule="evenodd" stroke="#dd2501" stroke-linecap="round" stroke-linejoin="round" stroke-width="1px"/>
    <ellipse transform="matrix(.9739 .22697 -.22697 .9739 0 0)" cx="273.16" cy="316.39" rx="3.5355" ry="8.5863" fill="#2c1600"/>
    <ellipse transform="matrix(.9739 .22697 -.22697 .9739 0 0)" cx="293.11" cy="316.39" rx="3.5355" ry="8.5863" fill="#2c1600"/>
    <path d="m191.81 384.3c4.8816 0.70395 9.672 1.9007 16.806 3.3543 0 0-7.288 19.181-14.41 17.036-6.5528-1.9736-2.3966-20.39-2.3966-20.39z" fill="#a50000"/>
    <path d="m192.65 350.05 3.0357-0.82311" fill="none" stroke="#2c1600" stroke-linecap="round" stroke-linejoin="round" stroke-width="3"/>
    <path d="m225.72 354.19-2.642-1.7067" fill="none" stroke="#2c1600" stroke-linecap="round" stroke-linejoin="round" stroke-width="3"/>
    <path d="m223.48 323.04c0.18289 0.21945 0.38538 0.42251 0.60574 0.61331 0.41837-0.49326 4.1512-3.3824 10.643-3.6074 6.6729-0.2401 11.742 2.4535 11.809 2.3374 0.0667-0.11611-4.8848-3.177-11.821-3.2313-6.778-0.0445-10.881 2.705-11.677 3.1444 0.11101 0.27514 0.25843 0.52419 0.44129 0.74361z" fill="#337808" fill-rule="evenodd"/>
    <path d="m219.3 320.93c0.27238-0.086 0.53092-0.21606 0.77288-0.38774-0.43288-0.79963-2.4028-5.3291-8.1324-8.9505-5.8679-3.6984-11.688-3.7947-11.695-3.661-7e-3 0.13371 5.7145 0.60264 11.202 4.4069 5.3428 3.6936 6.9254 8.1406 7.0113 8.7817 0.2885-0.0417 0.56857-0.10329 0.84098-0.18929z" fill="#337808" fill-rule="evenodd"/>
    <ellipse transform="matrix(.9739 .22697 -.22697 .9739 0 0)" cx="272.63" cy="314.13" rx="1.3185" ry="3.202" fill="#fff"/>
    <ellipse transform="matrix(.9739 .22697 -.22697 .9739 0 0)" cx="292.77" cy="313.35" rx="1.2809" ry="3.1108" fill="#fff"/>
    <path d="m193.38 394.39a9.6794 6.3695 12.371 0 0 -2.8613 0.45117c-0.0798 4.4978 0.65149 8.9272 3.6816 9.8398 3.244 0.97701 6.5146-2.4771 9.123-6.5215a9.6794 6.3695 12.371 0 0 -6.4258 -3.4414 9.6794 6.3695 12.371 0 0 -3.5176 -0.32813z" fill="#f24e3d"/>
    <path d="m191.81 384.3c4.8816 0.70395 9.672 1.9007 16.806 3.3543 0 0-7.288 19.181-14.41 17.036-6.5528-1.9736-2.3966-20.39-2.3966-20.39z" fill="none" stroke="#2c1600" stroke-linecap="round" stroke-linejoin="round" stroke-width="1.5"/>
    <path d="m179.2 368.01c-30.911 58.856-49.025 181.94-34.017 216.11-17.114-7.01-7.9442-158.47 30.806-222.56 7.6998-12.735 20.58-29.723 36.317-25.966 5.8397 1.3942 12.486 5.0468 17.698 10.892-32.078-22.923-46.05 12.474-50.804 21.526z" fill="url(#q)"/>
    <path d="m152.41 451.37c8.4037-0.22341 16.91 1.028 25.009 3.723 0.043 0.0185 0.086 0.0371 0.12898 0.0557 6.8458 3.0158 13.175 7.0598 18.715 11.919-5.9941-4.2874-12.6-7.6201-19.499-9.8747-0.0431-0.0144-0.0862-0.0287-0.12931-0.043-7.5976-3.2892-15.833-5.2693-24.225-5.7794z" fill="#dd2501" fill-rule="evenodd" stroke="#dd2501" stroke-linecap="round" stroke-linejoin="round" stroke-width="1.4434px"/>
    <path d="m191.09 459.98c-4.5412-3.2078-9.5149-5.8415-14.764-7.8055-0.0838-0.0257-0.16776-0.0513-0.25171-0.0766-4.9432-1.4778-10.042-2.3621-15.154-2.6378 5.0825 0.61304 10.072 1.8277 14.831 3.6011 0.081 0.0299 0.16192 0.06 0.24278 0.0902 5.2755 1.6099 10.364 3.9076 15.095 6.8286z" fill="#dd2501" fill-rule="evenodd" stroke="#dd2501" stroke-linecap="round" stroke-linejoin="round" stroke-width="1.4434px"/>
   </g>
   <path d="m212.58 336.53c4.376-7.1713-1.6836-17.941-10.128-17.758-9.209-1.736-19.19-6.7672-22.179-16.31-1.4627-8.7448 11.177-15.715 17.488-9.1652 3.2596 5.8349 15.526 5.0857 14.543-2.8676-1.5016-8.5201-11.646-11.895-13.366-20.399-2.2347-6.9251 1.0084-15.105 7.8622-17.991 9.8939-5.2793 24.542-2.368 29.279 8.499 2.9392 6.4462 1.3339 14.162-2.5138 19.871-2.0757 6.6128 6.0936 13.988 12.287 10.213 10.104-4.1481 13.827-17.302 25.132-19.348 10.732-3.5304 21.767 11.02 14.865 20.22-5.0071 7.2196-14.443 11.232-23.092 9.3557-6.6685-0.88675-11.287 9.3153-4.3067 12.359 6.7565 4.1503 15.375 3.0642 22.098 7.4 5.2665 2.7835 11.297 6.1776 13.202 12.198 1.8129 7.4294-5.6037 12.244-12.23 11.936-14.704 1.0753-28.081-6.2274-41.035-12.159-3.655-2.5735-8.2346-1.5328-11.543 1.1278-4.0548 2.9198-3.7224 10.444-8.8444 7.224l-6.6146-3.7322-0.90288-0.67537z" fill="url(#s)" fill-rule="evenodd" stroke="#337808" stroke-width="3"/>
   <path d="m216.8 340.84c0.58473-0.0281 1.1708-0.0671 1.7566-0.11698-0.27608-0.59483-0.33961-6.6379 6.2946-18.392 10.419-18.195 28.477-26.905 28.372-27.137-0.10539-0.23124-18.667 7.748-29.95 26.202-7.2349 11.668-7.943 18.003-8.2326 19.304 0.58538 0.12111 1.1741 0.16754 1.7596 0.1394z" fill="#337808" fill-rule="evenodd"/>
   <path d="m217.31 339.7c0.58408 0.0481 1.1709 0.0626 1.761 0.041-0.21016-0.82325 9e-3 -6.3818 1.3608-19.917 2.224-20.968 0.89987-38.287 0.59754-38.27-0.30256 0.0177 0.3929 17.318-2.4185 38.05-1.9107 13.485-2.6897 19.005-3.043 19.834 0.57717 0.12763 1.1581 0.21441 1.7421 0.26249z" fill="#337808" fill-rule="evenodd"/>
   <path d="m233.25 394.78c-28.018 60.287-75.289 194.57-88.06 189.34-17.114-7.01-7.9442-158.47 30.806-222.56 7.6998-12.735 20.58-29.723 36.317-25.966s37.33 23.914 20.937 59.187z" fill="url(#n)" stroke="#dd7101" stroke-linecap="round" stroke-linejoin="round" stroke-width="3"/>
   <path d="m172.14 411.65c7.1125 0.7686 14.162 2.296 20.988 4.5556 0 0 0.0293 0.01 0.0293 0.01 6.0041 2.3364 11.77 5.2386 17.197 8.649-5.604-3.1111-11.49-5.6802-17.549-7.6669l-0.0285-0.0111c-6.6401-2.5617-13.57-4.4235-20.637-5.5363z" fill="#dd2501" fill-rule="evenodd" stroke="#dd2501" stroke-linecap="round" stroke-linejoin="round" stroke-width="1px"/>
   <path d="m146.64 502.06c4.3926 0.78462 8.7494 1.8365 13.038 3.1508l0.0685 0.0276c3.5934 1.4812 7.1 3.1466 10.502 4.9851-3.5679-1.4902-7.2045-2.7899-10.889-3.8939l-0.0699-0.0214c-4.1149-1.6645-8.3412-3.0849-12.649-4.2482z" fill="#dd2501" fill-rule="evenodd" stroke="#dd2501" stroke-linecap="round" stroke-linejoin="round" stroke-width="1px"/>
   <path d="m165 506.4c-1.9144-1.2863-3.9932-2.3471-6.1792-3.1472l-0.0185-7e-3c-1.8639-0.50784-3.7699-0.82645-5.6798-0.95299 1.8899 0.30345 3.7404 0.79494 5.5158 1.4613l0.0188 5e-3c2.1998 0.61819 4.3353 1.5054 6.343 2.6408z" fill="#dd2501" fill-rule="evenodd" stroke="#dd2501" stroke-linecap="round" stroke-linejoin="round" stroke-width="1px"/>
   <path d="m156.29 555.98c-2.5066-1.6842-5.2285-3.0731-8.0907-4.1208 0 0-0.0243-9e-3 -0.0243-9e-3 -2.4405-0.66494-4.9362-1.0821-7.4368-1.2478 2.4745 0.39732 4.8975 1.0408 7.2221 1.9133l0.0245 7e-3c2.8804 0.80942 5.6764 1.9711 8.3052 3.4577z" fill="#dd2501" fill-rule="evenodd" stroke="#dd2501" stroke-linecap="round" stroke-linejoin="round" stroke-width="1px"/>
   <ellipse transform="matrix(.9739 .22697 -.22697 .9739 0 0)" cx="273.16" cy="316.39" rx="3.5355" ry="8.5863" fill="#2c1600"/>
   <ellipse transform="matrix(.9739 .22697 -.22697 .9739 0 0)" cx="293.11" cy="316.39" rx="3.5355" ry="8.5863" fill="#2c1600"/>
   <path d="m192.65 350.05 3.0357-0.82311" fill="none" stroke="#2c1600" stroke-linecap="round" stroke-linejoin="round" stroke-width="3"/>
   <path d="m225.72 354.19-2.642-1.7067" fill="none" stroke="#2c1600" stroke-linecap="round" stroke-linejoin="round" stroke-width="3"/>
   <path d="m223.48 323.04c0.18289 0.21945 0.38538 0.42251 0.60574 0.61331 0.41837-0.49326 4.1512-3.3824 10.643-3.6074 6.6729-0.2401 11.742 2.4535 11.809 2.3374 0.0667-0.11611-4.8848-3.177-11.821-3.2313-6.778-0.0445-10.881 2.705-11.677 3.1444 0.11101 0.27514 0.25843 0.52419 0.44129 0.74361z" fill="#337808" fill-rule="evenodd"/>
   <path d="m219.3 320.93c0.27238-0.086 0.53092-0.21606 0.77288-0.38774-0.43288-0.79963-2.4028-5.3291-8.1324-8.9505-5.8679-3.6984-11.688-3.7947-11.695-3.661-7e-3 0.13371 5.7145 0.60264 11.202 4.4069 5.3428 3.6936 6.9254 8.1406 7.0113 8.7817 0.2885-0.0417 0.56857-0.10329 0.84098-0.18929z" fill="#337808" fill-rule="evenodd"/>
   <ellipse transform="matrix(.9739 .22697 -.22697 .9739 0 0)" cx="272.63" cy="314.13" rx="1.3185" ry="3.202" fill="#fff"/>
   <ellipse transform="matrix(.9739 .22697 -.22697 .9739 0 0)" cx="292.77" cy="313.35" rx="1.2809" ry="3.1108" fill="#fff"/>
   <path d="m179.2 368.01c-30.911 58.856-49.025 181.94-34.017 216.11-17.114-7.01-7.9442-158.47 30.806-222.56 7.6998-12.735 20.58-29.723 36.317-25.966 5.8397 1.3942 12.486 5.0468 17.698 10.892-32.078-22.923-46.05 12.474-50.804 21.526z" fill="url(#q)"/>
   <path d="m152.41 451.37c8.4037-0.22341 16.91 1.028 25.009 3.723 0.043 0.0185 0.086 0.0371 0.12898 0.0557 6.8458 3.0158 13.175 7.0598 18.715 11.919-5.9941-4.2874-12.6-7.6201-19.499-9.8747-0.0431-0.0144-0.0862-0.0287-0.12931-0.043-7.5976-3.2892-15.833-5.2693-24.225-5.7794z" fill="#dd2501" fill-rule="evenodd" stroke="#dd2501" stroke-linecap="round" stroke-linejoin="round" stroke-width="1.4434px"/>
   <path d="m191.09 459.98c-4.5412-3.2078-9.5149-5.8415-14.764-7.8055-0.0838-0.0257-0.16776-0.0513-0.25171-0.0766-4.9432-1.4778-10.042-2.3621-15.154-2.6378 5.0825 0.61304 10.072 1.8277 14.831 3.6011 0.081 0.0299 0.16192 0.06 0.24278 0.0902 5.2755 1.6099 10.364 3.9076 15.095 6.8286z" fill="#dd2501" fill-rule="evenodd" stroke="#dd2501" stroke-linecap="round" stroke-linejoin="round" stroke-width="1.4434px"/>
   <path d="m307.79 348.78c6.6262-5.1644 4.7594-17.38-3.2063-20.19-8.003-4.8756-15.564-13.107-14.992-23.091 1.719-8.698 16.005-10.757 19.598-2.4002 0.9895 6.61 12.73 10.24 14.619 2.4517 1.6033-8.5016-6.6966-15.241-5.3035-23.804 0.35426-7.2681 6.2766-13.776 13.708-14.057 11.121-1.446 23.797 6.4496 24.392 18.289 0.47397 7.0688-3.752 13.72-9.3679 17.704-4.2768 5.454 0.76224 15.239 7.8895 13.894 10.918-0.31355 19.045-11.306 30.344-9.2282 11.287 0.48597 16.474 17.996 6.7688 24.166-7.2337 4.9868-17.478 5.4097-24.908 0.60002-5.926-3.1841-13.849 4.73-8.393 10.043 4.856 6.2686 13.303 8.2953 18.062 14.726 3.9446 4.4637 8.3881 9.7683 8.0451 16.074-0.92695 7.591-9.5659 9.477-15.657 6.8498-14.137-4.1855-24.074-15.741-34.099-25.864-2.511-3.6982-7.1631-4.3415-11.198-3.0205-4.8246 1.3001-7.1703 8.4574-10.825 3.636l-4.8709-5.8273-0.60627-0.95065z" fill="url(#v)" fill-rule="evenodd" stroke="#337808" stroke-width="3"/>
   <path d="m310.22 354.3c0.557 0.18016 1.1191 0.35065 1.6848 0.51076-0.0483-0.65399 2.0259-6.3303 12.383-14.985 16.172-13.344 36.143-15.118 36.126-15.371-0.017-0.25356-20.2 0.65828-37.272 13.94-10.889 8.3618-13.788 14.039-14.518 15.154 0.50491 0.31999 1.0394 0.57131 1.597 0.75169z" fill="#337808" fill-rule="evenodd"/>
   <path d="m311.09 353.42c0.52948 0.25121 1.0734 0.47201 1.6331 0.66014 0.094-0.84443 2.2615-5.9676 8.3054-18.154 9.484-18.832 14.36-35.504 14.071-35.594-0.2893-0.0903-5.7469 16.341-15.697 34.745-6.5488 11.942-9.2266 16.831-9.8498 17.482 0.49494 0.3232 1.0078 0.60949 1.5372 0.86069z" fill="#337808" fill-rule="evenodd"/>
   <path d="m243.43 404.79c6.3831 3.2303 12.439 7.1481 18.028 11.673l0.0241 0.0194c4.7925 4.3058 9.1623 9.0568 13.036 14.164-4.1446-4.8894-8.7441-9.3711-13.712-13.369l-0.0227-0.0204c-5.308-4.7412-11.134-8.9298-17.353-12.466z" fill="#dd2501" fill-rule="evenodd" stroke="#dd2501" stroke-linecap="round" stroke-linejoin="round" stroke-width="1px"/>
   <ellipse transform="matrix(.83104 .55621 -.55621 .83104 0 0)" cx="439.52" cy="155.55" rx="3.5355" ry="8.5863" fill="#2c1600"/>
   <ellipse transform="matrix(.83104 .55621 -.55621 .83104 0 0)" cx="459.48" cy="155.55" rx="3.5355" ry="8.5863" fill="#2c1600"/>
   <path d="m271.44 387.05c3.0905 2.6881 5.9955 5.7339 10.405 10.005 0 0-9.726 12.302-13.952 7.479-3.8887-4.4378 3.5474-17.484 3.5474-17.484z" fill="#a50000"/>
   <path d="m284.36 354.4 3.1308 0.30173" fill="none" stroke="#2c1600" stroke-linecap="round" stroke-linejoin="round" stroke-width="3"/>
   <path d="m313.84 369.94-1.8693-2.5296" fill="none" stroke="#2c1600" stroke-linecap="round" stroke-linejoin="round" stroke-width="3"/>
   <path d="m322.74 340.01c0.0936 0.26989 0.21138 0.53137 0.35018 0.78768 0.56558-0.31377 5.0781-1.6988 11.231 0.38255 6.3279 2.1314 10.119 6.4412 10.223 6.3562 0.10338-0.0851-3.4484-4.6971-9.9186-7.1968-6.3258-2.4348-11.136-1.3112-12.035-1.1811 7e-3 0.29661 0.0567 0.58166 0.15032 0.85152z" fill="#337808" fill-rule="evenodd"/>
   <path d="m319.58 336.56c0.2852 0.0157 0.57301-0.0147 0.86001-0.0899-0.12268-0.90097-0.36646-5.8342-4.4484-11.245-4.1842-5.5321-9.5957-7.6772-9.649-7.5543-0.0533 0.12278 5.1337 2.5815 8.9246 8.0782 3.6946 5.3421 3.6052 10.061 3.4592 10.692 0.28463 0.0629 0.56842 0.10411 0.85365 0.11983z" fill="#337808" fill-rule="evenodd"/>
   <ellipse transform="matrix(.83104 .55621 -.55621 .83104 0 0)" cx="439" cy="153.29" rx="1.3185" ry="3.202" fill="#fff"/>
   <ellipse transform="matrix(.83104 .55621 -.55621 .83104 0 0)" cx="459.13" cy="152.51" rx="1.2809" ry="3.1108" fill="#fff"/>
   <path d="m269.95 395.88a8.3617 4.7902 53.086 0 0 -2.0298 -0.87904c-1.1899 3.5924-1.8194 7.482-0.0213 9.5342 1.9251 2.197 4.9876 0.83207 7.756-1.2963a8.3617 4.7902 53.086 0 0 -3.4328 -5.5663 8.3617 4.7902 53.086 0 0 -2.2722 -1.7925z" fill="#f24e3d"/>
   <path d="m271.44 387.05c3.0905 2.6881 5.9955 5.7339 10.405 10.005 0 0-9.726 12.302-13.952 7.479-3.8887-4.4378 3.5474-17.484 3.5474-17.484z" fill="none" stroke="#2c1600" stroke-linecap="round" stroke-linejoin="round" stroke-width="1.209"/>
   <path d="m244.09 456.69c-3.1161-4.6046-6.8396-8.8248-11.057-12.515-0.0694-0.0537-0.13886-0.10719-0.20844-0.16058-4.1031-3.1279-8.5615-5.7556-13.247-7.8184 4.5387 2.3681 8.7778 5.266 12.605 8.6057 0.0652 0.0566 0.13033 0.11325 0.19531 0.17007 4.3674 3.3688 8.3173 7.3154 11.712 11.719z" fill="#dd2501" fill-rule="evenodd" stroke="#dd2501" stroke-linecap="round" stroke-linejoin="round" stroke-width="1.4434px"/>
   <path d="m189.15 391.14c4.163 4.8591 10.008 5.8808 16.264 5.9623" fill="none" stroke="#2c1600" stroke-linecap="round" stroke-linejoin="round" stroke-width="3"/>
  </g>
 </g>
</svg>
