<?xml version="1.0" encoding="UTF-8"?>
<svg viewBox="0 0 205 246" xmlns="http://www.w3.org/2000/svg">
 <path d="m115.43 7.44c1-0.5 2.72-0.03 2.74 1.29-3.78 2.63-8.23 4.55-10.98 8.41-1.94 1.99-2.74 4.71-4.26 6.95l-1.22 1.1c-0.019997 0.74-0.040001 2.2-0.059998 2.94-0.94 0.88-1.84 1.8-2.7 2.76-0.32 0.58-0.62 1.17-0.92 1.77-0.56 0.07-1.67 0.21-2.23 0.29 0.37-2.12 0.92-4.22 2.05-6.07-2.12 0.23-4.25 0.42-6.33 0.9-1.43 0.52-2.83 1.11-4.22 1.73-1.92 1.49-3.47 3.41-4.65 5.53-0.93 3.64-2.78 8.2-0.19 11.53-2.52 2.13 0.15 5.97-0.57 8.83-3.44-0.47-6.85 0.15-9.7 2.18-0.35001 0.15-1.05 0.44-1.4 0.58-2.53 0.67-4.4 2.56-6.09 4.44-3.32 3.58-4.53 8.35-6.3 12.75-6.86 1.46-13.33 5.02-17.63 10.64l-0.51 0.55c-0.9 0.98-1.75 2.01-2.46 3.14l-0.15-1.13c3.87-7.13 11.25-12.59 19.38-13.71 2.17-6.61 5.53-13.21 11.39-17.27 3.33-2.61 7.43-4.42 11.74-4.04-1.64-7.99-1.67-17.78 4.79-23.74 3.11-2.36 7.02-3.94 10.98-3.78 1.74-0.21 4.78 0.83 4.96-1.82 2.05-7.37 7.38-13.88 14.54-16.75z" fill="#924759"/>
 <path d="m101.71 25.19l1.22-1.1c-0.14 0.73-0.43 2.21-0.58 2.95 4.21-0.63 8.65 1.4 10.44 5.35 3.62 6.32 1.4 13.87-1.51 19.99 7.39 1.26 14.76 4.98 18.77 11.54 1.25 2.26 2.14 4.69 3.07 7.09 3.74 0.5 7.81-0.24 11.22 1.73 2.57 1.29 4.36 3.63 6.42 5.56 4.2 4.22 5.78 10.21 6.87 15.88-0.28 0.32-0.85001 0.96-1.14 1.28-0.22-6.94-2.77-14.23-8.47-18.54-1.4-1.19-2.87-2.32-4.53-3.11-3.57-1.93-7.7-1.93-11.64-1.94 0.17-1.35-0.01001-2.66-0.56001-3.91-0.89-0.07-1.67 0.17-2.34 0.73-0.28999-0.19-0.86-0.56-1.15-0.75l-0.48-2.88c0.42 0.65 1.26 1.97 1.67 2.62 0.42-0.6 0.84-1.21 1.25-1.81-3.66-5.37-8.58-10.02-15.07-11.57-2.33-0.66-4.65-1.5-7.08-1.61-4.94 0.040001-9.25 2.77-13.56 4.83 0.39-0.93 0.73-1.88 1.08-2.82 4.87-0.29 9.26-2.94 14.21-2.86 0.69-1.38 1.39-2.76 2.03-4.16 1.42-4.03 2.27-8.46 0.94-12.64-1.58-4.5-6.12-8.39-11.14-6.91 0.019997-0.74 0.040001-2.2 0.059998-2.94z" fill="#653531"/>
 <path d="m91.52 27.78c2.08-0.48 4.21-0.67 6.33-0.9-1.13 1.85-1.68 3.95-2.05 6.07 0.56-0.080002 1.67-0.22 2.23-0.29 0.3-0.6 0.6-1.19 0.92-1.77 0.62 0.8 1.25 1.61 1.91 2.38 1.08 1.21 2.14 2.45 3.17 3.7-1.72 0-3.45-0.050003-5.17-0.17-3.62-1.28-5.75 2.33-8.72 3.59 0.57-3.22 1.47-6.37 2.31-9.52l-0.93-3.09z" fill="#fc7fa5"/>
 <path d="m87.3 29.51c1.39-0.62 2.79-1.21 4.22-1.73l0.93 3.09c-0.84 3.15-1.74 6.3-2.31 9.52-0.35 2.17-0.48 4.36-0.52 6.56 0 1.53 0.009995 3.07 0.049995 4.61-1.13-1.71-2.45-3.41-2.68-5.52-1.19-4.9 2.07-9.33 3.33-13.88l-1.14-1.03c-0.47-0.41-1.41-1.22-1.88-1.62z" fill="#ef8ab0"/>
 <path d="m98.95 30.89c0.86-0.96 1.76-1.88 2.7-2.76 5.02-1.48 9.56 2.41 11.14 6.91-2.34-1.46-4.49-3.19-6.55-5.02-0.49 0.25-1.47 0.74-1.96 0.99 0.6 0.94 1.2 1.87 1.77 2.82-1.64-0.4-3.78-2.42-5.19-0.56-0.66-0.77-1.29-1.58-1.91-2.38z" fill="#f58cac"/>
 <path d="m82.65 35.04c1.18-2.12 2.73-4.04 4.65-5.53 0.46999 0.4 1.41 1.21 1.88 1.62-3.58 4.55-4.74 10.43-4.46 16.1-0.95-4.02-0.36-8.31-2.07-12.19z" fill="#e48baa"/>
 <path d="m106.24 30.02c2.06 1.83 4.21 3.56 6.55 5.02 1.33 4.18 0.48 8.61-0.94 12.64-1.65 0.9-3.36 1.86-5.3 1.83 2.06-1.95 3.96-4.16 4.56-7.01-0.7-0.099998-2.09-0.31-2.79-0.42 0.89-0.88 1.82-1.72 2.74-2.57-0.43-0.11-1.27-0.33-1.69-0.44-0.56-0.14-1.68-0.44-2.24-0.59-0.35-1.55-0.66-3.11-1.08-4.65-0.57-0.95-1.17-1.88-1.77-2.82 0.49-0.25 1.47-0.74 1.96-0.99z" fill="#f6669e"/>
 <path d="m84.72 47.23c-0.28-5.67 0.88-11.55 4.46-16.1l1.14 1.03c-1.26 4.55-4.52 8.98-3.33 13.88 0.23 2.11 1.55 3.81 2.68 5.52l0.55 1.18c-2.63-0.89-4.53-2.96-5.5-5.51z" fill="#fed1e9"/>
 <path d="m100.86 33.27c1.41-1.86 3.55 0.16 5.19 0.56 0.42 1.54 0.73 3.1 1.08 4.65-1.29 0.12-2.41-0.38-3.1-1.51-1.03-1.25-2.09-2.49-3.17-3.7z" fill="#fdc0e3"/>
 <path d="m82.46 46.57c-2.59-3.33-0.74-7.89 0.19-11.53 1.71 3.88 1.12 8.17 2.07 12.19 0.97 2.55 2.87 4.62 5.5 5.51 0.19 0.79 0.38 1.59 0.58 2.39-0.45 0.02-1.35 0.049999-1.8 0.07-3-2.18-4.24-5.84-6.54-8.63z" fill="#f06a9b"/>
 <path d="m90.14 40.39c2.97-1.26 5.1-4.87 8.72-3.59-0.65 2.71-0.42 5.49 1.83 7.39 2.82-1.83 5.65-3.66 8.68-5.12 0.42 0.11 1.26 0.33 1.69 0.44-0.92 0.85-1.85 1.69-2.74 2.57-1.81 2.1-3.33 4.64-2.73 7.52-3.17 1.32-6.46 2.34-9.82 3.02-0.28999-1.17-0.56-2.34-0.84-3.51 0.74-1.93 0.97-3.99 1.04-6.04-2.45 0.7-4.62 2.02-6.35 3.88 0.040001-2.2 0.17-4.39 0.52-6.56z" fill="#fb5992"/>
 <path d="m98.86 36.8c1.72 0.12 3.45 0.17 5.17 0.17 0.69 1.13 1.81 1.63 3.1 1.51 0.56 0.15 1.68 0.45 2.24 0.59-3.03 1.46-5.86 3.29-8.68 5.12-2.25-1.9-2.48-4.68-1.83-7.39z" fill="#e25685"/>
 <path d="m108.32 42.08c0.7 0.11 2.09 0.32 2.79 0.42-0.6 2.85-2.5 5.06-4.56 7.01l-0.96 0.09c-0.6-2.88 0.92001-5.42 2.73-7.52z" fill="#ff80ae"/>
 <path d="m89.62 46.95c1.73-1.86 3.9-3.18 6.35-3.88-0.07 2.05-0.3 4.11-1.04 6.04-0.56 1.68-1.05 3.38-1.5 5.1-0.22-1.31-0.45-2.61-0.68-3.91-0.85 0.81-1.7 1.62-2.53 2.44l-0.55-1.18c-0.040001-1.54-0.049995-3.08-0.049995-4.61z" fill="#f94285"/>
 <path d="m81.89 55.4c0.72-2.86-1.95-6.7 0.57-8.83 2.3 2.79 3.54 6.45 6.54 8.63 1.19 0.95 1.63 2.43 2.16 3.78-1.06 0.42-2.13 0.82-3.21 1.21-2.22-1.31-4.39-2.78-6.06-4.79z" fill="#b3184d"/>
 <path d="m106.55 49.51c1.94 0.030003 3.65-0.93 5.3-1.83-0.64 1.4-1.34 2.78-2.03 4.16-4.95-0.080002-9.34 2.57-14.21 2.86-0.35 0.94-0.69 1.89-1.08 2.82-0.35 0.17-1.04 0.49-1.38 0.65-0.5 0.21-1.49 0.61-1.99 0.81-0.53001-1.35-0.97-2.83-2.16-3.78 0.45-0.02 1.35-0.049999 1.8-0.07-0.2-0.8-0.39-1.6-0.58-2.39 0.83-0.82 1.68-1.63 2.53-2.44 0.23 1.3 0.46 2.6 0.68 3.91 0.45-1.72 0.94-3.42 1.5-5.1 0.28 1.17 0.55 2.34 0.84 3.51 3.36-0.68 6.65-1.7 9.82-3.02l0.96-0.09z" fill="#c23972"/>
 <path d="m94.53 57.52c4.31-2.06 8.62-4.79 13.56-4.83 2.43 0.11 4.75 0.95 7.08 1.61-1.39 1.27-3.34 2.52-2.72 4.69-2.07-0.87-4.33-2.1-6.59-1.09-2.15 0.87-4.34-0.21-6.5-0.41-1.5 0.68-2.81 1.69-4.22 2.52-0.94 0.31-1.88 0.62-2.82 0.9 0.27-0.91 0.55-1.83 0.83-2.74 0.34-0.16 1.03-0.48 1.38-0.65z" fill="#ffb7e0"/>
 <path d="m72.19 57.58c2.85-2.03 6.26-2.65 9.7-2.18 1.67 2.01 3.84 3.48 6.06 4.79-2.36 0.78-4.78 1.4-7.16 2.12-1.69-0.07-3.38-0.07-5.07-0.09l-1.08-4.17c-0.61-0.12-1.84-0.35-2.45-0.47z" fill="#e15187"/>
 <path d="m115.17 54.3c6.49 1.55 11.41 6.2 15.07 11.57-0.41 0.6-0.83 1.21-1.25 1.81-0.41-0.65-1.25-1.97-1.67-2.62-0.53-0.37-1.59-1.1-2.12-1.46-1.06-0.67-2.12-1.34-3.18-2l-1.92 2.19c-2.31-1.95-4.83-3.65-7.65-4.8-0.62-2.17 1.33-3.42 2.72-4.69z" fill="#f5dcf1"/>
 <path d="m99.36 57.49c2.16 0.2 4.35 1.28 6.5 0.41 2.26-1.01 4.52 0.22 6.59 1.09 2.82 1.15 5.34 2.85 7.65 4.8l1.92-2.19c1.06 0.66 2.12 1.33 3.18 2-0.55 0.07-1.66 0.21-2.21 0.29 0.57 1.46 1.14 2.92 1.72 4.39-0.73 0.67-1.46 1.34-2.16 2.03-2.57 2.39-2.58 6.68-5.92 8.37-3.61 1.7-7.43 2.93-11 4.73 0.020004 0.85 0.030006 1.69 0.040001 2.54-0.43 0.23-1.28 0.68-1.71 0.91 4.49 2.05 9.2-0.4 13.66-1.29 0.71999 0.22 2.17 0.68 2.89 0.91-4.51 2.51-9.47 4.04-14.3 5.79-3.34-1.35-6.88-2.52-9.67-4.88-0.18-1-0.35-2-0.49-3 1.76-0.31 3.51-0.62 5.27-0.93 0.31-1.06 0.63-2.11 0.96-3.16 3.47-1.48 3.92-5.64 6.39-8.14-1.21-1.59-3.19-1.84-5.01-2.22-1.57-0.66-3.05-1.54-4.53-2.39-0.25 0.38-0.51 0.75-0.77 1.13 1.02 2.06 3.21 4.2 2.05 6.66-2.91 1.89-5.92-1.47-8.76-2.19-0.5-1.16-1-2.31-1.5-3.46-2.07-0.28-4.14-0.55-6.21-0.8 4.49-1.45 7.85-4.79 11.6-7.47-0.099998-0.35-0.3-1.06-0.4-1.41 1.41-0.83 2.72-1.84 4.22-2.52z" fill="#fa8bbf"/>
 <path d="m64.7 62.6c1.69-1.88 3.56-3.77 6.09-4.44-0.26 1.62-0.57 3.23-0.89 4.84 0.65 1.02 1.29 2.04 1.96 3.04 3.36 2.47 7.54-0.61 11.21 0.9-0.99 1.02-1.99 2.01-3 3.01 0.47 0.96001 0.94 1.92 1.4 2.88-0.11 1.27-0.25 2.55-0.24 3.83 2.26 1.49 4.67 2.72 6.93 4.2-1.36 1.43-2.74 2.85-4.13 4.26-5.8-3.68-9.63-9.58-15.24-13.52-0.14-0.68-0.28-1.36-0.4-2.04 1.53-3.01-2.19-4.9-3.69-6.96z" fill="#ffb6d9"/>
 <path d="m72.19 57.58c0.61 0.12 1.84 0.35 2.45 0.47l1.08 4.17c1.69 0.02 3.38 0.02 5.07 0.09-2.66 1.87-6 2.39-8.93 3.73-0.67-1-1.31-2.02-1.96-3.04 0.32-1.61 0.63-3.22 0.89-4.84 0.35-0.14 1.05-0.43 1.4-0.58z" fill="#f97dad"/>
 <path d="m91.16 58.98c0.5-0.2 1.49-0.6 1.99-0.81-0.28 0.91-0.56 1.83-0.83 2.74 0.94-0.28 1.88-0.59 2.82-0.9 0.099998 0.35 0.3 1.06 0.4 1.41-3.75 2.68-7.11 6.02-11.6 7.47 2.07 0.25 4.14 0.52 6.21 0.8 0.5 1.15 1 2.3 1.5 3.46 2.84 0.72 5.85 4.08 8.76 2.19 1.16-2.46-1.03-4.6-2.05-6.66 0.26-0.38 0.52-0.75 0.77-1.13 1.48 0.85 2.96 1.73 4.53 2.39 0.13 4.33-2.78 7.69-5.41 10.79 1.34-0.14001 2.68-0.27 4.03-0.43-0.33 1.05-0.65 2.1-0.96 3.16-1.76 0.31-3.51 0.62-5.27 0.93 0.14 1 0.31 2 0.49 3 2.79 2.36 6.33 3.53 9.67 4.88-4.75 1.71-8.56-3.24-13.27-2.59-1.15 0.27-2.29 0.58-3.41 0.96 0.76 1.66 1.48 3.34 2.14 5.04-3.59-0.43-5.57-3.48-7.23-6.34-1.37 0.050003-2.74 0.11-4.11 0.17001-1.43-2.75-2.85-5.55-4.95-7.85-2.58-3.08-6.22-5.73-6.59-10.06 5.61 3.94 9.44 9.84 15.24 13.52 1.39-1.41 2.77-2.83 4.13-4.26-2.26-1.48-4.67-2.71-6.93-4.2-0.010002-1.28 0.13-2.56 0.24-3.83-0.46-0.96-0.93-1.92-1.4-2.88 1.01-1 2.01-1.99 3-3.01-3.67-1.51-7.85 1.57-11.21-0.9 2.93-1.34 6.27-1.86 8.93-3.73 2.38-0.72 4.8-1.34 7.16-2.12 1.08-0.39 2.15-0.79 3.21-1.21z" fill="#fd9fcd"/>
 <path d="m58.4 75.35c1.77-4.4 2.98-9.17 6.3-12.75 1.5 2.06 5.22 3.95 3.69 6.96-1.36-0.82999-2.86-3.05-4.64-1.86-1.08 0.5-1.45 1.76-2.1 2.67-1.06 2.11-1.93 4.3-2.79 6.5 0.3 0.57999 0.9 1.74 1.2 2.33 3.4 3.16 7.91 5.23 9.93 9.69 0.38-0.029999 1.13-0.080002 1.51-0.099998 2.98 2.59 6.32 4.79 8.99 7.73-2.7 0.39001-5.38 1.39-8.13 1.19-2.94-2.25-1.77-6.94-4.51-9.46-2.96-4.33-8.03-6.05-12.22-8.82-3.46 1.71-7.75 3.25-8.97 7.33l-0.05 0.14c-1.94-0.31-3.89-0.67-5.84-0.91 4.3-5.62 10.77-9.18 17.63-10.64z" fill="#f79fc6"/>
 <path d="m122.99 63.89c0.55-0.079998 1.66-0.22 2.21-0.29 0.53001 0.36 1.59 1.09 2.12 1.46l0.48 2.88c0.28999 0.19 0.86 0.56 1.15 0.75 0.93001 1.09 1.89 2.16 2.9 3.18 0.31 0.52 0.92 1.54 1.23 2.05-1.51-0.28-3.02-0.51-4.53-0.74-0.2 0.6-0.61 1.79-0.81 2.38-0.79-0.47-1.58-0.94-2.36-1.41-0.11 1.26-0.21999 2.53-0.32 3.79-0.41 0.31-1.24 0.91-1.65 1.22 0.019997-1.62 0.029999-3.24 0.039993-4.86 0.84-0.9 1.68-1.79 2.52-2.69-0.86-0.33-2.57-0.98-3.42-1.3 0.7-0.69 1.43-1.36 2.16-2.03-0.58-1.47-1.15-2.93-1.72-4.39z" fill="#e9558f"/>
 <path d="m63.75 67.7c1.78-1.19 3.28 1.03 4.64 1.86 0.12 0.68 0.26 1.36 0.4 2.04 0.37 4.33 4.01 6.98 6.59 10.06 2.1 2.3 3.52 5.1 4.95 7.85 1.37-0.060005 2.74-0.12 4.11-0.17001 1.66 2.86 3.64 5.91 7.23 6.34l1.01 0.33c-1.97 1.53-4.22 2.63-6.63 3.25-1.72-1.15-3.61-2.04-5.56-2.74-2.67-2.94-6.01-5.14-8.99-7.73-0.38 0.019997-1.13 0.07-1.51 0.099998-2.02-4.46-6.53-6.53-9.93-9.69 1.14-0.039993 2.29-0.079994 3.43-0.12-0.66-2.89-1.23-5.81-1.84-8.71 0.65-0.91 1.02-2.17 2.1-2.67z" fill="#fb7bb0"/>
 <path d="m128.95 68.69c0.67-0.56 1.45-0.8 2.34-0.73 0.55 1.25 0.73001 2.56 0.56001 3.91-1.01-1.02-1.97-2.09-2.9-3.18z" fill="#f896bf"/>
 <path d="m98.25 80.73c2.63-3.1 5.54-6.46 5.41-10.79 1.82 0.38 3.8 0.63 5.01 2.22-2.47 2.5-2.92 6.66-6.39 8.14-1.35 0.16-2.69 0.28999-4.03 0.43z" fill="#ffb7de"/>
 <path d="m58.86 76.87c0.86-2.2 1.73-4.39 2.79-6.5 0.61 2.9 1.18 5.82 1.84 8.71-1.14 0.040001-2.29 0.080002-3.43 0.12-0.3-0.59-0.9-1.75-1.2-2.33z" fill="#dc6091"/>
 <path d="m116.63 78.68c3.34-1.69 3.35-5.98 5.92-8.37 0.85 0.32 2.56 0.97 3.42 1.3-0.84 0.9-1.68 1.79-2.52 2.69-0.009995 1.62-0.019997 3.24-0.039993 4.86-5.07 4.02-11.38 6.06-17.74 6.79-0.009995-0.85-0.019997-1.69-0.040001-2.54 3.57-1.8 7.39-3.03 11-4.73z" fill="#ff6ea8"/>
 <path d="m131.85 71.87c3.94 0.009995 8.07 0.009995 11.64 1.94-0.5 2.65 2.31 4.01 4.53 3.11 5.7 4.31 8.25 11.6 8.47 18.54 0.28999-0.32 0.86-0.96 1.14-1.28-0.059998 0.17-0.19 0.5-0.25 0.67-0.40001 1.17-0.65001 2.37-0.73001 3.61 3.07 1.15 5.89 2.93 7.99 5.48-1.98-0.18-4.09 0.21-5.99-0.51-1.26-0.98-2.23-2.27-3.27-3.47 0.15999-2.01 0.28999-4.02 0.26-6.04-0.38-0.29-1.14-0.89-1.52-1.18-0.14999-0.12-0.45-0.35-0.59-0.47 0.35001-0.12 1.06-0.35999 1.41-0.46999-1.73-1.89-3.2-4.32-5.72-5.22-1.94-0.77-3.54 0.98-5.09 1.85l-1.29 0.9c-0.42-1.95-0.81999-3.9-1.19-5.85-1.94 1.14-4.1 1.76-6.36 1.76 0.10001-0.57999 0.3-1.74 0.41-2.32 4.02-1.6 5.38-7.12 2.23-10.21-3.83 2.93-6.34 7.23-10.28 10.04-2.23 1.51-4.73 2.55-7.14 3.73-0.72-0.23-2.17-0.69-2.89-0.91 6.43-1.57 12.24-5.25 16.04-10.71l-0.58-0.94c-0.31-0.51-0.92-1.53-1.23-2.05z" fill="#f8a8d0"/>
 <path d="m128.55 73.18c1.51 0.23 3.02 0.46 4.53 0.74l0.58 0.94c-3.8 5.46-9.61 9.14-16.04 10.71-4.46 0.89-9.17 3.34-13.66 1.29 0.43-0.23 1.28-0.68 1.71-0.91 6.36-0.73 12.67-2.77 17.74-6.79 0.41-0.31 1.24-0.91 1.65-1.22 0.10001-1.26 0.21-2.53 0.32-3.79 0.78001 0.47 1.57 0.94 2.36 1.41 0.2-0.59 0.61001-1.78 0.81-2.38z" fill="#d34a7f"/>
 <path d="m127.65 82.75c3.94-2.81 6.45-7.11 10.28-10.04 3.15 3.09 1.79 8.61-2.23 10.21-1.43 0.96-2.83 1.96-4.21 2.98 1.01 1.66 3.53 4.05 1.26 5.81-2.49 1.08-5.23 1.79-7.1 3.91-3.95 0.28-8.11 1.18-11.87-0.57-2.75-1.71-5.31 1.64-8.2 0.57999-4.59-1-9.37-1.64-13.91 0.050003-0.66-1.7-1.38-3.38-2.14-5.04 1.12-0.38 2.26-0.69 3.41-0.96 4.71-0.65 8.52 4.3 13.27 2.59 4.83-1.75 9.79-3.28 14.3-5.79 2.41-1.18 4.91-2.22 7.14-3.73z" fill="#ffd8f3"/>
 <path d="m143.49 73.81c1.66 0.79 3.13 1.92 4.53 3.11-2.22 0.9-5.03-0.46-4.53-3.11z" fill="#fff"/>
 <path d="m46.66 86.76c1.22-4.08 5.51-5.62 8.97-7.33 4.19 2.77 9.26 4.49 12.22 8.82 2.74 2.52 1.57 7.21 4.51 9.46 2.75 0.2 5.43-0.8 8.13-1.19 1.95 0.7 3.84 1.59 5.56 2.74 0.68 0.48 1.35 0.96 2.02 1.45-0.77 0.18-2.33 0.53-3.1 0.71-0.48 3.15 1.6 5.56 3.53 7.74 2.97 1.3 5.63 3.15 8.34 4.9-0.73 0.3-1.44 0.62-2.14 0.96-2.17-1.07-4.29-2.27-6.55-3.15-3.2-1.06-7.14 0.35-9.78-2.25-1.74-1.54-3.99-2.17-6.15-2.87-2.12-1.05-4.39-1.72-6.68-2.24-2.51-4.31-8.17-5.25-10.38-9.84-1.75-0.42-3.87-0.18-5.19-1.61-1.73-1.71-2.32-4.16-3.31-6.3z" fill="#fbb5e0"/>
 <path d="m48.28 85.59c2.29-1.46 4.81-3.47 7.71-2.77 2.28 1.29 4.14 3.2 6.42 4.5 3.16 1.52 4.98 4.65 6.86 7.44 0.82 1.19-0.32999 2.72-1.32 3.4-2 0.25-4.03 0.14-6.04 0.13-1.61-1.77-3.02-3.74-4.9-5.23-2.3-1.12-4.9-1.56-7.1-2.91-1.58-0.97-1.31-2.99-1.63-4.56z" fill="#ffedfb"/>
 <path d="m131.49 85.9c1.38-1.02 2.78-2.02 4.21-2.98-0.11 0.58-0.31 1.74-0.41 2.32 2.26 0 4.42-0.62 6.36-1.76 0.37001 1.95 0.77 3.9 1.19 5.85-3.77 3.91-9.7 3.81-13.43 7.8-1.25-0.52-2.5-1.03-3.76-1.51 1.87-2.12 4.61-2.83 7.1-3.91 2.27-1.76-0.25-4.15-1.26-5.81z" fill="#fdc0e3"/>
 <path d="m40.77 85.99c1.95 0.24 3.9 0.6 5.84 0.91-0.27 2.62-1.58 4.64-4.07 5.61 1.74 4.75 4.52 9.06 8.87 11.79 0.67-0.29 1.34-0.55 2.03-0.78001 2.45 2.22 4.72 4.62 7.21 6.81 2.98 0.35 6.08 0.35 8.72-1.31 0.73 0.91 1.46 1.82 2.19 2.74-1.63 0.3-3.25 0.67-4.88 1.02-2.29-0.24-4.61-0.29-6.9-0.59-2.07-0.79-3.21-2.88-4.89-4.21-1.87-1.01-3.98-1.42-5.98-2.1l-0.16-0.49 1.03-0.61c-4.81-2.84-6.14-9.14-11.57-11.1-0.83 0.77-1.64 1.56-2.44 2.35 0.39-1.86 1.23-3.57 2.19-5.18 2.08-0.38 3.17-2.35 2.3-4.31l0.51-0.55z" fill="#f271a3"/>
 <path d="m144.13 88.43c1.55-0.87 3.15-2.62 5.09-1.85 2.52 0.9 3.99 3.33 5.72 5.22-0.35001 0.11-1.06 0.35-1.41 0.46999 0.14 0.12 0.44 0.35001 0.59 0.47-0.42 6.91-9.09 6.97-12.39 11.98 3.23 0.14 6.71 0.43 9.66-1.18 1.46-1.04 2.68-2.36 3.99-3.58 1.04 1.2 2.01 2.49 3.27 3.47 1.9 0.72 4.01 0.33 5.99 0.51 0.25 0.25 0.74 0.75 0.99 1-3.82 1.23-7.76-0.92001-11.54 0.41-1.32 0.6-2.22 1.81-3.29 2.76-2.54-0.099998-4.99 0.56-7.35 1.44-1.88-0.22-3.75-0.45-5.63-0.64 1.47-0.33 2.9-0.77 4.34-1.21-2.86-1.58-5.88-2.87-9.01-3.82l-0.77-0.23c-2.52-0.8-5.1-1.38-7.72-1.73 3.97-1.54 7.63-3.69 11.19-5.99 3.15-1.92 8.8-2.63 8.28-7.5z" fill="#fa79ab"/>
 <path d="m37.8 89.68c0.71-1.13 1.56-2.16 2.46-3.14 0.87 1.96-0.22 3.93-2.3 4.31-0.040001-0.3-0.12-0.88-0.16-1.17z" fill="#eba4c0"/>
 <path d="m46.61 86.9l0.05-0.14c0.99 2.14 1.58 4.59 3.31 6.3 1.32 1.43 3.44 1.19 5.19 1.61 2.21 4.59 7.87 5.53 10.38 9.84 2.29 0.52 4.56 1.19 6.68 2.24 1.64 1.56 3.16 3.24 4.71 4.89-1.79 0.020004-3.58 0.010002-5.37 0.12-0.73-0.92001-1.46-1.83-2.19-2.74-2.64 1.66-5.74 1.66-8.72 1.31-2.49-2.19-4.76-4.59-7.21-6.81-0.69 0.23-1.36 0.49-2.03 0.78001-4.35-2.73-7.13-7.04-8.87-11.79 2.49-0.97 3.8-2.99 4.07-5.61z" fill="#fd8abf"/>
 <path d="m37.65 88.55l0.15 1.13c0.040001 0.29 0.12 0.87 0.16 1.17-0.96 1.61-1.8 3.32-2.19 5.18-0.15 0.91-0.21 1.83-0.26 2.75 0.22 1.91-0.91 4.51 0.77 5.93 2.38 0.71 4.93 0.34 7.38 0.33-0.52-1.04-1.03-2.09-1.58-3.11 2.08 1.4 4.33 2.55 6.67 3.46l0.16 0.49c0.14 0.4 0.42 1.19 0.56 1.59 1.17 0.63 2.38 1.19 3.58 1.77-0.26 0.3-0.77 0.92001-1.03 1.22-5.04-2.63-11.19-4.16-16.74-2.28-0.89-0.84-1.76-1.69-2.61-2.55-0.18-5.85 1.49-12.23 4.98-17.08z" fill="#a45a71"/>
 <path d="m129.41 97.13c3.73-3.99 9.66-3.89 13.43-7.8l1.29-0.9c0.51999 4.87-5.13 5.58-8.28 7.5-3.56 2.3-7.22 4.45-11.19 5.99-1.84 0.81-3.65 1.79-5.64 2.16-2.03-0.43-3.94-1.28-5.86-2.03-1.14 1.12-2.26 2.24-3.37 3.38 3 1.31 6.3 0.68 9.45 0.41-3.29 1.03-6.76 1.11-10.14 0.55-3.48-0.76-7.06-0.67-10.56-1.22-3.64-1.04-7.37-2.2-10.47-4.46-0.67-0.49-1.34-0.97-2.02-1.45 2.41-0.62 4.66-1.72 6.63-3.25 4.65 1.55 9.66 0.93 14.37 2.16 2.25 0.62 4.09 2.39 6.49 2.51 4.89 0.76 9.18-2.77 14.07-2.19l1.8-1.36z" fill="#fa9ac1"/>
 <path d="m154.12 92.74c0.38 0.29 1.14 0.89 1.52 1.18 0.029999 2.02-0.10001 4.03-0.26 6.04-1.31 1.22-2.53 2.54-3.99 3.58-2.95 1.61-6.43 1.32-9.66 1.18 3.3-5.01 11.97-5.07 12.39-11.98z" fill="#c23972"/>
 <path d="m35.77 96.03c0.8-0.79 1.61-1.58 2.44-2.35 5.43 1.96 6.76 8.26 11.57 11.1l-1.03 0.61c-2.34-0.91-4.59-2.06-6.67-3.46-1.96-1.49-4.23-2.46-6.57-3.15 0.050003-0.92 0.11-1.84 0.26-2.75z" fill="#d15b82"/>
 <path d="m91.67 95.68c4.54-1.69 9.32-1.05 13.91-0.050003 2.89 1.06 5.45-2.29 8.2-0.57999 3.76 1.75 7.92 0.85 11.87 0.57 1.26 0.48 2.51 0.99 3.76 1.51l-1.8 1.36c-4.89-0.57999-9.18 2.95-14.07 2.19-2.4-0.12-4.24-1.89-6.49-2.51-4.71-1.23-9.72-0.61-14.37-2.16l-1.01-0.33z" fill="#f8b7d1"/>
 <path d="m156.65 98.46c0.080002-1.24 0.33-2.44 0.73001-3.61 0.22 0.72 0.64999 2.15 0.87 2.87 11.05 5.48 15.58 18.95 13.48 30.59l-0.47-0.87c0.070007-5.11 0.21001-10.36-1.86-15.15-0.47-0.97-0.98-1.92-1.53-2.84-0.78-0.53999-1.56-1.06-2.35-1.57l-0.22-1.2 0.81 0.31 0.34-0.68c-0.20999-0.34-0.62-1.02-0.81999-1.37-0.25-0.25-0.74-0.75-0.99-1-2.1-2.55-4.92-4.33-7.99-5.48z" fill="#653531"/>
 <path d="m94.05 98.21c4.72-0.7 9.08 1.33 13.55 2.46 1.09 0.27 1.59 1.44 2.37 2.15-3.12 1.42-6.65 0.81-9.97 0.84-2.99 0.07-6.15-2.23-5.95-5.45z" fill="#f07fb0"/>
 <path d="m35.51 98.78c2.34 0.69 4.61 1.66 6.57 3.15 0.55 1.02 1.06 2.07 1.58 3.11-2.45 0.010002-5 0.38-7.38-0.33-1.68-1.42-0.55-4.02-0.77-5.93z" fill="#ad3e5d"/>
 <path d="m84.97 101.42c0.77-0.18 2.33-0.53 3.1-0.71 3.1 2.26 6.83 3.42 10.47 4.46 3.5 0.55 7.08 0.46 10.56 1.22-0.29 1.45-0.57 2.89-0.85 4.34 4.34 0.26 8.68 0.57999 13.03 0.53-7.89 2.84-16.98-1.69-24.44 2.8-2.71-1.75-5.37-3.6-8.34-4.9-1.93-2.18-4.01-4.59-3.53-7.74z" fill="#fdddf7"/>
 <path d="m109.79 105.43c1.11-1.14 2.23-2.26 3.37-3.38 1.92 0.75 3.83 1.6 5.86 2.03 1.99-0.37 3.8-1.35 5.64-2.16 2.62 0.35 5.2 0.93 7.72 1.73-4.26 1.39-8.73 1.67-13.14 2.19-3.15 0.27-6.45 0.9-9.45-0.41z" fill="#e67ea5"/>
 <path d="m119.24 105.84c4.41-0.52 8.88-0.8 13.14-2.19l0.77 0.23c0.14 0.52 0.40001 1.56 0.53 2.08-3.98 2.1-8.15 3.83-12.4 5.3-4.35 0.049995-8.69-0.27-13.03-0.53 0.28-1.45 0.56-2.89 0.85-4.34 3.38 0.56 6.85 0.48 10.14-0.55z" fill="#ffeffd"/>
 <path d="m133.15 103.88c3.13 0.95 6.15 2.24 9.01 3.82-1.44 0.44-2.87 0.88-4.34 1.21-0.24 0.009995-0.73001 0.049995-0.97 0.07-4.62 0.69-9.55 1.16-13.6 3.68-0.96 0.82999-1.87 1.71-2.77 2.59-0.88-0.46-1.76-0.92-2.64-1.39-0.91 0.24-1.82 0.48-2.72 0.72-5.88-2.03-12.24-1.2-18.28-0.52 7.46-4.49 16.55 0.040001 24.44-2.8 4.25-1.47 8.42-3.2 12.4-5.3-0.12999-0.52-0.39-1.56-0.53-2.08z" fill="#f4a5c6"/>
 <path d="m150.8 108.11c1.07-0.95 1.97-2.16 3.29-2.76 3.78-1.33 7.72 0.82 11.54-0.41-0.080002 0.44-0.25 1.3-0.33 1.74l0.22 1.2c-1.94-0.16-3.88-0.26-5.82-0.25-0.17-0.27-0.52-0.81-0.7-1.07-2.65 0.71-4.93 2.21-7.26 3.57-2.7 1.17-5.64 0.23-8.29-0.57999 2.36-0.88 4.81-1.54 7.35-1.44z" fill="#bd6181"/>
 <path d="m165.63 104.94c0.2 0.35 0.61 1.03 0.81999 1.37l-0.34 0.68-0.81-0.31c0.080002-0.44 0.25-1.3 0.33-1.74z" fill="#ffedfb"/>
 <path d="m27.24 109.93c1.53-1.76 3.57-2.95 5.43-4.3 0.85 0.86 1.72 1.71 2.61 2.55-1.33 0.010002-2.66 0.019997-3.98 0.029999-3.91 3.16-6.48 7.68-7.73 12.5-1.2 4.26-0.45 8.74-1.29 13.05-1.92-8.23 0.059999-17.03 4.96-23.83z" fill="#653531"/>
 <path d="m48.91 105.88c2 0.68 4.11 1.09 5.98 2.1 1.68 1.33 2.82 3.42 4.89 4.21 2.29 0.3 4.61 0.35 6.9 0.59-1.62 0.84-3.2 1.8-4.94 2.41-3.11 0.28-5.26-2.36-7.45-4.14l-0.45 0.81c-0.59-0.48-1.2-0.95-1.82-1.4 0.26-0.3 0.77-0.92 1.03-1.22-1.2-0.57999-2.41-1.14-3.58-1.77-0.14-0.4-0.42-1.19-0.56-1.59z" fill="#bd597e"/>
 <path d="m72.22 106.75c2.16 0.7 4.41 1.33 6.15 2.87 2.64 2.6 6.58 1.19 9.78 2.25 2.26 0.88 4.38 2.08 6.55 3.15-0.87 0.49-1.72 0.99-2.58 1.5-2.09-1.27-4.62-2.39-6.96-0.96999-2.18-1.41-4.68-2.16-7.16-2.87-0.27-0.26-0.8-0.78-1.07-1.04-1.55-1.65-3.07-3.33-4.71-4.89z" fill="#e790ae"/>
 <path d="m151.74 110.13c2.33-1.36 4.61-2.86 7.26-3.57 0.17999 0.26 0.53 0.8 0.7 1.07-2.49 0.16-4.61 1.55-6.45 3.13-1.58 1.8-3.71 2.71-5.94 1.33-0.77-0.3-1.53-0.26-2.28 0.14001l0.79-1.08c-3.3-0.78-6.61-1.63-10.02-1.64l1.05-0.53c0.23999-0.020004 0.73-0.060005 0.97-0.07 1.88 0.19 3.75 0.42 5.63 0.64 2.65 0.81 5.59 1.75 8.29 0.57999z" fill="#76373a"/>
 <path d="m123.25 112.66c4.05-2.52 8.98-2.99 13.6-3.68l-1.05 0.53c-4.05 2.11-8.34 4.13-11.22 7.82-0.099998-1.64-0.25-3.35-1.33-4.67z" fill="#d586a3"/>
 <path d="m54.29 111.05c2.19 1.78 4.34 4.42 7.45 4.14 1.74-0.61 3.32-1.57 4.94-2.41 1.63-0.35 3.25-0.72 4.88-1.02 1.79-0.11 3.58-0.099998 5.37-0.12 0.27 0.26 0.8 0.78 1.07 1.04-6.03-0.75-12.23 0.75-16.95 4.65-0.72 0.17-1.43 0.35-2.15 0.53-1.46-2.17-3.04-4.3-5.06-6l0.45-0.81z" fill="#653531"/>
 <path d="m27.9 118.03c0.99-1.73 1.97-3.48 3.09-5.13 1.83 2.89 1.65 6.24 0.87 9.43-0.51-0.44-1.53-1.34-2.04-1.79-0.67-0.82-1.29-1.67-1.92-2.51z" fill="#ecd1d3"/>
 <path d="m96.84 114.06c6.04-0.68 12.4-1.51 18.28 0.52 0.89999-0.24 1.81-0.48 2.72-0.72 0.88 0.47 1.76 0.93 2.64 1.39 0.89999-0.88 1.81-1.76 2.77-2.59 1.08 1.32 1.23 3.03 1.33 4.67l-0.64 1.31-0.29 0.04c-3.38 0.23-5.7-2.75-8.95-3.05-5.95-1.74-12.53-0.71-17.38 3.23-2.68-0.11-5.77-1.44-8.05 0.64-1.32-1.36-2.7-2.67-4.11-3.95 2.34-1.42 4.87-0.3 6.96 0.96999 0.86-0.51 1.71-1.01 2.58-1.5 0.7-0.34 1.41-0.66 2.14-0.96z" fill="#ca7e98"/>
 <path d="m114.7 115.63c3.25 0.3 5.57 3.28 8.95 3.05-0.94 0.92-1.98 1.73-3.08 2.45-1.52-2.26-3.56-4.08-5.87-5.5z" fill="#76373a"/>
 <path d="m89.27 119.5c2.28-2.08 5.37-0.75 8.05-0.64-1.63 1.28-3.15 2.7-4.71 4.08-1.13-1.14-2.24-2.29-3.34-3.44z" fill="#80413f"/>
 <g fill="#653531">
  <path d="m170.61 130.67c0.24-0.26 0.73-0.78999 0.97-1.05-0.56 4.51-2 8.93-4.44 12.78 0.39999 0.27 1.2 0.81001 1.61 1.08-5.7 2.26-9.56 8.23-16.15 8.38-1.88 1.53-4.24 1.84-6.58 1.88-3.49 0.059998-6.65 2.25-10.17 1.71-0.34001-0.28999-1.03-0.87-1.37-1.16-0.53999-0.45-1.61-1.33-2.14-1.77 2.75-1.33 5.85-0.57001 8.77-0.99 3.81-0.56 7.49-1.76 11.2-2.75 0.47-0.089996 1.39-0.28999 1.85-0.39-0.88 0.029999-2.66 0.089996-3.55 0.12-0.050003-0.56999-0.089996-1.14-0.13-1.7 2 1.86 4.2 0.020004 6.15-0.64999 3-1.44 5.94-3.04 9.09-4.13 2.45-3.4 3.54-7.46 4.89-11.36z"/>
  <path d="m22.56 133.76c2.06-0.31999 2.07 2.47 0.94 3.52-1.17-0.94-1.49-2.12-0.94-3.52z"/>
 </g>
 <path d="m23.55 139.37c0.32-0.25 0.97-0.73999 1.29-0.98l0.34 0.65c-0.29 0.27-0.87 0.81001-1.16 1.08l-0.47-0.75z" fill="#4e3b3d"/>
 <path d="m24.66 140.55c1.29 0.62 3.26 2.48 1.73 3.82-1.23-0.7-2.11-2.43-1.73-3.82z" fill="#653531"/>
 <path d="m152.6 151.86c6.59-0.14999 10.45-6.12 16.15-8.38 0.33 0.44 0.99 1.31 1.32 1.75 0 1.58-0.020004 3.16-0.040009 4.74-0.39999 0.069992-1.19 0.19-1.59 0.25-0.47 0.42-1.42 1.25-1.9 1.66-0.39999-0.040009-1.2-0.12001-1.6-0.16 0.12-0.5 0.37-1.48 0.48999-1.97-1.79 0.39-3.57 0.78999-5.36 1.2-0.46001 1.34-0.93001 2.68-1.39 4.02-3.16 0.41-6.01 1.84-8.52 3.75-1.7 0.059998-3.39 0.31999-5 0.87-1.61 0.52-3.24 0.99-4.9 1.31l0.06-0.12c-0.090012 0.040009-0.26001 0.13-0.34001 0.18001l-0.57 0.2c-0.32001-0.040009-0.95-0.13-1.27-0.18001-0.67-0.39999-2-1.2-2.66-1.6-0.11-0.070007-0.31999-0.21001-0.42999-0.28 0.23999-1.23 0.51-2.44 0.8-3.65 3.52 0.54001 6.68-1.65 10.17-1.71 2.34-0.040009 4.7-0.35001 6.58-1.88z" fill="#994f4b"/>
 <path d="m27.08 145.4c2.81 0.90001 4.87 3.3 7.81 3.99-1.74 0.62-3.51 0.58-5.23-0.020004-0.33 1.05-0.65 2.1-0.99 3.15-0.5-1.84-0.66-3.75-0.97-5.62-0.040001-0.14-0.13-0.40999-0.17-0.53999l-0.45-0.96z" fill="#73352a"/>
 <path d="m27.53 146.36c0.039999 0.13 0.13 0.39999 0.17 0.53999l-0.2-0.03 0.03-0.51z" fill="#beada9"/>
 <path d="m27.5 146.87l0.2 0.03c0.31 1.87 0.47 3.78 0.97 5.62l0.21 0.37-0.88 2.16c-2.08-2.27-0.54-5.51-0.5-8.18z" fill="#994f4b"/>
 <path d="m29.66 149.37c1.72 0.60001 3.49 0.64 5.23 0.020004 2.95 0.43001 5.74 1.55 8.55 2.49 0.27 0.45 0.82 1.33 1.09 1.77 5.76-0.039993 11.49 1.79 17.21 0.72 1.2 0.49 2.39 0.96001 3.58 1.48-0.14 0.56-0.41 1.67-0.54 2.22-3.79 1.15-7.1-1.83-10.82-1.8-3.45-0.10001-6.9 0.22-10.29 0.8 1.28 1.74 3.42 1.85 5.4 1.86-1.86 0.67001-4.32 1.85-5.88-0.049988-3.36-3.66-7.27-7-12.14-8.41-0.029999 0.53999-0.09 1.62-0.12 2.16 2.46 0.039993 4.39 1.54 6.2 3.04-2.18-0.25-4.36-0.3-6.54-0.080002-0.58-0.89999-1.15-1.8-1.71-2.7l-0.21-0.37c0.34-1.05 0.66-2.1 0.99-3.15z" fill="#80413f"/>
 <path d="m43.44 151.88c7.14 1.79 13.86-1.65 20.6-3.35 0.45 0.18001 1.35 0.52 1.8 0.7 1.66 1.22 3.23 2.57 4.74 3.98l-0.11 0.12c-1.6 0.81-3.23 1.56-4.85 2.36-0.07 0.039993-0.23 0.12-0.3 0.16-1.19-0.52-2.38-0.99-3.58-1.48-5.72 1.07-11.45-0.76-17.21-0.72-0.27-0.43999-0.82-1.32-1.09-1.77z" fill="#76373a"/>
 <path d="m160.07 150.95c1.79-0.41 3.57-0.81 5.36-1.2-0.12 0.49-0.37 1.47-0.48999 1.97-1.97 1.27-3.92 2.74-6.26 3.25 0.46001-1.34 0.93001-2.68 1.39-4.02z" fill="#6b412f"/>
 <path d="m31.05 150.47c4.87 1.41 8.78 4.75 12.14 8.41 1.56 1.9 4.02 0.72 5.88 0.049988 2.41-0.81 4.86-0.51 6.65 1.39 2.06 0.21999 4.06 0.76 5.95 1.6-0.86 0.84-1.73 1.69-2.59 2.54-3.06-1.99-6.37-5.74-10.31-3.35-1.73 0.56999-3.52 0.96001-5.35 1.03-2.47-1.46-4.87-3.04-7.47-4.25-0.25-0.11-0.75-0.33-0.99-0.44-0.5 0.23-1.49 0.7-1.99 0.93001-1.48 0-2.96-0.12001-4.43-0.34001 2.69 4.83 3.81 10.32 6.15 15.31 2.4 5.28 3.49 11 5.38 16.45 0.71 1.99 1.33 4.02 1.77 6.09 0.92 6.18 3.66 11.83 5.55 17.73 0.58 1.41 0.48 2.92 0 4.35-0.53-1.73-1.05-3.45-1.64-5.16-0.77-2.29-1.57-4.57-2.26-6.88-3.2-10.59-5.75-21.37-9.8-31.68-2.17-5.5-4.15-11.08-6.36-16.57 0.17-0.65999 0.5-1.97 0.67-2.63 0.22-0.54001 0.66-1.62 0.88-2.16 0.56 0.89999 1.13 1.8 1.71 2.7 2.18-0.22 4.36-0.17 6.54 0.080002-1.81-1.5-3.74-3-6.2-3.04 0.029999-0.54001 0.09-1.62 0.12-2.16z" fill="#73352a"/>
 <path d="m121.34 151.68c3.62-2.25 7.57-1.1 11 0.84001 0.53 0.44 1.6 1.32 2.14 1.77-0.37 0.74-1.11 2.22-1.47 2.96-3.76-0.2-7.34 1.21-11.08 1.14-3.91-0.089996-7.75 2.01-11.52 0.17-3.47 0.27-6.98 0.51001-10.34-0.58-1.74-0.65999-3.47 0.18001-5.14 0.64-5.39-2.19-11.31-1.21-16.96-1.24 1.31 0.28999 2.62 0.56999 3.93 0.86l-2.37 2.16c-2.59-0.51-5.24-0.56-7.87-0.68999-1.25-0.84001-2.49-1.69-3.73-2.55-0.43 0.14999-1.3 0.44-1.73 0.59l-1.42 0.32c0.13-0.55 0.4-1.66 0.54-2.22l0.3-0.16c1.62-0.8 3.25-1.55 4.85-2.36l0.3 0.07c2.86 0.88 5.77 1.62 8.76 1.89 5.02 0.51001 9.99-0.67999 14.55-2.73 8.44 4.59 19.07 4 27.26-0.88z" fill="#743b38"/>
 <path d="m158.68 154.97c2.34-0.51 4.29-1.98 6.26-3.25 0.39999 0.039993 1.2 0.12 1.6 0.16 1.86 0.36 3.63 0.059998 5.31-0.92-3.02 8.42-6.65 16.59-10.67 24.57-0.069992-4.78 3.3-8.49 4.49-12.94 0.74-2.82 2.31-5.65 1.66-8.65-0.86 1.1-1.68 2.23-2.45 3.38-4.02-0.24-7.87 0.98999-11.52 2.55-0.8-0.28999-2.4-0.87-3.2-1.15 2.51-1.91 5.36-3.34 8.52-3.75z" fill="#ffedcc"/>
 <path d="m70.58 153.21c0.049995 0.049988 0.14 0.14 0.19 0.18999l-0.3-0.07 0.11-0.12z" fill="#c27b75"/>
 <path d="m65.32 155.85c0.07-0.040009 0.23-0.12001 0.3-0.16l-0.3 0.16z" fill="#80413f"/>
 <path d="m134.48 154.29c0.34001 0.29001 1.03 0.87001 1.37 1.16-0.29001 1.21-0.56001 2.42-0.8 3.65-5.21 0.62-10.51 1.66-15.21 4.09-2.58-0.95-5.27-1.55-8.01-1.87-0.080002 0.31-0.24 0.92-0.33 1.23l0.64 0.52c-0.53 0.2-1.57 0.59999-2.1 0.79999-0.69-1.39-1.28-1.29-1.79 0.29001-0.98 0.55-1.95 1.09-2.93 1.64-1.95-1.07-3.93-2.07-5.95-3.01l-0.15 1.27c-0.3 0.17-0.89 0.51001-1.18 0.68001-0.12-0.070007-0.35-0.20001-0.47-0.27l0.05 0.49c-0.26 0.14-0.77 0.42-1.03 0.56-1.47-0.35001-2.93-0.81-4.43-1.03-2.42-0.75-6.02 0.23-7.21-2.55 3.7-0.52 7.36 0.17 11.03 0.56 4.49-0.24 8.93-1.05 13.35-1.88 0.27-0.51 0.81-1.55 1.08-2.06 3.77 1.84 7.61-0.26 11.52-0.17 3.74 0.070007 7.32-1.34 11.08-1.14 0.36-0.74 1.1-2.22 1.47-2.96z" fill="#ca7c77"/>
 <path d="m164.88 157.32c0.76999-1.15 1.59-2.28 2.45-3.38 0.64999 3-0.92 5.83-1.66 8.65-1.19 4.45-4.56 8.16-4.49 12.94-0.62999 1.39-1.33 2.74-2.09 4.06-0.099991 0.070007-0.3 0.23001-0.39999 0.3l0.24 0.01c-2.34 4.67-5 9.19-6.96 14.05-0.96001 2.2-1.63 4.58-3.14 6.5-0.050003 0.11-0.17 0.31-0.23 0.41-0.070007 0.31999-0.21001 0.96001-0.28 1.28-2.21 0.11-3.09 2.42-1.65 4.04-0.17 0.37001-0.5 1.1-0.67 1.47-1.39-1.48-1.87-3.5-0.66-5.25 5.22-10.44 9.54-21.3 13.81-32.16 2.16-4.19 4.39-8.36 5.73-12.92z" fill="#ec9b85"/>
 <path d="m43.67 157.07c3.39-0.58 6.84-0.90001 10.29-0.8 3.72-0.029999 7.03 2.95 10.82 1.8l1.42-0.32c-1.55 1.34-3.04 2.76-4.53 4.17-1.89-0.84-3.89-1.38-5.95-1.6-1.79-1.9-4.24-2.2-6.65-1.39-1.98-0.009995-4.12-0.12-5.4-1.86z" fill="#c86d6d"/>
 <path d="m32.97 158.38c0.5-0.23001 1.49-0.70001 1.99-0.93001 0.24 0.11 0.74 0.33 0.99 0.44l-1.51-0.07c2.8 6.34 3.82 13.34 7.19 19.43 1.12 2.86 1.32 6.06 2.95 8.74-0.92 0.42-1.84 0.86-2.75 1.31-2.29-3.93-4.4-8.1-4.76-12.71-1.55-5.26-4.76-9.87-5.95-15.27 0.46-0.23001 1.39-0.70001 1.85-0.94z" fill="#e0ab7f"/>
 <path d="m77.97 157.38c5.65 0.029999 11.57-0.95001 16.96 1.24 1.67-0.45999 3.4-1.3 5.14-0.64 3.36 1.09 6.87 0.85001 10.34 0.58-0.27 0.51001-0.81 1.55-1.08 2.06-4.42 0.83-8.86 1.64-13.35 1.88-3.67-0.39-7.33-1.08-11.03-0.56-0.63 0.009995-1.25 0-1.88-0.029999-1.18-0.51001-2.36-1.01-3.54-1.51l2.37-2.16c-1.31-0.29001-2.62-0.57001-3.93-0.86z" fill="#85383b"/>
 <path d="m153.36 159.87c3.65-1.56 7.5-2.79 11.52-2.55-1.34 4.56-3.57 8.73-5.73 12.92-4.27 10.86-8.59 21.72-13.81 32.16-1.21 1.75-0.73 3.77 0.66 5.25-1.42 3.24-2.75 6.51-4.17 9.74-0.42-0.38-1.26-1.14-1.68-1.51-0.42-0.38-1.26-1.15-1.68-1.53 0.10001-0.51001 0.2-1.03 0.31-1.54 2.1-5.86 6.01-11 7.25-17.16 0.82001-3.77 2.26-7.37 3.42-11.05 0.91-2.95 3.02-5.38 3.64-8.45 4.92-2.19 5.57-8.37 6.03-13.1-0.37 0.37999-1.12 1.14-1.5 1.52-0.48999-1.43-0.97-2.87-1.43-4.31-2.61 3.98-4.11 8.52-5.97 12.86-0.55 1.57-1.87 2.61-3.14 3.59-0.65001-2.6-1.35-5.19-2-7.79-0.38-0.17-1.13-0.51-1.51-0.67999-0.13 0.34-0.39002 1-0.52 1.33-3.4 7.01-5.14 14.66-6.43 22.3-1.84 1.83-2.86 4.28-4.36 6.37-0.28-3.59 0.070007-7.26-1-10.75-2.58 3.74-5.16 7.76-5.46 12.42-0.95 6.81-5.46 13.22-3.15 20.24-0.85-1.07-1.73-2.12-2.6-3.17 0.11 2.59 0.3 5.18 0.59 7.76-1.77 3.64-3.04 7.61-3.06 11.7-1.91 0.37-3.85 0.53-5.79 0.61 0.53-1.11 1.06-2.21 1.61-3.3 2.88-3.52 1.22-8.41 3.1-12.33 1.62-3.69 1.59-7.85 3.3-11.51-0.2-0.83-0.39-1.65-0.59-2.47 0.85 0.17999 1.7 0.36 2.55 0.53999-0.63-1.57-1.26-3.14-1.88-4.71-1.53 0.059998-3.05 0.12-4.57 0.17999 0.68 5.5-1.91 10.67-2.27 16.1-1.09 5.26-3.45 10.2-4 15.58-1.31-0.21001-2.61-0.40001-3.91-0.60001 0.59-0.17999 1.77-0.53999 2.36-0.73-2.03-3.63 0.29-7.36 1.29-10.91 1.48-3.86 0.25-8.03 1.23-11.97 2.18-0.059998 2.56-1.59 1.25-3.24-0.43-3.23-0.49-6.5-0.39-9.75-0.31-2.86 3.67-3.36 4-6.01 0.18-4.03-2.16-8.67 0.88-12.15 0.38 1.25 0.79 2.5 1.22 3.75 3.65-1.03 2.69-5.33 4.73-7.77 1.69-2.31 2.64-5.11 4.41-7.33 1.21-0.24 2.45-0.27 3.68-0.34999 0.73001 0.64999 1.46 1.29 2.19 1.94 1.03-1.75 2.28-3.36 3.9-4.6-0.61-0.37001-1.22-0.73001-1.83-1.09 1.83-0.98001 3.59-2.07 5.36-3.16l0.57-0.2c-0.23 2.66-1.54 6.28 1.47 7.9 1.76-2.85 3.35-5.88 3.71-9.27 1.61-0.55 3.3-0.81 5-0.87 0.8 0.28 2.4 0.86 3.2 1.15z" fill="#fbcda4"/>
 <path d="m28.54 158.04c1.47 0.22 2.95 0.34001 4.43 0.34001-0.46 0.23999-1.39 0.70999-1.85 0.94 1.19 5.4 4.4 10.01 5.95 15.27 0.36 4.61 2.47 8.78 4.76 12.71-0.61 0.81-1.18 1.66-1.76 2.5-1.89-5.45-2.98-11.17-5.38-16.45-2.34-4.99-3.46-10.48-6.15-15.31z" fill="#ffedcc"/>
 <path d="m34.44 157.82l1.51 0.07c2.6 1.21 5 2.79 7.47 4.25 2.51 3.54 1.74 8.23 3.32 12.16 1.82 4.63 1.8 10.04-0.26 14.54-0.67-0.92999-1.31-1.88-1.9-2.85-1.63-2.68-1.83-5.88-2.95-8.74-3.37-6.09-4.39-13.09-7.19-19.43z" fill="#fbe4bb"/>
 <path d="m66.2 157.75c0.43-0.14999 1.3-0.44 1.73-0.59 1.24 0.86 2.48 1.71 3.73 2.55 0.049995 0.62 0.16 1.85 0.21 2.47-3.04-0.14-6.06 0.39002-9.02 1.07 0.32 0.27 0.96 0.82001 1.28 1.09-0.92 0.32001-1.83 0.64-2.74 0.97-0.58-0.20999-1.73-0.64-2.31-0.84999 0.86-0.85001 1.73-1.7 2.59-2.54 1.49-1.41 2.98-2.83 4.53-4.17z" fill="#c27b75"/>
 <path d="m119.84 163.19c4.7-2.43 10-3.47 15.21-4.09 0.11 0.069992 0.31999 0.20999 0.42999 0.28 0.66 0.39999 1.99 1.2 2.66 1.6-3.85-1.4-7.55-0.12999-10.88 1.83-3.25-0.91-6 1.16-8.76 2.51-0.71-0.65001-1.42-1.3-2.14-1.94-1.33-0.65001-2.81-0.38-4.22-0.31l-0.64-0.52c0.089996-0.31 0.25-0.92 0.33-1.23 2.74 0.31999 5.43 0.92 8.01 1.87z" fill="#653531"/>
 <path d="m135.05 159.1c0.11 0.069992 0.31999 0.20999 0.42999 0.28-0.11-0.070007-0.31999-0.21001-0.42999-0.28z" fill="#ca7c77"/>
 <path d="m48.77 161.11c3.94-2.39 7.25 1.36 10.31 3.35 0.58 0.20999 1.73 0.64 2.31 0.84999-0.5 1.85-1.09 3.67-1.78 5.46 2.26 4.94 1.76 10.52-0.41 15.4-1.05-3.47-2.01-6.98-2.87-10.5-0.69-4.63-1.81-9.18-3.25-13.63-1.44-0.31-2.87-0.62-4.31-0.92999z" fill="#fbf3cd"/>
 <path d="m71.66 159.71c2.63 0.12999 5.28 0.17999 7.87 0.68999 1.18 0.5 2.36 1 3.54 1.51-0.66 0.48-2 1.45-2.67 1.93 0.28 0.12001 0.82 0.38 1.09 0.5l-1 0.1c-3.08 0.45999-5.94-0.96001-8.62-2.26-0.050003-0.62-0.16-1.85-0.21-2.47z" fill="#c1665f"/>
 <path d="m139.98 160.96c0.080002-0.050003 0.25-0.14 0.34001-0.18001l-0.06 0.12-0.28 0.06z" fill="#fbcda4"/>
 <path d="m140.26 160.9c1.66-0.31999 3.29-0.78999 4.9-1.31-0.36 3.39-1.95 6.42-3.71 9.27-3.01-1.62-1.7-5.24-1.47-7.9l0.28-0.06z" fill="#fbefdb"/>
 <path d="m43.42 162.14c1.83-0.069992 3.62-0.46001 5.35-1.03 1.44 0.31 2.87 0.62 4.31 0.92999 1.44 4.45 2.56 9 3.25 13.63-0.040001 3.87-0.3 7.75-0.41 11.62-1.41-8.21-3.84-16.16-5.5-24.31-1.48-0.099991-2.97-0.2-4.45-0.28999 0.49 3.13 1.09 6.24 1.77 9.33 0.78 0.34 1.56 0.67999 2.35 1.02 0.92 3.51 2.03 7.01 2.23 10.65 0.4-0.050003 1.19-0.16 1.59-0.21001-2.21 8.01 0.64 16.13 3.93 23.4 0.27 2.03 0.58 4.06 0.88 6.1-1.1-2.46-2.18-4.92-3.14-7.43-2.53-5.89-3.46-12.53-7.25-17.82-0.18 5.05 0.99 9.99 1.69 14.96 0.17 2.07 0.02 4.29 1.23 6.1 2.17 3.6 3.18 7.7 4.48 11.65-0.31 0.20999-0.93 0.64-1.24 0.84999-4.58-8.27-6.26-17.78-11.15-25.9-0.38 0.12-1.12 0.38-1.5 0.5-0.44-2.07-1.06-4.1-1.77-6.09 0.58-0.84 1.15-1.69 1.76-2.5 0.91-0.45 1.83-0.89 2.75-1.31 0.59 0.97 1.23 1.92 1.9 2.85 2.06-4.5 2.08-9.91 0.26-14.54-1.58-3.93-0.81-8.62-3.32-12.16z" fill="#fec69b"/>
 <path d="m127.26 162.81c3.33-1.96 7.03-3.23 10.88-1.83 0.32001 0.050003 0.95 0.14 1.27 0.18001-1.77 1.09-3.53 2.18-5.36 3.16-1.8 0.93999-3.85 0.95999-5.81 1.23-2.16 0.39-3.67 3-6.07 2.34-1.46-0.46001-2.52-1.63-3.67-2.57 2.76-1.35 5.51-3.42 8.76-2.51z" fill="#f8efd2"/>
 <path d="m150.22 173.12c1.86-4.34 3.36-8.88 5.97-12.86 0.45999 1.44 0.94 2.88 1.43 4.31 0.38-0.38 1.13-1.14 1.5-1.52-0.45999 4.73-1.11 10.91-6.03 13.1-0.62 3.07-2.73 5.5-3.64 8.45-1.16 3.68-2.6 7.28-3.42 11.05-0.51 0.44-1.53 1.33-2.04 1.77-0.92-2.2-0.040009-4.17 1.47-5.78l-1.14-2.64c1.18-2.01 2.71-3.92 3.27-6.23 0.18001-2.03-0.17-4.07-0.51-6.06 1.27-0.98001 2.59-2.02 3.14-3.59z" fill="#f7bb8d"/>
 <path d="m62.85 163.25c2.96-0.67999 5.98-1.21 9.02-1.07 2.68 1.3 5.54 2.72 8.62 2.26l1-0.1c1.1-0.039993 2.24-0.23 3.29 0.19-1.48 0.36-2.93 0.87-4.37 1.36-1.16 0.36-2.35 0.58-3.54 0.75-2.23-1-4.27-2.35-6.19-3.84-2.21 0.37999-4.4 0.92-6.55 1.54-0.32-0.26999-0.96-0.81999-1.28-1.09z" fill="#653531"/>
 <path d="m83.07 161.91c0.63 0.029999 1.25 0.039993 1.88 0.029999 1.19 2.78 4.79 1.8 7.21 2.55-1.52 0.34999-3.03 0.72-4.54 1.11-0.71-0.27-2.13-0.81001-2.84-1.07-1.05-0.42-2.19-0.23-3.29-0.19-0.27-0.12-0.81-0.37999-1.09-0.5 0.67-0.48 2.01-1.45 2.67-1.93z" fill="#994f4b"/>
 <path d="m45.97 162.69c1.48 0.089996 2.97 0.19 4.45 0.28999 1.66 8.15 4.09 16.1 5.5 24.31 0.42 2.16 0.81 4.32 1.12 6.49 0.29 1.98 0.6 3.97 1.06 5.92 0.33 2.39 0.18 4.81-0.26 7.18-3.29-7.27-6.14-15.39-3.93-23.4-0.4 0.050003-1.19 0.16-1.59 0.21001-0.2-3.64-1.31-7.14-2.23-10.65-0.79-0.34-1.57-0.67999-2.35-1.02-0.68-3.09-1.28-6.2-1.77-9.33z" fill="#f0a375"/>
 <path d="m64.13 164.34c2.15-0.62 4.34-1.16 6.55-1.54 1.92 1.49 3.96 2.84 6.19 3.84-0.15 4.83 0.29 9.66-0.060005 14.49-2.44-3.42-2.35-7.84-4.55-11.35-0.67001 4.04 0.95 8.02 0.42 12.07-0.31 2.79-1.03 5.51-1.73 8.22-0.7-1.09-1.4-2.19-2.06-3.31-0.46-6.34 0.26-12.79-1.17-19.04-1.41-0.49-2.81-0.99-4.21-1.49-0.56 1.56-1.64 3.04-1.58 4.75 1.55 11.11 0.32 22.79 4.95 33.31 0.54 3.21 0.73 6.46 0.85001 9.71 0.13 2.24 0.59 4.45 1.22 6.6-0.96999-1.33-1.92-1.69-2.61 0.12999 0.050003-6.66-2-13.04-4.41-19.17 0.28-3.43-2.9-5.47-4.89-7.78-0.31-2.17-0.7-4.33-1.12-6.49 0.11-3.87 0.37-7.75 0.41-11.62 0.86 3.52 1.82 7.03 2.87 10.5 2.17-4.88 2.67-10.46 0.41-15.4 0.69-1.79 1.28-3.61 1.78-5.46 0.91-0.33 1.82-0.64999 2.74-0.97z" fill="#fdd8ac"/>
 <path d="m99.37 162.79c2.02 0.94 4 1.94 5.95 3.01-0.65 0.099991-1.95 0.3-2.6 0.39-1.2-0.65001-2.37-1.36-3.5-2.13l0.15-1.27z" fill="#926152"/>
 <path d="m108.25 164.16c0.51-1.58 1.1-1.68 1.79-0.29001-0.44 0.070007-1.34 0.22-1.79 0.29001z" fill="#6a4634"/>
 <path d="m112.14 163.07c1.41-0.070007 2.89-0.34001 4.22 0.31-1.1 0.7-2.22 1.39-3.29 2.14-1.77 4.57-2.96 9.53-6.22 13.33-0.32-4.37-0.42-8.78-1.53-13.05 0.98-0.55 1.95-1.09 2.93-1.64 0.45-0.070007 1.35-0.22 1.79-0.29001 0.53-0.2 1.57-0.59999 2.1-0.79999z" fill="#fbecc4"/>
 <path d="m97.57 164.47c0.12 0.069992 0.35 0.2 0.47 0.27l-0.42 0.22-0.05-0.49z" fill="#63382f"/>
 <path d="m99.22 164.06c1.13 0.77 2.3 1.48 3.5 2.13-1.5 3.86-2.36 7.92-2.9 12.01-0.7-2.98-2.48-5.47-4.49-7.71-0.49-1.13-0.98-2.26-1.47-3.38-0.88 1.54-1.71 3.1-2.46 4.71-0.090004-1.49-0.21-2.97-0.35-4.45-1.16 1.35-1.91 2.98-2.36 4.7-0.67001 0.21999-1.34 0.43999-2.01 0.65999-0.57-1.51-1.14-3.01-1.7-4.51-0.85001 0.45999-1.69 0.91-2.54 1.37-0.68-1.23-1.35-2.47-2.03-3.7 1.44-0.49 2.89-1 4.37-1.36 0.71 0.26 2.13 0.8 2.84 1.07 1.46 0.57999 2.93 1.17 4.39 1.76 1.54-0.58 3.08-1.18 4.58-1.84 0.26-0.14 0.77-0.42 1.03-0.56l0.42-0.22c0.29-0.17 0.88-0.51001 1.18-0.68001z" fill="#fff5d6"/>
 <path d="m113.07 165.52c1.07-0.75 2.19-1.44 3.29-2.14 0.72 0.64 1.43 1.29 2.14 1.94 1.15 0.93999 2.21 2.11 3.67 2.57 2.4 0.66 3.91-1.95 6.07-2.34 1.96-0.27 4.01-0.29001 5.81-1.23 0.61 0.35998 1.22 0.71999 1.83 1.09-1.62 1.24-2.87 2.85-3.9 4.6-0.73-0.64999-1.46-1.29-2.19-1.94-1.23 0.079987-2.47 0.10998-3.68 0.34999-1.77 2.22-2.72 5.02-4.41 7.33-2.04 2.44-1.08 6.74-4.73 7.77-0.43-1.25-0.84-2.5-1.22-3.75 0.85-3.03 0.92-6.21 1.84-9.23 0.53001-1.29 0.13-2.59-0.23-3.85-0.49 0.14999-1.48 0.47-1.97 0.63-0.78-0.60001-1.55-1.2-2.32-1.8z" fill="#ffeaba"/>
 <path d="m87.62 165.6c1.51-0.39 3.02-0.76001 4.54-1.11 1.5 0.22 2.96 0.67999 4.43 1.03-1.5 0.65999-3.04 1.26-4.58 1.84-1.46-0.59-2.93-1.18-4.39-1.76z" fill="#946554"/>
 <path d="m63.51 166.23c1.4 0.5 2.8 1 4.21 1.49 1.43 6.25 0.71 12.7 1.17 19.04-0.019997 2.39 0.44 4.75 1.44 6.93 2.19 4.57-0.32 9.73 1.36 14.43l-0.94 0.27c-1.5-4.47-0.019997-10.2-3.7-13.68-0.22 3.19-0.29 6.39-0.17001 9.58-4.63-10.52-3.4-22.2-4.95-33.31-0.060001-1.71 1.02-3.19 1.58-4.75z" fill="#f8aa88"/>
 <path d="m76.87 166.64c1.19-0.17 2.38-0.39 3.54-0.75 0.67999 1.23 1.35 2.47 2.03 3.7 0.85-0.45999 1.69-0.91 2.54-1.37 0.56 1.5 1.13 3 1.7 4.51 0.67-0.22 1.34-0.44 2.01-0.65999-1.98 6.44-0.34 13.28-2.01 19.77-0.63-0.009995-1.89-0.019989-2.52-0.029999-0.2-6.87 2.9-13.88 0.41-20.59-1.44 0.59-2.88 1.17-4.33 1.73-3.61 5.49-0.92 12.27-2.82 18.23-0.8-3.29-0.74-6.69-0.61-10.05 0.35001-4.83-0.089996-9.66 0.060005-14.49z" fill="#ffe5bc"/>
 <path d="m102.72 166.19c0.65-0.089996 1.95-0.29001 2.6-0.39 1.11 4.27 1.21 8.68 1.53 13.05 3.26-3.8 4.45-8.76 6.22-13.33 0.77 0.59999 1.54 1.2 2.32 1.8 0.49-0.16 1.48-0.48001 1.97-0.63 0.36 1.26 0.76 2.56 0.23 3.85-0.92 3.02-0.99 6.2-1.84 9.23-3.04 3.48-0.7 8.12-0.88 12.15-0.33 2.65-4.31 3.15-4 6.01-0.10001 3.25-0.040001 6.52 0.39 9.75-1.4-0.2-2.8-0.37-4.2-0.53999-0.56 1.14-1.14 2.28-1.64 3.45-1.43 4.48-2.25 9.11-2.91 13.76-0.55 4.33-2.36 8.37-2.87 12.72-1.24-0.030014-2.47-0.050003-3.71-0.060013 1.01-4.12 1.34-8.36 1.93-12.55 1.06-1.83 1.75-3.83 1.78-5.96 0.58-0.72 1.17-1.43 1.77-2.14-0.3-0.39-0.88-1.19-1.18-1.59 0.3-4.01 2.53-8.99-1.05-12.13-3.09 4.75-1.81 10.66-3.71 15.79-1.98 5.99-2.76 12.28-3.62 18.5-1.13-0.049988-2.26-0.10998-3.39-0.18999 0.68-5.54 2.81-10.97 2.19-16.62-0.47-6.72-0.2-13.47-0.99-20.17-0.10001-1.13-0.7-2.12-1.13-3.13-0.96 3.5-1.28 7.13-1.75 10.72-0.98-0.37999-1.97-0.73999-2.96-1.07-0.88 0.56-1.75 1.13-2.62 1.7-0.8-3.84-0.48-7.88-1.85-11.6-1.55 9.05-0.41 18.32 0.71 27.35 0.43 3.97-1.03 8.24 1.02 11.93l-0.13 0.24c-4.73-0.069992-9.37-1.19-14.11-1.19 0.010002-0.64 0.030006-1.92 0.040001-2.56 2.23 1.28 4.76 1.74 7.29 1.99-0.61-3.6-1.41-7.37-0.019997-10.89-1.63-4.97-0.46-10.41-2.46-15.32-1.68-4.7 0.82999-9.86-1.36-14.43-1-2.18-1.46-4.54-1.44-6.93 0.66 1.12 1.36 2.22 2.06 3.31 0.7-2.71 1.42-5.43 1.73-8.22 0.53-4.05-1.09-8.03-0.42-12.07 2.2 3.51 2.11 7.93 4.55 11.35-0.13 3.36-0.19 6.76 0.61 10.05 1.9-5.96-0.79-12.74 2.82-18.23 1.45-0.56 2.89-1.14 4.33-1.73 2.49 6.71-0.61 13.72-0.41 20.59 0.63 0.01001 1.89 0.020004 2.52 0.029999 1.67-6.49 0.029999-13.33 2.01-19.77 0.45-1.72 1.2-3.35 2.36-4.7 0.14 1.48 0.26 2.96 0.35 4.45 0.75-1.61 1.58-3.17 2.46-4.71 0.49 1.12 0.98 2.25 1.47 3.38-0.19 3.51 0.14 7.02 0.57 10.5 0.61 4.47-2.17 9.54 1.17 13.41 1.57-5.27 2.13-10.76 2.75-16.2 0.54-4.09 1.4-8.15 2.9-12.01z" fill="#f9c49b"/>
 <path d="m143.57 168.24c0.37999 0.17 1.13 0.51 1.51 0.67999 0.64999 2.6 1.35 5.19 2 7.79 0.34 1.99 0.69 4.03 0.51 6.06-0.56 2.31-2.09 4.22-3.27 6.23 0.37999 0.88 0.76 1.76 1.14 2.64-1.51 1.61-2.39 3.58-1.47 5.78-3.47 4.22-6.93 9.72-5.21 15.39-0.11 0.51001-0.20999 1.03-0.31 1.54 0.42 0.37999 1.26 1.15 1.68 1.53-1.09 0.26999-2.18 0.54999-3.27 0.84-0.17-1.46-0.33-2.91-0.5-4.36-1.09 0.56999-2.18 1.14-3.27 1.72 0.37-1.04 0.76-2.06 1.17-3.08 1.75-2.96 3.88-5.87 4.37-9.36 0.36-3.06-0.65999-6.04-1.9-8.78-1.55 4.71-3.1 9.46-3.71 14.41-1.52 6.82-5.05 12.98-6.7 19.76-0.19-0.39999-0.57-1.2-0.75-1.6-0.92999-0.019989-1.86-0.019989-2.78 0 0.11-0.34999 0.34-1.04 0.45-1.38 0.24-0.11 0.71-0.32001 0.95-0.43001-0.040001-5.44 2.91-10.23 3.73-15.52 0.47-2.59 0.76-5.2 1.08-7.8-0.81-0.10001-2.41-0.29001-3.22-0.39 0.3-4.66 2.88-8.68 5.46-12.42 1.07 3.49 0.72 7.16 1 10.75 1.5-2.09 2.52-4.54 4.36-6.37 3.53-2.61 3.13-7.33 4.33-11.11 1.18-3.63 1.95-7.37 2.1-11.19 0.12999-0.33 0.39-0.99 0.52-1.33z" fill="#ffc398"/>
 <path d="m121.71 178.38c2.79-2.09 2.81-5.96 5.18-8.36-0.16 2.25-0.78 4.43-1.49 6.57 0.46 0.36 1.38 1.1 1.84 1.46-0.5 1.61-0.99 3.23-1.49 4.84-0.51-0.92999-1.01-1.85-1.52-2.77-1.51 2.2 0.69 5.97-2.33 7.04-0.26-2.92 0.13-5.86-0.19-8.78z" fill="#efb990"/>
 <path d="m136.62 191.87c1.29-7.64 3.03-15.29 6.43-22.3-0.15001 3.82-0.92 7.56-2.1 11.19-1.2 3.78-0.8 8.5-4.33 11.11z" fill="#ebb58a"/>
 <path d="m95.33 170.49c2.01 2.24 3.79 4.73 4.49 7.71-0.62 5.44-1.18 10.93-2.75 16.2-3.34-3.87-0.56-8.94-1.17-13.41-0.43-3.48-0.76-6.99-0.57-10.5z" fill="#ffe0b3"/>
 <path d="m158.69 179.89c0.099991-0.069992 0.3-0.23 0.39999-0.3l-0.16 0.31-0.24-0.01z" fill="#ffdbc7"/>
 <path d="m48.33 187.73c3.79 5.29 4.72 11.93 7.25 17.82-0.8 0.76-1.59 1.51-2.38 2.27-0.14-1.6-0.27-3.21-0.41-4.81-0.45 0.92-0.91 1.84-1.37 2.75-0.47-1.02-0.95-2.04-1.4-3.07-0.7-4.97-1.87-9.91-1.69-14.96z" fill="#dd9775"/>
 <path d="m136.75 192.86c1.24 2.74 2.26 5.72 1.9 8.78-0.48999 3.49-2.62 6.4-4.37 9.36-0.44-1.24-0.85001-2.48-1.24-3.73 0.61-4.95 2.16-9.7 3.71-14.41z" fill="#f0a480"/>
 <path d="m57.04 193.78c1.99 2.31 5.17 4.35 4.89 7.78-0.71 2.1-1.2 4.27-1.37 6.49-0.33-2.91-1.26-5.69-2.46-8.35-0.46-1.95-0.77-3.94-1.06-5.92z" fill="#f1ba96"/>
 <path d="m41.84 195.89c0.38-0.12 1.12-0.38 1.5-0.5 4.89 8.12 6.57 17.63 11.15 25.9 0.099998 0.68001 0.17 1.37 0.22 2.06l-2.4 3.12c-1.4-2.71-2.53-5.54-3.64-8.37-0.28 0.099991-0.84 0.29999-1.12 0.39999l-0.31 0.11c0.039997-0.16 0.12-0.48 0.15-0.64 0.48-1.43 0.58-2.94 0-4.35-1.89-5.9-4.63-11.55-5.55-17.73z" fill="#d89e8b"/>
 <path d="m67.05 194.71c3.68 3.48 2.2 9.21 3.7 13.68 0.58 2.62 0.51 5.31-0.64 7.76-0.8-0.72-1.59-1.43-2.38-2.15-0.12-3.25-0.31-6.5-0.85001-9.71-0.12-3.19-0.049995-6.39 0.17001-9.58z" fill="#d18c69"/>
 <path d="m143.99 197.42c0.51-0.44 1.53-1.33 2.04-1.77-1.24 6.16-5.15 11.3-7.25 17.16-1.72-5.67 1.74-11.17 5.21-15.39z" fill="#eca580"/>
 <path d="m79.35 196.57c1.37 3.72 1.05 7.76 1.85 11.6 1.98 6.17-0.079994 12.56 0.81 18.83 0.12 2.95 0.95 6.25-0.93 8.85-2.05-3.69-0.59-7.96-1.02-11.93-1.12-9.03-2.26-18.3-0.71-27.35z" fill="#e89877"/>
 <path d="m88.53 196.82c0.43 1.01 1.03 2 1.13 3.13 0.78999 6.7 0.52 13.45 0.99 20.17 0.62 5.65-1.51 11.08-2.19 16.62-0.6-0.050003-1.81-0.15001-2.41-0.20001-0.23-2.5-0.81-5.31 1.21-7.26 1.48-1.41 1.52-3.23 0.89-5.06l-2.07 1.53c-0.080002-6.08-0.59-12.21 0.7-18.21 0.47-3.59 0.79-7.22 1.75-10.72z" fill="#ea9e81"/>
 <path d="m58.1 199.7c1.2 2.66 2.13 5.44 2.46 8.35 0.17-2.22 0.66-4.39 1.37-6.49 2.41 6.13 4.46 12.51 4.41 19.17 0.69-1.82 1.64-1.46 2.61-0.12999-0.63-2.15-1.09-4.36-1.22-6.6 0.78999 0.72 1.58 1.43 2.38 2.15 1.15-2.45 1.22-5.14 0.64-7.76l0.94-0.27c2 4.91 0.82999 10.35 2.46 15.32-1.39 3.52-0.59 7.29 0.019997 10.89-2.53-0.25-5.06-0.71001-7.29-1.99-0.009995 0.64-0.029999 1.92-0.040001 2.56-2.64-0.76-5.19-1.82-7.66-3.03-0.17-1.54-0.28-3.09-0.62-4.61-0.79-1.45-2.59-0.62999-3.82-0.54999 0-1.12-0.010002-2.25-0.030003-3.36-0.049999-0.69-0.12-1.38-0.22-2.06 0.31-0.20999 0.93-0.64 1.24-0.84999-1.3-3.95-2.31-8.05-4.48-11.65-1.21-1.81-1.06-4.03-1.23-6.1 0.45 1.03 0.93 2.05 1.4 3.07 0.46-0.90999 0.92-1.83 1.37-2.75 0.14 1.6 0.27 3.21 0.41 4.81 0.79-0.76001 1.58-1.51 2.38-2.27 0.96 2.51 2.04 4.97 3.14 7.43-0.3-2.04-0.61-4.07-0.88-6.1 0.44-2.37 0.59-4.79 0.26-7.18z" fill="#eca48a"/>
 <path d="m125.8 199.91c0.81 0.099991 2.41 0.28999 3.22 0.39-0.32001 2.6-0.61 5.21-1.08 7.8-0.82 5.29-3.77 10.08-3.73 15.52-0.24 0.11-0.71 0.32001-0.95 0.43001-0.65 0.17-1.96 0.52-2.62 0.69-0.29-2.58-0.48-5.17-0.59-7.76 0.87 1.05 1.75 2.1 2.6 3.17-2.31-7.02 2.2-13.43 3.15-20.24z" fill="#f5b08c"/>
 <path d="m148.6 200.86c0.059998-0.10001 0.17999-0.3 0.23-0.41l-0.23 0.41z" fill="#ffdfcb"/>
 <path d="m146.67 206.18c-1.44-1.62-0.56-3.93 1.65-4.04-0.27 1.44-0.91 2.78-1.65 4.04z" fill="#fcd8ce"/>
 <path d="m99.18 202.64c3.58 3.14 1.35 8.12 1.05 12.13 0.3 0.39999 0.88 1.2 1.18 1.59-0.60001 0.71001-1.19 1.42-1.77 2.14-0.029999 2.13-0.72 4.13-1.78 5.96-0.46-2.13-1.08-4.26-2.39-6.03 1.9-5.13 0.62-11.04 3.71-15.79z" fill="#e6a688"/>
 <path d="m115.31 203.45c1.52-0.059998 3.04-0.12 4.57-0.17999 0.62 1.57 1.25 3.14 1.88 4.71-0.85-0.17999-1.7-0.36-2.55-0.53999 0.2 0.81999 0.39 1.64 0.59 2.47-1.71 3.66-1.68 7.82-3.3 11.51-1.88 3.92-0.22 8.81-3.1 12.33-0.62-4.75 1.51-9.62-0.36-14.2 0.36-5.43 2.95-10.6 2.27-16.1z" fill="#f1b490"/>
 <path d="m81.2 208.17c0.87-0.56999 1.74-1.14 2.62-1.7 0.99 0.33 1.98 0.69 2.96 1.07-1.29 6-0.78 12.13-0.7 18.21l2.07-1.53c0.63 1.83 0.59 3.65-0.89 5.06-2.02 1.95-1.44 4.76-1.21 7.26-1.7-0.17-3.4-0.36-5.1-0.45l0.13-0.24c1.88-2.6 1.05-5.9 0.93-8.85-0.89-6.27 1.17-12.66-0.81-18.83z" fill="#f6b896"/>
 <path d="m107.06 207.14c1.4 0.17 2.8 0.34 4.2 0.53999 1.31 1.65 0.93 3.18-1.25 3.24-0.98 3.94 0.25 8.11-1.23 11.97-1 3.55-3.32 7.28-1.29 10.91-0.59 0.19-1.77 0.55-2.36 0.73 1.3 0.2 2.6 0.39 3.91 0.60001l-0.13 1.28c-1.2-0.63-2.15-0.31-2.85 0.98-1.42-0.089996-2.83-0.17999-4.25-0.26 1.52-2.52 1.93-5.42 1.9-8.31 0.8-6.01 4.01-12.17 1.71-18.23 0.5-1.17 1.08-2.31 1.64-3.45z" fill="#f4b899"/>
 <path d="m133.04 207.27c0.39 1.25 0.8 2.49 1.24 3.73-0.41 1.02-0.8 2.04-1.17 3.08-0.8 5.34-2.13 10.61-5.29 15.1 0.34 1.31 0.68 2.62 1.02 3.94-1.3 0.29001-2.6 0.59001-3.86 1.02 0.39999-2.38 0.88-4.75 1.36-7.11 1.65-6.78 5.18-12.94 6.7-19.76z" fill="#d39b7d"/>
 <path d="m105.42 210.59c2.3 6.06-0.91 12.22-1.71 18.23 0.029999 2.89-0.38 5.79-1.9 8.31-0.54-0.020004-1.62-0.050003-2.17-0.059998 0.51-4.35 2.32-8.39 2.87-12.72 0.66-4.65 1.48-9.28 2.91-13.76z" fill="#dca482"/>
 <path d="m133.11 214.08c1.09-0.58 2.18-1.15 3.27-1.72 0.17 1.45 0.33 2.9 0.5 4.36 1.09-0.29001 2.18-0.57001 3.27-0.84 0.42001 0.37 1.26 1.13 1.68 1.51-1.99 3.92-3.04 8.26-5.14 12.12-2.16 1.98-5.01 3.04-7.85 3.61-0.34-1.32-0.67999-2.63-1.02-3.94 3.16-4.49 4.49-9.76 5.29-15.1z" fill="#f9b7a1"/>
 <path d="m95.47 218.43c1.31 1.77 1.93 3.9 2.39 6.03-0.59 4.19-0.92 8.43-1.93 12.55-1.36-0.019989-2.72-0.049988-4.08-0.080002 0.86-6.22 1.64-12.51 3.62-18.5z" fill="#d9977e"/>
 <path d="m113.04 219.55c1.87 4.58-0.26 9.45 0.36 14.2-0.55 1.09-1.08 2.19-1.61 3.3-0.74 0.039993-2.22 0.12-2.96 0.16l0.08-0.8 0.13-1.28c0.55-5.38 2.91-10.32 4-15.58z" fill="#d39573"/>
 <path d="m52.31 226.47l2.4-3.12c0.02 1.11 0.030003 2.24 0.030003 3.36 1.23-0.080002 3.03-0.90001 3.82 0.54999 0.34 1.52 0.45 3.07 0.62 4.61-2.66-1.26-5.18-2.95-6.87-5.4z" fill="#ca7c77"/>
 <path d="m120.64 224.74c0.66-0.17 1.97-0.52 2.62-0.69-0.11 0.34-0.34 1.03-0.45 1.38-0.93 3.09-1.72 6.23-2.37 9.39-0.43 0.34999-1.29 1.04-1.72 1.39l-1.14 0.23c0.019997-4.09 1.29-8.06 3.06-11.7z" fill="#daa183"/>
 <path d="m122.81 225.43c0.92001-0.019989 1.85-0.019989 2.78 0 0.18 0.40001 0.56 1.2 0.75 1.6-0.48 2.36-0.96 4.73-1.36 7.11-2 0.94-4.07 1.75-6.26 2.07 0.43-0.35001 1.29-1.04 1.72-1.39 0.64999-3.16 1.44-6.3 2.37-9.39z" fill="#ffc9ac"/>
 <path d="m106.06 237.39c0.7-1.29 1.65-1.61 2.85-0.98l-0.08 0.8c-0.69 0.049988-2.08 0.14-2.77 0.17999z" fill="#ffdbca"/>
</svg>
