<svg xmlns="http://www.w3.org/2000/svg" xmlns:xlink="http://www.w3.org/1999/xlink" version="1.1" id="svg-edited-version" x="0px" y="0px" viewBox="0 0 595.28 595.28" enable-background="new 0 0 595.28 595.28" xml:space="preserve" class="injected-svg" data-src="https://preview.pixlr.com/images/svg/100/1/05a66ef5f2afd60b2761346fc647f8b28a7d505551b76d107f679e8cb03a5627.svg">
<g>
	<path fill="#F9C88F" d="M534.654,393.492c5.998-40.086,2.273-113.1,2.273-113.1c-1.251,5.654-3.705,10.211-8.104,13.675   c-12.938,10.191-10.063,38.688-20.126,50.19c-10.063,11.5-27.315,4.313-41.69,4.313c-14.377,0-14.377,12.938-14.377,34.502   s-17.251,38.816-31.627,38.816c-2.669,0-5.338-0.301-7.914-0.905c-11.305-2.649-20.838-11.19-20.838-26.41   c0-18.688-4.313-27.315-12.938-37.378c-8.626-10.063-35.94-11.501-38.815,0s-7.188,24.439-24.439,14.376   s-8.626-23.001-11.501-33.065c-2.875-10.063-17.252-4.313-31.628-8.625c-14.376-4.313-17.251-25.877-31.627-29.871   c-14.376-3.992-28.753-7.507-37.378-20.445s-25.877-11.501-28.752,5.75c-2.876,17.251-17.252,15.814-25.877,12.939   c-8.626-2.875-17.252-11.501-15.813-28.753c1.437-17.251-5.751-25.877-18.688-35.939c-12.939-10.064-21.564,5.75-25.878,20.126   S68.789,258,71.665,240.75c1.392-8.355-2.276-11.995-6.264-16.297c0,0.017,8.18,142.329,8.18,168.204   c0,25.877,21.085,31.628,43.129,48.879c22.043,17.252,194.555,96.781,257.81,110.198c3.143,0.667,6.346,0.989,9.592,1.022   c52.545,0.533,117.21-78.124,139.771-115.355C526.162,432.869,530.503,421.243,534.654,393.492z" originalFill="#F9C88F"/>
	<path fill="#F05052" d="M384.105,172.3c0,32.713-26.52,59.233-59.233,59.233c-32.713,0-59.232-26.52-59.232-59.233   s26.52-59.233,59.232-59.233C357.586,113.067,384.105,139.587,384.105,172.3z M461.795,420.406   c-20.982,15.663-40.156,24.738-51.386,27.729v-0.001C247.103,406.88,89.996,316.328,69.784,304.444   c0.736,14.077,1.457,28.34,2.07,41.341c175.07,102.177,327.932,148.232,327.948,148.236c0.002-0.006,0.003-0.014,0.004-0.02   c-0.001,0.008-0.001,0.014-0.002,0.02c8.593,1.873,55.875-26.651,74.64-41.514c33.251-26.334,52.489-54.02,61.468-69.205   c1.303-12.844,1.89-27.707,2.082-42.076C507.382,389.305,484.832,403.211,461.795,420.406z" originalFill="#F05052"/>
	<path fill="#4C190A" d="M528.825,294.068c-12.939,10.19-10.063,38.688-20.126,50.19c-10.064,11.5-27.316,4.312-41.692,4.312   c-14.375,0-14.375,12.938-14.375,34.503s-17.251,38.815-31.628,38.815c-14.376,0-28.753-8.626-28.753-27.314   s-4.313-27.314-12.938-37.378c-8.626-10.063-35.941-11.501-38.815,0c-2.875,11.501-7.188,24.439-24.44,14.376   c-17.251-10.063-8.625-23.002-11.5-33.065c-2.876-10.063-17.251-4.313-31.627-8.625c-14.377-4.313-17.252-25.877-31.628-29.871   c-14.375-3.992-28.752-7.507-37.378-20.445c-8.625-12.938-25.876-11.5-28.752,5.75c-2.875,17.251-17.252,15.814-25.877,12.938   c-8.626-2.875-17.252-11.501-15.814-28.752s-5.75-25.877-18.688-35.94c-12.94-10.063-21.565,5.751-25.878,20.127   c-4.313,14.376-20.127,4.313-17.251-12.938c2.875-17.252-15.813-14.376-14.376-38.815c1.437-24.439,20.464-37.901,78.335-33.952   c39.459,2.693,84.816,3.825,130.028,4.055c0,0.089-0.013,0.175-0.013,0.264c0,32.713,26.52,59.233,59.233,59.233   c32.712,0,59.232-26.52,59.232-59.233c0-0.476-0.061-0.936-0.072-1.41c71.942-1.615,125.63-4.292,125.63-4.292   c18.636-0.318,22.73,37.492,25.605,67.681C538.145,264.469,541.763,283.877,528.825,294.068z M344.74,112.828   c-0.898,4.375-1.995,8.571-3.668,12.694c-1.055,2.601-2.87,9.043,0.938,10.327c5.568,1.877,6.28-8.947,7.193-12.324   c1.418-5.244,2.478-10.581,3.323-15.945c3.049-19.347,2.138-39.331-2.832-58.284c-0.491-1.875-1.063-3.817-2.382-5.238   c-1.981-2.135-5.211-2.131-6.578,0.562c-1.2,2.365,0.597,4.226,1.409,6.336c1.236,3.208,1.861,6.843,2.556,10.201   c1.417,6.853,2.265,13.822,2.543,20.813c0.092,2.32,0.122,4.643,0.089,6.965C347.217,96.957,346.354,104.969,344.74,112.828z" originalFill="#4C190A"/>
	<path fill="#994C3D" d="M529.1,213.354c-1.531-1.415-2.709-3.202-4.371-4.459c-3.866-2.926-9.553-2.257-13.677,0.293   c-4.123,2.55-7.037,6.614-9.839,10.57c-9.889,13.961-19.779,27.92-29.666,41.882c-2.652,3.747-18.329,29.299-24.396,17.072   c-1.808-3.645,0.941-10.247,5.86-17.974c11.509-18.079,32.832-46.666,37.478-53.533c8.914-13.178,28.112-31.306,0.408-32.556   c-8.288-0.374-14.116-3.089-16.297-6.538c21.938-0.858,35.063-1.513,35.063-1.513c14.948-0.254,20.539,24.024,23.65,49.223   C531.763,215.284,530.313,214.476,529.1,213.354z M98.488,185.225c-7.179-1.143-17.448-0.237-10.774,9.182   c6.69,9.444,161.138,73.126,197.069,86.089c3.429,1.237,7.056,2.479,10.644,1.84c3.588-0.638,6.986-3.89,6.417-7.49   c-0.566-3.578-4.396-5.517-7.751-6.884C263.048,255.306,111.194,187.248,98.488,185.225z M413.839,298.321   c-3.773,0.429-7.444,1.522-9.571,2.462c-5.233,2.317-11.216,5.615-11.792,11.309c-0.642,6.345,6.581,11.197,12.934,10.631   c6.774-0.605,24.857-10.814,20.868-20.183C424.517,298.404,419.08,297.725,413.839,298.321z M436.037,381.775   c-3.424,0.859-7.123,3.83-9.825,9.357c-2.058,4.206-1.755,9.962,1.956,12.816c4.541,3.492,11.738,0.578,14.395-4.502   C448.965,387.191,443.086,380.006,436.037,381.775z M503.068,304.747c-3.424,0.859-7.122,3.831-9.825,9.357   c-2.058,4.207-1.755,9.962,1.957,12.816c4.541,3.492,11.737,0.578,14.394-4.502C515.996,310.163,510.117,302.977,503.068,304.747z    M165.784,268.062c-0.357,0.097-0.725,0.221-1.1,0.375c-6.699,2.729-12.18,18.512-4.632,23.547c2.749,1.833,6.373,1.013,8.875-1.26   c2.503-2.272,4.036-5.74,5.025-9.28C175.97,274.228,172.568,266.223,165.784,268.062z" originalFill="#994C3D"/>
	<path opacity="0.2" d="M523.882,437.4c-22.561,37.231-87.226,115.889-139.771,115.355c-1.262-0.014-2.515-0.084-3.763-0.188   c1.533-4.71,3.376-9.363,5.139-13.882c14.7-37.665,24.118-77.374,28.041-117.613c2.442,0.538,4.957,0.815,7.476,0.815   c14.376,0,31.627-17.252,31.627-38.816s0-34.502,14.377-34.502c14.375,0,31.627,7.188,41.69-4.313   c10.063-11.502,7.188-39.999,20.126-50.19c4.398-3.464,6.853-8.021,8.104-13.675c0,0,3.725,73.014-2.273,113.1   C530.503,421.243,526.162,432.869,523.882,437.4z M351.544,133.361c-1.754,0.167-3.491,0.643-5.227,0.712   c-0.98,1.65-2.33,2.633-4.318,1.963c-3.81-1.285-1.992-7.727-0.938-10.327c0.312-0.768,0.518-1.555,0.791-2.329   c-3.829-0.706-9.83,1.512-11.956,3.589c-2.564,2.505-2.375,6.203-0.046,8.829c2.329,2.626,6.478,4.206,10.714,4.579   c4.235,0.373,8.544-0.359,12.462-1.598c1.933-0.611,4.083-1.713,3.871-3.25C356.668,133.864,353.803,133.146,351.544,133.361z    M537.033,369.133c-0.297,4.966-0.667,9.79-1.132,14.357c-8.979,15.186-28.217,42.871-61.468,69.205   c-18.765,14.862-66.047,43.387-74.64,41.514v-0.006l-0.002,0.006c-0.017-0.004-152.878-46.06-327.948-148.236   c-0.19-4.041-0.391-8.191-0.599-12.437c53.011,30.259,201.526,110.956,334.687,136.888c0,0.002,0,0.002,0,0.002s0,0,0.002-0.002   C419.798,475.471,503.088,425.358,537.033,369.133z M379.429,149.407c3.004,7.093,4.666,14.893,4.666,23.081   c0,32.713-26.52,59.233-59.233,59.233c-26.98,0-49.732-18.047-56.883-42.722c5.324,1.107,8.982,6.009,12.693,10.073   c16.221,17.761,44.2,23.538,66.13,13.656c21.93-9.883,36.524-37.684,32.855-61.456C379.569,150.697,379.495,150.07,379.429,149.407   z M65.706,229.8l-0.002,0.001c2.563,2.788,5.047,5.242,6.206,8.776c0.458-6.842-2.894-10.209-6.509-14.124L65.706,229.8z    M133.626,263.831c-1.998-10.232-8.475-16.993-18.211-24.566c-12.938-10.063-21.564,5.75-25.877,20.127   c-3.998,13.324-17.862,5.648-17.583-9.279c2.722,10.934,13.513,15.069,16.961,3.575c4.313-14.375,12.938-30.189,25.878-20.126   C126.228,242.455,133.159,250.236,133.626,263.831z M537.234,287.477L537.234,287.477c-1.338,5.025-3.751,9.114-7.787,12.294   c-12.938,10.191-10.064,38.688-20.127,50.188c-10.063,11.501-27.314,4.313-41.691,4.313c-14.376,0-14.376,12.939-14.376,34.502   c0,21.565-17.251,38.816-31.626,38.816c-2.955,0-5.881-0.456-8.709-1.197c-10.771-2.822-19.759-11.019-20.027-25.451   c2.278,11.256,10.587,17.788,20.198,20.04c0.149,0.035,0.306,0.045,0.454,0.078c2.438,0.536,4.947,0.827,7.461,0.827   c14.377,0,31.628-17.252,31.628-38.816s0-34.502,14.375-34.502c14.376,0,31.629,7.188,41.692-4.313   c10.063-11.502,7.187-39.999,20.126-50.19c4.396-3.464,6.852-8.021,8.103-13.675c0,0,0.009,0.167,0.014,0.267   c0.002,0.043,0.004,0.099,0.007,0.159c0.003,0.059,0.006,0.13,0.011,0.229c0.014,0.253,0.027,0.59,0.046,0.993   c0.008,0.138,0.014,0.284,0.021,0.439c0.02,0.433,0.041,0.961,0.066,1.521c0.011,0.266,0.022,0.549,0.036,0.842   c0.031,0.754,0.063,1.574,0.101,2.499C537.231,287.392,537.232,287.426,537.234,287.477z M379.313,357.195   c7.5,8.749,11.735,16.42,12.715,30.552c-1.641-10.649-5.669-17.354-12.092-24.848c-8.626-10.063-35.94-11.501-38.815,0   c-2.876,11.501-7.188,24.439-24.44,14.376c-9.564-5.58-11.172-12.043-11.197-18.41c1.08,4.444,3.868,8.793,10.576,12.706   c17.251,10.063,21.564-2.875,24.439-14.376S370.688,347.133,379.313,357.195z M304.558,338.506c0.529,1.854,0.667,3.806,0.65,5.818   c-0.011-0.038-0.018-0.076-0.028-0.114c-2.875-10.063-17.251-4.313-31.628-8.625c-14.376-4.313-17.25-25.878-31.627-29.87   c-14.376-3.994-28.752-7.508-37.378-20.447c-8.626-12.938-25.877-11.5-28.753,5.75c-2.875,17.252-17.25,15.813-25.877,12.938   c-7.767-2.589-15.508-9.865-15.928-23.879c2.055,10.328,8.671,15.963,15.307,18.175c8.625,2.876,23.002,4.313,25.877-12.938   s20.127-18.689,28.752-5.75s23.002,16.453,37.378,20.446s17.251,25.558,31.628,29.87   C287.306,334.193,301.683,328.443,304.558,338.506z" fill="#000000" originalFill="#000000"/>
	<path fill="#FBEAD6" d="M91.708,275.893c6.132,2.491,5.502,16.008,5.385,20.903c-0.115,4.827-1.162,10.902-5.841,12.093   c-4.124,1.05-8.064-3.024-8.733-7.228c-0.571-3.587-0.251-17.574,3.472-23.485C87.38,275.972,89.242,274.89,91.708,275.893z    M84.987,405.164c1.566,3.237,4.936,5.89,8.504,5.453c2.4-0.343,0.063-33.391,0.02-36.629c-0.03-2.225-0.076-4.523-1.002-6.548   c-0.927-2.022-2.982-3.706-5.195-3.471c-1.964,0.208-3.529,1.868-4.221,3.719c-0.691,1.85-0.678,3.878-0.656,5.853   C82.549,383.434,80.53,395.948,84.987,405.164z M405.158,503.469c-6.487,7.805-10.865,29.784-13.43,36.657   c-1.218,3.266-2.184,7.557,0.547,9.724c3.036,2.409,7.438-0.305,9.977-3.236c8.633-9.977,12.061-22.719,14.099-35.511   c0.393-2.463,0.681-5.126-0.491-7.327c-1.404-2.639-4.942-3.896-7.697-2.737C407.115,501.479,406.113,502.32,405.158,503.469z    M292.823,141.332c13.657,6.117-5.539,34.285-12.09,30.645C269.559,165.771,281.316,136.178,292.823,141.332z M307.273,123.066   c-8.573-0.458-13.034,11.852-4.277,16.272c3.006,1.517,6.766,1.066,9.659-0.656c7.363-4.385,4.378-12.893-3.041-15.188   C308.807,123.244,308.024,123.106,307.273,123.066z M153.048,364.822c1.928-1.796-3.234-6.551-7.311-9.351   c-5.393-3.702-59.456-30.882-62.821-26.559c-1.418,1.822-0.906,4.595,0.538,6.396s3.596,2.858,5.675,3.861   c10.13,4.881,20.745,8.684,30.771,13.697c8.185,4.092,18.851,11.484,28.097,12.535   C150.804,365.722,152.367,365.456,153.048,364.822z M413.301,451.75c-0.229,0.178-0.447,0.361-0.653,0.552   c-3.021,2.778-2.032,8.063,1.661,9.985c3.968,2.063,8.744-0.396,12.565-1.708c4.053-1.392,10.022-4.001,10.757-8.288   c0.462-2.692-0.106-5.47-3.371-6.299c-3.312-0.842-7.324,0.345-10.467,1.313C420.417,448.344,416.099,449.578,413.301,451.75z" originalFill="#FBEAD6"/>
</g>
</svg>