<?xml version="1.0" encoding="UTF-8"?>
<!DOCTYPE svg  PUBLIC '-//W3C//DTD SVG 1.1//EN'  'http://www.w3.org/Graphics/SVG/1.1/DTD/svg11.dtd'>
<svg enable-background="new 0 0 50.1 34.5" version="1.1" viewBox="0 0 50.1 34.5" xml:space="preserve" xmlns="http://www.w3.org/2000/svg" xmlns:xlink="http://www.w3.org/1999/xlink">
<symbol id="ag" viewBox="0 -21.205 40.85 21.2">
		<path d="m21.8-3.45c1.034-0.267 3.083-0.7 6.15-1.3 2.933-0.7 5.283-1.567 7.05-2.6 2.767-1.566 4.583-3.417 5.45-5.55 1.1-2.7-0.067-4.934-3.5-6.7-3.267-1.7-7.483-2.05-12.65-1.05-3.267 0.667-6.233 1.65-8.9 2.95-5.6 2.633-9.3 4.583-11.1 5.85-1.7 1.2-2.767 2.033-3.2 2.5-0.733 0.933-1.1 2.233-1.1 3.9 0.033 2.067 0.983 3.5 2.85 4.3 0.333 0.167 1.85 0.5 4.55 1 1.9 0.367 4.483 0.033 7.75-1 1.767-0.567 3.983-1.333 6.65-2.3z" clip-rule="evenodd" fill="#946114" fill-rule="evenodd"/>
</symbol>
<symbol id="ah" viewBox="0 -18.8 19.65 18.8">
		<path d="m3.3-10.95c-2.2 1.067-3.3 3.033-3.3 5.9 0 2.333 1.017 4.017 3.05 5.05l16.6-17.45c-0.2-0.433-0.967-0.767-2.3-1-0.833-0.133-1.617-0.233-2.35-0.3l-0.85-0.05c0.133 0.1 0.167 0.367 0.1 0.8l-0.7 1.55c-0.433-0.066-1.267 0.267-2.5 1-3.6 2.2-6.183 3.7-7.75 4.5z" clip-rule="evenodd" fill="#5C3100" fill-rule="evenodd"/>
</symbol>
<symbol id="ai" viewBox="0.052 -14.177 44.596 14.177">
		<path d="m42.5-6.6c1.867-1.533 2.517-2.95 1.95-4.25s-2.233-2.267-5-2.9c-2.3-0.533-4.983-0.567-8.05-0.1-3.5 0.733-6.217 1.233-8.15 1.5-2.167 0.267-5.65 0.184-10.45-0.25-5.4-0.5-8.75-0.733-10.05-0.7-3.933 0.1-3.567 2.65 1.1 7.65 3.467 3.767 8.383 5.65 14.75 5.65 5.233 0 10.15-0.7 14.75-2.1 3.967-1.233 7.017-2.733 9.15-4.5z" clip-rule="evenodd" fill="#946114" fill-rule="evenodd"/>
</symbol>
<symbol id="aj" viewBox="0 -9.262 43.788 9.264">
		<path d="m43.55-4.45c0.6-0.767 0.067-1.683-1.6-2.75-1.7-1.1-3.7-1.75-6-1.95-1.967-0.2-3.65-0.133-5.05 0.2-1.933 0.534-3.816 1-5.65 1.4-2.333 0.5-4.25 0.717-5.75 0.65-1.333-0.167-2.25-0.283-2.75-0.35-0.633-0.1-1.017-0.25-1.15-0.45l-0.05-0.25-1 0.3c-0.3 0.066-1.183 0.033-2.65-0.1-1.967-0.167-3.75-0.233-5.35-0.2-3 0.067-5.183-0.017-6.55-0.25l0.45 0.6c0.2 0.233 0.417 0.4 0.65 0.5 0.133 0.067 0.233 0.1 0.3 0.1 0.867 1.367 1.85 2.467 2.95 3.3 1.933 0.6 4.033 1.217 6.3 1.85 4.567 1.2 7.7 1.817 9.4 1.85 2.233 0.033 6.517-0.517 12.85-1.65 6.567-1.2 10.117-2.133 10.65-2.8z" clip-rule="evenodd" fill="#5C3100" fill-rule="evenodd"/>
</symbol>
<symbol id="ak" viewBox="0 -6.887 44.271 6.898">
		<path d="m41.2-4.4c-0.071-0.341 0.571-0.774 1.925-1.3 1.349-0.522 1.507-0.864 0.475-1.025-1.025-0.16-2.333-0.202-3.925-0.125-1.587 0.07-3.429 0.37-5.525 0.9-1.833 0.467-4.833 0.85-9 1.15-4.3 0.267-7.017 0.466-8.15 0.6-1.4 0.167-3.45 0.233-6.15 0.2-3.1-0.1-5.333-0.167-6.7-0.2-2.7-0.067-4.083 0.083-4.15 0.45l1 1c0.6 0.5 1.35 1 2.25 1.5 1.333 0.7 2.583 1.117 3.75 1.25 1.233 0.1 7.283-0.533 18.15-1.9 10.768-1.331 16.119-2.165 16.05-2.5z" clip-rule="evenodd" fill="#5C3100" fill-rule="evenodd"/>
</symbol>
<symbol id="al" viewBox="-0.05 -2.805 22.583 2.818">
		<linearGradient id="x" x2="22.5" y1="-1.3965" y2="-1.3965" gradientUnits="userSpaceOnUse">
			<stop stop-color="#FAA72F" offset="0"/>
			<stop stop-color="#B07919" offset="1"/>
		</linearGradient>
		<path d="m1.7-1.9c-2.133 0.2-2.317 0.5-0.55 0.9 2.033 0.433 5.434 0.75 10.2 0.95 3.8 0.167 6.983 0 9.55-0.5 1.5-0.3 1.967-0.7 1.4-1.2-0.533-0.433-1.25-0.65-2.15-0.65-0.467 0-1.566-0.067-3.3-0.2-1.833-0.133-3.05-0.2-3.65-0.2-0.6-0.034-1.534 0.083-2.8 0.35-1.333 0.267-2.433 0.4-3.3 0.4-1.833-0.067-3.633-0.017-5.4 0.15z" clip-rule="evenodd" fill="url(#x)" fill-rule="evenodd"/>
</symbol>
<symbol id="am" viewBox="0.033 -6.84 28.882 6.822">
		<path d="m24.1-0.6c1.6-0.167 2.917-0.6 3.95-1.3 1-0.667 1.133-1 0.4-1-1.133 0-2.133-0.25-3-0.75-0.567-0.434-0.983-0.7-1.25-0.8-0.434-0.2-1.1-0.3-2-0.3-2.067 0-3.9-0.533-5.5-1.6-0.7-0.467-1.667-0.6-2.9-0.4-0.9 0.167-1.767 0.45-2.6 0.85-0.867 0.467-1.55 0.833-2.05 1.1-0.967 0.466-1.967 0.833-3 1.1-0.467 0.1-1.833 0.267-4.1 0.5-1.466 0.133-2.133 0.383-2 0.75 0.233 0.733 2.2 1.4 5.9 2 2.733 0.367 6.083 0.5 10.05 0.4 3.067-0.067 5.767-0.25 8.1-0.55z" clip-rule="evenodd" fill="#915600" fill-rule="evenodd"/>
</symbol>
<symbol id="an" viewBox="-0.023 -18.417 40.429 18.437">
		<path d="m32.2-1.6c2.1-0.633 4.25-1.767 6.45-3.4 1.233-0.933 1.817-1.983 1.75-3.15 0-0.7-0.316-1.65-0.95-2.85-0.3-0.6-0.684-1.117-1.15-1.55-0.667-0.567-1.167-1.067-1.5-1.5-1.1-1.4-3.117-2.2-6.05-2.4-0.2-0.033-1.7-0.466-4.5-1.3-2.233-0.667-4.017-0.833-5.35-0.5-4 0.967-8.167 1.5-12.5 1.6-2.867 0.1-5.117 1.183-6.75 3.25-1.566 1.967-2.033 4.117-1.4 6.45 0.567 2 2.833 3.717 6.8 5.15 3.2 1.167 6 1.767 8.4 1.8 7.2 0.133 12.783-0.4 16.75-1.6z" clip-rule="evenodd" fill="#946114" fill-rule="evenodd"/>
</symbol>
		<linearGradient id="y" x1="-.0063" x2="41.424" y1="27.357" y2="27.357" gradientTransform="matrix(.85 0 0 .85 .00012207 4.55)" gradientUnits="userSpaceOnUse">
		<stop stop-color="#F7EDB0" offset="0"/>
		<stop stop-color="#C7AB48" offset="1"/>
	</linearGradient>
	<path d="m22.184 22.017c6.318-0.878 9.775-1.119 10.37-0.722 1.474 0.963 2.338 2.224 2.593 3.782 0.198 1.388-0.071 2.479-0.808 3.272-0.991 1.218-1.813 2.152-2.465 2.805-1.219 1.189-2.365 1.842-3.442 1.954-1.7 0.171-2.89 0.284-3.57 0.341-1.133 0.113-2.083 0.24-2.847 0.383-1.644 0.368-2.579 0.565-2.805 0.595-1.077 0.142-2.125 0.07-3.145-0.213-1.501-0.454-4.632-0.863-9.392-1.232-2.805-0.17-4.817-1.431-6.035-3.782-0.624-1.19-0.793-2.593-0.51-4.208l0.595-2.082c6.205 0.198 10.256 0.383 12.154 0.553 3.032-0.511 6.134-0.993 9.307-1.446z" clip-rule="evenodd" fill="url(#y)" fill-rule="evenodd"/>
		<use transform="matrix(.85 0 0 -.85 .1499 17.4)" x="-0.023" y="-18.417" width="40.429" height="18.437" enable-background="new" opacity=".8281" xlink:href="#an"/>
		<linearGradient id="z" x1="3.522" x2="42.471" y1="21.216" y2="21.216" gradientTransform="matrix(.8445 .096 -.096 .8445 .00029854 4.5497)" gradientUnits="userSpaceOnUse">
		<stop stop-color="#F0B543" offset="0"/>
		<stop stop-color="#C48C1B" offset="1"/>
	</linearGradient>
	<path d="m27.284 18.319c1.757 0.538 3.542 1.516 5.355 2.933 1.02 0.793 1.516 1.7 1.487 2.72 0 0.595-0.256 1.402-0.766 2.423-0.255 0.51-0.581 0.948-0.978 1.317-0.566 0.481-0.991 0.92-1.275 1.317-0.878 1.218-2.55 1.912-5.014 2.082-0.171 0.028-1.417 0.397-3.741 1.105-1.87 0.566-3.357 0.708-4.462 0.425-3.343-0.822-6.813-1.275-10.412-1.36-2.408-0.085-4.292-1.006-5.652-2.762-1.303-1.729-1.686-3.599-1.147-5.61 0.482-1.729 2.366-3.201 5.653-4.42 2.635-0.991 4.972-1.516 7.012-1.572 6.035-0.113 10.682 0.354 13.94 1.402z" clip-rule="evenodd" fill="url(#z)" fill-rule="evenodd"/>
		<use transform="matrix(.85 0 0 -.85 14.1 17.35)" y="-18.8" width="19.65" height="18.8" enable-background="new" opacity=".4297" xlink:href="#ah"/>
		<linearGradient id="aa" x1="24.165" x2="65.347" y1="9.02" y2="9.02" gradientTransform="matrix(.7982 .292 -.292 .7982 -.00035202 4.55)" gradientUnits="userSpaceOnUse">
		<stop stop-color="#F7EDB0" offset="0"/>
		<stop stop-color="#C7AB48" offset="1"/>
	</linearGradient>
	<path d="m38.079 18.234c2.55 0.481 4.576 1.19 6.077 2.125 2.861 1.813 4.703 3.626 5.525 5.439 1.048 2.38 0.17 4.562-2.636 6.545-2.72 1.898-6.332 2.494-10.837 1.785-3.286-0.51-5.964-1.388-8.032-2.635-0.595-0.368-2.168-1.104-4.718-2.21-2.38-1.049-4.065-1.927-5.057-2.635-1.501-1.021-2.437-1.771-2.805-2.253-0.68-0.85-1.063-2.082-1.147-3.697-0.113-2.068 0.439-3.584 1.658-4.547 0.595-0.481 1.714-0.963 3.357-1.445 1.615-0.482 3.98-0.255 7.097 0.68 1.672 0.481 3.74 1.133 6.205 1.955 0.907 0.199 2.678 0.497 5.313 0.893z" clip-rule="evenodd" fill="url(#aa)" fill-rule="evenodd"/>
		<use transform="matrix(.85 0 0 -.85 15.05 14.6)" y="-21.205" width="40.85" height="21.2" enable-background="new" opacity=".8281" xlink:href="#ag"/>
		<linearGradient id="ab" x1="25.049" x2="64.62" y1="4.6729" y2="4.6729" gradientTransform="matrix(.7781 .342 -.342 .7781 .00045639 4.5502)" gradientUnits="userSpaceOnUse">
		<stop stop-color="#F0B543" offset="0"/>
		<stop stop-color="#C48C1B" offset="1"/>
	</linearGradient>
	<path d="m38.759 18.319c2.465 0.595 4.434 1.317 5.907 2.168 2.323 1.359 3.839 2.946 4.548 4.759 0.906 2.295-0.071 4.208-2.933 5.737-2.748 1.445-6.29 1.743-10.625 0.894-2.748-0.567-5.241-1.403-7.479-2.508-1.87-0.906-3.386-1.657-4.547-2.253-2.125-1.076-3.712-1.997-4.76-2.762-1.445-1.049-2.323-1.757-2.635-2.125-0.651-0.794-0.963-1.898-0.935-3.315 0.028-1.756 0.821-2.975 2.379-3.654 0.369-0.17 1.644-0.468 3.825-0.893 1.615-0.312 3.783-0.028 6.502 0.85 1.474 0.482 3.328 1.133 5.567 1.955 0.879 0.226 2.608 0.609 5.186 1.147z" clip-rule="evenodd" fill="url(#ab)" fill-rule="evenodd"/>
		<use transform="matrix(.85 0 0 -.85 1.25 14.8)" y="-9.262" width="43.788" height="9.264" enable-background="new" opacity=".4297" xlink:href="#aj"/>
		<linearGradient id="ac" x1="-.00048828" x2="45.524" y1="12.013" y2="12.013" gradientTransform="matrix(.85 0 0 .85 .00012207 4.55)" gradientUnits="userSpaceOnUse">
		<stop stop-color="#F7EDB0" offset="0"/>
		<stop stop-color="#C7AB48" offset="1"/>
	</linearGradient>
	<path d="m36.677 14.239c1.643 1.559 2.21 2.989 1.7 4.293-0.482 1.274-1.927 2.224-4.336 2.847-1.982 0.511-4.292 0.539-6.927 0.086-3.032-0.709-5.383-1.205-7.055-1.487-1.87-0.284-4.874-0.199-9.01 0.255-4.647 0.509-7.537 0.736-8.67 0.68-2.012-0.057-2.748-0.935-2.21-2.636 0.368-1.161 1.417-2.818 3.145-4.972 3.003-3.711 7.239-5.567 12.707-5.567 4.562 0 8.826 0.694 12.792 2.083 3.429 1.189 6.05 2.662 7.864 4.418z" clip-rule="evenodd" fill="url(#ac)" fill-rule="evenodd"/>
		<use transform="matrix(.85 0 0 -.85 .4502 8.1001)" x="0.052" y="-14.177" width="44.596" height="14.177" enable-background="new" opacity=".8281" xlink:href="#ai"/>
		<linearGradient id="ad" x1=".5474" x2="45.198" y1="10.831" y2="10.831" gradientTransform="matrix(.85 0 0 .85 .00012207 4.55)" gradientUnits="userSpaceOnUse">
		<stop stop-color="#F0B543" offset="0"/>
		<stop stop-color="#C48C1B" offset="1"/>
	</linearGradient>
	<path d="m36.591 13.304c1.588 1.332 2.14 2.55 1.658 3.655-0.453 1.105-1.87 1.926-4.25 2.465-1.955 0.453-4.235 0.467-6.842 0.042-2.975-0.595-5.285-1.006-6.928-1.232-1.842-0.255-4.803-0.185-8.882 0.213-4.618 0.425-7.465 0.623-8.542 0.595-1.983-0.057-2.706-0.808-2.167-2.252 0.368-1.02 1.402-2.451 3.102-4.292 2.975-3.173 7.154-4.76 12.537-4.76 4.448 0 8.627 0.595 12.538 1.785 3.371 1.019 5.963 2.28 7.776 3.781z" clip-rule="evenodd" fill="url(#ad)" fill-rule="evenodd"/>
		<use transform="matrix(.8378 .1433 .1433 -.8378 5.5 8.1499)" y="-6.887" width="44.271" height="6.898" enable-background="new" opacity=".4297" xlink:href="#ak"/>
		<linearGradient id="ae" x1="3.2583" x2="50.158" y1="6.6685" y2="6.6685" gradientTransform="matrix(.8378 .1433 -.1433 .8378 4.1496 1.7002)" gradientUnits="userSpaceOnUse">
		<stop stop-color="#F7EDB0" offset="0"/>
		<stop stop-color="#C7AB48" offset="1"/>
	</linearGradient>
	<path d="m43.493 13.172c2.144 1.919 2.13 3.426-0.04 4.521-2.05 1.058-4.344 1.197-6.885 0.418-3.627-1.138-7.675-2.262-12.143-3.371-6.37-1.578-11.354-2.517-14.953-2.816-3.682-0.314-4.811-1.197-3.384-2.649 1.184-1.206 3.165-2.203 5.944-2.993 1.992-0.55 4.121-0.819 6.39-0.805 1.924 0.013 4.604 0.227 8.039 0.643 3.916 0.468 7.173 1.255 9.771 2.361 2.464 1.054 4.885 2.618 7.261 4.691z" clip-rule="evenodd" fill="url(#ae)" fill-rule="evenodd"/>
	<path d="m42.915 12.771c2.141 1.602 2.266 2.802 0.376 3.6-1.792 0.729-3.937 0.75-6.436 0.063-3.34-0.974-7.278-1.978-11.816-3.012-6.198-1.406-11.052-2.265-14.563-2.577-3.571-0.295-4.535-1.049-2.89-2.263 1.383-1.028 3.434-1.841 6.151-2.44 1.879-0.397 3.806-0.571 5.781-0.521 1.285 0.047 3.729 0.293 7.333 0.737 3.687 0.458 6.776 1.217 9.269 2.275 2.065 0.871 4.33 2.251 6.795 4.138z" clip-rule="evenodd" fill="#946114" fill-rule="evenodd"/>
		<linearGradient id="af" x1="4.46" x2="49.261" y1="5.6323" y2="5.6323" gradientTransform="matrix(.8388 .1372 -.1505 .8367 4.1497 1.6998)" gradientUnits="userSpaceOnUse">
		<stop stop-color="#F0B543" offset="0"/>
		<stop stop-color="#C48C1B" offset="1"/>
	</linearGradient>
	<path d="m42.805 12.408c2.141 1.602 2.251 2.799 0.334 3.592-1.797 0.756-3.927 0.78-6.393 0.071-3.76-1.046-7.715-2.039-11.866-2.978-6.227-1.41-11.081-2.27-14.563-2.578-3.566-0.322-4.528-1.09-2.883-2.304 1.351-1.005 3.415-1.816 6.193-2.433 1.879-0.397 3.792-0.573 5.739-0.527 1.313 0.052 3.757 0.298 7.333 0.737 3.659 0.453 6.749 1.212 9.27 2.275 2.036 0.866 4.315 2.247 6.836 4.145z" clip-rule="evenodd" fill="url(#af)" fill-rule="evenodd"/>
		<use transform="matrix(.8378 .1433 .1433 -.8378 15.2 3.6001)" x="0.033" y="-6.84" width="28.882" height="6.822" enable-background="new" opacity=".6992" xlink:href="#am"/>
		<use transform="matrix(.8378 .1433 .1433 -.8378 17.15 4.3501)" x="-0.05" y="-2.805" width="22.583" height="2.818" enable-background="new" opacity=".5" xlink:href="#al"/>
		<linearGradient id="u" x1="25.802" x2="29.802" y1="4.8179" y2="4.8179" gradientTransform="matrix(.8378 .1433 -.1433 .8378 4.1496 1.7002)" gradientUnits="userSpaceOnUse">
		<stop stop-color="#B87B18" offset="0"/>
		<stop stop-color="#AC7314" offset=".9569"/>
	</linearGradient>
	<path d="m27.677 9.346c0.572 0.184 0.842 0.374 0.808 0.569-0.056 0.163-0.366 0.296-0.931 0.401-0.531 0.082-1.026 0.04-1.487-0.125-0.433-0.16-0.736-0.399-0.912-0.716-0.147-0.313 0.039-0.482 0.562-0.508 0.46-7e-3 1.113 0.119 1.96 0.379z" clip-rule="evenodd" fill="url(#u)" fill-rule="evenodd"/>
		<linearGradient id="v" x1="35.162" x2="37.037" y1="3.5864" y2="3.5864" gradientTransform="matrix(.8378 .1433 -.1433 .8378 4.1496 1.7002)" gradientUnits="userSpaceOnUse">
		<stop stop-color="#B87B18" offset="0"/>
		<stop stop-color="#AC7314" offset=".9569"/>
	</linearGradient>
	<path d="m33.929 9.596c0.833 0.171 0.996 0.313 0.488 0.428-0.536 0.109-0.939 0.112-1.21 9e-3 -0.214-0.094-0.222-0.21-0.025-0.35 0.163-0.115 0.413-0.144 0.747-0.087z" clip-rule="evenodd" fill="url(#v)" fill-rule="evenodd"/>
		<linearGradient id="w" x1="39.15" x2="40.35" y1="2.1401" y2="2.1401" gradientTransform="matrix(.8378 .1433 -.1433 .8378 4.1496 1.7002)" gradientUnits="userSpaceOnUse">
		<stop stop-color="#B87B18" offset="0"/>
		<stop stop-color="#AC7314" offset=".9569"/>
	</linearGradient>
	<path d="m37.412 8.898c0.354 0.119 0.399 0.27 0.138 0.455-0.239 0.218-0.485 0.233-0.741 0.046-0.232-0.155-0.25-0.302-0.054-0.44 0.164-0.117 0.383-0.136 0.657-0.061z" clip-rule="evenodd" fill="url(#w)" fill-rule="evenodd"/>
	<path d="m37.772 9.563c0.53 0.091 0.861 0.09 0.992-3e-3 0.356 0.435 0.312 0.614-0.135 0.538-0.95-0.163-1.824-0.096-2.621 0.198-0.537 0.282-0.924 0.446-1.162 0.492-0.392 0.105-0.965 0.093-1.719-0.036-1.731-0.296-3.344-0.112-4.837 0.553-0.653 0.291-1.482 0.264-2.487-0.081-0.73-0.269-1.416-0.63-2.057-1.085-0.659-0.515-1.179-0.92-1.56-1.215-0.743-0.529-1.529-0.98-2.356-1.351-0.377-0.151-1.498-0.487-3.364-1.007-1.208-0.321-1.73-0.626-1.566-0.914 0.019-0.112 0.106-0.198 0.26-0.258 0.059 0.327 0.763 0.663 2.112 1.008 2.411 0.527 4.35 1.376 5.816 2.547 0.353 0.29 0.908 0.745 1.664 1.362 0.753 0.474 1.525 0.664 2.318 0.569 0.526-0.054 1.274-0.228 2.245-0.521 0.667-0.202 1.253-0.274 1.761-0.216 0.475 0.081 1.126 0.221 1.955 0.42 0.665 0.143 1.188 0.117 1.564-0.077 1.448-0.73 2.507-1.037 3.177-0.923z" clip-rule="evenodd" fill="#915600" fill-rule="evenodd"/>
</svg>
