<svg xmlns="http://www.w3.org/2000/svg" xmlns:xlink="http://www.w3.org/1999/xlink" version="1.1" id="svg-edited-version" x="0px" y="0px" viewBox="0 0 595.3 595.3" enable-background="new 0 0 595.3 595.3" xml:space="preserve" class="injected-svg" data-src="https://preview.pixlr.com/images/svg/100/1/531c7df2a1e297de3b26c57f98d93f98cad14505c37a1f307068174d9847e65d.svg">
<g>
	<path fill="#50A545" d="M115.6,453.6c-0.2-0.3-0.3-0.7-0.5-1c-3.4-29.6-10.9-64.1-25-102.7c17.4,16.5,33.5,37.2,47.6,60   C129.8,422.8,122.4,437.3,115.6,453.6z M445.5,416.9c1.4,1.3,2.8,2.7,4.2,4.1c0,0,0,0,0.1,0.1c1.4,1.3,2.7,2.7,4.1,4   c0,0,0.1,0.1,0.1,0.1c1.3,1.3,2.6,2.7,3.9,4c0.1,0.1,0.1,0.1,0.2,0.2c1.3,1.3,2.5,2.6,3.8,4c0.1,0.1,0.1,0.2,0.2,0.2   c1.2,1.3,2.4,2.6,3.6,3.9c0.1,0.1,0.2,0.2,0.3,0.3c1.2,1.3,2.3,2.6,3.4,3.8c0.1,0.1,0.2,0.3,0.3,0.4c1.1,1.3,2.2,2.5,3.2,3.8   c0.1,0.2,0.3,0.3,0.4,0.5c1,1.2,2.1,2.5,3.1,3.7c0.2,0.2,0.3,0.4,0.5,0.6c0.9,1.1,1.8,2.2,2.7,3.3c0.4-0.8,0.8-1.6,1.2-2.3   c1.9-34,9-76.6,27-125.6c-24.6,23.4-46.8,55.1-63.9,89.4C444.4,415.9,444.9,416.4,445.5,416.9C445.5,416.9,445.5,416.9,445.5,416.9   z M92.7,540.2L92.7,540.2h44.5c-13.3-27.8-35.9-56.7-62.6-81.2c-23.2-21.3-49.4-39.3-75.2-50.3c45.5,53,64.5,101.2,72.4,131.5H92.7   z M458.1,540.2h50.8l0,0h14.6c7.9-30.3,26.9-78.5,72.4-131.5c-25.7,11-52,29-75.2,50.3C494.1,483.5,471.5,512.4,458.1,540.2z" originalFill="#50A545"/>
	<path fill="#939894" d="M479.6,453.9c-13.8,28.3-24.2,58.2-29.6,86.3H145.3c-0.9-4.7-2-9.5-3.2-14.4c-3.3-13.6-7.8-27.4-13-41.1   c-4-10.5-8.6-20.9-13.6-31.1c6.8-16.3,14.2-30.8,22-43.8c38.3-63.4,86.9-87.6,127.1-87.6c19.4,0,42.3,6.3,66.1,16.8c0,0,0,0,0,0   c1.8,0.8,3.7,1.6,5.5,2.5c0.3,0.1,0.6,0.3,1,0.5c1.5,0.7,3.1,1.5,4.6,2.2c0.4,0.2,0.8,0.4,1.2,0.6c1.5,0.7,3,1.5,4.5,2.3   c0.4,0.2,0.8,0.4,1.2,0.6c1.5,0.8,3.1,1.6,4.6,2.4c0.3,0.2,0.7,0.4,1,0.5c1.8,1,3.5,1.9,5.3,2.9c0.1,0.1,0.2,0.1,0.3,0.2   c5.8,3.3,11.7,6.8,17.5,10.4c0.1,0,0.1,0.1,0.2,0.1c1.8,1.2,3.6,2.3,5.4,3.5c0.2,0.1,0.4,0.3,0.6,0.4c1.7,1.1,3.4,2.3,5.1,3.4   c0.2,0.1,0.4,0.3,0.6,0.4c1.8,1.2,3.5,2.4,5.3,3.6c0.1,0.1,0.2,0.1,0.3,0.2c9.5,6.7,18.8,13.8,27.8,21.2   c7.8,6.4,15.4,13.1,22.5,19.9c0,0,0,0,0,0c1.4,1.3,2.8,2.7,4.2,4.1c0,0,0,0,0.1,0.1c1.4,1.3,2.7,2.7,4.1,4c0,0,0.1,0.1,0.1,0.1   c1.3,1.3,2.6,2.7,3.9,4c0.1,0.1,0.1,0.1,0.2,0.2c1.3,1.3,2.5,2.6,3.8,4c0.1,0.1,0.1,0.2,0.2,0.2c1.2,1.3,2.4,2.6,3.6,3.9   c0.1,0.1,0.2,0.2,0.3,0.3c1.2,1.3,2.3,2.6,3.4,3.8c0.1,0.1,0.2,0.3,0.3,0.4c1.1,1.3,2.2,2.5,3.2,3.8c0.1,0.2,0.3,0.3,0.4,0.5   c1,1.2,2.1,2.5,3.1,3.7c0.2,0.2,0.3,0.4,0.5,0.6C477.8,451.7,478.7,452.8,479.6,453.9z" originalFill="#939894"/>
	<path opacity="0.11" d="M449.9,540.2H145.3c-0.9-4.7-2-9.5-3.2-14.4c120.1-10.7,235.7-61.8,280.8-128.8   c7.8,6.4,15.4,13.1,22.5,19.9c0,0,0,0,0,0c1.4,1.3,2.8,2.7,4.2,4.1c0,0,0,0,0.1,0.1c1.4,1.3,2.7,2.7,4.1,4c0,0,0.1,0.1,0.1,0.1   c1.3,1.3,2.6,2.7,3.9,4c0.1,0.1,0.1,0.1,0.2,0.2c1.3,1.3,2.5,2.6,3.8,4c0.1,0.1,0.1,0.2,0.2,0.2c1.2,1.3,2.4,2.6,3.6,3.9   c0.1,0.1,0.2,0.2,0.3,0.3c1.2,1.3,2.3,2.6,3.4,3.8c0.1,0.1,0.2,0.3,0.3,0.4c1.1,1.3,2.2,2.5,3.2,3.8c0.1,0.2,0.3,0.3,0.4,0.5   c1,1.2,2.1,2.5,3.1,3.7c0.2,0.2,0.3,0.4,0.5,0.6c0.9,1.1,1.8,2.2,2.7,3.3C465.7,482.3,455.4,512.1,449.9,540.2z" fill="#000000" originalFill="#000000"/>
	<path fill="#F27127" d="M437.7,261.3c0,0,3.6,9.4,5.3,15.7c8.6,31.1-12.1,50.7-33.3,56.5c-9.4,2.6-65.2-5.9-133.4-57.1   c-4.5-3.4-9.6-5.8-14.6-8.4c-2.1-6.8-4.7-16-4.8-16.5c-25.6-93.1-16.2-142.2-3-177.1c3.2-8.3,12.9-16.8,18.7-18.3   c18.4-5.1,29.7,9.3,34.8,27.8c2.9,10.4,3.5,21.4,6.3,31.7c1.2,4.5,2.9,8.9,5.4,13c15.9,0.2,34.3,3.6,38.6,19   c2.2,8.2,2.1,26.6,1.8,35.3c15.1-0.4,42.3-16,62.3,15c3.1,4,4.9,8.6,6.2,13.4c4.4,16.2-0.1,15.7,1.6,21.7   c1.5,5.3,9.2,6.8,10.7,12.5C441.7,250.3,436.1,255.6,437.7,261.3z" originalFill="#F27127"/>
	<path fill="#196332" d="M142.2,525.9c1.2,4.8,2.2,9.6,3.2,14.4h-8.2c-13.3-27.8-35.9-56.7-62.6-81.2c-3.7-28.5-11-61.4-24.4-97.8   c25.1,23.9,47.7,56.4,64.9,91.4c0.2,0.3,0.3,0.7,0.5,1c5,10.2,9.5,20.6,13.6,31.1C134.4,498.5,138.8,512.3,142.2,525.9z    M480.7,451.6c-0.4,0.8-0.8,1.6-1.2,2.3c0,0,0,0,0,0c-13.8,28.3-24.2,58.2-29.6,86.3h8.2c13.3-27.8,35.9-56.7,62.6-81.2   c3.7-28.5,11-61.4,24.4-97.8C520.3,384.8,497.9,417,480.7,451.6z M370,332.5c-40.3-12.6-81.3-51.2-87.8-54.2   c-11.5-5.3-18.7-19.1-30.2-16c-0.1,0-0.1,0.1-0.2,0.1c-0.1-0.5-0.2-0.9-0.3-1.4c-0.3-0.8-0.6-1.6-1-2.3c-3.7-4.2-9.5-5.8-14.6-4.5   c-3.6,0.9-6.3,3.1-8.2,5.9c-6-2.7-8.7-8.3-7.6-15.8c1.3-8.5,5.2-16.4,9-24.1c2.7-5.4,5.4-11,7.3-16.8c2.7-8.4,3.3-21.3-1.8-29.6   c-2.8-4.5-6.8-7.2-12-8.1c-3.6-0.6-6.9,0.5-9.5,3.2c-2.2,2.3-3.8,5.6-4.4,9.3c-1.8,10.7,4.3,16.6,9.2,17.4c3.5,0.6,6.5-0.6,8.1-3.1   c1.8-2.9,1.5-7-0.8-10.2c-0.3-0.4-1-0.6-1.4-0.2c-0.4,0.3-0.6,0.9-0.2,1.4c1.8,2.5,2.1,5.8,0.7,8c-1.2,1.9-3.3,2.7-6.1,2.2   c-4-0.7-9-5.8-7.5-15.1c0.5-3.3,1.9-6.3,3.8-8.3c1.5-1.5,4-3.2,7.7-2.6c4.6,0.8,8.2,3.2,10.7,7.2c4.8,7.8,4.2,20,1.6,28   c-1.8,5.7-4.6,11.2-7.2,16.6c-3.9,7.8-7.9,15.9-9.2,24.7c-1.2,8.3,1.9,14.7,8.5,17.8c-0.8,1.6-1.4,3.3-1.7,5   c-2.4-1-4.3-2.9-6.8-5.6c-6.4-6.8-10.4-15.3-14.2-23.4c-3.5-7.5-6.9-14.6-11.8-19.8c-9-9.7-24.7-14.4-33.7-6.1   c-5.8,5.5-3.3,13.5,1.5,18.6c7.4,7.9,15.8,6.8,19.4,3.4c2.6-2.5,3.5-5.5,2.5-8.3c-1.2-3.2-4.6-5.5-8.6-5.6c-0.5,0-1,0.4-1,1   c0,0.6,0.4,1,1,1c3.1,0.1,5.9,1.9,6.8,4.3c0.8,2.1,0.1,4.3-2,6.2c-3,2.8-10.1,3.6-16.5-3.3c-4.1-4.4-6.4-11.3-1.6-15.8   c8.1-7.6,22.5-3,30.9,6c4.7,5,8,12,11.5,19.3c3.9,8.3,8,16.9,14.6,23.9c2.8,3,5.2,5.2,8,6.2c-0.6,7.5,3.9,14.5,14.3,11.9   c3.3-0.8,6.2-2.8,8.4-5.4c5.5,2.9,7.8,9.7,12.8,16c-2.3,0.5-4.7,0.9-7,1.4c-3,0.6-6.1,1.2-9.1,1.8c-0.4,0.1-0.6,0.3-0.7,0.7   c-1.9,6.6-2.1,13.6-2.4,20.5c-0.1,3.2-0.2,6.4-0.5,9.6c0,0.6,0.4,1,0.9,1.1c0,0,0.1,0,0.1,0c0.5,0,0.9-0.4,1-0.9   c0.3-3.2,0.4-6.5,0.5-9.7c0.2-6.5,0.4-13.2,2.1-19.4c2.8-0.6,5.7-1.2,8.5-1.7c2.7-0.5,5.4-1,8.1-1.6c2.3,2.6,5.1,5,8.8,7.1   c-2.4-0.1-4.8-0.2-7.2-0.2c-0.4,0-0.8,0.1-1,0.4c-8.3,9.8-9.9,17.2-10.9,36c0,0.6,0.4,1,0.9,1c0,0,0,0,0.1,0c0.5,0,1-0.4,1-1   c0.9-18.4,2.4-25.3,10.1-34.5c4.1,0,8.2,0.2,12.5,0.7c0.8,0.3,1.6,0.7,2.4,1c-1.5,1.5-2.8,3-4.1,4.5c-1.4,1.6-2.8,3.3-4.3,4.8   c-0.2,0.2-0.3,0.4-0.3,0.7c0,8.9,0.2,14.9,3.2,23.1c0.1,0.4,0.5,0.7,0.9,0.7c0.1,0,0.2,0,0.3-0.1c0.5-0.2,0.8-0.8,0.6-1.3   c-2.8-7.8-3.1-13.5-3.1-22c1.5-1.5,2.8-3.1,4.2-4.6c1.4-1.7,2.9-3.4,4.5-4.9c2.3,1,4.5,2,6.6,3c-1.4,3.2-2.4,6.6-3.3,9.8   c-0.4,1.3-0.7,2.6-1.1,3.8c-0.1,0.3,0,0.7,0.2,1c0.8,0.9,1.6,1.7,2.4,2.5c4.3,4.6,8.8,9.4,11.3,15.4c0.2,0.4,0.5,0.6,0.9,0.6   c0.1,0,0.3,0,0.4-0.1c0.5-0.2,0.7-0.8,0.5-1.3c-2.7-6.3-7.3-11.2-11.7-16c-0.7-0.7-1.3-1.4-2-2.1c0.3-1.1,0.7-2.2,1-3.3   c0.9-3.2,1.9-6.5,3.2-9.6c59.9,27.7,62.5,45.1,77.8,40.9C376.7,346.4,373.5,333.6,370,332.5z" originalFill="#196332"/>
	<path opacity="0.11" d="M115.1,452.6c-0.3-2.9-0.7-5.9-1.2-8.9c4.6-14.1,12-26.7,21-38.1c0.9,1.4,1.8,2.9,2.7,4.3   c-7.8,12.9-15.2,27.5-22,43.8C115.4,453.3,115.2,453,115.1,452.6z M445.5,416.9c1.4,1.3,2.8,2.7,4.2,4.1c0,0,0,0,0.1,0.1   c1.4,1.3,2.7,2.7,4.1,4c0,0,0.1,0.1,0.1,0.1c1.3,1.3,2.6,2.7,3.9,4c0.1,0.1,0.1,0.1,0.2,0.2c1.3,1.3,2.5,2.6,3.8,4   c0.1,0.1,0.1,0.2,0.2,0.2c1.2,1.3,2.4,2.6,3.6,3.9c0.1,0.1,0.2,0.2,0.3,0.3c1.2,1.3,2.3,2.6,3.4,3.8c0.1,0.1,0.2,0.3,0.3,0.4   c1.1,1.3,2.2,2.5,3.2,3.8c0.1,0.2,0.3,0.3,0.4,0.5c1,1.2,2.1,2.5,3.1,3.7c0.2,0.2,0.3,0.4,0.5,0.6c0.9,1.1,1.8,2.2,2.7,3.3   c0.4-0.8,0.8-1.6,1.2-2.3c0-0.4,0.1-0.9,0.1-1.3c-10.7-14.1-22.5-26.1-35.4-37.9c-0.5,1-1.1,2-1.6,3.1   C444.4,415.9,444.9,416.4,445.5,416.9C445.5,416.9,445.5,416.9,445.5,416.9z M73.6,452.1c0.3,2.3,0.7,4.7,1,7   c26.6,24.5,49.2,53.4,62.6,81.2h5C123.4,507.9,105.8,474.1,73.6,452.1z M-0.2,408.9c-0.1-0.1-0.2-0.1-0.4-0.2   c45.5,53,64.5,101.2,72.4,131.5h6.3C64.6,490.1,37.5,444-0.2,408.9z M520.7,459c0.3-2.1,0.6-4.3,0.9-6.4   c-27.7,24.5-52.7,53.7-68.9,87.6h5.5C471.5,512.4,494.1,483.5,520.7,459z M594.6,410.2c-39.5,35-64.1,82.1-83.7,130.1h12.5   C531.3,510.2,550.1,462.6,594.6,410.2z M129.1,484.8c5.3,13.7,9.7,27.6,13,41.1c120.1-10.7,235.7-61.8,280.8-128.8   c-9-7.4-18.3-14.5-27.8-21.2c-0.1-0.1-0.2-0.1-0.3-0.2c-1.8-1.2-3.5-2.4-5.3-3.6c-0.2-0.1-0.4-0.3-0.6-0.4   c-1.7-1.2-3.4-2.3-5.1-3.4c-0.2-0.1-0.4-0.3-0.6-0.4c-1.8-1.2-3.6-2.4-5.4-3.5c-0.1,0-0.1-0.1-0.2-0.1c-5.8-3.7-11.6-7.2-17.5-10.4   c-0.1-0.1-0.2-0.1-0.3-0.2c-1.8-1-3.5-2-5.3-2.9c-0.3-0.2-0.7-0.4-1-0.5c-1.5-0.8-3.1-1.6-4.6-2.4c-0.4-0.2-0.8-0.4-1.2-0.6   c-1.5-0.8-3-1.5-4.5-2.3c-0.4-0.2-0.8-0.4-1.2-0.6c-1.5-0.8-3.1-1.5-4.6-2.2c-0.3-0.2-0.6-0.3-1-0.5c-1.8-0.9-3.7-1.7-5.5-2.5   c0,0,0,0,0,0c2,5.9,3,12,3,17.9C333.8,417.8,243,472.5,129.1,484.8z M367.7,344.1c-16.4,4.5-18.3-15.7-91-46.8   c-18.6-6.8-19-22.3-28.1-27.1c-2.2,2.6-5.1,4.6-8.4,5.4c-10.4,2.5-14.9-4.5-14.3-12.1c-3.6,9,0.2,20.4,13,17.3   c3.3-0.8,6.2-2.8,8.4-5.4c9.1,4.9,9.5,20.3,28.1,27.1c72.7,31.1,74.6,51.3,91,46.8c5.3-1.5,7-5.6,6.9-9.4   C372.3,341.7,370.5,343.3,367.7,344.1z" fill="#000000" originalFill="#000000"/>
	<path fill="#FED401" d="M349.5,201.7c-1.3-0.8-0.8-2.9,0.8-2.9l9.7-0.2c4.8-0.1,9.4-1.1,14.4-2.1c5-1,10.1-2.1,14.9-2.1   c6.1,0,12.6,1.5,19.4,12.1l0.3,0.5l0.4,0.5c1.3,1.7,2.4,4,3.3,7c-6.7-2.5-14-3.8-21.5-4.5C377.8,208.6,361.4,208.9,349.5,201.7z    M414.3,223.4c-21.1-10.2-49.7-2.7-69.4-15.4c-1.5-1-3.2,0.8-2.1,2.3c3.7,4.9,10.8,8.7,15.1,10.8c11.3,5.5,24.3,6.2,36,10.5   c8.3,3,16.3,6.9,23.4,11.9c-1.1-1.8-2.1-3.8-2.8-6.2c-1.6-5.8-0.8-10-0.3-12.5C414.2,224.4,414.3,224,414.3,223.4z M366.6,240.5   c12.6,5.1,25.6,10,36.9,17.8c10.6,7.3,19.1,16.3,25.3,26.7c-0.2-1.3-0.5-2.6-0.9-3.9c-1-3.8-3.2-9.8-4.8-14.2l-0.3-0.8l-0.2-0.7   c-0.8-3-1-5.9-0.7-8.5c-4.9-5.1-10.9-9.3-17.4-12.7c-12.4-6.5-25.4-8.6-38.7-12.5c-5.2-1.5-12.6-4.4-19.1-8.5   c-1.5-0.9-3.1,0.9-2.1,2.3C349.7,232.5,358.3,237.2,366.6,240.5z M274.9,196.7c0.3-13.2,2.5-26.5,1.7-39.7   c-0.4-6.9-1.6-14.2-4.8-20.4c-1.7-3.3-6.5-8.6-10.5-8.9c-8.7-0.7-4.9,21.7-4.8,26.3c0.2,7.9,0.8,15.8,1.6,23.6   c2.1,19.5,6,38.9,10.8,57.9c0.1,0.4,0.2,0.9,0.3,1.3c0.5,1.9,3.2,1.7,3.4-0.3C274,223.4,274.6,210.1,274.9,196.7z M301.1,211.8   c4-12.3,7.3-28.6-1.2-39.8c-3.7-4.9-11.8-6.2-15.5-0.5c-4.2,6.5-1.4,15.4-1.8,22.6c-0.8,16.4-1.7,32.9-3.4,49.3   c-0.5,4.3,5.1,6.4,7.6,2.8C293.8,236,297.6,222.6,301.1,211.8z M323.4,241.1c5.4-6.1,9.4-14.2,9.1-22.5c-0.2-6.9-5.8-13.5-12.9-14   c-6.9-0.5-10.4,5.6-12.6,11.2c-5.3,13.8-9.1,30.2-19.6,41.3c-1.2,1.2-0.1,3.2,1.6,2.9C302.1,257.5,314.7,250.9,323.4,241.1z    M297,266.1c-1.5,0.4-1.6,2.5-0.1,3c13.2,4.7,29.9,1.6,40.7-6.5c6.3-4.7,9.5-11,8.3-19c-0.5-3-1.6-6.6-4.2-8.5   c-4.1-3-7.4-0.5-9.2,3.4c-2.3,5-5.9,9.6-9.9,13.4C315.5,258.7,306.5,263.4,297,266.1z M321.9,277.5c-1.2-0.1-1.9,1.3-1,2.1   c8.1,7.3,21,10.1,31.2,7.5c6-1.5,10.2-5.1,11.7-11.2c0.6-2.3,0.9-5.2-0.4-7.4c-2-3.4-5.2-2.5-7.6-0.3c-3.2,2.9-7.1,5.1-11.1,6.6   C337.4,277.7,329.5,278.4,321.9,277.5z M272.7,73.8c-7.4,2.4-13.5,9-13.4,19.8c0,15.4,9.6,22.2,19.4,21.5   c9.9-0.7,19.4-9.2,19.4-22.4C298,79.3,285.7,69.7,272.7,73.8z M385.1,265.8c-9.3,3-17.1,11.4-17,25.1c0,19.5,12.1,28.2,24.6,27.3   c12.5-0.9,24.6-11.6,24.6-28.4C417.2,272.8,401.6,260.5,385.1,265.8z M331,196.5c-0.2,0.5,0.5,0.9,0.8,0.5c2.5-3.2,5-6.6,7.2-10.2   c12.5-20.8,5.4-34.6,2.1-36.6c-1.8-1.1-3.6-0.5-4.6,1.2C332.5,157.9,336.4,182.8,331,196.5z M309.8,196.4c-0.2,0.5,0.4,0.9,0.8,0.5   c2.6-3.1,5.2-6.4,7.5-9.9c13.2-20.4,6.6-34.4,3.2-36.5c-1.8-1.2-3.6-0.6-4.7,1C312.5,157.9,315.6,182.8,309.8,196.4z M283.1,162.2   c-0.2,0.5,0.5,0.9,0.8,0.5c2.4-3.2,4.8-6.7,6.9-10.3c12.1-21,4.7-34.7,1.2-36.6c-1.8-1.1-3.7-0.4-4.6,1.3   C283.7,123.6,288.1,148.4,283.1,162.2z" originalFill="#FED401"/>
</g>
</svg>