<svg xmlns="http://www.w3.org/2000/svg" xmlns:xlink="http://www.w3.org/1999/xlink" version="1.1" id="svg-edited-version" x="0px" y="0px" viewBox="0 0 595.3 595.3" enable-background="new 0 0 595.3 595.3" xml:space="preserve" class="injected-svg" data-src="https://preview.pixlr.com/images/svg/100/1/c926b149632cbb344dc608d52a1a821ab916c2ac8e512887c4ff9af62d439df5.svg">
<g>
	<path fill="#F79232" d="M321.1,495.5c-1.2,2-3.6,3-5.9,3.3c-7.3,1-15.7,1.5-22.8-0.8c-9-3-11.7-17.5-14.2-25.2   c-8.5-27-28.8-48.3-48.1-68.8c-0.1-0.1-0.2-0.2-0.3-0.3c-23.5,2.5-47.7,4.1-66.9,12c-0.8,0.4-1.5,0.7-2.2,1.1   c-4.8,1.1-9.5,2.6-14,4.6c-0.1,0.1-0.2,0.1-0.4,0.2c-22.7,10.2-36.7,26.3-36.4,51.1L110,488c1.4,1.7,2.2,4.1,0.8,5.6   c-0.8,0.9-2.1,1.1-3.3,1.2c-6.1,0.8-12.3,1.6-18.4,2.4c-2.3,0.3-5.1,0.4-6.5-1.5c-1.4-1.9-0.4-4.7,1-6.6c2.8-3.8,7.2-6.3,11.9-6.8   c1.3-23.2-15.1-36.5-6.6-61.4c2.7-7.9,10.7-17.4,15-24.6c6-10.2,8.2-26.2,10.2-39.5c-26.3-12.3-45.5-41.6-45.5-72.1   c0-33.4,33.4-63.9,69.9-57.8c10.4,1.7,18.8,4.5,26.3,9.3c4.3,3.7,8.1,7.9,11.4,12.6c4.4,6.4,7.7,13.6,8.5,21.3   c0.3,3.3-0.1,7.2-2.9,8.8c-4.4,2.5-9-2.5-12.4-6.2c-12.5-13.8-35.5-15.4-51.2-5.4c-15.7,10-23.9,29.7-22.7,48.3   c0.8,12.1,5.4,24.3,14.3,32.7c1.5,1.5,3.2,2.7,5,3.9c0.2-1.1,0.3-2.2,0.5-3.2c3-17.5,15.9-31.9,33.3-35.2c23-4.4,45-13.4,63.5-27.6   c6.7-5.2,12.9-11,18.5-17.5c0,0.1,0,0.2,0,0.4c1.6,10.7,3.8,21.6,9.1,31c5.3,9.4,14.4,17.3,25.1,18.7c15.2,2,29.8-10,34.8-24.6   c5-14.6,2.1-30.7-3.4-45.1c-4.8-12.5-11.4-24.2-16.7-36.5c6,5.8,13,10.8,20.8,14.6c9.2,39.9,22.3,80.6,14.5,121.4   c-4,23.1-16.4,35.9-33,43.5c0.1,0.3,0.1,0.6,0.2,0.9c2.2,11.5,2.9,23.2,4.3,34.8c1.7,13.1,4.5,26.1,8.2,38.8   c1.1,3.6,1.1,7.8,3.2,11c2,3.2,5.7,3.9,9.2,4.5c3.6,0.6,12.1,4.1,14.3,8.7C321.9,492.4,322,493.9,321.1,495.5z M351,167.2   c3.9,9.9,6.1,21.5,0.7,30.7c-6.7,11.4-22.8,13.9-35.4,9.6c-12.1-4.1-22.3-13.2-27.7-24.7c-7-15-5.7-32.5-3.2-48.9   c1.2-8,4.2-17.5,12.1-19.1c4.5-0.9,8.9,1.3,12.8,3.7C328.6,129.9,343.1,147.2,351,167.2z M325.1,146c-6.6-6-14.9-10.5-20.7-6.6   c-6,4.1-6.3,13.9-0.9,21.7c5.5,7.8,14.8,10.8,20.7,6.6C330.2,163.5,332.2,152.4,325.1,146z M363.8,408.8   c-10.2-14.6-20.9-29.6-36.3-38.4c-1-0.6-2.2-1.1-3.3-1.6c-1.2,3.4-2.4,6.2-3.2,7.9c-4.7,9.3-3.5,9.1-18.6,17.9   c-3.3,2-6.8,3.6-10.3,5.2c11.8,2.3,23.8,4.2,35.1,8.4c11.6,4.2,22.6,11.2,29.3,21.5c2.4,3.7,4.2,7.8,6.8,11.4   c2.6,3.6,6.3,6.7,10.7,7.2c4.4,0.5,9.3-2.3,9.9-6.7c0.4-3.3-1.6-6.3-3.5-9C374.8,424.6,369.3,416.7,363.8,408.8z M524,294.4   c4.1-0.4,8-2.3,11-5c9.2-8.5,10.3-22.3,8.7-34.5c-2.4-19.1-10.1-37.6-22-52.8c-2.3-3-6.7-3.5-9.7-1c-7.7,6.5-17.2,11-27.2,13   c-4,0.8-5.6,5.8-2.7,8.7c11.8,11.5,19.8,27,22.2,43.4c0.7,4.9,0.9,9.8,2.2,14.5C508.7,288.1,513.9,295.5,524,294.4z" originalFill="#F79232"/>
	<path fill="#FED9A8" d="M304.4,139.4c-6,4.1-6.3,13.9-0.9,21.7c5.5,7.8,14.8,10.8,20.7,6.6c6-4.2,7.9-15.3,0.9-21.7   C318.5,140,310.2,135.5,304.4,139.4z M320.2,162c-3.5,2.5-9,0.7-12.3-3.9c-3.3-4.6-3-10.4,0.5-12.9c3.5-2.5,9-0.7,12.3,3.9   c0.2,0.3,0.3,0.6,0.5,0.9c-1.5-0.8-3.3-0.8-4.8,0.2c-2.1,1.4-2.5,4.3-1,6.4c1.5,2.1,4.4,2.7,6.4,1.2c0.5-0.3,0.8-0.7,1.1-1.2   C322.8,158.9,321.9,160.8,320.2,162z" originalFill="#FED9A8"/>
	<path opacity="0.2" d="M175.8,278.6c-2.3-1.4-4.6-3.8-6.4-5.8c-12.5-13.8-35.5-15.4-51.2-5.4c-15.7,10-23.9,29.7-22.7,48.3   c0.8,12,5.4,24,14,32.4c-19-9.9-27.9-35.1-25.7-57.1c3-27.4,27.4-45.6,54.7-42.6C154.8,253.8,168.7,261.8,175.8,278.6z    M159.8,357.9c5.8,20.2,6,43.2-7,61.1c2.6-0.9,5.2-1.6,7.8-2.2c0.7-0.4,1.5-0.8,2.2-1.1c1.4-0.6,2.9-1.1,4.4-1.6   C175,396.3,174.9,375.9,159.8,357.9z M268.6,361.1c7.1,8.9,11,19.9,13.3,31.1c3.4-1.5,6.6-3.3,9.6-5.3   c-6.8-13.7-17.5-25.8-31.2-33.7C263.4,355.5,266.2,358.1,268.6,361.1z M216.2,386.5c-3.6-6.5-5.6-14.2-3.9-21.4   c2.7-11.4,14.4-19.3,26.1-19.5c1.3,0,2.5,0.1,3.8,0.2c-0.1,0-0.2-0.1-0.3-0.1c-15.2-3-30.4,3-33.4,15.2   c-2.5,16.4,0.2,31.2,6.4,44.3c5-0.5,10-1,14.9-1.5C224.8,398.3,219.8,392.9,216.2,386.5z" fill="#000000" originalFill="#000000"/>
	<path fill="#974021" d="M321.9,157.8c0.5-0.3,0.8-0.7,1.1-1.2c-0.2,2.2-1.1,4.1-2.8,5.3c-3.5,2.5-9,0.7-12.3-3.9   c-3.3-4.6-3-10.4,0.5-12.9c3.5-2.5,9-0.7,12.3,3.9c0.2,0.3,0.3,0.6,0.5,0.9c-1.5-0.8-3.3-0.8-4.8,0.2c-2.1,1.4-2.5,4.3-1,6.4   C316.9,158.7,319.8,159.3,321.9,157.8z M351,246.8c-9.6-3-19.1-6.7-28.5-10.4c1,16.1,2.5,32.2,4.2,48.9c3.6,4.7,7.9,8.5,13.4,10.4   c11,3.7,23.6-2.3,30-11.9c5.9-8.9,7.3-20.1,6-30.8C367.5,251.3,359.1,249.3,351,246.8z M214.8,463.7c-2.2-14.1,0-28.5,1.8-42.6   c0.4-3.1,0.7-6.1,1-9.2c-4.5,0.2-9,0.4-13.4,0.6c-12,0.7-24.2,0.9-36,2.8c7.4,8,15.5,15.4,22.1,24.1c6.5,8.7,11.4,19.6,11,30.2   c-0.1,3.5,2.4,6.6,5.9,7.2c6.4,1,13,4.5,18.8,0.6c1.8-1.2,3.2-3.2,3.2-5.4C229.4,465.8,221,463.7,214.8,463.7z M264.9,318.9   c15.2,2,29.8-10,34.8-24.6c5-14.6,2.1-30.7-3.4-45.1c-5.5-14.4-13.4-27.7-19-42c-13.6-34.6-24.7-83.5,6.2-107.9   c-14.5-2.2-32.6,6.2-40.7,18.4c-8.2,12.2-11.1,27.2-13.1,41.8c-4.9,36.3-4.5,73.4,1,109.6c1.6,10.7,3.8,21.6,9.1,31   C245.1,309.6,254.1,317.5,264.9,318.9z M482.3,222.6c-2.9-2.9-1.4-7.9,2.7-8.7c10-1.9,19.4-6.4,27.2-13c2.9-2.5,7.3-2,9.7,1   c0.6,0.8,1.2,1.7,1.8,2.5c8-9.9,13.1-22.2,13.6-34.7c0-0.8-0.1-1.5-0.4-2c1.9-1.8,3.6-4,4.9-6.2c6.4-11.2,7.8-25.3,3.2-37.3   c-3.1-8.1-8.9-15.3-16.5-19.4c-11.6-6.2-25.9-4.6-38.4-0.6c-13.1,4.3-25.4,11.2-35.9,20.2c-7.7,6.6-14.9,16.9-10.8,26.1   c3.4,7.5,12.7,10.3,20.9,10.6c17.2,0.6,36.4-5.2,50.5,4.8c3.1,2.2,5.8,5.1,9.4,6.1c2.1,0.6,4.1,0.5,6.1-0.1c-1.3,3.2-3,7.5-4,8.9   c-5.5,7.5-11.9,15.4-20.3,20.1c-6.8,3.8-14.1,4.4-21.6,2.7c-5.8-1.3-12.7-3.8-18.4-0.8c-8.6,4.4-4.8,16.4,1.6,21   c5.2,3.7,12,3.8,18.6,2.6C484.7,225.1,483.5,223.9,482.3,222.6z" originalFill="#974021"/>
	<path fill="#F6BE30" d="M110.1,367.4c-23.4-4.7-44.3-20.6-54.8-42c-10.5-21.4-10-47.9,1.5-68.8c11.5-20.9,33.9-35.4,57.7-37.1   c18.1-1.3,36.6,5.1,50.3,16.9c-7.6-4.8-16-7.5-26.3-9.3c-36.5-6.1-69.9,24.3-69.9,57.8c0,30.5,19.2,59.8,45.5,72.1   c-0.5,3.4-1.1,7.1-1.7,10.7C111.6,367.6,110.8,367.5,110.1,367.4z M230.1,403.9c-0.1-0.1-0.2-0.2-0.3-0.3   c-23.5,2.5-47.7,4.1-66.9,12c-0.8,0.4-1.5,0.7-2.2,1.1c14.1-3.3,29.1-3.4,43.7-4.2c10.6-0.6,21.5-0.9,32.3-1.6   C234.4,408.6,232.2,406.2,230.1,403.9z M530.9,216c8.2-8.7,10.9-18.2,3.2-27.4c-0.3-0.3-0.5-0.7-0.8-1c-2.3,6.1-5.7,11.8-9.8,16.9   C526.2,208.2,528.7,212,530.9,216z M494.9,239c-15.5,6.9-31.9,12-43.1,14.1c-32.5,6.1-69.4,3.6-100.9-6.3   c-9.6-3-19.1-6.7-28.5-10.4c2,32.8,6.4,65.9,9.1,102.8c0.5,7.2-7.4,31-10.6,37.5c-4.7,9.3-3.5,9.1-18.6,17.9   c-6,3.5-12.2,6.2-18.7,8.4c-0.4-3.3-0.9-6.5-1.5-9.8c-0.1-0.3-0.1-0.6-0.2-0.9c16.6-7.6,28.9-20.4,33-43.5   c7.8-40.7-5.3-81.5-14.5-121.4c-7.8-3.8-14.8-8.7-20.8-14.6c-0.8-1.8-1.6-3.7-2.3-5.5c-13.6-34.6-24.7-83.5,6.2-107.9   c-0.1,0-0.3,0-0.5,0c3.8-2.2,8-3.5,12.6-3.7c10.6-0.5,20.7,5.8,27.5,14c1.6,2,3.1,4,4.4,6.2c8.2,13.1,23.1,20.5,38.4,18.4   c33.4-4.7,66.6-10.7,99.5-18.1c-4,2.6-7.8,5.4-11.4,8.5c-7.7,6.6-14.9,16.9-10.8,26.1c3.4,7.5,12.7,10.3,20.9,10.6   c17.2,0.6,36.4-5.2,50.5,4.8c3.1,2.2,5.8,5.1,9.4,6.1c2.1,0.6,4.1,0.5,6.1-0.1c-1.3,3.2-3,7.5-4,8.9c-5.5,7.5-11.9,15.4-20.3,20.1   c-6.8,3.8-14.1,4.4-21.6,2.7c-5.8-1.3-12.7-3.8-18.4-0.8c-8.6,4.4-4.8,16.4,1.6,21c5.2,3.7,12,3.8,18.6,2.6   C489.3,230.3,492.3,234.5,494.9,239z M351,167.2c-7.9-20-22.4-37.3-40.7-48.6c-3.9-2.4-8.3-4.6-12.8-3.7   c-7.9,1.5-10.9,11.1-12.1,19.1c-2.5,16.4-3.8,33.8,3.2,48.9c5.4,11.5,15.7,20.7,27.7,24.7c12.5,4.2,28.6,1.7,35.4-9.6   C357,188.8,354.9,177.1,351,167.2z" originalFill="#F6BE30"/>
</g>
</svg>