<svg xmlns="http://www.w3.org/2000/svg" xmlns:xlink="http://www.w3.org/1999/xlink" version="1.1" id="svg-edited-version" x="0px" y="0px" viewBox="0 0 595.3 595.3" enable-background="new 0 0 595.3 595.3" xml:space="preserve" class="injected-svg" data-src="https://preview.pixlr.com/images/svg/100/1/8fd38efbbe15f09392c73b8d1e0748c5967d15674ef671b0ff69e6bbc371f24e.svg">
<g>
	<path fill="#F27C4D" d="M503.7,97.4c2.3-5.6,3.4-12.9-1-17.2c-2.7-2.6-6.8-3.3-10.6-3.4c-6.6-0.3-13.2,0.4-19.5,2   c-2.8,0.7-5.7,1.8-7.7,3.6c-4.4-3.7-9.4-6.5-14.5-8.5c-8.8-3.4-18.1-4.5-27.3-4.4c-9.2-0.1-18.5,1-27.3,4.4c-5,2-9.9,4.8-14.3,8.3   c-2.1-1.9-5-2.9-7.7-3.6c-6.4-1.6-13-2.2-19.6-1.9c-3.8,0.2-7.9,0.8-10.6,3.5c-4.4,4.3-3.3,11.6-0.9,17.2   c3.6,8.4,9.4,15.9,16.7,21.5c1.1,0.8,2.3,1.6,3.6,2.2c-0.5,3.5-1.1,7.2-1.9,10.8c-3,14.3-9.3,29.7-8.3,45.5   c0.3,4.5,1.2,8.8,2.5,12.8c0-0.1-0.1-0.2-0.1-0.3c-4.3,1-8.5,2.8-12.1,5.3c-11.6,7.9-17.8,20.4-21.8,33.1   c-4.4,14-6.5,28.3-6.8,42.8c-18.1,26.8-33.2,55.6-44.6,85.8c-1.6-1.8-3.4-3.5-5.3-5c-8.5-6.9-20.4-10.6-31.1-7.6   c-15.6,4.5-23.5,21.1-27.2,36.5c-6.5,27.5-5.3,56.6,3.2,83.6c-26.3,4.4-53.2,4.7-80,3.7c-1.7-0.1-3.5-0.2-5.2-0.2   c-1.2,0.8-2.1,1.4-2.1,1.4l23.1,9.6l-20.7,2.9l12.9,6.4l-20.5,0.7l1.4,1.1c32.5,5.4,65.9,9.5,98.3,7.1c-6.8,3.7-13,8.5-18.2,14.2   c-2.4,2.6-6,8.1-2.2,11.1c2.9,2.3,7.8,1.6,11.3,1.9c8.1,0.7,16.2,1.1,24.3,1.2c12.5,0.1,25-0.6,37.5-2c10.8-1.3,22.4-3.8,30.6-11.2   c3.6-3.3,5.8-7.1,6.9-11.3c0.9-3.5,1.1-7.2,0.8-10.9c16.9-5.5,32.1-15.8,44.6-32.9c1.5,13.6,1.8,27.7,0.1,43.6   c-0.2,0.4-0.5,1.7-0.8,3.4c-1.9,8.9,5.1,17.3,14.5,17.3h37.2c8.1,0,12.3-9.3,6.9-15.2c-2.4-2.6-4.9-5.1-7.5-7.4   c-0.5-0.5-1.1-1-1.6-1.4c-1.7-1.4-1.7-10.6-2-12.9c-0.7-4.9-1.3-9.8-1.9-14.7c-1-9-1.8-18-2.4-27c-2.5-39,0.5-77.5,0.4-116.5   c0-10.7-0.3-21.3-0.7-31.9c0.5-22.9,0.1-45.9-0.4-68.8c-0.3-0.2-0.7-0.5-1-0.7c8,5.6,17.1,8.5,26.4,8.5h7.9   c9.8,0,19.3-3.2,27.5-9.3c1.5-1.1,2.7-1.9,3.5-2.2c1.5-0.5,2.9-1,4.3-1.7c-0.1,0-0.2,0.1-0.2,0.1c2.4,7.1,3.9,14.6,5.1,22.1   c5.3,31.9,7.4,52.2,7.3,72.1c-8.8,45.4-24.6,93.1-49.1,132.7c-0.3,17.2-0.9,34.3-1.7,51.5c-0.4,8.7,6.8,15.9,15.7,15.9h36.2   c7.1,0,11.4-7.8,7.3-13.4c-2.2-3.1-4.9-5.8-7.9-8.2c-1.4-1.1-2.9-2.2-4.5-3.1c-1.3-0.7-2-2.1-2.1-3.5   c-2.5-70.1,18-140.5,20.6-211.1c0.8-21.6-0.2-43.8-8.3-63.9c-0.4-1-0.9-2-1.3-3.1l0,0c7.7-8,12.9-18.7,13.7-31.1   c1-15.8-5.3-31.3-8.3-45.5c-0.7-3.6-1.3-7.1-1.8-10.6c1.4-0.6,2.8-1.5,4-2.5C494.5,113.4,500.2,105.9,503.7,97.4z M213.3,381.3   c0.4-6.1,2.3-12.1,5.4-17.4c1-1.7,2.4-3.4,4.4-3.5c1.6-0.1,3.1,0.9,3.8,2.3c0.8,1.3,0.9,2.9,1,4.4c0.1,6.4-2.6,12.8-7.1,17.5   c-1.4,1.5-3.6,2.8-5.4,1.9C213.5,385.6,213.2,383.2,213.3,381.3z M209.4,411.5c-0.6-3.5-0.5-7.1,0.5-10.5c0.3-1.1,0.7-2.3,1.5-3.2   c0.8-0.9,2-1.5,3.2-1.2c1.2,0.2,2,1.2,2.5,2.3c0.4,1.1,0.4,2.2,0.4,3.4c-0.2,3.3-0.8,6.6-1.9,9.7c-0.6,1.6-1.7,3.4-3.4,3.2   C210.5,415,209.7,413.1,209.4,411.5z M223.1,444.1c-0.5,1.5-1.4,3.2-3,3.3c-1.4,0.1-2.5-1.2-3.2-2.3c-3.7-5.9-4.7-13.4-2.7-20   c0.4-1.5,1.2-3.1,2.8-3.5c1.1-0.3,2.2,0.1,3,0.9c0.8,0.7,1.4,1.7,1.8,2.7C224.5,431.1,225,437.9,223.1,444.1z M229.9,393.9   c-0.2,2-0.8,3.9-1.7,5.7c-0.6,1.2-1.6,2.4-2.9,2.4c-1.1,0-2-0.7-2.5-1.7c-0.4-0.9-0.5-2-0.4-3c0.1-1.9,0.4-3.7,1-5.5   c0.4-1.4,1.2-2.8,2.7-3.2c1.3-0.3,2.6,0.5,3.2,1.6C229.9,391.3,230,392.7,229.9,393.9z M315.9,333.9c1.9,0.3,3.2,2,3.7,3.8   c0.5,1.8,0.3,3.7,0,5.6c-0.4,3.2-0.9,6.5-2.9,9c-2,2.5-6.1,3.6-8.4,1.4c-1.7-1.7-1.8-4.4-1.4-6.7c0.5-3.1,1.5-6.1,3-8.8   C311.2,335.8,313.4,333.5,315.9,333.9z M295.9,319.5c0.3-5.8,2.5-11.4,6.1-16c1.8-2.3,4.6-4.4,7.3-3.6c3.3,1,4,5.4,3.5,8.8   c-0.9,5.5-3.5,10.8-7.4,14.8c-1.8,1.9-4.5,3.6-6.8,2.5C296.3,325.1,295.7,322,295.9,319.5z M282.2,363.9c-3.2-2-3.1-6.6-2.3-10.3   c1.7-7.7,4.9-15,9.5-21.3c1-1.4,2.4-3,4.1-3.1c2.4-0.2,4.1,2.3,5,4.6c3.4,9.3,0.9,20.4-6.2,27.4   C289.6,363.8,285.4,365.9,282.2,363.9z M315,404.3c-2.2,3.6-6.1,7.2-10.2,6.1c-2.3-0.6-4-2.5-4.9-4.7c-0.9-2.2-1-4.6-0.9-6.9   c0.2-6.5,1.9-12.9,4.8-18.7c1.1-2.1,2.3-4.2,4.2-5.6c1.9-1.4,4.5-2.1,6.7-1.3c3,1.2,4.3,4.7,4.8,7.9   C320.8,389,319.2,397.4,315,404.3z M324.1,274.2c-0.8-1.1-1.2-2.5-1.4-3.9c-1.5-7.9-1-16.1,1.4-23.7c0.5-1.6,1.3-3.4,2.9-3.9   c1.4-0.4,2.8,0.4,3.7,1.5c0.8,1.1,1.2,2.6,1.4,4c1.4,7.8,0.9,15.9-1.3,23.5c-0.5,1.7-1.3,3.5-3,4   C326.4,276.1,325,275.3,324.1,274.2z M334.3,299.7c-0.8,1.6-2.6,2.8-4.3,2.3c-1.6-0.5-2.5-2.3-2.9-3.9c-1-3.7-0.9-7.8,0.3-11.5   c0.5-1.6,1.6-3.3,3.3-3.3c0.9,0,1.7,0.7,2.3,1.3c2.2,2.6,2.3,6.4,2.3,9.8C335.2,296.2,335.1,298.1,334.3,299.7z M346.2,346.2   c-0.5,1.5-2,2.8-3.6,2.5c-1.5-0.2-2.5-1.7-3.1-3.2c-1.3-3.2-1.7-6.8-1-10.2c0.3-1.5,1.1-3.2,2.6-3.3c0.8-0.1,1.6,0.4,2.2,0.9   c2.3,2.1,2.8,5.4,3.1,8.5C346.6,343,346.8,344.7,346.2,346.2z M351.6,323.4c-0.3,2.2-1.3,4.9-3.5,5.1c-2.1,0.2-3.6-1.8-4.5-3.6   c-2.6-5.3-3.5-11.3-2.6-17.1c0.3-1.7,0.8-3.5,2.2-4.4c1.6-1,3.8-0.4,5.2,0.9c1.4,1.3,2,3.2,2.5,5   C352,313.8,352.3,318.7,351.6,323.4z M471.4,96c-8.8,6.2-16.1,14.5-21.3,23.9c-0.9,1.6-3.3,0.8-3-1.1c1.9-11.4,6.8-22.3,13.9-31.3   C465.1,89.5,468.7,92.4,471.4,96z M440.7,81.4c3.8-0.3,7.7,0.6,11.4,2.1c-3.3,4.8-6,10-7.9,15.5c-0.6,1.6-3,1.4-3.2-0.3   C440.2,92.9,440.1,86.8,440.7,81.4z M408.2,81.4c0.6,5.4,0.5,11.5-0.3,17.2c-0.2,1.7-2.6,2-3.2,0.3c-1.9-5.5-4.6-10.7-7.9-15.5   C400.5,82,404.4,81.1,408.2,81.4z M387.9,87.6c7.2,9,12,19.9,13.9,31.3c0.3,1.8-2.1,2.7-3,1.1c-5.2-9.4-12.5-17.7-21.3-23.9   C380.2,92.4,383.8,89.5,387.9,87.6z M354.6,108.6c-4.6-5.9-7.1-13.2-7.2-20.7c9.8-2.4,20.5-0.3,28.7,5.5c-4.4,7.6-7.5,16.8-9.2,25   C362.1,116.2,357.9,112.8,354.6,108.6z M484,169.1c-2.9-4.6-7.2-8.3-12.2-10.5c-1.2,9.4-5.7,18.3-12.4,24.9c1,1.9,1.9,3.9,2.8,6.1   c0,0,4.4,20.8,4.6,21.4c0.2,0.7-12,10.5-23,12.5l-20.7-5.9l-20.7,5.9c-10.9-2-23.2-11.8-23-12.5c0.2-0.7,4.6-21.4,4.6-21.4   c1.1-2.9,2.4-5.6,3.8-8c-5.7-6.4-9.5-14.5-10.7-23.1c-5,2.2-9.3,5.9-12.2,10.5c0.4-18.7,6.2-37.2,16.3-52.8   c11.3,4.9,22.7,11.6,29.5,21.6c-5.3,7.1-9.4,18.2-11.2,29.7c-0.1,0.1-0.1,0.1-0.2,0.2c-0.6,4.1-1,8.3-1,12.3c0,3.1,0.2,5.7,0.6,8   c2-5.6,12-5.5,24.1-5.5c11.6,0,21.2,0,23.8,4.9l0,0c0.3-2.1,0.5-4.6,0.5-7.4c0-4.1-0.4-8.4-1-12.6c0.1,0.1,0.2,0.1,0.2,0.2   c0,0,0,0,0,0c-1.6-10.5-5.1-20.7-9.8-27.8c6.5-11.2,18.7-18.4,30.8-23.7C477.8,131.9,483.5,150.4,484,169.1z M479.9,118.3   c-0.3-0.9-0.6-1.8-0.9-2.7c-1.4-7.5-3.5-16.1-7.5-23c7.9-5.2,18.1-7,27.3-4.8c0,7.4-2.5,14.8-7,20.7   C488.7,112.7,484.5,116,479.9,118.3z" originalFill="#F27C4D"/>
	<path fill="#414042" d="M117.1,489l1.4,1.1c-3.7-0.6-7.5-1.3-11.2-1.9c-4.8-0.8-9.8-1.8-13.5-4.8c-3.8-3.1-5.7-8.9-2.9-12.9   c2.9-4,8.7-4,13.6-3.7c6.6,0.4,13.2,0.8,19.9,1.1c-1.2,0.8-2.1,1.4-2.1,1.4l23.1,9.6l-20.7,2.9l12.9,6.4L117.1,489z M215.3,386.4   c1.9,0.9,4-0.5,5.4-1.9c4.6-4.6,7.2-11,7.1-17.5c0-1.5-0.2-3.1-1-4.4c-0.8-1.3-2.2-2.4-3.8-2.3c-2,0.1-3.4,1.9-4.4,3.5   c-3.2,5.3-5,11.3-5.4,17.4C213.2,383.2,213.5,385.6,215.3,386.4z M215.6,411.9c1.1-3.1,1.8-6.4,1.9-9.7c0.1-1.1,0.1-2.3-0.4-3.4   c-0.4-1.1-1.3-2-2.5-2.3c-1.2-0.2-2.4,0.4-3.2,1.2c-0.8,0.9-1.2,2-1.5,3.2c-1,3.4-1.1,7-0.5,10.5c0.3,1.6,1.1,3.5,2.8,3.6   C213.9,415.2,215,413.4,215.6,411.9z M226.1,388.6c-1.4,0.3-2.2,1.8-2.7,3.2c-0.6,1.8-0.9,3.6-1,5.5c-0.1,1,0,2.1,0.4,3   c0.4,0.9,1.4,1.7,2.5,1.7c1.3,0,2.3-1.2,2.9-2.4c0.9-1.8,1.5-3.7,1.7-5.7c0.1-1.2,0.1-2.6-0.6-3.7   C228.7,389.2,227.3,388.4,226.1,388.6z M220,422.5c-0.8-0.7-2-1.1-3-0.9c-1.5,0.4-2.3,2-2.8,3.5c-2,6.6-1,14.1,2.7,20   c0.7,1.2,1.8,2.4,3.2,2.3c1.6-0.1,2.5-1.8,3-3.3c1.9-6.2,1.4-13.1-1.3-19C221.3,424.2,220.8,423.2,220,422.5z M327.8,275.7   c1.7-0.5,2.5-2.3,3-4c2.3-7.6,2.7-15.7,1.3-23.5c-0.2-1.4-0.6-2.8-1.4-4c-0.8-1.1-2.3-1.9-3.7-1.5c-1.6,0.5-2.4,2.2-2.9,3.9   c-2.4,7.6-2.9,15.9-1.4,23.7c0.3,1.4,0.6,2.8,1.4,3.9C325,275.3,326.4,276.1,327.8,275.7z M330.6,283.3c-1.7-0.1-2.8,1.7-3.3,3.3   c-1.2,3.7-1.3,7.7-0.3,11.5c0.4,1.7,1.3,3.4,2.9,3.9c1.7,0.5,3.5-0.7,4.3-2.3c0.8-1.6,0.8-3.4,0.8-5.2c0-3.4-0.1-7.2-2.3-9.8   C332.3,284,331.5,283.4,330.6,283.3z M343.3,333c-0.6-0.6-1.4-1-2.2-0.9c-1.5,0.1-2.3,1.8-2.6,3.3c-0.7,3.4-0.3,7,1,10.2   c0.6,1.4,1.6,2.9,3.1,3.2c1.6,0.3,3.1-1,3.6-2.5c0.5-1.5,0.4-3.2,0.2-4.7C346,338.4,345.5,335.1,343.3,333z M350.8,309.2   c-0.5-1.8-1.1-3.7-2.5-5c-1.4-1.3-3.6-1.9-5.2-0.9c-1.5,0.9-2,2.7-2.2,4.4c-0.9,5.8,0,11.9,2.6,17.1c0.9,1.9,2.5,3.9,4.5,3.6   c2.2-0.3,3.2-2.9,3.5-5.1C352.3,318.7,352,313.8,350.8,309.2z M298.6,326.1c2.4,1.1,5-0.6,6.8-2.5c3.9-4,6.5-9.3,7.4-14.8   c0.5-3.4-0.2-7.8-3.5-8.8c-2.8-0.8-5.5,1.3-7.3,3.6c-3.6,4.5-5.8,10.2-6.1,16C295.7,322,296.3,325.1,298.6,326.1z M298.5,333.8   c-0.8-2.3-2.5-4.8-5-4.6c-1.8,0.1-3.1,1.6-4.1,3.1c-4.6,6.4-7.8,13.7-9.5,21.3c-0.8,3.7-0.9,8.3,2.3,10.3c3.2,2,7.4,0,10.1-2.7   C299.3,354.2,301.9,343.1,298.5,333.8z M310,338.1c-1.5,2.7-2.5,5.7-3,8.8c-0.4,2.4-0.3,5.1,1.4,6.7c2.3,2.2,6.4,1.1,8.4-1.4   c2-2.5,2.5-5.9,2.9-9c0.2-1.9,0.5-3.8,0-5.6c-0.5-1.8-1.9-3.5-3.7-3.8C313.4,333.5,311.2,335.8,310,338.1z M314.8,373.2   c-2.2-0.9-4.8-0.2-6.7,1.3c-1.9,1.4-3.2,3.5-4.2,5.6c-2.9,5.8-4.6,12.2-4.8,18.7c-0.1,2.3,0,4.7,0.9,6.9s2.6,4.1,4.9,4.7   c4.1,1.1,8-2.5,10.2-6.1c4.2-6.9,5.8-15.2,4.6-23.2C319.1,377.9,317.8,374.4,314.8,373.2z M322.7,270.3c0.3,1.4,0.6,2.8,1.4,3.9   c0.8,1.1,2.3,1.9,3.7,1.5c1.7-0.5,2.5-2.3,3-4c2.3-7.6,2.7-15.7,1.3-23.5c-0.2-1.4-0.6-2.8-1.4-4c-0.8-1.1-2.3-1.9-3.7-1.5   c-1.6,0.5-2.4,2.2-2.9,3.9C321.6,254.2,321.2,262.4,322.7,270.3z M335.2,294.5c0-3.4-0.1-7.2-2.3-9.8c-0.6-0.7-1.4-1.3-2.3-1.3   c-1.7-0.1-2.8,1.7-3.3,3.3c-1.2,3.7-1.3,7.7-0.3,11.5c0.4,1.7,1.3,3.4,2.9,3.9c1.7,0.5,3.5-0.7,4.3-2.3   C335.1,298.1,335.2,296.2,335.2,294.5z M346.4,341.4c-0.4-3-0.9-6.4-3.1-8.5c-0.6-0.6-1.4-1-2.2-0.9c-1.5,0.1-2.3,1.8-2.6,3.3   c-0.7,3.4-0.3,7,1,10.2c0.6,1.4,1.6,2.9,3.1,3.2c1.6,0.3,3.1-1,3.6-2.5C346.8,344.7,346.6,343,346.4,341.4z M351.6,323.4   c0.7-4.7,0.4-9.6-0.8-14.2c-0.5-1.8-1.1-3.7-2.5-5c-1.4-1.3-3.6-1.9-5.2-0.9c-1.5,0.9-2,2.7-2.2,4.4c-0.9,5.8,0,11.9,2.6,17.1   c0.9,1.9,2.5,3.9,4.5,3.6C350.3,328.2,351.3,325.6,351.6,323.4z M398.8,119.9c0.9,1.6,3.3,0.8,3-1.1c-1.9-11.4-6.8-22.3-13.9-31.3   c-4.1,1.9-7.7,4.9-10.4,8.5C386.3,102.3,393.6,110.5,398.8,119.9z M407.9,98.6c0.8-5.7,0.9-11.8,0.3-17.2   c-3.8-0.3-7.7,0.6-11.4,2.1c3.3,4.8,6,10,7.9,15.5C405.3,100.6,407.7,100.3,407.9,98.6z M450.1,119.9c5.2-9.4,12.5-17.7,21.3-23.9   c-2.7-3.6-6.3-6.5-10.4-8.5c-7.2,9-12,19.9-13.9,31.3C446.8,120.7,449.2,121.6,450.1,119.9z M444.2,99c1.9-5.5,4.6-10.7,7.9-15.5   c-3.7-1.5-7.6-2.4-11.4-2.1c-0.6,5.4-0.5,11.5,0.3,17.2C441.2,100.3,443.6,100.6,444.2,99z M395.6,144.6c0,4-3.2,7.2-7.2,7.2   c-4,0-7.2-3.2-7.2-7.2c0-4,3.2-7.2,7.2-7.2C392.4,137.4,395.6,140.6,395.6,144.6z M388.6,142.3c0-1.4-1.1-2.5-2.5-2.5   c-1.4,0-2.5,1.1-2.5,2.5s1.1,2.5,2.5,2.5C387.5,144.8,388.6,143.7,388.6,142.3z M464.6,144.6c0,4-3.2,7.2-7.2,7.2   c-4,0-7.2-3.2-7.2-7.2c0-4,3.2-7.2,7.2-7.2C461.3,137.4,464.6,140.6,464.6,144.6z M457.9,142.3c0-1.4-1.1-2.5-2.5-2.5   c-1.4,0-2.5,1.1-2.5,2.5s1.1,2.5,2.5,2.5C456.8,144.8,457.9,143.7,457.9,142.3z M423.2,182.6c-13.5,0-24.4-0.1-24.4,7.8   s10.9,17.1,24.4,17.1c13.5,0,24.4-9.2,24.4-17.1S436.7,182.6,423.2,182.6z" originalFill="#414042"/>
	<path fill="#F3F3F3" d="M466.7,211c-0.2-0.7-4.6-21.4-4.6-21.4c-4.2-10.7-10.1-17.6-15.7-22c0.7,4.2,1,8.4,1,12.6   c0,2.8-0.2,5.2-0.5,7.4c0.4,0.8,0.7,1.8,0.7,2.9c0,7.9-10.9,17.1-24.4,17.1c-13.5,0-24.4-9.2-24.4-17.1c0-0.9,0.1-1.6,0.4-2.3   c-0.4-2.3-0.6-4.9-0.6-8c0-4,0.3-8.2,1-12.3c-5.5,4.4-11.3,11.3-15.4,21.8c0,0-4.4,20.8-4.6,21.4c-0.2,0.7,12,10.5,23,12.5   l20.7-5.9l20.7,5.9C454.7,221.5,467,211.7,466.7,211z" originalFill="#F3F3F3"/>
	<path fill="#FDC374" d="M352.5,498.7c-12,3.3-29,6.6-46.9,6c0.5-1.2,0.9-2.3,1.3-3.6c0.9-3.5,1.1-7.2,0.8-10.9   c16.9-5.5,32.1-15.8,44.6-32.9C353.6,470.3,353.9,483.7,352.5,498.7z M376.2,93.5c-8.2-5.8-19-7.9-28.7-5.5   c0.1,7.4,2.6,14.8,7.2,20.7c3.3,4.2,7.5,7.6,12.3,9.9C368.7,110.2,371.7,101.1,376.2,93.5z M471.5,92.6c4,6.9,6.1,15.5,7.5,23   c0.3,0.9,0.6,1.8,0.9,2.7c4.6-2.3,8.7-5.7,11.8-9.8c4.5-5.9,7-13.3,7-20.7C489.6,85.6,479.5,87.5,471.5,92.6z M410.9,137.9   c-5.3,7.1-9.4,18.2-11.2,29.7c-4,3.2-8.2,7.7-11.8,14c-5.7-6.4-9.6-14.5-10.7-23.1c-5,2.2-9.3,5.9-12.2,10.5   c0.4-18.7,6.2-37.2,16.3-52.8C392.8,121.2,404.2,127.8,410.9,137.9z M395.6,144.6c0-4-3.2-7.2-7.2-7.2c-4,0-7.2,3.2-7.2,7.2   c0,4,3.2,7.2,7.2,7.2C392.4,151.8,395.6,148.6,395.6,144.6z M484,169.1c-2.9-4.6-7.2-8.3-12.2-10.5c-1.2,9.4-5.7,18.3-12.4,24.9   c-3.8-7.2-8.3-12.2-12.7-15.8c-1.6-10.5-5.1-20.7-9.8-27.8c6.5-11.2,18.7-18.4,30.8-23.7C477.8,131.9,483.5,150.4,484,169.1z    M464.6,144.6c0-4-3.2-7.2-7.2-7.2c-4,0-7.2,3.2-7.2,7.2c0,4,3.2,7.2,7.2,7.2C461.3,151.8,464.6,148.6,464.6,144.6z M462.1,220.7   c-1.3,0.6-2.7,1.1-4,1.5c-0.7,0.2-2,1.1-3.5,2.2c-8.2,6.1-17.7,9.3-27.5,9.3h-7.9c-8.9,0-17.6-2.7-25.4-7.8   c0.4,22.9,0.9,45.9,0.4,68.8c0.4,10.6,0.6,21.3,0.7,31.9c0.1,39-2.9,77.5-0.4,116.5c0.6,9,1.4,18,2.4,27c0.4,3.5,0.8,7,1.3,10.5   c9-8,17.1-17.2,23.8-27.6c26.4-40.7,43.4-90.7,52.6-138.2c0.1-19.9-2-40.3-7.3-72.1C466.1,235.3,464.6,227.8,462.1,220.7z" originalFill="#FDC374"/>
	<path opacity="0.2" d="M208,463.9l10.3,32.4c-10,0.8-20.2,1-30.4,0.7c4.6-6.1,9.6-11.9,15-17.2c4.3-2.1-3.2-8.2-4.4-14.5   C201.6,464.9,204.8,464.4,208,463.9z M480.8,211c-0.4-1-0.9-2-1.3-3.1c-4.9,5.2-10.9,9.2-17.3,12c2.4,7.1,3.9,14.6,5.1,22.1   c5.3,31.9,7.4,52.2,7.3,72.1c-8.8,45.4-24.6,93.1-49.1,132.7c-0.3,17.2-0.9,34.3-1.7,51.5c-0.2,3.8,1.1,7.2,3.3,10   c-2.9-20.1,3.7-40.6,12.3-60.2c21.7-54.2,41-109.6,49.5-167.1c0.1-2,0.2-4.1,0.3-6.1C490,253.3,489,231.1,480.8,211z M306.7,483.2   c-2.8-12.6-4.3-25.6-6.4-38.3c-3.9-23.1-7.8-46.4-17.2-67.9c-2.7-6.3-6-12.4-10.2-17.8c2.6,4.9,4.6,10.1,6.5,14.8   c6,21.3-4,42.6,2,63.9c6,25.2,24,50.3,10,71.6c-2.5,3.8-5.2,7.2-8.2,10.2c6.2-1.7,12.1-4.4,16.8-8.7c3.6-3.3,5.8-7.1,6.9-11.3   C308.2,494.4,308,488.7,306.7,483.2z M475,172.5c4.4,7.2,7.6,15.2,9.3,23.6c1.5-4.6,2.3-9.7,0.9-14.4   C483.8,177,479.9,172.9,475,172.5z M475.5,201.6c1.5-3.3,3-6.8,2.6-10.5c-0.4-3.6-3.4-7.2-7-6.9   C473.2,189.8,474.7,195.7,475.5,201.6z M361.3,191.3c4.1-7.1,8.1-14.3,12.2-21.4c-4.5,1-8.6,3.9-10.9,8   C360.3,181.9,359.8,186.9,361.3,191.3z M368.3,198.9c1.8-6.3,4.6-12.3,8.1-17.8c-3.8,0.2-7.2,3.1-8.5,6.6S366.9,195.4,368.3,198.9z    M359.1,519.4c-5.6-2.9-9.1-9.1-7.7-15.7c0.4-1.7,0.7-3,0.8-3.4c5.2-47.8-7.2-80-20.2-126.4c-13.4-47.8-25.8-98.8-10.7-146.2   c1.6-5.1,3.6-10.2,6.2-15c2.1-0.3,4.1-0.3,6,0.1c14,5.8,20,19.4,22,31.1c12,79.7-12,151.7,4,233.3   C362.1,490.9,360.7,505.2,359.1,519.4z M327.8,275c1.7-0.5,2.5-2.3,3-4c2.3-7.6,2.7-15.7,1.3-23.5c-0.2-1.4-0.6-2.8-1.4-4   c-0.8-1.1-2.3-1.9-3.7-1.5c-1.6,0.5-2.4,2.2-2.9,3.9c-2.4,7.6-2.9,15.9-1.4,23.7c0.3,1.4,0.6,2.8,1.4,3.9   C325,274.6,326.4,275.3,327.8,275z M332.9,283.9c-0.6-0.7-1.4-1.3-2.3-1.3c-1.7-0.1-2.8,1.7-3.3,3.3c-1.2,3.7-1.3,7.7-0.3,11.5   c0.4,1.7,1.3,3.4,2.9,3.9c1.7,0.5,3.5-0.7,4.3-2.3c0.8-1.6,0.8-3.4,0.8-5.2C335.2,290.3,335.1,286.6,332.9,283.9z M346.4,340.7   c-0.4-3-0.9-6.4-3.1-8.5c-0.6-0.6-1.4-1-2.2-0.9c-1.5,0.1-2.3,1.8-2.6,3.3c-0.7,3.4-0.3,7,1,10.2c0.6,1.4,1.6,2.9,3.1,3.2   c1.6,0.3,3.1-1,3.6-2.5C346.8,343.9,346.6,342.3,346.4,340.7z M350.8,308.4c-0.5-1.8-1.1-3.7-2.5-5c-1.4-1.3-3.6-1.9-5.2-0.9   c-1.5,0.9-2,2.7-2.2,4.4c-0.9,5.8,0,11.9,2.6,17.1c0.9,1.9,2.5,3.9,4.5,3.6c2.2-0.3,3.2-2.9,3.5-5.1   C352.3,317.9,352,313.1,350.8,308.4z" fill="#000000" originalFill="#000000"/>
</g>
</svg>