<svg xmlns="http://www.w3.org/2000/svg" xmlns:xlink="http://www.w3.org/1999/xlink" version="1.1" id="svg-edited-version" x="0px" y="0px" viewBox="0 0 595.3 595.3" enable-background="new 0 0 595.3 595.3" xml:space="preserve" class="injected-svg" data-src="https://preview.pixlr.com/images/svg/100/1/7d525b9eb9f84eb96dbb4dced5bbd206aea5beca21e5d03e04024da9182e87ea.svg">
<g>
	<path fill="#514C49" d="M107,257.5c2.9,0.2,5.7-0.9,8.2-2.1c6.4-3,12.1-7.3,16.9-12.4c3.4-3.6,6.3-7.7,7.6-12.5   c1.3-4.7,0.9-10.1-1.9-14.1c-2.9-4-8.4-6.2-13-4.4c-2.6,1-4.6,3.1-6.4,5.2c-3.9,4.7-6.9,10.1-9.8,15.5c-2.2,4-4.4,8.1-6.5,12.1   c-1.3,2.5-2.7,5.4-1.9,8.2C101.2,255.7,104.2,257.4,107,257.5z M123.6,222.9c3.6,0,6.5,3.9,6.5,8.6c0,4.8-2.9,8.6-6.5,8.6   c-3.6,0-6.5-3.9-6.5-8.6C117.1,226.8,120,222.9,123.6,222.9z M175.6,243c4.8,5.1,10.6,9.4,16.9,12.4c2.6,1.2,5.4,2.3,8.2,2.1   c2.9-0.2,5.8-1.9,6.6-4.6c0.8-2.7-0.5-5.6-1.9-8.2c-2.1-4.1-4.3-8.1-6.5-12.1c-2.9-5.4-5.9-10.8-9.8-15.5c-1.8-2.1-3.8-4.2-6.4-5.2   c-4.6-1.8-10.1,0.4-13,4.4c-2.9,4-3.3,9.4-1.9,14.1C169.3,235.3,172.2,239.4,175.6,243z M184.2,222.9c3.6,0,6.5,3.9,6.5,8.6   c0,4.8-2.9,8.6-6.5,8.6s-6.5-3.9-6.5-8.6C177.7,226.8,180.6,222.9,184.2,222.9z M84.9,328.1c4.2,20.8,13.7,40.6,28.8,55.1   c-8.1,8.6-18,15.7-28.7,20.8c-15.6,7.4-32.8,10.8-50,11.2c-7.3,0.2-11-8.7-5.8-13.8C51.1,379.9,69.9,355.1,84.9,328.1z    M218.5,291.2c8.9,1.5,17.2,6.4,22.8,13.5c5.6,7.1,8.5,16.3,7.9,25.3C243.5,314.3,232.6,300.4,218.5,291.2z M339.6,418.6   c-1.9,7.8-11.8,10.1-19.8,10.9c-20.1,1.9-40.4,3.9-60.3,0.7c-19.9-3.2-39.7-12-51.9-28c-11.3-14.7-15.1-33.8-16.8-52.2   c-0.9-10.2-1.3-20.5,0.2-30.7c1.4-9.3,5.6-19.5,14.4-22.6c6.9-2.4,14.9,0.4,20.4,5.2c5.6,4.8,9.3,11.4,13,17.7   c19.5,33,44.6,65.4,80.5,79c4.9,1.8,10,3.4,14.2,6.5C337.8,408.2,340.9,413.5,339.6,418.6z M355.5,319.7c9.2,4.1,19.3,6.2,29.4,6.2   c-3.9,4-10.3,4.7-15.6,3C364,327.2,359.6,323.5,355.5,319.7z M549.7,304.4c-11.9-2.4-23.2-6.8-34.9-9.9c-11.7-3.1-24.1-5-35.8-2.2   c10.4-9.4,24.1-15.2,38.2-16c13.2-0.7,43.5,2.2,46.8,19.1C565.6,303.6,555.4,305.6,549.7,304.4z M478.4,284.3   c-0.2,0.3-0.4,0.7-0.6,1c-7.3,3.2-14.7,6.3-22.1,9.1c0.5-4.4,0.5-8.9,0.1-13.3c-0.8-10.4-3.2-20.7-3.5-31.1   c-0.2-8.7,2.3-19.2,10.6-21.9c5-1.6,10.6,0.3,14.4,3.9c3.8,3.6,5.9,8.6,7.2,13.7C487.6,258.7,485.4,272.9,478.4,284.3z    M150.7,304.9c7.1,0,13.5,2.3,17.8,3.2c0.2,1,0.3,2.1,0.5,3.1c-4.7,1.7-10.5,2.7-16.7,2.7c-9,0-16.9-2.1-22.1-5.3   c0-0.1,0-0.1,0-0.2C134.3,308.5,142,304.9,150.7,304.9z M198.6,289.6c-2-16.8-13.2-32.3-28.7-39.3c-4-1.8-8.7-3.1-12.6-1.1   c-2.4,1.2-3.9,3.2-5,5.7c-1.1-2.4-2.7-4.5-5-5.7c-3.9-1.9-8.6-0.7-12.6,1.1c-15.4,7-26.7,22.5-28.7,39.3   c-0.6,5.2-0.1,11.1,3.7,14.6c4.7,4.4,11.8,3.6,17.7,3.1c0,0,0,0,0,0c0.2,0,0.5,0,0.7-0.1c0.7-0.1,1.5-0.1,2.2-0.2   c6.4-0.7,12.8-2.1,17.3-6.6c2.1-2.1,3.6-4.7,4.6-7.5c1,2.8,2.5,5.4,4.6,7.5c3.1,3.1,7,4.7,11.3,5.7v0c0.6,0.1,1.3,0.3,1.9,0.4   c0.1,0,0.1,0,0.2,0c0.6,0.1,1.2,0.2,1.9,0.3c0.1,0,0.2,0,0.3,0c1.4,0.2,2.7,0.3,4.1,0.4c0.1,0,0.2,0,0.4,0c2.2,0.2,4.4,0.3,6.6,0.3   c0.6,0,1.2,0,1.8,0c3.5-0.2,6.9-1,9.5-3.3C198.7,300.7,199.2,294.8,198.6,289.6z M109.8,289c0.3-8.1,3.2-16.1,8.2-22.5   c5-6.4,12-11.2,19.8-13.4C122.2,262.6,115.3,274.2,109.8,289z M156.1,263.2c-2.1-3-1.2-7.6,1.8-9.8c3-2.2,7.4-1.8,10.2,0.5   C162.7,254.2,157.7,258.1,156.1,263.2z" originalFill="#514C49"/>
	<path fill="#DDDCDA" d="M167.2,174.4c-0.1,1.7-1.4,3.1-2.9,3.9c-1.5,0.8-3.2,1.1-4.9,1.5c-5.2,1.2-10.3,3.3-14.8,6.1   c-5.8,3.7-11,8.7-17.6,10.7c-2,0.6-4.6,0.7-5.8-1c-1-1.5-0.3-3.6,0.5-5.2c6.9-13.6,22.4-22.4,37.6-21.5c1.8,0.1,3.6,0.4,5.1,1.2   C166.1,171,167.3,172.7,167.2,174.4z M122,225.2c-1.2,0-2.1,1.3-2.1,2.8c0,1.5,0.9,2.8,2.1,2.8c1.2,0,2.1-1.3,2.1-2.8   C124.1,226.5,123.2,225.2,122,225.2z M185.8,225.2c-1.2,0-2.1,1.3-2.1,2.8c0,1.5,0.9,2.8,2.1,2.8c1.2,0,2.1-1.3,2.1-2.8   C187.9,226.5,186.9,225.2,185.8,225.2z M125.1,307.5c-3.9,0.2-8,0.3-11.6-1c-1.6,20.8-0.6,41.8,3.1,62.3c0.8,4.5,2.4,9.8,6.8,11.2   c0.9-24.4,3.2-48.8,7.1-73C128.6,307.2,126.8,307.4,125.1,307.5z M179.6,307.5c-3.7-0.2-7.6-0.5-11.3-1.3   c3.9,24.5,6.4,49.2,7.2,73.9c4.4-1.4,6-6.7,6.8-11.2c3.6-20.2,4.7-40.8,3.2-61.2C183.5,307.7,181.5,307.6,179.6,307.5z" originalFill="#DDDCDA"/>
	<path fill="#919190" d="M168.1,253.9c-5.4,0.3-10.4,4.1-12,9.3c-2.1-3-1.2-7.6,1.8-9.8C160.8,251.2,165.3,251.6,168.1,253.9z    M118,266.5c-5,6.4-7.9,14.4-8.2,22.5c5.5-14.8,12.4-26.4,28-36C130,255.3,123,260.1,118,266.5z M564.3,310.4   c-2.9,2.6-6.9,3.7-10.9,3.8c-7.7,0.2-14.9-2.9-22.2-5.3c-20.2-6.6-42.2-7.4-62.9-2.5c-28,38-67.1,67.8-110.7,86.2   c-9.1,3.8-18.3,7.2-27.8,10.1c-3.3-1.7-7-2.9-10.5-4.2c-35.9-13.6-60.9-46-80.5-79c-3.8-6.3-7.5-12.9-13-17.7   c-5.6-4.8-13.5-7.6-20.4-5.2c-8.9,3.1-13,13.3-14.4,22.6c-1.6,10.1-1.2,20.5-0.2,30.7c1.7,18.5,5.5,37.5,16.8,52.2   c4.3,5.6,9.6,10.4,15.4,14.3c-11.1-0.4-22.2-1.3-33.2-2.7c-25.1-3.3-50.7-9.5-70.5-25.4c-22.7-18.2-34.7-47.5-36.7-76.5   c-2-29,5-58,15-85.4c5.7-15.7,12.7-31.3,24-43.6c11.3-12.3,27.8-20.9,44.4-19.1c20.3,2.1,36.3,18.6,46.3,36.3   c10,17.8,15.9,37.7,26.9,54.9c10.8,17,26.1,30.3,43.6,40c1.2,0.1,2.3,0.2,3.5,0.3c17.2,1.5,34.7,1,51.5,5.1   c12.4,3,24.4,8.6,36.4,13.2c36.1-2.5,71.4-14.4,104.8-29.2c5.2-3.2,10.6-6,16.3-8.1c19-7.1,41.3-6.7,58.8,3.6   c5.4,3.2,10.4,7.5,12.9,13.2C569.6,298.8,569,306.2,564.3,310.4z M121.3,195.6c1.2,1.7,3.8,1.6,5.8,1c6.6-2,11.7-7,17.6-10.7   c4.5-2.9,9.6-4.9,14.8-6.1c1.7-0.4,3.4-0.7,4.9-1.5c1.5-0.8,2.8-2.2,2.9-3.9c0.1-1.8-1.1-3.4-2.6-4.3c-1.5-0.9-3.4-1.1-5.1-1.2   c-15.3-0.9-30.7,7.9-37.6,21.5C121,192,120.3,194.1,121.3,195.6z M107,257.5c2.9,0.2,5.7-0.9,8.2-2.1c6.4-3,12.1-7.3,16.9-12.4   c3.4-3.6,6.3-7.7,7.6-12.5c1.3-4.7,0.9-10.1-1.9-14.1c-2.9-4-8.4-6.2-13-4.4c-2.6,1-4.6,3.1-6.4,5.2c-3.9,4.7-6.9,10.1-9.8,15.5   c-2.2,4-4.4,8.1-6.5,12.1c-1.3,2.5-2.7,5.4-1.9,8.2C101.2,255.7,104.2,257.4,107,257.5z M198.6,289.6c-2-16.8-13.2-32.3-28.7-39.3   c-4-1.8-8.7-3.1-12.6-1.1c-2.4,1.2-3.9,3.2-5,5.7c-1.1-2.4-2.7-4.5-5-5.7c-3.9-1.9-8.6-0.7-12.6,1.1c-15.4,7-26.7,22.5-28.7,39.3   c-0.6,5.2-0.1,11.1,3.7,14.6c1.1,1.1,2.4,1.8,3.8,2.3c-1.6,20.8-0.6,41.7,3.1,62.2c0.8,4.5,2.4,9.8,6.8,11.2   c0.8-23.9,3.1-47.7,6.8-71.3c5.2,3.2,13.2,5.3,22.1,5.3c6.3,0,12-1,16.7-2.7c3.5,22.8,5.6,45.7,6.4,68.8c4.4-1.4,6-6.7,6.8-11.2   c3.6-20.2,4.7-40.8,3.2-61.2c-0.6,0,0,0,0,0c3.5-0.2,6.9-1,9.5-3.3C198.7,300.7,199.2,294.8,198.6,289.6z M205.5,244.8   c-2.1-4.1-4.3-8.1-6.5-12.1c-2.9-5.4-5.9-10.8-9.8-15.5c-1.8-2.1-3.8-4.2-6.4-5.2c-4.6-1.8-10.1,0.4-13,4.4   c-2.9,4-3.3,9.4-1.9,14.1c1.3,4.7,4.3,8.9,7.6,12.5c4.8,5.1,10.6,9.4,16.9,12.4c2.6,1.2,5.4,2.3,8.2,2.1c2.9-0.2,5.8-1.9,6.6-4.6   C208.2,250.2,206.9,247.3,205.5,244.8z M241.4,304.7c-5.6-7.1-13.9-12-22.8-13.5c14,9.2,25,23.1,30.7,38.8   C249.8,321,247,311.8,241.4,304.7z M384.9,325.9c-10.1,0-20.2-2.2-29.4-6.2c4.1,3.8,8.5,7.5,13.8,9.2   C374.6,330.6,381,329.9,384.9,325.9z M564,295.5c-3.3-16.9-33.6-19.8-46.8-19.1c-14,0.8-27.7,6.5-38.2,16   c11.8-2.8,24.1-0.9,35.8,2.2c11.7,3.1,23,7.6,34.9,9.9C555.4,305.6,565.6,303.6,564,295.5z" originalFill="#919190"/>
	<path fill="#242625" d="M123.6,222.9c-3.6,0-6.5,3.9-6.5,8.6c0,4.8,2.9,8.6,6.5,8.6c3.6,0,6.5-3.9,6.5-8.6   C130.1,226.8,127.2,222.9,123.6,222.9z M122,230.8c-1.2,0-2.1-1.3-2.1-2.8c0-1.5,0.9-2.8,2.1-2.8c1.2,0,2.1,1.3,2.1,2.8   C124.1,229.6,123.2,230.8,122,230.8z M184.2,222.9c-3.6,0-6.5,3.9-6.5,8.6c0,4.8,2.9,8.6,6.5,8.6c3.6,0,6.5-3.9,6.5-8.6   C190.6,226.8,187.7,222.9,184.2,222.9z M185.8,230.8c-1.2,0-2.1-1.3-2.1-2.8c0-1.5,0.9-2.8,2.1-2.8c1.2,0,2.1,1.3,2.1,2.8   C187.9,229.6,186.9,230.8,185.8,230.8z M128,307.3c-0.2,0-0.4,0-0.5,0c0,0,0,0,0,0c0.2,0,0.5,0,0.7-0.1   C128.1,307.3,128,307.3,128,307.3z M170.2,306.5c0.1,0,0.1,0,0.2,0C170.3,306.5,170.2,306.5,170.2,306.5z M168.2,306.1   c0.1,0.7,0.2,1.4,0.3,2c-4.3-0.9-10.7-3.2-17.8-3.2c-8.8,0-16.4,3.5-20.5,3.6c0.1-0.5,0.2-1,0.2-1.5c0,0-0.1,0-0.1,0   c6.4-0.7,12.8-2.1,17.3-6.6c2.1-2.1,3.6-4.7,4.6-7.5c1,2.8,2.5,5.4,4.6,7.5C160,303.5,164,305.2,168.2,306.1z M172.6,306.9   c-0.1,0-0.2,0-0.3,0C172.4,306.8,172.5,306.9,172.6,306.9z M134.4,250.4c0.5-6.6,8.5-11.8,18.3-11.8c9.9,0,18,5.4,18.3,12.1   c-0.3-0.2-0.7-0.3-1-0.5c-4-1.8-8.7-3.1-12.6-1.1c-2.4,1.2-3.9,3.2-5,5.7c-1.1-2.4-2.7-4.5-5-5.7c-3.9-1.9-8.6-0.7-12.6,1.1   C134.6,250.3,134.5,250.4,134.4,250.4z" originalFill="#242625"/>
	<path opacity="0.2" d="M113.6,383.3c-8.1,8.6-18,15.7-28.7,20.8c-15.6,7.4-32.8,10.8-50,11.2c-4.7,0.1-7.9-3.5-8.2-7.4   c22.9-19.3,47-36.3,63.8-60.2C95.8,361.1,103.4,373.4,113.6,383.3z M308.1,382.4c-6.8-0.4-13.4-1-19.6-1.9c9.4,7.5,19.6,13.7,31,18   c3.5,1.3,7.2,2.5,10.5,4.2c9.4-2.9,18.7-6.2,27.8-10.1c29.1-12.3,56.2-29.8,79.4-51.3C406.5,359.9,356.2,384.9,308.1,382.4z    M190.8,349.7c0,0.1,0,0.2,0,0.3c1.7,18.5,5.5,37.5,16.8,52.2c12.3,16,32,24.8,51.9,28c19.9,3.2,40.2,1.2,60.3-0.7   c3.6-0.3,7.5-1,10.9-2.3c-19.5,0.1-39.3-1.2-59.3-4.9C233.2,415.3,200.6,385,190.8,349.7z M207.6,402.2   c-11.3-14.7-15.1-33.8-16.8-52.2c-0.9-10.2-1.3-20.5,0.2-30.7c0.2-1,0.3-2,0.6-3c-1-3-1.9-6.1-2.5-9.2c-1.3,0.3-2.6,0.4-4,0.5   c0.1,0,0.2,0,0.3,0c1.5,20.4,0.4,41.1-3.2,61.2c-0.8,4.5-2.4,9.8-6.8,11.2c-0.8-23-3-46-6.4-68.8c-4.7,1.7-10.5,2.7-16.7,2.7   c-8.9,0-16.9-2.1-22.1-5.3c-3.7,23.6-6,47.4-6.8,71.3c-4.4-1.4-6-6.7-6.8-11.2c-3.7-20.5-4.7-41.5-3.1-62.3c0.1,0,0.1,0,0.2,0.1   c-1.4-0.5-2.8-1.3-3.9-2.3c-0.4-0.4-0.8-0.8-1.2-1.3c-7.1,23.6-17.1,84.1,58.8,102.8c16.2,4,33.4,6.3,51,7.3   C214.4,409.9,210.7,406.3,207.6,402.2z M200,189.9c10.5,14.3,15.6,30.3,22.1,46.8c6.5,16.5,14.8,34.1,25.7,48.1   c11.7,15,27.1,19.4,45.3,18.7c24.6-0.9,49.1,5.1,72.1,13.2c20.8,7.4,41.8-7.3,61.4-12.9c-17.1,5-34.6,8.4-52.3,9.7   c-12-4.6-24-10.2-36.4-13.2c-16.8-4.1-34.3-3.7-51.5-5.1c-1.2-0.1-2.3-0.2-3.5-0.3c-17.6-9.7-32.8-23-43.6-40   c-10.9-17.2-16.9-37.1-26.9-54.9c-10-17.8-26-34.2-46.3-36.3c-5.5-0.6-11,0-16.2,1.5c2,0,4,0.1,6,0.4   C173.4,167.8,189.5,175.7,200,189.9z" fill="#000000" originalFill="#000000"/>
</g>
</svg>