<?xml version="1.0" encoding="UTF-8"?>
<!DOCTYPE svg  PUBLIC '-//W3C//DTD SVG 1.1//EN'  'http://www.w3.org/Graphics/SVG/1.1/DTD/svg11.dtd'>
<svg enable-background="new 0 0 841.89 841.89" version="1.1" viewBox="0 0 841.89 841.89" xml:space="preserve" xmlns="http://www.w3.org/2000/svg">
<path d="m141.28 384.23l-15.769 58.402s-3.674-1.746-3.958-0.778c-1.298 4.412-10.642 20.506-10.642 20.506l-1.817-4.153-26.418 26.995s3.317-51.143 8.768-61.518c23.807-45.314 49.836-40.751 49.836-40.751" fill="#723116"/>
<path d="m132.72 401.88c-10.06-4.123-24.659 35.82-24.659 35.82l-4.672-9.085s0.745 16.732-3.634 18.43c-1.731 0.671-5.97-4.413-5.97-4.413s2.064 9.616 0 11.681c-0.66 0.66-3.734 0-3.734 0v12.979s-2.681 2.564-3.274 3.634c-1.801 3.247-4.096 14.276-4.096 14.276l26.418-25.353 2.884 3.578 11.113-20.035 2.42-0.76s16.78-36.83 7.21-40.76z" fill="#E6E7E8"/>
<path d="m144.99 626.91s60.471 75.13 73.449 104.25c1.731 3.885 3.791 16.586 3.791 16.586l3.791-11.847 6.16 11.847s11.987 13.95 17.533 16.111c4.967 1.936 17.369 3.575 21.324 0 1.621-1.465 1.896-8.53 1.896-8.53s3.889-2.061 3.791-3.316c-0.414-5.308-18.007-11.373-18.007-11.373l-18.955-13.742s0.569-7.013-0.948-8.529c-17.533-17.533-48.618-51.036-54.969-72.976-1.087-3.757-2.81-13.513 0.474-15.638 16.111-10.425 47.521-34.896 60.181-49.756 7.032-8.254 23.374-36.539 23.374-36.539l-30.481-11.795-76.28 61.61-5.212 17.059-10.9 16.58z" fill="#723116"/>
<path d="m442.1 543.98c-15.638 38.383-10.899 112.78-27.958 172.01-1.493 5.185-3.317 21.324-3.317 21.324l6.16-10.425s2.258 15.339 1.422 20.376c-0.4 2.409-3.34 6.604-3.791 9.004-0.638 3.395-0.901 11.186 1.421 13.742 6.391 7.034 30.943 9.307 37.91 2.843 1.216-1.128 0-6.634 0-6.634l4.738 0.947v-3.317s-17.546-14.896-20.376-21.798c-4.315-10.522-0.912-34.155 0-45.491 0.854-10.606 5.122-31.62 8.529-41.7 5.057-14.958 27.484-56.863 27.484-56.863l-25.176-57.338c0.02 0.02-6.29 1.53-7.03 3.33z" fill="#723116"/>
<path d="m576.31 243.16c-22.708-51.196-139.39-91.092-123.51-161.11 1.54-6.788 15.11 64.195 34.362 51.543 4.836-3.178-3.694-19.861-6.159-36.596-3.317-22.53 6.159-41.441 6.159-35.045 0 9.864 6.159 64.521 6.159 51.543 0-34.362 40.197-66.455 35.334-54.136-2.11 5.346-32.74 57.054-22.043 61.592 28.804 12.221 65.854-29.519 57.702-17.181-23.987 36.308-44.297 20.044-53.164 32.741-14.264 20.423 17.505 36.956 17.505 36.956s29.014 18.964 38.901 28.851c10.303 10.302 20.746-54.461 20.746-54.461s16.857 2.009-6.808 64.186c-2.239 5.883 14.264 20.747 14.264 20.747s-17.22 15.4-19.45 10.36z" fill="#C2B59B"/>
<path d="m633.14 233.11c-1.128-3.766 4.545-11.36 3.891-15.236-1.382-8.189-14.264-13.292-15.885-29.175-1.072-10.51 1.428-47.583 9.729-41.122 2.881 2.242-8.86 45.802 17.177 61.544 11.893 7.19 31.543-32.903 34.687-43.438 11.994-40.198-18.949-93.966-12.967-97.251 12.218-6.71 18.506 42.777 22.691 57.703 2.044 7.287 5.188 29.824 5.188 29.824s18.378-5.049 22.691-21.071c4.538-16.856-7.132-78.219 1.621-72.614 10.134 6.489 5.187 51.543 10.373 60.944 7.492 13.581 13.291-58.351 21.071-58.351 10.049 0 2.752 47.286-3.565 61.268-9.062 20.054-62.565 61.917-62.565 61.917s-30.147 28.203-38.252 56.121c-1.36 4.65-14.5-6.43-15.89-11.06z" fill="#C2B59B"/>
<path d="m703.81 217.54s-20.391 8.486-27.555 10.049c-22.693 4.953-28.203 21.395-28.203 21.395l11.67 22.368s12.682-0.497 16.209-2.594c11.98-7.13 27.87-51.22 27.87-51.22z" fill="#723116"/>
<polygon points="584.06 319.9 591.11 330.2 601.52 335.24 607.45 340.84 602.3 332.1 593.35 328.41 586.75 320.46" fill="none" stroke="#F04D23" stroke-miterlimit="10"/>
<path d="m542.32 341.56c-15.528 9.078-57.896 7.224-77.272 8.841-12.269 1.023-35.483 7.865-48.616 7.865-42.465 0-211.17-0.695-228.66 1.384-22.388 2.662-52.339 16.46-56.818 37.484-16.111 75.622 8.482 96.252 10.227 128.41 2.665 49.127-51.136 61.363-51.136 61.363l2.312 165.91 7.916-5.164s0.649 26.902 6.818 32.436c5.921 5.313 24.235 2.402 31.818 0 2.497-0.791 7.577-4.6 6.088-7.225-3.092-5.449-7.88-15.502-12.906-15.502-8.435 0-17.089-12.775-18.182-19.318-4.579-27.416-1.013-114.9-1.013-114.9s86.768-42.51 108.07-64.352c5.155-5.285 15.667-24.16 15.667-24.16s67.361 21.674 90.909 23.881c30.401 2.85 121.6-9.109 121.6-9.109s28.874 66.998 43.169 93.182c6.718 12.305 12.039 40.328 17.08 53.41 7.326 19.012 3.993 62.5 3.993 62.5s5.569-6.127 7.978-5.682c4.808 0.887 8.206 12.355 9.585 17.045 1.348 4.586-3.644 19.088 1.137 19.088 7.154 0 26.121 2.496 34.619 0 2.163-0.635 2.402-6.727 1.68-8.861-2.639-7.791-18.633-16.689-22.662-23.863-12.736-22.676-19.604-72.568-24.358-101.14-4.309-25.893-11.971-105.68-11.971-105.68s40.544-13.229 48.532-25c27.782-40.941 54.198-68.201 74.896-118.18 5.148-12.432 4.881-53.824 4.881-53.824l-76.138-71.566c-0.01 0-6.94 53.52-19.26 60.72z" fill="#723116"/>
<path d="m564.89 344.76c0.275 1.598 6.153 2.051 6.153 2.051l-6.153 8.204 5.241 2.051-0.228 15.04h3.418l-1.367 7.064 2.963 7.976 4.329 6.381s10.938 12.989 23.563 14.128c2.957 0.267 11.304-3.646 11.304-3.646l1.344 4.557 3.669-7.292 2.963 1.14 3.05-7.52h3.103l2.051-6.608 3.418-0.228v-5.241l2.886 0.677 1.113-7.969s2.449-3.262 2.764-4.558c0.711-2.933-0.837-12.041-0.837-12.041l-65.174-34.447-3.646 8.432 0.456 4.678h-4.102l1.221 4.437c0.02 0-3.67 1.65-3.48 2.74z" fill="#E6E7E8"/>
<path d="m243.08 507.49s48.024 3.98 63.498 8.056c10.275 2.706 39.331 16.113 39.331 16.113l17.97-2.371-4.229 7.155 79.609-8.577 9.889 21.54s-84.86 14.588-121.06 12.026c-27.895-1.974-91.453-27.527-91.453-27.527l6.44-26.41z" fill="#E6E7E8"/>
<path d="m114.63 750.96l8.654 11.299-21.462 2.054s1.683 13.3 5.265 15.046c7.903 3.852 36.751 4.656 37.897-6.402 0.353-3.402-9.852-15.116-9.852-15.116l-8.963 3.697-11.54-10.58z"/>
<path d="m241.8 735.82l11.659 8.774-20.642 3.882s11.566 13.315 16.893 15.377c4.972 1.924 17.368 3.573 21.324 0 1.622-1.465 1.896-8.53 1.896-8.53s3.889-2.061 3.791-3.316c-0.414-5.308-18.007-11.373-18.007-11.373l-3.451 2.398-9.616-6.37-3.84-0.84z"/>
<path d="m431.84 738.11s5.482 10.014 3.606 12.741c-3.098 4.503-18.007 1.626-20.955 6.229-1.811 2.828-0.768 11.269 1.91 13.295 7.503 5.677 31.259 9.483 37.551 2.488 1.109-1.232 0-6.634 0-6.634l4.738 0.947v-3.317l-15.467-14.873-4.894 1.985-6.5-12.87z"/>
<path d="m542.3 761.53l6.73 7.092-17.841 2.411s-4.229 16.657 0 16.959c8.592 0.612 27.938 3.278 35.521 0.23 2.51-1.009 1.943-8.354 0.771-10.793-1.76-3.662-11.446-11.537-11.446-11.537l-3.399 1.647-7.092-6.01h-3.24z"/>
<path d="m576.48 247.37s-10.077-1.525-12.967-3.198c-4.769-2.76-10.95-12.465-15.236-15.928-7.81-6.31-35.983-17.83-35.983-17.83s-2.882 37.894 11.74 52.516c4.381 4.381 13.755 13.027 19.543 15.236 4.227 1.613 17.991 1.945 17.991 1.945l2.593 9.401s0.17 15.991 1.621 21.071c6.483 22.691 46.032 37.604 46.032 37.604s10.174 8.174 14.264 9.401c5.356 1.606 17.128 1.955 22.367 0 2.612-0.975 7.84-3.984 9.077-6.483 4.68-9.457 0.811-40.683 0.811-40.683s6.902-14.716 8.267-19.937c1.217-4.658 3.151-14.393 2.269-19.126-0.592-3.172-3.508-9.141-5.511-11.67-2.42-3.057-6.84-12.468-10.373-15.516-4.976-4.292-17.422-10.97-23.989-10.742-1.469 0.051-5.421 2.269-5.421 2.269l-16.946-0.648s-7.543-4.57-10.374-4.539c-5.003 0.056-15.341 4.29-18.153 8.429-1.2 1.78-1.62 8.43-1.62 8.43z" fill="#723116"/>
<path d="m568.39 287.11s-0.169 1.622 0 2.126c1.815 5.418 8.528 15.965 13.768 18.245 0.667 0.29 2.91 0 2.91 0l-16.68-20.37z" fill="#fff" opacity=".1"/>
<path d="m595.76 308.54s17.291 26.277 16.229 29.326c-0.464 1.333 1.701-4.295 1.054-5.551-11.855-23.002-17.283-25.006-17.283-25.006v1.23z" fill="#fff" opacity=".1"/>
<path d="m642.94 294.61s7.836 14.214 8.955 19.923c0.613 3.13-0.268-9.788-1.68-12.648-1.15-2.3-7.28-7.27-7.28-7.27z" fill="#fff" opacity=".1"/>
<path d="m607.9 288.67s14.932 13.307 17.237 19.364c0.289 0.758 0 3.246 0 3.246l-18.58-20.483-0.783-2.127h2.12z" fill="#fff" opacity=".1"/>
<polygon points="639.35 283.41 644.39 269.64 643.83 276.02 640.92 283.41"/>
<path d="m587.91 266.29s5.582-1.049 7.451-0.896c7.406 0.61 10.41 19.277 10.41 19.277h-1.344s-5.067-16.945-9.962-17.039c-1.646-0.031-6.556 0.671-6.556 0.671v-1.567"/>
<path d="m578.35 275.58c0.882-0.576 3.245-2.687 3.245-2.687l1.12 0.448s-1.235 2.031-1.68 2.686c-3.056 4.508-14.327 4.813-14.327 4.813l0.448-1.455 7.122-1.044-7.804-3.699 1.098-0.975c-0.01 0.01 6.51 4.7 10.77 1.92z"/>
<ellipse cx="588.73" cy="282.08" rx="7.023" ry="7.046"/>
<ellipse cx="585.72" cy="279.8" rx="3.008" ry="2.939" fill="#fff"/>
<path d="m577.12 280.84s8.388-5.809 11.641-5.809c6.995 0 12.424 15.884 12.424 15.884l-1.23 1.119s-8.589-13.577-12.041-14.439c-2.699-0.674-10.233 4.365-10.233 4.365l-0.56-1.12z"/>
<ellipse cx="658.77" cy="282.41" rx="6.884" ry="7.382"/>
<path d="m664.62 277.82l6.827-3.543s0.864 1.759 0.561 2.254c-0.752 1.224-5.597 1.289-5.597 1.289l4.365 1.986s-0.589 1.298-1.008 1.375c-1.52 0.27-5.15-3.36-5.15-3.36z"/>
<path d="m577.12 260.58s-3.667 2.813-4.59 4.03c-1.132 1.491-3.245 6.749-3.245 6.749h-1.344s0.872-5.372 1.679-6.973c0.706-1.401 4.03-4.813 4.03-4.813l3.47-0.336v1.34z"/>
<path d="m513.84 220.14s27.801 20.771 33.714 30.472c1.483 2.434 1.877 8.368 2.917 11.022 1.238 3.16 7.456 11.346 7.456 11.346l-13.291 1.297-16.856-11.995 0.972-5.835-7.386-6.808 5.117-4.351-9.077-3.105 2.27-4.214s-5.054-4.447-5.835-6.483c-1.01-2.65 0-11.35 0-11.35z" fill="#E6E7E8"/>
<ellipse cx="658.72" cy="281.18" rx="2.686" ry="2.354" fill="#fff"/>
<path d="m664.65 275.03c-2.355 0.23-7.381 0.436-9.29 1.835-1.376 1.008-3.048 4.225-3.47 5.878-0.737 2.886-1.119 11.863-1.119 11.863s2.466-9.269 4.253-11.863c1.029-1.494 3.923-4.165 5.709-4.478 2.554-0.448 7.611-3.235 7.611-3.235s-2.77-0.08-3.69 0.01z"/>
<path d="m666.43 265.3l0.657-0.413 18.607-11.705s-4.691 9.704-7.271 12.118c-1.285 1.203-4.851 2.487-6.609 2.424-1.48-0.05-5.39-2.42-5.39-2.42z" fill="#E6E7E8"/>
<path d="m618.24 349.97c-3.097-14.46 40.409-16.743 40.473-3.621 0.07 12.53-38.85 11.18-40.47 3.62z" fill="#FCCEB3" opacity=".7"/>
<path d="m639.62 317.06c-7.614-0.353-33.389 5.511-26.258 28.527 0.762 2.459 6.511 4.653 9.077 4.863 3.416 0.279 10.208-1.24 13.615-1.621 4.19-0.469 14.794-0.648 16.856-0.648 1.439 0 1.328 5.187 5.835 2.92 3.274-1.647 4.521-10.276 4.539-13.941 0.04-11.67-15.92-19.74-23.68-20.1z" fill="#FCCEB3"/>
<path d="m638.9 330.31c2.229 0.548 7.157 1.084 9.179 0 1.646-0.882 3.842-4.813 5.708-4.813 4.925-1e-3 6.165 4.003 6.044 6.156-0.132 2.343-4.834 5.201-5.932 7.276-1.088 2.056 0.575 7.533-0.992 9.252-4.41 4.834-21.406 2.909-26.096 2.047-0.742-0.136-0.414-2.56 0-3.016 1.092-1.203 4.941-0.477 6.381-1.231 1.375-0.721 3.688-3.612 3.47-5.149-0.178-1.254-3.099-2.593-4.365-2.574-1.491 0.022-4.004 2.523-5.485 2.351-2.101-0.245-5.588-4.135-5.708-6.248-0.065-1.145 0-6.625 10.073-6.96 2.06-0.08 5.72 2.41 7.72 2.9z"/>
</svg>
