<?xml version="1.0" encoding="UTF-8"?>
<svg viewBox="0 0 223.07 275.34" xmlns="http://www.w3.org/2000/svg">
 <path d="m253.98 203.31c0.006012 22.68-18.377 25.569-41.058 25.569-22.68 0-41.064-2.89-41.057-25.569-0.006989-22.68 19.151-35.199 41.057-41.069 34.082-9.132 41.064 18.39 41.058 41.069z" fill="#939dac" stroke="#010101" stroke-linecap="round" stroke-linejoin="round" stroke-width="4"/>
 <g fill="#fff" stroke="#010101" stroke-linecap="round" stroke-linejoin="round" stroke-width="4">
  <path d="m245.88 216.1c1.644 6.127-3.251 8.274-9.547 9.962s-11.607 2.273-13.248-3.854c-1.644-6.127 2.129-12.462 8.424-14.149 6.295-1.689 12.73 1.913 14.371 8.041z"/>
  <path d="m204.44 222.74c-1.641 6.129-6.952 5.541-13.248 3.855-6.296-1.688-11.19-3.836-9.547-9.963 1.641-6.127 8.075-9.729 14.371-8.041 6.295 1.687 10.068 8.022 8.424 14.149z"/>
  <path d="m224.72 221.72c0.001984 6.344-5.281 7.151-11.8 7.151-6.518 0-11.801-0.80798-11.799-7.151-0.001984-6.344 5.281-11.487 11.799-11.487 6.519 0 11.802 5.144 11.8 11.487z"/>
 </g>
 <path d="m231.45 161.05c10.562 8.152 13.348 24.672 13.344 39.25 0.006989 23.469-19.008 26.469-42.469 26.469-5.091 0-9.945-0.16501-14.469-0.625 6.935 2.22 15.622 2.719 25.063 2.719 22.68 0 41.069-2.882 41.063-25.563 0.003998-17.769-4.287-38.493-22.532-42.25z" fill="#010101" fill-opacity=".314"/>
 <path d="m253.07 147.27c0.020615 60.508-56.19 109.57-125.54 109.57-69.346 0.001007-125.56-49.061-125.54-109.57-0.021775-60.508 56.19-109.57 125.54-109.57 69.348 0 125.56 49.061 125.54 109.57z" fill="#939dac" stroke="#010101" stroke-linecap="round" stroke-linejoin="round" stroke-width="4"/>
 <path d="m252.59 156.86c-23.878 45.696-76.713 77.469-138.03 77.469-34.757 0-66.76-10.211-92.331-27.375 22.387 30.03 61.175 49.875 105.3 49.875 65.646 0 119.52-43.948 125.07-99.969z" fill="#010101" fill-opacity=".314"/>
 <path d="m21.479 247.77c-0.006742 22.68 17.706 25.569 39.557 25.569 21.852 0 39.563-2.89 39.558-25.569 0.005768-22.68-18.45-35.199-39.558-41.069-32.835-9.132-39.563 18.39-39.557 41.069z" fill="#939dac" stroke="#010101" stroke-linecap="round" stroke-linejoin="round" stroke-width="4"/>
 <path d="m73.556 211.19c5.4118 7.362 8.7338 16.555 8.7319 27.906 0.006737 26.823-17.711 30.25-39.563 30.25-3.3818 0-6.6518-0.10501-9.785-0.34399 7.1672 3.611 17.102 4.344 28.091 4.344 21.851 0 39.568-2.913 39.563-25.594 0.004814-18.023-11.658-29.609-27.038-36.562z" fill="#010101" fill-opacity=".314"/>
 <g fill="#fff" stroke="#010101" stroke-linecap="round" stroke-linejoin="round" stroke-width="4">
  <path d="m91.827 260.56c1.5839 6.127-3.1322 8.274-9.1982 9.962s-11.183 2.273-12.764-3.854c-1.5839-6.127 2.0512-12.462 8.1162-14.149 6.066-1.689 12.265 1.913 13.846 8.041z"/>
  <path d="m51.9 267.2c-1.581 6.129-6.698 5.541-12.764 3.855-6.066-1.688-10.781-3.836-9.1982-9.963 1.581-6.127 7.78-9.729 13.846-8.041 6.065 1.687 9.6992 8.022 8.1162 14.149z"/>
  <path d="m71.442 266.19c0.001923 6.344-5.0881 7.151-11.369 7.151-6.2799 0-11.37-0.80798-11.368-7.151-0.001926-6.344 5.0881-11.487 11.368-11.487 6.2808 0 11.371 5.144 11.369 11.487z"/>
 </g>
 <path d="m197.59 246.77c0.006012 22.68-18.377 25.569-41.058 25.569-22.68 0-41.064-2.89-41.057-25.569-0.007004-22.68 19.151-35.199 41.057-41.069 34.082-9.132 41.064 18.39 41.058 41.069z" fill="#939dac" stroke="#010101" stroke-linecap="round" stroke-linejoin="round" stroke-width="4"/>
 <g fill="#fff" stroke="#010101" stroke-linecap="round" stroke-linejoin="round" stroke-width="4">
  <path d="m189.5 259.56c1.644 6.127-3.251 8.274-9.547 9.962s-11.607 2.273-13.248-3.854c-1.644-6.127 2.129-12.462 8.424-14.149 6.295-1.689 12.73 1.913 14.371 8.041z"/>
  <path d="m148.05 266.2c-1.641 6.129-6.952 5.541-13.248 3.855-6.296-1.688-11.19-3.836-9.547-9.963 1.641-6.127 8.075-9.729 14.371-8.041 6.295 1.687 10.068 8.022 8.424 14.149z"/>
  <path d="m168.34 265.19c0.001999 6.344-5.281 7.151-11.8 7.151-6.518 0-11.801-0.80798-11.799-7.151-0.001999-6.344 5.281-11.487 11.799-11.487 6.519 0 11.802 5.144 11.8 11.487z"/>
 </g>
 <path d="m175.06 204.52c10.562 8.152 13.348 24.672 13.344 39.25 0.007004 23.469-19.008 26.469-42.469 26.469-5.091 0-9.945-0.16501-14.469-0.625 6.935 2.22 15.622 2.719 25.063 2.719 22.68 0 41.069-2.882 41.063-25.563 0.003998-17.769-4.287-38.493-22.532-42.25z" fill="#010101" fill-opacity=".314"/>
 <path d="m144.79 115.77c7 42-24.737 75.697-91.921 83.25-56.333 6.333-111.35-31.193-111.33-79 32-48.667 121.96-103.71 122.46-55.903 0.211 20.57 56.799-29.597 80.799 51.653z" fill="#010101" fill-opacity=".314"/>
 <path d="m123.9 84.985c-1.039-14.407-4.696-27.927-10.387-39.897 6.41-4.801 10.701-13.3 10.701-22.971 0-14.967-10.213-27.117-22.788-27.117-8.129 0-15.236 5.104-19.269 12.733-12.013-8.094-25.888-12.733-40.669-12.733-14.779 0-28.625 4.643-40.636 12.733-4.032-7.629-11.14-12.733-19.269-12.733-12.576 0-22.788 12.15-22.788 27.117 0 9.684 4.276 18.174 10.701 22.971-5.691 11.97-9.348 25.491-10.387 39.899-10.487 11.029-16.604 24.279-16.604 38.535 0 38.384 44.323 69.5 99 69.5s99-31.116 99-69.5c0-14.256-6.118-27.507-16.605-38.537z" fill="#939dac" stroke="#010101" stroke-linecap="round" stroke-linejoin="round" stroke-width="4"/>
 <g fill="#010101">
  <path d="m94.071 131.89c-3.86 7.963-10.946 11.702-15.825 8.35-4.878-3.352-5.7-12.521-1.837-20.482 3.862-7.96 10.948-11.698 15.825-8.348 4.878 3.352 5.7 12.521 1.837 20.48z"/>
  <path d="m-11.059 131.89c3.86 7.963 10.948 11.702 15.825 8.35 4.876-3.352 5.7-12.521 1.835-20.482-3.858-7.96-10.946-11.698-15.823-8.348-4.878 3.352-5.7 12.521-1.837 20.48z"/>
 </g>
 <g fill="#e6e6e6" stroke="#010101" stroke-linecap="round" stroke-linejoin="round" stroke-width="4">
  <path d="m100.67 7.799c-4.57 0-8.562 2.865-10.839 7.147 6.99 5.602 13.007 12.755 17.711 21.075 3.587-2.712 5.978-7.503 5.978-12.931-0.001007-8.438-5.759-15.291-12.85-15.291z"/>
  <path d="m-19.507 7.799c4.57 0 8.562 2.865 10.839 7.147-6.989 5.602-13.007 12.755-17.71 21.075-3.588-2.712-5.979-7.503-5.979-12.931 0-8.438 5.759-15.291 12.85-15.291z"/>
 </g>
 <path d="m87.538 66.801c0.003006 12.519-10.145 22.669-22.663 22.669-12.52 0-22.667-10.15-22.663-22.669-0.003998-12.519 10.144-22.669 22.663-22.669 12.518 0 22.666 10.15 22.663 22.669z" fill="#fff" stroke="#010101" stroke-linecap="round" stroke-linejoin="round" stroke-width="4"/>
 <path d="m67.392 70.801c0.001999 4.173-3.381 7.557-7.554 7.557s-7.556-3.384-7.555-7.557c-9.99e-4 -4.173 3.382-7.557 7.555-7.557s7.556 3.384 7.554 7.557z" fill="#010101"/>
 <path d="m34.805 66.801c0.003998 12.519-10.145 22.669-22.663 22.669s-22.666-10.15-22.663-22.669c-0.002998-12.519 10.145-22.669 22.663-22.669s22.667 10.15 22.663 22.669z" fill="#fff" stroke="#010101" stroke-linecap="round" stroke-linejoin="round" stroke-width="4"/>
 <path d="m25.362 70.801c0.001999 4.173-3.381 7.557-7.554 7.557s-7.556-3.384-7.555-7.557c-9.99e-4 -4.173 3.382-7.557 7.555-7.557s7.556 3.384 7.554 7.557z" fill="#010101"/>
 <path d="m138.54 110.02c-4.93 47.578-28.332 65.369-82 71.333-24 2.667-39.333 5.334-83.667-7 40.667 21.334 47 16.667 79 17.667 24.501 0.76601 64-10.334 83.667-45.667 11-27 3.98-31.113 3-36.333z" fill="#010101" fill-opacity=".314"/>
 <path d="m58.418 170.26c6.811-1.1 15.261-5.862 18.729-9.961 3.561-4.207 5.645 14.967 4.555 17.599-0.99899 2.414-9.403 6.644-11.862 6.31-2.645-0.35901-17.792-12.921-11.422-13.948z" fill="#fff" stroke="#010101" stroke-linejoin="round" stroke-width="4"/>
</svg>
