<?xml version="1.0" encoding="UTF-8"?>
<svg width="335.6" height="609.49" version="1.1" viewBox="0 0 335.59875 609.48999" xml:space="preserve" xmlns="http://www.w3.org/2000/svg"><defs><clipPath id="bz"><path d="m122.5 38.139c0-15.465 56.536-28.002 126.28-28.002 69.743 0 126.28 12.537 126.28 28.002 0 15.466-56.535 28.004-126.28 28.004-69.741 0-126.28-12.538-126.28-28.004"/></clipPath><radialGradient id="u" cx="0" cy="0" r="1" gradientTransform="matrix(126.28 0 0 -28.003 248.78 38.14)" gradientUnits="userSpaceOnUse"><stop stop-color="#bcbec0" offset="0"/><stop stop-color="#fff" offset="1"/></radialGradient><clipPath id="cd"><path d="m178.2 44.916c-3.042 0-5.509-2.897-5.509-6.47 0-2.702 1.413-5.016 3.418-5.983 7.937-4.546 36.259-7.91 69.989-7.91 35.257 0 64.594 3.676 70.928 8.535 1.861 1.272 3.06 3.238 3.06 5.449 0 3.837-3.595 6.946-8.029 6.946l-133.86-0.567z"/></clipPath><linearGradient id="cv" x2="1" gradientTransform="matrix(135.67 -.75775 -.75775 -135.67 184.91 35.54)" gradientUnits="userSpaceOnUse"><stop stop-color="#dbe5e6" offset="0"/><stop stop-color="#dbe5e6" offset=".0054932"/><stop stop-color="#dbe5e6" offset=".060463"/><stop stop-color="#dbe5e6" offset=".2742"/><stop stop-color="#8ba4aa" offset=".53807"/><stop stop-color="#dbe6e7" offset=".87013"/><stop stop-color="#dbe6e7" offset="1"/></linearGradient><clipPath id="ce"><path d="m173.88 41.877c0-5.8 32.329-10.503 72.212-10.503 39.88 0 72.212 4.703 72.212 10.503 0 5.802-52.863 20.737-72.212 20.737-19.348 0-72.212-14.935-72.212-20.737"/></clipPath><linearGradient id="dg" x2="1" gradientTransform="matrix(0 -19.009 -19.009 0 246.09 51.704)" gradientUnits="userSpaceOnUse"><stop stop-color="#dbe5e6" offset="0"/><stop stop-color="#dbe5e6" offset=".0054932"/><stop stop-color="#dbe5e6" offset=".027553"/><stop stop-color="#bdd2d4" offset=".36813"/><stop stop-color="#bdd2d4" offset=".37243"/><stop stop-color="#8ba4aa" offset="1"/></linearGradient><clipPath id="ch"><path d="m190.07 35.253c5.864-1.048 13.085-1.928 21.28-2.584l31.233 28.348-52.513-25.764z"/></clipPath><linearGradient id="cj" x2="1" gradientTransform="matrix(183.52 0 0 -183.52 177.07 46.844)" gradientUnits="userSpaceOnUse"><stop stop-color="#fff" offset="0"/><stop stop-color="#fff" offset=".0054932"/><stop stop-color="#dbe5e6" offset=".36143"/><stop stop-color="#dbe5e6" offset=".36813"/><stop stop-color="#8ba4aa" offset=".9717"/><stop stop-color="#8ba4aa" offset=".97253"/><stop stop-color="#8ba4aa" offset="1"/></linearGradient><linearGradient id="cl" x2="1" gradientTransform="matrix(176.48 0 0 -176.48 244.02 47.127)" gradientUnits="userSpaceOnUse"><stop stop-color="#fff" offset="0"/><stop stop-color="#fff" offset=".0054932"/><stop stop-color="#dbe5e6" offset=".36143"/><stop stop-color="#dbe5e6" offset=".36813"/><stop stop-color="#8ba4aa" offset=".9717"/><stop stop-color="#8ba4aa" offset=".97253"/><stop stop-color="#8ba4aa" offset="1"/></linearGradient><linearGradient id="co" x2="1" gradientTransform="matrix(24.375 0 0 -24.375 234.2 67.867)" gradientUnits="userSpaceOnUse"><stop stop-color="#fff" offset="0"/><stop stop-color="#fff" offset=".0069711"/><stop stop-color="#a0b9be" offset="1"/></linearGradient><radialGradient id="t" cx="0" cy="0" r="1" gradientTransform="matrix(47.749 0 0 -47.749 233.14 86.569)" gradientUnits="userSpaceOnUse"><stop stop-color="#fff5e4" offset="0"/><stop stop-color="#fff5e4" offset=".1898"/><stop stop-color="#e2eaeb" offset=".3022"/><stop stop-color="#e2eaeb" offset=".30514"/><stop stop-color="#bdd2d4" offset=".47253"/><stop stop-color="#bdd2d4" offset=".54929"/><stop stop-color="#bdd2d4" offset="1"/></radialGradient><linearGradient id="cp" x2="1" gradientTransform="matrix(24.375 0 0 -24.375 234.2 101.97)" gradientUnits="userSpaceOnUse"><stop stop-color="#fff" offset="0"/><stop stop-color="#fff" offset=".0069711"/><stop stop-color="#a0b9be" offset="1"/></linearGradient><linearGradient id="cq" x2="1" gradientTransform="matrix(46.234 -.75777 -.75777 -46.234 222.8 110.72)" gradientUnits="userSpaceOnUse"><stop stop-color="#fff" offset="0"/><stop stop-color="#fff" offset=".0069711"/><stop stop-color="#a0b9be" offset="1"/></linearGradient><clipPath id="ca"><path d="m0 500h500v-500h-500v500z"/></clipPath><radialGradient id="v" cx="0" cy="0" r="1" gradientTransform="matrix(-1.53e-5 -368.39 -368.39 1.53e-5 244.71 479.18)" gradientUnits="userSpaceOnUse"><stop stop-color="#fdba12" offset="0"/><stop stop-color="#fdb414" offset=".51095"/><stop stop-color="#fdb414" offset=".53407"/><stop stop-color="#d61f26" offset=".73489"/><stop stop-color="#d61f26" offset=".75456"/><stop stop-color="#d61f26" offset=".7678"/><stop stop-color="#9b1417" offset="1"/></radialGradient><clipPath id="cb"><path d="m0 500h500v-500h-500v500z"/></clipPath><radialGradient id="w" cx="0" cy="0" r="1" gradientTransform="matrix(68.889 0 0 -8.7155 246.47 326.07)" gradientUnits="userSpaceOnUse"><stop stop-color="#f6851f" offset="0"/><stop stop-color="#fdba12" offset=".98087"/><stop stop-color="#fdba12" offset="1"/></radialGradient><clipPath id="cc"><path d="m0 500h500v-500h-500v500z"/></clipPath><linearGradient id="cr" x2="1" gradientTransform="matrix(5.5694 -.43404 -.56085 -7.1905 283.09 407.18)" gradientUnits="userSpaceOnUse"><stop stop-color="#fff" offset="0"/><stop stop-color="#231f20" offset=".99968"/><stop stop-color="#231f20" offset="1"/></linearGradient><linearGradient id="cs" x2="1" gradientTransform="matrix(5.5303 .79507 1.0264 -7.1406 271.76 404.58)" gradientUnits="userSpaceOnUse"><stop stop-color="#fff" offset="0"/><stop stop-color="#231f20" offset=".99968"/><stop stop-color="#231f20" offset="1"/></linearGradient><linearGradient id="ct" x2="1" gradientTransform="matrix(-45.418 -143.3 138.01 -66.083 336.06 445.32)" gradientUnits="userSpaceOnUse"><stop stop-color="#fcd6cb" offset="0"/><stop stop-color="#fcd6cb" offset=".0009491"/><stop stop-color="#b18c76" offset="1"/></linearGradient><radialGradient id="x" cx="0" cy="0" r="1" gradientTransform="matrix(7.4667 -33.953 -33.953 -7.4667 331.76 433.88)" gradientUnits="userSpaceOnUse"><stop stop-color="#6abd45" offset="0"/><stop stop-color="#0b783d" offset="1"/></radialGradient><linearGradient id="cu" x2="1" gradientTransform="matrix(8.1136 -49.429 -46.802 -7.6322 331.83 433.84)" gradientUnits="userSpaceOnUse"><stop stop-color="#fcd6cb" offset="0"/><stop stop-color="#fcd6cb" offset=".0009491"/><stop stop-color="#b18c76" offset="1"/></linearGradient><linearGradient id="cw" x2="1" gradientTransform="matrix(25.252 11.531 20.12 -42.938 332.1 434.52)" gradientUnits="userSpaceOnUse"><stop stop-color="#fcd6cb" offset="0"/><stop stop-color="#fcd6cb" offset=".0009491"/><stop stop-color="#b18c76" offset="1"/></linearGradient><linearGradient id="cx" x2="1" gradientTransform="matrix(-8.4229 26.451 45.039 14.826 332.53 432.76)" gradientUnits="userSpaceOnUse"><stop stop-color="#fcd6cb" offset="0"/><stop stop-color="#fcd6cb" offset=".0009491"/><stop stop-color="#b18c76" offset="1"/></linearGradient><linearGradient id="cy" x2="1" gradientTransform="matrix(-65.932 .84418 -10.192 -66.338 331.46 434.46)" gradientUnits="userSpaceOnUse"><stop stop-color="#fcd6cb" offset="0"/><stop stop-color="#fcd6cb" offset=".0009491"/><stop stop-color="#b18c76" offset="1"/></linearGradient><linearGradient id="cz" x2="1" gradientTransform="matrix(46.86 -6.0667 4.4028 -43.461 331.43 434.02)" gradientUnits="userSpaceOnUse"><stop stop-color="#fcd6cb" offset="0"/><stop stop-color="#fcd6cb" offset=".0009491"/><stop stop-color="#b18c76" offset="1"/></linearGradient><linearGradient id="da" x2="1" gradientTransform="matrix(-41.49 22.688 -35.99 -33.576 331.25 434.66)" gradientUnits="userSpaceOnUse"><stop stop-color="#fcd6cb" offset="0"/><stop stop-color="#fcd6cb" offset=".0009491"/><stop stop-color="#b18c76" offset="1"/></linearGradient><linearGradient id="db" x2="1" gradientTransform="matrix(48.371 -29.008 -24.515 -40.594 332.49 434.03)" gradientUnits="userSpaceOnUse"><stop stop-color="#fcd6cb" offset="0"/><stop stop-color="#fcd6cb" offset=".0009491"/><stop stop-color="#b18c76" offset="1"/></linearGradient><linearGradient id="dc" x2="1" gradientTransform="matrix(-47.415 -30.746 25.872 -39.955 331.59 434.4)" gradientUnits="userSpaceOnUse"><stop stop-color="#fcd6cb" offset="0"/><stop stop-color="#fcd6cb" offset=".0009491"/><stop stop-color="#b18c76" offset="1"/></linearGradient><linearGradient id="dd" x2="1" gradientTransform="matrix(-19.949 -44.578 37.551 -17.564 331.64 434.03)" gradientUnits="userSpaceOnUse"><stop stop-color="#fcd6cb" offset="0"/><stop stop-color="#fcd6cb" offset=".0009491"/><stop stop-color="#b18c76" offset="1"/></linearGradient><linearGradient id="de" x2="1" gradientTransform="matrix(31.953 -45.162 39.491 26.07 332.18 433.32)" gradientUnits="userSpaceOnUse"><stop stop-color="#fcd6cb" offset="0"/><stop stop-color="#fcd6cb" offset=".0009491"/><stop stop-color="#b18c76" offset="1"/></linearGradient><radialGradient id="y" cx="0" cy="0" r="1" gradientTransform="matrix(129.81 -7.3278 -7.3278 -129.81 226.25 329.88)" gradientUnits="userSpaceOnUse"><stop stop-color="#ea7b22" offset="0"/><stop stop-color="#ea7b22" offset=".0025437"/><stop stop-color="#f7911d" offset=".38164"/><stop stop-color="#f7911d" offset=".38412"/><stop stop-color="#cc2227" offset="1"/></radialGradient><clipPath id="cf"><path d="m0 500h500v-500h-500v500z"/></clipPath><linearGradient id="df" x2="1" gradientTransform="matrix(94.267 61.024 60.865 -96.586 107.77 359.48)" gradientUnits="userSpaceOnUse"><stop stop-color="#fcd6cb" offset="0"/><stop stop-color="#fcd6cb" offset=".0009491"/><stop stop-color="#b18c76" offset="1"/></linearGradient><radialGradient id="z" cx="0" cy="0" r="1" gradientTransform="matrix(13.792 2.4435 2.4435 -13.792 170.62 443.29)" gradientUnits="userSpaceOnUse"><stop stop-color="#f15722" offset="0"/><stop stop-color="#f15722" offset=".26491"/><stop stop-color="#f15722" offset=".26624"/><stop stop-color="#971315" offset="1"/></radialGradient><radialGradient id="ac" cx="0" cy="0" r="1" gradientTransform="matrix(12.005 2.1269 2.1269 -12.005 163.53 472.2)" gradientUnits="userSpaceOnUse"><stop stop-color="#feda00" offset="0"/><stop stop-color="#feda00" offset=".001428"/><stop stop-color="#f99c1b" offset="1"/></radialGradient><clipPath id="cg"><path d="m0 500h500v-500h-500v500z"/></clipPath><radialGradient id="d" cx="0" cy="0" r="1" gradientTransform="matrix(50.042 .35489 .35489 -50.042 187.24 391.24)" gradientUnits="userSpaceOnUse"><stop stop-color="#ffd600" offset="0"/><stop stop-color="#f06f28" offset=".93934"/><stop stop-color="#f06f28" offset="1"/></radialGradient><radialGradient id="ad" cx="0" cy="0" r="1" gradientTransform="matrix(50.046 .35492 .35492 -50.046 187.24 391.24)" gradientUnits="userSpaceOnUse"><stop stop-color="#ffd600" offset="0"/><stop stop-color="#f06f28" offset=".93934"/><stop stop-color="#f06f28" offset="1"/></radialGradient><radialGradient id="g" cx="0" cy="0" r="1" gradientTransform="matrix(50.044 .3549 .3549 -50.044 187.24 391.24)" gradientUnits="userSpaceOnUse"><stop stop-color="#ffd600" offset="0"/><stop stop-color="#f06f28" offset=".93934"/><stop stop-color="#f06f28" offset="1"/></radialGradient><radialGradient id="e" cx="0" cy="0" r="1" gradientTransform="matrix(50.043 .3549 .3549 -50.043 187.24 391.24)" gradientUnits="userSpaceOnUse"><stop stop-color="#ffd600" offset="0"/><stop stop-color="#f06f28" offset=".93934"/><stop stop-color="#f06f28" offset="1"/></radialGradient><radialGradient id="ck" cx="0" cy="0" r="1" gradientTransform="matrix(50.042 .3549 .3549 -50.042 187.24 391.24)" gradientUnits="userSpaceOnUse"><stop stop-color="#ffd600" offset="0"/><stop stop-color="#f06f28" offset=".93934"/><stop stop-color="#f06f28" offset="1"/></radialGradient><clipPath id="ci"><path d="m114.68 369.84 23.176-26.791 65.092 56.309-23.177 26.79-65.091-56.308z"/></clipPath><radialGradient id="c" cx="0" cy="0" r="1" gradientTransform="matrix(37.614 33.008 33.008 -37.614 171.01 371.88)" gradientUnits="userSpaceOnUse"><stop stop-color="#bed73b" offset="0"/><stop stop-color="#bed73b" offset=".018771"/><stop stop-color="#609c3f" offset="1"/></radialGradient><radialGradient id="dh" cx="0" cy="0" r="1" gradientTransform="matrix(37.617 33.01 33.01 -37.617 171.01 371.88)" gradientUnits="userSpaceOnUse"><stop stop-color="#bed73b" offset="0"/><stop stop-color="#bed73b" offset=".018771"/><stop stop-color="#609c3f" offset="1"/></radialGradient><clipPath id="bs"><path d="m114.68 369.84 23.176-26.791 65.092 56.309-23.177 26.79-65.091-56.308z"/></clipPath><radialGradient id="di" cx="0" cy="0" r="1" gradientTransform="matrix(37.613 33.007 33.007 -37.613 171.01 371.88)" gradientUnits="userSpaceOnUse"><stop stop-color="#bed73b" offset="0"/><stop stop-color="#bed73b" offset=".018771"/><stop stop-color="#609c3f" offset="1"/></radialGradient><clipPath id="bt"><path d="m114.68 369.84 23.176-26.791 65.092 56.309-23.177 26.79-65.091-56.308z"/></clipPath><clipPath id="bu"><path d="m114.68 369.84 23.176-26.791 65.092 56.309-23.177 26.79-65.091-56.308z"/></clipPath><clipPath id="bv"><path d="m114.68 369.84 23.176-26.791 65.092 56.309-23.177 26.79-65.091-56.308z"/></clipPath><radialGradient id="f" cx="0" cy="0" r="1" gradientTransform="matrix(37.615 33.009 33.009 -37.615 171.01 371.88)" gradientUnits="userSpaceOnUse"><stop stop-color="#bed73b" offset="0"/><stop stop-color="#bed73b" offset=".018771"/><stop stop-color="#609c3f" offset="1"/></radialGradient><clipPath id="bw"><path d="m114.68 369.84 23.176-26.791 65.092 56.309-23.177 26.79-65.091-56.308z"/></clipPath><radialGradient id="j" cx="0" cy="0" r="1" gradientTransform="matrix(37.615 33.009 33.009 -37.615 171.02 371.88)" gradientUnits="userSpaceOnUse"><stop stop-color="#bed73b" offset="0"/><stop stop-color="#bed73b" offset=".018771"/><stop stop-color="#609c3f" offset="1"/></radialGradient><clipPath id="bx"><path d="m0 500h500v-500h-500v500z"/></clipPath><clipPath id="by"><path d="m173.57 368.7h57.984v-249.39h-57.984v249.39z"/></clipPath><radialGradient id="h" cx="0" cy="0" r="1" gradientTransform="matrix(-661.1 -8.4467 -8.4467 661.1 305.5 988)" gradientUnits="userSpaceOnUse"><stop stop-color="#fff" offset="0"/><stop stop-color="#fff" offset=".55454"/><stop stop-color="#c4e9f7" offset=".95953"/><stop stop-color="#c4e9f7" offset=".95959"/><stop stop-color="#a9dff4" offset=".96135"/><stop stop-color="#a9dff4" offset=".96175"/><stop stop-color="#fafdff" offset=".98297"/><stop stop-color="#fafdff" offset=".98299"/><stop stop-color="#bdd2d4" offset="1"/></radialGradient><radialGradient id="k" cx="0" cy="0" r="1" gradientTransform="matrix(651.91 -23.632 23.632 651.91 204 981.5)" gradientUnits="userSpaceOnUse"><stop stop-color="#fff" offset="0"/><stop stop-color="#fff" offset=".55454"/><stop stop-color="#c4e9f7" offset=".95953"/><stop stop-color="#c4e9f7" offset=".95959"/><stop stop-color="#a9dff4" offset=".96135"/><stop stop-color="#a9dff4" offset=".96175"/><stop stop-color="#fafdff" offset=".98297"/><stop stop-color="#fafdff" offset=".98299"/><stop stop-color="#bdd2d4" offset="1"/></radialGradient><linearGradient id="cm" x2="1" gradientTransform="matrix(60.947 0 0 60.947 260.78 363.81)" gradientUnits="userSpaceOnUse"><stop stop-color="#000a1e" offset="0"/><stop stop-color="#00c0f3" offset=".027129"/><stop stop-color="#00c0f3" offset=".062805"/><stop stop-color="#00c0f3" offset=".063597"/><stop stop-color="#f7f9fa" offset=".31401"/><stop stop-color="#f7f9fa" offset=".31469"/><stop stop-color="#5cb8d1" offset=".66667"/><stop stop-color="#5cb8d1" offset=".66831"/><stop stop-color="#f7f9fa" offset=".95293"/><stop stop-color="#f7f9fa" offset=".95417"/><stop stop-color="#9fddf9" offset="1"/></linearGradient><linearGradient id="cn" x2="1" gradientTransform="matrix(-60.917 0 0 60.917 232.44 363.81)" gradientUnits="userSpaceOnUse"><stop stop-color="#000a1e" offset="0"/><stop stop-color="#00c0f3" offset=".027129"/><stop stop-color="#00c0f3" offset=".062805"/><stop stop-color="#00c0f3" offset=".063597"/><stop stop-color="#f7f9fa" offset=".31401"/><stop stop-color="#f7f9fa" offset=".31469"/><stop stop-color="#5cb8d1" offset=".66667"/><stop stop-color="#5cb8d1" offset=".66831"/><stop stop-color="#f7f9fa" offset=".95293"/><stop stop-color="#f7f9fa" offset=".95417"/><stop stop-color="#9fddf9" offset="1"/></linearGradient></defs><g transform="matrix(1.25 0 0 -1.25 -148.13 617.16)"><g clip-path="url(#bz)"><path d="m122.5 38.139c0-15.465 56.536-28.002 126.28-28.002 69.743 0 126.28 12.537 126.28 28.002 0 15.466-56.535 28.004-126.28 28.004-69.741 0-126.28-12.538-126.28-28.004" fill="url(#u)"/></g><g clip-path="url(#cd)"><path d="m178.2 44.916c-3.042 0-5.509-2.897-5.509-6.47 0-2.702 1.413-5.016 3.418-5.983 7.937-4.546 36.259-7.91 69.989-7.91 35.257 0 64.594 3.676 70.928 8.535 1.861 1.272 3.06 3.238 3.06 5.449 0 3.837-3.595 6.946-8.029 6.946l-133.86-0.567z" fill="url(#cv)"/></g><g clip-path="url(#ce)"><path d="m173.88 41.877c0-5.8 32.329-10.503 72.212-10.503 39.88 0 72.212 4.703 72.212 10.503 0 5.802-52.863 20.737-72.212 20.737-19.348 0-72.212-14.935-72.212-20.737" fill="url(#dg)"/></g><g clip-path="url(#ch)"><path d="m190.07 35.253c5.864-1.048 13.085-1.928 21.28-2.584l31.233 28.348-52.513-25.764z" fill="url(#cj)"/></g><path d="m287.12 33.236c7.928 0.798 14.698 1.821 19.888 3.005l-50.497 24.776 30.609-27.781z" fill="url(#cl)"/><path d="m246.14 79.486c-6.593 0-11.939-1.999-11.939-4.462v-14.314c0-2.463 5.346-4.462 11.939-4.462h0.498c6.593 0 11.937 1.999 11.937 4.462v14.314c0 2.463-5.344 4.462-11.937 4.462h-0.498z" fill="url(#co)"/><path d="m227.91 84.213c0-10.201 8.269-18.465 18.47-18.465 10.2 0 18.471 8.264 18.471 18.465 0 10.204-8.271 18.471-18.471 18.471-10.201 0-18.47-8.267-18.47-18.471" fill="url(#t)"/><path d="m246.14 113.59c-6.593 0-11.939-1.998-11.939-4.461v-14.314c0-2.464 5.346-4.463 11.939-4.463h0.498c6.593 0 11.937 1.999 11.937 4.463v14.314c0 2.463-5.344 4.461-11.937 4.461h-0.498z" fill="url(#cp)"/><path d="m261.2 115.75c-9.626-2.637-20.012-2.638-29.637 0-2.862 0.787-6.096-0.342-7.311-2.837-1.216-2.495 0.546-5.61 4.044-6.571 13.073-2.587 23.096-2.586 36.171 0 3.497 0.961 5.259 4.076 4.043 6.571-0.957 1.966-3.168 3.085-5.464 3.085-0.617 0-1.24-0.081-1.846-0.248" fill="url(#cq)"/><g clip-path="url(#ca)"><g transform="translate(248.02 111.37)"><path d="m0 0h-0.106" fill="none" stroke="#231f20"/></g></g><path d="m180.61 325.66c1.593-6.926 4.217-25.064-5.451-45.143-9.584-19.904-35.041-72.776-1.997-120.5l0.076-0.111 0.063-0.119c0.209-0.394 21.528-39.425 72.289-43.85l2.255-0.016c50.838 4.434 71.409 43.445 71.611 43.839l0.068 0.132 0.085 0.125c33.044 47.728 7.586 100.6-1.998 120.5-9.865 20.49-6.776 38.598-5.199 45.194l-131.8-0.051z" fill="url(#v)"/><g clip-path="url(#cb)"><g transform="translate(329.07 380.57)"><path d="m0 0c-2.844 5.347-34.517 10.878-82.593 10.878-48.077 0-79.75-5.531-82.594-10.878l-1.004 0.534c3.483 6.546 39.422 11.481 83.598 11.481s80.114-4.935 83.597-11.481l-1.004-0.534z" fill="#c5e9f8"/></g></g><path d="m180.51 326.07c0-5.299 29.533-9.595 65.968-9.595 36.431 0 65.966 4.296 65.966 9.595s-29.535 9.596-65.966 9.596c-36.435 0-65.968-4.297-65.968-9.596" fill="url(#w)"/><g clip-path="url(#cc)"><g transform="translate(247.98 113.08)"><path d="m0 0-2.504 0.016c-52.502 4.526-74.475 44.952-74.691 45.36-33.951 49.031-7.971 102.99 1.81 123.3 11.58 24.051 4.592 45.744 4.52 45.961l-14.183 51.074 1.095 0.305 14.175-51.048c0.065-0.193 7.205-22.303-4.584-46.784-9.701-20.149-35.472-73.67-1.863-122.22 0.248-0.461 21.953-40.346 73.774-44.816l2.407-0.015c51.79 4.469 72.827 44.363 73.033 44.766 33.648 48.611 7.877 102.13-1.824 122.28-11.79 24.481-4.649 46.591-4.576 46.812l14.546 50.909 1.093-0.312-14.554-50.933c-0.078-0.24-7.066-21.933 4.514-45.984 9.78-20.311 35.76-74.267 1.774-123.36-0.17-0.344-21.499-40.793-73.962-45.318" fill="#bdd2d4"/></g></g><path d="m292.08 487.94-12.628-161.95c-0.084-1.077 0.847-2.029 2.08-2.125 1.232-0.096 2.3 0.7 2.384 1.777l12.628 161.95c0.084 1.078-0.847 2.03-2.079 2.126-0.068 6e-3 -0.135 8e-3 -0.202 8e-3 -1.146 0-2.105-0.767-2.183-1.785" fill="url(#cr)"/><path d="m264.8 487.61c-1.224-0.176-2.092-1.186-1.938-2.256l23.107-160.79c0.155-1.069 1.271-1.794 2.496-1.618 1.223 0.176 2.092 1.185 1.937 2.256l-23.108 160.79c-0.139 0.962-1.054 1.645-2.127 1.645-0.12 0-0.243-8e-3 -0.367-0.026" fill="url(#cs)"/><path d="m295.53 322.44c0.427 0.102 0.854 0.218 1.282 0.323l40.7 122.12-2.418 1.181-39.564-123.63z" fill="url(#ct)"/><path d="m266.54 437.8c-4.842-18.36 17.054-40.051 48.906-48.45 31.851-8.4 61.598-0.327 66.439 18.033 4.842 18.359-17.054 40.051-48.907 48.45-8.552 2.255-16.952 3.323-24.759 3.323-21.27 0-38.138-7.926-41.679-21.356" fill="url(#x)"/><path d="m331.33 433.84 9.151-51.305 0.245 0.042-8.576 51.404-0.82-0.141z" fill="url(#cu)"/><path d="m331.91 434.81 0.358-0.753 25.963 12.651-0.107 0.225-26.214-12.123z" fill="url(#cw)"/><path d="m323.32 460.08 8.893-27.478 0.791 0.264-9.447 27.293-0.237-0.079z" fill="url(#cx)"/><path d="m263.02 435.67 68.435-1.888 0.188 1.165-68.567 1.07-0.056-0.347z" fill="url(#cy)"/><path d="m331.4 433.59 48.683-5.65-0.025 0.23-48.741 6.185 0.083-0.765z" fill="url(#cz)"/><path d="m288.34 458.4 42.615-24.114 0.639 0.586-43.064 23.702-0.19-0.174z" fill="url(#da)"/><path d="m332.16 433.66 50.692-29.559 0.127 0.214-50.397 30.061-0.422-0.716z" fill="url(#db)"/><path d="m282.08 402.87 0.134-0.21 49.721 31.377-0.448 0.706-49.407-31.873z" fill="url(#dc)"/><path d="m310.54 387.9 0.195-0.092 21.328 46.107-0.657 0.314-20.866-46.329z" fill="url(#dd)"/><path d="m331.83 433.21 33.131-47.063 0.208 0.134-32.641 47.382-0.698-0.453z" fill="url(#de)"/><path d="m206.57 458.83c-8.157-1.258-13.724-8.92-12.439-17.109 1.123-7.135 7.083-12.313 13.992-12.691 0 0 7.409-47.23 12.132-77.263 0.192-1.199 3.674-23.29 3.819-24.165 0.599-3.547 6.692-2.691 6.315-0.357-0.093 0.59-3.64 23.125-3.824 24.303-4.778 30.389-12.331 78.425-12.331 78.425 6.47 2.449 10.556 9.18 9.434 16.316-1.167 7.414-7.555 12.717-14.807 12.717-0.756 0-1.521-0.057-2.291-0.176" fill="url(#y)"/><g clip-path="url(#cf)"><g transform="translate(219.17 448.96)"><path d="m0 0c-0.217-3.851-4.431-6.743-9.417-6.461-4.983 0.28-8.847 3.629-8.629 7.481 0.216 3.849 4.433 6.743 9.416 6.462 4.986-0.282 8.847-3.631 8.63-7.482" fill="#f15a29"/></g></g><path d="m156.84 483.58 40.279-157.79 2.02 0.516-40.28 157.79-2.019-0.516z" fill="url(#df)"/><path d="m167.35 450.58c-7.106-1.254-11.844-8.036-10.585-15.139 1.257-7.103 8.038-11.842 15.139-10.583 7.105 1.259 11.843 8.036 10.583 15.139-1.117 6.333-6.628 10.786-12.842 10.786-0.757 0-1.524-0.066-2.295-0.203" fill="url(#z)"/><path d="m160.12 479.24c-7.103-1.258-11.842-8.035-10.583-15.141 1.259-7.102 8.036-11.841 15.14-10.584 7.104 1.258 11.842 8.04 10.582 15.142-1.12 6.333-6.631 10.786-12.845 10.786-0.756 0-1.523-0.066-2.294-0.203" fill="url(#ac)"/><g clip-path="url(#cg)"><g transform="translate(220.25 390.53)"><path d="m0 0c0-18.732-15.185-33.917-33.917-33.917s-33.917 15.185-33.917 33.917c0 18.731 15.185 33.917 33.917 33.917s33.917-15.186 33.917-33.917" fill="#f7931d"/></g><g transform="translate(219.18 390.53)"><path d="m0 0c0-18.144-14.708-32.853-32.853-32.853-18.144 0-32.852 14.709-32.852 32.853s14.708 32.853 32.852 32.853c18.145 0 32.853-14.709 32.853-32.853" fill="#feeb8c"/></g></g><path d="m179.15 421.68c-1.346 0-2.117-1.051-1.712-2.335l8.031-25.484c0.404-1.284 1.09-1.291 1.523-0.016l8.66 25.516c0.433 1.276-0.315 2.319-1.662 2.319h-14.84z" fill="url(#d)"/><path d="m174.42 420.3-12.004-8.723c-1.09-0.791-1.095-2.095-0.014-2.896l21.476-15.896c1.083-0.801 1.642-0.404 1.242 0.882l-7.992 25.733c-0.261 0.841-0.871 1.305-1.567 1.305-0.37 0-0.763-0.131-1.141-0.405" fill="url(#d)"/><path d="m159.39 407.68-4.586-14.113c-0.416-1.281 0.346-2.339 1.692-2.351l26.718-0.237c1.347-0.011 1.566 0.638 0.486 1.444l-21.591 16.121c-0.381 0.285-0.78 0.42-1.155 0.42-0.688 0-1.295-0.455-1.564-1.284" fill="url(#ad)"/><path d="m154.66 388.64 4.586-14.113c0.416-1.281 1.655-1.689 2.751-0.907l21.754 15.511c1.096 0.783 0.892 1.438-0.455 1.456l-26.944 0.351h-0.033c-1.326 0-2.071-1.027-1.659-2.298" fill="url(#g)"/><path d="m184.04 388.85-22.004-15.553c-1.1-0.777-1.108-2.061-0.018-2.852l12.005-8.724c1.09-0.791 2.331-0.394 2.759 0.883l8.482 25.337c0.28 0.839 0.139 1.303-0.302 1.303-0.231 0-0.544-0.127-0.922-0.394" fill="url(#e)"/><path d="m185.66 387.89-8.662-25.517c-0.432-1.275 0.316-2.318 1.662-2.318l14.841-1e-3c1.347 1e-3 2.117 1.051 1.712 2.336l-8.031 25.484c-0.203 0.645-0.477 0.968-0.755 0.968-0.274 0-0.552-0.317-0.767-0.952" fill="url(#g)"/><path d="m187.54 388.07 7.992-25.734c0.399-1.286 1.618-1.69 2.706-0.898l12.007 8.722c1.089 0.791 1.095 2.094 0.012 2.896l-21.475 15.896c-0.379 0.281-0.694 0.414-0.926 0.414-0.431 0-0.576-0.46-0.316-1.296" fill="url(#e)"/><path d="m188.96 389.32 21.591-16.122c1.08-0.806 2.302-0.417 2.719 0.865l4.586 14.113c0.416 1.28-0.346 2.338-1.692 2.35l-26.717 0.237h-0.036c-1.316 0-1.522-0.645-0.451-1.443" fill="url(#e)"/><path d="m210.67 408.12-21.754-15.512c-1.097-0.783-0.891-1.437 0.455-1.454l26.944-0.352c1.347-0.017 2.107 1.017 1.691 2.298l-4.585 14.113c-0.273 0.84-0.899 1.304-1.607 1.304-0.371 0-0.766-0.128-1.144-0.397" fill="url(#d)"/><path d="m195.88 419.13-8.483-25.337c-0.426-1.278 0.123-1.687 1.223-0.909l22.005 15.553c1.099 0.777 1.107 2.061 0.018 2.853l-12.006 8.723c-0.379 0.275-0.778 0.407-1.154 0.407-0.702 0-1.325-0.459-1.603-1.29" fill="url(#ck)"/><g clip-path="url(#ci)"><g transform="translate(196.44 392.94)"><path d="m0 0c12.255-14.167 10.707-35.586-3.461-47.841-14.167-12.256-35.586-10.706-47.841 3.461-12.256 14.167-10.706 35.586 3.461 47.841 14.167 12.256 35.586 10.706 47.841-3.461" fill="#74b74a"/></g><g transform="translate(195.64 392.24)"><path d="m0 0c11.87-13.722 10.369-34.469-3.353-46.339-13.722-11.871-34.468-10.369-46.339 3.352-11.871 13.722-10.37 34.469 3.352 46.34 13.722 11.87 34.469 10.369 46.34-3.353" fill="#feeb8c"/></g></g><path d="m156.2 399.32-11.223-9.709c-1.018-0.882-0.913-2.18 0.232-2.887l22.747-14.019c1.147-0.707 1.67-0.264 1.163 0.984l-10.145 24.964c-0.31 0.764-0.898 1.172-1.542 1.172-0.407 0-0.837-0.164-1.232-0.505" fill="url(#c)"/><path d="m142.3 385.47-3.372-14.451c-0.306-1.311 0.541-2.301 1.885-2.198l26.641 2.028c1.343 0.102 1.507 0.769 0.363 1.48l-22.88 14.233c-0.356 0.221-0.716 0.326-1.053 0.326-0.744 0-1.373-0.514-1.584-1.418" fill="url(#c)"/><path d="m167.56 370.46-26.878-1.934c-1.343-0.097-2.013-1.192-1.49-2.431l5.765-13.675c0.524-1.241 1.792-1.544 2.817-0.671l7.874 6.691 13.063 11.299c0.189 0.444-0.126 0.73-0.892 0.73-0.081 0-0.168-3e-3 -0.259-9e-3" fill="url(#dh)"/><g clip-path="url(#bs)"><path d="m163.45 342.04c-0.318-1.309-1.521-1.81-2.674-1.114l-12.701 7.674c-1.153 0.696-1.253 1.975-0.223 2.843l20.606 17.363c1.031 0.868 1.613 0.507 1.296-0.802l-6.304-25.964z" fill="url(#di)"/></g><g clip-path="url(#bt)"><path d="m181.83 343.38c0.514-1.245-0.166-2.358-1.507-2.472l-14.786-1.258c-1.342-0.114-2.176 0.862-1.853 2.17l6.467 26.159c0.323 1.307 1.006 1.358 1.519 0.112l10.16-24.711z" fill="url(#c)"/></g><g clip-path="url(#bu)"><path d="m195.92 355.28c1.146-0.707 1.251-2.005 0.233-2.887l-11.224-9.708c-1.018-0.881-2.267-0.583-2.774 0.666l-10.143 24.963c-0.507 1.248 0.015 1.691 1.162 0.984l22.746-14.018z" fill="url(#c)"/></g><g clip-path="url(#bv)"><path d="m200.32 373.19c1.343 0.103 2.19-0.887 1.885-2.198l-3.374-14.452c-0.306-1.311-1.491-1.803-2.635-1.092l-22.881 14.234c-1.143 0.712-0.981 1.377 0.363 1.48l26.642 2.028z" fill="url(#f)"/></g><g clip-path="url(#bw)"><path d="m193.35 390.26c1.026 0.873 2.293 0.57 2.817-0.67l5.765-13.674c0.523-1.241-0.147-2.336-1.491-2.433l-26.877-1.933c-1.343-0.097-1.603 0.537-0.576 1.41l20.362 17.3z" fill="url(#j)"/></g><path d="m177.68 399.98-6.303-25.964c-0.318-1.309 0.264-1.669 1.295-0.802l1.836 1.547 19.435 16.813c0.173 0.679-0.13 1.388-0.888 1.846l-12.702 7.674c-0.352 0.213-0.71 0.314-1.045 0.314-0.761 0-1.408-0.519-1.628-1.428" fill="url(#c)"/><path d="m175.59 402.36-14.787-1.257c-1.342-0.114-2.021-1.227-1.508-2.473l10.161-24.71c0.513-1.247 1.197-1.196 1.52 0.112l6.466 26.159c0.306 1.238-0.424 2.178-1.641 2.178-0.069 0-0.139-3e-3 -0.211-9e-3" fill="url(#f)"/><g clip-path="url(#bx)"><g clip-path="url(#by)" opacity=".25"><g transform="translate(195.61 162.89)"><path d="m0 0c-26.358 54.745 7.284 105.44 19.949 124.53 14.996 22.598 11.279 45.607 11.24 45.838l-0.277 2.292c-0.183 1.086-0.39 3.049-0.665 5.506l-0.66 5.449c-0.127 0.953-0.261 1.925-0.411 2.91-1.026 6.784-0.906 6.622-1.874 13.031-0.228 1.514-0.423 2.89-0.588 4.129-6.804 0.246-14.178 0.574-21.003 1.007-5.424 0.345-10.661 0.709-15.48 1.12 0.314-1.221 1.245-4.983 2.94-10.559 1.878-6.193 1.737-6.05 3.729-12.605 0.29-0.952 0.563-1.894 0.825-2.817l1.437-5.29c0.626-2.389 1.112-4.3 1.45-5.346l0.604-2.226c0.072-0.221 7.06-22.421-4.52-47.032-9.78-20.786-35.76-75.998-1.81-126.17 0.163-0.315 12.609-23.743 41.056-37.341-26.716 17.761-35.825 43.244-35.942 43.581" fill="#fff"/></g></g><g transform="translate(246.48 367.19)"><path d="m0 0c-41.263 0-83.942 4.749-83.942 12.695 0 0.382 0.112 0.78 0.344 1.215l1.004-0.534c-0.142-0.267-0.211-0.49-0.211-0.681 0-5.582 33.273-11.558 82.805-11.558 49.53 0 82.804 5.976 82.804 11.558 0 0.191-0.069 0.414-0.211 0.681l1.004 0.534c0.232-0.435 0.343-0.833 0.343-1.215 0-7.946-42.678-12.695-83.94-12.695" fill="#c5e9f8"/></g></g><path d="m166.03 366.04c0.154-0.51 1.093-4.431 3.039-10.684 1.879-6.053 1.737-5.913 3.729-12.318 1.99-6.398 3.343-12.442 3.934-13.746 0.597-1.325-1.117 6.031-2.872 14.458-1.754 8.428-7.003 24.293-5.695 26.167 0.703 1.005 1.679 0.633 2.51 0.498 7.613-1.229 18.682-2.062 30.641-2.803 20.459-1.268 45.897-1.624 45.897-1.624l-0.462 2.416s-26.43-0.413-45.725 2.013c-24.31 3.054-36.556 4.053-37.34 10.169-0.104 0.059-0.195 0.088-0.273 0.088-1.555 1e-3 1.562-11.038 2.617-14.634" fill="url(#h)"/><path d="m166.03 366.04c0.154-0.51 1.093-4.431 3.039-10.684 1.879-6.053 1.737-5.913 3.729-12.318 1.99-6.398 3.343-12.442 3.934-13.746 0.597-1.325-1.117 6.031-2.872 14.458-1.754 8.428-7.003 24.293-5.695 26.167 0.703 1.005 1.679 0.633 2.51 0.498 7.613-1.229 18.682-2.062 30.641-2.803 20.459-1.268 45.897-1.624 45.897-1.624l-0.462 2.416s-26.43-0.413-45.725 2.013c-24.31 3.054-36.556 4.053-37.34 10.169-0.104 0.059-0.195 0.088-0.273 0.088-1.555 1e-3 1.562-11.038 2.617-14.634" fill="url(#h)"/><path d="m329.83 379.77c-0.928-6.097-13.194-6.808-37.569-9.29-19.346-1.973-44.995-2.147-44.995-2.147l-0.047-2.345s24.204 0.905 44.686 1.694c11.973 0.461 23.06 1.032 30.699 2.084 0.836 0.115 1.819 0.464 2.498-0.558 1.263-1.903-4.356-17.64-6.308-26.026-1.952-8.383-3.838-15.696-3.21-14.386 0.621 1.29 2.116 7.3 4.256 13.65 2.142 6.357 1.997 6.22 4.016 12.228 2.092 6.205 3.122 10.103 3.29 10.609 1.141 3.576 4.524 14.569 2.952 14.568-0.077 0-0.166-0.026-0.268-0.081" fill="url(#k)"/><path d="m329.13 378.2c-0.77-1.163-1.871-2.227-4.032-2.919-18.72-6.001-54.721-7.326-54.721-7.326-1.072-0.118-2.703-0.695-0.19-0.569 31.833 1.515 42.065 3.031 55.122 6.27 0.041 0.011 2.143 1.303 2.027-0.652-0.178-2.994-5.173-20.577-6.034-24.236 1.424 2.473 7.547 25.123 8.131 27.637 0.44 1.888 0.402 2.391 0.233 2.391-0.157 0-0.429-0.437-0.536-0.596" fill="url(#cm)"/><path d="m163.77 376.4c0.584-2.514 6.706-25.164 8.129-27.637-0.86 3.659-5.856 21.242-6.033 24.236-0.116 1.955 1.986 0.663 2.027 0.652 13.057-3.239 23.289-4.755 55.122-6.27 2.513-0.126 0.882 0.451-0.189 0.569 0 0-36.002 1.325-54.723 7.326-2.161 0.692-3.261 1.756-4.032 2.919-0.106 0.159-0.378 0.596-0.535 0.596-0.169 0-0.207-0.503 0.234-2.391" fill="url(#cn)"/></g></svg>
