<?xml version="1.0" encoding="UTF-8"?>
<svg enable-background="new 0 0 412.684 311.655" viewBox="0 0 412.684 311.655" xmlns="http://www.w3.org/2000/svg">
 <path d="m318.163,0c44.081,6.293 108.214,50.411 91.934,103.228-19.365,62.817-89.646,55.997-141.224,43.094 4.878-4.688-4.87-9.773-9.244-13.854 2.177-.483 3.99-2.608 6.168-3.083-6.375-5.225-.87-13.049 6.927-10.784-1.536-3.066-1.439-7.002-3.076-10.01 4.876.515 9.752,1.028 14.627,1.542-.488-6.23 2.564-1.623 3.851-5.392 .936-2.736-1.148-8.615-1.541-11.552 3.193.875 6.912.412 10.018,1.542-8.689-11.059-9.065-10.089 0-20.795-14.763-2.598-11.471-14.721-13.094-27.729l16.17,3.084c-3.366-6.217-11.177-14.823-8.941-21.844 5.012-15.744 4.978-13.459 21.267-10.495-.614-4.199-2.681-7.536-6.166-10.018l12.324-6.934"/>
 <path d="m351.277,169.425c10.483,5.458 35.383,12.623 29.651,29.654-1.767,5.246-4.117,9.488-8.088,13.479-4.289,4.313 10.668,9.18 13.863,10.78 13.475,6.75 18.763,17.389 14.63,32.35-5.939,21.503-20.86,24.363-39.664,28.105-7.142,1.421-27.56-3.602-31.954,5.001-3.786,7.409 7.702,11.84-3.084,18.485-14.027,8.644-47.477,2.005-63.001.888-20.827-1.497-40.977-7.097-60.602-13.59-14.115-4.67-24.966-1.511-38.122,4.234-19.097,8.338-35.223,9.16-56.315,5.627-25.84-4.327-50.461-17.333-70.325-33.898-13.176-10.99-13.526-30.811 3.42-37.957-12.066-.877-26.886-.519-36.964-8.092-8.248-6.197-4.713-14.961 3.08-18.864 16.208-8.12 38.5-9.913 55.447-3.081-9.256-21.48 43.085-31.62 56.225-33.121-36.123-13.883-58.061-56.252-26.187-87.789 19.133-18.93 55.807-29.781 82.404-24.645-2.589,1.221-4.384,4.082-6.934,5.392 4.174,3.244 12.083-2.307 18.485-1.542 4.288.513 9.233,2.707 13.094,4.618-2.592,1.188-4.342,4.212-6.934,5.399 5.618,3.345 11.838,5.937 16.944,10.003-1.126,2.436-3.054,3.842-4.625,6.167-1.287,1.905-5.212-.018-6.926,1.535-2.951,2.674-1.933,5.361-5.392,7.701 4.083.197 11.012,9.332 9.243,14.635-1.251,3.751-10.981,3.902-11.938,7.706-2.757,10.945 17.67,17.374 15.014,29.267 5.088-11.608 14.602-6.935 21.567-6.935 12.369,0 13.972,10.784 24.644,10.784 6.123,0 11.434,3.726 16.941,5.385 7.482,2.254 14.809,2.762 22.848,3.652 9.439,1.045 19.164,1.855 28.639,2.714 9.823.891 22.825,6.332 30.916,5.953"/>
 <path d="m224.97 144.79c7.699-7.34 14.796-0.343 17.719 7.701 2.681 7.378 1.982 14.545-2.697 20.794-6.66 8.896-12.073-1.02-18.098-1.541-10.723-0.93-23.446 7.193-19.253-13.094 2.046-9.904 15.079-24.82 22.329-13.86" fill="#fff"/>
 <path d="m203.412,150.173c-1.719,5.602-6.939,16.193-1.538,21.568 7.557,7.52 11.77,1.278 20.023,2.309 5.795.726 7.785,7.285 15.397,3.465 8.437-4.233 10.834-14.836 7.706-23.491 30.41.854 60.835,29.494 60.835,60.047 0,38.759-59.382,40.772-85.48,38.533-26.992-2.314-78.643-10.453-81.83-45.319-3.089-33.811 38.805-55.593 64.887-57.112" fill="#ffb10f"/>
 <path d="m197.252,177.902c-.684.117-2.96,1.444-4.618,1.542 10.038,29.512 53.066,22.569 64.686-2.315-1.512-.094-3.386-.981-5.393-.769 4.433-5.53 11.399-4.01 13.093,3.084-6.11-4.387-13.14,8.683-16.943,13.86-4.134,5.627-3.654,5.604-6.159,13.86-2.207,7.273-6.266,15.443-14.628,16.169-18.048,1.566-9.999-19.651-19.258-24.254-7.099-3.529-17.411-21.61-22.331-15.785 .791-7.541 9.637-7.118 11.551-5.392"/>
 <path d="m213.42 207.16c4.091-3.037 8.763-4.533 13.868-4.618-2.346 2.675-2.438 4.148-3.851 6.935 7.168-8.779 24.146-11.184 13.855 4.23-8.654 12.968-22.084 6.44-23.872-6.547" fill="#fff"/>
 <path d="m214.96 228.73c3.962 8.48 13.748 8.99 19.253 1.534-6.791 2.61-13.242 3.385-19.253-1.534"/>
 <path d="m145.653,190.228c5.502-9.747 14.83-24.795 26.954-26.187-6.244,7.863-14.604,14.916-17.711,25.412-1.858,6.274-2.188,12.797-.768,19.252 .686,3.117 4.91,6.363 3.851,10.01-2.609,8.98-8.701,2.307-11.551-2.308-4.826-7.81-3.283-17.903-.775-26.179" fill="#fff"/>
 <path d="m295.83 191c17.649 16.18-9.884 62.461-21.563 48.517-6.833-8.16 5.683-12.229 10.01-15.404 13.761-10.098 11.446-18.749 10.01-33.88 0.517 0.146 3.196 1.454 1.543 0.767" fill="#fff070"/>
 <path d="m221.12 129.38c-5.271-0.024-8.891 3.706-10.778 8.469 4.736-4.442 14.628-0.44 10.778-8.469"/>
 <path d="m229.6,127.069c5.195,1.091 8.28,4.753 9.241,10.018-2.994-2.617-6.556-3.51-10.017-2.317-.275-2.628-.101-5.516.776-7.701"/>
 <path d="m366.678,211.015c.527-2.218-.377-4.229 1.542-6.934-17.706,7.739 21.52,23.99 25.412,28.502 13.496,15.642-2.49,40.639-20.081,45.061-14.195,3.567-43.912-2.727-48.462,14.233-1.563,5.823 7.004,7.488-2.25,10.952-4.223,1.581-9.32,1.971-13.818,2.222-12.192.681-24.143.146-36.334-.386-22.098-.965-43.677-5.144-64.65-12.021-19.776-6.484-36.737-2.938-55.067,8.093-28.626,17.226-99.929-11.899-117.442-37.349-13.431-19.518 9.229-31.769 25.47-35.829 5.375-1.345 19.059-2.315 20.737-9.61 1.81-7.869-6.144-7.449-11.164-10.785-17.667-11.738 11.271-24.579 20.408-27.721 19.529-6.716 39.547-8.47 60.067-8.47-17.419,17.633-21.071,44.274-1.542,61.609 20.253,17.979 55.147,22.325 81.209,23.406 26.491,1.098 60.576-2.58 74.356-28.805 13.808-26.272-7.48-49.517-26.953-64.686 23.155,2.011 46.979,3.016 69.349,9.823 14.606,4.447 48.933,25.951 19.213,38.695" fill="#e9e2f0"/>
 <path d="m3.182 212.56c7.5-9.422 32.141-13.454 43.515-11.166 13.922 2.803 17.984 3.01 15.786 14.241-1.083 5.533 2.97 6.13-3.851 10.784-6.08 4.148-18.187 3.572-25.1 2.885-9.542-0.95-33.789-3.653-30.35-16.744" fill="#e9e2f0"/>
 <path d="m64.024,224.108c4.441-3.983.88-11.472 3.076-16.943 1.285,1.57 12.614,4.229 12.326,9.243-.299,5.208-12.094,8.136-15.402,7.7" fill="#fff"/>
 <path d="m143.345,100.115c-9.455-3.282-12.291,1.044-19.253,6.935 7.524-4.631 9.283-6.281 17.809-4.859 5.026.838 6.375,13.905 1.444,16.41l9.243,14.635-17.691,10.321c-1.957,1.141-10.996-4.792-16.964-1.853 20.074-6.661 22.154,17.786 33.113,26.187-30.252,0-63.636-4.988-69.311-41.972-7.733-50.404 50.137-65.544 88.564-67.386-7.213,5.113-22.84,18.076-29.263,7.702 4.792,4.797-.205,14.35-6.421,13.662-7.948-.88-12.616,4.837-18.991,9.441 10.662-6.177 20.33-8.056 29.069-16.063 8.269-7.576 22.353,1.407 26.373,9.137-7.915,5.426-19.425,16.284-27.721,17.703" fill="#d09f76"/>
 <path d="m165.681,62.384c4.472,6.718 8.511,3.285 14.483.723 4.103-1.76 10.536,1.357 14.779,2.354-2.604,1.156-4.383,4.116-6.934,5.399 6.161,3.335 12.323,6.668 18.485,10.003-2.482,6.735-5.845,2.392-10.009,5.4-5.172,3.736 1.294,6.927-6.935,6.927-10.197,0-14.854-2.812-25.412,0 8.691-1.863 27.834-1.37 32.729,8.472 3.002,6.035 3.906,8.657-2.695,11.939-2.862,1.422-6.068,5.909-7.706,6.543-8.285,3.207-15.297-1.102-22.329-4.626 6.354,4.369 9.533,6.935 16.939,6.935 11.677,0 9.95,8.412 17.328,15.79 16.013,16.014-24.62,15.783-34.268,10.396 2.947,1.419 7.691,3.396 10.776,6.16-4.826,1.614-15.831,12.59-20.02,12.326-10.396-.653-8.735-19.37-17.711-22.336l16.95-10.322c1.668-1.015-6.419-12.873-7.707-15.099 7.004-1.948.796-9.823-1.143-15.085-1.047-2.842 13.511-10.965 15.917-12.674 2.57-1.826 14.022-7.581 11.984-10.643-5.465-8.207-8.061-8.699-17.524-11.655 3.422-2.099 7.657-4.302 10.023-6.927" fill="#e9d9a8"/>
 <path d="m318.163,3.083c49.21,8.836 98.741,48.699 86.479,102.657-13.002,57.208-88.328,47.806-130.377,39.048 9.642-4.075-2.511-11.772-7.078-16.847-3.495-3.885-1.352-6.201 3.347-6.563 8.57-.659 15.817,2.246 16.438-7.012 .761-11.352 23.515-12.085 33.602-14.836 .729-.199 6.732,5.391 9.628,5.753 8.89,1.113 9.075,2.639 14.142,10.234l-5.52-9.656c-2.078-3.637-9.029-1.223-12.191-3.43-5.33-3.719-3.06-6.977-6.159-10.785-4.055-4.979-10.745-8.246-13.861-12.319 10.388-10.387 16.622-18.643 27.722-18.486 14.446.205 19.11.849 30.038,10.786-4.245-8.94-12.157-11.703-20.797-13.094-8.501-1.37-8.748,2.145-13.858-6.546-4.365-7.42-3.533-7.023 1.346-14.339 2.103-3.153-8.017-10.422-10.589-12.995 2.368-1.128 3.777-4.306 6.159-5.4l-15.403-11.552c1.727-.897 7.549-4.954 6.932-4.618" fill="#d09f76"/>
 <path d="m322.012,19.253-8.475-6.927c1.101,2.282.677,5.307 1.542,7.702l-16.731-2.906c-1.802-.313-6.282,12.411-5.136,14.543 2.786,5.175 5.832,15.471 10.315,19.167 4.694,3.87 8.936-2.765 13.86,6.16-5.832-6.959-22.254-5.989-30.805-7.701 1.878,15.611-.379,18.41 14.635,23.103-10.261,12.823-8.934,11.98.769,25.42l-12.32-1.55c-.36,2.214-.025,6.381.768,8.477 7.543-2.694 16.443-4.986 24.262-6.543 9.749-1.943.469-6.988-1.925-9.634-3.901-4.314-9.112-6.284-7.702-11.552 1.738-6.489 16.215-14.913 20.795-20.02 2.813,2.489 4.104,1.505 6.16,2.316-6.108-7.156-11.3-16.181-3.084-23.104l-12.319-11.552c1.655-1.656 3.353-4.295 5.391-5.399" fill="#e9d9a8"/>
 <path d="m284.274,112.442-10.777-.774c-.725,9.563 12.311,9.454 10.777.774" fill="#e9d9a8"/>
 <path d="m275.81 140.17c-4.267 4.086-7.901-3.286-11.552-6.935 5.876-2.492 7.521 2.498 11.552 6.935" fill="#e9d9a8"/>
 <path d="m229.6,160.958c-.429,1.672.635-1.256.766-1.533-16.666.547 7.175,25.088 3.084,3.075-2.918,2.328-1.87-.86-3.85-1.542"/>
 <path d="m219.589,160.958c-.32.762-.335.305-.774-.768-.006.128 1.479-.715 1.541-.766-5.239-.277-8.349,6.469-4.617,10.775 4.465,5.153 9.093-2.571 6.927-7.7-2.404,2.298-1.817-.911-3.077-1.541"/>
 <path d="m45.538 239.51c-25.2 22.468 86.001 74.594 111.67 50.831-7.402-4.73-24.293-2.279-33.369-3.282-16.039-1.772-31.683-9.846-44.748-18.979-7.347-5.135-18.866-10.956-13.91-20.869 4.274-8.546-15.301-9.759-19.64-7.701" fill="#fff"/>
 <path d="m77.117,188.679c-17.247,12.946 7.793,22.913 11.165,16.177 4.409-8.813-18.336-4.986-7.314-16.177-1.178.193-4.129.028-3.851,0" fill="#fff"/>
 <path d="m198.794,275.708c19.321-1.03 35.638,12.102 54.021,17.112 12.732,3.472 25.519,4.237 38.393,5.992 10.981,1.497 11.408,5.66.384,3.467-24.918-4.96-51.241.051-75.086-11.936-5.061-2.544-10.818-5.936-15.403-9.25-3.178-2.299-10.023-4.284-2.309-5.385" fill="#fff"/>
 <path d="m321.24 272.62c11.896-4.08 25.935-1.788 37.739 1.543-4.493 5.066-21.175-1.043-29.651 4.62-11.235 7.505-13.422-4.184-8.088-6.163" fill="#fff"/>
 <path d="m8.574 213.33c1.466 14.311 29.186 14.8 38.505 11.551-5.862-4.846-18.038-1.099-24.642-7.704-3.623-3.627-9.032-13.636-13.863-3.847" fill="#fff"/>
</svg>
