<svg xmlns="http://www.w3.org/2000/svg" xmlns:xlink="http://www.w3.org/1999/xlink" version="1.1" id="svg-edited-version" x="0px" y="0px" viewBox="0 0 595.28 595.28" enable-background="new 0 0 595.28 595.28" xml:space="preserve" class="injected-svg" data-src="https://preview.pixlr.com/images/svg/100/1/8586cfd0f33429d90564bbb2024325cd6e11b123561e3618a9d823284b28ddfb.svg">
<g>
	<path fill="#FAA61A" d="M478.891,347.929L478.891,347.929c-14.491-3.585-25.321,9.273-44.821,17.575   c-19.5,8.301-55.25,14.448-64.206,14.59c-15.501,0.246-7.442,25.815-10.994,32.494c-3.165,5.951-11.134,9.428-17.092,6.274   c-13.556-7.174-11.684-39.538-35.318-27.249c-16.455,8.556-18.569,28.046-10.516,46.839c8.531,19.907-4.456,35.334-19.094,35.345   c-19.5,0.014-28.844-13.406-22.344-29.251c6.6-16.086,4.063-35.75-11.729-31.361c-11.157,3.1-5.333,25.674-20.397,24.006   c-13.537-1.499-3.623-17.832-14.998-22.707s-34.125-2.438-39.813,13.813c-4.025,11.504,4.876,28.844-2.437,38.594   c-7.313,9.751-21.125,4.063-24.375-4.874c-3.251-8.938,2.437-27.626-4.875-34.938c-7.313-7.313-22.461-16.945-35.751-13   c-26,7.719-18.078,20.516-35.75,19.501c-8.152-0.469-14.625-13.001-20.313-26.001c-5.688-13,4.875-26,17.875-38.188   s49.563-47.938,66.626-69.876c17.063-21.938,37.375-47.125,46.313-58.744c8.938-11.619,20.871-32.826,20.871-32.826   c2.069,2.219,4.35,3.832,6.754,4.633c29.25,9.75,52,4.875,68.25,0c19.5,17.875,61.75,30.875,82.876,28.193   c11.375,11.943,29.25,35.182,47.125,38.432c14.626,13,61.751,29.25,71.501,35.75C478.088,318.839,474.629,334.925,478.891,347.929z    M511.371,309.842c-9.089,5.754-16.185,15.289-16.479,25.808c-0.294,10.519,7.671,21.337,18.465,22.46   c10.194,1.062,19.503-6.191,24.989-14.585c5.642-8.633,13.214-28.143,6.836-38.044C538.633,295.315,518.83,305.121,511.371,309.842   z" originalFill="#FAA61A"/>
	<path fill="#EEA36E" d="M214.354,428.735c-16.166,2.708-32.43,5.345-47.825,7.766c-0.056-2.958,0.185-5.784,1.071-8.319   c5.688-16.25,28.438-18.688,39.813-13.813C213.788,417.102,213.477,423.433,214.354,428.735z M242.808,413.07   c-5.085,1.413-6.644,6.871-8.259,12.235c7.688-1.324,15.246-2.649,22.588-3.961C255.406,414.807,250.813,410.846,242.808,413.07z    M306.49,391.499c-9.48,4.929-14.176,13.495-14.935,23.458c17.479-3.393,31.775-6.461,40.494-8.845l0,0   C326.763,395.211,322.416,383.218,306.49,391.499z M135.912,426.963c-7.313-7.313-22.461-16.945-35.751-13   c-26,7.719-18.078,20.516-35.75,19.501c0,0,2.438,13.812,13.406,15.03c3.708,0.412,28.757-2.875,62.044-7.886   C139.748,435.101,138.977,430.029,135.912,426.963z M551.914,292.087c-4.875-34.125-23.977-58.222-54.852-84.258   c-26.354-22.223-93.395-58.49-132.438-71.465c-34.654-11.516-134.462-27.903-162.087-0.277s-16.604,70.84,0,76.375   c29.25,9.75,52,4.875,68.25,0c19.5,17.875,61.75,30.875,82.876,28.193c11.375,11.943,29.25,35.182,47.125,38.432   c14.625,13,61.75,29.25,71.501,35.75c5.83,3.887,2.227,21.301,6.633,32.977c-15.985-3.449-25.32,9.273-44.821,17.574   c-19.5,8.302-55.25,14.449-64.206,14.591c-9.225,0.146-10.105,9.26-10.056,18.024c47.322-14.377,110.664-35.548,127.604-37.971   v-0.007c3.747,2.703,8.813,4.586,15.722,5.187C540.539,368.463,556.789,326.212,551.914,292.087z M538.377,343.41   c-5.486,8.394-14.795,15.646-24.988,14.585c-10.795-1.123-18.76-11.941-18.466-22.46c0.295-10.519,7.391-20.054,16.479-25.808   c7.459-4.721,27.262-14.526,33.811-4.361C551.591,315.268,544.019,334.777,538.377,343.41z" originalFill="#EEA36E"/>
	<path fill="#7F7A43" d="M431.233,318.992c0.077-0.241,0.125-0.488,0.125-0.741c0-2.347-3.455-4.248-7.719-4.248   c-4.263,0-7.719,1.901-7.719,4.248c0,0.224,0.041,0.44,0.101,0.654c-0.05,0.186-0.101,0.371-0.101,0.564   c0,2.346,3.456,4.248,7.719,4.248c4.264,0,7.719-1.902,7.719-4.248c0-0.209-0.043-0.348-0.095-0.549   C431.258,318.943,431.24,318.969,431.233,318.992z" originalFill="#7F7A43"/>
	<path fill="#7F7A43" d="M257.137,344.691c-4.264,0-7.719,1.901-7.719,4.247c0,0.223,0.04,0.439,0.1,0.653   c-0.049,0.186-0.1,0.372-0.1,0.566c0,2.347,3.455,4.248,7.719,4.248c4.262,0,7.719-1.901,7.719-4.248   c0-0.193-0.051-0.38-0.102-0.565c0.061-0.214,0.102-0.432,0.102-0.654C264.855,346.593,261.398,344.691,257.137,344.691z" originalFill="#7F7A43"/>
	<path fill="#7F7A43" d="M162.334,302.319c-4.264,0-7.719,1.902-7.719,4.249c0,0.223,0.041,0.439,0.101,0.652   c-0.05,0.187-0.101,0.373-0.101,0.565c0,2.347,3.455,4.249,7.719,4.249c4.263,0,7.719-1.902,7.719-4.249   c0-0.192-0.051-0.378-0.101-0.564c0.06-0.214,0.101-0.431,0.101-0.653C170.053,304.222,166.597,302.319,162.334,302.319z" originalFill="#7F7A43"/>
	<path fill="#7F7A43" d="M103.979,357.438c-4.264,0-7.719,1.902-7.719,4.249c0,0.223,0.04,0.439,0.1,0.652   c-0.049,0.187-0.1,0.373-0.1,0.565c0,2.347,3.455,4.249,7.719,4.249c4.262,0,7.719-1.902,7.719-4.249   c0-0.192-0.051-0.378-0.102-0.564c0.061-0.214,0.102-0.431,0.102-0.653C111.697,359.34,108.24,357.438,103.979,357.438z" originalFill="#7F7A43"/>
	<path fill="#A23B42" d="M188.824,378.041c-21.799,3.116-40.938-4.623-42.748-17.287c-0.047-0.325-0.081-0.649-0.103-0.975   c-0.014-0.205-0.016-0.409-0.02-0.614c-0.003-0.12-0.012-0.24-0.012-0.359c0.001-0.212,0.015-0.423,0.025-0.634   c0.006-0.113,0.005-0.227,0.014-0.34c0.018-0.251,0.049-0.501,0.08-0.751c0.009-0.071,0.013-0.143,0.022-0.214   c0.624-11.376,16.058-22.357,36.295-25.25c21.738-3.107,40.777,4.293,42.527,16.529c0.064,0.449,0.097,0.898,0.113,1.348v-0.001   C226.806,362.148,210.609,374.927,188.824,378.041z M250.655,270.521c0.654-8.245-6.447-13.875-13.356-16.673   c-9.579-3.878-20.546-4.135-30.633-2.491c-8.658,1.411-17.358,4.367-24.529,9.522c-5.085,3.656-10.1,9.052-10.391,15.654   c-1.675,8.373,4.426,14.99,11.414,18.471c8.998,4.48,19.703,5.251,29.554,4.094c10.962-1.288,22.506-5.13,30.713-12.775   c0.004-0.004,0.009-0.008,0.014-0.012C247.771,282.274,251.315,276.671,250.655,270.521   C250.73,269.573,250.692,270.866,250.655,270.521z M382.43,309.303c-0.002,0.014-0.004,0.026-0.006,0.04   c0.075-0.716,0.127-1.436,0.127-2.162c0-18.711-25.352-33.881-56.625-33.881c-31.274,0-56.627,15.17-56.627,33.881   c0,0.734,0.053,1.462,0.13,2.185c-0.002-0.02-0.007-0.039-0.009-0.06c-0.072,0.703-0.121,1.41-0.121,2.124   c0,18.712,25.352,33.881,56.626,33.881s56.627-15.169,56.627-33.881C382.552,310.715,382.502,310.007,382.43,309.303z" originalFill="#A23B42"/>
	<path fill="#F9EFE6" d="M51.357,392.19c0.584-1.356,1.188-2.745,2.205-3.814s2.553-1.772,3.981-1.401   c3.688,0.956,3.427,6.395,6.553,8.543c3.672,2.522,8.561,1.976,12.968,1.327c10.461-1.54,21.092-2.135,31.62-3.087   c1.571-0.142,3.199-0.277,4.688,0.244c1.489,0.521,2.804,1.893,2.729,3.468c-0.068,1.438-1.27,2.622-2.618,3.122   c-6.698,2.483-14.483,2.278-21.548,3.021c-7.145,0.752-31.015,5.391-39.117-0.729C50.037,400.783,49.113,397.416,51.357,392.19z    M170.097,397.708c2.06-0.18,4.552-0.681,5.206-2.643c0.56-1.676-0.725-3.519-2.35-4.212c-1.627-0.692-3.473-0.539-5.233-0.373   c-5.364,0.504-10.787,0.278-16.163,0.784c-4.625,0.435-14.218-0.009-16.915,4.53c-4.552,7.66,10.608,4.08,12.951,3.876   C155.094,399.017,162.596,398.368,170.097,397.708z M345.515,360.999c2.442-0.297,30.618-1.098,21.271-8.367   c-1.482-1.152-3.526-1.19-5.401-1.076c-3.632,0.222-19.549,1.271-20.639,6.215C340.07,360.837,343.116,361.292,345.515,360.999z    M352.747,400.152c-2.214,0.236-2.64,4.707-2.857,6.532c-0.256,2.139,0.687,4.76,2.809,5.137c1.994,0.354,3.792-1.615,4.033-3.626   c0.179-1.49-0.588-6.351-2.021-7.359C353.934,400.29,353.288,400.096,352.747,400.152z M287.699,445.595   c-3.293-0.198-5.011,6.229-5.776,8.842c-0.897,3.063-0.163,7.122,2.844,8.193c2.827,1.007,5.937-1.431,6.781-4.31   c0.627-2.133,0.697-9.421-1.149-11.247C289.398,446.086,288.502,445.644,287.699,445.595z M160.615,450.731   c-2.585-0.156-3.934,4.892-4.535,6.942c-0.705,2.405-0.128,5.594,2.232,6.435c2.221,0.79,4.662-1.124,5.326-3.385   c0.492-1.674,0.547-7.397-0.903-8.831C161.951,451.117,161.246,450.77,160.615,450.731z M225.911,419.223   c-2.521-0.152-3.835,4.767-4.421,6.767c-0.687,2.344-0.125,5.45,2.177,6.271c2.163,0.771,4.542-1.096,5.19-3.299   c0.479-1.632,0.533-7.209-0.881-8.606C227.212,419.599,226.525,419.26,225.911,419.223z M190.578,229.745   c-4.34,2-8.963,7.709-7.096,11.001c1.143,2.011,4.094,2.313,6.15,1.255c3.547-1.823,10.715-10.908,4.904-12.804   C193.411,228.829,192.01,229.085,190.578,229.745z M518.417,343.395c0.121,2.361,2.561,4.106,4.925,4.165   c5.854,0.143,19.546-13.141,13.01-18.085C531.159,325.547,518.197,339.087,518.417,343.395z M195.04,186.568   c0.339,2.44,0.919,4.938,2.415,6.896s4.113,3.234,6.469,2.516c2.127-0.647,3.543-2.733,4.104-4.884   c0.561-2.15,0.432-4.41,0.466-6.632c0.108-7.055,2.145-13.43,5.088-19.763c1.952-4.199,5.969-11.25-0.224-14.505   C198.686,142.482,193.997,179.051,195.04,186.568z M228.795,139.454c-1.367,2.662-4.624,4.286-7.52,3.534   c-12.428-3.223-2.729-11.037,4.027-11.959C229.39,130.472,232.401,132.434,228.795,139.454z M504.979,229.648   c10.1-2.465,25.063,23.661,15.549,25.923c-1.88,0.447-3.675-0.887-5.149-2.136c-3.93-3.331-7.858-6.66-11.787-9.99   C499.017,239.567,497.679,231.43,504.979,229.648z" originalFill="#F9EFE6"/>
	<path opacity="0.2" d="M167.453,428.675c0.052-0.162,0.083-0.334,0.14-0.494c5.688-16.25,28.438-18.688,39.813-13.813   c4.169,1.787,5.475,5.114,6.127,8.685C198.223,425.315,182.856,427.178,167.453,428.675z M328.268,398.533   c-4.229-7.785-9.637-13.262-21.777-6.948c-7.102,3.692-11.518,9.427-13.605,16.259c8.25-1.962,16.482-3.999,24.676-6.186   C321.141,400.702,324.74,399.706,328.268,398.533z M138.434,431.069c-0.588-1.586-1.398-2.983-2.521-4.106   c-7.313-7.313-22.461-16.945-35.751-13c-26,7.719-18.078,20.516-35.75,19.501c0,0,0.165,0.919,0.591,2.295   c19.557-1.241,39.113-2.481,58.669-3.722C128.592,431.725,133.514,431.404,138.434,431.069z M242.808,413.153   c-3.136,0.871-4.926,3.285-6.22,6.263c6.022-1.045,12.039-2.126,18.039-3.289C252.17,413.009,248.289,411.63,242.808,413.153z    M423.64,322.529c-3.883,0.066-7.066-1.584-7.606-3.639c-0.054,0.2-0.112,0.4-0.112,0.609c0,2.346,3.456,4.248,7.719,4.248   c4.264,0,7.719-1.902,7.719-4.248c0-0.209-0.043-0.348-0.095-0.549c-0.21,0.763-0.919,1.658-2.126,2.312   C427.783,321.996,425.85,322.491,423.64,322.529z M257.137,353.218c-3.885,0-7.066-1.584-7.607-3.639   c-0.053,0.2-0.111,0.4-0.111,0.609c0,2.347,3.455,4.248,7.719,4.248c4.262,0,7.719-1.901,7.719-4.248   c0-0.209-0.059-0.409-0.112-0.609C264.201,351.634,261.02,353.218,257.137,353.218z M162.334,310.847   c-3.884,0-7.066-1.585-7.607-3.64c-0.053,0.201-0.111,0.401-0.111,0.609c0,2.347,3.455,4.249,7.719,4.249   c4.263,0,7.719-1.902,7.719-4.249c0-0.208-0.059-0.408-0.111-0.609C169.4,309.262,166.218,310.847,162.334,310.847z    M103.979,365.935c-3.884,0-7.066-1.584-7.607-3.639c-0.053,0.2-0.111,0.4-0.111,0.609c0,2.346,3.456,4.248,7.719,4.248   c4.264,0,7.719-1.902,7.719-4.248c0-0.209-0.059-0.409-0.111-0.609C111.045,364.351,107.862,365.935,103.979,365.935z    M145.953,358.109c0,0.007,0,0.014,0.001,0.021C145.953,358.123,145.953,358.116,145.953,358.109   c0.016,0.431,0.052,0.86,0.113,1.291c1.75,12.235,20.791,19.636,42.528,16.527c20.94-2.993,36.738-14.645,36.306-26.434   c-0.017-0.449-0.049-0.898-0.113-1.348c-1.75-12.236-20.789-19.637-42.527-16.529c-20.237,2.893-35.671,13.874-36.295,25.25   c-0.01,0.071-0.014,0.143-0.022,0.214c0.009-0.076,0.014-0.153,0.024-0.23C145.943,357.27,145.938,357.689,145.953,358.109z    M171.639,276.462c-0.012,0.058-0.017,0.116-0.027,0.174c0.006-0.034,0.009-0.068,0.016-0.103   c0.504-11.425,15.984-22.483,36.306-25.389c21.737-3.108,40.778,4.292,42.527,16.528c0.136,0.949,0.151,1.9,0.076,2.848   c-0.005-0.04-0.004-0.081-0.009-0.121c-0.787,11.307-16.137,22.18-36.26,25.057c-21.739,3.107-40.779-4.293-42.527-16.529   C171.623,278.104,171.599,277.283,171.639,276.462z M269.31,309.365c-0.077-0.723-0.13-1.45-0.13-2.185   c0-18.711,25.353-33.881,56.627-33.881c31.273,0,56.625,15.17,56.625,33.881c0,0.727-0.052,1.446-0.127,2.162   c0.002-0.014,0.004-0.026,0.006-0.04c-1.832,17.723-26.422,31.76-56.504,31.76C295.761,341.063,271.193,327.058,269.31,309.365z    M503.309,365.034c-6.908-0.601-11.975-2.483-15.722-5.187v0.007c-16.939,2.423-80.281,23.594-127.604,37.971   c-0.05-8.765,0.831-17.878,10.056-18.024c8.956-0.142,44.706-6.289,64.206-14.591c19.501-8.301,28.691-20.845,44.677-17.396   c-4.192-11.563-0.803-29.09-6.633-32.977c-9.751-6.5-56.907-22.636-71.532-35.636c-17.875-3.25-35.75-26.489-47.125-38.432   c-21.126,2.682-63.376-10.318-82.876-28.193c-16.25,4.876-39,9.75-68.25,0c-6.773-2.258-13.006-11.535-15.109-22.263   c29.205,18.716,69.199,18.975,98.64,0.628c15.915,26.551,53.432,37.444,81.092,23.547c21.978,54.236,78.87,92.346,137.39,92.03   c10.304-0.055,26.511-7.543,29.11-17.515c2.6-9.971,9.282-19.518,0.444-42.69c9.413,13.668,15.522,28.35,17.986,45.595   C556.934,326.033,540.684,368.284,503.309,365.034z M545.357,305.188c-6.549-10.165-26.352-0.359-33.811,4.361   c-9.089,5.754-16.185,15.289-16.479,25.808c-0.294,10.519,7.671,21.337,18.466,22.46c10.193,1.062,19.502-6.191,24.988-14.585   C544.163,334.599,551.735,315.089,545.357,305.188z M472.273,314.844c-9.75-6.5-56.875-22.75-71.501-35.75   c-17.875-3.25-35.75-26.489-47.125-38.432c-21.126,2.682-63.376-10.318-82.876-28.193c-16.25,4.875-39,9.75-68.25,0   c-2.404-0.801-4.685-2.414-6.754-4.633c0,0-2.414,4.287-5.874,10.049c6.826,3.497,14.108,7.373,18.288,8.674   c18.588,5.788,46.046,3.82,61.057,5.688c22.302,13.813,51.495,23.027,78.233,23.027c10.637,14.398,30.949,27.846,49.642,34.071   c11.011,10.009,47.187,26.993,46.309,41.847c-2.024,34.205-73.613,47.848-73.365,48.789c9.223-0.213,44.695-6.219,64.028-14.584   c19.009-8.225,29.196-21.131,44.821-17.576C474.645,334.816,478.104,318.73,472.273,314.844z M545.447,305.58   c-0.085-0.144-0.145-0.304-0.234-0.443c-6.549-10.165-26.352-0.359-33.811,4.361c-9.089,5.754-16.185,15.289-16.479,25.808   c-0.112,4.032,0.997,8.105,3.007,11.662c0.677-11.856,6.169-23.465,15.228-31.188C521.981,308.256,533.913,304.647,545.447,305.58z    M255.205,274.83c-0.479-3.355-2.258-6.328-5.035-8.839c0.16,0.562,0.28,1.125,0.364,1.709c0.001,0.008,0,0.017,0,0.025   c0.128,0.9,0.13,1.801,0.067,2.699v0.001c1.466,12.69-14.607,25.385-36.216,28.475c-13.88,1.985-26.669-0.486-34.626-5.836   c6.602,7.878,22.065,12.006,39.254,9.549C240.75,299.505,256.955,287.066,255.205,274.83z M376.55,292.064   c3.808,4.555,5.956,9.704,5.956,15.143c0,0.717-0.034,1.403-0.107,2.109c0.074,0.706,0.107,1.422,0.107,2.14   c0,18.712-25.352,33.881-56.625,33.881c-12.743,0-24.462-2.549-33.925-6.799c10.773,5.576,25.741,8.559,42.114,7.526   c31.429-1.982,56.001-17.931,54.886-35.621C388.504,303.293,383.923,296.951,376.55,292.064z M223.869,344.731   c0.595,1.465,0.84,2.375,0.992,3.441c0.053,0.364,0.13,1.009,0.11,1.322c1.812,12.663-14.393,25.456-36.192,28.572   c-10.01,1.432-19.436,0.551-26.902-2.022c7.468,3.272,17.181,4.987,27.767,4.319c22.494-1.419,40.083-12.833,39.283-25.495   C228.691,351.135,226.879,347.669,223.869,344.731z M430.412,316.241c0.627,0.613,0.946,1.285,0.946,2.039   c0,0.382-0.14,0.838-0.095,0.671c0.053,0.201,0.095,0.34,0.095,0.549c0,2.346-3.454,4.248-7.719,4.248   c-1.765,0-3.562-0.343-4.978-1.002c1.367,1.539,4.213,2.393,7.555,2.182c4.51-0.284,8.036-2.573,7.876-5.112   C433.993,318.235,432.621,316.932,430.412,316.241z M264.845,350.216c-0.029,2.333-3.465,4.221-7.709,4.221   c-4.034,0-7.247-1.723-7.589-3.895c-0.012,0.073-0.041,0.144-0.041,0.219c0,2.346,3.457,4.248,7.721,4.248   c4.262,0,7.719-1.902,7.719-4.248C264.945,350.574,264.893,350.395,264.845,350.216z M103.979,367.153   c-3.947,0-6.816-1.57-7.64-3.531c-0.052,0.201-0.079,0.169-0.079,0.378c0,2.346,3.457,4.248,7.719,4.248   c4.264,0,7.719-1.902,7.719-4.248c0-0.209-0.079-0.509-0.079-0.509C111.132,365.503,107.928,367.153,103.979,367.153z    M170.053,308.067c-0.172,2.19-3.54,4.061-7.719,4.061c-3.529,0-6.236-1.263-7.373-2.987c0,2.347,3.48,4.259,7.743,4.259   s7.719-1.902,7.719-4.249C170.423,308.746,170.246,308.438,170.053,308.067z" fill="#000000" originalFill="#000000"/>
	<path fill="#A23B42" d="M332.096,287.667c0,2.348,3.455,4.249,7.719,4.249c4.263,0,7.719-1.901,7.719-4.249   c0-2.346-3.456-4.247-7.719-4.247C335.551,283.42,332.096,285.321,332.096,287.667z M321.326,296.101   c-0.021,1.397,2.024,2.56,4.563,2.596c2.54,0.035,4.613-1.07,4.634-2.468c0.02-1.397-2.022-2.56-4.563-2.595   C323.42,293.598,321.345,294.702,321.326,296.101z M289.58,301.228c2.538,0.035,4.613-1.069,4.633-2.467   c0.02-1.398-2.023-2.561-4.563-2.596s-4.614,1.069-4.634,2.467C284.996,300.03,287.039,301.192,289.58,301.228z M303.121,314.007   c0-2.347-3.456-4.249-7.719-4.249c-4.262,0-7.718,1.902-7.718,4.249c0,2.346,3.456,4.247,7.718,4.247   C299.665,318.254,303.121,316.353,303.121,314.007z M307.039,296.165c4.262,0,7.717-1.902,7.717-4.249   c0-2.346-3.455-4.249-7.717-4.249c-4.265,0-7.721,1.903-7.721,4.249C299.318,294.263,302.774,296.165,307.039,296.165z    M319.356,325.145c0.02-1.398-2.025-2.561-4.563-2.596c-2.541-0.035-4.615,1.068-4.635,2.467s2.022,2.56,4.563,2.596   C317.262,327.646,319.337,326.542,319.356,325.145z M333.643,311.43c0-2.347-3.454-4.249-7.717-4.249   c-4.264,0-7.721,1.902-7.721,4.249c0,2.346,3.457,4.248,7.721,4.248C330.188,315.678,333.643,313.775,333.643,311.43z    M349.082,325.08c0-2.347-3.457-4.249-7.719-4.249c-4.264,0-7.721,1.902-7.721,4.249c0,2.346,3.457,4.248,7.721,4.248   C345.625,329.328,349.082,327.426,349.082,325.08z M362.97,307.181c0-2.346-3.456-4.248-7.718-4.248   c-4.264,0-7.719,1.902-7.719,4.248c0,2.347,3.455,4.249,7.719,4.249C359.514,311.43,362.97,309.527,362.97,307.181z    M369.274,293.696c0.02-1.397-2.023-2.56-4.564-2.595c-2.538-0.036-4.613,1.069-4.633,2.466c-0.02,1.398,2.022,2.561,4.563,2.597   C367.18,296.198,369.255,295.095,369.274,293.696z M191.173,285.082c-4.206,0.693-7.925-0.622-8.306-2.937   c-0.383-2.315,2.719-4.754,6.924-5.447c4.206-0.693,7.926,0.621,8.308,2.937S195.38,284.388,191.173,285.082z M196.458,269.834   c-3.13,0.516-5.896-0.462-6.181-2.185c-0.283-1.722,2.022-3.535,5.152-4.051c3.128-0.516,5.895,0.462,6.178,2.184   C201.892,267.505,199.586,269.318,196.458,269.834z M213.869,255.716c3.227-0.532,6.081,0.477,6.375,2.253   c0.291,1.776-2.087,3.647-5.315,4.18c-3.228,0.532-6.081-0.477-6.374-2.253C208.262,258.118,210.641,256.247,213.869,255.716z    M208.267,269.293c-0.294-1.776,2.087-3.647,5.314-4.18c3.228-0.531,6.081,0.478,6.375,2.253c0.292,1.777-2.087,3.648-5.315,4.18   C211.414,272.078,208.561,271.069,208.267,269.293z M218.147,283.965c-3.548,0.585-6.685-0.523-7.005-2.476   c-0.322-1.953,2.293-4.01,5.84-4.594c3.547-0.585,6.683,0.523,7.006,2.477C224.309,281.323,221.694,283.38,218.147,283.965z    M229.017,264.934c-0.228-1.38,1.62-2.833,4.125-3.245c2.507-0.414,4.724,0.369,4.951,1.748c0.228,1.381-1.62,2.834-4.127,3.247   C231.461,267.097,229.244,266.313,229.017,264.934z M235.005,279.011c-2.505,0.414-4.722-0.37-4.949-1.75   c-0.227-1.379,1.62-2.832,4.126-3.245c2.508-0.413,4.723,0.37,4.95,1.75C239.359,277.145,237.512,278.599,235.005,279.011z    M162.895,365.398c-3.141,0.519-5.917-0.464-6.202-2.192c-0.284-1.728,2.03-3.549,5.17-4.066c3.142-0.518,5.919,0.464,6.204,2.192   S166.035,364.881,162.895,365.398z M166.457,342.364c-0.285-1.729,2.029-3.549,5.17-4.066s5.918,0.464,6.202,2.191   c0.285,1.729-2.029,3.55-5.17,4.067S166.742,344.093,166.457,342.364z M171.122,352.716c-0.294-1.776,2.086-3.647,5.313-4.18   c3.227-0.532,6.082,0.478,6.375,2.253c0.291,1.776-2.086,3.648-5.315,4.18C174.268,355.501,171.414,354.492,171.122,352.716z    M185.252,371.487c-3.652,0.603-6.883-0.539-7.213-2.549c-0.332-2.011,2.361-4.128,6.014-4.729   c3.651-0.603,6.882,0.539,7.213,2.549C191.598,368.769,188.904,370.886,185.252,371.487z M186.122,347.687   c-0.3-1.82,2.14-3.739,5.448-4.285c3.31-0.545,6.234,0.489,6.535,2.311c0.299,1.821-2.14,3.739-5.449,4.284   C189.348,350.542,186.422,349.508,186.122,347.687z M203.064,363.589c-4.205,0.693-7.926-0.622-8.307-2.937   s2.719-4.754,6.926-5.447s7.926,0.622,8.307,2.937S207.271,362.896,203.064,363.589z M210.551,346.473   c-3.227,0.531-6.08-0.477-6.373-2.254c-0.293-1.775,2.086-3.646,5.313-4.179c3.228-0.533,6.083,0.477,6.376,2.253   C216.158,344.069,213.78,345.94,210.551,346.473z" originalFill="#A23B42"/>
</g>
</svg>