<svg xmlns="http://www.w3.org/2000/svg" xmlns:xlink="http://www.w3.org/1999/xlink" version="1.1" id="svg-edited-version" x="0px" y="0px" viewBox="0 0 595.28 595.28" enable-background="new 0 0 595.28 595.28" xml:space="preserve" class="injected-svg" data-src="https://preview.pixlr.com/images/svg/100/1/22a629d34bafd3fdecc86582c62f863813fb8309534757d26a086e86c569b8bf.svg">
<g>
	<path fill="#B1C3DF" d="M452.449,275.091c4.751-23.001,1.976-46.895-7.44-68.352c-8.767-19.976-22.689-37.217-39.294-51.215   c-17.872-15.066-38.809-26.355-60.776-34.201c-23.576-8.42-48.5-12.806-73.501-13.581c-25.405-0.788-50.972,2.163-75.415,9.192   c-23.209,6.675-45.52,17.038-65.068,31.281c-18.032,13.138-33.652,29.834-44.263,49.563c-5.24,9.743-8.868,19.987-11.556,30.696   c-1.28,5.104-1.877,10.499-2.242,15.742c-0.415,5.942-0.352,11.916,0.174,17.849c2.061,23.244,11.371,45.102,25.638,63.458   c13.961,17.963,32.044,32.564,51.866,43.605c21.086,11.746,44.262,19.645,67.976,23.982c24.94,4.561,50.638,5.281,75.802,2.209   c24.385-2.979,48.384-9.619,70.603-20.146c20.6-9.762,39.736-22.951,55.263-39.717c15.519-16.756,27.092-36.984,32.023-59.386   c0.08-0.366,0.159-0.732,0.236-1.1c-0.024,0.116-0.048,0.232-0.072,0.349c0.484-2.238,0.932-4.485,1.391-6.729   C453.354,270.737,452.876,273.032,452.449,275.091C454.004,267.563,452.3,275.811,452.449,275.091z" originalFill="#B1C3DF"/>
	<path opacity="0.2" d="M92.645,317.012c-3.96-23.59-0.407-48.171,9.678-69.831c9.356-20.093,23.998-37.466,41.313-51.186   c18.244-14.455,39.482-24.949,61.78-31.495c24.326-7.14,49.976-9.635,75.232-7.56c24.247,1.993,48.251,8.1,70.218,18.625   c20.351,9.75,39.021,23.321,53.817,40.421c14.854,17.166,25.524,37.965,29.714,60.343c1.385,7.393,2.052,14.914,1.963,22.435   c-0.048,4.031-0.307,8.058-0.768,12.062c-0.223,1.939-0.494,3.875-0.811,5.801c-0.15,0.922-1.044,1.852-1.573,2.617   c-0.585,0.844-1.179,1.68-1.779,2.512c13.31-18.398,21.823-40.349,23.144-63.099c0.355-6.133,0.133-12.252-0.471-18.362   c0.057,0.577,0.119,1.152,0.181,1.729c-0.953-9.012-2.839-17.938-5.848-26.55c-3.69-10.563-8.869-20.585-15.173-29.821   c-2.775-4.066-5.77-7.982-8.959-11.732c-1.696-1.994-3.447-3.941-5.253-5.836c-0.96-1.007-1.947-1.988-2.917-2.986   c-0.434-0.446-1.281-1.793-1.939-1.905c-8.02,8.216-15.873,16.593-23.604,25.08c-10.938-3.868-20.033-11.298-29.624-17.583   c-10.367-6.793-21.447-12.505-32.953-17.106c-23.141-9.253-48.098-14.011-73.023-13.845c-24.97,0.167-49.762,5.377-72.693,15.252   c-21.6,9.3-41.49,22.565-58.36,38.951c-8.292,8.054-15.853,16.863-22.514,26.311c-4.937,7.003-9.823,15.044-17.616,19.204   c-1.892,1.009-3.934,1.732-6.053,2.073c-1.068,0.172-2.15,0.248-3.232,0.232c-0.281-0.004-0.563-0.014-0.844-0.03   c-0.444-0.025-0.557-0.21-0.604,0.312c-0.073,0.823-0.138,1.647-0.193,2.472c-0.393,5.87-0.316,11.769,0.213,17.627   c1.057,11.693,3.92,23.211,8.396,34.063c2.099,5.085,4.461,10.253,7.414,14.908C90.149,313.08,91.397,315.047,92.645,317.012z" fill="#000000" originalFill="#000000"/>
	<path fill="#FED248" d="M436.376,297.604c0-23.935-7.62-47.41-20.809-67.302c-12.797-19.302-30.406-35.141-50.235-46.978   c-20.898-12.476-44.246-20.529-68.243-24.387c-24.941-4.009-50.508-3.584-75.264,1.486c-23.641,4.842-46.494,13.868-66.646,27.205   c-19.175,12.692-35.924,29.353-47.505,49.303c-12.248,21.099-18.22,45.445-16.297,69.825c0.25,3.18,0.631,6.35,1.139,9.5   c0.216,1.34,1.286,2.5,2.057,3.607c0.854,1.223,1.726,2.432,2.617,3.629c3.429,4.596,7.139,8.982,11.08,13.146   c7.936,8.387,16.801,15.873,26.276,22.461c19.875,13.82,42.387,23.688,65.742,29.912c24.646,6.566,50.36,9.105,75.823,7.863   c25.151-1.227,50.193-6.201,73.723-15.225c22.182-8.508,43.15-20.658,60.757-36.686c6.771-6.164,13.031-12.896,18.591-20.174   c1.412-1.848,2.778-3.73,4.096-5.646c0.64-0.93,1.382-1.777,1.563-2.9c0.207-1.283,0.395-2.568,0.561-3.857   C436.036,307.486,436.376,302.545,436.376,297.604z" originalFill="#FED248"/>
	<path fill="#F49937" d="M424.585,246.422c7.548,15.882,11.791,33.115,11.791,51.182c0,6.587-0.597,13.06-1.661,19.408   c-31.353,47.512-96.144,80.156-171.037,80.156c-41.504,0-79.892-10.039-111.221-27.064c36.914,15.689,148.592,33.504,174.017-14.27   c19.418-36.482,2.297-61.814,5.024-88.336c0.665-6.466,2.801-11.79,5.919-16.427c-1.561,3.66-4.424,12.756,0.815,21.924   c6.759,11.827,24.766,12.783,28.395,10.167C382.14,271.982,402.758,259.495,424.585,246.422z M213.6,226.628   c-3.086,1.55-4.717,4.126-2.479,7.457c1.686,2.509,7.165,4.426,12.071,3.609c5.383-0.896,7.381-4.318,7.254-7.229   C230.184,224.425,219.357,223.739,213.6,226.628z M243.125,288.564c-3.011,1.511-4.6,4.023-2.418,7.272   c1.643,2.446,6.987,4.316,11.771,3.519c5.249-0.873,7.197-4.21,7.074-7.05C259.299,286.415,248.74,285.746,243.125,288.564z    M174.713,279.299c-3.42,1.716-5.227,4.571-2.747,8.262c1.867,2.78,7.938,4.904,13.375,3.999c5.964-0.992,8.179-4.784,8.038-8.01   C193.09,276.857,181.093,276.097,174.713,279.299z M297.451,272.075c-2.662,1.336-4.068,3.56-2.139,6.434   c1.453,2.165,6.182,3.818,10.414,3.114c4.645-0.773,6.368-3.725,6.26-6.238C311.761,270.173,302.419,269.582,297.451,272.075z    M305.619,217.749c-3.046,0.313-5.207,1.937-4.399,5.401c0.608,2.609,4.548,5.921,8.87,6.787c4.744,0.95,7.476-1.259,8.287-3.712   C320.059,221.135,311.3,217.164,305.619,217.749z" originalFill="#F49937"/>
	<path fill="#ED1A3B" d="M338.279,249.253c0,0,86.171-108.136,138.549-140.239c52.379-32.103,94.619,11.828,67.585,50.688   c-27.034,38.861-128.31,87.745-177.738,123.373c-3.63,2.616-21.637,1.66-28.396-10.167S338.279,249.253,338.279,249.253z    M263.683,423.662c-99.114,0-182.995-49.764-211.088-118.334l0,0c0,0,29.242,96.078,78.663,148.033   c49.422,51.957,108.981,55.758,132.425,55.758s83.003-3.801,132.424-55.758c49.422-51.955,78.664-148.033,78.664-148.033l0,0   C446.678,373.898,362.797,423.662,263.683,423.662z M196.847,263.653l8.811-4.466c1.954-0.991,4.336-0.483,5.716,1.219l0.559,0.688   c1.871,2.306,1.132,5.751-1.521,7.087l-9.053,4.557c-2.431,1.224-5.39,0.109-6.407-2.416l-0.314-0.781   C193.731,267.303,194.692,264.745,196.847,263.653z M213.629,320.42l-1.118,1.057c-3.306,3.127-1.876,8.67,2.53,9.807l6.742,1.74   c2.317,0.6,4.764-0.291,6.155-2.238l0.824-1.156c2.367-3.311,0.665-7.967-3.28-8.971l-6.45-1.643   C217.109,318.527,215.069,319.057,213.629,320.42z M260.47,206.652l-1.117,1.057c-3.306,3.126-1.876,8.669,2.529,9.807l6.743,1.741   c2.317,0.598,4.763-0.292,6.155-2.239l0.825-1.155c2.366-3.312,0.664-7.968-3.28-8.972l-6.451-1.642   C263.95,204.76,261.912,205.29,260.47,206.652z M287.048,294.312L287.048,294.312c-2.736,2.954-1.694,7.729,2.023,9.274   l6.246,2.598c2.719,1.131,5.852,0.039,7.281-2.535l0.011-0.02c1.68-3.025,0.345-6.84-2.855-8.159l-6.258-2.577   C291.262,291.972,288.69,292.538,287.048,294.312z M340.677,314.127L340.677,314.127c-0.466,3.998,3.194,7.238,7.107,6.293   l6.575-1.59c2.861-0.691,4.748-3.42,4.383-6.342l-0.003-0.021c-0.43-3.436-3.759-5.727-7.12-4.902l-6.572,1.611   C342.699,309.752,340.957,311.725,340.677,314.127z M259.739,253.454L259.739,253.454c-2.736,2.954-1.693,7.729,2.023,9.275   l6.247,2.597c2.718,1.13,5.852,0.039,7.28-2.535l0.011-0.02c1.681-3.026,0.346-6.84-2.854-8.159l-6.258-2.578   C263.954,251.115,261.382,251.68,259.739,253.454z" originalFill="#ED1A3B"/>
	<path fill="#F1FAFE" d="M452.359,229.681c8.71-5.282,17.351-10.608,25.691-15.936c4.33,13.178,6.656,26.963,6.656,41.166   c0,93.198-99.002,168.75-221.128,168.75c-122.127,0-221.13-75.553-221.13-168.75c0-93.199,99.003-168.751,221.13-168.751   c67.431,0,127.77,23.061,168.328,59.379l0.001,0c0.023-0.022,0.047-0.045,0.071-0.067c-5.975,5.694-11.977,11.657-17.901,17.728   c-34.99-33.822-89.372-55.583-150.499-55.583c-105.564,0-191.139,64.818-191.139,144.775c0,79.956,85.574,144.776,191.139,144.776   c105.563,0,191.139-64.82,191.139-144.776C454.718,244.664,453.898,237.082,452.359,229.681z M436.486,178.423   c10.075,6.241,22.602,5.924,33.852,3.799c21.396-4.042,41.993-15.182,56.481-31.542c9.743-11.002,17.371-25.75,15.842-40.83   c-13.29-13.531-38.133-17.802-65.812-0.838c-15.268,9.358-33.407,25.18-51.446,42.897   C421.632,162.414,427.518,172.869,436.486,178.423z M114.099,252.874c-1.897,4.085-3.646,8.401-3.595,12.906   c0.052,4.506,2.323,9.263,6.485,10.992c4.625,1.921,10.099-0.459,13.455-4.177c3.355-3.718,5.153-8.536,7.263-13.079   c7.397-15.931,18.669-26.029,31.679-37.161c20.31-17.379-0.708-32.36-19.334-16.856   C135.637,217.497,122.013,235.832,114.099,252.874z M215.331,187.988c-1.516,7.247-7.505,13.889-14.523,16.135   c-5.905,1.891-13.279,0.748-16.798-4.358c-4.044-5.871-1.194-14.436,4.28-19.002c4.967-4.141,13.27-6.854,19.451-5.869   C213.259,175.773,217.084,179.599,215.331,187.988z M157.122,468.791c3.098,2.133,5.9,3.508,7.996,3.773   c2.948,0.373,6.342-1.199,7.043-4.086c0.604-2.484-0.865-4.951-2.27-7.086c-4.58-6.967-26.383-48.572-37.074-33.322   C126.052,437.723,144.171,459.875,157.122,468.791z M129.455,412.115c-4.563,15.381-22.255,1.75-18.411-10.391   c0.788-2.486,1.947-4.141,3.312-5.117C120.917,391.902,132.203,402.854,129.455,412.115z M412.607,404.332   c12.721,6.994-15.504,38.887-20.957,44.078c-1.586,1.51-3.313,3.014-5.434,3.561c-2.122,0.547-4.73-0.184-5.65-2.172   c-0.925-2.002,0.127-4.314,1.161-6.264C385.092,437.199,400.061,397.432,412.607,404.332z" originalFill="#F1FAFE"/>
</g>
</svg>