<svg xmlns="http://www.w3.org/2000/svg" xmlns:xlink="http://www.w3.org/1999/xlink" version="1.1" id="svg-edited-version" x="0px" y="0px" viewBox="0 0 595.28 595.28" enable-background="new 0 0 595.28 595.28" xml:space="preserve" class="injected-svg" data-src="https://preview.pixlr.com/images/svg/100/1/47e3f00b4e1f282526e70a332df1b7f074d21471589f5b86d971c369644557f2.svg">
<g>
	<path fill="#812B34" d="M398.405,347.176c-39.225-59.255-25.555-149.74-18.279-173.551c9.162-29.983,36.344-48.21,61.502-48.32   c-2.941-0.528-5.926-0.975-9.006-1.238c-77.894-6.677-144.659,48.962-169.14,124.63c-16.262,50.261-52.16,72.047-74.435,81.01   c-11.574,4.658-19.038,16.016-19.038,28.493v26.512c0,14.136,9.637,26.314,23.311,29.9c42.976,11.27,85.443,34.545,124.883,47.23   c52.838,16.995,121.233,12.91,172.189-18.229c10.711-6.547,21.055-12.978,28.689-23.252   C487.033,440.968,437.63,406.431,398.405,347.176z" originalFill="#812B34"/>
	<path fill="#ED9E6D" d="M550.575,286.53c-6.676-62.313-45.404-161.226-108.947-161.226c-25.158,0.11-52.34,18.336-61.502,48.32   c-7.275,23.811-20.945,114.296,18.279,173.551s88.628,93.792,120.677,73.186C549.921,398.66,556.531,342.118,550.575,286.53z" originalFill="#ED9E6D"/>
	<path fill="#B03845" d="M432.357,140.733c-43.515,12.102-58.463,91.215-38.909,158.841   c21.587,74.654,90.024,118.862,119.84,104.366c34.318-16.686,30.763-105.485,18.871-153.447   C519.772,200.532,479.347,127.665,432.357,140.733z" originalFill="#B03845"/>
	<path fill="#CC5A66" d="M420.629,286.017c-4.71-29.075-6.405-84.233,18.087-104.96c28.685-24.276,58.655,27.126,67.863,50.358   c11.031,27.833,18.313,60.069,16.52,91.005c-0.893,15.406-4.066,31.924-12.036,45.085c-8.633,14.253-27.059,14.429-40.502,7.682   c-12.588-6.316-22.009-18.229-29.406-30.905C430.834,326.6,423.97,306.641,420.629,286.017z M288.607,250.166   c-0.682,4.441-0.717,9.875,3.019,12.371c3.415,2.282,8.303,0.576,10.959-2.556s3.691-7.28,4.856-11.219   c4.903-16.573,13.505-31.536,24.743-44.602c6.858-7.976,20.233-19.425,2.739-22.826   C306.911,175.888,291.602,230.635,288.607,250.166z M366.031,169.784c-3.416,5.727-12.039,8.125-17.182,3.883   c-3.997-3.296-4.765-9.585-2.342-14.165c3.029-5.728,8.104-8.032,12.633-7.738C366.394,152.234,372.242,159.371,366.031,169.784z" originalFill="#CC5A66"/>
	<path fill="#E9E9F4" d="M172.626,397.095L172.626,397.095c0,0-24.594-5.687-32.938,16.013   c-8.346,21.699-35.887,25.871-51.744,16.691c-11.768-6.813-15.722-25.577-12.203-39.577c1.65-6.565-1.731-13.265-7.814-16.233   c-8.096-3.952-17.259-11.785-22.546-27.646c-9.181-27.541,6.677-45.902,28.376-46.736c21.699-0.835,41.729,15.021,56.75,35.887   c6.897,9.578,27.925,13.073,40.697,14.331c-0.754,2.691-1.193,5.497-1.193,8.376v26.512   C170.01,389.094,170.939,393.286,172.626,397.095z M484.553,299.847c-9.269,2.077-14.167,15.429-10.942,29.821   s13.353,24.376,22.621,22.299c9.269-2.076,14.168-15.428,10.942-29.82C503.949,307.754,493.821,297.77,484.553,299.847z" originalFill="#E9E9F4"/>
	<path opacity="0.2" d="M513.288,403.94c-13.781,6.7-35.814,0.836-57.658-14.758c19.506,12.101,38.455,16.179,50.792,10.181   c34.318-16.686,30.762-105.485,18.871-153.449c-8.454-34.097-29.971-78.857-57.719-99.693   c31.041,18.085,55.446,67.409,64.585,104.271C544.051,298.455,547.606,387.255,513.288,403.94z M496.231,351.967   c-9.269,2.077-19.396-7.906-22.621-22.299c-1.684-7.512-1.137-14.723,1.071-20.212c-3.665,5.671-4.976,14.496-2.897,23.771   c3.225,14.394,13.353,24.377,22.621,22.3c4.432-0.992,7.848-4.58,9.871-9.609C502.255,349.047,499.526,351.229,496.231,351.967z    M432.622,389.927c-45.421,22.244-96.954,31.47-147.303,27.313c-26.831-2.215-51.534-9.21-76.967-17.502   c-12.866-4.194-29.106-10.295-38.343-21.41v6.383c0,14.135,9.637,26.314,23.311,29.9c42.977,11.27,85.444,34.545,124.883,47.23   c52.838,16.995,121.233,12.91,172.188-18.229c10.712-6.547,21.055-12.978,28.69-23.252   C495.877,435.282,463.573,421.278,432.622,389.927z M172.626,397.096c0,0-4.497-1.034-10.294-0.529   c-0.38-0.684-0.742-1.377-1.063-2.087c-3.745-8.275-3.817-17.853-1.831-26.716c1.44-6.42,3.9-12.541,6.686-18.518   c1.791,0.231,3.499,0.422,5.08,0.577c-0.754,2.691-1.193,5.497-1.193,8.376v26.512C170.01,389.094,170.939,393.286,172.626,397.096   z M52.037,360.04c4.83,7.085,10.585,11.359,15.889,13.947c6.083,2.97,9.465,9.669,7.814,16.234   c-3.151,12.538-0.289,28.868,8.791,37.042c-5.489-9.018-6.338-20.991-1.221-30.313c2.229-4.061,5.483-7.833,5.876-12.447   c0.571-6.7-5.239-12.382-11.447-14.963s-13.103-3.141-19.338-5.657C56.141,362.969,53.929,361.656,52.037,360.04z" fill="#000000" originalFill="#000000"/>
</g>
</svg>