<svg xmlns="http://www.w3.org/2000/svg" xmlns:xlink="http://www.w3.org/1999/xlink" version="1.1" id="svg-edited-version" x="0px" y="0px" viewBox="0 0 595.28 595.28" enable-background="new 0 0 595.28 595.28" xml:space="preserve" class="injected-svg" data-src="https://preview.pixlr.com/images/svg/100/1/9fbb5645a7c3f5b8e266e734662aefe076d3ba44f2ec7d774c70d5aea0d7da6d.svg">
<g>
	<path fill="#889BBF" d="M257.153,167.046c-77.566,0-140.446,43.143-140.446,96.363c0,10.363,2.412,19.298,5.132,25.8   c10.351-45.354,66.793-80.215,135.416-81.309c68.623,1.094,125.065,35.956,135.416,81.309c2.72-6.501,5.132-15.437,5.132-25.8   c0-53.22-62.88-96.363-140.446-96.363" originalFill="#889BBF"/>
	<path fill="#E9E9F4" d="M257.153,140.514c-94.865,0-171.769,56.095-171.769,125.291s76.903,125.29,171.769,125.29   c1.482,0,2.96-0.014,4.434-0.041c92.816-1.715,167.335-57.134,167.335-125.249C428.922,196.608,352.019,140.514,257.153,140.514z    M257.153,359.771c-77.566,0-140.446-43.144-140.446-96.363c0-53.22,62.88-96.363,140.446-96.363S397.6,210.189,397.6,263.409   C397.6,316.628,334.72,359.771,257.153,359.771z" originalFill="#E9E9F4"/>
	<path fill="#ED1A3B" d="M257.255,391.094c-83.733,0-153.461-43.705-168.675-101.545h-0.063c0,0,43.653,158.376,58.247,192.608   c14.593,34.231,50.033,70.603,110.49,70.603s95.897-36.371,110.49-70.603s58.247-192.608,58.247-192.608h-0.063   C410.716,347.389,340.988,391.094,257.255,391.094z M510.475,100.485c-0.045-5.548-4.738-9.92-10.274-9.573l-7.774,0.459   c5.557-0.367,9.654-5.338,8.956-10.861l-3.734-29.529c-0.696-5.504-5.871-9.295-11.329-8.299L341.955,69.017   c2.158,10.363,3.604,20.914,4.352,31.552l-59.907,3.759c0.028-8.379-0.177-16.767-0.457-25.092l-30.229,5.514   c-5.022,0.916-8.468,5.579-7.868,10.648l0.348,2.934c0.605,5.11,5.105,8.853,10.24,8.513l4.148-0.274   c-3.209,1.583-5.396,4.883-5.396,8.671v2.955c0,5.146,4.029,9.391,9.169,9.657l234.19,12.129c5.56,0.288,10.214-4.167,10.169-9.734   L510.475,100.485z" originalFill="#ED1A3B"/>
	<path fill="none" d="M339.688,341.327c0.005-0.014,0.01-0.027,0.015-0.041c-0.007,0.016-0.013,0.029-0.02,0.043L339.688,341.327z"/>
	<g>
		<path fill="#FED248" d="M322.584,75.542c1.709,8.681,2.854,17.476,3.479,26.3l14.32-0.899c-0.594-8.638-1.643-17.246-3.171-25.77    c-0.363-2.027-0.754-4.05-1.172-6.067c-0.412-1.991-0.717-4.099-1.398-6.019c-1.061-2.991-3.543-5.342-6.574-6.27    c-3.071,0.927-5.563,3.322-6.617,6.352c-0.619,1.779-0.729,3.742-0.306,5.579C321.666,71.004,322.137,73.271,322.584,75.542z" originalFill="#FED248"/>
		<path fill="#FED248" d="M303.748,78.809c0.795,8.091,1.545,16.189,2.03,24.306l12.734-0.799    c-0.46-7.759-1.154-15.501-1.904-23.237c-0.198-2.036-0.399-4.072-0.603-6.107c-0.183-1.831-0.209-3.76-0.761-5.528    c-0.899-2.879-3.108-5.245-5.908-6.361c-2.849,1.132-5.075,3.574-5.95,6.51c-0.462,1.538-0.449,3.082-0.291,4.665    C303.314,74.44,303.533,76.625,303.748,78.809z" originalFill="#FED248"/>
		<path fill="#FED248" d="M285.818,77.508c0.309,8.938,0.547,17.881,0.517,26.826l12.447-0.781    c0.012-8.684-0.215-17.367-0.513-26.045c-0.071-2.083-0.146-4.167-0.223-6.25c-0.071-1.917,0.03-3.926-0.484-5.791    c-0.817-2.967-3.018-5.458-5.852-6.653c-2.822,1.175-5.016,3.632-5.85,6.576c-0.509,1.799-0.353,3.62-0.283,5.463    C285.66,73.072,285.741,75.29,285.818,77.508z" originalFill="#FED248"/>
		<path fill="#FED248" d="M318.202,218.528c3.678-6.623,6.81-13.573,9.388-20.77c7.568-21.129,11.729-43.69,13.023-66.059    l-14.289-0.74l-0.02,0.229h-0.002c-0.788,13.034-2.699,26.057-5.76,38.858c-4.344,18.178-9.705,32.249-17.041,43.995    c-1.905-0.493-3.83-0.958-5.773-1.395c11.042-18.68,18.014-41.647,20.34-67.315c0.455-5.033,0.755-9.852,0.928-14.537v-0.215    l-12.754-0.661c-0.157,4.374-0.432,8.853-0.854,13.509c-2.198,24.26-8.948,45.543-19.634,62.135    c-0.852,1.438-1.848,2.908-2.907,4.353c-2.855-0.41-5.744-0.758-8.66-1.046c10.915-17.24,18.252-38.104,21.832-62.282    c0.851-5.738,1.459-11.485,1.896-17.099l-12.449-0.645c-0.398,5.004-0.937,9.981-1.667,14.912    c-3.893,26.278-12.612,47.843-25.902,64.158c-0.204-0.004-0.406-0.012-0.61-0.015c-68.623,1.094-125.065,35.956-135.416,81.309    c0,0,1.713,4.98,6.395,12.29c-0.002,0.048-0.006,0.097-0.008,0.146c0.745,1.18,1.527,2.345,2.338,3.5    c0.003-0.056,0.008-0.11,0.011-0.166c11.419,16.187,35.938,40.367,84.219,50.315c0.06,0.013,0.116,0.028,0.175,0.041    c0.002,0.002,0.004,0.006,0.006,0.01c6.693,1.443,13.605,2.547,20.689,3.291c0.002,0.006,0.005,0.01,0.008,0.016    c6.506,0.686,13.164,1.051,19.933,1.101c-0.139-0.013-0.278-0.021-0.417-0.034c0.657,0.018,1.303,0.043,1.967,0.055    c64.682,0,119.141-30.003,135.452-70.829C385.49,258.191,357.144,232.298,318.202,218.528z" originalFill="#FED248"/>
	</g>
	<path fill="#EAA238" d="M334.969,64.208c-0.84-3.648-3.562-6.368-6.9-7.39c3.493-1.056,7.338-0.136,9.963,2.41   c3.104,3.01,3.464,7.75,4.263,11.774c1.937,9.761,3.235,19.648,3.933,29.575l-5.843,0.366   C339.53,88.528,337.741,76.229,334.969,64.208C334.129,60.559,337.741,76.229,334.969,64.208z M315.654,69.456   c1.171,11.693,2.233,22.319,2.858,32.86l7.439-0.467c-0.384-6.406-1.104-12.738-2.087-19.079c-0.493-3.184-1.092-6.349-1.74-9.504   c-0.601-2.922-1.655-5.918-1.012-8.92c-2.55-3.344-7.807-5.248-11.776-3.264C312.728,62.433,315.266,65.573,315.654,69.456   C316.825,81.149,315.266,65.573,315.654,69.456z M297.916,67.757c0.44,11.783,0.883,23.75,0.866,35.796l6.984-0.438   c-0.409-6.859-1.005-13.706-1.656-20.545c-0.353-3.701-0.723-7.4-1.093-11.1c-0.245-2.487,0.461-5.051,1.96-7.055   c-1.052-2.64-3.221-4.773-5.886-5.767c-1.236-0.461-2.563-0.67-3.882-0.611c-1.264,0.048-2.307,0.478-3.499,0.776   C295.209,60.29,297.763,63.706,297.916,67.757C298.356,79.541,297.763,63.706,297.916,67.757z M273.379,245.6   c7.954-6.618,15.967-13.193,22.596-21.188c5.666-6.835,10.305-14.453,14.009-22.514c4.345-9.455,7.464-19.435,9.975-29.519   c3.129-12.566,5.198-25.383,6.148-38.299c0.076-1.036,0.146-2.072,0.207-3.109l-7.312-0.379   c-0.832,22.896-4.551,45.806-13.656,66.954c-3.993,9.273-8.987,18.135-15.084,26.192c-7.188,9.499-15.848,17.747-24.793,25.565   c-16.447,14.374-35.205,28.033-45.48,47.877c-1.993,3.851-3.88,7.976-4.37,12.325c-0.431,3.832-0.098,7.738,0.546,11.525   c1.479,8.709,4.649,17.313,9.188,24.893c1.302,2.174,2.74,4.273,4.364,6.221c0.766,0.918,1.573,1.803,2.432,2.635   c0.98,0.949,2.118,1.748,3.008,2.787c-3.559-6.939-6.063-14.43-7.438-22.119c-0.004-0.008-0.007-0.018-0.01-0.027   c0.007,0.045,0.015,0.09,0.021,0.135c-0.011-0.055-0.021-0.107-0.032-0.16c-2.653-6.76-4.588-14.033-4.803-21.324   c-0.087-2.916,0.106-5.916,1.011-8.707c1.136-3.51,2.727-6.892,4.521-10.108c0.03-0.013,0.063-0.024,0.093-0.038v0   c1.063-0.454,2.144-0.867,3.242-1.229c1.848-4.516,4.172-8.833,6.823-12.926c0.099-0.115,0.196-0.232,0.295-0.347   C248.115,266.628,260.919,255.97,273.379,245.6C277.523,242.151,260.919,255.97,273.379,245.6z M284.059,205.567h-0.074   c9.801-16.581,16.449-36.328,19.805-58.979c0.83-5.604,1.434-11.217,1.87-16.698l-7.743-0.401   c-0.438,5.614-1.046,11.361-1.896,17.099c-4.549,30.717-15.135,56.114-31.46,75.482c-8.319,9.869-18.107,18.104-27.575,26.067   c-12.281,10.331-23.881,20.089-31.608,32.596c-13.399,21.688-12.517,51.354,1.587,72.518c2.646,0.695,5.318,1.354,8.033,1.947   c-9.98-17.076-15.697-40.383-10.131-56.674c1.168-3.422,2.574-6.714,4.163-9.878c1.179-2.729,2.548-5.376,4.116-7.913   c2.916-4.72,6.385-9.048,10.232-13.164c5.867-6.815,12.166-12.751,17.918-17.846c3.367-2.982,6.801-5.908,10.235-8.833   c7.175-6.113,14.083-12.006,20.305-18.328h0.009c0,0,0.391-0.385,1.033-1.043c4.097-4.935,7.833-10.248,11.19-15.943    M340.041,340.603l0.006,0.002c0,0-0.232,0.605-0.318,0.743c7.094-3.543,13.923-7.638,20.301-12.343   c4.262-21.909,1.811-45.54-9.315-65.128c-7.944-13.986-20.021-25.628-34.259-33.103l1.265-1.808   c19.775,6.691,36.79,21.29,46.784,39.581c8.084,14.794,11.125,32.03,9.103,48.731c1.244-1.244,2.583-2.641,3.63-3.899   c-0.063,0.076-0.133,0.148-0.198,0.223c4.352-4.885,8.238-10.198,11.417-15.921c-2.259-22.073-12.012-43.085-27.139-59.283   c-9.736-10.427-21.604-18.887-34.692-24.577c5.571-11.179,9.52-23.094,12.571-35.185c3.159-12.521,5.417-25.308,6.63-38.167   c0.266-2.817,0.474-5.64,0.641-8.464l-5.853-0.303c-1.425,24.627-5.982,49.314-15.381,72.2   c-4.565,11.117-10.522,21.743-17.973,31.19c-7.223,9.161-15.918,16.953-24.868,24.377c-14.875,12.338-31.563,25.153-38.44,43.951   c-6.895,18.849-2.22,41.407,11.143,56.288c0.178,0.025,0.361,0.027,0.542,0.044c1.776,0.014,3.549-0.014,5.325-0.044   c-13.409-14.956-17.878-37.316-11.113-56.249c1.315-3.683,3.075-7.168,5.148-10.481c3.335,0.556,6.733,1.944,9.74,3.449   l4.045,2.216c9.144,4.61,16.262,12.776,20.077,22.231c4.437,10.993,3.829,23.393-1.284,34.042   c-0.453,0.943-0.931,1.877-1.447,2.787c6.42-0.919,12.68-2.135,18.742-3.638c3.756-11.643,4.331-24.369,1.054-36.194   c-2.913-10.506-8.548-20.25-16.246-27.975c-5.866-5.888-12.933-10.594-20.647-13.692l-0.001,0c2.747-2.655,5.641-5.246,8.628-7.818   l0.013,0.001c0,0,0.614-0.502,1.658-1.365c18.286,5.845,33.913,20.645,38.807,39.46c4.013,15.431,0.964,32.536-7.407,46.012   c6.773-1.693,13.496-4.218,19.913-6.948c6.671-20.644,4.792-44.069-6.253-62.881c-7.039-11.986-17.639-21.837-29.732-28.604   c2.8-2.403,5.608-5.031,8.245-7.615l0.006,0.003c-0.001,0-0.001,0.001-0.002,0.002l1.631-1.626   c18.373,6.945,32.86,22.62,38.659,41.35C348.701,303.97,346.351,323.351,340.041,340.603l0.006,0.002 M204.399,258.579   c-11.15,0.029-22.112,4.238-30.602,11.424c-7.932,6.714-13.723,15.739-17.197,25.489c-3.711,10.415-4.787,21.683-3.417,32.638   c7.445,5.631,15.527,10.448,23.949,14.466c-0.379-1.432-1.119-2.659-1.787-3.965c-0.707-1.384-1.35-2.8-1.928-4.241   c-1.108-2.771-1.975-5.637-2.592-8.555c-1.309-6.19-1.496-12.619-0.515-18.871c1.762-11.222,7.472-22.717,17.559-28.621   c1.526-0.894,3.136-1.645,4.802-2.237c3.186-6.299,7.226-12.148,11.782-17.531C204.437,258.574,204.454,258.574,204.399,258.579   C194.548,258.604,204.454,258.574,204.399,258.579z M211.344,240.024c0.007-0.011,0.015-0.022,0.021-0.034   c-4.447-1.194-9.002-1.892-13.578-2.12c-21.847,1.129-42.746,12.197-55.035,30.44c-7.271,10.795-11.635,23.814-12.155,36.839   c5.262,7.494,11.896,14.443,19.678,20.709c-0.603-3.975-0.86-7.998-0.805-12.018c-2.305-10.477-0.726-21.733,4.073-31.301   c4.867-9.704,13.103-17.111,23.184-21.103c9.158-5.594,20.34-8.167,30.999-6.566c6.554-6.858,13.531-13.208,20.772-19.331   c8.938-7.558,18.238-14.827,25.998-23.644c0.385-0.438,0.768-0.88,1.146-1.326c-8.08,2.828-15.817,6.727-22.716,11.815   c-3.395,2.503-6.578,5.293-9.477,8.358c-2.947,3.118-6.15,6.627-7.652,10.66 M215.797,241.403" originalFill="#EAA238"/>
	<path opacity="0.2" d="M346.304,100.568c-0.324-4.614-0.773-9.213-1.363-13.787l147.485-9.753c3.46-0.229,6.353-2.243,7.875-5.063   l1.081,8.543c0.698,5.524-3.399,10.495-8.956,10.862l-8.518,0.563L346.304,100.568z M258.434,106.845l4.148-0.274   c1.116-0.55,2.354-0.897,3.668-0.979l20.148-1.264c0.016-4.556-0.035-9.115-0.135-13.665l-27.83,1.84   c-3.516,0.233-6.734-1.45-8.609-4.175c-1.511,1.942-2.289,4.45-1.979,7.071l0.348,2.934   C248.799,103.442,253.299,107.185,258.434,106.845z M500.545,131.405l-234.19-12.129c-4.162-0.216-7.597-3.042-8.751-6.844   c-0.271,0.891-0.418,1.834-0.418,2.811v2.955c0,5.146,4.029,9.391,9.169,9.657l234.19,12.129c5.56,0.288,10.214-4.167,10.169-9.734   l-0.06-7.455C510.113,127.823,505.725,131.673,500.545,131.405z M172.278,488.963c0.434-4.145-0.215-9.253-0.898-13.871   c-2.611-17.636-10.904-88.526-26.691-65.854c-9.264,13.316,5.158,58.433,11.242,72.822c2.077,4.912,4.443,9.725,7.338,12.385   c2.895,2.661,6.42,2.606,8.093-1.505C171.835,491.778,172.124,490.432,172.278,488.963z M130.935,377.725   c-0.053,0.17-0.099,0.345-0.14,0.523c-1.126,4.926,2.961,17.643,7.848,19.678c12.754,5.31,18.571-15.11,10.095-22.453   C143.787,371.185,133.032,370.815,130.935,377.725z M333.122,492.543c2.175,2.394,6.277,1.971,8.807-0.046   c2.53-2.017,3.86-5.146,5.048-8.156c8.373-21.229,14.121-40.228,17.215-62.788c0.692-5.051,0.788-11.386-3.671-13.857   c-3.371-1.868-7.817-0.236-10.344,2.676c-2.527,2.91-3.593,6.775-4.587,10.5C341.704,435.439,321.111,479.325,333.122,492.543z" fill="#000000" originalFill="#000000"/>
	<path opacity="0.1" d="M274.943,218.948c0.121,0.023,0.244,0.045,0.363,0.068c-0.973,1.067-1.967,2.12-2.98,3.159   c0,0,0-0.001,0.002-0.003C273.219,221.117,274.088,220.04,274.943,218.948z M192.672,276.077c-2.632,0.936-5.179,2.289-7.504,4.033   c-6.508,4.882-11.421,12.667-13.836,21.923c-0.785,3.012-1.282,6.086-1.506,9.18c4.791-4.893,10.025-9.221,15.305-12.87   c0.748-3.895,1.79-7.854,3.098-11.705C189.561,282.717,191.164,278.915,192.672,276.077z M226.619,326.73   c-0.584,0.109-1.167,0.223-1.748,0.344c0.757,2.882,1.708,5.79,2.822,8.624C227.164,332.731,226.807,329.735,226.619,326.73z    M187.478,342.36c-1.396,0.938-2.901,1.949-4.249,2.957c0,0,3.955,1.668,6.077,2.426   C188.64,345.976,188.029,344.169,187.478,342.36z M307.197,344.974c-0.433,2.4-1.004,4.77-1.706,7.098   c1.175-1.928,2.241-3.93,3.19-5.988C308.19,345.71,307.695,345.339,307.197,344.974z M287.953,333.78   c-10.558-4.741-21.881-7.765-33.379-8.769c-2.586-0.225-5.18-0.348-7.775-0.371c0.436,7.892,2.48,15.749,5.963,22.827   c10.114,0.904,20.053,3.809,29.16,8.367C285.839,349.161,288.035,341.458,287.953,333.78z M183.628,310.811   c-4.817,2.941-9.378,6.238-13.622,9.865c0.75,6.82,2.832,13.493,6.186,19.509c0.418,0.752,0.728,1.582,0.939,2.375   c0.582,0.281,1.164,0.559,1.748,0.828c2.227-2.352,4.553-4.627,7.072-6.697C183.965,328.24,183.184,319.486,183.628,310.811z    M367.334,323.129c2.327-13.006,1.737-26.523-2.126-39.022c-2.801-9.058-7.314-17.598-13.111-25.2   c-4.412-4.202-9.059-8.155-13.915-11.825c7.934,8.262,14.215,18.108,18.25,28.906c5.23,13.99,6.832,29.639,4.76,45.784   c1.088,1.258,2.156,2.531,3.198,3.824C365.391,324.785,366.373,323.963,367.334,323.129L367.334,323.129z M317.539,263.676   c-5.162-2.036-10.435-3.773-15.786-5.218c11.912,8.297,21.603,19.761,27.224,33.27c0.49,1.178,0.944,2.369,1.368,3.567   c3.92,2.453,7.715,5.111,11.365,7.957c-0.446-7.096-1.851-13.884-4.208-20.187c-5.848-15.646-17.882-28.67-33.019-35.731   c-0.537-0.25-1.077-0.491-1.62-0.726c0,0,0.006-0.009,0.012-0.014c-1.169,1.145-2.373,2.281-3.616,3.406   c11.029,4.947,21.331,11.462,30.621,19.209C325.854,267.181,321.737,265.331,317.539,263.676z M277.653,268.354L277.653,268.354   c-2.86,2.462-5.635,4.94-8.276,7.476c9.295,0.591,18.521,2.131,27.482,4.637C291.293,275.303,284.717,271.156,277.653,268.354z    M267.814,298.113c-2.363-1.463-4.887-2.669-7.51-3.619c-1.969-0.237-3.941-0.427-5.913-0.566   c-1.118,1.858-2.146,3.775-3.065,5.764c-2.389,5.166-3.821,10.746-4.365,16.449c5.287,0.07,10.6,0.561,15.875,1.494   c8.144,1.445,16.196,3.895,24.012,7.246C284.262,313.977,277.311,303.992,267.814,298.113z M313.958,313.621   c-3.963-2.414-8.012-4.627-12.131-6.633c3.869,7.963,6.094,16.732,6.321,25.702c0.033,1.318,0.021,2.635-0.033,3.947   c1.115,0.764,2.224,1.545,3.319,2.35C314.037,330.808,314.948,322.064,313.958,313.621z M334.217,328.35   c-0.572,5.825-1.772,11.591-3.574,17.161c1.375-0.582,2.735-1.178,4.08-1.789v-0.002c1.51-3.867,2.783-7.705,3.82-11.527   C337.12,330.882,335.678,329.603,334.217,328.35z M228.434,295.292c-1.765,3.161-3.28,6.45-4.446,9.866   c-1.226,3.588-1.384,8.328-0.722,13.52c1.09-0.252,2.186-0.486,3.285-0.701c0.377-8.039,2.028-16.008,5.039-23.519   c-0.535,0.063-1.068,0.131-1.6,0.201C229.467,294.858,228.947,295.069,228.434,295.292z M149.511,314.027   c0,0,0.003,0.004,0.004,0.006c0.06-5.451,0.727-10.896,2.037-16.207c-1.03,1.113-2.042,2.254-3.033,3.414   C148.254,305.539,148.571,309.861,149.511,314.027z M213.657,236.688c6.633-8.608,15.297-15.37,25.085-20.364   c-27.175,1.114-54.093,9.069-77.113,23.533c-10.6,6.658-21.357,15.707-30.246,26.622c-4.449,7.167-7.701,14.768-9.512,22.702   c1.721,4.258,3.865,8.392,6.39,12.388c0.61-16.645,7.359-33.046,19.317-44.89c16.486-16.326,41.533-22.721,63.828-16.714   C212.068,238.812,212.871,237.708,213.657,236.688z" fill="#000000" originalFill="#000000"/>
</g>
</svg>