<svg xmlns="http://www.w3.org/2000/svg" xmlns:xlink="http://www.w3.org/1999/xlink" version="1.1" id="svg-edited-version" x="0px" y="0px" viewBox="0 0 595.28 595.28" enable-background="new 0 0 595.28 595.28" xml:space="preserve" class="injected-svg" data-src="https://preview.pixlr.com/images/svg/100/1/c6cf3eab1965e74ba14cd43bf1fdc352de89065ebbba653e72ea69f733864a81.svg">
<g>
	<path fill="#E9E9F4" d="M433.405,200.939c0.391,1.951,0.79,3.976,1.202,6.082c7.646,39.181,19.062,49.766,17.471,59.772   c-0.817,5.139-3.43,7.512-6.787,7.344c0.041,0.002,0.088,0.023,0.129,0.024c8.171,23.804,14.94,46.598,14.832,56.512   c-0.206,18.584-47.676,80.454-157.709,80.454c-120.614,0-169.189-61.889-170.061-80.454c-0.691-14.803,17.288-62.483,30.752-95.886   c0.292-0.001,0.544-0.077,0.824-0.099c-1.519,0.121-3.151,0.029-5.034-0.515c-6.217-1.798-10.539-8.58-4.934-15.949   c6.136-8.068,8.289-4.33,13.467-19.621C92.71,228.292,42.522,282.791,42.522,345.139c0,94.082,114.219,170.351,255.119,170.351   c140.897,0,255.116-76.269,255.116-170.351C552.758,284.385,505.091,231.096,433.405,200.939z" originalFill="#E9E9F4"/>
	<path fill="#BAC8E1" d="M448.543,273.187c-0.97,0.617-2.037,1.011-3.252,0.95c0.041,0.002,0.088,0.023,0.129,0.024   c8.171,23.804,14.94,46.598,14.832,56.512c-0.206,18.584-47.676,80.454-157.709,80.454c-120.614,0-169.189-61.889-170.061-80.454   c-0.462-9.896,7.429-34.491,16.729-59.685c-19.838,16.983-31.466,37.533-31.466,59.685c0,58.352,80.542,105.654,179.896,105.654   c99.351,0,179.893-47.303,179.893-105.654C477.534,309.467,466.856,289.735,448.543,273.187z" originalFill="#BAC8E1"/>
	<path fill="#511F17" d="M188.03,128.077c-8.319,14.989-13.1,46.755-19.153,66.446c-6.181,20.105-8.152,14.978-14.786,23.701   c-5.604,7.369-1.283,14.151,4.934,15.949c18.843,5.45,17.157-26.065,41.028-21.41c18.595,3.627,17.147,18.167,10.405,37.729   c-6.742,19.562-15.117,47.274,2.556,50.534s23-22.737,27.787-37.494c8.99-27.712,32.028-21.192,37.087-9.781   c5.057,11.411-3.934,44.015,1.123,55.425c5.057,11.411,33.669,18.631,38.727,0.699c5.057-17.932-6.731-58.352,14.093-59.384   c21.914-1.087,11.8,53.794,35.399,52.164c23.601-1.63,32.029-17.932,26.973-47.274c-5.058-29.343,24.399-28.077,32.028-4.89   c7.866,23.908,23.6,30.429,25.848,16.301c1.592-10.006-9.823-20.591-17.472-59.772c-6.558-33.594-10.264-46.695-19.563-68.466   c-13.202-30.915-36.856-55.153-102.601-58.413C239.741,76.536,202.872,101.333,188.03,128.077z" originalFill="#511F17"/>
	<path fill="#ED9E6D" d="M445.42,274.162c-5.883-0.184-14.149-8.351-19.189-23.67c-7.629-23.186-37.086-24.452-32.028,4.891   c5.057,29.342-3.372,45.644-26.973,47.274c-23.6,1.63-13.485-53.251-35.399-52.165c-20.824,1.033-9.036,41.453-14.093,59.385   c-5.058,17.932-33.67,10.712-38.727-0.699c-5.057-11.41,3.934-44.014-1.123-55.425c-5.059-11.411-28.097-17.931-37.087,9.781   c-4.787,14.755-10.114,40.753-27.787,37.493s-9.298-30.973-2.556-50.535c6.742-19.561,8.189-34.101-10.405-37.728   c-21.926-4.276-22.302,21.942-36.817,22.024c-13.465,33.403-31.445,81.083-30.752,95.886c0.869,18.565,49.444,80.454,170.06,80.454   c110.033,0,157.504-61.869,157.708-80.454C460.36,320.76,453.591,297.966,445.42,274.162z" originalFill="#ED9E6D"/>
	<path opacity="0.2" d="M552.669,340.646c0.059,1.493,0.089,2.99,0.089,4.492c0,94.082-114.22,170.351-255.118,170.351   c-140.897,0-255.117-76.269-255.117-170.351c0-1.502,0.03-2.999,0.088-4.492c3.566,92.006,116.381,165.859,255.029,165.859   C436.289,506.506,549.103,432.652,552.669,340.646z M454.74,303.348c3.395,11.826,5.573,21.673,5.511,27.326   c-0.204,18.585-47.675,80.454-157.708,80.454c-105.277,0-155.667-47.146-167.36-71.483c0.002,0.014,0,0.029,0.002,0.043   c0.869,18.566,49.444,80.455,170.059,80.455c110.033,0,157.504-61.87,157.709-80.455C463.03,332.65,459.635,319.116,454.74,303.348   z M426.23,256.968c-6.689-20.329-30.155-23.803-32.428-4.571c-2.594-26.229,25.068-24.271,32.428-1.905   c5.041,15.321,13.309,23.494,19.191,23.677c0.71,2.069,1.404,4.125,2.09,6.171C441.664,282.403,431.903,274.209,426.23,256.968z    M317.737,316.353c1.362-4.833,1.5-11.305,1.383-18.193c-0.101,4.403-0.459,8.438-1.383,11.717   c-5.058,17.932-33.67,10.712-38.727-0.699c-0.914-2.063-1.365-4.827-1.527-8.026c-0.229,5.947,0.039,11.146,1.527,14.503   C284.067,327.064,312.68,334.284,317.737,316.353z M213.014,301.026c-6.85-1.264-9.776-6.208-10.411-12.92   c-0.783,9.894,1.502,17.753,10.411,19.396c17.673,3.261,23-22.738,27.787-37.494c8.99-27.712,32.028-21.191,37.087-9.78   c0.914,2.063,1.364,4.827,1.526,8.026c0.229-5.947-0.039-11.146-1.526-14.503c-5.059-11.411-28.097-17.931-37.087,9.781   C236.014,278.288,230.687,304.286,213.014,301.026z M200.053,219.24c9.677,1.888,13.918,6.736,14.817,13.704   c1.087-10.436-2.375-17.754-14.817-20.181c-21.926-4.276-22.302,21.942-36.817,22.024l0,0c-0.822,2.039-1.661,4.132-2.511,6.266   C177.786,244.174,176.925,214.729,200.053,219.24z M318.869,280.493c0.271-12.55,2.502-23.006,12.961-23.525   c21.914-1.086,11.8,53.796,35.399,52.165c20.267-1.4,29.335-13.628,28.293-35.633c-0.942,17.928-10.11,27.9-28.293,29.156   c-23.6,1.63-13.485-53.251-35.399-52.165C319.611,251.098,318.623,265.265,318.869,280.493z M447.503,280.34   c-5.848,2.056-15.602-6.139-21.272-23.372c-4.132-12.554-14.651-18.654-22.635-16.976c7.676,37.842-2.334,79.539-28.523,108.156   c-47.01,51.363-110.143,50.942-168.842,28.714c-17.447-6.608-47.676-17.134-68.365-32.358   c15.588,25.237,66.04,66.624,164.678,66.624c110.033,0,157.503-61.87,157.709-80.454   C460.352,321.623,454.701,301.825,447.503,280.34z" fill="#000000" originalFill="#000000"/>
	<path fill="#FBEAD6" d="M165.101,285.433c10.424,4.281,0.303,39.651-4.854,48.266c-2.187,3.653-5.889,5.933-9.017,4.129   c-2.885-1.663-4.462-6.317-4.56-10.74C146.425,316.03,153.059,280.487,165.101,285.433z M175.044,247.037   c-0.54,0.084-1.131,0.24-1.775,0.478c-3.853,1.417-6.713,10.673-7.525,14.177c-0.74,3.191-0.879,7.208,1.848,9.022   c1.819,1.209,4.354,0.872,6.171-0.34c1.817-1.213,3.028-3.142,3.964-5.117C179.8,260.88,183.139,245.78,175.044,247.037z    M254.44,141.507c3.453,0.733,7.072,1.221,10.945,1.413c4.902,0.243,9.98,0.068,14.532,1.72s8.394,5.894,7.069,9.915   c-1.445,4.391-7.717,5.888-13.05,6.216c-15.172,0.935-30.699-2.069-44.237-8.284c-7.611-3.493-31.38-17.686-13.791-25.158   c7.088-3.011,6.613,0.765,11.506,3.368C236.404,135.479,244.771,139.455,254.44,141.507z M318.157,144.061   c-6.217,0.554-12.177,2.74-13.71,5.91c-2.191,4.529,1.041,10.106,6.199,12.243c5.156,2.138,11.514,1.271,16.426-1.252   c3.92-2.013,7.289-5.355,7.476-9.267C334.848,145.398,326.282,143.336,318.157,144.061z M372.721,247.913   c-0.531,0.906-1.019,2.072-1.446,3.532c-1.072,3.653,3.008,19.604,7.145,20.648c4.298,1.083,7.813-3.811,8.425-8.2   C387.938,256.042,378.086,238.756,372.721,247.913z M301.393,285.829c-0.801,0.68-1.646,1.62-2.531,2.856   c-2.216,3.095-3.627,19.5-0.065,21.849c3.7,2.44,8.633-1.019,10.658-4.962C313.076,298.523,309.479,278.954,301.393,285.829z    M413.529,204.661c0.721,1.058,1.669,2.16,2.732,2.897c1.127,0.781,2.383,1.151,3.633,0.623c9.442-4.275-5.806-36.707-7.813-42.981   c-1.087-3.397-2.275-6.958-4.905-9.367c-2.631-2.41-7.19-3.108-9.631-0.507c-2.634,2.806-1.407,7.319-0.027,10.91   C402.401,178.944,405.889,193.434,413.529,204.661z" originalFill="#FBEAD6"/>
</g>
</svg>