<svg xmlns="http://www.w3.org/2000/svg" xmlns:xlink="http://www.w3.org/1999/xlink" version="1.1" id="svg-edited-version" x="0px" y="0px" viewBox="0 0 595.28 595.28" enable-background="new 0 0 595.28 595.28" xml:space="preserve" class="injected-svg" data-src="https://preview.pixlr.com/images/svg/100/1/b1bee7cea4e0da6321c638461ff4525b706f342e62008dd202894228eed45456.svg">
<g>
	<path fill="#E9E9F4" d="M242.791,131.561c-56.559,26.247-73.317,67.611-114.771,114.188   c-19.748,22.188-66.214,51.425-77.423,78.932c-11.209,27.507-11.991,61.146,5.604,85.079   c19.322,26.281,54.459,34.294,86.566,40.057c44.102,7.914,88.332,15.111,132.667,21.588c45.15,6.596,91.719,12.382,135.958,1.204   c80.739-20.4,141.311-102.251,137.221-185.428C541.143,135.252,366.213,74.285,242.791,131.561z" originalFill="#E9E9F4"/>
	<path fill="#F89C3E" d="M263.891,338.74c15.604,19.565,41.606,27.256,66.266,31.523c30.581,5.291,63.759,6.575,90.881-8.51   c32.478-18.063,49.652-59.806,39.291-95.494c-14.783-50.921-64.993-78.748-126.385-63.248   C282.613,215.973,218.904,282.334,263.891,338.74z" originalFill="#F89C3E"/>
	<path fill="#E59241" d="M460.328,266.26c-2.569-8.852-6.232-16.986-10.815-24.335c3.214,5.967,5.864,12.385,7.854,19.238   c10.361,35.689-6.813,77.432-39.291,95.495c-27.123,15.084-60.3,13.801-90.881,8.509c-24.66-4.267-50.662-11.957-66.266-31.523   c-1.831-2.295-3.463-4.608-4.942-6.934c2.131,4.045,4.74,8.063,7.904,12.031c15.604,19.565,41.605,27.256,66.266,31.523   c30.581,5.291,63.759,6.575,90.881-8.51C453.515,343.691,470.689,301.948,460.328,266.26z" originalFill="#E59241"/>
	<path fill="#B3B4C1" d="M415.341,478.624c-44.239,11.178-90.807,5.392-135.958-1.204c-44.335-6.477-88.565-13.674-132.667-21.588   c-32.107-5.763-67.244-13.775-86.566-40.058c-1.382-1.88-2.638-3.827-3.797-5.819c19.353,26.122,54.39,34.114,86.416,39.861   c44.101,7.914,88.331,15.111,132.667,21.588c45.15,6.596,91.719,12.382,135.958,1.204c80.739-20.4,141.311-102.251,137.221-185.428   c-1.619-32.946-11.124-61.607-26.261-85.72c17.431,25.313,28.453,56.007,30.21,91.735   C556.652,376.372,496.08,458.224,415.341,478.624z M465.264,276.042c-2.298-7.916-5.454-15.271-9.373-21.995   c1.708,3.908,3.207,7.972,4.438,12.213c10.361,35.688-6.813,77.431-39.291,95.494c-27.122,15.085-60.3,13.801-90.881,8.51   c-24.66-4.268-50.661-11.958-66.266-31.523c-2.169-2.721-4.081-5.464-5.758-8.225c2.467,6.063,5.975,12.09,10.694,18.007   c15.605,19.565,41.606,27.257,66.266,31.522c30.581,5.292,63.759,6.575,90.882-8.509   C458.451,353.474,475.626,311.73,465.264,276.042z" originalFill="#B3B4C1"/>
	<path fill="#FFFFFF" d="M284.735,247.258c2.256-2.005,4.659-3.952,7.5-4.971c2.841-1.02,6.225-0.971,8.658,0.815   c6.816,5.005,0.8,16.953-2.574,21.97c-6.542,9.731-13.084,19.461-19.626,29.192c-1.819,2.706-3.962,5.635-7.161,6.268   c-3.422,0.677-6.893-1.725-8.432-4.854c-1.54-3.13-1.524-6.793-1.12-10.257C263.824,269.645,273.194,257.519,284.735,247.258z    M310.925,239.794c4.019,3.721,10.545,2.334,15.359-0.274c8.808-4.773,14.405-19.876,0.397-20.888   C317.607,217.977,300.999,230.604,310.925,239.794z" originalFill="#FFFFFF"/>
	<path fill="#FFFFFF" d="M76.188,318.927c4.088-3.989,9.811-7.762,15.678-8.252c12.623-1.055,7.812,12.325,2.386,18.494   c-12.339,14.027-14,25.666-10.095,43.359c0.683,3.096-0.075,6.405-1.069,9.416s-3.324,5.824-6.452,6.339   c-4.727,0.777-8.577-3.715-10.804-7.955c-2.895-5.512-4.539-11.754-5.029-18.208C59.617,346.505,65.193,329.651,76.188,318.927z    M121.37,281.381c-3.988-0.757-9.106,1.037-14.137,6.824c-3.797,4.367-5.313,11.451-1.856,16.109   c4.036,5.438,12.897,4.583,17.557-0.299C132.581,293.9,129.101,282.849,121.37,281.381z M415.041,139.301   c-3.379,0.146-7.526,1.56-7.853,4.926c-0.318,3.303,3.282,5.46,6.337,6.757c8.627,3.664,19.394,10.714,28.608,12.152   c6.479,1.01,12.111-1.839,6.411-9.113C440.068,143.207,428.506,138.722,415.041,139.301z" originalFill="#FFFFFF"/>
</g>
</svg>