<svg xmlns="http://www.w3.org/2000/svg" xmlns:xlink="http://www.w3.org/1999/xlink" version="1.1" id="svg-edited-version" x="0px" y="0px" viewBox="0 0 595.3 595.3" enable-background="new 0 0 595.3 595.3" xml:space="preserve" class="injected-svg" data-src="https://preview.pixlr.com/images/svg/100/1/d3937fddf6cae6b6deb36e5489362c93ebf4ae27eee877520678337475e5e55c.svg">
<g>
	<path fill="#E7AC40" d="M315.1,416.1v121.8c0,10.1-8.2,18.3-18.3,18.3c-10.1,0-18.3-8.2-18.3-18.3V416.1H315.1z" originalFill="#E7AC40"/>
	<path fill="#48C2C5" d="M395.5,261v124.5c0,16.9-13.7,30.7-30.7,30.7h-136c-16.9,0-30.7-13.7-30.7-30.7V276.9   c1.7,0.3,3.4-0.1,4.9-0.8c4.8-2.3,8.4-8.7,10-12.9c3.9-9.9,4.8-20.8,5.3-31.3c0.7-13.7-0.8-27.7,2.1-41.3   c1.1-5.1,2.6-13.2,7.2-16.4c11.9-8.4,19.3,7.1,21.7,16.1c5.1,19.5,5.1,40.8,6.2,60.9c0.9,15.7,0.4,31.4-1.3,47   c-1.5,13.8-2.9,25.8,4.6,38.4c3.1,5.2,8.9,9.2,14.9,8.3c4-0.6,7.5-3.2,10.1-6.3c11.9-14.2,8.6-37.7,7.7-54.8   c-1.3-24.3-2.8-46.9,2.1-71.1c1.9-9.5,5.2-21.8,14.4-27c7.7-4.3,15.4-0.7,19.6,6.4c6.2,10.3,7.2,24,8.1,35.8   c1.6,21.5-3.3,45.5-4.9,67.1c-0.4,6-0.9,12.2,1,18c2.8,8.8,16.5,19,24.5,10.7c9.2-9.6,8.3-22.9,7.6-35c-0.9-16.1-3-32.1-2.8-48.2   c0.1-9.6-2.8-35.7,7.4-41.5c17.2-9.7,15.2,42.3,17,51.2C386.4,254.9,390.8,260.2,395.5,261z" originalFill="#48C2C5"/>
	<path opacity="0.2" d="M395.5,333.7v51.8c0,16.9-13.7,30.7-30.7,30.7h-49.7V449c-2.5-1.9-5.2-3.5-8.2-4.7c-7.9-3.3-19.3-2-28.4,2.7   v-30.9h-49.7c-16,0-29.1-12.2-30.5-27.8c7.6,4,16.2,6,24.8,7c3.2,0.4,79.8,3.8,120.5-7.8c24.4-6.9,37.5-23.2,44.6-36.5   C391.3,345.6,393.6,339.7,395.5,333.7z M211.6,279.8c11.5-14,14.2-32.9,15.1-50.4c0.6-11.5-0.8-23.3,1.6-34.7   c0.7-3.5,2.4-13.1,6.5-13.6c23.1-3.1,13.4,124.9,12.7,138.2c-1.1,22.1,25.6,43.9,44.1,23.8c9.7-10.6,8.8-27.2,8.1-40.5   c-1.1-19.6-1.2-39.5-1.9-59.2c-0.5-14,0.6-30.7,6.5-43.7c1.9-4.2,5.4-7.9,10-8.6c12.6-2.2,14,13.8,14.7,22.2   c1.3,15.6,2.6,30.6,0.7,46.3c-2.2,18.2-5.5,36.6-2.6,54.8c0.8,5.3,2.3,10.6,5.5,14.8c10.2,13.6,29.8,1.9,35.4-10.5   c5.8-12.7,1.6-27.7,0.1-40.9c-1.8-16.1-2.9-32.2-3.5-48.4c-0.2-6.1-0.3-12.7,3-18c3-4.8,6.2-5.1,9,0.3c4.5,8.8,3.2,19.4,3.1,28.9   c-0.2,10.8,3.5,32,16,35.5V261c-4.8-0.7-9.1-6-10-10.7c-1.8-8.8,0.2-60.9-17-51.2c-10.2,5.8-7.3,32-7.4,41.5   c-0.1,16.1,1.9,32.2,2.8,48.2c0.7,12.2,1.6,25.5-7.6,35c-8,8.3-21.6-1.9-24.5-10.7c-1.8-5.8-1.4-12-1-18   c1.6-21.6,6.5-45.6,4.9-67.1c-0.9-11.7-1.9-25.4-8.1-35.8c-4.3-7.1-11.9-10.7-19.6-6.4c-9.2,5.1-12.5,17.5-14.4,27   c-4.9,24.2-3.3,46.8-2.1,71.1c0.9,17.1,4.1,40.7-7.7,54.8c-2.6,3.1-6.1,5.7-10.1,6.3c-6,0.8-11.8-3.2-14.9-8.3   c-7.6-12.6-6.2-24.6-4.6-38.4c1.7-15.6,2.2-31.4,1.3-47c-1.1-20.1-1.1-41.4-6.2-60.9c-2.4-9.1-9.8-24.5-21.7-16.1   c-4.6,3.2-6.1,11.3-7.2,16.4c-2.8,13.6-1.4,27.6-2.1,41.3c-0.5,10.5-1.4,21.5-5.3,31.3c-1.7,4.2-5.2,10.5-10,12.9   c-1.5,0.7-3.2,1.1-4.9,0.8v8.8C198.2,285.7,204.8,288,211.6,279.8z" fill="#000000" originalFill="#000000"/>
	<path fill="#E56C91" d="M203.1,276.1c4.8-2.3,8.4-8.7,10-12.9c3.9-9.9,4.8-20.8,5.3-31.4c0.7-13.7-0.8-27.7,2.1-41.3   c1.1-5.1,2.6-13.2,7.2-16.4c11.9-8.4,19.3,7.1,21.7,16.1c5.1,19.6,5.1,40.8,6.2,60.9c0.9,15.7,0.4,31.4-1.3,47   c-1.5,13.8-3,25.8,4.6,38.4c3.1,5.2,8.9,9.2,14.9,8.4c4-0.6,7.5-3.2,10.1-6.3c11.9-14.2,8.6-37.7,7.7-54.8   c-1.3-24.3-2.8-46.9,2.1-71.1c1.9-9.5,5.2-21.8,14.4-27c7.7-4.3,15.4-0.7,19.6,6.4c6.2,10.3,7.2,24,8.1,35.8   c1.6,21.5-3.3,45.5-4.9,67.1c-0.5,6-0.9,12.2,1,18c2.8,8.8,16.5,19,24.4,10.7c9.2-9.6,8.3-22.9,7.6-35c-0.9-16.1-3-32.1-2.9-48.2   c0.1-9.6-2.8-35.7,7.4-41.5c17.2-9.7,15.2,42.3,17,51.2c1.4,6.8,10.1,15.1,16.7,8.2c7.6-8.1-4.2-23.2-3.2-76.6   c0.3-14.1-1.3-27.9-1.3-41.9c0-55.7-45.1-100.8-100.8-100.8c-55.7,0-99.3,42.9-100.8,100.8c-0.5,18.9,0.4,37.8,0.5,56.7   c0,10.9,0,21.8-0.5,32.7c-0.4,8.9,0.3,20.4-3.3,28.3c-2.7,6.1-4.3,16.5,4.3,19C199.2,277.3,201.2,277,203.1,276.1z" originalFill="#E56C91"/>
	<path fill="#FFFFFF" d="M274.5,62.9c-1.7,2.3-4.4,3.8-6.9,5.2c-11.4,6.6-21.6,15.1-30.1,25.1c-5.6,6.5-7.3,15.5-16.2,18.8   c-2.5,0.9-5.5,0.9-7.7-0.6c-6.2-4.4,2.5-17.1,5.4-21.5c10.7-16.4,27.2-32.4,46.5-38c3.8-1.1,7.7,0.2,9.6,2.7   C276.7,56.7,276.9,59.7,274.5,62.9z M207.9,137.5c3.2,1.4,7-0.6,9.3-3.2c1.6-1.7,2.9-3.8,3.4-6c1.8-7.5-7.4-13.5-13-7.8   C204,124.3,201.7,134.9,207.9,137.5z M267.1,319.9c-1-1.6-2.4-2.7-4.4-1.4c-2.1,1.3-2.6,5.4-2.1,7.6c0.8,4,3.7,8.3,7.4,10.1   c3.2,1.5,9.5,2.3,11.9-1.1c0.9-1.4,1-4.1-0.1-5.4c-1.4-1.8-4.1-1.4-6.1-1.9c-1.8-0.5-3.4-1.9-4.4-3.5   C268.7,323.2,268.1,321.4,267.1,319.9z M264.9,308.2c-0.4-2.8-3.4-4.1-5.6-2.2c-2.5,2.2-1,6.9,2.5,6.9   C264.3,313,265.2,310.4,264.9,308.2z M340.7,307.3c-1.1-1-2.4-1.5-3.7-0.4c-1.6,1.3-1.4,4.4-0.7,6.1c0.8,1.7,2.1,3.1,3.6,4.3   c2.3,1.9,4.9,3.4,7.8,3.6c2.9,0.3,6.1-0.9,7.7-3.3c0.9-1.3,0.6-2.9-0.7-3.8c-1.5-1-2.5-0.2-4.1,0c-3.1,0.3-5.7-1.3-7.5-3.6   C342.6,309.4,341.7,308.2,340.7,307.3z M339.8,296.8c-0.8-2.5-3.6-3.2-5.3-1.1c-1.9,2.4,0.1,6.2,3.2,5.8   C340,301.1,340.4,298.7,339.8,296.8z M206,262.4c-0.4-1.4-1.2-2.5-2.6-2.2c-1.4,0.3-2.8,2.6-3.9,3.5c-1.8,1.5-4.9,2-5.6,4.5   c-0.6,2.2,1.6,4.4,3.9,4.5c3.4,0.1,8.3-5.1,8.5-8.4C206.3,263.7,206.2,263,206,262.4z M209.3,258.3c2.1-1.6,0.7-5.9-2.2-4.5   C203.1,255.7,205.8,261,209.3,258.3z M388.9,245.3c-1,3.2,1.9,9.7,5.2,10.7c2.2,0.7,5-0.7,5.1-2.9c0.2-2.7-2.6-4.1-3.8-6.2   c-0.7-1.2-1.3-3.8-2.5-4.5c-1.2-0.8-2.4,0-3.2,1.2C389.4,244.2,389.1,244.8,388.9,245.3z M391.4,233.3c-2.3-2.3-5,1.3-3.6,3.5   C390.2,240.6,394.6,236.5,391.4,233.3z M207.8,295c-4,0.2-3.9,6.7-3.9,11.4c0,4.5-0.1,26.7,0.6,31.1c0.2,1.5,0.9,3,2.2,3.9   c3.3,2.2,5.9-1.4,6.1-4.3c0.5-7.8,0.8-14.8,0.5-26.1c-0.1-4,1.1-15.6-5-16.1C208.1,295,207.9,295,207.8,295z M211.5,353.3   c-1.7-2.7-4.4-2.9-5.8-0.6c-1.6,2.8-1.8,10.7,0.7,13.2c1.9,1.8,3.3,1.6,4.3,0.3C212.9,363.4,213,355.7,211.5,353.3z" originalFill="#FFFFFF"/>
</g>
</svg>