<svg xmlns="http://www.w3.org/2000/svg" xmlns:xlink="http://www.w3.org/1999/xlink" version="1.1" id="svg-edited-version" x="0px" y="0px" viewBox="0 0 595.28 595.28" enable-background="new 0 0 595.28 595.28" xml:space="preserve" class="injected-svg" data-src="https://preview.pixlr.com/images/svg/100/1/ac5e1e929b303354e2278037c06d6be25f7a00dec9d976822c01d6620b6140e3.svg">
<g>
	<path fill="#E9E9F4" d="M361.225,287.041c-3.725-12.887-9.461-36.068-13.447-52.521c-9.018,1.864-17.907,3.482-26.512,4.854   l0.004-0.001c-0.921,0.147-1.841,0.293-2.755,0.434c-1.207,0.187-2.43,0.366-3.66,0.542c5.01,18.729,13.215,47.86,15.517,55.05   c1.767,5.524,0.896,9.826-1.26,12.341c-3.779-0.068-8.124-3.044-10.959-9.852c-4.608-11.066-11.467-38.748-15.53-55.993   c-8.526,0.938-17.458,1.642-26.604,2.08c-2.023,0.097-4.059,0.18-6.102,0.251c5.079,22.778,17.335,74.226,25.854,86.806   c13.22,19.521,37.761,20.273,45.342,23.033c9.795,35.887,32.226,96.266,53.297,129.73c21.07,33.465,39.06,56.486,60.733,66.549   c8.287,3.846,17.264,2.865,24.271-1.326c-0.002,0.002-0.004,0.002-0.006,0.002c15.903-5.143,26.337-25.229,8.86-46.621   c-22.662-27.742-35.944-29.334-65.604-73.604c-20.291-30.284-34.341-59.977-42.083-85.438c13.635-14.873,35.8-36.794,28.362-60.343   c-5.495-17.401-13.136-45.859-16.753-59.543c-8.446,2.486-17.007,4.762-25.554,6.825c0.004-0.001,0.008-0.002,0.008-0.002   c-2.251,0.543-4.505,1.073-6.755,1.587c4.375,17.026,11.709,42.917,14.063,50.623c2.098,6.867,0.605,12.3-2.308,15.261   C364.859,297.766,361.225,287.041,361.225,287.041z M472.497,550.266c0.007,0,0.014,0,0.021-0.002   C472.511,550.266,472.504,550.266,472.497,550.266z" originalFill="#E9E9F4"/>
	<path fill="#A23B42" d="M489.813,46.416c-4.562,10.041-5.873,21.115-6.246,26.173c-13.623-10.532-32.188-15.457-54.494-10.5   c-59.494,13.222-49.943,21.218-129.068,35.594c-91.412,16.607-133.888-11.601-170.219,11.568c-4.383,2.794-8.35,6.054-11.838,9.697   c-3.248-8.256-9.569-21.176-18.9-26.619c-14.233-8.302-29.652,30.839-28.467,40.329c1.002,8.014,17.162,14.52,31.839,16.271   c-3.388,18.042,1.526,38.825,17.979,58.742c31.4,38.01,132.412,42.224,197.784,32.137c73.79-11.385,170.219-41.315,186.745-87.588   c7.074-19.809,5.087-41.593-4.16-58.999h0.001c11.05-3.777,20.9-9.85,23.703-22.931C528.19,52.936,495.341,34.249,489.813,46.416z" originalFill="#A23B42"/>
	<path fill="#ED9E6D" d="M183.611,140.255c-1.453-2.398,2.303-9.087,3.34-11.334c2.26-4.895,5.081-9.53,8.381-13.794   c3.795-4.904,8.25-9.299,13.194-13.043c6.187,0.427,12.726,0.797,19.669,0.997c-11.621,6.751-22.312,15.104-31.645,24.774   c-2.898,3.004-5.856,6.106-8.361,9.454C187.002,138.896,185.352,143.126,183.611,140.255z M300.004,97.682   c-1.195,0.217-2.377,0.422-3.555,0.624c-1.816,1.879-3.533,3.854-5.133,5.92c-3.299,4.263-6.12,8.899-8.379,13.794   c-1.038,2.247-4.793,8.935-3.341,11.334c1.74,2.871,3.39-1.359,4.579-2.947c2.504-3.347,5.463-6.45,8.361-9.454   c8.782-9.101,18.755-17.059,29.586-23.592C315.599,94.741,308.293,96.176,300.004,97.682z M334.678,114.176   c2.505-3.347,5.463-6.45,8.361-9.454c11.686-12.109,25.473-22.194,40.591-29.592l-0.011-0.002   c-11.467,4.178-21.325,8.217-38.334,12.761c-1.201,1.331-2.369,2.689-3.465,4.106c-3.301,4.263-6.121,8.898-8.381,13.793   c-1.037,2.247-4.793,8.935-3.34,11.334C331.84,119.994,333.489,115.764,334.678,114.176z M253.425,102.932   c-4.503,3.556-8.578,7.658-12.089,12.195c-3.299,4.264-6.121,8.899-8.38,13.794c-1.038,2.247-4.793,8.936-3.341,11.334   c1.74,2.872,3.391-1.358,4.578-2.946c2.505-3.347,5.464-6.45,8.361-9.454c10.316-10.69,22.274-19.796,35.336-26.875   C269.27,101.985,261.125,102.605,253.425,102.932z" originalFill="#ED9E6D"/>
	<path opacity="0.2" d="M366.313,230.295c0,0-0.004,0.001-0.008,0.002c3.947,16.177,10.112,41.067,12.761,49.739   c3.197,10.47-1.932,17.628-7.753,17.729c2.913-2.961,4.405-8.394,2.308-15.261c-2.354-7.705-9.688-33.596-14.063-50.623   C361.808,231.368,364.062,230.838,366.313,230.295z M318.183,239.806c-1.207,0.187-2.43,0.366-3.66,0.542   c5.01,18.729,13.215,47.86,15.517,55.05c1.767,5.524,0.896,9.826-1.26,12.341c5.381,0.098,9.616-5.707,6.703-14.81   c-2.554-7.981-9.892-35.746-14.549-53.557l0.004-0.001C320.017,239.52,319.097,239.666,318.183,239.806z M460.256,547.877   c-21.674-10.063-39.663-33.082-60.734-66.549c-21.07-33.465-43.502-93.844-53.297-129.729c-7.58-2.76-32.122-3.512-45.341-23.034   c-9.401-13.882-21.362-66.802-25.197-84.588c-2.023,0.097-4.059,0.18-6.102,0.251c5.079,22.778,17.335,74.226,25.854,86.806   c13.22,19.521,37.761,20.273,45.342,23.033c9.795,35.887,32.226,96.266,53.297,129.73c21.07,33.465,39.06,56.486,60.733,66.549   c8.287,3.846,17.264,2.865,24.271-1.326C473.178,550.93,466.521,550.785,460.256,547.877z M502.95,97.698   c7.339,16.576,8.457,36.378,1.978,54.52c-16.525,46.273-112.955,76.203-186.745,87.588   c-65.372,10.087-166.384,5.874-197.784-32.137c-6.297-7.622-10.877-15.37-13.977-23.044c5.772,0.273,49.211,59.874,221.272,25.638   C482.535,179.454,504.16,137.634,502.95,97.698z M524.472,70.288c0.319-1.489,0.352-2.986,0.173-4.474   c-11.472,8.646-28.229,9.605-40.64,2.406c-0.213,1.713-0.353,3.206-0.438,4.369c7.159,5.534,12.946,12.62,17.201,20.63   C511.818,89.442,521.669,83.37,524.472,70.288z M97.871,128.471c-8.502,3.756-18.56,3.815-27.107,0.167   c-0.236,1.614-0.312,2.996-0.184,4.019c1.002,8.016,17.17,14.523,31.85,16.272c2.139-11.385,7.583-21.672,15.524-29.966   c-0.831-2.112-1.866-4.531-3.098-7.05C111.373,119.191,105.26,125.207,97.871,128.471z M233.901,137.031   c-1.453-2.398,2.303-9.087,3.34-11.334c2.259-4.894,5.081-9.53,8.38-13.793c2.506-3.238,5.311-6.243,8.342-8.999   c-0.178,0.008-0.361,0.02-0.538,0.028c-4.503,3.556-8.578,7.658-12.089,12.195c-3.299,4.264-6.121,8.899-8.38,13.794   c-1.038,2.247-4.793,8.936-3.341,11.334c1.717,2.834,3.347-1.245,4.531-2.878C234.064,137.271,233.983,137.166,233.901,137.031z    M187.897,137.031c-1.454-2.398,2.303-9.087,3.339-11.334c2.26-4.894,5.082-9.53,8.381-13.793c2.751-3.555,5.857-6.832,9.236-9.797   c-0.107-0.007-0.22-0.014-0.327-0.021c-4.944,3.744-9.399,8.139-13.194,13.043c-3.3,4.264-6.121,8.899-8.381,13.794   c-1.037,2.247-4.793,8.936-3.34,11.334c1.717,2.834,3.346-1.245,4.531-2.878C188.061,137.271,187.979,137.166,187.897,137.031z    M334.385,113.898c-1.453-2.398,2.303-9.087,3.341-11.334c2.259-4.895,5.08-9.53,8.38-13.794c0.373-0.482,0.764-0.949,1.152-1.419   c-0.652,0.178-1.298,0.356-1.973,0.537c-1.201,1.331-2.369,2.689-3.465,4.106c-3.301,4.263-6.121,8.898-8.381,13.793   c-1.037,2.247-4.793,8.935-3.34,11.334c1.717,2.834,3.346-1.245,4.531-2.878C334.549,114.139,334.467,114.034,334.385,113.898z    M283.883,126.13c-1.454-2.399,2.303-9.088,3.339-11.334c2.26-4.895,5.081-9.53,8.38-13.793c0.785-1.015,1.601-2.006,2.441-2.976   c-0.531,0.092-1.065,0.189-1.594,0.28c-1.816,1.879-3.533,3.854-5.133,5.92c-3.299,4.263-6.12,8.899-8.379,13.794   c-1.038,2.247-4.793,8.935-3.341,11.334c1.717,2.833,3.347-1.246,4.531-2.879C284.046,126.37,283.964,126.265,283.883,126.13z" fill="#000000" originalFill="#000000"/>
	<path fill="#D8778A" d="M441.1,66.102c4.586-1.421,12.418-1.278,15.875,2.563c2.936,3.262,4.282,10.855-0.828,12.73   c-1.967,0.722-4.146,0.15-6.161-0.425c-2.109-0.603-4.22-1.206-6.329-1.809c-3.076-0.878-6.591-2.16-7.585-5.202   c-1.036-3.169,1.519-6.568,4.662-7.732C440.854,66.182,440.977,66.14,441.1,66.102z M480.443,113.153   c0.107,0.262,0.217,0.521,0.326,0.774c0.642,1.484,1.416,3.104,2.91,3.717c1.455,0.597,3.193-0.006,4.307-1.116   c1.114-1.109,1.71-2.631,2.141-4.144c1.841-6.479,1.07-13.66-2.104-19.601c-3.112-5.825-10.404-13.234-17.631-12.687   c-2.953,0.188-5.459,2.579-5.413,5.567c0.06,3.884,3.459,4.729,5.636,6.945C475.449,97.534,477.75,106.619,480.443,113.153z    M133.704,130.025c3.767-2.283,9.826-4.601,12.136-8.524c2.168-3.684,0.789-8.094-3.686-8.694   c-4.686-0.628-9.997,1.657-13.112,5.063C123.785,123.616,123.003,136.509,133.704,130.025z" originalFill="#D8778A"/>
	<path fill="#F7F7FB" d="M394.652,284.234c5.715-2.486,7.243,7.452,7.428,10.938c0.289,5.45-1.746,13.694-6.149,17.402   c-3.706,3.121-10.651,2.923-11.514-2.783c-0.38-2.514,0.86-4.981,2.292-7.081c1.432-2.102,3.123-4.106,3.846-6.543   c0.626-2.113,0.465-4.372,0.778-6.554c0.063-0.432,0.15-0.87,0.269-1.301C392.078,286.569,393.033,284.938,394.652,284.234z    M375.249,318.569c-3.762,2.436-6.524,9.548-3.109,12.222c1.322,1.036,3.235,1.066,4.788,0.424c1.551-0.643,2.793-1.86,3.851-3.165   c2.94-3.629,3.125-10.44-3.085-10.313C376.867,317.754,376.035,318.06,375.249,318.569z" originalFill="#F7F7FB"/>
	<path fill="#F7F7FB" d="M477.499,524.379c1.317,2.338,3.175,4.998,5.857,4.889c1.89-0.076,3.468-1.648,4.09-3.434   c0.622-1.787,0.468-3.744,0.182-5.615c-1.366-8.912-5.724-17.916-13.89-22.465c-2.421-1.35-5.758-1.473-7.734,0.469   c-1.66,1.631-1.934,4.287-1.28,6.52c0.652,2.234,2.076,4.148,3.474,6.01C471.549,515.217,474.773,519.533,477.499,524.379z" originalFill="#F7F7FB"/>
</g>
</svg>