<?xml version="1.0" encoding="utf-8"?>
<!-- Generator: Adobe Illustrator 24.0.2, SVG Export Plug-In . SVG Version: 6.00 Build 0)  -->
<svg version="1.1" id="Warstwa_2" xmlns="http://www.w3.org/2000/svg" xmlns:xlink="http://www.w3.org/1999/xlink" x="0px" y="0px"
	 viewBox="0 0 1159.5686035 2160" style="enable-background:new 0 0 1159.5686035 2160;" xml:space="preserve">
<style type="text/css">
	.st0{fill:#1DA2DC;}
	.st1{fill:#F8B887;stroke:#000000;stroke-width:3;stroke-miterlimit:10;}
	.st2{fill:#FBCFA9;stroke:#000000;stroke-width:3;stroke-miterlimit:10;}
	.st3{fill:#EDA97C;stroke:#000000;stroke-width:3;stroke-miterlimit:10;}
	.st4{fill:#F7BBB4;stroke:#000000;stroke-width:3;stroke-miterlimit:10;}
	.st5{fill:#F2928E;stroke:#000000;stroke-width:3;stroke-miterlimit:10;}
	.st6{fill:#DBA796;stroke:#000000;stroke-width:3;stroke-miterlimit:10;}
	.st7{fill:#AE7862;stroke:#000000;stroke-width:3;stroke-miterlimit:10;}
	.st8{fill:#ABD8CF;stroke:#000000;stroke-width:3;stroke-miterlimit:10;}
	.st9{fill:#1AB3AE;stroke:#000000;stroke-width:3;stroke-miterlimit:10;}
	.st10{fill:#F8B887;stroke:#000000;stroke-width:2.9070988;stroke-miterlimit:10;}
	.st11{fill:#B683B9;stroke:#000000;stroke-width:3;stroke-miterlimit:10;}
	.st12{fill:#DAB897;stroke:#000000;stroke-width:3;stroke-miterlimit:10;}
	.st13{fill:#B1D1ED;stroke:#000000;stroke-width:3;stroke-miterlimit:10;}
	.st14{fill:#EC6552;stroke:#000000;stroke-width:3;stroke-miterlimit:10;}
	.st15{fill:#FCF3B5;stroke:#000000;stroke-width:3;stroke-miterlimit:10;}
	.st16{fill:none;stroke:#000000;stroke-width:3;stroke-miterlimit:10;}
</style>
<rect class="st0" width="1159.5686035" height="2160"/>
<g>
	<path class="st1" d="M815.1020508,1249.6523438l-230.4393311,739.4194336
		c-0.8756104,2.8094482-3.4763794,4.7231445-6.4191284,4.7231445l0,0c-2.9213867,0-5.5084839-1.8864746-6.4016724-4.6679688
		l-237.4491882-739.4746094H815.1020508z"/>
	<path class="st2" d="M935.1010742,927.9185181c0,0,22.1743164,153.5775757-105.1225586,272.6616821
		c0,0-219.2790527,52.5612793-504.2598877-9.0339355c0,0-127.0200195-116.1690674-105.6669922-267.2827148
		c107.2320557,19.9934082,239.1905518,35.5749512,390.0777588,33.8840332
		C733.1435547,956.769043,842.5671387,944.2033081,935.1010742,927.9185181z"/>
	<path class="st3" d="M305.9661255,1170.7589111l20.3195496,20.7873535
		c284.9808044,61.5952148,504.2598572,9.0339355,504.2598572,9.0339355l23.2335205-24.0501709
		C853.7790527,1176.5300293,630.3040771,1221.4639893,305.9661255,1170.7589111z"/>
	<g>
		<g>
			<circle class="st4" cx="736.0852051" cy="718.8013306" r="237.0900269"/>
			<path class="st5" d="M698.7886963,644.7142944c0,0,49.0222168-3.9747925,75.6587524,34.0064087
				c9.2717896,13.2207031,13.7532959,29.204834,13.3621216,45.3479004
				c-0.619751,25.5745239,2.2625732,83.8807373,41.4333496,83.8807373c50.1746826,0,28.0978394-81.677063,28.0978394-81.677063
				s-15.3869019-55.4671631,25.421814-29.3762817c0,0,10.7039185,0,4.6829834-26.7598267l-13.7931519-18.3908691
				c-7.4395752-9.9194946-11.4906006-22.0718384-10.9597168-34.4598389
				c0.50177-11.7073975,4.6829834-23.414856,19.4008789-23.414856c21.7221069,0,23.4069824,25.8662109,22.7983398,39.4227905
				c-0.2531738,5.6401367,1.1167603,11.2271729,3.9614868,16.1038818l0,0h0.000061
				c8.8021851,1.1481323,15.3869019,8.6474609,15.3869019,17.524231v10.8037109
				c0,4.2536011,3.5616455,7.7919312,7.8013916,7.4490967c3.0714111-0.2483521,5.9464722-2.4610596,6.2474976-9.6862183v-31.6491699
				c0-4.9129028,2.6627808-9.576416,7.1080933-11.6682739c4.2648315-2.007019,8.9431152-1.4525757,14.6295776,8.5823364
				c0,0-44.5215454-152.7293701-223.9417114-159.0417175c-130.8602295-4.6039124-237.0900269,113.5641785-237.0900269,237.0900574"
				/>
		</g>
		<g>
			<circle class="st6" cx="635.3709106" cy="409.5979309" r="232.4098511"/>
			<path class="st7" d="M449.0065002,270.7130432v29.3553772c0,6.4874268,1.9749451,12.8864441,5.9472046,18.015564
				c5.6969299,7.3560791,15.9230652,12.8779907,32.506012-1.8624268c0,0,21.2293701-13.6188354,29.6409912,18.8260498
				c5.6976929,21.9767456,24.2598877,48.5479736,35.6447144,63.406311
				c10.7160034,13.9854126,32.2853394,12.1076965,40.427002-3.5172119c0.1564941-0.3003235,0.3123779-0.6056824,0.4675293-0.9161072
				c4.0238647-8.0506287,5.9749756-16.9802551,5.9749756-25.9804993c-0.000061-5.112854-0.000061-11.0960083-0.000061-15.0456543
				c0-4.0583801,1.1191406-8.0709229,3.4226685-11.4122314c3.0303955-4.3956299,7.9382324-7.5332947,14.1777954,2.2919617
				c1.664917,2.6217346,2.9185181,5.4830322,3.8449097,8.4473877l3.4285278,10.971405
				c1.5063477,4.820282,4.8232422,8.946991,9.3638306,11.1576233c4.5717163,2.2257996,10.3394775,2.5697021,14.9723511-5.1401062
				c2.9394531-4.8916321,3.9230957-10.7093811,3.0633545-16.3511353
				c-2.1008301-13.7858582-6.5297852-48.4052429-3.4058228-78.3954163
				c4.0055542-38.4532166,27.6382446-33.2460022,27.6382446-33.2460022s14.2631226-1.1423645,16.2051392,21.0285034
				c0.3967285,4.5293579,4.2199097,8.155304,8.7590332,7.8925171c2.8059692-0.1624451,5.6503296-1.7554321,7.3971558-6.570282
				c0.2550659-0.703125,0.4205322-1.4382935,0.5710449-2.1709595c0.2235718-1.0878601,1.0218506-3.4785767,3.8731079-6.6795044
				c3.1151123-3.4971619,4.1304932-8.4055786,2.7217407-12.8720703c-2.7232666-8.6342773-4.9747925-21.4650879,5.3348389-22.2581329
				c0,0,10.013855-3.2044373,15.6216431,15.6216125c3.3295898,11.1779633,8.4949341,9.788147,12.1422729,6.8141327
				c2.612915-2.1305389,4.3579102-5.1432495,5.1239624-8.4264526l4.7642212-20.4181671
				c-54.5605469-38.889267-123.2639771-36.0910339-123.2639771-36.0910339S527.2363892,169.5830536,449.0065002,270.7130432z"/>
		</g>
		<g>
			<circle class="st8" cx="439.0089111" cy="688.2008057" r="265.9692078"/>
			<path class="st9" d="M233.2975006,519.6002197v32.4385986c0,0-0.0277405,0.4046021-0.0193329,1.1083984
				c0.1434326,12.0092163,10.0422363,21.6166992,22.0523071,21.6166382h0.0000305
				c12.1220093,0,23.4283142,6.3760986,29.453186,16.8948364c3.2411194,5.6586914,6.486145,13.1091919,9.1848755,22.8661499
				c6.0162659,21.7511597,13.6915894,49.6859741,18.307251,66.5026855
				c3.7641296,13.7141724,10.7371521,26.385437,20.611145,36.6203613
				c6.9425964,7.1963501,15.1051636,13.1069946,22.49823,11.8999634
				c9.5674744-1.5620117,11.4028931-14.6148071,11.1173401-26.0460205
				c-0.493103-19.7384644-0.2469788-39.4884644,1.2297058-59.1777954l1.4571838-19.428833
				c0.8692932-11.5905762,4.3864136-22.8782349,10.6047668-32.6980591
				c5.2877502-8.3501587,13.0089722-16.6522827,23.8722534-20.2733765
				c21.490448-7.1635132,20.3954468,44.1442871,19.5018005,60.6661377
				c-0.3490601,6.453186,0.1745605,12.9312134,1.7391052,19.2015381
				c2.2669373,9.0852051,6.9823303,19.1798706,16.7450867,19.1798706c8.4314575,0,14.3798828-7.5292969,18.3017883-15.4350586
				c4.1737366-8.4134521,6.1938477-17.7319336,6.1938477-27.1237793v-47.0632324
				c0-11.4919434,3.3556519-22.803833,9.9944763-32.1842041c4.9580688-7.0054932,11.7853394-13.097229,20.5363159-13.097229
				c17.2008972,0,27.2171936,14.3692627,30.0487976,19.1002197c1.1769409,1.9664307,2.9447021,3.545166,5.1053467,4.309021
				c4.1762695,1.4765015,10.9379272,0.6327515,18.09729-13.4689941
				c9.4523926-18.6183472,18.673645-17.8235474,21.8833008-16.8218994c0.8375244,0.2614136,1.7002563,0.4085083,2.5669556,0.5447998
				c3.5264282,0.5545044,12.6777954,4.7886353,13.5357056,33.6725464
				c1.0650024,35.855957,28.0457153,61.416626,28.0457153,61.416626s25.2056885,22.3656006,27.6907349-16.6854248
				l-4.8411255-57.18573c-0.7485962-8.8427124,11.9654541-11.1119385,14.3070068-2.552002
				c0.0405273,0.1481323,0.0803223,0.2985229,0.1193848,0.4511719l13.0220947,1.0883789
				c-92.0027466-139.6299438-227.3247375-127.7049255-227.3247375-127.7049255S322.0149231,414.9430542,233.2975006,519.6002197z"/>
		</g>
	</g>
	<path class="st3" d="M936.5813599,950.1812134l-0.3092651-22.2626953
		c-92.5339355,16.28479-201.9575195,28.8505249-324.9716797,30.2290649
		c-150.887207,1.690918-284.0167236-13.890625-391.2487793-33.8840332l-2.4192657,21.1343994
		C217.63237,945.3979492,508.8179321,1017.4072266,936.5813599,950.1812134z"/>
	<path class="st1" d="M936.5813599,830.060791c0,0,53.8208618-17.8389893,53.8208618,35.6779175
		s-54.130127,62.1798096-54.130127,62.1798096c-92.5339355,16.28479-201.9575195,28.8505249-324.9716797,30.2290649
		c-150.887207,1.690918-284.0167236-13.890625-391.2487793-33.8840332c0,0-38.282135-8.6047363-38.282135-58.5248413
		c0-49.920166,48.8854828-38.5321655,48.8854828-38.5321655S531.7841187,893.1884766,936.5813599,830.060791z"/>
	<path class="st10" d="M805.982666,1202.0931396c39.4077148-7.7904053,39.2700195,11.7332764,39.2700195,11.7332764
		c-2.6774902,35.1994629-37.4851074,41.065918-37.4851074,41.065918
		c-265.8019409,26.3774414-418.175415,6.0294189-461.9420471-1.5683594
		c-13.3012695-2.30896-25.4494629-9.3028564-33.6955566-19.9920654c-5.0287781-6.5186768-8.7380371-14.5817871-7.7339783-23.6959229
		c2.1419678-19.4434814,16.8504639-18.5048828,22.6481934-17.3516846c2.9140625,0.5795898,5.8258057,1.130249,8.7680664,1.5664063
		c9.2441406,1.3703613,90.7739868,25.5966797,252.2749634,25.5966797
		C692.7603149,1219.4473877,760.5444336,1211.0759277,805.982666,1202.0931396z"/>
	<g>
		
			<ellipse transform="matrix(0.8869204 -0.4619223 0.4619223 0.8869204 -182.1701355 203.8331604)" class="st11" cx="325.2370605" cy="473.9927368" rx="21.6522541" ry="10.1222878"/>
		<ellipse class="st12" cx="392.4394226" cy="454.8858948" rx="12.6947365" ry="8.1473684"/>
		
			<ellipse transform="matrix(0.9982855 -0.0585315 0.0585315 0.9982855 -25.6463261 29.2717743)" class="st13" cx="486.850647" cy="452.4227295" rx="9.6631575" ry="5.6842103"/>
		<ellipse class="st14" cx="548.9430542" cy="483.2543335" rx="13.0736837" ry="8.3368425"/>
		
			<ellipse transform="matrix(0.8660254 -0.5 0.5 0.8660254 -184.5363312 281.1897583)" class="st14" cx="432.4390564" cy="484.9443359" rx="9.4736843" ry="14.968421"/>
		
			<ellipse transform="matrix(0.3822341 -0.9240655 0.9240655 0.3822341 -324.7858887 587.1054077)" class="st15" cx="276.7085571" cy="536.4630127" rx="14.5847321" ry="8.2346907"/>
		
			<ellipse transform="matrix(0.6097612 -0.7925852 0.7925852 0.6097612 -299.763855 492.6873169)" class="st13" cx="350.4484558" cy="550.7577515" rx="12.8582249" ry="8.2346907"/>
		<ellipse class="st11" cx="440.5043945" cy="558.1838989" rx="5.6369147" ry="7.4261074"/>
	</g>
	<g>
		<path class="st16" d="M222.8691864,684.7073975c0,0-2.2038574,20.5693359,4.4077148,39.6694946"/>
		<path class="st16" d="M235.3577118,724.3768921c0,0-3.6730957,19.1000977,6.6115723,33.0578613"/>
		<path class="st16" d="M554.1826172,562.0259399c0,0,20.569397,11.0192871,23.5078735,28.6501465"/>
		<path class="st16" d="M570.7987061,596.5530396c0,0,20.8495483,3.6730957,15.7072144,43.3425903"/>
		<path class="st16" d="M623.2368774,639.8956299c0.7346191,2.9384766,11.0192871,25.7116699,4.4077148,53.6271973"/>
		<path class="st16" d="M654.0909424,681.0343018c0,0,3.6730957,25.7116699-8.8154907,38.9348755"/>
		<path class="st16" d="M632.7869263,733.1923218c0,0,2.2038574,31.588623-27.1809082,57.300293"/>
		<path class="st16" d="M587.3217163,811.0620117c0,0-3.0196533,10.284668-21.3851318,23.5078125"/>
		<path class="st16" d="M605.6060181,715.5614624c0,0-7.918396,40.4040527-18.2843018,53.6271973"/>
		<path class="st16" d="M605.6060181,742.375061c0,0-2.1226807,17.9981689-9.1421509,26.8135986"/>
	</g>
	<g>
		<path class="st16" d="M910.725708,676.3321533c0,0,6.3203125,23.1744385,3.5112915,33.708313"/>
		<path class="st16" d="M903.703125,719.9691772c0,0,15.449646,51.869812-7.7247925,73.6397705"/>
		<path class="st16" d="M921.2595825,752.8780518c0,0-0.5733032,30.899292-18.8964844,47.0512085"/>
		<path class="st16" d="M888.9557495,822.815918c0,0-5.618042,15.7374268-16.854126,19.2487183"/>
	</g>
	<g>
		
			<ellipse transform="matrix(0.4661783 -0.8846908 0.8846908 0.4661783 -94.4013443 1030.5866699)" class="st14" cx="806.7834473" cy="593.5179443" rx="17.4440765" ry="6.7295718"/>
		
			<ellipse transform="matrix(0.1709584 -0.9852782 0.9852782 0.1709584 174.520813 1307.7907715)" class="st13" cx="864.385376" cy="550.1903687" rx="8.137145" ry="13.6352167"/>
		
			<ellipse transform="matrix(0.9651708 -0.2616206 0.2616206 0.9651708 -125.4329605 262.2033386)" class="st15" cx="922.0574951" cy="602.1983643" rx="7.0016642" ry="15.4256544"/>
		
			<ellipse transform="matrix(0.9754812 -0.2200831 0.2200831 0.9754812 -119.1598892 199.5040283)" class="st12" cx="835.8010254" cy="634.5457153" rx="7.490149" ry="16.6447754"/>
		<ellipse class="st11" cx="833.4257202" cy="707.8395996" rx="7.6982083" ry="10.1949253"/>
		<ellipse class="st13" cx="799.4026489" cy="674.1339111" rx="7.3808179" ry="10.1949253"/>
	</g>
	<g>
		<path class="st16" d="M743.0995483,294.8658142c0,0,48.0807495,33.1986084,45.218811,82.4241028"/>
		<path class="st16" d="M717.9144287,303.4516602c0,0,20.0336304,26.3299255,28.6194458,57.2389526"/>
		<path class="st16" d="M782.5944214,399.0407104c0,0,8.5858765,26.1364746,0,47.6978149"/>
		<path class="st16" d="M792.0218506,437.9632263c0,0,4.1191406,26.400177-7.5194702,36.9542542"/>
		<path class="st16" d="M784.5023804,499.2088928c0,0-12.2109375,34.3434143-22.5139771,41.7844543"/>
		<path class="st16" d="M792.7294312,513.5186157c0,0-0.7859497,21.7508545-19.4840088,33.1986084"/>
	</g>
	<g>
		<ellipse class="st13" cx="566.517334" cy="271.1116333" rx="7.7272596" ry="12.3063765"/>
		
			<ellipse transform="matrix(0.7678411 -0.6406403 0.6406403 0.7678411 -45.9002876 376.4198914)" class="st11" cx="496.4134827" cy="251.5406494" rx="13.9327316" ry="8.2996492"/>
		
			<ellipse transform="matrix(0.9613974 -0.2751637 0.2751637 0.9613974 -59.3883133 181.5258026)" class="st15" cx="617.2739258" cy="302.4261475" rx="7.9499183" ry="14.1231928"/>
		<ellipse class="st14" cx="619.3097534" cy="199.5102234" rx="14.8135977" ry="7.6880698"/>
		<ellipse class="st13" cx="667.6887817" cy="214.1363068" rx="9.5632086" ry="6.938014"/>
		
			<ellipse transform="matrix(0.8292225 -0.5589187 0.5589187 0.8292225 -24.2070103 352.3398438)" class="st12" cx="564.4633179" cy="215.7821198" rx="13.6051197" ry="7.0606179"/>
	</g>
	<g>
		<line class="st16" x1="731.1583862" y1="1261.1258545" x2="790.6234741" y2="1328.1976318"/>
		<line class="st16" x1="588.0872192" y1="1268.3624268" x2="742.8605957" y2="1481.4561768"/>
		<line class="st16" x1="425.7202759" y1="1263.5024414" x2="698.7384644" y2="1623.0325928"/>
		<line class="st16" x1="495.182251" y1="1750.3900146" x2="616.7120972" y2="1885.8618164"/>
		<line class="st16" x1="352.7385254" y1="1307.7338867" x2="409.9457703" y2="1261.9680176"/>
		<polyline class="st16" points="544.8165283,1268.3624268 387.6295166,1415.4447021 662.1445923,1740.4527588 		"/>
		<path class="st16" d="M723.4440308,1261.7156982c-50.5639648,38.7561035-106.7321777,85.2877197-161.7122803,136.6923828
			c-51.0380859,47.7191162-95.362915,93.6984863-135.1455078,138.3572998"/>
		<path class="st16" d="M760.2199097,1426.0527344c0,0-193.6063843,130.4838867-285.3864136,260.9663086"/>
		<line class="st16" x1="516.3945313" y1="1817.5001221" x2="693.2495117" y2="1640.6452637"/>
		<line class="st16" x1="550.6738281" y1="1922.5496826" x2="630.1687622" y2="1843.0546875"/>
	</g>
</g>
</svg>
